<svg xmlns="http://www.w3.org/2000/svg" xmlns:xlink="http://www.w3.org/1999/xlink" viewBox="0 0 375 245"><defs><style>.cls-1{fill:#fff;}.cls-16,.cls-2,.cls-3{fill:#3c3c41;}.cls-2{opacity:0.05;}.cls-2,.cls-3{isolation:isolate;}.cls-3{opacity:0.18;}.cls-4{fill:#6ebcdb;}.cls-5{fill:#5db4d7;}.cls-6{fill:#e6e6e6;}.cls-7{fill:#86d633;}.cls-8{fill:url(#Degradado_sin_nombre);}.cls-9{fill:#003067;}.cls-10{fill:#50e6ff;}.cls-11{fill:url(#Degradado_sin_nombre_2);}.cls-12{fill:url(#Degradado_sin_nombre_3);}.cls-13,.cls-14,.cls-15,.cls-17,.cls-18,.cls-19,.cls-20{fill:none;stroke:#3c3c41;stroke-linecap:round;stroke-miterlimit:10;}.cls-14{stroke-dasharray:0.96 2.88 3.84 2.88;}.cls-15{stroke-dasharray:3.84 2.88 0.96 2.88 3.84 2.88;}.cls-17{stroke-dasharray:0.95 2.86 3.81 2.86;}.cls-18{stroke-dasharray:3.81 2.86 0.95 2.86 3.81 2.86;}.cls-19{stroke-dasharray:0.86 2.58 3.44 2.58;}.cls-20{stroke-dasharray:3.44 2.58 0.86 2.58 3.44 2.58;}.cls-21{fill:url(#Degradado_sin_nombre_4);}.cls-22{fill:#b4ec36;}.cls-23{fill:#5ea0ef;}.cls-24{fill:#1e1e1e;}</style><linearGradient id="Degradado_sin_nombre" x1="240.52" y1="344.72" x2="240.52" y2="376.72" gradientTransform="translate(0 -298)" gradientUnits="userSpaceOnUse"><stop offset="0" stop-color="#b3b2b3"/><stop offset="0.38" stop-color="#afaeaf"/><stop offset="0.76" stop-color="#a2a2a2"/><stop offset="1" stop-color="#979797"/></linearGradient><linearGradient id="Degradado_sin_nombre_2" x1="240.52" y1="423.22" x2="240.52" y2="455.22" xlink:href="#Degradado_sin_nombre"/><linearGradient id="Degradado_sin_nombre_3" x1="240.52" y1="503.4" x2="240.52" y2="535.4" xlink:href="#Degradado_sin_nombre"/><linearGradient id="Degradado_sin_nombre_4" x1="144.48" y1="457.63" x2="144.48" y2="422.85" gradientTransform="translate(0 -298)" gradientUnits="userSpaceOnUse"><stop offset="0" stop-color="#5e9624"/><stop offset="0.02" stop-color="#5f9724"/><stop offset="1" stop-color="#76bc2d"/></linearGradient></defs><title>OJ105690781</title><g id="bg"><rect class="cls-1" y="35" width="375" height="210"/><rect class="cls-2" y="35" width="375" height="210"/><rect class="cls-1" width="375" height="35"/><rect class="cls-3" width="375" height="35"/></g><g id="shapes"><g id="ad94e297-0e86-4eaf-aac0-d146ee9aea65"><path class="cls-4" d="M120.79,24.14l-3.63-3.75a1.77,1.77,0,0,1-.6.11,1.88,1.88,0,1,1,0-3.76,1.86,1.86,0,0,1,1.76,1.18h3.58v1.26h-3.52c-.06.15-.13.29-.2.44l3.34,3.45,1.82-2.76V11.65H120.9L124,8.53l3,3.12h-2.44v6.77l4.59-7-4.63-4.63a.8.8,0,0,0-1.13,0h0L112.18,18a.8.8,0,0,0,0,1.13h0l11.21,11.21-4-4Z"/><path class="cls-5" d="M123.31,24.3v-4l-1.82,2.77,1.34,1.43A1.2,1.2,0,0,1,123.31,24.3Z"/><path class="cls-5" d="M135.71,18l-6.56-6.57-4.59,7v5.89a1.27,1.27,0,0,1,.41.23l4.82-4.87a2.23,2.23,0,0,1-.24-.49h-3.61V17.92h3.66a1.87,1.87,0,1,1,1.74,2.58,3,3,0,0,1-.52-.08l-5.12,5.16a2.67,2.67,0,0,1,.08.48,1.88,1.88,0,0,1-3.76.15,1.83,1.83,0,0,1,.1-.7l-1.33-1.33-1.43,2.13,4,4a.79.79,0,0,0,1.12,0h0l11.21-11.2a.79.79,0,0,0,0-1.12h0Z"/><path class="cls-6" d="M129.6,17.92h-3.66v1.26h3.61a1.77,1.77,0,0,1-.09-.56A1.86,1.86,0,0,1,129.6,17.92Z"/><path class="cls-6" d="M118.35,19.18h3.52V17.92h-3.58a1.69,1.69,0,0,1,.15.7A1.77,1.77,0,0,1,118.35,19.18Z"/><path class="cls-6" d="M125.7,25.58l5.12-5.16a2,2,0,0,1-1-.75L125,24.54A1.74,1.74,0,0,1,125.7,25.58Z"/><path class="cls-6" d="M122.87,24.5l-1.34-1.43-3.38-3.45a2,2,0,0,1-1,.77l3.63,3.75,1.33,1.33A1.79,1.79,0,0,1,122.87,24.5Z"/><path class="cls-1" d="M127,11.65l-3-3.12-3.08,3.12h2.44V24.3a1.35,1.35,0,0,0-.44.2,1.88,1.88,0,0,0-.51,2.6,1.93,1.93,0,0,0,1,.74,1.87,1.87,0,0,0,2.33-1.25,2.34,2.34,0,0,0,.08-.53,2.67,2.67,0,0,0-.08-.48,1.72,1.72,0,0,0-.73-1,1.27,1.27,0,0,0-.41-.23V11.65ZM124,27.1a1,1,0,1,1,1-1h0A1,1,0,0,1,124,27.1Z"/><path class="cls-1" d="M118.15,19.62c.07-.15.14-.29.2-.44a1.77,1.77,0,0,0,.09-.56,1.69,1.69,0,0,0-.15-.7,1.87,1.87,0,1,0-1.73,2.58,1.77,1.77,0,0,0,.6-.11A1.94,1.94,0,0,0,118.15,19.62Zm-1.59,0a1,1,0,1,1,1-1h0a1.05,1.05,0,0,1-1,1.08h0Z"/><path class="cls-1" d="M130.82,20.42a3,3,0,0,0,.52.08,1.87,1.87,0,1,0-1.88-1.88,1.77,1.77,0,0,0,.09.56,2.23,2.23,0,0,0,.24.49A2,2,0,0,0,130.82,20.42Zm.52-2.83a1,1,0,0,1,.92,1.08s0,0,0,.07a1,1,0,0,1-2.06,0A1,1,0,0,1,131,17.6h.07a1,1,0,0,1,.24,0Z"/><path class="cls-7" d="M124,25a1,1,0,0,0,0,2.08,1,1,0,0,0,1-1h0a1,1,0,0,0-.92-1.08Z"/><circle class="cls-7" cx="116.56" cy="18.62" r="1.04"/><path class="cls-7" d="M131.34,19.66a1,1,0,0,0,0-2.08,1,1,0,0,0-1,1h0a1,1,0,0,0,.92,1.08Z"/></g><path class="cls-8" d="M250.91,77.63a1.16,1.16,0,0,1-1.2,1.09H231.33a1.16,1.16,0,0,1-1.2-1.09V47.81a1.16,1.16,0,0,1,1.2-1.09h18.38a1.16,1.16,0,0,1,1.2,1.09Z"/><path class="cls-9" d="M233.19,60.4a2.39,2.39,0,0,1,2.22-2.5h10.38A2.37,2.37,0,0,1,248,60.4h0a2.37,2.37,0,0,1-2.12,2.6H235.45a2.39,2.39,0,0,1-2.22-2.49Z"/><path class="cls-9" d="M233.19,53a2.38,2.38,0,0,1,2.22-2.49h10.38A2.38,2.38,0,0,1,248,53h0a2.4,2.4,0,0,1-2.21,2.5H235.45a2.4,2.4,0,0,1-2.22-2.5Z"/><circle class="cls-10" cx="236.1" cy="53" r="1.66"/><circle class="cls-10" cx="236.1" cy="60.4" r="1.66"/><path class="cls-11" d="M250.91,156.13a1.16,1.16,0,0,1-1.2,1.09H231.33a1.16,1.16,0,0,1-1.2-1.09V126.31a1.16,1.16,0,0,1,1.2-1.09h18.38a1.16,1.16,0,0,1,1.2,1.09Z"/><path class="cls-9" d="M233.19,138.9a2.39,2.39,0,0,1,2.22-2.5h10.38a2.37,2.37,0,0,1,2.21,2.5h0a2.37,2.37,0,0,1-2.13,2.59H235.45a2.39,2.39,0,0,1-2.22-2.49Z"/><path class="cls-9" d="M233.19,131.5a2.38,2.38,0,0,1,2.22-2.49h10.38A2.38,2.38,0,0,1,248,131.5h0a2.4,2.4,0,0,1-2.21,2.5H235.45a2.4,2.4,0,0,1-2.22-2.5Z"/><circle class="cls-10" cx="236.1" cy="131.5" r="1.66"/><circle class="cls-10" cx="236.1" cy="138.9" r="1.66"/><path class="cls-12" d="M250.91,236.31a1.16,1.16,0,0,1-1.2,1.09H231.33a1.16,1.16,0,0,1-1.2-1.09V206.48a1.15,1.15,0,0,1,1.2-1.08h18.38a1.15,1.15,0,0,1,1.2,1.08Z"/><path class="cls-9" d="M233.19,219.08a2.4,2.4,0,0,1,2.22-2.51h10.38a2.4,2.4,0,0,1,2.21,2.51h0a2.38,2.38,0,0,1-2.13,2.59H235.45a2.38,2.38,0,0,1-2.22-2.48Z"/><path class="cls-9" d="M233.19,211.67a2.38,2.38,0,0,1,2.22-2.48h10.38a2.36,2.36,0,0,1,2.21,2.48h0a2.4,2.4,0,0,1-2.21,2.51H235.45a2.4,2.4,0,0,1-2.22-2.51Z"/><circle class="cls-10" cx="236.1" cy="211.67" r="1.66"/><circle class="cls-10" cx="236.1" cy="219.08" r="1.66"/><line class="cls-13" x1="144.27" y1="160.45" x2="144.27" y2="158.45"/><line class="cls-14" x1="144.27" y1="155.57" x2="144.27" y2="146.44"/><path class="cls-15" d="M144.27,145V66.89a5,5,0,0,1,5-5h68.28"/><line class="cls-13" x1="218.99" y1="61.89" x2="220.99" y2="61.89"/><polygon class="cls-16" points="219.9 65.63 226.37 61.89 219.9 58.15 219.9 65.63"/><line class="cls-13" x1="143.77" y1="193.29" x2="143.77" y2="195.29"/><line class="cls-17" x1="143.77" y1="198.14" x2="143.77" y2="207.19"/><path class="cls-18" d="M143.77,208.62v7.62a5,5,0,0,0,5,5h68.79"/><line class="cls-13" x1="218.99" y1="221.24" x2="220.99" y2="221.24"/><polygon class="cls-16" points="219.9 224.98 226.37 221.24 219.9 217.5 219.9 224.98"/><line class="cls-13" x1="158.46" y1="142.11" x2="160.46" y2="142.11"/><line class="cls-19" x1="163.04" y1="142.11" x2="171.22" y2="142.11"/><line class="cls-20" x1="172.51" y1="142.11" x2="217.7" y2="142.11"/><line class="cls-13" x1="218.99" y1="142.11" x2="220.99" y2="142.11"/><polygon class="cls-16" points="219.9 145.85 226.37 142.11 219.9 138.37 219.9 145.85"/><path class="cls-21" d="M129.77,140.83l14-14a1,1,0,0,1,1.41,0h0l14,14a1,1,0,0,1,0,1.41h0l-14,14a1,1,0,0,1-1.4,0l-14-14a1,1,0,0,1,0-1.41Z"/><path class="cls-22" d="M148.13,133.22l-3.53-3.52a.2.2,0,0,0-.27,0l-3.53,3.52a.16.16,0,0,0,0,.21l0,0a.16.16,0,0,0,.17.07h2a.18.18,0,0,1,.18.18V137a.21.21,0,0,0,.19.19h2.2a.19.19,0,0,0,.18-.19v-3.3a.18.18,0,0,1,.18-.18H148a.17.17,0,0,0,.2-.13A.14.14,0,0,0,148.13,133.22Z"/><path class="cls-22" d="M136.13,137.57l-3.49,3.54a.17.17,0,0,0,0,.24h0l3.49,3.52a.19.19,0,0,0,.26,0,.2.2,0,0,0,.06-.14v-2a.19.19,0,0,1,.18-.19H140a.16.16,0,0,0,.16-.16h0v-2.22a.16.16,0,0,0,0-.23h-3.4a.17.17,0,0,1-.18-.15v-2a.2.2,0,0,0-.37-.13Z"/><path class="cls-22" d="M152.93,144.88l3.55-3.53a.18.18,0,0,0,0-.25l-3.55-3.53a.18.18,0,0,0-.25,0h0a.21.21,0,0,0,0,.11v2.08a.17.17,0,0,1-.16.17h-3.35a.16.16,0,0,0-.17.15h0v2.22a.17.17,0,0,0,.15.18h3.35a.19.19,0,0,1,.18.19v2.06a.18.18,0,0,0,.2.16h0Z"/><path class="cls-1" d="M149.12,141.55a4.65,4.65,0,1,0-5.9,4.45v1.58a2.86,2.86,0,1,0,2.61,0v-1.67A4.63,4.63,0,0,0,149.12,141.55Z"/><circle id="e99c3387-15c3-4f28-bd4b-cb209b430e06" class="cls-23" cx="144.48" cy="141.53" r="2.7"/></g><g id="txt"><path class="cls-24" d="M121.79,173.29h-1.53l-.76-2.14h-3.3l-.73,2.14H114l3.14-8.4h1.57ZM119.13,170,118,166.67a3.33,3.33,0,0,1-.12-.53h0a2.47,2.47,0,0,1-.12.53L116.56,170Z"/><path class="cls-24" d="M127.22,167.86,124,172.23h3.23v1.06h-5.14v-.51l3.31-4.43h-3v-1.06h4.83Z"/><path class="cls-24" d="M133.59,173.29h-1.36v-.95h0a2,2,0,0,1-1.84,1.09q-2.13,0-2.13-2.55v-3.59h1.36v3.45c0,1.08.42,1.62,1.25,1.62a1.25,1.25,0,0,0,1-.45,1.72,1.72,0,0,0,.39-1.17v-3.45h1.36Z"/><path class="cls-24" d="M138.84,168.59a1.11,1.11,0,0,0-.71-.2,1.22,1.22,0,0,0-1,.55,2.43,2.43,0,0,0-.41,1.48v2.87h-1.36v-6h1.36v1.24h0a2.07,2.07,0,0,1,.61-1,1.39,1.39,0,0,1,.92-.35,1.07,1.07,0,0,1,.56.11Z"/><path class="cls-24" d="M144.88,170.66h-4.09a1.76,1.76,0,0,0,.52,1.29,1.89,1.89,0,0,0,1.34.45,3,3,0,0,0,1.77-.58v1.1a4.08,4.08,0,0,1-2.17.51,2.69,2.69,0,0,1-2.08-.81,3.3,3.3,0,0,1-.75-2.3,3.18,3.18,0,0,1,.83-2.29,2.74,2.74,0,0,1,2.06-.88,2.38,2.38,0,0,1,1.9.79,3.29,3.29,0,0,1,.67,2.2Zm-1.31-1a1.76,1.76,0,0,0-.34-1.14,1.17,1.17,0,0,0-.94-.41,1.33,1.33,0,0,0-1,.43,2,2,0,0,0-.51,1.12Z"/><path class="cls-24" d="M154.28,173.29h-4.65v-8.4H151v7.23h3.26Z"/><path class="cls-24" d="M158,173.43a3,3,0,0,1-2.21-.84,3,3,0,0,1-.83-2.23,3.16,3.16,0,0,1,.86-2.36,3.21,3.21,0,0,1,2.33-.85,2.87,2.87,0,0,1,2.19.83,3.2,3.2,0,0,1,.79,2.29,3.17,3.17,0,0,1-.85,2.3A3,3,0,0,1,158,173.43Zm.07-5.19a1.55,1.55,0,0,0-1.26.55,2.34,2.34,0,0,0-.46,1.54,2.19,2.19,0,0,0,.46,1.48,1.6,1.6,0,0,0,1.26.55,1.49,1.49,0,0,0,1.23-.54,2.9,2.9,0,0,0,0-3A1.49,1.49,0,0,0,158.07,168.24Z"/><path class="cls-24" d="M167.11,173.29H165.8v-.93h0a2,2,0,0,1-1.82,1.07,1.94,1.94,0,0,1-1.39-.48,1.69,1.69,0,0,1-.5-1.27c0-1.13.66-1.79,2-2l1.78-.25c0-.86-.4-1.28-1.22-1.28a2.89,2.89,0,0,0-1.93.73v-1.19a4.25,4.25,0,0,1,2.19-.56,2,2,0,0,1,2.27,2.24Zm-1.31-2.94-1.26.17a2,2,0,0,0-.88.29.81.81,0,0,0-.3.73.8.8,0,0,0,.28.62,1.05,1.05,0,0,0,.73.24,1.37,1.37,0,0,0,1-.43,1.57,1.57,0,0,0,.4-1.1Z"/><path class="cls-24" d="M174.23,173.29h-1.36v-1h0a2.36,2.36,0,0,1-3.8.36,3.38,3.38,0,0,1-.66-2.2,3.64,3.64,0,0,1,.73-2.38,2.41,2.41,0,0,1,2-.9,1.89,1.89,0,0,1,1.77,1h0v-3.72h1.36Zm-1.34-2.74v-.78a1.53,1.53,0,0,0-.42-1.09,1.37,1.37,0,0,0-1.06-.44,1.44,1.44,0,0,0-1.2.56,2.56,2.56,0,0,0-.44,1.58,2.29,2.29,0,0,0,.42,1.45,1.38,1.38,0,0,0,1.13.53,1.41,1.41,0,0,0,1.13-.52A1.92,1.92,0,0,0,172.89,170.55Z"/><path class="cls-24" d="M122.33,186.49v-8.4H125a3.18,3.18,0,0,1,1.93.53,1.65,1.65,0,0,1,.71,1.39,2,2,0,0,1-.4,1.24,2.08,2.08,0,0,1-1.12.75v0a2.18,2.18,0,0,1,1.39.64,2,2,0,0,1,.51,1.41,2.12,2.12,0,0,1-.85,1.75,3.37,3.37,0,0,1-2.14.66Zm1.39-7.28v2.39h.91a1.74,1.74,0,0,0,1.14-.34,1.2,1.2,0,0,0,.41-1q0-1.08-1.44-1.08Zm0,3.51v2.66h1.19a1.84,1.84,0,0,0,1.21-.36,1.23,1.23,0,0,0,.42-1c0-.87-.6-1.31-1.81-1.31Z"/><path class="cls-24" d="M134,186.49h-1.32v-.93h0a2,2,0,0,1-1.82,1.07,1.9,1.9,0,0,1-1.38-.48,1.66,1.66,0,0,1-.51-1.27c0-1.13.66-1.79,2-2l1.78-.25c0-.86-.4-1.28-1.22-1.28a2.91,2.91,0,0,0-1.93.73v-1.18a4.16,4.16,0,0,1,2.19-.57,2,2,0,0,1,2.28,2.24Zm-1.32-2.94-1.26.17a2,2,0,0,0-.88.29.81.81,0,0,0-.29.73.8.8,0,0,0,.27.62,1.05,1.05,0,0,0,.73.24,1.37,1.37,0,0,0,1-.43,1.55,1.55,0,0,0,.4-1.1Z"/><path class="cls-24" d="M137.06,186.49h-1.37v-8.88h1.37Z"/><path class="cls-24" d="M143.43,186.49h-1.31v-.93h0a2,2,0,0,1-1.82,1.07,1.94,1.94,0,0,1-1.39-.48,1.69,1.69,0,0,1-.5-1.27c0-1.13.66-1.79,2-2l1.78-.25c0-.86-.4-1.28-1.22-1.28a2.89,2.89,0,0,0-1.93.73v-1.18a4.16,4.16,0,0,1,2.19-.57,2,2,0,0,1,2.27,2.24Zm-1.31-2.94-1.26.17a2,2,0,0,0-.88.29.81.81,0,0,0-.3.73.77.77,0,0,0,.28.62,1.05,1.05,0,0,0,.73.24,1.33,1.33,0,0,0,1-.43,1.52,1.52,0,0,0,.41-1.1Z"/><path class="cls-24" d="M150.44,186.49h-1.36v-3.38c0-1.12-.4-1.68-1.19-1.68a1.31,1.31,0,0,0-1,.47,1.71,1.71,0,0,0-.4,1.17v3.42h-1.37v-6h1.37v1h0a2.14,2.14,0,0,1,2-1.14,1.79,1.79,0,0,1,1.49.64,2.86,2.86,0,0,1,.52,1.84Z"/><path class="cls-24" d="M156.39,186.22a3.33,3.33,0,0,1-1.71.41,2.85,2.85,0,0,1-2.15-.83,3,3,0,0,1-.82-2.17,3.26,3.26,0,0,1,.88-2.38,3.15,3.15,0,0,1,2.36-.9,3.51,3.51,0,0,1,1.45.29v1.27a2.17,2.17,0,0,0-1.34-.47,1.83,1.83,0,0,0-1.41.58,2.13,2.13,0,0,0-.55,1.53,2.05,2.05,0,0,0,.51,1.47,1.85,1.85,0,0,0,1.4.54,2.17,2.17,0,0,0,1.38-.53Z"/><path class="cls-24" d="M162.82,183.86h-4.09a1.71,1.71,0,0,0,.51,1.29,1.91,1.91,0,0,0,1.34.45,2.93,2.93,0,0,0,1.77-.58v1.1a4.08,4.08,0,0,1-2.17.51,2.7,2.7,0,0,1-2.08-.81,3.3,3.3,0,0,1-.75-2.3,3.22,3.22,0,0,1,.83-2.29,2.74,2.74,0,0,1,2.06-.88,2.38,2.38,0,0,1,1.9.79,3.29,3.29,0,0,1,.68,2.2Zm-1.32-1a1.71,1.71,0,0,0-.34-1.14,1.17,1.17,0,0,0-.94-.41,1.33,1.33,0,0,0-1,.43,2,2,0,0,0-.5,1.12Z"/><path class="cls-24" d="M167.59,181.79a1.11,1.11,0,0,0-.71-.2,1.22,1.22,0,0,0-1,.55,2.43,2.43,0,0,0-.41,1.48v2.87h-1.36v-6h1.36v1.24h0a2.16,2.16,0,0,1,.62-1,1.39,1.39,0,0,1,.92-.35,1.07,1.07,0,0,1,.56.11Z"/><path class="cls-24" d="M145.92,16.44a26.65,26.65,0,0,1-3.09,1.94l-.75-1a19.9,19.9,0,0,0,3.85-2.49,12.3,12.3,0,0,0,2.47-2.72l1.24.76a20.74,20.74,0,0,1-2.38,2.46v7h-1.34Z"/><path class="cls-24" d="M151.8,13.16a19.8,19.8,0,0,1,3,1.9l-.87,1.2A14.75,14.75,0,0,0,151,14.19Zm5.8.52,1.26.65a10.25,10.25,0,0,1-2.23,5.26,9.3,9.3,0,0,1-4.88,2.79l-.65-1.22a7.86,7.86,0,0,0,4.93-3A9.67,9.67,0,0,0,157.6,13.68Z"/><path class="cls-24" d="M159.8,21.51a17.41,17.41,0,0,0,2.38-8.43l1.41.18a28.1,28.1,0,0,1-1,5.4A15.55,15.55,0,0,1,161,22.15ZM165,13.23l1.38-.15a19.94,19.94,0,0,0,2.44,8.36l-1.3.72a22,22,0,0,1-1.7-4.51A36.71,36.71,0,0,1,165,13.23Zm1.48-1.2.79-.16a10.61,10.61,0,0,1,.75,2.05l-.82.19A9.76,9.76,0,0,0,166.51,12Zm1.43-.26.78-.17a12.86,12.86,0,0,1,.73,2l-.82.22A11.8,11.8,0,0,0,167.94,11.77Z"/><path class="cls-24" d="M174.78,13.84h3.05a15.12,15.12,0,0,1-.53,4.47A5.67,5.67,0,0,1,175.65,21a8.43,8.43,0,0,1-2.9,1.51l-.73-1a7.82,7.82,0,0,0,2.46-1.2,4.34,4.34,0,0,0,1.41-2,10,10,0,0,0,.45-3.3h-4.56v2.78h-1.35V13.84h3V12.1h1.38Z"/><path class="cls-24" d="M180.08,13.16a19.8,19.8,0,0,1,3,1.9l-.88,1.2a14.2,14.2,0,0,0-2.94-2.07Zm5.8.52,1.26.65a10.18,10.18,0,0,1-2.24,5.26A9.27,9.27,0,0,1,180,22.38l-.65-1.22a7.89,7.89,0,0,0,4.93-3A9.78,9.78,0,0,0,185.88,13.68Z"/><path class="cls-24" d="M191.15,15.78a19.59,19.59,0,0,1,4.6,1.86l-.67,1.27a14.56,14.56,0,0,0-3.93-1.84v5.31h-1.34V12.27h1.34ZM193.08,12l.8-.22a11.81,11.81,0,0,1,.87,2l-.81.26A9.61,9.61,0,0,0,193.08,12Zm1.48-.37.78-.23a12.22,12.22,0,0,1,.86,1.91l-.81.28A10.69,10.69,0,0,0,194.56,11.65Z"/><path class="cls-24" d="M208,21.86h-1.53l-4-6.17a2.52,2.52,0,0,1-.25-.49h0a8.79,8.79,0,0,1,.05,1.16v5.5h-1.35v-8.4h1.62l3.88,6a5,5,0,0,1,.32.52h0a7.36,7.36,0,0,1-.06-1.13V13.46H208Z"/><path class="cls-24" d="M216.94,21.86h-1.53l-.76-2.13h-3.3l-.73,2.13H209.1l3.14-8.4h1.57Zm-2.66-3.27-1.16-3.35a2.62,2.62,0,0,1-.11-.53h0a3.43,3.43,0,0,1-.11.53l-1.16,3.35Z"/><path class="cls-24" d="M223.48,14.65h-2.41v7.21h-1.4V14.65h-2.4V13.46h6.21Z"/><path class="cls-24" d="M230.68,14.94h0c0,.71,0,1.22-.05,1.53h.08l1.29,0a.31.31,0,0,1,.13,0,.35.35,0,0,1,0,.12v.87a.19.19,0,0,1,0,.13H232l-1.29,0h-.17v0a5.81,5.81,0,0,0,1.77,2.14,4,4,0,0,0-.59.64q-.18.24-.24.24s-.11-.07-.24-.2a6.34,6.34,0,0,1-1-1.36A6.62,6.62,0,0,1,228.64,22c-.13.14-.22.21-.28.21s-.16-.07-.28-.22a2.92,2.92,0,0,0-.65-.61,5.9,5.9,0,0,0,1.9-3.75H229l-1.28,0s-.09,0-.1,0a.29.29,0,0,1,0-.12v-.87c0-.09,0-.14.12-.14l1.28,0h.41c0-.57.05-1.08.06-1.53h-.21l-1.19,0a.29.29,0,0,1-.12,0,.28.28,0,0,1,0-.11V14a.2.2,0,0,1,0-.11h.11l1.19,0h.22V13.2a7.78,7.78,0,0,0-.08-1.23c.38,0,.78,0,1.22.08.12,0,.19,0,.19.13a.81.81,0,0,1-.06.22,2.13,2.13,0,0,0-.08.58c0,.19,0,.48,0,.87h0l1.18,0c.07,0,.1,0,.12,0a.22.22,0,0,1,0,.1v.88c0,.07,0,.1,0,.11s-.05,0-.11,0Zm6.82,5.11a2.88,2.88,0,0,0,.79.34.59.59,0,0,1,.23.09.21.21,0,0,1,0,.15,1.44,1.44,0,0,1,0,.18,5.54,5.54,0,0,1-.14,1.06,1,1,0,0,1-.28.45,2.09,2.09,0,0,1-1.39.36,3.15,3.15,0,0,1-1.15-.18c-.24-.12-.36-.39-.36-.82V19h-.59a4.32,4.32,0,0,1-2.78,3.81,1.36,1.36,0,0,1-.28.07c-.07,0-.17-.09-.29-.27a3,3,0,0,0-.63-.65,3.34,3.34,0,0,0,2.77-3h-.84a.31.31,0,0,1-.13,0,.31.31,0,0,1,0-.11l0-1.44V13.92l0-1.46a.19.19,0,0,1,0-.13.2.2,0,0,1,.11,0l1.43,0h2.1l1.42,0q.11,0,.12,0a.29.29,0,0,1,0,.12l0,1.46V17.4l0,1.44a.2.2,0,0,1,0,.11.22.22,0,0,1-.12,0h-1.17v2.16c0,.2,0,.32.11.37a1,1,0,0,0,.42.06.61.61,0,0,0,.41-.12.81.81,0,0,0,.16-.49C237.48,20.78,237.49,20.48,237.5,20.05Zm-3.86-6.63v.81h2.83v-.81Zm0,2.63h2.83v-.82h-2.83Zm2.83,1.88V17h-2.83v.89Z"/><path class="cls-24" d="M239.46,22a4.79,4.79,0,0,0,1.46-1.52,2.43,2.43,0,0,0,.24-.51,9.31,9.31,0,0,1,1,.51c.09.05.14.11.14.17a.21.21,0,0,1-.1.18,1.09,1.09,0,0,0-.24.27,6.07,6.07,0,0,1-1.24,1.48c-.14.13-.23.19-.29.19s-.12,0-.22-.17A3.59,3.59,0,0,0,239.46,22Zm4-9.63,1.31,0q.11,0,.12,0a.19.19,0,0,1,0,.1l0,1.61v4l0,1.61a.1.1,0,0,1-.14.14l-1.31,0h-1.7l-1.32,0c-.06,0-.1,0-.11,0a.2.2,0,0,1,0-.11l0-1.61v-4l0-1.61a.2.2,0,0,1,0-.11l.11,0,1.32,0Zm.29,1h-2.26v1.15h2.26Zm-2.26,3.3h2.26V15.47h-2.26Zm2.26,2.2V17.6h-2.26v1.23Zm.26,1.28a7.51,7.51,0,0,0,1.52,1.68,5.38,5.38,0,0,0-.71.59c-.11.12-.18.18-.23.18s-.13-.07-.27-.21A9.62,9.62,0,0,1,243,20.66a.31.31,0,0,1,0-.09s.05-.08.14-.13l.64-.36a.28.28,0,0,1,.13-.06S243.93,20.05,244,20.11Zm1.95-7.23a10.72,10.72,0,0,1,1.23.09c.12,0,.17.06.17.13a2.51,2.51,0,0,1-.07.27,9.53,9.53,0,0,0,0,1.28v3.23l0,1.71a.19.19,0,0,1,0,.1s-.05,0-.11,0h-1c-.07,0-.11,0-.12,0a.19.19,0,0,1,0-.1l0-1.71V14.66A13.68,13.68,0,0,0,245.92,12.88Zm.78,8.4a12.31,12.31,0,0,0,1.33.08.66.66,0,0,0,.43-.1.51.51,0,0,0,.1-.37V13.73a12.34,12.34,0,0,0-.09-1.7c.44,0,.87,0,1.29.07.13,0,.2.05.2.13a.76.76,0,0,1-.08.25,5,5,0,0,0-.07,1.21v5.08l0,2.36a2.14,2.14,0,0,1-.1.76.9.9,0,0,1-.33.42,1.71,1.71,0,0,1-.68.24,8.17,8.17,0,0,1-1.17.06.69.69,0,0,1-.35-.05.75.75,0,0,1-.1-.34A2.62,2.62,0,0,0,246.7,21.28Z"/><path class="cls-24" d="M257.82,67a17.45,17.45,0,0,0,2.38-8.42l1.41.18a28.4,28.4,0,0,1-1,5.4,15.75,15.75,0,0,1-1.55,3.49Zm5.23-8.27,1.38-.15a19.88,19.88,0,0,0,2.44,8.36l-1.3.72a21.89,21.89,0,0,1-1.7-4.51A34.84,34.84,0,0,1,263.05,58.7Zm1.48-1.21.79-.16a10.24,10.24,0,0,1,.74,2.05l-.81.2A9.85,9.85,0,0,0,264.53,57.49Zm1.43-.25.78-.17a12.86,12.86,0,0,1,.73,2l-.82.21A11.68,11.68,0,0,0,266,57.24Z"/><path class="cls-24" d="M268,60.73l1.07-.38a14.8,14.8,0,0,1,1,2.78l-1.11.41A14.81,14.81,0,0,0,268,60.73Zm1.3,6.36a5.89,5.89,0,0,0,3.24-2.46,10.22,10.22,0,0,0,1-4.48l1.34.27a20.41,20.41,0,0,1-.51,2.92,7.64,7.64,0,0,1-.79,1.92,6.21,6.21,0,0,1-1.51,1.7,9.51,9.51,0,0,1-2,1.08Zm1-6.85,1.12-.34a14.69,14.69,0,0,1,.82,2.69L271.1,63A12.43,12.43,0,0,0,270.28,60.24Z"/><path class="cls-24" d="M279.36,60A12.28,12.28,0,0,1,277,63.33l-1-.74a10,10,0,0,0,2.79-5l1.38.22c-.19.54-.31.88-.36,1h3.69l.32.43a12.24,12.24,0,0,1-2.43,6A9.78,9.78,0,0,1,277.5,68l-.78-1a8.69,8.69,0,0,0,3.94-2.81A9.66,9.66,0,0,0,282.34,60Z"/><path class="cls-24" d="M288.29,60h-2.78V58.86h6.95V60h-2.8v6.14h3.39v1.14h-8V66.14h3.26Z"/><path class="cls-24" d="M294.86,58.63a19.05,19.05,0,0,1,3,1.9l-.87,1.2a14.75,14.75,0,0,0-2.94-2.07Zm5.81.51,1.25.65a10.29,10.29,0,0,1-2.23,5.27,9.44,9.44,0,0,1-4.88,2.79l-.65-1.23a7.89,7.89,0,0,0,4.93-3A9.83,9.83,0,0,0,300.67,59.14Z"/><path class="cls-24" d="M305.69,61.25a19.17,19.17,0,0,1,4.6,1.86l-.67,1.27a14.74,14.74,0,0,0-3.93-1.85v5.32h-1.34V57.73h1.34Zm1.94-3.77.79-.22a11.91,11.91,0,0,1,.88,2l-.82.26A10.5,10.5,0,0,0,307.63,57.48Zm1.47-.36.78-.23a12.22,12.22,0,0,1,.86,1.91l-.81.27A10.57,10.57,0,0,0,309.1,57.12Z"/><path class="cls-24" d="M312.24,62.82a.8.8,0,0,1-.59-.23.74.74,0,0,1,0-1.11.81.81,0,0,1,.59-.24.85.85,0,0,1,.61.24.74.74,0,0,1,0,1.11A.84.84,0,0,1,312.24,62.82Zm0,4.64a.84.84,0,0,1-.59-.23.73.73,0,0,1-.25-.56.75.75,0,0,1,.25-.56.84.84,0,0,1,.59-.23.89.89,0,0,1,.61.23.75.75,0,0,1,.25.56.73.73,0,0,1-.25.56A.89.89,0,0,1,312.24,67.46Z"/><path class="cls-24" d="M319.85,62.41a16.68,16.68,0,0,1-.8,2.68,14,14,0,0,1-1,2l-1.16-.63A11.84,11.84,0,0,0,318,64.27,12,12,0,0,0,318.6,62Zm2.36-2.63H326V60.9h-3.76v7h-1.32v-7h-3.71V59.78h3.71v-2h1.32Zm1,2.73,1.18-.44a19,19,0,0,0,1.76,4.29l-1.25.66A24.57,24.57,0,0,1,323.2,62.51Zm2-5.73a1.31,1.31,0,0,1,1,.45,1.37,1.37,0,0,1-1,2.29,1.29,1.29,0,0,1-1-.45,1.37,1.37,0,0,1,1-2.29Zm0,.59a.73.73,0,0,0-.58.25.78.78,0,0,0-.2.53.76.76,0,0,0,.25.58.78.78,0,0,0,.53.2.8.8,0,0,0,.59-.25.77.77,0,0,0,.19-.53.73.73,0,0,0-.25-.58A.78.78,0,0,0,325.21,57.37Z"/><path class="cls-24" d="M327.22,62.09H334v1.3h-6.79Z"/><path class="cls-24" d="M337.64,61.25a19.17,19.17,0,0,1,4.6,1.86l-.67,1.27a14.88,14.88,0,0,0-3.93-1.85v5.32H336.3V57.73h1.34Z"/><path class="cls-24" d="M346.33,67V65.74a2.86,2.86,0,0,0,1.85.65,2.11,2.11,0,0,0,1.34-.38,1.23,1.23,0,0,0,.5-1c0-1-.73-1.43-2.19-1.43h-.65V62.46h.63c1.29,0,1.94-.45,1.94-1.35s-.51-1.24-1.52-1.24a2.46,2.46,0,0,0-1.58.6v-1.2a4.05,4.05,0,0,1,2-.48,2.68,2.68,0,0,1,1.79.56,1.79,1.79,0,0,1,.67,1.44,2,2,0,0,1-1.68,2.13v0a2.23,2.23,0,0,1,1.43.63,1.91,1.91,0,0,1,.53,1.37,2.24,2.24,0,0,1-.85,1.83,3.44,3.44,0,0,1-2.24.69A3.83,3.83,0,0,1,346.33,67Z"/><path class="cls-24" d="M352.75,67V65.74a2.88,2.88,0,0,0,1.85.65,2.11,2.11,0,0,0,1.34-.38,1.21,1.21,0,0,0,.5-1c0-1-.73-1.43-2.18-1.43h-.65V62.46h.62c1.29,0,1.94-.45,1.94-1.35s-.51-1.24-1.51-1.24a2.47,2.47,0,0,0-1.59.6v-1.2a4.05,4.05,0,0,1,2-.48,2.68,2.68,0,0,1,1.79.56,1.8,1.8,0,0,1,.68,1.44,2,2,0,0,1-1.69,2.13v0a2.23,2.23,0,0,1,1.43.63,1.87,1.87,0,0,1,.53,1.37,2.24,2.24,0,0,1-.85,1.83,3.43,3.43,0,0,1-2.24.69A3.83,3.83,0,0,1,352.75,67Z"/><path class="cls-24" d="M359,65a2.76,2.76,0,0,1,.09-.71,2.29,2.29,0,0,1,.27-.62,1.89,1.89,0,0,1,.46-.52,2.5,2.5,0,0,1,.64-.37,2.52,2.52,0,0,1-.87-.78,1.89,1.89,0,0,1-.32-1.06,2,2,0,0,1,.19-.85,2,2,0,0,1,.53-.68,2.54,2.54,0,0,1,.79-.45,3,3,0,0,1,1-.16,2.91,2.91,0,0,1,1,.16,2.49,2.49,0,0,1,.8.45,2.06,2.06,0,0,1,.53.68,2,2,0,0,1,.18.85A1.81,1.81,0,0,1,364,62a2.46,2.46,0,0,1-.85.78,2.68,2.68,0,0,1,.64.37,2.22,2.22,0,0,1,.46.51,2,2,0,0,1,.28.63,2.52,2.52,0,0,1-.11,1.71,2.26,2.26,0,0,1-.57.79,2.75,2.75,0,0,1-.89.5,3.64,3.64,0,0,1-2.26,0,2.86,2.86,0,0,1-.89-.5,2.42,2.42,0,0,1-.58-.79A2.51,2.51,0,0,1,359,65Zm1.32-.12a1.83,1.83,0,0,0,.11.64,1.39,1.39,0,0,0,.29.49,1.35,1.35,0,0,0,.47.3,1.48,1.48,0,0,0,.61.11,1.63,1.63,0,0,0,.59-.11,1.21,1.21,0,0,0,.46-.31,1.25,1.25,0,0,0,.31-.49,1.57,1.57,0,0,0,.11-.63,1.74,1.74,0,0,0-.1-.61,1.44,1.44,0,0,0-.3-.49,1.5,1.5,0,0,0-.47-.34,1.46,1.46,0,0,0-.6-.12,1.63,1.63,0,0,0-.59.11,1.43,1.43,0,0,0-.47.33,1.64,1.64,0,0,0-.31.49A1.81,1.81,0,0,0,360.31,64.87Zm.29-3.8a1.25,1.25,0,0,0,.34.88,1.21,1.21,0,0,0,.84.36,1.06,1.06,0,0,0,.46-.1,1.18,1.18,0,0,0,.37-.26,1.31,1.31,0,0,0,.26-1.37,1.3,1.3,0,0,0-.25-.39,1.12,1.12,0,0,0-.38-.26,1.18,1.18,0,0,0-.46-.09,1.3,1.3,0,0,0-.49.09,1.41,1.41,0,0,0-.37.27,1.28,1.28,0,0,0-.24.39A1.56,1.56,0,0,0,360.6,61.07Z"/><path class="cls-24" d="M371,62.67a7.7,7.7,0,0,1-.27,2.17,4.17,4.17,0,0,1-.75,1.49,3,3,0,0,1-1.12.87,3.54,3.54,0,0,1-1.38.28l-.49,0-.46-.08a3.89,3.89,0,0,1-.4-.1l-.29-.11V65.94a2.09,2.09,0,0,0,.3.15l.4.14a3.13,3.13,0,0,0,.44.1,2.42,2.42,0,0,0,.45,0,2.24,2.24,0,0,0,.91-.19,1.82,1.82,0,0,0,.69-.58,2.73,2.73,0,0,0,.44-.94,4.75,4.75,0,0,0,.16-1.31h0a2.26,2.26,0,0,1-.28.35,2,2,0,0,1-.4.29,2.41,2.41,0,0,1-.49.21,2.27,2.27,0,0,1-.59.07,2.63,2.63,0,0,1-1-.18,2.49,2.49,0,0,1-.79-.53,2.45,2.45,0,0,1-.52-.82,3.25,3.25,0,0,1,0-2.27,2.6,2.6,0,0,1,.59-.91,2.81,2.81,0,0,1,.9-.57,2.93,2.93,0,0,1,1.12-.2,2.72,2.72,0,0,1,1.07.21,2.24,2.24,0,0,1,.89.68,3.38,3.38,0,0,1,.61,1.2A6.23,6.23,0,0,1,371,62.67Zm-1.42-.89a2.31,2.31,0,0,0-.11-.77,1.73,1.73,0,0,0-.3-.59,1.29,1.29,0,0,0-.46-.38,1.27,1.27,0,0,0-.58-.14,1.41,1.41,0,0,0-.54.11,1.31,1.31,0,0,0-.44.33,1.44,1.44,0,0,0-.3.51,1.76,1.76,0,0,0-.12.66,2.1,2.1,0,0,0,.11.7,1.55,1.55,0,0,0,.3.52,1.25,1.25,0,0,0,.47.31,1.46,1.46,0,0,0,.6.11,1.19,1.19,0,0,0,.54-.11,1.46,1.46,0,0,0,.44-.29,1.35,1.35,0,0,0,.29-.44A1.32,1.32,0,0,0,369.59,61.78Z"/><path class="cls-24" d="M257.82,143.64a17.45,17.45,0,0,0,2.38-8.42l1.41.18a28.13,28.13,0,0,1-1,5.39,15.63,15.63,0,0,1-1.55,3.5Zm5.23-8.27,1.38-.15a19.88,19.88,0,0,0,2.44,8.36l-1.3.72a21.89,21.89,0,0,1-1.7-4.51A35.18,35.18,0,0,1,263.05,135.37Zm1.48-1.21.79-.16a10.24,10.24,0,0,1,.74,2.05l-.81.2A9.85,9.85,0,0,0,264.53,134.16Zm1.43-.25.78-.17a12.47,12.47,0,0,1,.73,2l-.82.21A11.68,11.68,0,0,0,266,133.91Z"/><path class="cls-24" d="M268,137.4l1.07-.38a14.8,14.8,0,0,1,1,2.78l-1.11.41A14.81,14.81,0,0,0,268,137.4Zm1.3,6.36a5.89,5.89,0,0,0,3.24-2.46,10.22,10.22,0,0,0,1-4.48l1.34.27a20.41,20.41,0,0,1-.51,2.92,7.64,7.64,0,0,1-.79,1.92,6.21,6.21,0,0,1-1.51,1.7,9.51,9.51,0,0,1-2,1.08Zm1-6.85,1.12-.34a14.69,14.69,0,0,1,.82,2.69l-1.12.39A12.43,12.43,0,0,0,270.28,136.91Z"/><path class="cls-24" d="M279.36,136.65A12.28,12.28,0,0,1,277,140l-1-.74a10,10,0,0,0,2.79-4.95l1.38.22c-.19.54-.31.88-.36,1h3.69l.32.43a12.24,12.24,0,0,1-2.43,6,9.78,9.78,0,0,1-3.9,2.65l-.78-1a8.69,8.69,0,0,0,3.94-2.81,9.66,9.66,0,0,0,1.68-4.22Z"/><path class="cls-24" d="M288.29,136.67h-2.78v-1.14h6.95v1.14h-2.8v6.14h3.39V144h-8v-1.14h3.26Z"/><path class="cls-24" d="M294.86,135.3a19.05,19.05,0,0,1,3,1.9l-.87,1.2a14.75,14.75,0,0,0-2.94-2.07Zm5.81.51,1.25.65a10.29,10.29,0,0,1-2.23,5.27,9.44,9.44,0,0,1-4.88,2.79l-.65-1.23a7.89,7.89,0,0,0,4.93-3A9.83,9.83,0,0,0,300.67,135.81Z"/><path class="cls-24" d="M305.69,137.92a19.17,19.17,0,0,1,4.6,1.86l-.67,1.27a14.74,14.74,0,0,0-3.93-1.85v5.32h-1.34V134.4h1.34Zm1.94-3.77.79-.22a11.91,11.91,0,0,1,.88,2l-.82.26A10.5,10.5,0,0,0,307.63,134.15Zm1.47-.36.78-.23a12.22,12.22,0,0,1,.86,1.91l-.81.27A10.57,10.57,0,0,0,309.1,133.79Z"/><path class="cls-24" d="M312.24,139.49a.8.8,0,0,1-.59-.23.74.74,0,0,1,0-1.11.81.81,0,0,1,.59-.24.85.85,0,0,1,.61.24.74.74,0,0,1,0,1.11A.84.84,0,0,1,312.24,139.49Zm0,4.64a.84.84,0,0,1-.59-.23.73.73,0,0,1-.25-.56.75.75,0,0,1,.25-.56.84.84,0,0,1,.59-.23.89.89,0,0,1,.61.23.75.75,0,0,1,.25.56.73.73,0,0,1-.25.56A.89.89,0,0,1,312.24,144.13Z"/><path class="cls-24" d="M319.85,139.08a16.68,16.68,0,0,1-.8,2.68,14.6,14.6,0,0,1-1,2l-1.16-.63a11.84,11.84,0,0,0,1.12-2.17,12,12,0,0,0,.58-2.24Zm2.36-2.63H326v1.12h-3.76v7h-1.32v-7h-3.71v-1.12h3.71v-2h1.32Zm1,2.73,1.18-.44a19,19,0,0,0,1.76,4.29l-1.25.66A24.57,24.57,0,0,1,323.2,139.18Zm2-5.73a1.31,1.31,0,0,1,1,.45,1.37,1.37,0,0,1-1,2.29,1.29,1.29,0,0,1-1-.45,1.37,1.37,0,0,1,1-2.29Zm0,.59a.73.73,0,0,0-.58.25.78.78,0,0,0-.2.53.76.76,0,0,0,.25.58.78.78,0,0,0,.53.2.8.8,0,0,0,.59-.25.77.77,0,0,0,.19-.53.73.73,0,0,0-.25-.58A.78.78,0,0,0,325.21,134Z"/><path class="cls-24" d="M327.22,138.76H334v1.3h-6.79Z"/><path class="cls-24" d="M337.64,137.92a19.17,19.17,0,0,1,4.6,1.86l-.67,1.27a14.88,14.88,0,0,0-3.93-1.85v5.32H336.3V134.4h1.34Z"/><path class="cls-24" d="M351,135.6V141h1.25v1.13H351V144h-1.31v-1.85h-3.81V141c.35-.38.7-.8,1.06-1.26s.71-.91,1-1.38.65-.94.93-1.41a12.13,12.13,0,0,0,.72-1.36ZM349.72,141V137.5a20,20,0,0,1-1.27,2c-.41.57-.8,1.08-1.17,1.52Z"/><path class="cls-24" d="M357.71,135.6V141H359v1.13h-1.25V144h-1.32v-1.85h-3.8V141q.51-.57,1.05-1.26c.37-.45.71-.91,1.05-1.38s.64-.94.93-1.41.52-.93.72-1.36ZM356.39,141V137.5a22,22,0,0,1-1.26,2c-.42.57-.81,1.08-1.17,1.52Z"/><path class="cls-24" d="M359.68,143.69v-1.28a2.84,2.84,0,0,0,1.85.65,2.13,2.13,0,0,0,1.34-.38,1.23,1.23,0,0,0,.5-1c0-1-.73-1.43-2.19-1.43h-.65v-1.09h.62c1.3,0,1.94-.45,1.94-1.35s-.5-1.24-1.51-1.24a2.51,2.51,0,0,0-1.59.6v-1.2a4.09,4.09,0,0,1,2-.48,2.68,2.68,0,0,1,1.79.56,1.79,1.79,0,0,1,.67,1.44,2,2,0,0,1-1.69,2.13v0a2.24,2.24,0,0,1,1.44.63,1.91,1.91,0,0,1,.53,1.37,2.27,2.27,0,0,1-.85,1.83,3.44,3.44,0,0,1-2.24.69A3.81,3.81,0,0,1,359.68,143.69Z"/><path class="cls-24" d="M2,121.76H9a16,16,0,0,1-.65,4.69,6.8,6.8,0,0,1-1.88,3,10,10,0,0,1-3.29,1.84l-.74-1.06a7.22,7.22,0,0,0,3.91-2.71,8.75,8.75,0,0,0,1.17-4.58H2Z"/><path class="cls-24" d="M10.67,130.67v-8.74h6.66v8.74ZM16,129.53v-6.46H12v6.46Z"/><path class="cls-24" d="M19.63,121.91a20.2,20.2,0,0,1,3,1.92L21.79,125a14.7,14.7,0,0,0-3-2.09Zm5.86.52,1.26.66a10.21,10.21,0,0,1-2.25,5.3,9.42,9.42,0,0,1-4.91,2.81L18.93,130a7.94,7.94,0,0,0,5-3A9.91,9.91,0,0,0,25.49,122.43Z"/><path class="cls-24" d="M30.49,124.55a19.92,19.92,0,0,1,4.64,1.87l-.68,1.29a14.65,14.65,0,0,0-4-1.86v5.35H29.14V121h1.35Z"/><path class="cls-24" d="M39.27,123.3H36.46v-1.16h7v1.16H40.65v6.18h3.42v1.15H36v-1.15h3.29Z"/><path class="cls-24" d="M45.83,121.91a20.09,20.09,0,0,1,3,1.92L48,125A14.7,14.7,0,0,0,45,123Zm5.85.52,1.27.66a10.29,10.29,0,0,1-2.26,5.3,9.42,9.42,0,0,1-4.91,2.81L45.12,130a7.91,7.91,0,0,0,5-3A9.91,9.91,0,0,0,51.68,122.43Z"/><path class="cls-24" d="M56.68,124.55a19.92,19.92,0,0,1,4.64,1.87l-.68,1.29a14.51,14.51,0,0,0-4-1.86v5.35H55.33V121h1.35Zm2-3.79.8-.22a11,11,0,0,1,.88,2l-.82.26A9.79,9.79,0,0,0,58.63,120.76Zm1.49-.37.78-.23a12.48,12.48,0,0,1,.87,1.93l-.82.27A11.12,11.12,0,0,0,60.12,120.39Z"/><path class="cls-24" d="M63.22,126.14a.88.88,0,0,1-.6-.23.77.77,0,0,1-.25-.56.79.79,0,0,1,.25-.57.88.88,0,0,1,.6-.23.87.87,0,0,1,.61.23.75.75,0,0,1,.25.57.73.73,0,0,1-.25.56A.87.87,0,0,1,63.22,126.14Zm0,4.67a.88.88,0,0,1-.6-.23.77.77,0,0,1-.25-.56.79.79,0,0,1,.25-.57.88.88,0,0,1,.6-.23.87.87,0,0,1,.61.23.75.75,0,0,1,.25.57.73.73,0,0,1-.25.56A.87.87,0,0,1,63.22,130.81Z"/><path class="cls-24" d="M70.77,125.72a18.16,18.16,0,0,1-.81,2.71,13.72,13.72,0,0,1-1,2l-1.17-.64a10.9,10.9,0,0,0,1.13-2.19,11.86,11.86,0,0,0,.59-2.25Zm2.37-2.64h3.79v1.12H73.14v7H71.82v-7H68.08v-1.12h3.74V121h1.32Zm1,2.74,1.19-.43a19,19,0,0,0,1.77,4.31l-1.26.67A24.74,24.74,0,0,1,74.14,125.82Zm2-5.77a1.38,1.38,0,0,1,.92,2.41,1.35,1.35,0,0,1-.92.35,1.31,1.31,0,0,1-1-.45,1.36,1.36,0,0,1-.36-.93,1.4,1.4,0,0,1,1.38-1.38Zm0,.6a.75.75,0,0,0-.59.25.79.79,0,0,0,.59,1.32.77.77,0,0,0,.59-.26.75.75,0,0,0,.19-.53.77.77,0,0,0-.78-.78Z"/><path class="cls-24" d="M78.13,125.4H85v1.31H78.13Z"/><path class="cls-24" d="M88.57,124.55a19.66,19.66,0,0,1,4.63,1.87l-.68,1.29a14.58,14.58,0,0,0-4-1.86v5.35H87.22V121h1.35Z"/><path class="cls-24" d="M97.2,130.37v-1.29a2.93,2.93,0,0,0,1.87.66,2.16,2.16,0,0,0,1.35-.39,1.24,1.24,0,0,0,.5-1c0-1-.73-1.44-2.2-1.44h-.65v-1.09h.62c1.3,0,2-.46,2-1.36s-.51-1.25-1.53-1.25a2.53,2.53,0,0,0-1.6.6v-1.21a4.16,4.16,0,0,1,2-.49,2.74,2.74,0,0,1,1.81.57,1.81,1.81,0,0,1,.67,1.45,2.06,2.06,0,0,1-1.7,2.15v0a2.17,2.17,0,0,1,1.45.64,1.86,1.86,0,0,1,.53,1.38,2.24,2.24,0,0,1-.85,1.83,3.45,3.45,0,0,1-2.26.7A3.89,3.89,0,0,1,97.2,130.37Z"/><path class="cls-24" d="M103.61,130.37v-1.29a3,3,0,0,0,1.87.66,2.16,2.16,0,0,0,1.35-.39,1.21,1.21,0,0,0,.5-1c0-1-.73-1.44-2.2-1.44h-.65v-1.09h.62c1.3,0,2-.46,2-1.36s-.51-1.25-1.53-1.25a2.53,2.53,0,0,0-1.6.6v-1.21a4.16,4.16,0,0,1,2-.49,2.74,2.74,0,0,1,1.81.57,1.81,1.81,0,0,1,.68,1.45,2.07,2.07,0,0,1-1.71,2.15v0a2.17,2.17,0,0,1,1.45.64,1.86,1.86,0,0,1,.53,1.38,2.24,2.24,0,0,1-.85,1.83,3.45,3.45,0,0,1-2.26.7A3.89,3.89,0,0,1,103.61,130.37Z"/><path class="cls-24" d="M109.84,128.32a2.82,2.82,0,0,1,.09-.71,2.22,2.22,0,0,1,.27-.63,2.26,2.26,0,0,1,.46-.52,2.29,2.29,0,0,1,.65-.37,2.56,2.56,0,0,1-.87-.79,1.85,1.85,0,0,1-.33-1.07,2,2,0,0,1,.73-1.54,2.31,2.31,0,0,1,.8-.45,2.91,2.91,0,0,1,1-.17,3,3,0,0,1,1,.17,2.65,2.65,0,0,1,.81.45,2.17,2.17,0,0,1,.52.69,1.89,1.89,0,0,1,.19.85,1.92,1.92,0,0,1-.32,1.07,2.72,2.72,0,0,1-.86.79,2.24,2.24,0,0,1,.64.37,2.05,2.05,0,0,1,.47.51,2.47,2.47,0,0,1,.29.64,2.71,2.71,0,0,1,.09.71,2.45,2.45,0,0,1-.21,1,2.13,2.13,0,0,1-.58.78,2.5,2.5,0,0,1-.89.51,3.52,3.52,0,0,1-2.28,0,2.69,2.69,0,0,1-.89-.51,2.24,2.24,0,0,1-.58-.78A2.45,2.45,0,0,1,109.84,128.32Zm1.33-.12a1.88,1.88,0,0,0,.11.65,1.35,1.35,0,0,0,.3.49,1.17,1.17,0,0,0,.47.31,1.66,1.66,0,0,0,.61.1,1.63,1.63,0,0,0,.59-.1,1.31,1.31,0,0,0,.47-.32,1.37,1.37,0,0,0,.31-.49,1.62,1.62,0,0,0,.12-.64,1.78,1.78,0,0,0-.11-.61,1.48,1.48,0,0,0-.3-.5,1.43,1.43,0,0,0-.47-.33,1.36,1.36,0,0,0-.61-.13,1.5,1.5,0,0,0-.6.12,1.27,1.27,0,0,0-.47.32,1.69,1.69,0,0,0-.31.5A1.81,1.81,0,0,0,111.17,128.2Zm.29-3.82a1.2,1.2,0,0,0,.35.88,1.11,1.11,0,0,0,.37.27,1.23,1.23,0,0,0,.47.09,1,1,0,0,0,.46-.1,1.22,1.22,0,0,0,.38-.26,1.18,1.18,0,0,0,.25-.4,1.12,1.12,0,0,0,.1-.48,1.35,1.35,0,0,0-.09-.5,1.5,1.5,0,0,0-.25-.4,1.7,1.7,0,0,0-.38-.26,1.27,1.27,0,0,0-.47-.09,1.13,1.13,0,0,0-.49.1,1,1,0,0,0-.37.27,1.09,1.09,0,0,0-.25.4A1.51,1.51,0,0,0,111.46,124.38Z"/><path class="cls-24" d="M121.89,126a7.77,7.77,0,0,1-.27,2.18,4.55,4.55,0,0,1-.76,1.51,3,3,0,0,1-1.13.87,3.39,3.39,0,0,1-1.39.28l-.49,0-.46-.08-.4-.1a2.45,2.45,0,0,1-.3-.11v-1.23a1.8,1.8,0,0,0,.31.15,2.24,2.24,0,0,0,.39.14,3.51,3.51,0,0,0,.9.14,2.13,2.13,0,0,0,.92-.19,1.93,1.93,0,0,0,.7-.58,2.78,2.78,0,0,0,.44-1,4.77,4.77,0,0,0,.16-1.32h0a1.48,1.48,0,0,1-.28.35,1.68,1.68,0,0,1-.39.3,2.48,2.48,0,0,1-.5.2,2.27,2.27,0,0,1-.59.08,2.53,2.53,0,0,1-1-.19,2.36,2.36,0,0,1-.79-.52,2.41,2.41,0,0,1-.53-.84,2.9,2.9,0,0,1-.19-1.09,3.19,3.19,0,0,1,.21-1.19,2.65,2.65,0,0,1,.61-.91,2.49,2.49,0,0,1,.9-.58,3,3,0,0,1,1.13-.21,2.82,2.82,0,0,1,1.08.22,2.34,2.34,0,0,1,.9.68,3.49,3.49,0,0,1,.61,1.22A6.2,6.2,0,0,1,121.89,126Zm-1.43-.91a2.65,2.65,0,0,0-.11-.77,1.88,1.88,0,0,0-.3-.6,1.43,1.43,0,0,0-.47-.38,1.37,1.37,0,0,0-1.12,0,1.45,1.45,0,0,0-.45.33,1.62,1.62,0,0,0-.31.51,2,2,0,0,0-.11.67,2.2,2.2,0,0,0,.11.71,1.6,1.6,0,0,0,.3.51,1.27,1.27,0,0,0,.47.32,1.54,1.54,0,0,0,.61.11,1.26,1.26,0,0,0,.55-.11,1.42,1.42,0,0,0,.43-.29,1.3,1.3,0,0,0,.29-.44A1.26,1.26,0,0,0,120.46,125.08Z"/><path class="cls-24" d="M76.59,139a18.24,18.24,0,0,1-.8,2.71,14.73,14.73,0,0,1-1,2L73.61,143a11,11,0,0,0,1.14-2.19,11.88,11.88,0,0,0,.58-2.25ZM79,136.32h3.78v1.12H79v7H77.64v-7H73.9v-1.12h3.74v-2.06H79Zm1,2.74,1.2-.44a19.32,19.32,0,0,0,1.76,4.32l-1.25.67A25.76,25.76,0,0,1,80,139.06Zm2-5.77a1.33,1.33,0,0,1,1,.46,1.29,1.29,0,0,1,.35.92A1.36,1.36,0,0,1,82,136.05a1.31,1.31,0,0,1-1-.45,1.35,1.35,0,0,1-.35-.93A1.38,1.38,0,0,1,82,133.29Zm0,.59a.74.74,0,0,0-.58.26.72.72,0,0,0-.2.53.75.75,0,0,0,.25.59.77.77,0,0,0,.53.19.75.75,0,0,0,.59-.25.78.78,0,0,0,.2-.53.78.78,0,0,0-.79-.79Z"/><path class="cls-24" d="M84,138.64H90.8V140H84Z"/><path class="cls-24" d="M94.39,137.79A19.74,19.74,0,0,1,99,139.66l-.68,1.28a15.12,15.12,0,0,0-4-1.86v5.36H93V134.25h1.35Z"/><path class="cls-24" d="M107.77,135.45v5.47H109v1.14h-1.26v1.86h-1.33v-1.86h-3.83v-1.15c.35-.39.7-.81,1.06-1.27s.72-.92,1.06-1.39.64-.95.93-1.43a12.3,12.3,0,0,0,.73-1.37Zm-1.33,5.47v-3.55a20.44,20.44,0,0,1-1.27,2c-.42.57-.81,1.08-1.18,1.53Z"/><path class="cls-24" d="M114.43,135.45v5.47h1.26v1.14h-1.26v1.86h-1.32v-1.86h-3.84v-1.15c.35-.39.71-.81,1.07-1.27s.71-.92,1-1.39.65-.95.94-1.43a12.15,12.15,0,0,0,.72-1.37Zm-1.32,5.47v-3.55a20.4,20.4,0,0,1-1.28,2q-.63.86-1.17,1.53Z"/><path class="cls-24" d="M116.36,143.61v-1.29a2.9,2.9,0,0,0,1.86.66,2.13,2.13,0,0,0,1.35-.39,1.22,1.22,0,0,0,.51-1c0-1-.74-1.44-2.21-1.44h-.65V139h.62c1.31,0,2-.45,2-1.35s-.51-1.26-1.52-1.26a2.52,2.52,0,0,0-1.6.61V135.8a4,4,0,0,1,2-.49,2.73,2.73,0,0,1,1.81.57,1.81,1.81,0,0,1,.68,1.45,2.07,2.07,0,0,1-1.7,2.15v0a2.24,2.24,0,0,1,1.44.64,1.9,1.9,0,0,1,.54,1.38,2.26,2.26,0,0,1-.86,1.84,3.43,3.43,0,0,1-2.26.7A3.87,3.87,0,0,1,116.36,143.61Z"/><path class="cls-24" d="M83.32,152.16a18.24,18.24,0,0,1-.8,2.71,15.35,15.35,0,0,1-1,2l-1.18-.63A11,11,0,0,0,81.48,154a11.88,11.88,0,0,0,.58-2.25Zm2.38-2.64h3.78v1.12H85.7v7H84.37v-7H80.63v-1.12h3.74v-2.06H85.7Zm1,2.74,1.2-.44a19.32,19.32,0,0,0,1.76,4.32l-1.25.67A25.76,25.76,0,0,1,86.69,152.26Zm2-5.77a1.38,1.38,0,0,1,1.38,1.38,1.35,1.35,0,0,1-.45,1,1.38,1.38,0,0,1-.93.35,1.31,1.31,0,0,1-1-.45,1.35,1.35,0,0,1-.35-.93,1.38,1.38,0,0,1,1.37-1.38Zm0,.59a.74.74,0,0,0-.58.26.72.72,0,0,0-.2.53.75.75,0,0,0,.25.59.77.77,0,0,0,.53.19.75.75,0,0,0,.59-.25.78.78,0,0,0,.2-.53.78.78,0,0,0-.79-.79Z"/><path class="cls-24" d="M90.75,151.84h6.84v1.31H90.75Z"/><path class="cls-24" d="M101.24,151a19.74,19.74,0,0,1,4.64,1.87l-.68,1.28a14.8,14.8,0,0,0-4-1.85v5.35H99.89V147.45h1.35Z"/><path class="cls-24" d="M109.81,154.76a2.76,2.76,0,0,1,.09-.71,2,2,0,0,1,.28-.63,2,2,0,0,1,.46-.52,2.16,2.16,0,0,1,.65-.37,2.59,2.59,0,0,1-.88-.79,2,2,0,0,1-.13-1.93,2.06,2.06,0,0,1,.53-.68,2.43,2.43,0,0,1,.8-.46,3.22,3.22,0,0,1,1-.16,3,3,0,0,1,1,.17,2.6,2.6,0,0,1,.8.45,2.09,2.09,0,0,1,.53.69,2,2,0,0,1,.19.85,1.85,1.85,0,0,1-.33,1.07,2.52,2.52,0,0,1-.86.79,2.08,2.08,0,0,1,.65.37,2.13,2.13,0,0,1,.75,1.14,2.84,2.84,0,0,1,.09.72,2.37,2.37,0,0,1-.2,1,2.28,2.28,0,0,1-.58.79,2.69,2.69,0,0,1-.89.51,3.27,3.27,0,0,1-1.15.19,3.15,3.15,0,0,1-1.13-.19,2.64,2.64,0,0,1-.9-.51,2.28,2.28,0,0,1-.58-.79A2.37,2.37,0,0,1,109.81,154.76Zm1.34-.12a1.89,1.89,0,0,0,.1.65,1.35,1.35,0,0,0,.3.49,1.38,1.38,0,0,0,.47.31,1.7,1.7,0,0,0,.61.1,1.46,1.46,0,0,0,.6-.11,1.25,1.25,0,0,0,.47-.31,1.52,1.52,0,0,0,.31-.49,1.83,1.83,0,0,0,.11-.64A1.74,1.74,0,0,0,114,154a1.42,1.42,0,0,0-1.38-1,1.45,1.45,0,0,0-.59.12,1.27,1.27,0,0,0-.47.32,1.51,1.51,0,0,0-.31.5A1.61,1.61,0,0,0,111.15,154.64Zm.28-3.83a1.35,1.35,0,0,0,.1.5,1.3,1.3,0,0,0,.25.39,1.15,1.15,0,0,0,.38.27,1.18,1.18,0,0,0,.46.09,1,1,0,0,0,.46-.1,1.12,1.12,0,0,0,.38-.26,1.31,1.31,0,0,0,.26-.4,1.3,1.3,0,0,0,.09-.49,1.33,1.33,0,0,0-.09-.49,1.18,1.18,0,0,0-.25-.4,1.28,1.28,0,0,0-.38-.26,1.19,1.19,0,0,0-.47-.09,1.06,1.06,0,0,0-.48.1,1.12,1.12,0,0,0-.38.26,1.47,1.47,0,0,0-.24.4A1.36,1.36,0,0,0,111.43,150.81Z"/><path class="cls-24" d="M119,157.26a2.36,2.36,0,0,1-2.06-1.08,5.45,5.45,0,0,1-.75-3.12,6.08,6.08,0,0,1,.78-3.4,2.53,2.53,0,0,1,2.23-1.15q2.79,0,2.79,4.34a5.68,5.68,0,0,1-.79,3.28A2.53,2.53,0,0,1,119,157.26Zm.13-7.66c-1,0-1.54,1.14-1.54,3.4s.51,3.18,1.52,3.18,1.48-1.08,1.48-3.23S120.12,149.6,119.14,149.6Z"/><path class="cls-24" d="M257.82,224.55a17.52,17.52,0,0,0,2.38-8.43l1.41.18a28.1,28.1,0,0,1-1,5.4,15.55,15.55,0,0,1-1.55,3.49Zm5.23-8.28,1.38-.15a19.84,19.84,0,0,0,2.44,8.36l-1.3.72a21.67,21.67,0,0,1-1.7-4.51A34.84,34.84,0,0,1,263.05,216.27Zm1.48-1.2.79-.16a10,10,0,0,1,.74,2.05l-.81.19A9.76,9.76,0,0,0,264.53,215.07Zm1.43-.26.78-.17a12.86,12.86,0,0,1,.73,2l-.82.22A11.8,11.8,0,0,0,266,214.81Z"/><path class="cls-24" d="M268.05,218.31l1.08-.39a15.84,15.84,0,0,1,1,2.78l-1.11.41A14.45,14.45,0,0,0,268.05,218.31Zm1.3,6.35a5.89,5.89,0,0,0,3.24-2.46,10.21,10.21,0,0,0,1-4.47L275,218a20.16,20.16,0,0,1-.51,2.92,7.64,7.64,0,0,1-.79,1.92,6.07,6.07,0,0,1-1.51,1.7,9.26,9.26,0,0,1-2,1.08Zm1-6.85,1.12-.34a14.94,14.94,0,0,1,.82,2.69l-1.12.39A12.43,12.43,0,0,0,270.34,217.81Z"/><path class="cls-24" d="M279.48,217.55a12.18,12.18,0,0,1-2.34,3.36l-1-.75a9.93,9.93,0,0,0,2.79-4.94l1.38.22-.36,1h3.69l.32.44a12.24,12.24,0,0,1-2.43,6,9.76,9.76,0,0,1-3.9,2.64l-.78-1a8.67,8.67,0,0,0,3.94-2.8,9.65,9.65,0,0,0,1.68-4.23Z"/><path class="cls-24" d="M288.47,217.57h-2.78v-1.14h6.95v1.14h-2.8v6.14h3.39v1.15h-8v-1.15h3.26Z"/><path class="cls-24" d="M295.1,216.2a19.8,19.8,0,0,1,3,1.9l-.87,1.2a14.75,14.75,0,0,0-2.94-2.07Zm5.81.52,1.26.65a10.34,10.34,0,0,1-2.24,5.26,9.37,9.37,0,0,1-4.88,2.79l-.65-1.22a7.86,7.86,0,0,0,4.93-3A9.78,9.78,0,0,0,300.91,216.72Z"/><path class="cls-24" d="M306,218.82a19.41,19.41,0,0,1,4.6,1.86l-.67,1.27a14.28,14.28,0,0,0-3.93-1.84v5.31h-1.34V215.31H306Zm1.94-3.77.79-.21a11.43,11.43,0,0,1,.88,2l-.82.26A9.91,9.91,0,0,0,307.93,215.05Zm1.47-.36.78-.23a12.22,12.22,0,0,1,.86,1.91l-.81.28A10.69,10.69,0,0,0,309.4,214.69Z"/><path class="cls-24" d="M312.6,220.4a.84.84,0,0,1-.59-.23.75.75,0,0,1,0-1.12.8.8,0,0,1,.59-.23.84.84,0,0,1,.61.23.75.75,0,0,1,0,1.12A.89.89,0,0,1,312.6,220.4Zm0,4.63a.8.8,0,0,1-.59-.23.74.74,0,0,1,0-1.11.81.81,0,0,1,.59-.24.85.85,0,0,1,.61.24.74.74,0,0,1,0,1.11A.84.84,0,0,1,312.6,225Z"/><path class="cls-24" d="M320.33,220a17.14,17.14,0,0,1-.8,2.69,14.52,14.52,0,0,1-1,2l-1.16-.63a11,11,0,0,0,1.12-2.17,11.25,11.25,0,0,0,.58-2.24Zm2.36-2.62h3.76v1.11h-3.76v7h-1.32v-7h-3.71v-1.11h3.71v-2h1.32Zm1,2.72,1.19-.43a18.69,18.69,0,0,0,1.75,4.28l-1.25.66A24.3,24.3,0,0,1,323.68,220.08Zm2-5.72a1.31,1.31,0,0,1,1,.45,1.28,1.28,0,0,1,.35.91,1.37,1.37,0,1,1-2.28-1A1.28,1.28,0,0,1,325.69,214.36Zm0,.58a.74.74,0,0,0-.58.26.75.75,0,0,0-.2.52.78.78,0,0,0,.25.59.77.77,0,0,0,.53.19.75.75,0,0,0,.78-.78.73.73,0,0,0-.25-.58A.78.78,0,0,0,325.69,214.94Z"/><path class="cls-24" d="M327.76,219.66h6.79V221h-6.79Z"/><path class="cls-24" d="M338.24,218.82a19.59,19.59,0,0,1,4.6,1.86l-.67,1.27a14.56,14.56,0,0,0-3.93-1.84v5.31H336.9V215.31h1.34Z"/><path class="cls-24" d="M346.86,222.56a2.69,2.69,0,0,1,.09-.7,2.22,2.22,0,0,1,.27-.63,2.81,2.81,0,0,1,.46-.52,2.27,2.27,0,0,1,.65-.36,2.47,2.47,0,0,1-.87-.79,1.78,1.78,0,0,1-.32-1.05,1.9,1.9,0,0,1,.19-.86,2,2,0,0,1,.52-.68,2.6,2.6,0,0,1,.8-.45,3.16,3.16,0,0,1,1-.16,3,3,0,0,1,1,.17,2.41,2.41,0,0,1,.8.45,1.93,1.93,0,0,1,.52.68,1.93,1.93,0,0,1-.13,1.9,2.62,2.62,0,0,1-.86.79,2.21,2.21,0,0,1,.64.36,2.26,2.26,0,0,1,.47.51,2.53,2.53,0,0,1,.28.63,2.76,2.76,0,0,1,.09.71,2.56,2.56,0,0,1-.2,1,2.34,2.34,0,0,1-.58.78,2.55,2.55,0,0,1-.88.51,3.67,3.67,0,0,1-2.27,0,2.64,2.64,0,0,1-.88-.51,2.34,2.34,0,0,1-.58-.78A2.4,2.4,0,0,1,346.86,222.56Zm1.33-.12a1.89,1.89,0,0,0,.1.65,1.31,1.31,0,0,0,.3.48,1.17,1.17,0,0,0,.47.31,1.64,1.64,0,0,0,.6.1,1.59,1.59,0,0,0,.59-.1,1.54,1.54,0,0,0,.47-.31,1.64,1.64,0,0,0,.31-.49,1.83,1.83,0,0,0,.11-.64,1.73,1.73,0,0,0-.11-.6,1.48,1.48,0,0,0-.3-.5,1.29,1.29,0,0,0-.46-.33,1.51,1.51,0,0,0-.61-.13,1.45,1.45,0,0,0-.59.12,1.51,1.51,0,0,0-.47.32,1.48,1.48,0,0,0-.3.5A1.59,1.59,0,0,0,348.19,222.44Zm.28-3.79a1.16,1.16,0,0,0,.1.49,1.14,1.14,0,0,0,.25.39,1.08,1.08,0,0,0,.37.26,1.22,1.22,0,0,0,.92,0,1.46,1.46,0,0,0,.38-.27,1.3,1.3,0,0,0,.25-.39,1.28,1.28,0,0,0,.09-.48,1.39,1.39,0,0,0-.09-.5,1.14,1.14,0,0,0-.25-.39,1.11,1.11,0,0,0-.84-.35,1.06,1.06,0,0,0-.48.1,1.08,1.08,0,0,0-.37.26,1.1,1.1,0,0,0-.24.4A1.28,1.28,0,0,0,348.47,218.65Z"/><path class="cls-24" d="M356.05,225A2.34,2.34,0,0,1,354,224a5.46,5.46,0,0,1-.73-3.1,6,6,0,0,1,.77-3.37,2.5,2.5,0,0,1,2.21-1.14q2.78,0,2.77,4.31a5.67,5.67,0,0,1-.78,3.25A2.51,2.51,0,0,1,356.05,225Zm.14-7.59q-1.53,0-1.53,3.36c0,2.11.5,3.16,1.5,3.16s1.47-1.07,1.47-3.21S357.15,217.45,356.19,217.45Z"/></g></svg>