<svg xmlns="http://www.w3.org/2000/svg" xmlns:xlink="http://www.w3.org/1999/xlink" viewBox="0 0 375 245"><defs><style>.cls-1{fill:#fff;}.cls-11,.cls-2,.cls-3{fill:#3c3c41;}.cls-2{opacity:0.05;}.cls-2,.cls-3{isolation:isolate;}.cls-3{opacity:0.18;}.cls-4{fill:url(#Degradado_sin_nombre);}.cls-5{fill:#003067;}.cls-6{fill:#50e6ff;}.cls-7{fill:url(#Degradado_sin_nombre_2);}.cls-8{fill:url(#Degradado_sin_nombre_3);}.cls-10,.cls-15,.cls-16,.cls-9{fill:none;stroke:#3c3c41;stroke-miterlimit:10;}.cls-10{stroke-dasharray:8.26 4.13;}.cls-12{fill:url(#Degradado_sin_nombre_4);}.cls-13{fill:#b4ec36;}.cls-14{fill:#5ea0ef;}.cls-15{stroke-dasharray:7.6 3.8;}.cls-16{stroke-dasharray:8.39 4.2;}.cls-17{fill:#1e1e1e;}</style><linearGradient id="Degradado_sin_nombre" x1="240.52" y1="304.5" x2="240.52" y2="336.5" gradientTransform="translate(0 -258)" gradientUnits="userSpaceOnUse"><stop offset="0" stop-color="#b3b2b3"/><stop offset="0.38" stop-color="#afaeaf"/><stop offset="0.76" stop-color="#a2a2a2"/><stop offset="1" stop-color="#979797"/></linearGradient><linearGradient id="Degradado_sin_nombre_2" x1="240.52" y1="383" x2="240.52" y2="415" xlink:href="#Degradado_sin_nombre"/><linearGradient id="Degradado_sin_nombre_3" x1="240.52" y1="463.18" x2="240.52" y2="495.18" xlink:href="#Degradado_sin_nombre"/><linearGradient id="Degradado_sin_nombre_4" x1="144.48" y1="417.41" x2="144.48" y2="382.63" gradientTransform="translate(0 -258)" gradientUnits="userSpaceOnUse"><stop offset="0" stop-color="#5e9624"/><stop offset="0.02" stop-color="#5f9724"/><stop offset="1" stop-color="#76bc2d"/></linearGradient></defs><title>OJ105690780</title><g id="bg"><rect class="cls-1" y="35" width="375" height="210"/><rect class="cls-2" y="35" width="375" height="210"/><rect class="cls-1" width="375" height="35"/><rect class="cls-3" width="375" height="35"/></g><g id="shapes"><path class="cls-4" d="M250.91,77.41a1.16,1.16,0,0,1-1.2,1.09H231.33a1.16,1.16,0,0,1-1.2-1.09V47.59a1.16,1.16,0,0,1,1.2-1.09h18.38a1.16,1.16,0,0,1,1.2,1.09Z"/><path class="cls-5" d="M233.19,60.18a2.38,2.38,0,0,1,2.22-2.5h10.37a2.39,2.39,0,0,1,2.22,2.5h0a2.36,2.36,0,0,1-2.11,2.59H235.45a2.39,2.39,0,0,1-2.22-2.49Z"/><path class="cls-5" d="M233.19,52.78a2.37,2.37,0,0,1,2.22-2.49h10.37A2.38,2.38,0,0,1,248,52.78h0a2.39,2.39,0,0,1-2.22,2.5H235.45a2.39,2.39,0,0,1-2.22-2.5Z"/><circle class="cls-6" cx="236.09" cy="52.78" r="1.66"/><circle class="cls-6" cx="236.09" cy="60.18" r="1.66"/><path class="cls-7" d="M250.91,155.91a1.16,1.16,0,0,1-1.2,1.09H231.33a1.16,1.16,0,0,1-1.2-1.09V126.09a1.16,1.16,0,0,1,1.2-1.09h18.38a1.16,1.16,0,0,1,1.2,1.09Z"/><path class="cls-5" d="M233.19,138.68a2.38,2.38,0,0,1,2.22-2.5h10.37a2.39,2.39,0,0,1,2.22,2.5h0a2.36,2.36,0,0,1-2.11,2.59H235.45a2.39,2.39,0,0,1-2.22-2.49Z"/><path class="cls-5" d="M233.19,131.28a2.37,2.37,0,0,1,2.22-2.49h10.37a2.38,2.38,0,0,1,2.22,2.49h0a2.39,2.39,0,0,1-2.22,2.5H235.45a2.39,2.39,0,0,1-2.22-2.5Z"/><circle class="cls-6" cx="236.09" cy="131.28" r="1.66"/><circle class="cls-6" cx="236.09" cy="138.68" r="1.66"/><path class="cls-8" d="M250.91,236.09a1.16,1.16,0,0,1-1.2,1.09H231.33a1.16,1.16,0,0,1-1.2-1.09V206.27a1.15,1.15,0,0,1,1.2-1.09h18.38a1.16,1.16,0,0,1,1.2,1.09Z"/><path class="cls-5" d="M233.19,218.86a2.4,2.4,0,0,1,2.22-2.51h10.37a2.4,2.4,0,0,1,2.22,2.51h0a2.37,2.37,0,0,1-2.13,2.59H235.45a2.39,2.39,0,0,1-2.22-2.49Z"/><path class="cls-5" d="M233.19,211.45a2.36,2.36,0,0,1,2.22-2.48h10.37a2.38,2.38,0,0,1,2.22,2.48h0a2.4,2.4,0,0,1-2.22,2.51H235.45a2.4,2.4,0,0,1-2.22-2.51Z"/><circle class="cls-6" cx="236.09" cy="211.45" r="1.66"/><circle class="cls-6" cx="236.09" cy="218.86" r="1.66"/><line class="cls-9" x1="144.98" y1="160.39" x2="144.98" y2="156.39"/><path class="cls-10" d="M145,152.26V66.83a5,5,0,0,1,5-5h65.65"/><line class="cls-9" x1="217.7" y1="61.83" x2="221.7" y2="61.83"/><polygon class="cls-11" points="220.6 65.57 227.08 61.83 220.6 58.09 220.6 65.57"/><path class="cls-12" d="M129.77,140.61l14-14a1,1,0,0,1,1.41,0h0l14,14a1,1,0,0,1,0,1.41h0l-14,14a1,1,0,0,1-1.4,0l-14-14a1,1,0,0,1,0-1.41h0Z"/><path class="cls-13" d="M148.13,133l-3.53-3.52a.2.2,0,0,0-.27,0L140.8,133a.16.16,0,0,0-.06.22h0a.18.18,0,0,0,.18.07H143a.18.18,0,0,1,.18.18v3.33a.19.19,0,0,0,.18.19h2.2a.2.2,0,0,0,.19-.19h0v-3.33a.18.18,0,0,1,.18-.18H148a.16.16,0,0,0,.2-.12A.16.16,0,0,0,148.13,133Z"/><path class="cls-13" d="M136.13,137.35l-3.5,3.55a.2.2,0,0,0,0,.25l3.5,3.51a.18.18,0,0,0,.25,0h0a.2.2,0,0,0,.06-.14v-2.05a.18.18,0,0,1,.18-.18H140a.17.17,0,0,0,.16-.17V139.9a.17.17,0,0,0-.06-.23h-3.34a.17.17,0,0,1-.18-.15h0v-2a.21.21,0,0,0-.12-.25.19.19,0,0,0-.27,0A.17.17,0,0,0,136.13,137.35Z"/><path class="cls-13" d="M152.93,144.66l3.55-3.53a.2.2,0,0,0,0-.25l-3.55-3.53a.18.18,0,0,0-.25,0h0a.21.21,0,0,0,0,.11v2.08a.18.18,0,0,1-.17.17h-3.35a.16.16,0,0,0-.16.16h0v2.22a.16.16,0,0,0,.14.18h3.35a.18.18,0,0,1,.18.18v2.06a.16.16,0,0,0,.18.16h.09Z"/><path class="cls-1" d="M149.11,141.33a4.65,4.65,0,1,0-5.9,4.45v1.58a2.85,2.85,0,1,0,3.84,1.22h0a2.87,2.87,0,0,0-1.22-1.22v-1.67A4.61,4.61,0,0,0,149.11,141.33Z"/><circle id="e99c3387-15c3-4f28-bd4b-cb209b430e06" class="cls-14" cx="144.48" cy="141.31" r="2.7"/><line class="cls-9" x1="144.48" y1="193.23" x2="144.48" y2="197.23"/><path class="cls-15" d="M144.48,201v15.15a5,5,0,0,0,5,5H215.8"/><line class="cls-9" x1="217.7" y1="221.18" x2="221.7" y2="221.18"/><polygon class="cls-11" points="220.6 224.92 227.08 221.18 220.6 217.44 220.6 224.92"/><line class="cls-9" x1="159.16" y1="142.05" x2="163.16" y2="142.05"/><line class="cls-16" x1="167.36" y1="142.05" x2="215.6" y2="142.05"/><line class="cls-9" x1="217.7" y1="142.05" x2="221.7" y2="142.05"/><polygon class="cls-11" points="220.6 145.78 227.08 142.04 220.6 138.31 220.6 145.78"/></g><g id="txt"><path class="cls-17" d="M121.67,173.05h-1.52l-.76-2.14h-3.31l-.72,2.14h-1.53l3.15-8.4h1.57ZM119,169.77l-1.17-3.35c0-.11-.07-.28-.11-.52h0a3.13,3.13,0,0,1-.12.52l-1.15,3.35Z"/><path class="cls-17" d="M127.11,167.62,123.87,172h3.22v1.06H122v-.51l3.31-4.43h-3v-1.06h4.83Z"/><path class="cls-17" d="M133.48,173.05h-1.36v-1h0a2,2,0,0,1-1.84,1.09q-2.13,0-2.13-2.55v-3.59h1.36v3.45c0,1.07.42,1.61,1.25,1.61a1.28,1.28,0,0,0,1-.44,1.72,1.72,0,0,0,.39-1.17v-3.45h1.36Z"/><path class="cls-17" d="M138.73,168.34a1.18,1.18,0,0,0-.71-.19,1.21,1.21,0,0,0-1,.55,2.48,2.48,0,0,0-.4,1.48v2.87h-1.36v-6h1.36v1.24h0a2.11,2.11,0,0,1,.62-1,1.35,1.35,0,0,1,.92-.36,1.06,1.06,0,0,1,.56.12Z"/><path class="cls-17" d="M144.77,170.42h-4.09a1.73,1.73,0,0,0,.52,1.28,1.89,1.89,0,0,0,1.34.45,3,3,0,0,0,1.76-.57v1.09a4,4,0,0,1-2.16.52,2.66,2.66,0,0,1-2.08-.82,3.27,3.27,0,0,1-.75-2.3,3.21,3.21,0,0,1,.82-2.28,2.72,2.72,0,0,1,2.06-.88,2.37,2.37,0,0,1,1.91.79,3.29,3.29,0,0,1,.67,2.2Zm-1.31-1a1.71,1.71,0,0,0-.35-1.14,1.14,1.14,0,0,0-.93-.41,1.33,1.33,0,0,0-1,.43,2,2,0,0,0-.5,1.12Z"/><path class="cls-17" d="M154.17,173.05h-4.65v-8.4h1.39v7.22h3.26Z"/><path class="cls-17" d="M157.89,173.19a3,3,0,0,1-2.22-.84,3,3,0,0,1-.83-2.23,3,3,0,0,1,3.2-3.21,2.84,2.84,0,0,1,2.19.83,3.66,3.66,0,0,1-.06,4.59A3.08,3.08,0,0,1,157.89,173.19ZM158,168a1.53,1.53,0,0,0-1.26.56,2.31,2.31,0,0,0-.47,1.53,2.22,2.22,0,0,0,.47,1.49,1.58,1.58,0,0,0,1.26.54,1.51,1.51,0,0,0,1.23-.53,2.35,2.35,0,0,0,.43-1.52,2.38,2.38,0,0,0-.43-1.53A1.49,1.49,0,0,0,158,168Z"/><path class="cls-17" d="M167,173.05h-1.32v-.94h0a2,2,0,0,1-1.82,1.08,1.94,1.94,0,0,1-1.39-.48,1.69,1.69,0,0,1-.5-1.27c0-1.13.65-1.79,2-2l1.78-.25c0-.86-.41-1.29-1.22-1.29a2.9,2.9,0,0,0-1.93.74v-1.19a4.25,4.25,0,0,1,2.19-.56,2,2,0,0,1,2.27,2.24Zm-1.31-3-1.26.18a2,2,0,0,0-.88.28.83.83,0,0,0-.3.73.79.79,0,0,0,.28.63,1,1,0,0,0,.72.24,1.34,1.34,0,0,0,1-.44,1.54,1.54,0,0,0,.41-1.1Z"/><path class="cls-17" d="M174.12,173.05h-1.36v-1h0a2.34,2.34,0,0,1-3.79.35,3.33,3.33,0,0,1-.67-2.19,3.62,3.62,0,0,1,.74-2.38,2.4,2.4,0,0,1,2-.9,1.86,1.86,0,0,1,1.76,1h0v-3.71h1.36Zm-1.35-2.74v-.79a1.52,1.52,0,0,0-.41-1.08,1.38,1.38,0,0,0-1.06-.45,1.43,1.43,0,0,0-1.2.57,2.56,2.56,0,0,0-.44,1.58,2.24,2.24,0,0,0,.42,1.44,1.35,1.35,0,0,0,1.13.53,1.42,1.42,0,0,0,1.13-.51A1.92,1.92,0,0,0,172.77,170.31Z"/><path class="cls-17" d="M122.22,186.25v-8.4h2.67a3.2,3.2,0,0,1,1.93.53,1.68,1.68,0,0,1,.71,1.39,2,2,0,0,1-.4,1.24,2.23,2.23,0,0,1-1.12.75v0a2.13,2.13,0,0,1,1.38.64,1.93,1.93,0,0,1,.52,1.41,2.1,2.1,0,0,1-.85,1.74,3.32,3.32,0,0,1-2.14.67Zm1.39-7.28v2.39h.9a1.71,1.71,0,0,0,1.14-.35,1.17,1.17,0,0,0,.42-1c0-.71-.48-1.07-1.44-1.07Zm0,3.51v2.66h1.19a1.79,1.79,0,0,0,1.2-.36,1.22,1.22,0,0,0,.43-1c0-.87-.6-1.3-1.81-1.3Z"/><path class="cls-17" d="M133.92,186.25h-1.31v-.94h0a2,2,0,0,1-1.82,1.08,1.94,1.94,0,0,1-1.39-.48,1.69,1.69,0,0,1-.5-1.27c0-1.13.66-1.79,2-2l1.78-.25c0-.86-.4-1.29-1.22-1.29a2.9,2.9,0,0,0-1.93.74v-1.19a4.25,4.25,0,0,1,2.19-.56,2,2,0,0,1,2.27,2.24Zm-1.31-2.95-1.26.18a2,2,0,0,0-.88.28.83.83,0,0,0-.3.73.79.79,0,0,0,.28.63,1.05,1.05,0,0,0,.73.24,1.34,1.34,0,0,0,1-.44,1.5,1.5,0,0,0,.41-1.1Z"/><path class="cls-17" d="M137,186.25h-1.37v-8.88H137Z"/><path class="cls-17" d="M143.32,186.25H142v-.94h0a2,2,0,0,1-1.82,1.08,1.94,1.94,0,0,1-1.39-.48,1.69,1.69,0,0,1-.5-1.27c0-1.13.65-1.79,2-2l1.78-.25c0-.86-.41-1.29-1.22-1.29a2.9,2.9,0,0,0-1.93.74v-1.19a4.25,4.25,0,0,1,2.19-.56,2,2,0,0,1,2.27,2.24ZM142,183.3l-1.26.18a2,2,0,0,0-.88.28,1,1,0,0,0,0,1.36,1.09,1.09,0,0,0,.73.24,1.34,1.34,0,0,0,1-.44,1.54,1.54,0,0,0,.41-1.1Z"/><path class="cls-17" d="M150.32,186.25H149v-3.38c0-1.12-.39-1.68-1.18-1.68a1.3,1.3,0,0,0-1,.46,1.74,1.74,0,0,0-.4,1.18v3.42H145v-6h1.37v1h0a2.14,2.14,0,0,1,1.94-1.14,1.81,1.81,0,0,1,1.5.64,2.85,2.85,0,0,1,.51,1.83Z"/><path class="cls-17" d="M156.28,186a3.33,3.33,0,0,1-1.71.42,2.89,2.89,0,0,1-2.15-.83,3,3,0,0,1-.82-2.17,3.24,3.24,0,0,1,.88-2.38,3.15,3.15,0,0,1,2.36-.9,3.43,3.43,0,0,1,1.44.29v1.26a2.18,2.18,0,0,0-1.33-.47,1.83,1.83,0,0,0-1.41.59,2.11,2.11,0,0,0-.56,1.52,2.06,2.06,0,0,0,.52,1.47,1.85,1.85,0,0,0,1.39.54,2.19,2.19,0,0,0,1.39-.52Z"/><path class="cls-17" d="M162.71,183.62h-4.09a1.69,1.69,0,0,0,.51,1.28,1.89,1.89,0,0,0,1.34.45,3,3,0,0,0,1.77-.57v1.1a4.08,4.08,0,0,1-2.17.51,2.68,2.68,0,0,1-2.08-.82,3.27,3.27,0,0,1-.75-2.3,3.17,3.17,0,0,1,.83-2.28,2.7,2.7,0,0,1,2.06-.88,2.35,2.35,0,0,1,1.9.79,3.29,3.29,0,0,1,.68,2.2Zm-1.32-1a1.76,1.76,0,0,0-.34-1.14,1.17,1.17,0,0,0-.94-.41,1.3,1.3,0,0,0-1,.43,1.88,1.88,0,0,0-.5,1.12Z"/><path class="cls-17" d="M167.48,181.54a1.18,1.18,0,0,0-.71-.19,1.21,1.21,0,0,0-1,.55,2.41,2.41,0,0,0-.4,1.48v2.87H164v-6h1.36v1.24h0a2.11,2.11,0,0,1,.62-1,1.35,1.35,0,0,1,.92-.36,1.08,1.08,0,0,1,.56.12Z"/><path class="cls-17" d="M139.46,21.87V13.19h6.61v8.68Zm5.27-1.13V14.32h-3.94v6.42Z"/><path class="cls-17" d="M147.8,16.64h6.79v1.3H147.8Z"/><path class="cls-17" d="M158.46,15.8a19.17,19.17,0,0,1,4.6,1.86l-.68,1.27a14.67,14.67,0,0,0-3.92-1.85V22.4h-1.34V12.28h1.34ZM160.39,12l.79-.22a11.15,11.15,0,0,1,.88,2l-.81.26A9.93,9.93,0,0,0,160.39,12Zm1.48-.36.78-.23a12.18,12.18,0,0,1,.85,1.91l-.81.27A10.59,10.59,0,0,0,161.87,11.67Z"/><path class="cls-17" d="M167.36,21.52a17.34,17.34,0,0,0,2.38-8.42l1.42.18a28.34,28.34,0,0,1-1,5.4,15.3,15.3,0,0,1-1.55,3.49Zm5.24-8.27L174,13.1a20.18,20.18,0,0,0,2.44,8.36l-1.29.72a21.91,21.91,0,0,1-1.71-4.51A35,35,0,0,1,172.6,13.25ZM174.07,12l.79-.16a11,11,0,0,1,.75,2.06l-.82.19A9.85,9.85,0,0,0,174.07,12Zm1.43-.25.78-.17a11.88,11.88,0,0,1,.73,2l-.82.21A10.18,10.18,0,0,0,175.5,11.79Z"/><path class="cls-17" d="M177.75,15.24h7.11c-.1,2.4-.67,4.17-1.72,5.29a7.64,7.64,0,0,1-3.83,2l-.61-1a6.57,6.57,0,0,0,3.62-2,5.35,5.35,0,0,0,1.12-3.15h-5.69Zm.74-2.49h5.74v1.1h-5.74Z"/><path class="cls-17" d="M187,13.18a19.05,19.05,0,0,1,3,1.9l-.87,1.2a14.47,14.47,0,0,0-2.94-2.07Zm5.81.51,1.26.66a10.38,10.38,0,0,1-2.24,5.26A9.44,9.44,0,0,1,187,22.4l-.65-1.23a7.89,7.89,0,0,0,4.93-3A9.83,9.83,0,0,0,192.81,13.69Z"/><path class="cls-17" d="M201,15.7h-2.59v3.09h-1.27V15.7h-1.84V14.56h1.84V12.32h1.27v2.24H201V12.32h1.28v2.24h1.91V15.7h-1.91v.75A6.25,6.25,0,0,1,201,20.8a6.55,6.55,0,0,1-3.34,1.68l-.74-1a5.6,5.6,0,0,0,3.25-1.66,5.34,5.34,0,0,0,.84-3.3Z"/><path class="cls-17" d="M205.36,16.64h6.79v1.3h-6.79Z"/><path class="cls-17" d="M216.39,15h0c0,.71,0,1.22,0,1.54h.08l1.28,0c.07,0,.12,0,.13,0a.23.23,0,0,1,0,.11v.87c0,.07,0,.12,0,.13a.25.25,0,0,1-.12,0l-1.28,0h-.17v0A5.71,5.71,0,0,0,218,19.77a4.07,4.07,0,0,0-.58.65q-.18.24-.24.24s-.12-.07-.24-.21a5.76,5.76,0,0,1-1-1.35A6.68,6.68,0,0,1,214.35,22c-.13.15-.23.22-.29.22s-.15-.08-.27-.23a3.15,3.15,0,0,0-.65-.61A5.9,5.9,0,0,0,215,17.6h-.32l-1.28,0c-.06,0-.09,0-.1,0a.22.22,0,0,1,0-.12V16.6c0-.09,0-.13.12-.13l1.28,0h.41c0-.57.05-1.09.06-1.54H215l-1.18,0q-.1,0-.12,0a.19.19,0,0,1,0-.1V14c0-.06,0-.1,0-.11a.2.2,0,0,1,.11,0l1.18,0h.23v-.65a9.14,9.14,0,0,0-.08-1.22c.37,0,.78,0,1.21.08.13,0,.19,0,.19.12a1,1,0,0,1-.05.22,1.86,1.86,0,0,0-.08.59c0,.19,0,.47,0,.86h0l1.19,0a.2.2,0,0,1,.11,0,.27.27,0,0,1,0,.11v.88a.2.2,0,0,1,0,.11.23.23,0,0,1-.11,0Zm6.81,5.11a2.54,2.54,0,0,0,.8.34.56.56,0,0,1,.22.1.19.19,0,0,1,.05.15,1.53,1.53,0,0,1,0,.18,4.78,4.78,0,0,1-.15,1.06,1,1,0,0,1-.28.45,2,2,0,0,1-1.38.35,3.12,3.12,0,0,1-1.15-.18q-.36-.17-.36-.81V19h-.59a4.34,4.34,0,0,1-2.78,3.81,1,1,0,0,1-.28.07c-.07,0-.17-.09-.29-.26a3,3,0,0,0-.63-.65,3.36,3.36,0,0,0,2.77-3l-.64,0h-.2a.19.19,0,0,1-.13,0,.2.2,0,0,1,0-.11l0-1.43V13.94l0-1.46c0-.07,0-.12,0-.13l.12,0,1.42,0h2.11l1.42,0q.1,0,.12,0a.22.22,0,0,1,0,.12l0,1.46v3.48l0,1.43a.1.1,0,0,1-.14.14h-.36l-.81,0v2.16c0,.2,0,.33.1.37a1.05,1.05,0,0,0,.43.06.67.67,0,0,0,.41-.11.82.82,0,0,0,.15-.49A8.49,8.49,0,0,0,223.2,20.06Zm-3.86-6.63v.82h2.83v-.82Zm0,2.63h2.83v-.82h-2.83Zm2.83,1.88v-.88h-2.83v.88Z"/><path class="cls-17" d="M225.16,22a4.75,4.75,0,0,0,1.47-1.53,2.59,2.59,0,0,0,.24-.5c.29.13.61.3,1,.5.1.06.15.11.15.17a.22.22,0,0,1-.11.18,1.39,1.39,0,0,0-.24.28,6,6,0,0,1-1.23,1.48c-.14.12-.24.19-.29.19s-.13-.06-.23-.17A3.59,3.59,0,0,0,225.16,22Zm4-9.64,1.32,0a.22.22,0,0,1,.12,0,.23.23,0,0,1,0,.11l0,1.6v4l0,1.62c0,.06,0,.1,0,.11s-.05,0-.11,0l-1.32,0h-1.69l-1.32,0c-.07,0-.11,0-.12,0a.28.28,0,0,1,0-.11l0-1.62v-4l0-1.6c0-.06,0-.1,0-.11a.2.2,0,0,1,.11,0l1.32,0Zm.3,1h-2.27V14.5h2.27Zm-2.27,3.3h2.27V15.48h-2.27Zm2.27,2.2V17.62h-2.27v1.23Zm.25,1.28a8,8,0,0,0,1.53,1.68,4.25,4.25,0,0,0-.71.59c-.11.12-.19.18-.23.18s-.13-.07-.28-.22a10.41,10.41,0,0,1-1.28-1.68.16.16,0,0,1,0-.09s.05-.08.14-.14l.63-.36a.35.35,0,0,1,.14-.06S229.63,20.07,229.67,20.13Zm2-7.24a10.55,10.55,0,0,1,1.23.1c.11,0,.17,0,.17.13a2.1,2.1,0,0,1-.07.26,9,9,0,0,0-.05,1.29V17.9l0,1.7a.2.2,0,0,1,0,.11.23.23,0,0,1-.11,0h-1a.2.2,0,0,1-.11,0s0-.05,0-.11l0-1.7V14.68A16.51,16.51,0,0,0,231.63,12.89Zm.78,8.4a10.25,10.25,0,0,0,1.33.09.6.6,0,0,0,.42-.11.5.5,0,0,0,.11-.36V13.74a10.79,10.79,0,0,0-.1-1.7c.45,0,.88,0,1.3.07.13,0,.19.06.19.13a.54.54,0,0,1-.08.25,5.74,5.74,0,0,0-.07,1.22v5.08l0,2.36a2.33,2.33,0,0,1-.1.75.9.9,0,0,1-.34.43,2,2,0,0,1-.67.24,10.83,10.83,0,0,1-1.17.05c-.2,0-.32,0-.36-.05a1,1,0,0,1-.1-.33A2.86,2.86,0,0,0,232.41,21.29Z"/><path class="cls-17" d="M257.56,66.91a17.63,17.63,0,0,0,2.38-8.43l1.41.18a28.89,28.89,0,0,1-1,5.4,15.13,15.13,0,0,1-1.56,3.49Zm5.23-8.27,1.38-.16a19.79,19.79,0,0,0,2.44,8.36l-1.3.72a20.92,20.92,0,0,1-1.7-4.51A33.29,33.29,0,0,1,262.79,58.64Zm1.48-1.21.79-.16a10.65,10.65,0,0,1,.74,2l-.81.19A9.76,9.76,0,0,0,264.27,57.43Zm1.43-.25.78-.17a12.33,12.33,0,0,1,.73,2l-.82.22A11.38,11.38,0,0,0,265.7,57.18Z"/><path class="cls-17" d="M267.78,60.67l1.08-.39a15.83,15.83,0,0,1,1,2.78l-1.12.42A13.92,13.92,0,0,0,267.78,60.67ZM269.09,67a5.9,5.9,0,0,0,3.24-2.47,10.17,10.17,0,0,0,1-4.47l1.34.26a20.59,20.59,0,0,1-.51,2.93,7.72,7.72,0,0,1-.79,1.91,5.82,5.82,0,0,1-1.52,1.7,9.4,9.4,0,0,1-2,1.09Zm1-6.85,1.11-.34a13.9,13.9,0,0,1,.83,2.69l-1.12.38A12.88,12.88,0,0,0,270.08,60.18Z"/><path class="cls-17" d="M279.22,59.91a12.18,12.18,0,0,1-2.34,3.36l-1-.74a10.08,10.08,0,0,0,2.79-5l1.38.22c-.19.54-.31.87-.37,1h3.7l.31.43a12.15,12.15,0,0,1-2.42,6,10,10,0,0,1-3.9,2.65l-.78-1a8.69,8.69,0,0,0,3.93-2.8,9.42,9.42,0,0,0,1.68-4.23Z"/><path class="cls-17" d="M288.21,59.94h-2.79V58.79h6.95v1.15h-2.79v6.14H293v1.14h-8V66.08h3.27Z"/><path class="cls-17" d="M294.84,58.56a20.62,20.62,0,0,1,3,1.9l-.88,1.2A13.79,13.79,0,0,0,294,59.6Zm5.8.52,1.26.65A10.14,10.14,0,0,1,299.66,65a9.27,9.27,0,0,1-4.87,2.79l-.65-1.22a7.89,7.89,0,0,0,4.93-3A9.78,9.78,0,0,0,300.64,59.08Z"/><path class="cls-17" d="M305.73,61.18a19.59,19.59,0,0,1,4.6,1.86l-.67,1.27a14.87,14.87,0,0,0-3.93-1.84v5.31h-1.34V57.67h1.34Zm1.93-3.76.8-.22a11.81,11.81,0,0,1,.87,2l-.81.27A9.48,9.48,0,0,0,307.66,57.42Zm1.48-.37.78-.23a12.65,12.65,0,0,1,.86,1.91L310,59A11,11,0,0,0,309.14,57.05Z"/><path class="cls-17" d="M312.34,62.76a.88.88,0,0,1-.6-.23.75.75,0,0,1-.24-.55.78.78,0,0,1,.24-.57.91.91,0,0,1,1.21,0,.79.79,0,0,1,.25.57.76.76,0,0,1-.25.55A.89.89,0,0,1,312.34,62.76Zm0,4.64a.85.85,0,0,1-.6-.24.76.76,0,0,1,0-1.11.88.88,0,0,1,1.21,0,.74.74,0,0,1,0,1.11A.85.85,0,0,1,312.34,67.4Z"/><path class="cls-17" d="M320.07,62.34a17.92,17.92,0,0,1-.8,2.69,14.52,14.52,0,0,1-1,2l-1.17-.62a11.1,11.1,0,0,0,1.13-2.18,11.77,11.77,0,0,0,.58-2.24Zm2.36-2.62h3.75v1.11h-3.75v7h-1.32v-7H317.4V59.72h3.71v-2h1.32Zm1,2.72L324.6,62a19.15,19.15,0,0,0,1.75,4.28l-1.24.67A25.42,25.42,0,0,1,323.41,62.44Zm2-5.72a1.34,1.34,0,0,1,1,.45,1.33,1.33,0,0,1,.35.91,1.38,1.38,0,0,1-1.37,1.38,1.26,1.26,0,0,1-1-.46,1.36,1.36,0,0,1,.09-1.93A1.35,1.35,0,0,1,325.43,56.72Zm0,.59a.73.73,0,0,0-.58.25.8.8,0,0,0,0,1.11.77.77,0,0,0,.53.19.73.73,0,0,0,.58-.25.76.76,0,0,0,.2-.53.78.78,0,0,0-.25-.58A.77.77,0,0,0,325.43,57.31Z"/><path class="cls-17" d="M327.5,62h6.79v1.31H327.5Z"/><path class="cls-17" d="M338,61.18a19.59,19.59,0,0,1,4.6,1.86l-.68,1.27A14.65,14.65,0,0,0,338,62.47v5.31h-1.34V57.67H338Z"/><path class="cls-17" d="M346.6,64.92a2.74,2.74,0,0,1,.09-.7,2.09,2.09,0,0,1,.73-1.14,2,2,0,0,1,.64-.37,2.6,2.6,0,0,1-.86-.78,1.84,1.84,0,0,1-.32-1.06,1.9,1.9,0,0,1,.19-.86,2,2,0,0,1,.52-.68,2.6,2.6,0,0,1,.8-.45,3.11,3.11,0,0,1,1-.16,3,3,0,0,1,1,.17,2.54,2.54,0,0,1,.79.45,2.06,2.06,0,0,1,.53.68,2,2,0,0,1,.19.85,1.85,1.85,0,0,1-.33,1.06,2.67,2.67,0,0,1-.85.78,2.35,2.35,0,0,1,.64.36,2.31,2.31,0,0,1,.47.52,2.67,2.67,0,0,1,.28.62,2.82,2.82,0,0,1,.09.71,2.53,2.53,0,0,1-.2,1,2.24,2.24,0,0,1-.58.78,2.55,2.55,0,0,1-.88.51,3.49,3.49,0,0,1-1.14.18,3.39,3.39,0,0,1-1.13-.18,2.64,2.64,0,0,1-.88-.51,2.24,2.24,0,0,1-.58-.78A2.37,2.37,0,0,1,346.6,64.92Zm1.32-.11a1.87,1.87,0,0,0,.11.64,1.44,1.44,0,0,0,.3.49,1.31,1.31,0,0,0,.46.3,1.74,1.74,0,0,0,.61.11,1.59,1.59,0,0,0,.59-.11,1.38,1.38,0,0,0,.47-.31,1.64,1.64,0,0,0,.31-.49,1.81,1.81,0,0,0,.11-.63,1.74,1.74,0,0,0-.11-.61,1.48,1.48,0,0,0-.3-.5,1.39,1.39,0,0,0-.46-.33,1.51,1.51,0,0,0-.61-.12,1.44,1.44,0,0,0-.59.11,1.4,1.4,0,0,0-.47.32,1.48,1.48,0,0,0-.3.5A1.61,1.61,0,0,0,347.92,64.81Zm.29-3.8a1.2,1.2,0,0,0,.35.88,1.08,1.08,0,0,0,.37.26,1.14,1.14,0,0,0,.46.09,1.18,1.18,0,0,0,.46-.09,1.11,1.11,0,0,0,.37-.27,1.16,1.16,0,0,0,.26-.39,1.28,1.28,0,0,0,.09-.48,1.3,1.3,0,0,0-.09-.49,1.09,1.09,0,0,0-.25-.4,1.05,1.05,0,0,0-.37-.25,1.07,1.07,0,0,0-.47-.1,1.06,1.06,0,0,0-.48.1.91.91,0,0,0-.37.27,1,1,0,0,0-.24.39A1.28,1.28,0,0,0,348.21,61Z"/><path class="cls-17" d="M355.79,67.41a2.34,2.34,0,0,1-2.05-1.08,5.44,5.44,0,0,1-.73-3.1,6.06,6.06,0,0,1,.76-3.36A2.51,2.51,0,0,1,356,58.72q2.77,0,2.77,4.31a5.65,5.65,0,0,1-.78,3.25A2.52,2.52,0,0,1,355.79,67.41Zm.13-7.6c-1,0-1.53,1.12-1.53,3.37q0,3.15,1.5,3.15c1,0,1.48-1.07,1.48-3.21S356.89,59.81,355.92,59.81Z"/><path class="cls-17" d="M257.56,143.58a17.63,17.63,0,0,0,2.38-8.43l1.41.18a28.89,28.89,0,0,1-1,5.4,15.13,15.13,0,0,1-1.56,3.49Zm5.23-8.28,1.38-.15a19.79,19.79,0,0,0,2.44,8.36l-1.3.72a20.92,20.92,0,0,1-1.7-4.51A33.15,33.15,0,0,1,262.79,135.3Zm1.48-1.2.79-.16a10.65,10.65,0,0,1,.74,2.05l-.81.19A9.76,9.76,0,0,0,264.27,134.1Zm1.43-.25.78-.17a12.33,12.33,0,0,1,.73,1.95l-.82.22A11.38,11.38,0,0,0,265.7,133.85Z"/><path class="cls-17" d="M267.78,137.34l1.08-.39a15.83,15.83,0,0,1,1,2.78l-1.12.41A14,14,0,0,0,267.78,137.34Zm1.31,6.36a6,6,0,0,0,3.24-2.47,10.17,10.17,0,0,0,1-4.47l1.34.26a20.59,20.59,0,0,1-.51,2.93,7.72,7.72,0,0,1-.79,1.91,5.82,5.82,0,0,1-1.52,1.7,9.41,9.41,0,0,1-2,1.08Zm1-6.85,1.11-.34a13.9,13.9,0,0,1,.83,2.69l-1.12.38A12.88,12.88,0,0,0,270.08,136.85Z"/><path class="cls-17" d="M279.22,136.58a12.18,12.18,0,0,1-2.34,3.36l-1-.74a10.08,10.08,0,0,0,2.79-4.95l1.38.22c-.19.54-.31.87-.37,1h3.7l.31.44a12.15,12.15,0,0,1-2.42,6,10,10,0,0,1-3.9,2.65l-.78-1a8.69,8.69,0,0,0,3.93-2.8,9.42,9.42,0,0,0,1.68-4.23Z"/><path class="cls-17" d="M288.21,136.61h-2.79v-1.15h6.95v1.15h-2.79v6.14H293v1.14h-8v-1.14h3.27Z"/><path class="cls-17" d="M294.84,135.23a19.8,19.8,0,0,1,3,1.9l-.88,1.2a13.79,13.79,0,0,0-2.94-2.06Zm5.8.52,1.26.65a10.14,10.14,0,0,1-2.24,5.26,9.27,9.27,0,0,1-4.87,2.79l-.65-1.22a7.89,7.89,0,0,0,4.93-3A9.78,9.78,0,0,0,300.64,135.75Z"/><path class="cls-17" d="M305.73,137.85a19.59,19.59,0,0,1,4.6,1.86l-.67,1.27a14.87,14.87,0,0,0-3.93-1.84v5.31h-1.34V134.34h1.34Zm1.93-3.76.8-.22a11.81,11.81,0,0,1,.87,2l-.81.27A9.48,9.48,0,0,0,307.66,134.09Zm1.48-.37.78-.23a12.65,12.65,0,0,1,.86,1.91l-.81.28A11,11,0,0,0,309.14,133.72Z"/><path class="cls-17" d="M312.34,139.43a.88.88,0,0,1-.6-.23.76.76,0,0,1-.24-.56.77.77,0,0,1,.24-.56.91.91,0,0,1,1.21,0,.78.78,0,0,1,.25.56.77.77,0,0,1-.25.56A.89.89,0,0,1,312.34,139.43Zm0,4.63a.84.84,0,0,1-.6-.23.76.76,0,0,1,0-1.11.88.88,0,0,1,1.21,0,.74.74,0,0,1,0,1.11A.84.84,0,0,1,312.34,144.06Z"/><path class="cls-17" d="M320.07,139a17.92,17.92,0,0,1-.8,2.69,14.52,14.52,0,0,1-1,2l-1.17-.63a11,11,0,0,0,1.13-2.17,12,12,0,0,0,.58-2.24Zm2.36-2.62h3.75v1.11h-3.75v7h-1.32v-7H317.4v-1.11h3.71v-2h1.32Zm1,2.72,1.19-.43a19.15,19.15,0,0,0,1.75,4.28l-1.24.67A25.42,25.42,0,0,1,323.41,139.11Zm2-5.72a1.34,1.34,0,0,1,1,.45,1.33,1.33,0,0,1,.35.91,1.38,1.38,0,0,1-1.37,1.38,1.4,1.4,0,0,1-1.37-1.38,1.31,1.31,0,0,1,.45-1A1.35,1.35,0,0,1,325.43,133.39Zm0,.58a.74.74,0,0,0-.58.26.8.8,0,0,0,0,1.11.77.77,0,0,0,.53.19.73.73,0,0,0,.58-.25.76.76,0,0,0,.2-.53.77.77,0,0,0-.78-.78Z"/><path class="cls-17" d="M327.5,138.69h6.79V140H327.5Z"/><path class="cls-17" d="M338,137.85a19.59,19.59,0,0,1,4.6,1.86L341.9,141a14.65,14.65,0,0,0-3.92-1.84v5.31h-1.34V134.34H338Z"/><path class="cls-17" d="M346.6,141.59a2.74,2.74,0,0,1,.09-.7,2.09,2.09,0,0,1,.73-1.14,2,2,0,0,1,.64-.37,2.52,2.52,0,0,1-.86-.79,1.78,1.78,0,0,1-.32-1.05,1.9,1.9,0,0,1,.19-.86,2,2,0,0,1,.52-.68,2.6,2.6,0,0,1,.8-.45,3.11,3.11,0,0,1,1-.16,3,3,0,0,1,1,.17,2.54,2.54,0,0,1,.79.45,2.06,2.06,0,0,1,.53.68,2,2,0,0,1,.19.85,1.79,1.79,0,0,1-.33,1.05,2.58,2.58,0,0,1-.85.79,2.35,2.35,0,0,1,.64.36,2.11,2.11,0,0,1,.47.52,2.67,2.67,0,0,1,.28.62,2.82,2.82,0,0,1,.09.71,2.56,2.56,0,0,1-.2,1,2.24,2.24,0,0,1-.58.78,2.55,2.55,0,0,1-.88.51,3.49,3.49,0,0,1-1.14.18,3.39,3.39,0,0,1-1.13-.18,2.64,2.64,0,0,1-.88-.51,2.24,2.24,0,0,1-.58-.78A2.4,2.4,0,0,1,346.6,141.59Zm1.32-.12a1.88,1.88,0,0,0,.11.65,1.44,1.44,0,0,0,.3.49,1.31,1.31,0,0,0,.46.3,1.74,1.74,0,0,0,.61.11,1.59,1.59,0,0,0,.59-.11,1.54,1.54,0,0,0,.47-.31,1.64,1.64,0,0,0,.31-.49,1.83,1.83,0,0,0,.11-.64,1.73,1.73,0,0,0-.11-.6,1.48,1.48,0,0,0-.3-.5A1.39,1.39,0,0,0,350,140a1.51,1.51,0,0,0-.61-.12,1.44,1.44,0,0,0-.59.11,1.4,1.4,0,0,0-.47.32,1.48,1.48,0,0,0-.3.5A1.59,1.59,0,0,0,347.92,141.47Zm.29-3.79a1.2,1.2,0,0,0,.35.88,1.08,1.08,0,0,0,.37.26,1.14,1.14,0,0,0,.46.09,1.18,1.18,0,0,0,.46-.09,1.11,1.11,0,0,0,.37-.27,1.16,1.16,0,0,0,.26-.39,1.28,1.28,0,0,0,.09-.48,1.3,1.3,0,0,0-.09-.49,1.09,1.09,0,0,0-.25-.4,1.05,1.05,0,0,0-.37-.25,1.07,1.07,0,0,0-.47-.1,1.06,1.06,0,0,0-.48.1,1,1,0,0,0-.37.26,1.1,1.1,0,0,0-.24.4A1.28,1.28,0,0,0,348.21,137.68Z"/><path class="cls-17" d="M355.79,144.08a2.34,2.34,0,0,1-2.05-1.08,5.44,5.44,0,0,1-.73-3.1,6.06,6.06,0,0,1,.76-3.36,2.51,2.51,0,0,1,2.22-1.15q2.77,0,2.77,4.31A5.65,5.65,0,0,1,358,143,2.52,2.52,0,0,1,355.79,144.08Zm.13-7.6c-1,0-1.53,1.12-1.53,3.37q0,3.15,1.5,3.15c1,0,1.48-1.07,1.48-3.21S356.89,136.48,355.92,136.48Z"/><path class="cls-17" d="M10.08,135.08h7a15.89,15.89,0,0,1-.64,4.66,6.68,6.68,0,0,1-1.87,2.94,9.86,9.86,0,0,1-3.26,1.83l-.74-1a7.21,7.21,0,0,0,3.88-2.69,8.66,8.66,0,0,0,1.17-4.55H10.08Z"/><path class="cls-17" d="M18.72,143.92v-8.67h6.61v8.67ZM24,142.79v-6.41H20.05v6.41Z"/><path class="cls-17" d="M27.67,135.23a19.8,19.8,0,0,1,3,1.9l-.87,1.2a13.79,13.79,0,0,0-2.94-2.06Zm5.81.52,1.26.65a10.31,10.31,0,0,1-2.24,5.26,9.3,9.3,0,0,1-4.88,2.79L27,143.23a7.86,7.86,0,0,0,4.93-3A9.78,9.78,0,0,0,33.48,135.75Z"/><path class="cls-17" d="M38.5,137.85a19.41,19.41,0,0,1,4.6,1.86L42.43,141a14.58,14.58,0,0,0-3.93-1.84v5.31H37.16V134.34H38.5Z"/><path class="cls-17" d="M47.28,136.61H44.49v-1.15h6.95v1.15H48.65v6.14H52v1.14H44v-1.14h3.27Z"/><path class="cls-17" d="M53.84,135.23a19.91,19.91,0,0,1,3,1.9l-.88,1.2A13.79,13.79,0,0,0,53,136.27Zm5.81.52,1.26.65a10.22,10.22,0,0,1-2.24,5.26,9.27,9.27,0,0,1-4.87,2.79l-.65-1.22a7.86,7.86,0,0,0,4.92-3A9.67,9.67,0,0,0,59.65,135.75Z"/><path class="cls-17" d="M64.68,137.85a19.59,19.59,0,0,1,4.6,1.86L68.6,141a14.65,14.65,0,0,0-3.92-1.84v5.31H63.34V134.34h1.34Zm1.93-3.76.79-.22a11,11,0,0,1,.88,2l-.81.27A9.48,9.48,0,0,0,66.61,134.09Zm1.48-.37.78-.23a12.61,12.61,0,0,1,.85,1.91l-.81.28A11,11,0,0,0,68.09,133.72Z"/><path class="cls-17" d="M71.23,139.43a.86.86,0,0,1-.6-.23.76.76,0,0,1-.24-.56.77.77,0,0,1,.24-.56.86.86,0,0,1,.6-.23.89.89,0,0,1,.61.23.77.77,0,0,1,.24.56.76.76,0,0,1-.24.56A.89.89,0,0,1,71.23,139.43Zm0,4.63a.82.82,0,0,1-.6-.23.76.76,0,0,1,0-1.11.83.83,0,0,1,.6-.24.85.85,0,0,1,.61.24.76.76,0,0,1,0,1.11A.84.84,0,0,1,71.23,144.06Z"/><path class="cls-17" d="M78.83,139A18,18,0,0,1,78,141.7a14.52,14.52,0,0,1-1,2L75.88,143A11,11,0,0,0,77,140.87a12,12,0,0,0,.58-2.24Zm2.37-2.62H85v1.11H81.2v7H79.88v-7H76.17v-1.11h3.71v-2H81.2Zm1,2.72,1.19-.43A19.15,19.15,0,0,0,85.12,143l-1.25.67A25.44,25.44,0,0,1,82.18,139.11Zm2-5.72a1.34,1.34,0,0,1,1,.45,1.33,1.33,0,0,1,.35.91,1.31,1.31,0,0,1-.45,1,1.37,1.37,0,0,1-2.29-1,1.31,1.31,0,0,1,.45-1A1.34,1.34,0,0,1,84.2,133.39Zm0,.58a.72.72,0,0,0-.58.26.71.71,0,0,0-.2.52.79.79,0,0,0,1.36.53A.78.78,0,0,0,84.2,134Z"/><path class="cls-17" d="M86.21,138.69H93V140H86.21Z"/><path class="cls-17" d="M96.62,137.85a19.41,19.41,0,0,1,4.6,1.86l-.67,1.27a14.58,14.58,0,0,0-3.93-1.84v5.31H95.28V134.34h1.34Z"/><path class="cls-17" d="M105.13,141.59a2.74,2.74,0,0,1,.09-.7,2.22,2.22,0,0,1,.27-.63,2.29,2.29,0,0,1,1.1-.88,2.65,2.65,0,0,1-.87-.79,1.86,1.86,0,0,1-.32-1.05,2,2,0,0,1,.19-.86,2.19,2.19,0,0,1,.53-.68,2.54,2.54,0,0,1,.79-.45,3.22,3.22,0,0,1,1-.16,3,3,0,0,1,1,.17,2.54,2.54,0,0,1,.79.45,2.06,2.06,0,0,1,.53.68,2,2,0,0,1,.18.85,1.78,1.78,0,0,1-.32,1.05,2.58,2.58,0,0,1-.85.79,2.35,2.35,0,0,1,.64.36,2.07,2.07,0,0,1,.46.52,2,2,0,0,1,.28.62,2.44,2.44,0,0,1,.1.71,2.4,2.4,0,0,1-.21,1,2.1,2.1,0,0,1-.57.78,2.59,2.59,0,0,1-.89.51,3.64,3.64,0,0,1-2.26,0,2.55,2.55,0,0,1-.88-.51,2.27,2.27,0,0,1-.59-.78A2.56,2.56,0,0,1,105.13,141.59Zm1.32-.12a1.88,1.88,0,0,0,.11.65,1.44,1.44,0,0,0,.3.49,1.23,1.23,0,0,0,.46.3,1.7,1.7,0,0,0,.61.11,1.63,1.63,0,0,0,.59-.11,1.67,1.67,0,0,0,.47-.31,1.44,1.44,0,0,0,.3-.49,1.62,1.62,0,0,0,.11-.64,1.72,1.72,0,0,0-.1-.6,1.48,1.48,0,0,0-.3-.5,1.33,1.33,0,0,0-.47-.33,1.46,1.46,0,0,0-.6-.12,1.44,1.44,0,0,0-.59.11,1.4,1.4,0,0,0-.47.32,1.69,1.69,0,0,0-.31.5A1.8,1.8,0,0,0,106.45,141.47Zm.29-3.79a1.33,1.33,0,0,0,.09.49,1.3,1.3,0,0,0,.25.39,1.12,1.12,0,0,0,.38.26,1.14,1.14,0,0,0,.46.09,1.07,1.07,0,0,0,.83-.36,1.33,1.33,0,0,0,.26-.39,1.28,1.28,0,0,0,.09-.48,1.3,1.3,0,0,0-.09-.49,1.09,1.09,0,0,0-.63-.65,1,1,0,0,0-.46-.1,1.06,1.06,0,0,0-.48.1,1.12,1.12,0,0,0-.38.26,1.47,1.47,0,0,0-.24.4A1.51,1.51,0,0,0,106.74,137.68Z"/><path class="cls-17" d="M114.26,144.08a2.34,2.34,0,0,1-2.05-1.08,5.44,5.44,0,0,1-.74-3.1,6,6,0,0,1,.77-3.36,2.49,2.49,0,0,1,2.22-1.15c1.84,0,2.77,1.44,2.77,4.31a5.57,5.57,0,0,1-.79,3.25A2.51,2.51,0,0,1,114.26,144.08Zm.13-7.6c-1,0-1.53,1.12-1.53,3.37q0,3.15,1.5,3.15c1,0,1.48-1.07,1.48-3.21S115.36,136.48,114.39,136.48Z"/><path class="cls-17" d="M257.56,224.48a17.56,17.56,0,0,0,2.38-8.42l1.41.18a29.21,29.21,0,0,1-1,5.4,15.13,15.13,0,0,1-1.56,3.49Zm5.23-8.27,1.38-.15a19.88,19.88,0,0,0,2.44,8.36l-1.3.72a21.12,21.12,0,0,1-1.7-4.51A33.15,33.15,0,0,1,262.79,216.21Zm1.48-1.21.79-.16a11,11,0,0,1,.74,2.06l-.81.19A9.85,9.85,0,0,0,264.27,215Zm1.43-.25.78-.17a12.86,12.86,0,0,1,.73,2l-.82.21A11.68,11.68,0,0,0,265.7,214.75Z"/><path class="cls-17" d="M267.78,218.24l1.08-.38a15.54,15.54,0,0,1,1,2.78l-1.12.41A14.14,14.14,0,0,0,267.78,218.24Zm1.31,6.36a5.89,5.89,0,0,0,3.24-2.46,10.22,10.22,0,0,0,1-4.48l1.34.27a20.41,20.41,0,0,1-.51,2.92,7.64,7.64,0,0,1-.79,1.92,6.08,6.08,0,0,1-1.52,1.7,9.41,9.41,0,0,1-2,1.08Zm1-6.85,1.11-.34a13.9,13.9,0,0,1,.83,2.69l-1.12.39A13,13,0,0,0,270.08,217.75Z"/><path class="cls-17" d="M279.22,217.49a12.28,12.28,0,0,1-2.34,3.35l-1-.74a10.05,10.05,0,0,0,2.79-4.94l1.38.21c-.19.54-.31.88-.37,1h3.7l.31.43a12.15,12.15,0,0,1-2.42,6,9.85,9.85,0,0,1-3.9,2.65l-.78-1a8.71,8.71,0,0,0,3.93-2.81,9.42,9.42,0,0,0,1.68-4.22Z"/><path class="cls-17" d="M288.21,217.51h-2.79v-1.14h6.95v1.14h-2.79v6.14H293v1.14h-8v-1.14h3.27Z"/><path class="cls-17" d="M294.84,216.14a19.05,19.05,0,0,1,3,1.9l-.88,1.2a14.2,14.2,0,0,0-2.94-2.07Zm5.8.52,1.26.65a10.21,10.21,0,0,1-2.24,5.26,9.4,9.4,0,0,1-4.87,2.79l-.65-1.23a7.88,7.88,0,0,0,4.93-3A9.82,9.82,0,0,0,300.64,216.66Z"/><path class="cls-17" d="M305.73,218.76a19.17,19.17,0,0,1,4.6,1.86l-.67,1.27a14.88,14.88,0,0,0-3.93-1.85v5.32h-1.34V215.24h1.34Zm1.93-3.77.8-.22a11.94,11.94,0,0,1,.87,2l-.81.26A9.93,9.93,0,0,0,307.66,215Zm1.48-.36.78-.23a12.22,12.22,0,0,1,.86,1.91l-.81.27A10.57,10.57,0,0,0,309.14,214.63Z"/><path class="cls-17" d="M312.34,220.33a.84.84,0,0,1-.6-.23.76.76,0,0,1,0-1.11.88.88,0,0,1,1.21,0,.74.74,0,0,1,0,1.11A.84.84,0,0,1,312.34,220.33Zm0,4.64a.88.88,0,0,1-.6-.23.76.76,0,0,1-.24-.56.77.77,0,0,1,.24-.56.91.91,0,0,1,1.21,0,.78.78,0,0,1,.25.56.77.77,0,0,1-.25.56A.89.89,0,0,1,312.34,225Z"/><path class="cls-17" d="M320.07,219.92a17.77,17.77,0,0,1-.8,2.68,14,14,0,0,1-1,2l-1.17-.63a11,11,0,0,0,1.13-2.17,12,12,0,0,0,.58-2.24Zm2.36-2.63h3.75v1.12h-3.75v7h-1.32v-7H317.4v-1.12h3.71v-2h1.32Zm1,2.73,1.19-.44a19,19,0,0,0,1.75,4.29l-1.24.66A25.31,25.31,0,0,1,323.41,220Zm2-5.73a1.37,1.37,0,0,1,.92,2.39,1.35,1.35,0,0,1-.92.35,1.28,1.28,0,0,1-1-.45,1.32,1.32,0,0,1-.36-.92,1.29,1.29,0,0,1,.45-1A1.32,1.32,0,0,1,325.43,214.29Zm0,.59a.73.73,0,0,0-.58.25.78.78,0,0,0-.2.53.76.76,0,0,0,.25.59.82.82,0,0,0,.53.19.76.76,0,0,0,.58-.25.78.78,0,0,0,.2-.53.76.76,0,0,0-.25-.58A.78.78,0,0,0,325.43,214.88Z"/><path class="cls-17" d="M327.5,219.6h6.79v1.3H327.5Z"/><path class="cls-17" d="M338,218.76a19.17,19.17,0,0,1,4.6,1.86l-.68,1.27A14.67,14.67,0,0,0,338,220v5.32h-1.34V215.24H338Z"/><path class="cls-17" d="M346.6,222.5a2.76,2.76,0,0,1,.09-.71,2.29,2.29,0,0,1,.27-.62,2.26,2.26,0,0,1,.46-.52,2.5,2.5,0,0,1,.64-.37,2.4,2.4,0,0,1-.86-.78,1.81,1.81,0,0,1-.32-1.06,1.86,1.86,0,0,1,.19-.85,2,2,0,0,1,.52-.68,2.6,2.6,0,0,1,.8-.45,2.86,2.86,0,0,1,1-.16,3,3,0,0,1,1,.16,2.54,2.54,0,0,1,.79.45,2.06,2.06,0,0,1,.53.68,2,2,0,0,1,.19.85,1.82,1.82,0,0,1-.33,1.06,2.46,2.46,0,0,1-.85.78,2.68,2.68,0,0,1,.64.37,2.26,2.26,0,0,1,.47.51,2.57,2.57,0,0,1,.28.63,2.71,2.71,0,0,1,.09.71,2.51,2.51,0,0,1-.2,1,2.28,2.28,0,0,1-.58.79,2.7,2.7,0,0,1-.88.5,3.25,3.25,0,0,1-1.14.19,3.15,3.15,0,0,1-1.13-.19,2.8,2.8,0,0,1-.88-.5,2.28,2.28,0,0,1-.58-.79A2.36,2.36,0,0,1,346.6,222.5Zm1.32-.12a1.83,1.83,0,0,0,.11.64,1.27,1.27,0,0,0,.3.49,1.33,1.33,0,0,0,.46.31,1.74,1.74,0,0,0,.61.1,1.59,1.59,0,0,0,.59-.11,1.25,1.25,0,0,0,.47-.31,1.47,1.47,0,0,0,.31-.48,1.87,1.87,0,0,0,.11-.64,1.78,1.78,0,0,0-.11-.61,1.44,1.44,0,0,0-.3-.49,1.57,1.57,0,0,0-.46-.34,1.51,1.51,0,0,0-.61-.12,1.45,1.45,0,0,0-.59.12,1.27,1.27,0,0,0-.47.32,1.44,1.44,0,0,0-.3.49A1.61,1.61,0,0,0,347.92,222.38Zm.29-3.8a1.3,1.3,0,0,0,.09.49,1.33,1.33,0,0,0,.26.39,1.11,1.11,0,0,0,.37.27,1.14,1.14,0,0,0,.46.09,1,1,0,0,0,.46-.1,1.08,1.08,0,0,0,.37-.26,1.16,1.16,0,0,0,.26-.39,1.38,1.38,0,0,0,0-1,1.14,1.14,0,0,0-.25-.39,1.08,1.08,0,0,0-.37-.26,1.23,1.23,0,0,0-.47-.09,1.21,1.21,0,0,0-.48.09,1.14,1.14,0,0,0-.37.27,1,1,0,0,0-.24.4A1.27,1.27,0,0,0,348.21,218.58Z"/><path class="cls-17" d="M355.79,225a2.35,2.35,0,0,1-2.05-1.07,5.49,5.49,0,0,1-.73-3.1,6.09,6.09,0,0,1,.76-3.37A2.52,2.52,0,0,1,356,216.3q2.77,0,2.77,4.3a5.69,5.69,0,0,1-.78,3.26A2.51,2.51,0,0,1,355.79,225Zm.13-7.6c-1,0-1.53,1.12-1.53,3.37q0,3.15,1.5,3.15c1,0,1.48-1.07,1.48-3.2S356.89,217.38,355.92,217.38Z"/></g></svg>