<svg xmlns="http://www.w3.org/2000/svg" width="224.94" height="200.3" viewBox="0 0 224.94 200.3"><title>OJ104440668</title><path d="M211.09,79h-20.5a1.09,1.09,0,0,0-1.09,1.1V96.88a1.09,1.09,0,0,0,1.09,1.1h5.28a3.29,3.29,0,0,0,3.21,2.27,3.38,3.38,0,0,0,0-6.75,3.29,3.29,0,0,0-3.21,2.27h-4.19v-12H210v12h-3.45a7.61,7.61,0,0,0-7.46-6.56,8.25,8.25,0,0,0-3.64.92l1,2a5.27,5.27,0,0,1,2.55-.67,5.46,5.46,0,0,1,0,10.91,5.27,5.27,0,0,1-2.55-.67l-1,2a7.51,7.51,0,0,0,3.64.92A7.61,7.61,0,0,0,206.54,98h4.55a1.09,1.09,0,0,0,1.09-1.1V80.13A1.14,1.14,0,0,0,211.09,79Z" fill="#008bfd" fill-rule="evenodd"/><path d="M73.65,106H59.44V77.6H73.65v7.67h.76V76.83H58.68v29.91H74.41v-2.32h-.76Z" fill="#0078d7" fill-rule="evenodd"/><path d="M72.88,78.39H60.24V83H72.88ZM63.3,80.31h6.53v.76H63.3Zm6.59,1.84H63.27v-.76h6.62Z" fill="#0078d7" fill-rule="evenodd"/><path d="M60.21,83.74V86.8h8.6V85.27h4.08V83.74Z" fill="#0078d7" fill-rule="evenodd"/><rect x="60.21" y="87.57" width="8.6" height="2.68" fill="#0078d7"/><path d="M60.21,105.21H72.86v-.8H68.78V91h-8.6v14.17Zm1.53-2.74H64v1.21H61.74Z" fill="#0078d7" fill-rule="evenodd"/><path d="M83.43,102.15H81v-1.87H78.46v1.87H76a1.32,1.32,0,0,0-1.31,1.15h10A1.29,1.29,0,0,0,83.43,102.15Z" fill="#0078d7" fill-rule="evenodd"/><path d="M88.27,88.17H71.17a.65.65,0,0,0-.67.61V98.91a.65.65,0,0,0,.67.6h17.1a.64.64,0,0,0,.67-.6V88.78A.63.63,0,0,0,88.27,88.17Zm-1,9.84H72.19V89.7H87.25Z" fill="#0078d7" fill-rule="evenodd"/><path d="M83.63,95.52V92.08l-3.51-1.84L76.62,92v3.54l3.5,1.81Zm-4.4-2.29.89-.45.86.45-.86.48Zm0-1.15.86-.44.86.44-.86.48Zm1.91,4.53-1,.51v-.93l1-.51Zm0-1.18-1,.51V95l1-.51Zm0-1.12-1,.51V93.9l1-.51Zm-.82-1.65.86-.45.89.45-.86.44Zm2,3.34-.95.51v-.92l.95-.51Zm0-1.18-.95.51v-.92l.95-.51Zm0-1.14-.95.51v-.9l.95-.51Zm1.05,1.75-.86.44V95l.86-.45Zm0-1.15-.86.45V93.8l.86-.44Zm0-1.14-.86.44v-.92l.86-.45Zm-.19-1.06-.89.45-.89-.45.86-.44Zm-1.11-.57-.89.45-.86-.45.86-.44Zm-2-1.05.86.45-.86.44-.89-.44ZM79,91.07l.86.44L79,92l-.86-.45Zm-1.08.57.89.44-.89.45-.9-.45Zm-.26,4.27-.86-.45v-.92l.86.44Zm0-1.18-.86-.45v-.92l.86.44Zm0-1.15-.86-.44v-.9l.86.45Zm1.18,2.93-1-.51v-.92l1,.51Zm0-1.18-1-.51V93.9l1,.51Zm0-1.14-1-.51v-.9l1,.51Zm-.7-1.53.89-.45.86.45-.89.48ZM80,97.12l-1-.51v-.89l1,.5ZM80,96l-1-.51v-.92l1,.51Zm0-1.15-1-.51v-.92l1,.51Z" fill="#0078d7" fill-rule="evenodd"/><path d="M84.06,154.79H63.56a1.09,1.09,0,0,0-1.09,1.1v16.75a1.09,1.09,0,0,0,1.09,1.1h5.28A3.29,3.29,0,0,0,72.05,176a3.38,3.38,0,0,0,0-6.75,3.29,3.29,0,0,0-3.21,2.27H64.65v-12H83v12H79.51A7.61,7.61,0,0,0,72.05,165a8.25,8.25,0,0,0-3.64.92l1,2a5.27,5.27,0,0,1,2.55-.67,5.46,5.46,0,0,1,0,10.91,5.27,5.27,0,0,1-2.55-.67l-1,2a7.51,7.51,0,0,0,3.64.92,7.61,7.61,0,0,0,7.46-6.56h4.55a1.09,1.09,0,0,0,1.09-1.1V155.89A1.14,1.14,0,0,0,84.06,154.79Z" fill="#008bfd" fill-rule="evenodd"/><path d="M181.12,88c0,.08,0,.15.08.22a9.46,9.46,0,0,1,.7,2.77h-1.26c-.36,0-.81,0-1.31,0q-23.16,0-46.31,0c-16.48,0-27.75-11.24-27.75-27.68,0-13.52,0-27,0-40.55,0-4.62-3.18-8.5-7.48-8.85a50.47,50.47,0,0,0-10.28.1.7.7,0,0,0,0,1c2.54.56,5.1.21,7.64.24,5.83.08,8.66,2.88,8.66,8.73,0,13.6-.13,27.19,0,40.78.14,11.42,5.6,19.71,15.68,25,.62.33,1.36.49,1.83,1.21-9.81,0-19.57,0-29.32,0-.91,0-2-.38-2.64.65l0,.17c.69,1,1.73.66,2.65.67q14.13,0,28.27,0h2.52c-.74.48-.91.62-1.11.72-11.32,5.41-16.81,14.45-16.79,26.94,0,12.3,0,24.6,0,36.9,0,5.82-3.78,9.57-9.58,9.68-3.28.06-6.55.07-9.82.1-.83.15-.8.71-.63,1.33a.41.41,0,0,0,.56.19c3,0,5.92-.05,8.88-.06,7.94,0,12.24-4.33,12.25-12.35V119.42c0-15.62,11.3-27,26.88-27h48.54a9.57,9.57,0,0,1-.68,3.19v0l8.08-4C186.4,90.43,184.24,88.85,181.12,88Z" fill="#505050"/><path d="M66.68,17.18a16.47,16.47,0,0,1-2-2.35,18.32,18.32,0,0,0-1.66,6.89c.11.16.11.28.23.44a13.4,13.4,0,0,0,2,2.05A14.18,14.18,0,0,1,66.68,17.18Z" fill="#008bfd" fill-rule="evenodd"/><path d="M71.29,7.75a21,21,0,0,0-3.33,3,16.41,16.41,0,0,0-1.61,2,15,15,0,0,0,1.9,2.47,16.84,16.84,0,0,1,2.2-2.57,27.32,27.32,0,0,1,3.13-2.6C72.78,9.31,72,8.54,71.29,7.75Z" fill="#008bfd" fill-rule="evenodd"/><path d="M82.76,7A12.55,12.55,0,0,0,81,5.12a12.55,12.55,0,0,0-8,1.54c.76.84,1.51,1.62,2.24,2.36C79.63,6.59,82.76,7,82.76,7Z" fill="#008bfd" fill-rule="evenodd"/><path d="M65.16,14.64a18.83,18.83,0,0,1,1.19-2.06,9.86,9.86,0,0,1-1.6-6.8,13.19,13.19,0,0,0-1.29,1.61C63.08,9,63.06,11.55,65.16,14.64Z" fill="#008bfd" fill-rule="evenodd"/><path d="M70.52,17.36a21.57,21.57,0,0,1-2.27-2.13,13.68,13.68,0,0,0-1.14,1.95,23.54,23.54,0,0,0,2.09,1.91,19.18,19.18,0,0,0,12.56,4.38,9,9,0,0,0,1.54-1.94C82.07,21.79,76.81,22.47,70.52,17.36Z" fill="#008bfd" fill-rule="evenodd"/><path d="M65.16,14.83a16.24,16.24,0,0,0,2,2.35,14.7,14.7,0,0,1,1.14-1.95,15,15,0,0,1-1.9-2.47A16.34,16.34,0,0,0,65.16,14.83Z" fill="#008bfd" fill-rule="evenodd"/><path d="M73.58,10.07a98.21,98.21,0,0,0,11.15,8.82,9.82,9.82,0,0,0,.33-1.05A96.8,96.8,0,0,1,75.23,9,16,16,0,0,0,73.58,10.07Z" fill="#008bfd" fill-rule="evenodd"/><path d="M73,6.65q-1.65-1.77-3.36-3.79A10.05,10.05,0,0,0,68,3.52a26.74,26.74,0,0,0,3.24,4.22A15.69,15.69,0,0,1,73,6.65Z" fill="#008bfd" fill-rule="evenodd"/><path d="M73.06,6.62a18.74,18.74,0,0,0-1.87,1.19c.72.78,1.45,1.59,2.25,2.35.57-.4,1.34-.89,1.87-1.19C74.57,8.24,73.82,7.46,73.06,6.62Z" fill="#008bfd" fill-rule="evenodd"/><path d="M72.86,6.51a14.89,14.89,0,0,0-1.67,1.13c.72.79,1.74,1.81,2.54,2.57.57-.4,1-.81,1.58-1.11C74.57,8.37,73.61,7.35,72.86,6.51Z" fill="#008bfd" fill-rule="evenodd"/><path d="M78.92,13.07a2.7,2.7,0,0,0-.48,3.7,2.55,2.55,0,0,0,3.63.5,2.71,2.71,0,0,0,.48-3.71A2.54,2.54,0,0,0,78.92,13.07Z" fill="#008bfd" fill-rule="evenodd"/><path d="M64,19.68a2.52,2.52,0,0,0-.45,3.44,2.37,2.37,0,0,0,3.36.45,2.49,2.49,0,0,0,.44-3.43A2.35,2.35,0,0,0,64,19.68Z" fill="#008bfd" fill-rule="evenodd"/><path d="M64.61,11.87a3.79,3.79,0,0,0-.68,5.21,3.58,3.58,0,0,0,5.1.7,3.8,3.8,0,0,0,.67-5.23A3.58,3.58,0,0,0,64.61,11.87Z" fill="#008bfd" fill-rule="evenodd"/><path d="M80.65,24.41a11.81,11.81,0,0,1-16.84-2.29A12.55,12.55,0,0,1,66.05,4.83a11.72,11.72,0,0,1,7.29-2.54,11.89,11.89,0,0,1,9.55,4.84A12.54,12.54,0,0,1,80.65,24.41ZM84.31,6A13.57,13.57,0,0,0,65,3.36,14.45,14.45,0,0,0,62.4,23.24a13.65,13.65,0,0,0,11,5.55,13.45,13.45,0,0,0,8.39-2.92A14.44,14.44,0,0,0,84.31,6Z" fill="#008bfd" fill-rule="evenodd"/><path d="M16.48,21.09H9.76a.59.59,0,0,1-.61-.57V14.08h1.94V12.31H23.51a.59.59,0,0,1,.62.57V13a6.4,6.4,0,0,1,1,.33v-.42a1.53,1.53,0,0,0-1.58-1.46h-13l-2.34,2.2v6.9A1.51,1.51,0,0,0,9.76,22H17A5.8,5.8,0,0,1,16.48,21.09Z" fill="gray" fill-rule="evenodd"/><path d="M24.14,23.19l2.34,3.26-2.17-.54-.61,1.64-2.34-2.88-1.75,2.88-.8-1.74-2.17.54,2.14-3.42s.58.92,2.69.92S24.14,23.19,24.14,23.19Z" fill="gray" fill-rule="evenodd"/><path d="M22.33,22.59a3.58,3.58,0,0,1-3.71-3.41,3.58,3.58,0,0,1,3.71-3.42,3.58,3.58,0,0,1,3.72,3.42A3.58,3.58,0,0,1,22.33,22.59Zm0-6.06a2.78,2.78,0,0,0-2.89,2.65,2.78,2.78,0,0,0,2.89,2.65,2.79,2.79,0,0,0,2.9-2.65A2.79,2.79,0,0,0,22.33,16.53Z" fill="gray" fill-rule="evenodd"/><path d="M22.34,24.4a5.48,5.48,0,0,1-5.7-5.22A5.48,5.48,0,0,1,22.34,14,5.48,5.48,0,0,1,28,19.18,5.47,5.47,0,0,1,22.34,24.4Zm0-9.69a4.7,4.7,0,0,0-4.88,4.47,4.69,4.69,0,0,0,4.88,4.46,4.68,4.68,0,0,0,4.87-4.46A4.69,4.69,0,0,0,22.34,14.71Z" fill="gray" fill-rule="evenodd"/><path d="M16.6,97.68H9.88a.59.59,0,0,1-.61-.57V90.67h1.94V88.9H23.63a.59.59,0,0,1,.62.57v.09a6.4,6.4,0,0,1,1,.33v-.42A1.53,1.53,0,0,0,23.63,88h-13l-2.34,2.2v6.9a1.51,1.51,0,0,0,1.57,1.46h7.28A5.8,5.8,0,0,1,16.6,97.68Z" fill="gray" fill-rule="evenodd"/><path d="M24.27,99.78,26.61,103l-2.17-.54-.61,1.64-2.34-2.88-1.75,2.88-.8-1.74-2.17.54,2.14-3.42s.58.92,2.69.92S24.27,99.78,24.27,99.78Z" fill="gray" fill-rule="evenodd"/><path d="M22.46,99.18a3.43,3.43,0,1,1,0-6.83,3.43,3.43,0,1,1,0,6.83Zm0-6.06a2.66,2.66,0,1,0,0,5.3,2.66,2.66,0,1,0,0-5.3Z" fill="gray" fill-rule="evenodd"/><path d="M22.47,101a5.24,5.24,0,1,1,0-10.45,5.24,5.24,0,1,1,0,10.45Zm0-9.69a4.48,4.48,0,1,0,0,8.93,4.48,4.48,0,1,0,0-8.93Z" fill="gray" fill-rule="evenodd"/><path d="M16.45,168.84H9.73a.59.59,0,0,1-.61-.57v-6.44h1.94v-1.77H23.48a.59.59,0,0,1,.62.57v.09a6.4,6.4,0,0,1,1,.33v-.42a1.53,1.53,0,0,0-1.58-1.46h-13l-2.34,2.2v6.9a1.51,1.51,0,0,0,1.57,1.46H17A5.8,5.8,0,0,1,16.45,168.84Z" fill="gray" fill-rule="evenodd"/><path d="M24.12,170.94l2.34,3.26-2.17-.54-.61,1.64-2.34-2.88-1.75,2.88-.8-1.74-2.17.54,2.14-3.42s.58.92,2.69.92S24.12,170.94,24.12,170.94Z" fill="gray" fill-rule="evenodd"/><path d="M22.31,170.34a3.43,3.43,0,1,1,0-6.83,3.43,3.43,0,1,1,0,6.83Zm0-6.06a2.66,2.66,0,1,0,0,5.3,2.66,2.66,0,1,0,0-5.3Z" fill="gray" fill-rule="evenodd"/><path d="M22.32,172.16a5.24,5.24,0,1,1,0-10.45,5.24,5.24,0,1,1,0,10.45Zm0-9.69a4.48,4.48,0,1,0,0,8.93,4.48,4.48,0,1,0,0-8.93Z" fill="gray" fill-rule="evenodd"/><path d="M1.71,31.6l.34-.6A21.86,21.86,0,0,1,4.4,32L4,32.69A13.37,13.37,0,0,0,1.71,31.6Zm6.13-1.48.7.39a10.64,10.64,0,0,1-.82,2.25,7.39,7.39,0,0,1-1,1.6,7.29,7.29,0,0,1-4,2.14l-.41-.63a6.46,6.46,0,0,0,3.79-2A8.2,8.2,0,0,0,7.84,30.12ZM2.6,29.46,3,28.87A13.68,13.68,0,0,1,5.25,30l-.4.66A12.1,12.1,0,0,0,2.6,29.46Z"/><path d="M8.68,32.31h5.44v.74H8.68Z"/><path d="M16.13,30.08A9.42,9.42,0,0,1,14.29,33l-.57-.44a8.84,8.84,0,0,0,2.16-4.16l.79.12c-.07.25-.17.57-.29.94h3.47a10.78,10.78,0,0,1-1.91,5.25,7.62,7.62,0,0,1-3.16,2.22l-.44-.54A6.9,6.9,0,0,0,17.54,34,9.14,9.14,0,0,0,19,30.08Z"/><path d="M21.4,35.9a6,6,0,0,0,2.54-1.58A7.17,7.17,0,0,0,25.49,32l.57.55a7.75,7.75,0,0,1-2.12,2.82,9.17,9.17,0,0,1-2.86,1.54l-.46-.33V28.77h.78Z"/><path d="M25,31l.64-.28a13.07,13.07,0,0,1,.83,2.18l-.66.26A12.25,12.25,0,0,0,25,31Zm1.11,5.42a5.09,5.09,0,0,0,2.68-2.2,8.47,8.47,0,0,0,.87-3.69l.73.15a9.45,9.45,0,0,1-1,3.91A4.7,4.7,0,0,1,28.17,36a7.73,7.73,0,0,1-1.66,1Zm.78-5.85.63-.26a13.5,13.5,0,0,1,.74,2.14l-.66.28A9.76,9.76,0,0,0,26.86,30.56Z"/><path d="M31.27,32.06v4.75H30.5V28.42h.77v2.9a15,15,0,0,1,3.81,1.59l-.38.72A12.6,12.6,0,0,0,31.27,32.06Z"/><path d="M1.71,108.77l.34-.6a21.86,21.86,0,0,1,2.35,1l-.38.67A14.16,14.16,0,0,0,1.71,108.77Zm6.13-1.48.7.39a10.64,10.64,0,0,1-.82,2.25,7.15,7.15,0,0,1-1,1.6,7.23,7.23,0,0,1-4,2.14L2.29,113a6.46,6.46,0,0,0,3.79-2A8.1,8.1,0,0,0,7.84,107.29Zm-5.24-.66L3,106a13.68,13.68,0,0,1,2.28,1.09l-.4.66A12.1,12.1,0,0,0,2.6,106.63Z"/><path d="M8.68,109.48h5.44v.74H8.68Z"/><path d="M16.13,107.25a9.42,9.42,0,0,1-1.84,2.88l-.57-.44a8.8,8.8,0,0,0,2.16-4.16l.79.12c-.07.26-.17.57-.29.94h3.47a10.7,10.7,0,0,1-1.91,5.25,7.53,7.53,0,0,1-3.16,2.22l-.44-.54a6.9,6.9,0,0,0,3.2-2.37,9,9,0,0,0,1.41-3.9Z"/><path d="M21.4,113.07a5.94,5.94,0,0,0,2.54-1.58,7.07,7.07,0,0,0,1.55-2.36l.57.55a7.79,7.79,0,0,1-2.12,2.83A9.36,9.36,0,0,1,21.08,114l-.46-.33v-7.77h.78Z"/><path d="M25,108.16l.64-.28a13.43,13.43,0,0,1,.83,2.18l-.66.26A12.25,12.25,0,0,0,25,108.16Zm1.11,5.42a5,5,0,0,0,2.68-2.2,8.43,8.43,0,0,0,.87-3.69l.73.16a9.44,9.44,0,0,1-1,3.9,4.87,4.87,0,0,1-1.19,1.4,7.73,7.73,0,0,1-1.66.94Zm.78-5.85.63-.26a13.5,13.5,0,0,1,.74,2.14l-.66.28A9.76,9.76,0,0,0,26.86,107.73Z"/><path d="M31.27,109.23V114H30.5v-8.39h.77v2.9a15.71,15.71,0,0,1,3.81,1.59l-.38.72A12.6,12.6,0,0,0,31.27,109.23Z"/><path d="M1.71,179.57l.34-.61a19.46,19.46,0,0,1,2.35,1l-.38.66A14.25,14.25,0,0,0,1.71,179.57Zm6.13-1.48.7.39a11.06,11.06,0,0,1-.82,2.25,7.3,7.3,0,0,1-1,1.59,7.17,7.17,0,0,1-4,2.14l-.41-.63a6.45,6.45,0,0,0,3.79-2A8.2,8.2,0,0,0,7.84,178.09Zm-5.24-.66.37-.59a14.64,14.64,0,0,1,2.28,1.08l-.4.66A12.15,12.15,0,0,0,2.6,177.43Z"/><path d="M8.68,180.27h5.44V181H8.68Z"/><path d="M16.13,178.05a9.25,9.25,0,0,1-1.84,2.87l-.57-.44a8.8,8.8,0,0,0,2.16-4.16l.79.13c-.07.25-.17.57-.29.93h3.47a10.78,10.78,0,0,1-1.91,5.26,7.51,7.51,0,0,1-3.16,2.21l-.44-.53a7,7,0,0,0,3.2-2.37,9.14,9.14,0,0,0,1.41-3.9Z"/><path d="M21.4,183.87a6.14,6.14,0,0,0,2.54-1.58,7.28,7.28,0,0,0,1.55-2.36l.57.54a7.7,7.7,0,0,1-2.12,2.83,9,9,0,0,1-2.86,1.53l-.46-.32v-7.78h.78Z"/><path d="M25,179l.64-.28a13.27,13.27,0,0,1,.83,2.17l-.66.26A12.45,12.45,0,0,0,25,179Zm1.11,5.42a5.06,5.06,0,0,0,2.68-2.21,8.38,8.38,0,0,0,.87-3.68l.73.15a9.36,9.36,0,0,1-1,3.9,4.74,4.74,0,0,1-1.19,1.4,7.33,7.33,0,0,1-1.66.94Zm.78-5.85.63-.26a13.15,13.15,0,0,1,.74,2.14l-.66.27A9.84,9.84,0,0,0,26.86,178.53Z"/><path d="M31.27,180v4.76H30.5v-8.39h.77v2.9a15.34,15.34,0,0,1,3.81,1.58l-.38.73A12.6,12.6,0,0,0,31.27,180Z"/><path d="M44.29,188.64H41.22V188h6.35v.65H45.06a15.21,15.21,0,0,1-.1,1.83,3.84,3.84,0,0,1-.24,1,4.46,4.46,0,0,1-2.39,2.3l-.5-.56a3.74,3.74,0,0,0,2.18-2A8.41,8.41,0,0,0,44.29,188.64Zm-2.48-2.83h4.28v.66H41.81Zm4.35-.75.51-.19a9.93,9.93,0,0,1,.74,1.69l-.54.22A9.35,9.35,0,0,0,46.16,185.06Zm1.12-.33.5-.18a8.35,8.35,0,0,1,.71,1.64l-.52.21A9.26,9.26,0,0,0,47.28,184.73Z"/><path d="M48.4,189.2h5.44v.74H48.4Z"/><path d="M57.65,188.73H61v.64h-3.3v2.69q0,.49.24.63a2.06,2.06,0,0,0,.91.16,17.43,17.43,0,0,0,1.93-.1v.76c-.71.05-1.32.07-1.83.07a3.48,3.48,0,0,1-1.52-.23,1.3,1.3,0,0,1-.5-1.21v-2.77h-2.2v-.64h2.2v-2.2H55v-.65h5.62v.65h-3Z"/><path d="M62.21,186.18a16.48,16.48,0,0,1,2.34,1.49l-.49.66a14.29,14.29,0,0,0-2.3-1.56Zm5,.5L68,187a8.17,8.17,0,0,1-1.86,4.14,8,8,0,0,1-4,2.31l-.34-.68A6.8,6.8,0,0,0,67.24,186.68Z"/><path d="M80,186.29l-2,7h-1l-1.44-5.12a3.19,3.19,0,0,1-.12-.71h0a4.11,4.11,0,0,1-.13.7L73.9,193.3H73l-2-7h.9l1.49,5.38a3.2,3.2,0,0,1,.11.7h0a5,5,0,0,1,.15-.7l1.55-5.38h.78l1.49,5.42a4.48,4.48,0,0,1,.12.65h0a3.09,3.09,0,0,1,.13-.67l1.43-5.4Z"/><path d="M84.49,191H81a1.87,1.87,0,0,0,.45,1.29,1.56,1.56,0,0,0,1.18.45,2.46,2.46,0,0,0,1.55-.56v.76a2.94,2.94,0,0,1-1.74.47,2.07,2.07,0,0,1-1.66-.68,3.19,3.19,0,0,1,.05-3.82,2.12,2.12,0,0,1,1.65-.73,1.86,1.86,0,0,1,1.51.63,2.67,2.67,0,0,1,.54,1.77Zm-.82-.68a1.62,1.62,0,0,0-.33-1.08,1.14,1.14,0,0,0-.92-.39,1.28,1.28,0,0,0-1,.41,1.84,1.84,0,0,0-.49,1.06Z"/><path d="M86.36,192.57h0v.73h-.8v-7.41h.8v3.29h0a1.88,1.88,0,0,1,1.73-1,1.81,1.81,0,0,1,1.5.67,2.74,2.74,0,0,1,.55,1.8,3.07,3.07,0,0,1-.61,2,2,2,0,0,1-1.67.75A1.65,1.65,0,0,1,86.36,192.57Zm0-2v.7a1.48,1.48,0,0,0,.4,1.05,1.34,1.34,0,0,0,1,.43,1.36,1.36,0,0,0,1.14-.56,2.56,2.56,0,0,0,.41-1.54,2,2,0,0,0-.39-1.31,1.25,1.25,0,0,0-1-.48,1.45,1.45,0,0,0-1.13.49A1.79,1.79,0,0,0,86.34,190.56Z"/><path d="M99.18,193.3h-.9l-.75-2h-3l-.7,2H93l2.69-7h.85Zm-1.91-2.7-1.1-3a2.53,2.53,0,0,1-.11-.47h0a2.53,2.53,0,0,1-.11.47l-1.09,3Z"/><path d="M100.81,190.65v2.65H100v-7h1.93a2.56,2.56,0,0,1,1.74.55,2,2,0,0,1,.62,1.54,2.14,2.14,0,0,1-.69,1.64,2.64,2.64,0,0,1-1.85.63Zm0-3.61v2.87h.86a1.92,1.92,0,0,0,1.3-.39,1.37,1.37,0,0,0,.45-1.1c0-.92-.55-1.38-1.64-1.38Z"/><path d="M106.06,193.3h-.82v-7h.82Z"/><path d="M190.17,113.16H187.1v-.65h6.35v.65h-2.51a15.27,15.27,0,0,1-.1,1.84,3.76,3.76,0,0,1-.24,1,4.42,4.42,0,0,1-2.39,2.3l-.5-.56a3.71,3.71,0,0,0,2.18-2A8.36,8.36,0,0,0,190.17,113.16Zm-2.48-2.83H192V111h-4.28Zm4.35-.74.51-.2a10.3,10.3,0,0,1,.74,1.69l-.54.22A9,9,0,0,0,192,109.59Zm1.12-.34.5-.18a8.35,8.35,0,0,1,.71,1.64l-.52.21A9.26,9.26,0,0,0,193.16,109.25Z"/><path d="M194.53,113.72H200v.74h-5.44Z"/><path d="M204,113.25h3.3v.64H204v2.69c0,.34.08.55.23.63a2,2,0,0,0,.92.16c.66,0,1.3,0,1.93-.09V118c-.71,0-1.32.08-1.83.08a3.3,3.3,0,0,1-1.52-.24,1.27,1.27,0,0,1-.5-1.2v-2.78h-2.2v-.64h2.2v-2.2h-1.88v-.65H207v.65h-3Z"/><path d="M208.83,110.7a17,17,0,0,1,2.35,1.49l-.49.66a15,15,0,0,0-2.3-1.56Zm5,.5.76.36a8.25,8.25,0,0,1-1.86,4.15,8,8,0,0,1-4,2.3l-.35-.68A6.79,6.79,0,0,0,213.87,111.2Z"/><path d="M187.39,129.82h-.91l-.74-2h-3l-.7,2h-.91l2.68-7h.85Zm-1.92-2.7-1.1-3c0-.1-.07-.26-.11-.47h0a3.91,3.91,0,0,1-.12.47l-1.09,3Z"/><path d="M189.27,127.17v2.65h-.82v-7h1.92a2.51,2.51,0,0,1,1.74.55,1.94,1.94,0,0,1,.62,1.54,2.12,2.12,0,0,1-.69,1.63,2.61,2.61,0,0,1-1.85.63Zm0-3.61v2.87h.86a1.89,1.89,0,0,0,1.29-.39,1.36,1.36,0,0,0,.45-1.09c0-.93-.55-1.39-1.64-1.39Z"/><path d="M194.76,129.82h-.82v-7h.82Z"/><path d="M199.12,122.38h6.51a7,7,0,0,1-.61,2.21,4.89,4.89,0,0,1-1.21,1.51l-.59-.49a4.4,4.4,0,0,0,1.06-1.26,3.25,3.25,0,0,0,.42-1.3h-5.58Zm.3,7.22a3.94,3.94,0,0,0,1.8-1.5,5.43,5.43,0,0,0,.54-2.65v-1.58h.77v1.6a5.6,5.6,0,0,1-.8,3.21,4.94,4.94,0,0,1-1.83,1.49Z"/><path d="M212.24,123.22a9.48,9.48,0,0,1-1,4.23,6.35,6.35,0,0,1-3.65,2.79l-.42-.6a6.06,6.06,0,0,0,3.25-2.32,7.58,7.58,0,0,0,1-4.1h-4.67v-.67h4.79a.94.94,0,0,1-.07-.39,1.06,1.06,0,0,1,.37-.83,1.08,1.08,0,0,1,.75-.29,1.06,1.06,0,0,1,.83.37,1.12,1.12,0,0,1-.08,1.58,1,1,0,0,1-.75.29A1,1,0,0,1,212.24,123.22Zm.35-1.75a.65.65,0,0,0-.52.23.7.7,0,0,0,.06,1,.72.72,0,0,0,1-.05.71.71,0,0,0,.17-.47.65.65,0,0,0-.23-.51A.63.63,0,0,0,212.59,121.47Z"/><path d="M215.71,122.13V127h-.77v-4.9Zm-.28,7.5a4.07,4.07,0,0,0,2.48-1.29,4.38,4.38,0,0,0,.64-2.62v-3.65h.77v3.75a4.51,4.51,0,0,1-1,3.18,4.83,4.83,0,0,1-2.57,1.23Z"/><path d="M50.77,112.6H47.7V112H54v.65H51.53a18.29,18.29,0,0,1-.09,1.83,3.76,3.76,0,0,1-.24.95,4.46,4.46,0,0,1-2.39,2.3l-.5-.56a3.7,3.7,0,0,0,2.17-2A8.31,8.31,0,0,0,50.77,112.6Zm-2.48-2.84h4.27v.66H48.29Zm4.35-.74.51-.19a10.39,10.39,0,0,1,.74,1.69l-.54.22A9.35,9.35,0,0,0,52.64,109Zm1.12-.34.49-.18a8,8,0,0,1,.72,1.64l-.53.21A10.47,10.47,0,0,0,53.76,108.68Z"/><path d="M55.13,113.15h5.44v.74H55.13Z"/><path d="M64.62,112.68h3.3v.64h-3.3V116q0,.51.24.63a2,2,0,0,0,.91.16c.67,0,1.31,0,1.93-.09v.75c-.7.06-1.31.08-1.83.08a3.33,3.33,0,0,1-1.52-.24,1.29,1.29,0,0,1-.49-1.2v-2.78H61.65v-.64h2.21v-2.19H62v-.66H67.6v.66h-3Z"/><path d="M69.43,110.13a17.6,17.6,0,0,1,2.35,1.49l-.5.66a14.51,14.51,0,0,0-2.3-1.55Zm5,.5.75.36a8.08,8.08,0,0,1-1.86,4.15,8,8,0,0,1-4,2.3l-.34-.67A6.82,6.82,0,0,0,74.47,110.63Z"/><path d="M82.14,112.6H79.07V112h6.34v.65H82.9a18.29,18.29,0,0,1-.09,1.83,3.76,3.76,0,0,1-.24.95,4.44,4.44,0,0,1-2.4,2.3l-.49-.56a3.7,3.7,0,0,0,2.17-2A8.31,8.31,0,0,0,82.14,112.6Zm-2.48-2.84h4.27v.66H79.66ZM84,109l.5-.19a9.53,9.53,0,0,1,.75,1.69l-.55.22A9.35,9.35,0,0,0,84,109Zm1.12-.34.49-.18a8.59,8.59,0,0,1,.72,1.64l-.53.21A10.47,10.47,0,0,0,85.13,108.68Z"/><path d="M90.83,114.39a8.91,8.91,0,0,1-3.57,3.16l-.44-.57a8.79,8.79,0,0,0,3.27-2.81,10.09,10.09,0,0,0,1.46-3.61h-4.2v-.66h5.19a13.19,13.19,0,0,1-1.32,3.82,22.52,22.52,0,0,1,2.33,3.36l-.74.47A17.27,17.27,0,0,0,90.83,114.39Z"/><path d="M96.73,110.93a9.49,9.49,0,0,1-1.84,2.87l-.57-.44a8.71,8.71,0,0,0,2.16-4.16l.79.12c-.07.26-.17.57-.29.94h3.47a10.68,10.68,0,0,1-1.91,5.26,7.51,7.51,0,0,1-3.16,2.21l-.44-.53a7,7,0,0,0,3.2-2.37,8.88,8.88,0,0,0,1.41-3.9Z"/><path d="M54.17,124.9v4.75H53.4v-8.38h.77v2.9A15.67,15.67,0,0,1,58,125.75l-.38.73A12.74,12.74,0,0,0,54.17,124.9Z"/><path d="M58.75,123.83l.64-.27a13.27,13.27,0,0,1,.83,2.17l-.66.26A12.87,12.87,0,0,0,58.75,123.83Zm1.11,5.42a5.08,5.08,0,0,0,2.68-2.2,8.38,8.38,0,0,0,.87-3.68l.73.15a9.51,9.51,0,0,1-1,3.9,4.63,4.63,0,0,1-1.2,1.4,7.4,7.4,0,0,1-1.65.94Zm.78-5.85.63-.25a12.18,12.18,0,0,1,.73,2.13l-.65.28A10.72,10.72,0,0,0,60.64,123.4Z"/><path d="M69.54,122.65a9.43,9.43,0,0,1-1,4.24,6.34,6.34,0,0,1-3.65,2.78l-.42-.6a6,6,0,0,0,3.25-2.32,7.47,7.47,0,0,0,1-4.1H64.05V122h4.79a1.13,1.13,0,0,1-.07-.39,1.12,1.12,0,0,1,2-.75,1.12,1.12,0,0,1,.29.75,1.12,1.12,0,0,1-1.12,1.13A1,1,0,0,1,69.54,122.65Zm.35-1.75a.69.69,0,0,0-.46,1.21.63.63,0,0,0,.46.18.68.68,0,0,0,.52-.23.71.71,0,0,0,.17-.47.65.65,0,0,0-.23-.51A.63.63,0,0,0,69.89,120.9Z"/><path d="M74.51,121.81H81a7,7,0,0,1-.61,2.21,4.78,4.78,0,0,1-1.21,1.51l-.59-.49a4.23,4.23,0,0,0,1.06-1.25,3.47,3.47,0,0,0,.42-1.3H74.51Zm.3,7.22a3.86,3.86,0,0,0,1.79-1.5,5.28,5.28,0,0,0,.55-2.65V123.3h.77v1.6a5.6,5.6,0,0,1-.8,3.21,5.06,5.06,0,0,1-1.83,1.5Z"/><path d="M87.63,122.65a9.56,9.56,0,0,1-1,4.24A6.34,6.34,0,0,1,83,129.67l-.42-.6a6.05,6.05,0,0,0,3.25-2.32,7.55,7.55,0,0,0,1-4.1H82.14V122h4.79a.94.94,0,0,1-.07-.39,1.06,1.06,0,0,1,.37-.83,1.12,1.12,0,0,1,1.58.08,1.12,1.12,0,0,1-.83,1.88A1,1,0,0,1,87.63,122.65ZM88,120.9a.68.68,0,0,0-.69.69.68.68,0,0,0,.69.7.68.68,0,0,0,.52-.23.71.71,0,0,0,.17-.47.7.7,0,0,0-.69-.69Z"/><path d="M91.1,121.56v4.91h-.77v-4.91Zm-.28,7.5a4,4,0,0,0,2.48-1.29,4.38,4.38,0,0,0,.64-2.62V121.5h.77v3.75a4.48,4.48,0,0,1-1,3.19,4.83,4.83,0,0,1-2.56,1.22Z"/><path d="M62.68,37.4H59.61v-.64H66v.64H63.44a15.74,15.74,0,0,1-.09,1.84,3.76,3.76,0,0,1-.24.95,4.46,4.46,0,0,1-2.39,2.3l-.5-.56a3.74,3.74,0,0,0,2.18-2A8.72,8.72,0,0,0,62.68,37.4ZM60.2,34.57h4.28v.66H60.2Zm4.35-.74.51-.19a10.64,10.64,0,0,1,.74,1.68l-.54.22A9.25,9.25,0,0,0,64.55,33.83Zm1.12-.34.49-.18A8,8,0,0,1,66.88,35l-.53.21A10.47,10.47,0,0,0,65.67,33.49Z"/><path d="M67,38h5.44v.74H67Z"/><path d="M76.53,37.49h3.3v.64h-3.3v2.69q0,.51.24.63a2,2,0,0,0,.92.16q1,0,1.92-.09v.75c-.7.06-1.31.08-1.83.08a3.33,3.33,0,0,1-1.52-.24,1.29,1.29,0,0,1-.49-1.2V38.13H73.56v-.64h2.21V35.3H73.89v-.66h5.62v.66h-3Z"/><path d="M81.34,34.94a17.6,17.6,0,0,1,2.35,1.49l-.5.66a15.2,15.2,0,0,0-2.3-1.56Zm5,.5.75.36A8.08,8.08,0,0,1,85.27,40a8,8,0,0,1-4,2.3l-.34-.68A6.8,6.8,0,0,0,86.38,35.44Z"/><path d="M59.92,47.06l-2,7H57L55.54,49a3.2,3.2,0,0,1-.11-.72h0a4.21,4.21,0,0,1-.12.71l-1.46,5.12h-.95l-2.05-7h.91l1.48,5.37a2.78,2.78,0,0,1,.12.71h0a3.23,3.23,0,0,1,.15-.71l1.55-5.37h.78l1.49,5.41a3.78,3.78,0,0,1,.11.66h0a5.53,5.53,0,0,1,.13-.68L59,47.06Z"/><path d="M64.68,51.76H61.15a1.83,1.83,0,0,0,.45,1.29,1.55,1.55,0,0,0,1.18.46A2.46,2.46,0,0,0,64.33,53v.75a2.89,2.89,0,0,1-1.74.48,2.14,2.14,0,0,1-1.67-.68,2.81,2.81,0,0,1-.6-1.92,2.73,2.73,0,0,1,.66-1.9A2.12,2.12,0,0,1,62.62,49a1.88,1.88,0,0,1,1.52.63,2.63,2.63,0,0,1,.54,1.76Zm-.82-.68A1.63,1.63,0,0,0,63.52,50a1.12,1.12,0,0,0-.91-.39,1.28,1.28,0,0,0-1,.4,1.81,1.81,0,0,0-.49,1.06Z"/><path d="M66.8,53.34h0v.72H66v-7.4h.8v3.28h0a1.89,1.89,0,0,1,1.72-1,1.82,1.82,0,0,1,1.51.67,2.76,2.76,0,0,1,.55,1.8,3.17,3.17,0,0,1-.61,2,2,2,0,0,1-1.67.75A1.63,1.63,0,0,1,66.8,53.34Zm0-2V52a1.45,1.45,0,0,0,.4,1A1.42,1.42,0,0,0,69.34,53a2.53,2.53,0,0,0,.42-1.55,2,2,0,0,0-.39-1.31,1.3,1.3,0,0,0-1.05-.47,1.4,1.4,0,0,0-1.12.49A1.78,1.78,0,0,0,66.78,51.32Z"/><path d="M74.48,46.62H81a7,7,0,0,1-.61,2.21,4.78,4.78,0,0,1-1.21,1.51l-.59-.49a4.15,4.15,0,0,0,1.06-1.26,3.26,3.26,0,0,0,.42-1.29H74.48Zm.3,7.22a3.94,3.94,0,0,0,1.8-1.5,5.43,5.43,0,0,0,.54-2.65V48.11h.77v1.6a5.6,5.6,0,0,1-.8,3.21,4.94,4.94,0,0,1-1.83,1.49Z"/><path d="M87.6,47.46a9.48,9.48,0,0,1-1,4.23A6.31,6.31,0,0,1,83,54.48l-.42-.6a6,6,0,0,0,3.25-2.32,7.55,7.55,0,0,0,1-4.1H82.11v-.67H86.9a.94.94,0,0,1-.07-.39,1.06,1.06,0,0,1,.37-.83,1.12,1.12,0,0,1,1.58.08,1.1,1.1,0,0,1,.29.75,1.13,1.13,0,0,1-.37.84,1.08,1.08,0,0,1-.75.28A1,1,0,0,1,87.6,47.46ZM88,45.71a.68.68,0,0,0-.69.69.68.68,0,0,0,.69.7.68.68,0,0,0,.52-.23.71.71,0,0,0,.17-.47.65.65,0,0,0-.23-.51A.63.63,0,0,0,88,45.71Z"/><path d="M91.07,46.37v4.9H90.3v-4.9Zm-.28,7.5a4,4,0,0,0,2.48-1.29A4.38,4.38,0,0,0,93.91,50V46.31h.77v3.75a4.52,4.52,0,0,1-1,3.19,4.9,4.9,0,0,1-2.57,1.22Z"/><path d="M115.25,67.78a9.61,9.61,0,0,1-1.84,2.88l-.58-.44A8.71,8.71,0,0,0,115,66.06l.79.12c-.07.26-.16.57-.28.94H119a10.61,10.61,0,0,1-1.91,5.25,7.38,7.38,0,0,1-3.16,2.22l-.43-.54a7,7,0,0,0,3.2-2.36,9,9,0,0,0,1.4-3.91Z" fill="#00b0f0"/><path d="M120.08,68.66h5.65a6.46,6.46,0,0,1-1.4,4.26,6,6,0,0,1-3.07,1.62L120.9,74a5.35,5.35,0,0,0,3-1.72,5,5,0,0,0,1-2.92h-4.82Zm.61-2.13h4.53v.67h-4.53Z" fill="#00b0f0"/><path d="M130,69.2a24,24,0,0,1-2.81,1.88l-.41-.58a18.73,18.73,0,0,0,3.12-2.14A14.11,14.11,0,0,0,132.09,66l.66.41a16,16,0,0,1-2,2.13v6H130Z" fill="#00b0f0"/><path d="M133.89,66.67h6.51a7,7,0,0,1-.61,2.21,5.07,5.07,0,0,1-1.21,1.51L138,69.9a4.11,4.11,0,0,0,1-1.26,3.44,3.44,0,0,0,.43-1.3h-5.58Zm.29,7.22a3.84,3.84,0,0,0,1.8-1.5,5.31,5.31,0,0,0,.55-2.65V68.16h.76v1.6a5.52,5.52,0,0,1-.8,3.21,4.82,4.82,0,0,1-1.82,1.49Z" fill="#00b0f0"/><path d="M142,67a17.6,17.6,0,0,1,2.35,1.49l-.5.66a14.71,14.71,0,0,0-2.3-1.56Zm5,.5.76.36A8.17,8.17,0,0,1,145.88,72a7.93,7.93,0,0,1-4,2.3l-.35-.68A6.79,6.79,0,0,0,147,67.49Z" fill="#00b0f0"/><path d="M150.24,69.76v4.75h-.77V66.12h.77V69a15.71,15.71,0,0,1,3.81,1.59l-.38.72A12.9,12.9,0,0,0,150.24,69.76Z" fill="#00b0f0"/><path d="M157.94,73.84s0,.08-.12.09a1.74,1.74,0,0,0-.31.13,7.65,7.65,0,0,1-2.34.78.4.4,0,0,1-.13,0c-.06,0-.11,0-.17-.16a1.57,1.57,0,0,0-.25-.33,7.55,7.55,0,0,0,2.31-.63,1.49,1.49,0,0,0,.39-.27c.22.1.39.18.51.25S157.94,73.8,157.94,73.84Zm-.61-5.52c0,.07,0,.12,0,.14s-.06.11-.17.16a13.41,13.41,0,0,1-1.66.73,1.07,1.07,0,0,0-.33.16.21.21,0,0,1-.14.07.1.1,0,0,1-.1-.08,4.76,4.76,0,0,1-.24-.54,5,5,0,0,0,.74-.17,11.76,11.76,0,0,0,1.87-.82A2.58,2.58,0,0,0,157.33,68.32Zm-.37-1.4s.06,0,.06.07a.24.24,0,0,1-.07.1l-.19.23c0,.07-.09.1-.11.1l-.07,0a6.38,6.38,0,0,0-1.46-.84s-.06,0-.06-.05,0-.06.06-.11l.16-.19c.05,0,.09-.08.13-.08h.05A6.52,6.52,0,0,1,157,66.92Zm5,6.39s0,.08-.07.08l-1.4,0h-2.95l-1.4,0c-.05,0-.07,0-.07-.08l0-1V70.69l0-1s0-.08.07-.08l1.4,0h2.95l1.4,0s.07,0,.07.08l0,1v1.62Zm-.59-2.59v-.64h-4.7v.64Zm0,1.07v-.65h-4.7v.65Zm0,1.13v-.71h-4.7v.71Zm2.13-3.65a.85.85,0,0,0-.21.37c0,.12-.09.18-.14.18l-.13,0a4,4,0,0,1-3-2.07,3.08,3.08,0,0,1-2.48,1.78l-.14,0c-.06,0-.12,0-.19-.17a.78.78,0,0,0-.24-.27,4.47,4.47,0,0,0,1.88-.68,2.08,2.08,0,0,0,.83-1.2h-1.15a4.27,4.27,0,0,1-.72.69.33.33,0,0,1-.14.07s-.08,0-.15-.11a.89.89,0,0,0-.31-.19,4.25,4.25,0,0,0,1.35-1.4,2.15,2.15,0,0,0,.19-.5l.5.13c.08,0,.12.07.12.11s0,.08-.09.11a.64.64,0,0,0-.16.22,2.85,2.85,0,0,1-.26.41H162a.75.75,0,0,0,.27,0l.11,0a.57.57,0,0,1,.25.14c.15.11.23.2.23.27s0,.06-.08.09a.56.56,0,0,0-.19.21,5.22,5.22,0,0,1-.54.7c-.09.08-.14.12-.17.12a.76.76,0,0,1-.19,0,1.18,1.18,0,0,0-.33-.12,4.08,4.08,0,0,0,.73-.84H160.2a2.56,2.56,0,0,0,1.43,1.53A5.93,5.93,0,0,0,163.48,69.27Zm-.2,5.07a1.7,1.7,0,0,0-.29.34q-.08.15-.18.15h-.12a6.94,6.94,0,0,1-2.61-1s0,0,0,0,0-.06.11-.1l.28-.15a.19.19,0,0,1,.11,0l.07,0A6.67,6.67,0,0,0,163.28,74.34Z" fill="#00b0f0"/><path d="M167.51,70.14a1.63,1.63,0,0,0-.23.35q-.06.12-.09.12s-.05,0-.1-.09a4.72,4.72,0,0,1-.8-1.46c0,1.34,0,2.71.05,4.14,0,.37,0,.76,0,1.2,0,.21,0,.33,0,.34a.07.07,0,0,1-.08.08h-.47a.07.07,0,0,1-.08-.08s0-.28,0-.83c0-1.65.06-3.2.07-4.66a11,11,0,0,1-1.3,3.23c0,.08-.09.12-.11.12s-.06,0-.09-.12a1.08,1.08,0,0,0-.24-.37,11.15,11.15,0,0,0,1.59-3.6h-.37l-.94,0s-.08,0-.08-.08v-.39c0-.06,0-.09.08-.09l.94,0h.46V67a6.58,6.58,0,0,0-.07-1.18l.63,0c.07,0,.11,0,.11.09a.59.59,0,0,1,0,.19,4,4,0,0,0-.05.84v1h.12l.95,0c.05,0,.08,0,.08.09v.39c0,.06,0,.08-.08.08l-.95,0h-.07A4.25,4.25,0,0,0,167.51,70.14Zm6,.79a1.43,1.43,0,0,0-.23.39c0,.1-.08.16-.12.16l-.14,0a9.42,9.42,0,0,1-2.65-1.56,10.44,10.44,0,0,1-2.79,1.68l-.15,0s-.1-.06-.14-.16a1,1,0,0,0-.24-.33,9.41,9.41,0,0,0,2.9-1.63,6.26,6.26,0,0,1-1.07-1.44,7.33,7.33,0,0,1-.92,1.06c-.07.07-.12.11-.15.11s-.07,0-.14-.12a.92.92,0,0,0-.31-.21,6.49,6.49,0,0,0,1.86-2.65,1.56,1.56,0,0,0,.13-.49,5.78,5.78,0,0,1,.57.14c.07,0,.11.07.11.1a.17.17,0,0,1-.08.12.55.55,0,0,0-.16.26c-.1.23-.18.41-.25.54h2.21a.54.54,0,0,0,.17,0l.1,0c.07,0,.15.06.26.16a.54.54,0,0,1,.16.25.17.17,0,0,1-.09.14.8.8,0,0,0-.2.25,7.74,7.74,0,0,1-1.37,1.84A8.07,8.07,0,0,0,173.47,70.93Zm-1.24,3.84s0,.07-.08.07h-.44c-.05,0-.08,0-.08-.07v-.49h-2.81v.48s0,.07-.08.07h-.44c-.05,0-.08,0-.08-.07l0-1.64v-.74l0-1a.07.07,0,0,1,.08-.08l1.16,0H171l1.16,0a.07.07,0,0,1,.08.08l0,.93v.84Zm-.6-1v-2h-2.81v2Zm0-6.36h-2.34l-.1.17a5.66,5.66,0,0,0,1.17,1.55A6.43,6.43,0,0,0,171.58,67.41Z" fill="#00b0f0"/><path d="M175,68.18a7.45,7.45,0,0,1-.42,2.06s0,0,0,0l-.1,0-.24-.1c-.09,0-.13-.06-.13-.08a.17.17,0,0,1,0-.08,6.38,6.38,0,0,0,.4-1.94s0-.06,0-.06l.11,0,.26.06c.07,0,.11.05.11.08v0ZM176.1,66a.84.84,0,0,1,0,.18,4.25,4.25,0,0,0-.07,1V73l0,1.76a.07.07,0,0,1-.08.08h-.47a.07.07,0,0,1-.08-.08l0-1.75v-5.8a8.89,8.89,0,0,0-.08-1.37,5.76,5.76,0,0,1,.66.06C176.06,65.89,176.1,65.92,176.1,66Zm1,3.25v0s0,.07-.1.09l-.24.08-.12,0s0,0,0-.06a6.36,6.36,0,0,0-.36-1.38.11.11,0,0,1,0-.05s0,0,.12-.08l.23-.07h.07a.05.05,0,0,1,.06,0A11,11,0,0,1,177.09,69.21Zm6,.38a.06.06,0,0,1-.07.07l-1.36,0h-3.05l-1.36,0c-.06,0-.08,0-.08-.07v-.36s0-.08.08-.08l1.36,0h1v-.71h-.68l-1.2,0c-.06,0-.08,0-.08-.08v-.33s0-.08.08-.08l1.2,0h.68v-.67h-.84l-1.28,0c-.06,0-.08,0-.08-.08v-.35c0-.05,0-.08.08-.08l1.28,0h.84a7.89,7.89,0,0,0-.07-1.1,6.16,6.16,0,0,1,.64,0q.12,0,.12.09a.58.58,0,0,1-.06.2,2.76,2.76,0,0,0-.06.76h1.15l1.29,0a.07.07,0,0,1,.08.08v.35a.07.07,0,0,1-.08.08l-1.29,0h-1.15V68H181l1.19,0c.06,0,.09,0,.09.08v.33s0,.08-.09.08l-1.19,0h-.87v.71h1.46l1.36,0a.07.07,0,0,1,.07.08Zm-.92.72,0,1.17v2.41a.81.81,0,0,1-.21.66,1.58,1.58,0,0,1-.88.18h-.11a.36.36,0,0,1-.19,0,.48.48,0,0,1-.07-.17,1.47,1.47,0,0,0-.21-.39c.23,0,.45,0,.68,0s.31,0,.36-.1a.43.43,0,0,0,.06-.27v-.71h-3.27v.38l0,1.27c0,.05,0,.07-.08.07h-.44c-.05,0-.08,0-.08-.07l0-1.25V71.43l0-1.12a.07.07,0,0,1,.08-.08l1.38,0h1.72l1.17,0A.07.07,0,0,1,182.13,70.31Zm-.58,1.13v-.71h-3.27v.71Zm0,1.18v-.71h-3.27v.71Z" fill="#00b0f0"/><path d="M188.51,71.2s0,.08-.07.08l-1.23,0h-.5v1.13h.45l1.12,0c.06,0,.08,0,.08.08v.37c0,.06,0,.08-.08.08l-1.12,0h-.45v1.88s0,.07-.08.07h-.45c-.05,0-.07,0-.07-.07l0-1.06v-.82h-.54l-1.14,0c-.05,0-.08,0-.08-.08v-.37a.07.07,0,0,1,.08-.08l1.14,0h.54V71.26h-.7l-1.22,0a.07.07,0,0,1-.07-.08v-.37a.07.07,0,0,1,.07-.08l1.22,0h1.33a7.36,7.36,0,0,0,.44-1.09,2.61,2.61,0,0,0,.1-.42,2.38,2.38,0,0,1,.52.15c.07,0,.11.06.11.1s0,.07-.08.1a.63.63,0,0,0-.13.21c-.15.36-.3.67-.45,1l1.16,0c.05,0,.07,0,.07.08Zm0-2.15c0,.06,0,.08-.07.08l-1.22,0h-1.76l-1.22,0s-.07,0-.07-.08v-.37a.07.07,0,0,1,.07-.08l1.22,0h.69V67.57h-.47l-1.12,0c-.05,0-.07,0-.07-.08v-.38s0-.07.07-.07l1.12,0h.47v-.27a4.93,4.93,0,0,0-.08-1,4.82,4.82,0,0,1,.64.06c.08,0,.12,0,.12.08a.85.85,0,0,1,0,.18,1.65,1.65,0,0,0-.06.58v.37h.35l1.12,0s.07,0,.07.07v.38c0,.06,0,.08-.07.08l-1.12,0h-.35v1.05h.5l1.22,0s.07,0,.07.08Zm-2.66,1.34a.11.11,0,0,1,0,0s0,.06-.11.08l-.23.08-.11,0s-.05,0-.06-.06a6.85,6.85,0,0,0-.39-1,.14.14,0,0,1,0-.06s0,0,.09-.06l.26-.09.07,0s.05,0,.07.06A6.26,6.26,0,0,1,185.84,70.39Zm7.37,3.88a1.31,1.31,0,0,0-.27.38c-.05.09-.09.13-.12.13a.31.31,0,0,1-.12-.06,9.26,9.26,0,0,1-1.54-1.42,8,8,0,0,1-1.09,1.32c-.07.06-.11.1-.13.1s-.07,0-.12-.13a1.28,1.28,0,0,0-.29-.32,7.63,7.63,0,0,0,1.27-1.44,8.26,8.26,0,0,1-1.15-2.77h-.28V72.7l0,2c0,.05,0,.08-.07.08h-.45c-.06,0-.09,0-.09-.08l0-2V68.46l0-2c0-.05,0-.08.09-.08l1.21,0h1.45l1.13,0c.07,0,.1,0,.1.09,0,.22,0,.4,0,.52a7,7,0,0,1-.19,1.27.74.74,0,0,1-.36.47,1.17,1.17,0,0,1-.58.11c-.12,0-.34,0-.66,0-.09,0-.14,0-.16,0a.28.28,0,0,1,0-.15,1.89,1.89,0,0,0-.11-.38,6.23,6.23,0,0,0,.91.07.54.54,0,0,0,.35-.1.73.73,0,0,0,.16-.32,4.32,4.32,0,0,0,.11-1h-2.76v2.63h2.43a.47.47,0,0,0,.23,0l.12,0s.14.06.27.18.19.21.19.26a.15.15,0,0,1-.07.12,1,1,0,0,0-.17.38,11,11,0,0,1-.9,2.38A7.38,7.38,0,0,0,193.21,74.27Zm-1.33-4.21h-1.72a7.51,7.51,0,0,0,1,2.24A10.14,10.14,0,0,0,191.88,70.06Z" fill="#00b0f0"/><path d="M194,66.84h5.51a9.42,9.42,0,0,1-1.29,5.36,6.81,6.81,0,0,1-3.36,2.33l-.42-.6a6.06,6.06,0,0,0,3.25-2.32,7.47,7.47,0,0,0,1-4.1H194Z" fill="#00b0f0"/><path d="M200.93,74.05V66.9h5.22v7.15Zm4.45-.67V67.57h-3.69v5.81Z" fill="#00b0f0"/><path d="M207.57,70H213v.74h-5.44Z" fill="#00b0f0"/></svg>