<svg id="svg1342" xmlns="http://www.w3.org/2000/svg" viewBox="0 0 224.94 200.3">
  <defs>
    <style>
      .cls-1, .cls-5 {
        fill: #008bfd;
      }

      .cls-1, .cls-10, .cls-2, .cls-6 {
        fill-rule: evenodd;
      }

      .cls-2, .cls-3 {
        fill: #0078d7;
      }

      .cls-4 {
        isolation: isolate;
      }

      .cls-6 {
        fill: gray;
      }

      .cls-7, .cls-9 {
        fill: none;
      }

      .cls-8 {
        fill: #00b0f0;
      }

      .cls-9 {
        stroke: #505050;
        stroke-miterlimit: 10;
      }

      .cls-10, .cls-11 {
        fill: #505050;
      }
    </style>
  </defs>
  <title>OJ104440668</title>
  <g id="shape1029-46">
    <path id="path1130" class="cls-1" d="M211.09,79h-20.5a1.09,1.09,0,0,0-1.09,1.1V96.88a1.09,1.09,0,0,0,1.09,1.1h5.28a3.29,3.29,0,0,0,3.21,2.27,3.38,3.38,0,0,0,0-6.75,3.29,3.29,0,0,0-3.21,2.27h-4.19v-12H210v12h-3.45a7.61,7.61,0,0,0-7.46-6.56,8.25,8.25,0,0,0-3.64.92l1,2a5.27,5.27,0,0,1,2.55-.67,5.46,5.46,0,0,1,0,10.91,5.27,5.27,0,0,1-2.55-.67l-1,2a7.51,7.51,0,0,0,3.64.92A7.61,7.61,0,0,0,206.54,98h4.55a1.09,1.09,0,0,0,1.09-1.1V80.13A1.14,1.14,0,0,0,211.09,79Z"/>
  </g>
  <g id="group1030-50">
    <g id="shape1031-51">
      <path id="path1143" class="cls-2" d="M73.65,106H59.44V77.6H73.65v7.67h.76V76.83H58.68v29.91H74.41v-2.32h-.76Z"/>
    </g>
    <g id="shape1032-53">
      <path id="path1148" class="cls-2" d="M72.88,78.39H60.24V83H72.88ZM63.3,80.31h6.53v.76H63.3Zm6.59,1.84H63.27v-.76h6.62Z"/>
    </g>
    <g id="shape1033-55">
      <path id="path1153" class="cls-2" d="M60.21,83.74V86.8h8.6V85.27h4.08V83.74Z"/>
    </g>
    <g id="shape1034-57">
      <rect id="rect1158" class="cls-3" x="60.21" y="87.57" width="8.6" height="2.68"/>
    </g>
    <g id="shape1035-59">
      <path id="path1163" class="cls-2" d="M60.21,105.21H72.86v-.8H68.78V91h-8.6v14.17Zm1.53-2.74H64v1.21H61.74Z"/>
    </g>
    <g id="shape1036-61">
      <path id="path1168" class="cls-2" d="M83.43,102.15H81v-1.87H78.46v1.87H76a1.32,1.32,0,0,0-1.31,1.15h10A1.29,1.29,0,0,0,83.43,102.15Z"/>
    </g>
    <g id="shape1037-63">
      <path id="path1173" class="cls-2" d="M88.27,88.17H71.17a.65.65,0,0,0-.67.61V98.91a.65.65,0,0,0,.67.6h17.1a.64.64,0,0,0,.67-.6V88.78A.63.63,0,0,0,88.27,88.17Zm-1,9.84H72.19V89.7H87.25Z"/>
    </g>
    <g id="shape1038-65">
      <path id="path1178" class="cls-2" d="M83.63,95.52V92.08l-3.51-1.84L76.62,92v3.54l3.5,1.81Zm-4.4-2.29.89-.45.86.45-.86.48Zm0-1.15.86-.44.86.44-.86.48Zm1.91,4.53-1,.51v-.93l1-.51Zm0-1.18-1,.51V95l1-.51Zm0-1.12-1,.51V93.9l1-.51Zm-.82-1.65.86-.45.89.45-.86.44Zm2,3.34-.95.51v-.92l.95-.51Zm0-1.18-.95.51v-.92l.95-.51Zm0-1.14-.95.51v-.9l.95-.51Zm1.05,1.75-.86.44V95l.86-.45Zm0-1.15-.86.45V93.8l.86-.44Zm0-1.14-.86.44v-.92l.86-.45Zm-.19-1.06-.89.45-.89-.45.86-.44Zm-1.11-.57-.89.45-.86-.45.86-.44Zm-2-1.05.86.45-.86.44-.89-.44ZM79,91.07l.86.44L79,92l-.86-.45Zm-1.08.57.89.44-.89.45-.9-.45Zm-.26,4.27-.86-.45v-.92l.86.44Zm0-1.18-.86-.45v-.92l.86.44Zm0-1.15-.86-.44v-.9l.86.45Zm1.18,2.93-1-.51v-.92l1,.51Zm0-1.18-1-.51V93.9l1,.51Zm0-1.14-1-.51v-.9l1,.51Zm-.7-1.53.89-.45.86.45-.89.48ZM80,97.12l-1-.51v-.89l1,.5ZM80,96l-1-.51v-.92l1,.51Zm0-1.15-1-.51v-.92l1,.51Z"/>
    </g>
  </g>
  <path id="path1241" class="cls-1" d="M84.06,154.79H63.56a1.09,1.09,0,0,0-1.09,1.1v16.75a1.09,1.09,0,0,0,1.09,1.1h5.28A3.29,3.29,0,0,0,72.05,176a3.38,3.38,0,0,0,0-6.75,3.29,3.29,0,0,0-3.21,2.27H64.65v-12H83v12H79.51A7.61,7.61,0,0,0,72.05,165a8.25,8.25,0,0,0-3.64.92l1,2a5.27,5.27,0,0,1,2.55-.67,5.46,5.46,0,0,1,0,10.91,5.27,5.27,0,0,1-2.55-.67l-1,2a7.51,7.51,0,0,0,3.64.92,7.61,7.61,0,0,0,7.46-6.56h4.55a1.09,1.09,0,0,0,1.09-1.1V155.89A1.14,1.14,0,0,0,84.06,154.79Z"/>
  <g id="text1243" class="cls-4">
    <path class="cls-5" d="M45.62,189.1H42.85v-.58h5.71v.58H46.31a15,15,0,0,1-.09,1.66,3.49,3.49,0,0,1-.22.85,3.94,3.94,0,0,1-2.15,2.07l-.45-.5a3.34,3.34,0,0,0,2-1.82A7.61,7.61,0,0,0,45.62,189.1Zm-2.24-2.54h3.85v.59H43.38Zm3.92-.67.46-.18a9.92,9.92,0,0,1,.66,1.52l-.48.2A8.38,8.38,0,0,0,47.3,185.89Zm1-.31.44-.16a7.22,7.22,0,0,1,.65,1.48l-.48.19A8.9,8.9,0,0,0,48.31,185.58Z"/>
    <path class="cls-5" d="M49.59,189.61h4.89v.66H49.59Z"/>
    <path class="cls-5" d="M58.17,189.18h3v.58h-3v2.42c0,.3.08.49.22.57a1.86,1.86,0,0,0,.82.14,16.5,16.5,0,0,0,1.74-.08v.68c-.64,0-1.19.07-1.65.07a3,3,0,0,1-1.37-.22,1.16,1.16,0,0,1-.45-1.08v-2.5h-2v-.58h2v-2H55.79v-.59h5.06v.59H58.17Z"/>
    <path class="cls-5" d="M62.55,186.89a15,15,0,0,1,2.11,1.34l-.45.59a13,13,0,0,0-2.07-1.4Zm4.53.45.68.32a7.31,7.31,0,0,1-1.67,3.73,7.19,7.19,0,0,1-3.59,2.08l-.31-.61A6.13,6.13,0,0,0,67.08,187.34Z"/>
    <path class="cls-5" d="M79,187l-1.78,6.3h-.86l-1.3-4.61a2.52,2.52,0,0,1-.1-.64h0a3.19,3.19,0,0,1-.11.63l-1.31,4.62h-.85L70.82,187h.81L73,191.83a3.19,3.19,0,0,1,.11.63h0a3.21,3.21,0,0,1,.14-.63L74.63,187h.71l1.33,4.86a4.16,4.16,0,0,1,.11.59h0a3.92,3.92,0,0,1,.11-.6L78.2,187Z"/>
    <path class="cls-5" d="M83.33,191.23H80.15a1.66,1.66,0,0,0,.4,1.16,1.42,1.42,0,0,0,1.07.41,2.17,2.17,0,0,0,1.39-.51V193a2.56,2.56,0,0,1-1.57.43,1.88,1.88,0,0,1-1.49-.61,2.48,2.48,0,0,1-.55-1.73,2.44,2.44,0,0,1,.6-1.71,1.9,1.9,0,0,1,1.48-.66,1.69,1.69,0,0,1,1.36.57,2.4,2.4,0,0,1,.49,1.59Zm-.74-.61a1.59,1.59,0,0,0-.3-1,1,1,0,0,0-.83-.34,1.15,1.15,0,0,0-.86.36,1.62,1.62,0,0,0-.44,1Z"/>
    <path class="cls-5" d="M85.27,192.65h0v.65h-.72v-6.67h.72v3h0a1.72,1.72,0,0,1,1.56-.9,1.62,1.62,0,0,1,1.35.61,2.47,2.47,0,0,1,.49,1.62,2.74,2.74,0,0,1-.55,1.8,1.79,1.79,0,0,1-1.5.68A1.49,1.49,0,0,1,85.27,192.65Zm0-1.82v.63a1.36,1.36,0,0,0,.37.95,1.2,1.2,0,0,0,.92.39,1.19,1.19,0,0,0,1-.51,2.25,2.25,0,0,0,.38-1.39,1.84,1.84,0,0,0-.35-1.18,1.16,1.16,0,0,0-.94-.42,1.24,1.24,0,0,0-1,.44A1.57,1.57,0,0,0,85.25,190.83Z"/>
    <path class="cls-5" d="M97.26,193.3h-.81l-.67-1.77H93.11l-.63,1.77h-.82l2.41-6.3h.77Zm-1.72-2.43-1-2.69a2.61,2.61,0,0,1-.1-.42h0a1.62,1.62,0,0,1-.1.42l-1,2.69Z"/>
    <path class="cls-5" d="M99,190.92v2.38h-.74V187H100a2.29,2.29,0,0,1,1.57.49,1.76,1.76,0,0,1,.55,1.39,1.88,1.88,0,0,1-.62,1.46,2.35,2.35,0,0,1-1.66.58Zm0-3.26v2.59h.77a1.76,1.76,0,0,0,1.17-.35,1.26,1.26,0,0,0,.4-1c0-.83-.49-1.25-1.48-1.25Z"/>
    <path class="cls-5" d="M104,193.3h-.73V187H104Z"/>
  </g>
  <g id="group1060-114">
    <g id="shape1061-115">
      <path id="path1292" class="cls-6" d="M17.37,169.49H10.65a.59.59,0,0,1-.61-.57v-6.44H12v-1.77H24.4a.59.59,0,0,1,.62.57v.09a6.4,6.4,0,0,1,1,.33v-.42a1.53,1.53,0,0,0-1.58-1.46h-13L9.08,162v6.9a1.51,1.51,0,0,0,1.57,1.46h7.28A5.8,5.8,0,0,1,17.37,169.49Z"/>
    </g>
    <g id="group1062-117">
      <g id="group1063-118">
        <g id="shape1064-119">
          <path id="path1301" class="cls-6" d="M26,171l2.34,3.26-2.17-.54-.61,1.64-2.34-2.88-1.75,2.88-.8-1.74-2.17.54,2.14-3.42s.58.92,2.69.92S26,171,26,171Z"/>
        </g>
      </g>
      <g id="group1065-121">
        <g id="shape1066-122">
          <path id="path1309" class="cls-6" d="M23.43,170.42a3.43,3.43,0,1,1,0-6.83,3.43,3.43,0,1,1,0,6.83Zm0-6.06a2.66,2.66,0,1,0,2.9,2.65A2.78,2.78,0,0,0,23.43,164.36Z"/>
        </g>
      </g>
      <g id="group1067-124">
        <g id="shape1068-125">
          <path id="path1317" class="cls-6" d="M23.43,172.23a5.24,5.24,0,1,1,0-10.45,5.24,5.24,0,1,1,0,10.45Zm0-9.69a4.48,4.48,0,1,0,0,8.93,4.48,4.48,0,1,0,0-8.93Z"/>
        </g>
      </g>
    </g>
  </g>
  <g id="shape1215-134">
    <rect id="rect1335" class="cls-7" x="104.46" y="61.11" width="114.21" height="20"/>
    <g id="text1337" class="cls-4">
      <path class="cls-8" d="M115,68.42A8.61,8.61,0,0,1,113.29,71l-.52-.39a7.88,7.88,0,0,0,2-3.74l.71.11c-.06.23-.15.51-.26.84h3.12a9.56,9.56,0,0,1-1.72,4.73,6.75,6.75,0,0,1-2.84,2l-.4-.48a6.29,6.29,0,0,0,2.89-2.13,8.15,8.15,0,0,0,1.26-3.51Z"/>
      <path class="cls-8" d="M119.34,69.21h5.09A5.89,5.89,0,0,1,123.17,73a5.42,5.42,0,0,1-2.76,1.46l-.33-.51a4.84,4.84,0,0,0,2.73-1.56,4.41,4.41,0,0,0,.87-2.62h-4.34Zm.55-1.92H124v.6h-4.08Z"/>
      <path class="cls-8" d="M128.29,69.69a19.12,19.12,0,0,1-2.53,1.69l-.36-.52a16,16,0,0,0,2.8-1.93,12.51,12.51,0,0,0,2-2.1l.6.37a14.75,14.75,0,0,1-1.8,1.92v5.35h-.7Z"/>
      <path class="cls-8" d="M131.86,67.42h5.86a6.48,6.48,0,0,1-.55,2,4.6,4.6,0,0,1-1.09,1.35l-.53-.44a4,4,0,0,0,.95-1.13,3.15,3.15,0,0,0,.38-1.17h-5Zm.27,6.5a3.59,3.59,0,0,0,1.61-1.36,4.76,4.76,0,0,0,.5-2.38V68.75h.68V70.2a5,5,0,0,1-.72,2.88,4.29,4.29,0,0,1-1.64,1.35Z"/>
      <path class="cls-8" d="M139.16,67.71a14.8,14.8,0,0,1,2.12,1.34l-.45.59a13,13,0,0,0-2.07-1.4Zm4.54.44.67.33a7.27,7.27,0,0,1-1.67,3.73,7.13,7.13,0,0,1-3.59,2.07l-.31-.61A6.12,6.12,0,0,0,143.7,68.15Z"/>
      <path class="cls-8" d="M146.67,70.2v4.27H146V66.92h.69v2.61A14.16,14.16,0,0,1,150.1,71l-.34.65A11.4,11.4,0,0,0,146.67,70.2Z"/>
      <path class="cls-8" d="M153.65,73.87s0,.07-.1.08a1.5,1.5,0,0,0-.29.12,7.08,7.08,0,0,1-2.1.7l-.12,0s-.1-.05-.15-.15a1.3,1.3,0,0,0-.23-.3,6.84,6.84,0,0,0,2.09-.56,2,2,0,0,0,.34-.24c.2.08.35.16.47.22S153.65,73.83,153.65,73.87Zm-.55-5a.68.68,0,0,1,0,.12s-.05.1-.15.15a14,14,0,0,1-1.49.66,1,1,0,0,0-.3.14.22.22,0,0,1-.12.06A.1.1,0,0,1,151,70q-.1-.21-.21-.48a4,4,0,0,0,.66-.16,10.31,10.31,0,0,0,1.68-.73C153.08,68.65,153.09,68.76,153.1,68.9Zm-.33-1.26s0,0,0,.06,0,0-.06.09l-.17.21c0,.06-.08.09-.1.09l-.06,0a5.53,5.53,0,0,0-1.31-.76s-.06,0-.06,0,0,0,.06-.09l.14-.18a.16.16,0,0,1,.11-.07h0A6.43,6.43,0,0,1,152.77,67.64Zm4.49,5.75a.06.06,0,0,1-.07.07l-1.26,0h-2.66l-1.25,0c-.05,0-.07,0-.07-.07V70.13s0-.07.07-.07l1.25,0h2.66l1.26,0a.06.06,0,0,1,.07.07l0,.91v1.45Zm-.54-2.33v-.58h-4.23v.58Zm0,1v-.58h-4.23V72Zm0,1V72.4h-4.23V73Zm1.92-3.28a.78.78,0,0,0-.19.33c0,.1-.08.16-.13.16l-.11,0a3.61,3.61,0,0,1-2.73-1.86,2.77,2.77,0,0,1-2.24,1.6.35.35,0,0,1-.12,0c-.05,0-.1,0-.17-.15a.7.7,0,0,0-.21-.24,4.24,4.24,0,0,0,1.69-.62,1.91,1.91,0,0,0,.74-1.08h-1a3.8,3.8,0,0,1-.65.62.31.31,0,0,1-.12.07s-.08,0-.14-.1a.73.73,0,0,0-.28-.17A3.81,3.81,0,0,0,154.16,67a1.49,1.49,0,0,0,.17-.44l.45.12c.08,0,.11.06.11.09s0,.07-.08.1a.64.64,0,0,0-.14.2c-.07.13-.15.25-.23.37h2.9a.56.56,0,0,0,.24,0l.1,0a.54.54,0,0,1,.23.13c.13.1.2.18.2.24s0,.06-.07.09a.46.46,0,0,0-.17.19,3.61,3.61,0,0,1-.49.62c-.07.08-.12.11-.15.11a.32.32,0,0,1-.16,0,.94.94,0,0,0-.31-.1,3.31,3.31,0,0,0,.66-.76h-1.74A2.34,2.34,0,0,0,157,69.27,5.77,5.77,0,0,0,158.64,69.76Zm-.18,4.56a1,1,0,0,0-.26.31c0,.09-.1.13-.16.13h-.12a6.29,6.29,0,0,1-2.34-.9s0,0,0,0,0,0,.1-.08l.25-.14a.16.16,0,0,1,.1,0l.06,0A6.11,6.11,0,0,0,158.46,74.32Z"/>
      <path class="cls-8" d="M162.31,70.54a1.69,1.69,0,0,0-.21.31c0,.07-.06.11-.08.11l-.09-.08a4.52,4.52,0,0,1-.72-1.31c0,1.2,0,2.44,0,3.72q0,.49,0,1.08v.31s0,.07-.07.07h-.42c-.05,0-.07,0-.07-.07s0-.25,0-.75c0-1.48.05-2.88.06-4.19a10.22,10.22,0,0,1-1.17,2.9c0,.08-.08.11-.1.11s-.06,0-.08-.11a.91.91,0,0,0-.22-.33,9.74,9.74,0,0,0,1.43-3.24h-.33l-.85,0a.06.06,0,0,1-.07-.07v-.35c0-.06,0-.08.07-.08l.85,0h.41v-.89a6.41,6.41,0,0,0-.06-1.06l.56,0c.07,0,.11,0,.11.09a.51.51,0,0,1-.05.17,3.48,3.48,0,0,0,0,.75v.9h.11l.85,0c.05,0,.07,0,.07.08V69s0,.07-.07.07l-.85,0h-.07A4,4,0,0,0,162.31,70.54Zm5.36.71a1.62,1.62,0,0,0-.2.35c0,.09-.07.14-.11.14l-.12,0a8.25,8.25,0,0,1-2.39-1.41,9.09,9.09,0,0,1-2.51,1.51l-.14,0s-.08,0-.12-.15a1.06,1.06,0,0,0-.22-.29A8.51,8.51,0,0,0,164.47,70a5.6,5.6,0,0,1-1-1.3,7.2,7.2,0,0,1-.83,1c-.07.07-.11.1-.13.1s-.07,0-.13-.11a1,1,0,0,0-.28-.19A5.79,5.79,0,0,0,163.81,67a1.51,1.51,0,0,0,.12-.45l.51.13c.07,0,.1.06.1.09s0,.07-.07.11a.53.53,0,0,0-.14.23,4.78,4.78,0,0,1-.23.49h2c.08,0,.13,0,.15,0a.18.18,0,0,1,.09,0c.07,0,.14,0,.24.14a.55.55,0,0,1,.14.23.14.14,0,0,1-.08.12.72.72,0,0,0-.18.22A6.7,6.7,0,0,1,165.22,70,7.25,7.25,0,0,0,167.67,71.25Zm-1.11,3.46s0,.06-.07.06h-.4c-.05,0-.07,0-.07-.06v-.44h-2.53v.43s0,.06-.07.06H163c-.05,0-.08,0-.08-.06l0-1.48v-.67l0-.93c0-.05,0-.07.07-.07h3.47s.07,0,.07.07l0,.84v.75ZM166,73.8V72h-2.53V73.8ZM166,68.08h-2.1l-.09.15a5.09,5.09,0,0,0,1.05,1.4A5.53,5.53,0,0,0,166,68.08Z"/>
      <path class="cls-8" d="M169.09,68.78a6.72,6.72,0,0,1-.38,1.84s0,0-.05,0l-.09,0-.21-.09c-.08,0-.12-.06-.12-.08a.14.14,0,0,1,0-.07,5.79,5.79,0,0,0,.36-1.74s0,0,0,0h.09l.24.06c.06,0,.1,0,.1.07h0Zm1-2a.8.8,0,0,1,0,.16,4.22,4.22,0,0,0-.06.93v6.81s0,.07-.07.07h-.42s-.07,0-.07-.07l0-1.57V67.89a7.3,7.3,0,0,0-.08-1.24l.6,0C170.05,66.71,170.09,66.74,170.09,66.78ZM171,69.7v0s0,.06-.1.08l-.21.07-.11,0s0,0-.05-.06a5.26,5.26,0,0,0-.32-1.24.08.08,0,0,1,0,0s0,0,.11-.08l.21-.06h.06s0,0,.06,0A9.91,9.91,0,0,1,171,69.7Zm5.36.34a.05.05,0,0,1-.06.06h-5.2c-.05,0-.07,0-.07-.06v-.32s0-.07.07-.07l1.23,0h.92V69h-.62l-1.08,0c-.05,0-.07,0-.07-.08v-.29c0-.05,0-.08.07-.08l1.08,0h.62V68h-1.91s-.08,0-.08-.07v-.31c0-.05,0-.07.08-.07h1.91a6.29,6.29,0,0,0-.07-1,5.79,5.79,0,0,1,.58,0c.07,0,.11,0,.11.08a.46.46,0,0,1-.06.18,2.39,2.39,0,0,0,0,.68h2.19s.08,0,.08.07V68c0,.05,0,.07-.08.07h-2.19v.6h.78l1.07,0c.06,0,.08,0,.08.08V69s0,.08-.08.08l-1.07,0h-.78v.65h1.31l1.23,0s.06,0,.06.07Zm-.83.65,0,1v2.18a.72.72,0,0,1-.19.59,1.37,1.37,0,0,1-.78.16h-.11a.29.29,0,0,1-.17,0,.38.38,0,0,1-.06-.15,1.08,1.08,0,0,0-.19-.35c.2,0,.41,0,.61,0a.43.43,0,0,0,.33-.09.49.49,0,0,0,.05-.25v-.64h-2.94v.35l0,1.14s0,.06-.08.06h-.39s-.07,0-.07-.06v-4s0-.07.07-.07l1.24,0h1.55l1.05,0C175.49,70.62,175.51,70.64,175.51,70.69Zm-.52,1v-.64h-2.94v.64Zm0,1.06v-.64h-2.94v.64Z"/>
      <path class="cls-8" d="M181.3,71.49c0,.05,0,.07-.07.07h-1.56v1h.41l1,0s.07,0,.07.07V73s0,.07-.07.07l-1,0h-.41v.74l0,1s0,.06-.07.06h-.41s-.07,0-.07-.06l0-1V73h-.48l-1,0a.06.06,0,0,1-.07-.07v-.33a.06.06,0,0,1,.07-.07l1,0h.48v-1h-1.72s-.06,0-.06-.07v-.33s0-.07.06-.07l1.1,0h1.19a7.8,7.8,0,0,0,.4-1c0-.11.06-.23.09-.38a2.06,2.06,0,0,1,.47.13q.09,0,.09.09a.12.12,0,0,1-.06.09.39.39,0,0,0-.12.19c-.14.32-.28.6-.41.86l1,0c.05,0,.07,0,.07.07Zm0-1.93s0,.07-.07.07l-1.1,0h-1.58l-1.09,0a.06.06,0,0,1-.07-.07v-.33a.06.06,0,0,1,.07-.07h1.71v-.94h-.42l-1,0c-.05,0-.07,0-.07-.08v-.34s0-.06.07-.06h1.42v-.24a4.06,4.06,0,0,0-.07-.9l.58,0c.07,0,.11,0,.11.08a.8.8,0,0,1-.05.16,1.32,1.32,0,0,0-.06.52v.33H181s.07,0,.07.06v.34a.07.07,0,0,1-.07.08l-1,0h-.33v.94h1.55c.05,0,.07,0,.07.07Zm-2.39,1.2v0s0,.06-.1.08l-.2.07-.1,0s0,0-.06,0a7.32,7.32,0,0,0-.34-1,.06.06,0,0,1,0,0s0,0,.08-.06l.23-.08.07,0s0,0,.06.06A6.2,6.2,0,0,1,178.9,70.76Zm6.63,3.49a1.09,1.09,0,0,0-.24.35c0,.07-.08.11-.11.11a.19.19,0,0,1-.11,0,8.25,8.25,0,0,1-1.39-1.28,6.81,6.81,0,0,1-1,1.19q-.09.09-.12.09s-.06,0-.1-.12a1.5,1.5,0,0,0-.27-.29A6.51,6.51,0,0,0,183.36,73a7.44,7.44,0,0,1-1-2.5h-.25v2.38l0,1.83s0,.08-.06.08h-.41a.07.07,0,0,1-.08-.08l0-1.78V69l0-1.83s0-.07.08-.07l1.09,0H184l1,0c.06,0,.09,0,.09.08,0,.2,0,.35,0,.47a5.31,5.31,0,0,1-.18,1.14.67.67,0,0,1-.32.42,1.07,1.07,0,0,1-.52.1h-.59l-.15,0a.29.29,0,0,1,0-.14,2.31,2.31,0,0,0-.1-.34,6.33,6.33,0,0,0,.82.06.47.47,0,0,0,.32-.09.7.7,0,0,0,.14-.29,5,5,0,0,0,.1-.87h-2.49V70h2.19a.35.35,0,0,0,.2,0l.11,0c.05,0,.13,0,.25.16s.16.19.16.23a.14.14,0,0,1,0,.11.88.88,0,0,0-.16.34,9.42,9.42,0,0,1-.81,2.14A6.32,6.32,0,0,0,185.53,74.25Zm-1.2-3.79h-1.55a6.64,6.64,0,0,0,.86,2A9.23,9.23,0,0,0,184.33,70.46Z"/>
      <path class="cls-8" d="M186.28,67.57h4.95a8.37,8.37,0,0,1-1.16,4.82,6.15,6.15,0,0,1-3,2.1l-.38-.54a5.49,5.49,0,0,0,2.93-2.09,6.85,6.85,0,0,0,.88-3.69h-4.2Z"/>
      <path class="cls-8" d="M192.57,74.06V67.62h4.69v6.44Zm4-.61V68.23h-3.32v5.22Z"/>
      <path class="cls-8" d="M198.59,70.42h4.89v.67h-4.89Z"/>
    </g>
  </g>
  <g>
    <path class="cls-5" d="M52.78,37.37H50v-.58h5.72v.58H53.47A14.74,14.74,0,0,1,53.38,39a3.61,3.61,0,0,1-.21.86A4.06,4.06,0,0,1,51,42l-.45-.5a3.34,3.34,0,0,0,2-1.82A7.28,7.28,0,0,0,52.78,37.37Zm-2.23-2.55H54.4v.6H50.55Zm3.91-.66.46-.18a9.84,9.84,0,0,1,.67,1.52l-.49.2A8.1,8.1,0,0,0,54.46,34.16Zm1-.31.45-.16a7.85,7.85,0,0,1,.64,1.48l-.47.19A8.86,8.86,0,0,0,55.47,33.85Z"/>
    <path class="cls-5" d="M56.91,37.87H61.8v.67H56.91Z"/>
    <path class="cls-5" d="M65.64,37.45h3V38h-3v2.42c0,.3.07.49.22.57a1.86,1.86,0,0,0,.82.14c.59,0,1.17,0,1.74-.08v.67c-.64,0-1.19.07-1.65.07a3.07,3.07,0,0,1-1.37-.21A1.16,1.16,0,0,1,65,40.53V38H63v-.58h2v-2H63.26v-.58h5.06v.58H65.64Z"/>
    <path class="cls-5" d="M70.17,35.16a14.8,14.8,0,0,1,2.12,1.34l-.45.59a14,14,0,0,0-2.07-1.4Zm4.54.45.67.32a7.27,7.27,0,0,1-1.67,3.73,7.14,7.14,0,0,1-3.59,2.08l-.31-.61A6.14,6.14,0,0,0,74.71,35.61Z"/>
    <path class="cls-5" d="M86.93,35.26l-1.78,6.3h-.87L83,37a2.6,2.6,0,0,1-.1-.64h0a3.34,3.34,0,0,1-.12.63l-1.3,4.61h-.86l-1.84-6.3h.81L80.9,40.1a3.19,3.19,0,0,1,.11.63h0a3.53,3.53,0,0,1,.13-.63l1.4-4.84h.7l1.34,4.87a4.16,4.16,0,0,1,.11.59h0a4.54,4.54,0,0,1,.12-.61l1.29-4.85Z"/>
    <path class="cls-5" d="M91.41,39.5H88.23a1.73,1.73,0,0,0,.4,1.16,1.42,1.42,0,0,0,1.07.4,2.16,2.16,0,0,0,1.39-.5v.68a2.59,2.59,0,0,1-1.57.43A1.88,1.88,0,0,1,88,41.06a2.5,2.5,0,0,1-.55-1.73,2.44,2.44,0,0,1,.6-1.71A1.9,1.9,0,0,1,89.56,37a1.69,1.69,0,0,1,1.36.57,2.4,2.4,0,0,1,.49,1.59Zm-.74-.62a1.56,1.56,0,0,0-.3-1,1,1,0,0,0-.83-.34,1.15,1.15,0,0,0-.86.36,1.59,1.59,0,0,0-.44,1Z"/>
    <path class="cls-5" d="M93.51,40.91h0v.65h-.72V34.9h.72v3h0a1.69,1.69,0,0,1,1.55-.9,1.66,1.66,0,0,1,1.36.6,2.56,2.56,0,0,1,.49,1.62A2.81,2.81,0,0,1,96.36,41a1.85,1.85,0,0,1-1.51.68A1.46,1.46,0,0,1,93.51,40.91Zm0-1.81v.63a1.36,1.36,0,0,0,.36,1,1.23,1.23,0,0,0,.92.38,1.2,1.2,0,0,0,1-.5,2.34,2.34,0,0,0,.37-1.39A1.84,1.84,0,0,0,95.82,38a1.15,1.15,0,0,0-.94-.42,1.28,1.28,0,0,0-1,.43A1.63,1.63,0,0,0,93.49,39.1Z"/>
    <path class="cls-5" d="M63.85,45.67h5.86a6.4,6.4,0,0,1-.55,2A4.33,4.33,0,0,1,68.07,49l-.53-.44a4,4,0,0,0,.95-1.14,2.88,2.88,0,0,0,.38-1.17h-5Zm.27,6.5a3.56,3.56,0,0,0,1.62-1.36,4.88,4.88,0,0,0,.49-2.38V47h.69v1.44a5,5,0,0,1-.72,2.89,4.49,4.49,0,0,1-1.65,1.34Z"/>
    <path class="cls-5" d="M75.85,46.42A8.42,8.42,0,0,1,75,50.23a5.7,5.7,0,0,1-3.28,2.51l-.38-.54a5.45,5.45,0,0,0,2.92-2.08,6.73,6.73,0,0,0,.88-3.7h-4.2v-.6h4.31a1,1,0,0,1-.06-.35,1,1,0,0,1,.33-.75,1,1,0,0,1,.68-.26,1,1,0,0,1,.74.33,1,1,0,0,1-.07,1.43,1,1,0,0,1-.67.26A.87.87,0,0,1,75.85,46.42Zm.32-1.57a.62.62,0,0,0-.47.2.66.66,0,0,0,0,.89.6.6,0,0,0,.42.15.58.58,0,0,0,.46-.2.6.6,0,0,0,.16-.42.57.57,0,0,0-.21-.46A.56.56,0,0,0,76.17,44.85Z"/>
    <path class="cls-5" d="M79.18,45.44v4.42h-.7V45.44Zm-.26,6.75A3.62,3.62,0,0,0,81.15,51a3.91,3.91,0,0,0,.58-2.36V45.39h.69v3.38a4,4,0,0,1-.87,2.86,4.31,4.31,0,0,1-2.3,1.1Z"/>
  </g>
  <g>
    <path class="cls-5" d="M182.77,112.46H180v-.59h5.71v.59h-2.26a13.16,13.16,0,0,1-.08,1.65,3.71,3.71,0,0,1-.22.86A4,4,0,0,1,181,117l-.45-.51a3.36,3.36,0,0,0,2-1.81A7.42,7.42,0,0,0,182.77,112.46Zm-2.23-2.55h3.85v.59h-3.85Zm3.92-.67.46-.17a9.5,9.5,0,0,1,.66,1.52l-.49.19A8,8,0,0,0,184.46,109.24Zm1-.3.45-.16a7.39,7.39,0,0,1,.64,1.47l-.47.19A8.29,8.29,0,0,0,185.46,108.94Z"/>
    <path class="cls-5" d="M186.9,113h4.9v.67h-4.9Z"/>
    <path class="cls-5" d="M195.64,112.54h3v.57h-3v2.42q0,.47.21.57a1.75,1.75,0,0,0,.83.15,16.28,16.28,0,0,0,1.73-.09v.68c-.63,0-1.18.07-1.65.07a2.85,2.85,0,0,1-1.36-.22,1.14,1.14,0,0,1-.45-1.08v-2.5h-2v-.57h2v-2h-1.69V110h5.05v.59h-2.67Z"/>
    <path class="cls-5" d="M200.17,110.24a16.62,16.62,0,0,1,2.11,1.34l-.45.6a12.35,12.35,0,0,0-2.07-1.4Zm4.53.45.68.33a7.4,7.4,0,0,1-1.68,3.73,7.13,7.13,0,0,1-3.59,2.07l-.3-.61A6.12,6.12,0,0,0,204.7,110.69Z"/>
    <path class="cls-5" d="M214.33,116.65h-.82l-.66-1.77h-2.68l-.62,1.77h-.83l2.42-6.3h.77Zm-1.73-2.43-1-2.68a1.82,1.82,0,0,1-.1-.43h0a2.51,2.51,0,0,1-.1.43l-1,2.68Z"/>
    <path class="cls-5" d="M216.22,114.27v2.38h-.74v-6.3h1.73a2.29,2.29,0,0,1,1.57.49,1.76,1.76,0,0,1,.55,1.39,1.88,1.88,0,0,1-.62,1.47,2.34,2.34,0,0,1-1.66.57Zm0-3.25v2.58H217a1.76,1.76,0,0,0,1.17-.35,1.26,1.26,0,0,0,.4-1c0-.83-.49-1.24-1.48-1.24Z"/>
    <path class="cls-5" d="M221.36,116.65h-.74v-6.3h.74Z"/>
    <path class="cls-5" d="M191.28,120.75h5.86a6.32,6.32,0,0,1-.55,2,4.36,4.36,0,0,1-1.09,1.36l-.53-.44a4,4,0,0,0,.95-1.13,3.15,3.15,0,0,0,.38-1.17h-5Zm.27,6.5a3.6,3.6,0,0,0,1.62-1.35,4.91,4.91,0,0,0,.49-2.38v-1.43h.69v1.45a5,5,0,0,1-.72,2.88,4.41,4.41,0,0,1-1.65,1.35Z"/>
    <path class="cls-5" d="M203.28,121.51a8.42,8.42,0,0,1-.88,3.81,5.73,5.73,0,0,1-3.29,2.51l-.37-.54a5.47,5.47,0,0,0,2.92-2.09,6.67,6.67,0,0,0,.88-3.69h-4.2v-.6h4.31a1,1,0,0,1-.06-.35,1,1,0,0,1,.33-.75,1,1,0,0,1,.68-.26,1,1,0,0,1,1,1,1,1,0,0,1-1,1A.83.83,0,0,1,203.28,121.51Zm.32-1.57a.59.59,0,0,0-.47.2.62.62,0,0,0-.15.42.58.58,0,0,0,.2.46.57.57,0,0,0,.42.16.61.61,0,0,0,.46-.2.65.65,0,0,0,.16-.42.61.61,0,0,0-.62-.62Z"/>
    <path class="cls-5" d="M206.6,120.53v4.41h-.69v-4.41Zm-.25,6.75a3.62,3.62,0,0,0,2.23-1.16,3.93,3.93,0,0,0,.58-2.36v-3.28h.69v3.37a4.07,4.07,0,0,1-.87,2.87,4.46,4.46,0,0,1-2.31,1.1Z"/>
  </g>
  <g>
    <path class="cls-3" d="M49.11,112.46H46.35v-.58h5.71v.58H49.8a14.9,14.9,0,0,1-.09,1.65,3.19,3.19,0,0,1-.21.86A4.06,4.06,0,0,1,47.34,117l-.44-.51a3.31,3.31,0,0,0,2-1.81A7.33,7.33,0,0,0,49.11,112.46Zm-2.23-2.55h3.85v.59H46.88Zm3.91-.67.46-.17a8.62,8.62,0,0,1,.67,1.52l-.49.2A8.49,8.49,0,0,0,50.79,109.24Zm1-.3.45-.16a7.39,7.39,0,0,1,.64,1.47l-.47.19A9.07,9.07,0,0,0,51.8,108.94Z"/>
    <path class="cls-3" d="M53.24,113h4.89v.67H53.24Z"/>
    <path class="cls-3" d="M62,112.54h3v.57H62v2.43c0,.3.08.49.22.56a1.73,1.73,0,0,0,.82.15,16.47,16.47,0,0,0,1.74-.09v.68c-.64,0-1.19.07-1.65.07a3.07,3.07,0,0,1-1.37-.21,1.17,1.17,0,0,1-.45-1.09v-2.5h-2v-.57h2v-2H59.59V110h5.06v.59H62Z"/>
    <path class="cls-3" d="M66.5,110.24a16.8,16.8,0,0,1,2.12,1.34l-.45.6a12.35,12.35,0,0,0-2.07-1.4Zm4.54.45.67.33A7.27,7.27,0,0,1,70,114.75a7.13,7.13,0,0,1-3.59,2.07l-.31-.61A6.12,6.12,0,0,0,71,110.69Z"/>
    <path class="cls-3" d="M78.24,112.46H75.48v-.58h5.71v.58H78.93c0,.73,0,1.28-.08,1.65a3.58,3.58,0,0,1-.22.86A4,4,0,0,1,76.48,117l-.45-.51a3.36,3.36,0,0,0,2-1.81A7.42,7.42,0,0,0,78.24,112.46ZM76,109.91h3.85v.59H76Zm3.92-.67.45-.17a8.62,8.62,0,0,1,.67,1.52l-.49.2A8.49,8.49,0,0,0,79.93,109.24Zm1-.3.45-.16a7.39,7.39,0,0,1,.64,1.47l-.47.19A8.29,8.29,0,0,0,80.93,108.94Z"/>
    <path class="cls-3" d="M86.26,114.08a8.06,8.06,0,0,1-3.21,2.84l-.4-.52a7.79,7.79,0,0,0,2.94-2.53,8.82,8.82,0,0,0,1.32-3.24H83.13V110H87.8a11.78,11.78,0,0,1-1.19,3.44,19.61,19.61,0,0,1,2.1,3l-.66.42A16,16,0,0,0,86.26,114.08Z"/>
    <path class="cls-3" d="M91.77,111a8.4,8.4,0,0,1-1.65,2.58l-.52-.39a7.86,7.86,0,0,0,1.94-3.74l.72.1c-.06.24-.15.52-.26.85h3.12a9.65,9.65,0,0,1-1.72,4.73,6.75,6.75,0,0,1-2.84,2l-.4-.48A6.2,6.2,0,0,0,93,114.47,8,8,0,0,0,94.31,111Z"/>
    <path class="cls-3" d="M97.68,112.74V117H97v-7.55h.69v2.61a14.16,14.16,0,0,1,3.43,1.43l-.34.65A11.11,11.11,0,0,0,97.68,112.74Z"/>
    <path class="cls-3" d="M56.61,122.57l.58-.25a13.13,13.13,0,0,1,.75,2l-.6.24A11,11,0,0,0,56.61,122.57Zm1,4.88a4.51,4.51,0,0,0,2.41-2,7.58,7.58,0,0,0,.79-3.32l.65.14a8.44,8.44,0,0,1-.9,3.51,4.22,4.22,0,0,1-1.07,1.26,6.65,6.65,0,0,1-1.49.85Zm.7-5.26.57-.24a11.62,11.62,0,0,1,.66,1.93l-.59.25A8.82,8.82,0,0,0,58.31,122.19Z"/>
    <path class="cls-3" d="M66.54,121.51a8.56,8.56,0,0,1-.88,3.81,5.73,5.73,0,0,1-3.29,2.51l-.38-.54a5.49,5.49,0,0,0,2.93-2.09,6.76,6.76,0,0,0,.88-3.69H61.6v-.6h4.31a1,1,0,0,1-.06-.35,1,1,0,0,1,.33-.75,1,1,0,0,1,.68-.26,1,1,0,0,1,.74.33,1,1,0,0,1,.26.68,1,1,0,0,1-.33.75,1,1,0,0,1-.67.26A.83.83,0,0,1,66.54,121.51Zm.32-1.57a.59.59,0,0,0-.47.2.64.64,0,0,0-.15.42.58.58,0,0,0,.2.46.57.57,0,0,0,.42.16.61.61,0,0,0,.46-.2.64.64,0,0,0,.15-.42.59.59,0,0,0-.2-.47A.59.59,0,0,0,66.86,119.94Z"/>
    <path class="cls-3" d="M71.32,120.75h5.85a6.22,6.22,0,0,1-.54,2,4.6,4.6,0,0,1-1.09,1.35l-.53-.44a4,4,0,0,0,.95-1.13,3.15,3.15,0,0,0,.38-1.17h-5Zm.26,6.5a3.5,3.5,0,0,0,1.62-1.35,4.77,4.77,0,0,0,.49-2.38v-1.43h.69v1.45a5,5,0,0,1-.72,2.88A4.37,4.37,0,0,1,72,127.77Z"/>
    <path class="cls-3" d="M83.32,121.51a8.56,8.56,0,0,1-.88,3.81,5.77,5.77,0,0,1-3.29,2.51l-.38-.54a5.49,5.49,0,0,0,2.93-2.09,6.85,6.85,0,0,0,.88-3.69h-4.2v-.6h4.31a1,1,0,0,1-.06-.35,1,1,0,0,1,1.75-.68,1,1,0,0,1,.26.68,1,1,0,0,1-.33.75,1,1,0,0,1-.68.26A.81.81,0,0,1,83.32,121.51Zm.31-1.57a.57.57,0,0,0-.46.2.6.6,0,0,0-.16.42.61.61,0,0,0,.2.46.6.6,0,0,0,.42.16.6.6,0,0,0,.62-.62.62.62,0,0,0-.2-.47A.6.6,0,0,0,83.63,119.94Z"/>
    <path class="cls-3" d="M86.64,120.53v4.41H86v-4.41Zm-.25,6.75a3.65,3.65,0,0,0,2.23-1.16,4,4,0,0,0,.57-2.36v-3.28h.7v3.37a4.06,4.06,0,0,1-.87,2.87,4.46,4.46,0,0,1-2.31,1.1Z"/>
  </g>
  <g>
    <path class="cls-5" d="M1.94,107.54l.31-.54a17.47,17.47,0,0,1,2.11.92l-.33.6A13.12,13.12,0,0,0,1.94,107.54Zm5.53-1.33.62.35a9.32,9.32,0,0,1-.74,2A6.33,6.33,0,0,1,6.41,110,6.55,6.55,0,0,1,2.83,112l-.37-.57a5.77,5.77,0,0,0,3.42-1.8A7.46,7.46,0,0,0,7.47,106.21Zm-4.72-.59.33-.54a14,14,0,0,1,2.06,1l-.36.6A10.75,10.75,0,0,0,2.75,105.62Z"/>
    <path class="cls-5" d="M8.83,108.18h4.9v.67H8.83Z"/>
    <path class="cls-5" d="M16.92,106.17a8.45,8.45,0,0,1-1.65,2.59l-.52-.39a8,8,0,0,0,1.95-3.75l.71.11c-.06.23-.15.52-.26.85h3.12a9.61,9.61,0,0,1-1.72,4.72,6.68,6.68,0,0,1-2.84,2l-.4-.48a6.2,6.2,0,0,0,2.88-2.13,8,8,0,0,0,1.27-3.52Z"/>
    <path class="cls-5" d="M22.47,111.41A5.44,5.44,0,0,0,24.76,110a6.5,6.5,0,0,0,1.39-2.12l.52.49a7,7,0,0,1-1.92,2.54,8,8,0,0,1-2.57,1.38l-.41-.29v-7h.7Z"/>
    <path class="cls-5" d="M27.4,107l.57-.25a13.13,13.13,0,0,1,.75,2l-.59.23A11.68,11.68,0,0,0,27.4,107Zm1,4.88a4.57,4.57,0,0,0,2.42-2,7.6,7.6,0,0,0,.78-3.32l.66.14a8.76,8.76,0,0,1-.9,3.51,4.38,4.38,0,0,1-1.08,1.26,6.65,6.65,0,0,1-1.49.85Zm.71-5.27.56-.23a11.62,11.62,0,0,1,.66,1.93l-.59.25A9.72,9.72,0,0,0,29.1,106.6Z"/>
    <path class="cls-5" d="M34.61,108v4.28h-.69v-7.55h.69v2.61A14.16,14.16,0,0,1,38,108.72l-.34.65A11.4,11.4,0,0,0,34.61,108Z"/>
  </g>
  <g>
    <path class="cls-5" d="M2.67,178.67l.31-.55a19.31,19.31,0,0,1,2.11.92l-.33.6A13.22,13.22,0,0,0,2.67,178.67Zm5.53-1.34.62.35a9.32,9.32,0,0,1-.74,2,6.41,6.41,0,0,1-.94,1.44,6.48,6.48,0,0,1-3.58,1.92l-.37-.57a5.81,5.81,0,0,0,3.42-1.79A7.51,7.51,0,0,0,8.2,177.33Zm-4.72-.59.33-.53a13,13,0,0,1,2.06,1l-.36.59A11.38,11.38,0,0,0,3.48,176.74Z"/>
    <path class="cls-5" d="M9.56,179.3h4.9V180H9.56Z"/>
    <path class="cls-5" d="M17.65,177.3A8.45,8.45,0,0,1,16,179.89l-.52-.4a8,8,0,0,0,1.95-3.74l.71.11c-.06.23-.15.51-.26.84H21a9.65,9.65,0,0,1-1.72,4.73,6.75,6.75,0,0,1-2.84,2l-.4-.48a6.2,6.2,0,0,0,2.88-2.13,8,8,0,0,0,1.27-3.51Z"/>
    <path class="cls-5" d="M23.2,182.54a5.56,5.56,0,0,0,2.29-1.43A6.4,6.4,0,0,0,26.88,179l.52.49A7.07,7.07,0,0,1,25.48,182a8.38,8.38,0,0,1-2.57,1.38l-.41-.3v-7h.7Z"/>
    <path class="cls-5" d="M28.13,178.12l.57-.26a12.88,12.88,0,0,1,.75,2l-.6.23A10.81,10.81,0,0,0,28.13,178.12Zm1,4.87a4.57,4.57,0,0,0,2.42-2,7.56,7.56,0,0,0,.78-3.32l.66.14a8.76,8.76,0,0,1-.9,3.51A4.25,4.25,0,0,1,31,182.6a6.65,6.65,0,0,1-1.49.85Zm.71-5.26.56-.23a11.48,11.48,0,0,1,.66,1.92l-.59.25A9.41,9.41,0,0,0,29.83,177.73Z"/>
    <path class="cls-5" d="M35.34,179.08v4.27h-.69V175.8h.69v2.61a14.16,14.16,0,0,1,3.43,1.43l-.34.65A11.4,11.4,0,0,0,35.34,179.08Z"/>
  </g>
  <g>
    <path class="cls-5" d="M2.67,30.35,3,29.81a17.47,17.47,0,0,1,2.11.92l-.33.6A12.29,12.29,0,0,0,2.67,30.35ZM8.2,29l.62.35a9.24,9.24,0,0,1-.74,2,6.41,6.41,0,0,1-.94,1.44,6.55,6.55,0,0,1-3.58,1.93l-.37-.57a5.77,5.77,0,0,0,3.42-1.8A7.52,7.52,0,0,0,8.2,29Zm-4.72-.6.33-.53a13,13,0,0,1,2.06,1l-.36.59A12.08,12.08,0,0,0,3.48,28.42Z"/>
    <path class="cls-5" d="M9.56,31h4.9v.67H9.56Z"/>
    <path class="cls-5" d="M17.65,29A8.45,8.45,0,0,1,16,31.57l-.52-.4a7.92,7.92,0,0,0,1.95-3.74l.71.11c-.06.23-.15.51-.26.84H21a9.61,9.61,0,0,1-1.72,4.73,6.77,6.77,0,0,1-2.84,2l-.4-.49a6.07,6.07,0,0,0,2.88-2.13A8,8,0,0,0,20.19,29Z"/>
    <path class="cls-5" d="M23.2,34.22a5.54,5.54,0,0,0,2.29-1.42,6.44,6.44,0,0,0,1.39-2.13l.52.49a7,7,0,0,1-1.92,2.55,8.38,8.38,0,0,1-2.57,1.38l-.41-.29v-7h.7Z"/>
    <path class="cls-5" d="M28.13,29.8l.57-.25a12.71,12.71,0,0,1,.75,2l-.6.23A10.81,10.81,0,0,0,28.13,29.8Zm1,4.88a4.63,4.63,0,0,0,2.42-2,7.51,7.51,0,0,0,.78-3.31l.66.14a8.76,8.76,0,0,1-.9,3.51A4.52,4.52,0,0,1,31,34.29a6.64,6.64,0,0,1-1.49.84Zm.71-5.27.56-.23a11.81,11.81,0,0,1,.66,1.92l-.59.25A9.41,9.41,0,0,0,29.83,29.41Z"/>
    <path class="cls-5" d="M35.34,30.76V35h-.69V27.49h.69V30.1a13.77,13.77,0,0,1,3.43,1.43l-.34.65A11.4,11.4,0,0,0,35.34,30.76Z"/>
  </g>
  <g id="group1060-114-2" data-name="group1060-114">
    <g id="shape1061-115-2" data-name="shape1061-115">
      <path id="path1292-2" data-name="path1292" class="cls-6" d="M17.37,98.69H10.65a.59.59,0,0,1-.61-.57V91.68H12V89.91H24.4a.59.59,0,0,1,.62.57v.09a6.4,6.4,0,0,1,1,.33v-.42A1.53,1.53,0,0,0,24.4,89h-13l-2.34,2.2v6.9a1.51,1.51,0,0,0,1.57,1.46h7.28A5.8,5.8,0,0,1,17.37,98.69Z"/>
    </g>
    <g id="group1062-117-2" data-name="group1062-117">
      <g id="group1063-118-2" data-name="group1063-118">
        <g id="shape1064-119-2" data-name="shape1064-119">
          <path id="path1301-2" data-name="path1301" class="cls-6" d="M26,100.22l2.34,3.26-2.17-.54-.61,1.64-2.34-2.88-1.75,2.88-.8-1.74-2.17.54L20.65,100s.58.92,2.69.92S26,100.22,26,100.22Z"/>
        </g>
      </g>
      <g id="group1065-121-2" data-name="group1065-121">
        <g id="shape1066-122-2" data-name="shape1066-122">
          <path id="path1309-2" data-name="path1309" class="cls-6" d="M23.43,99.63a3.43,3.43,0,1,1,0-6.83,3.43,3.43,0,1,1,0,6.83Zm0-6.06a2.66,2.66,0,1,0,2.9,2.65A2.78,2.78,0,0,0,23.43,93.57Z"/>
        </g>
      </g>
      <g id="group1067-124-2" data-name="group1067-124">
        <g id="shape1068-125-2" data-name="shape1068-125">
          <path id="path1317-2" data-name="path1317" class="cls-6" d="M23.43,101.44a5.24,5.24,0,1,1,0-10.45,5.24,5.24,0,1,1,0,10.45Zm0-9.69a4.48,4.48,0,1,0,0,8.93,4.48,4.48,0,1,0,0-8.93Z"/>
        </g>
      </g>
    </g>
  </g>
  <g id="group1060-114-3" data-name="group1060-114">
    <g id="shape1061-115-3" data-name="shape1061-115">
      <path id="path1292-3" data-name="path1292" class="cls-6" d="M17.37,21.52H10.65A.59.59,0,0,1,10,21V14.51H12V12.74H24.4a.59.59,0,0,1,.62.57v.09a6.4,6.4,0,0,1,1,.33v-.42a1.53,1.53,0,0,0-1.58-1.46h-13l-2.34,2.2V21a1.51,1.51,0,0,0,1.57,1.46h7.28A5.8,5.8,0,0,1,17.37,21.52Z"/>
    </g>
    <g id="group1062-117-3" data-name="group1062-117">
      <g id="group1063-118-3" data-name="group1063-118">
        <g id="shape1064-119-3" data-name="shape1064-119">
          <path id="path1301-3" data-name="path1301" class="cls-6" d="M26,23.05l2.34,3.26-2.17-.54-.61,1.64-2.34-2.88-1.75,2.88-.8-1.74-2.17.54,2.14-3.42s.58.92,2.69.92S26,23.05,26,23.05Z"/>
        </g>
      </g>
      <g id="group1065-121-3" data-name="group1065-121">
        <g id="shape1066-122-3" data-name="shape1066-122">
          <path id="path1309-3" data-name="path1309" class="cls-6" d="M23.43,22.45A3.58,3.58,0,0,1,19.72,19a3.58,3.58,0,0,1,3.71-3.42A3.58,3.58,0,0,1,27.15,19,3.58,3.58,0,0,1,23.43,22.45Zm0-6.06A2.78,2.78,0,0,0,20.54,19a2.91,2.91,0,0,0,5.79,0A2.79,2.79,0,0,0,23.43,16.39Z"/>
        </g>
      </g>
      <g id="group1067-124-3" data-name="group1067-124">
        <g id="shape1068-125-3" data-name="shape1068-125">
          <path id="path1317-3" data-name="path1317" class="cls-6" d="M23.43,24.27a5.48,5.48,0,0,1-5.7-5.22,5.48,5.48,0,0,1,5.7-5.23,5.48,5.48,0,0,1,5.69,5.23A5.47,5.47,0,0,1,23.43,24.27Zm0-9.69a4.7,4.7,0,0,0-4.88,4.47,4.69,4.69,0,0,0,4.88,4.46,4.68,4.68,0,0,0,4.87-4.46A4.69,4.69,0,0,0,23.43,14.58Z"/>
        </g>
      </g>
    </g>
  </g>
  <g>
    <g id="group1113-2">
      <g id="shape1114-3">
        <path id="path21" class="cls-5" d="M80.65,24.41a11.81,11.81,0,0,1-16.84-2.29A12.56,12.56,0,0,1,66.05,4.83a11.82,11.82,0,0,1,16.84,2.3A12.54,12.54,0,0,1,80.65,24.41ZM84.31,6A13.57,13.57,0,0,0,65,3.37,14.43,14.43,0,0,0,62.4,23.24a13.62,13.62,0,0,0,11,5.55,13.45,13.45,0,0,0,8.39-2.92A14.44,14.44,0,0,0,84.31,6Z"/>
      </g>
    </g>
    <g id="group1115-5">
      <g id="group1116-6">
        <g id="group1117-7">
          <g id="shape1118-8">
            <path id="path33" class="cls-5" d="M66.68,17.19a17,17,0,0,1-2-2.35,18.28,18.28,0,0,0-1.66,6.88c.11.16.11.29.23.44a12.55,12.55,0,0,0,2,2.05A14.13,14.13,0,0,1,66.68,17.19Z"/>
          </g>
        </g>
        <g id="shape1119-10">
          <path id="path39" class="cls-5" d="M71.29,7.75a21,21,0,0,0-3.33,3,15.71,15.71,0,0,0-1.61,2,15.42,15.42,0,0,0,1.9,2.46,16.32,16.32,0,0,1,2.2-2.56,26.47,26.47,0,0,1,3.13-2.61C72.78,9.31,72,8.54,71.29,7.75Z"/>
        </g>
        <g id="group1120-12">
          <g id="shape1121-13">
            <path id="path46" class="cls-5" d="M82.76,7A12,12,0,0,0,81,5.13a12.53,12.53,0,0,0-8,1.53c.76.84,1.51,1.63,2.24,2.36C79.63,6.59,82.76,7,82.76,7Z"/>
          </g>
        </g>
        <g id="group1122-15">
          <g id="shape1123-16">
            <path id="path54" class="cls-5" d="M65,15a19.82,19.82,0,0,1,1.19-2.06,9.84,9.84,0,0,1-1.6-6.79,13.09,13.09,0,0,0-1.29,1.6C62.87,9.34,62.85,11.9,65,15Z"/>
          </g>
        </g>
        <g id="group1124-18">
          <g id="shape1125-19">
            <path id="path62" class="cls-5" d="M70.52,17.37a21.6,21.6,0,0,1-2.27-2.14,14.25,14.25,0,0,0-1.14,1.95,23.54,23.54,0,0,0,2.09,1.91,19.12,19.12,0,0,0,12.56,4.38,9,9,0,0,0,1.54-1.94C82.07,21.79,76.81,22.48,70.52,17.37Z"/>
          </g>
        </g>
        <g id="group1126-21">
          <g id="shape1127-22">
            <path id="path70" class="cls-5" d="M65.16,14.83a15.72,15.72,0,0,0,2,2.35,15.36,15.36,0,0,1,1.14-1.95,15.42,15.42,0,0,1-1.9-2.46A15.58,15.58,0,0,0,65.16,14.83Z"/>
          </g>
        </g>
        <g id="group1128-24">
          <g id="shape1129-25">
            <path id="path78" class="cls-5" d="M73.58,10.07a97,97,0,0,0,11.15,8.82,9.82,9.82,0,0,0,.33-1.05A95.51,95.51,0,0,1,75.23,9Q74.44,9.47,73.58,10.07Z"/>
          </g>
        </g>
        <g id="group1130-27">
          <g id="shape1131-28">
            <path id="path86" class="cls-5" d="M73,6.66q-1.65-1.77-3.36-3.8A10.05,10.05,0,0,0,68,3.52a26.3,26.3,0,0,0,3.24,4.22A17.22,17.22,0,0,1,73,6.66Z"/>
          </g>
        </g>
        <g id="shape1132-30">
          <path id="path92" class="cls-5" d="M73.06,6.62a18.74,18.74,0,0,0-1.87,1.19c.72.78,1.45,1.59,2.25,2.35.57-.4,1.34-.88,1.87-1.18C74.57,8.25,73.82,7.46,73.06,6.62Z"/>
        </g>
        <g id="shape1133-32">
          <path id="path97" class="cls-5" d="M72.86,6.52a16.24,16.24,0,0,0-1.67,1.12c.72.79,1.74,1.81,2.54,2.57.57-.4,1-.8,1.58-1.11C74.57,8.38,73.61,7.35,72.86,6.52Z"/>
        </g>
      </g>
      <g id="group1134-34">
        <g id="shape1135-35">
          <path id="path105" class="cls-5" d="M78.92,13.07a2.7,2.7,0,0,0-.48,3.7,2.56,2.56,0,0,0,3.63.51,2.72,2.72,0,0,0,.48-3.72A2.55,2.55,0,0,0,78.92,13.07Z"/>
        </g>
      </g>
      <g id="group1136-37">
        <g id="shape1137-38">
          <path id="path113" class="cls-5" d="M73.75,19.2a2.52,2.52,0,0,0-.45,3.44,2.37,2.37,0,0,0,3.36.45,2.49,2.49,0,0,0,.44-3.43A2.36,2.36,0,0,0,73.75,19.2Z"/>
        </g>
      </g>
      <g id="group1138-40">
        <g id="shape1139-41">
          <path id="path121" class="cls-5" d="M64.6,11.87a3.79,3.79,0,0,0-.68,5.21,3.58,3.58,0,0,0,5.1.7,3.8,3.8,0,0,0,.67-5.23A3.59,3.59,0,0,0,64.6,11.87Z"/>
        </g>
      </g>
    </g>
  </g>
  <g>
    <g>
      <path class="cls-9" d="M107,154V131.82C107,113.88,106,92,144,92"/>
      <path class="cls-9" d="M87.59,165.63h8.24c6.36,0,11.15-3.46,11.15-9.41v-16.7"/>
    </g>
    <g>
      <path class="cls-9" d="M106.19,29.55V51.92c0,18.06-1,40.08,37,40.08"/>
      <path class="cls-9" d="M89.12,16.36h7.26c5.59,0,9.81,3.67,9.81,10V44.08"/>
    </g>
    <g>
      <g id="shape1048-85">
        <g id="use1001">
          <g id="lend5">
            <path id="path998" class="cls-10" d="M181,87.78l8,4-8,4a9,9,0,0,0,0-8"/>
          </g>
        </g>
      </g>
      <g id="shape1049-91">
        <path class="cls-10" d="M181,87.79l8,4-8,4a9,9,0,0,0,0-8"/>
      </g>
      <g id="shape1070-129">
        <path class="cls-10" d="M181,87.79l8,4-8,4a9.06,9.06,0,0,0,0-8"/>
      </g>
      <rect class="cls-11" x="91.55" y="91.49" width="91.09" height="1" rx="0.42"/>
    </g>
  </g>
</svg>
