<?xml version="1.0" encoding="utf-8"?>
<!-- Generator: Adobe Illustrator 23.0.1, SVG Export Plug-In . SVG Version: 6.00 Build 0)  -->
<svg version="1.1" xmlns="http://www.w3.org/2000/svg" xmlns:xlink="http://www.w3.org/1999/xlink" x="0px" y="0px"
	 viewBox="0 0 266.8 200.3" style="enable-background:new 0 0 266.8 200.3;" xml:space="preserve">
<style type="text/css">
	.st0{fill-rule:evenodd;clip-rule:evenodd;fill:#008BFD;}
	.st1{fill-rule:evenodd;clip-rule:evenodd;fill:#0078D7;}
	.st2{fill-rule:evenodd;clip-rule:evenodd;fill:#808080;}
	.st3{fill-rule:evenodd;clip-rule:evenodd;fill:#505050;}
	.st4{fill:none;}
	.st5{enable-background:new    ;}
	.st6{fill:#00B0F0;}
	.st7{fill:#505050;}
</style>
<g id="shapes" xmlns:ev="http://www.w3.org/2001/xml-events" xmlns:v="http://schemas.microsoft.com/visio/2003/SVGExtensions/">
	<g>
		<g id="group1278-2">
			<g id="shape1279-3">
				<path class="st0" d="M79.6,24.4c-2.2,1.7-4.8,2.5-7.3,2.5c-3.6,0-7.2-1.7-9.6-4.8c-4-5.4-3-13.1,2.2-17.3
					c2.2-1.7,4.8-2.5,7.3-2.5c3.6,0,7.2,1.7,9.6,4.8C85.9,12.5,84.9,20.3,79.6,24.4z M83.2,6c-2.7-3.6-6.8-5.6-11-5.6
					c-2.9,0-5.9,1-8.4,2.9c-6,4.8-7.2,13.7-2.5,19.9c2.7,3.6,6.8,5.6,11,5.6c2.9,0,5.9-0.9,8.4-2.9C86.7,21.1,87.9,12.2,83.2,6z"/>
			</g>
		</g>
		<g id="group1280-5" transform="translate(4.95554,-4.39536)">
			<g id="group1281-6" transform="translate(0.341805,-0.176482)">
				<g id="group1282-7" transform="translate(0.437248,3.12639E-13)">
					<g id="shape1283-8">
						<path class="st0" d="M60.3,21.8c-0.8-0.8-1.4-1.6-2-2.4c-1.2,2.4-1.6,4.9-1.7,6.9c0.1,0.2,0.1,0.3,0.2,0.4
							c0.6,0.8,1.3,1.5,2,2.1C58.8,27.2,59,24.5,60.3,21.8z"/>
					</g>
				</g>
				<g id="shape1284-10" transform="translate(3.29213,-8.97695)">
					<path class="st0" d="M61.6,21.3c-1.1,0.8-2.2,1.7-3.3,3c-0.6,0.7-1.2,1.4-1.6,2.1c0.5,0.8,1.1,1.6,1.9,2.5
						c0.6-0.9,1.3-1.7,2.2-2.6c1.1-1.1,2.2-1.9,3.1-2.6C63.1,22.9,62.3,22.1,61.6,21.3z"/>
				</g>
				<g id="group1285-12" transform="translate(9.93516,-15.1958)">
					<g id="shape1286-13">
						<path class="st0" d="M66.5,26.7c-0.5-0.7-1.1-1.3-1.7-1.8c-1.9-0.3-4.7-0.3-8,1.5c0.8,0.8,1.5,1.6,2.2,2.4
							C63.3,26.4,66.5,26.7,66.5,26.7z"/>
					</g>
				</g>
				<g id="group1287-15" transform="translate(1.10162E-13,-9.38012)">
					<g id="shape1288-16">
						<path class="st0" d="M58.8,28.8c0.3-0.7,0.7-1.4,1.2-2.1c-1.9-3.1-1.8-5.6-1.6-6.8c-0.5,0.5-0.9,1-1.3,1.6
							C56.7,23.1,56.7,25.7,58.8,28.8z"/>
					</g>
				</g>
				<g id="group1289-18" transform="translate(4.05148,-0.740211)">
					<g id="shape1290-19">
						<path class="st0" d="M60.1,22.7c-0.9-0.7-1.6-1.4-2.3-2.1c-0.5,0.7-0.8,1.3-1.1,1.9c0.6,0.6,1.3,1.3,2.1,1.9
							c4.9,4,9.8,4.4,12.6,4.4c0.2,0,1-1.2,1.5-1.9C71.7,27.1,66.4,27.8,60.1,22.7z"/>
					</g>
				</g>
				<g id="group1291-21" transform="translate(2.10339,-7.03041)">
					<g id="shape1292-22">
						<path class="st0" d="M56.7,26.4c0.5,0.8,1.2,1.5,2,2.4c0.3-0.6,0.7-1.3,1.1-1.9c-0.8-0.9-1.4-1.7-1.9-2.5
							C57.4,25.1,57,25.8,56.7,26.4z"/>
					</g>
				</g>
				<g id="group1293-24" transform="translate(10.5195,-5.3233)">
					<g id="shape1294-25">
						<path class="st0" d="M56.7,20c4.5,4.3,9.8,7.9,11.1,8.8c0.1-0.4,0.2-0.7,0.3-1.1c-1.4-1.1-5.3-4.2-9.8-8.8
							C57.8,19.2,57.3,19.6,56.7,20z"/>
					</g>
				</g>
				<g id="group1295-27" transform="translate(4.98729,-16.4714)">
					<g id="shape1296-28">
						<path class="st0" d="M61.6,27.7c-1.1-1.2-2.2-2.4-3.4-3.8c-0.5,0.2-1.1,0.4-1.6,0.7c0.8,1.4,2,2.8,3.2,4.2
							C60.5,28.4,61.1,28,61.6,27.7z"/>
					</g>
				</g>
				<g id="shape1297-30" transform="translate(8.13763,-14.0503)">
					<path class="st0" d="M58.6,25.2c-0.6,0.3-1.3,0.8-1.9,1.2c0.7,0.8,1.5,1.6,2.3,2.4c0.6-0.4,1.3-0.9,1.9-1.2
						C60.1,26.9,59.3,26.1,58.6,25.2z"/>
				</g>
				<g id="shape1298-32" transform="translate(8.1369,-14.0039)">
					<path class="st0" d="M58.4,25.1c-0.6,0.3-1.1,0.7-1.7,1.1c0.7,0.8,1.7,1.8,2.5,2.6c0.6-0.4,1-0.8,1.6-1.1
						C60.1,26.9,59.1,25.9,58.4,25.1z"/>
				</g>
			</g>
			<g id="group1299-34" transform="translate(14.8617,-6.23662)">
				<g id="shape1300-35">
					<path class="st0" d="M58,23.7c-1.1,0.9-1.3,2.6-0.5,3.7c0.9,1.2,2.5,1.4,3.6,0.5c1.1-0.9,1.3-2.6,0.5-3.7
						C60.8,23,59.2,22.8,58,23.7z"/>
				</g>
			</g>
			<g id="group1301-37" transform="translate(9.65099,-2.27374E-13)">
				<g id="shape1302-38">
					<path class="st0" d="M57.9,24.1c-1,0.8-1.2,2.4-0.5,3.4c0.8,1.1,2.3,1.3,3.4,0.4c1-0.8,1.2-2.4,0.4-3.4
						C60.5,23.5,59,23.3,57.9,24.1z"/>
				</g>
			</g>
			<g id="group1303-40" transform="translate(0,-5.36433)">
				<g id="shape1304-41">
					<path class="st0" d="M58.6,21.6c-1.6,1.3-1.9,3.6-0.7,5.2c1.2,1.6,3.5,1.9,5.1,0.7c1.6-1.3,1.9-3.6,0.7-5.2
						C62.5,20.7,60.2,20.4,58.6,21.6z"/>
				</g>
			</g>
		</g>
	</g>
	<path class="st0" d="M257.6,79h-20.5c-0.6,0-1.1,0.5-1.1,1.1v16.8c0,0.6,0.5,1.1,1.1,1.1h5.3c0.4,1.3,1.7,2.3,3.2,2.3
		c1.8,0,3.3-1.5,3.3-3.4s-1.5-3.4-3.3-3.4c-1.5,0-2.8,0.9-3.2,2.3h-4.2v-12h18.3v12H253c-0.5-3.7-3.7-6.6-7.5-6.6
		c-1.3,0-2.6,0.4-3.6,0.9l1,2c0.7-0.4,1.7-0.7,2.6-0.7c2.9,0,5.4,2.5,5.4,5.5c0,3-2.4,5.4-5.4,5.4c-0.9,0-1.8-0.2-2.6-0.7l-1,2
		c1.1,0.6,2.4,0.9,3.6,0.9c3.8,0,7-2.9,7.5-6.6h4.6c0.6,0,1.1-0.5,1.1-1.1V80.1C258.7,79.6,258.2,79,257.6,79z"/>
	<g>
		<g id="shape1318-51">
			<path class="st1" d="M72.6,106H58.4V77.6h14.2v7.7h0.8v-8.4H57.6v29.9h15.7v-2.3h-0.8V106z"/>
		</g>
		<g id="shape1319-53" transform="translate(1.5606,-23.7593)">
			<path class="st1" d="M70.3,102.1H57.6v4.6h12.6V102.1z M60.7,104.1h6.5v0.8h-6.5V104.1z M67.3,105.9L67.3,105.9h-6.5h-0.1v-0.8
				h0.1h6.4h0.1V105.9z"/>
		</g>
		<g id="shape1320-55" transform="translate(1.52875,-19.9374)">
			<path class="st1" d="M57.6,103.7v3.1h8.6v-1.5h4.1v-1.5H57.6z"/>
		</g>
		<g id="shape1321-57" transform="translate(1.52875,-16.4978)">
			<rect x="57.6" y="104.1" class="st1" width="8.6" height="2.7"/>
		</g>
		<g id="shape1322-59" transform="translate(1.4969,-1.52875)">
			<path class="st1" d="M57.7,106.7h12.6v-0.8h-4.1V92.6h-8.6L57.7,106.7L57.7,106.7z M59.2,104h2.3v1.2h-2.3V104z"/>
		</g>
		<g id="shape1323-61" transform="translate(16.02,-3.43969)">
			<path class="st1" d="M66.4,105.6h-2.5v-1.9h-2.5v1.9h-2.5c-0.7,0-1.3,0.6-1.3,1.2h10C67.7,106.2,67,105.6,66.4,105.6z"/>
		</g>
		<g id="shape1324-63" transform="translate(11.816,-7.22971)">
			<path class="st1" d="M75.4,95.4H58.3c-0.3,0-0.7,0.3-0.7,0.6v10.1c0,0.3,0.3,0.6,0.7,0.6h17.1c0.3,0,0.7-0.3,0.7-0.6V96
				C76.1,95.7,75.8,95.4,75.4,95.4z M74.4,105.2H59.3v-8.3h15.1V105.2z"/>
		</g>
		<g id="shape1325-65" transform="translate(17.931,-9.36359)">
			<path class="st1" d="M64.6,104.9v-3.4l-3.5-1.8l-3.5,1.8v3.5l3.5,1.8L64.6,104.9z M60.2,102.6l0.9-0.4l0.9,0.4l-0.9,0.5
				L60.2,102.6z M60.3,101.4l0.9-0.4l0.9,0.4l-0.9,0.5L60.3,101.4z M62.2,106l-1,0.5v-0.9l1-0.5V106z M62.2,104.8l-1,0.5v-0.9l1-0.5
				V104.8z M62.2,103.7l-1,0.5v-0.9l1-0.5V103.7z M61.4,102l0.9-0.4l0.9,0.4l-0.9,0.4L61.4,102z M63.4,105.4l-1,0.5V105l1-0.5V105.4
				z M63.4,104.2l-1,0.5v-0.9l1-0.5V104.2z M63.4,103l-1,0.5v-0.9l1-0.5V103z M64.4,104.8l-0.9,0.4v-0.9l0.9-0.5V104.8z M64.4,103.6
				l-0.9,0.4v-0.9l0.9-0.4V103.6z M64.4,102.5l-0.9,0.4V102l0.9-0.4V102.5z M64.2,101.4l-0.9,0.5l-0.9-0.5l0.9-0.4L64.2,101.4z
				 M63.1,100.9l-0.9,0.4l-0.9-0.4l0.9-0.4L63.1,100.9z M61.1,99.8l0.9,0.4l-0.9,0.4l-0.9-0.4L61.1,99.8z M60,100.4l0.9,0.4
				l-0.9,0.4l-0.9-0.4L60,100.4z M58.9,101l0.9,0.4l-0.9,0.5l-0.9-0.5L58.9,101z M58.7,105.3l-0.9-0.4v-0.9l0.9,0.4V105.3z
				 M58.7,104.1l-0.9-0.4v-0.9l0.9,0.4V104.1z M58.7,102.9l-0.9-0.4v-0.9l0.9,0.4V102.9z M59.9,105.9l-1-0.5v-0.9l1,0.5V105.9z
				 M59.9,104.7l-1-0.5v-0.9l1,0.5V104.7z M59.9,103.6l-1-0.5v-0.9l1,0.5V103.6z M59.2,102l0.9-0.4l0.9,0.4l-0.9,0.5L59.2,102z
				 M61,106.5l-1-0.5v-0.9l1,0.5V106.5z M61,105.3l-1-0.5v-0.9l1,0.5V105.3z M61,104.2l-1-0.5v-0.9l1,0.5V104.2z"/>
		</g>
	</g>
	<g>
		<g id="shape1338-71" transform="translate(-9.29257E-14,-5.02924)">
			<path class="st2" d="M18.4,21.5h-6.7c-0.3,0-0.6-0.3-0.6-0.6v-6.4H13v-1.8h12.4c0.3,0,0.6,0.3,0.6,0.6v0.1c0.3,0.1,0.6,0.2,1,0.3
				v-0.4c0-0.8-0.7-1.5-1.6-1.5h-13L10.1,14v6.9c0,0.8,0.7,1.5,1.6,1.5H19C18.8,22.1,18.6,21.8,18.4,21.5z"/>
		</g>
		<g id="group1339-73" transform="translate(8.44762,0)">
			<g id="group1340-74" transform="translate(0.737786,0)">
				<g id="shape1341-75">
					<path class="st2" d="M17.6,18l2.3,3.3l-2.2-0.5l-0.6,1.6l-2.3-2.9l-1.8,2.9l-0.8-1.7l-2.2,0.5l2.1-3.4c0,0,0.6,0.9,2.7,0.9
						C17.1,18.7,17.6,18,17.6,18z"/>
				</g>
			</g>
			<g id="group1342-77" transform="translate(1.9839,-4.95422)">
				<g id="shape1343-78">
					<path class="st2" d="M13.9,22.4c-2,0-3.7-1.5-3.7-3.4c0-1.9,1.7-3.4,3.7-3.4c2.1,0,3.7,1.5,3.7,3.4
						C17.6,20.9,15.9,22.4,13.9,22.4z M13.9,16.3c-1.6,0-2.9,1.2-2.9,2.6s1.3,2.6,2.9,2.6c1.6,0,2.9-1.2,2.9-2.6
						S15.5,16.3,13.9,16.3z"/>
				</g>
			</g>
			<g id="group1344-80" transform="translate(0,-3.14179)">
				<g id="shape1345-81">
					<path class="st2" d="M15.8,22.4c-3.1,0-5.7-2.3-5.7-5.2c0-2.9,2.6-5.2,5.7-5.2s5.7,2.3,5.7,5.2C21.5,20.1,19,22.4,15.8,22.4z
						 M15.8,12.7c-2.7,0-4.9,2-4.9,4.5c0,2.5,2.2,4.5,4.9,4.5s4.9-2,4.9-4.5C20.7,14.7,18.5,12.7,15.8,12.7z"/>
				</g>
			</g>
		</g>
	</g>
	<g transform="scale(-2.68,-2.68) ">
		<g id="lend5">
			<path class="st3" d="M224.6,87.8l8,4l-8,4C225.9,93.2,225.9,90.3,224.6,87.8"/>
		</g>
	</g>
	<g transform="scale(-2.68,-2.68) ">
		<g>
			<path class="st3" d="M224.6,87.8l8,4l-8,4C225.9,93.2,225.9,90.3,224.6,87.8"/>
		</g>
	</g>
	<path class="st0" d="M83,154.8H62.5c-0.6,0-1.1,0.5-1.1,1.1v16.8c0,0.6,0.5,1.1,1.1,1.1h5.3c0.4,1.3,1.7,2.3,3.2,2.3
		c1.8,0,3.3-1.5,3.3-3.4s-1.5-3.4-3.3-3.4c-1.5,0-2.8,0.9-3.2,2.3h-4.2v-12h18.3v12h-3.4c-0.5-3.7-3.7-6.6-7.5-6.6
		c-1.3,0-2.6,0.4-3.6,0.9l1,2c0.7-0.4,1.7-0.7,2.5-0.7c2.9,0,5.4,2.5,5.4,5.5c0,3-2.4,5.4-5.4,5.4c-0.9,0-1.8-0.2-2.5-0.7l-1,2
		c1.1,0.6,2.4,0.9,3.6,0.9c3.8,0,7-2.9,7.5-6.6H83c0.6,0,1.1-0.5,1.1-1.1v-16.8C84.1,155.3,83.6,154.8,83,154.8z"/>
	<g>
		<g id="shape1386-100" transform="translate(-9.29257E-14,-5.02924)">
			<path class="st2" d="M18.4,98.7h-6.7c-0.3,0-0.6-0.3-0.6-0.6v-6.4H13v-1.8h12.4c0.3,0,0.6,0.3,0.6,0.6v0.1c0.3,0.1,0.6,0.2,1,0.3
				v-0.4c0-0.8-0.7-1.5-1.6-1.5h-13l-2.3,2.2v6.9c0,0.8,0.7,1.5,1.6,1.5H19C18.8,99.3,18.6,99,18.4,98.7z"/>
		</g>
		<g id="group1387-102" transform="translate(8.44762,0)">
			<g id="group1388-103" transform="translate(0.737786,0)">
				<g id="shape1389-104">
					<path class="st2" d="M17.6,95.2l2.3,3.3l-2.2-0.5l-0.6,1.6l-2.3-2.9l-1.8,2.9l-0.8-1.7l-2.2,0.5l2.1-3.4c0,0,0.6,0.9,2.7,0.9
						C17.1,95.9,17.6,95.2,17.6,95.2z"/>
				</g>
			</g>
			<g id="group1390-106" transform="translate(1.9839,-4.95422)">
				<g id="shape1391-107">
					<path class="st2" d="M13.9,99.6c-2,0-3.7-1.5-3.7-3.4c0-1.9,1.7-3.4,3.7-3.4c2.1,0,3.7,1.5,3.7,3.4
						C17.6,98.1,15.9,99.6,13.9,99.6z M13.9,93.5c-1.6,0-2.9,1.2-2.9,2.6s1.3,2.6,2.9,2.6c1.6,0,2.9-1.2,2.9-2.6
						S15.5,93.5,13.9,93.5z"/>
				</g>
			</g>
			<g id="group1392-109" transform="translate(0,-3.14179)">
				<g id="shape1393-110">
					<path class="st2" d="M15.8,99.6c-3.1,0-5.7-2.3-5.7-5.2c0-2.9,2.6-5.2,5.7-5.2s5.7,2.3,5.7,5.2C21.5,97.2,19,99.6,15.8,99.6z
						 M15.8,89.9c-2.7,0-4.9,2-4.9,4.5c0,2.5,2.2,4.5,4.9,4.5s4.9-2,4.9-4.5C20.7,91.9,18.5,89.9,15.8,89.9z"/>
				</g>
			</g>
		</g>
	</g>
	<g>
		<g id="shape1417-115" transform="translate(-9.29257E-14,-5.02924)">
			<path class="st2" d="M18.4,169.5h-6.7c-0.3,0-0.6-0.3-0.6-0.6v-6.4H13v-1.8h12.4c0.3,0,0.6,0.3,0.6,0.6v0.1
				c0.3,0.1,0.6,0.2,1,0.3v-0.4c0-0.8-0.7-1.5-1.6-1.5h-13l-2.3,2.2v6.9c0,0.8,0.7,1.5,1.6,1.5H19C18.8,170.1,18.6,169.8,18.4,169.5
				z"/>
		</g>
		<g id="group1418-117" transform="translate(8.44762,0)">
			<g id="group1419-118" transform="translate(0.737786,0)">
				<g id="shape1420-119">
					<path class="st2" d="M17.6,166l2.3,3.3l-2.2-0.5l-0.6,1.6l-2.3-2.9l-1.8,2.9l-0.8-1.7l-2.2,0.5l2.1-3.4c0,0,0.6,0.9,2.7,0.9
						C17.1,166.7,17.6,166,17.6,166z"/>
				</g>
			</g>
			<g id="group1421-121" transform="translate(1.9839,-4.95422)">
				<g id="shape1422-122">
					<path class="st2" d="M13.9,170.4c-2,0-3.7-1.5-3.7-3.4c0-1.9,1.7-3.4,3.7-3.4c2.1,0,3.7,1.5,3.7,3.4
						C17.6,168.8,15.9,170.4,13.9,170.4z M13.9,164.3c-1.6,0-2.9,1.2-2.9,2.6s1.3,2.6,2.9,2.6c1.6,0,2.9-1.2,2.9-2.6
						S15.5,164.3,13.9,164.3z"/>
				</g>
			</g>
			<g id="group1423-124" transform="translate(0,-3.14179)">
				<g id="shape1424-125">
					<path class="st2" d="M15.8,170.4c-3.1,0-5.7-2.3-5.7-5.2c0-2.9,2.6-5.2,5.7-5.2s5.7,2.3,5.7,5.2C21.5,168,19,170.4,15.8,170.4z
						 M15.8,160.7c-2.7,0-4.9,2-4.9,4.5c0,2.5,2.2,4.5,4.9,4.5s4.9-2,4.9-4.5C20.7,162.7,18.5,160.7,15.8,160.7z"/>
				</g>
			</g>
		</g>
	</g>
	<g transform="scale(-2.68,-2.68) ">
		<g>
			<path class="st3" d="M224.6,87.8l8,4l-8,4C225.9,93.3,225.9,90.3,224.6,87.8"/>
		</g>
	</g>
	<rect x="151" y="63" class="st4" width="80.5" height="20"/>
</g>
<g id="txt" xmlns:ev="http://www.w3.org/2001/xml-events" xmlns:v="http://schemas.microsoft.com/visio/2003/SVGExtensions/">
	<g class="st5">
		<path d="M62.3,38.1h-2.5v-0.5H65v0.5h-2c0,0.7,0,1.1-0.1,1.5c0,0.3-0.1,0.6-0.2,0.8c-0.3,0.8-1,1.4-1.9,1.8l-0.4-0.4
			c0.9-0.4,1.5-0.9,1.7-1.6C62.3,39.7,62.3,39.1,62.3,38.1z M60.4,35.8h3.4v0.5h-3.4V35.8z M63.8,35.2l0.4-0.2
			c0.2,0.3,0.4,0.8,0.6,1.4l-0.4,0.2C64.2,36.1,64.1,35.6,63.8,35.2z M64.7,34.9l0.4-0.1c0.2,0.3,0.4,0.8,0.6,1.3l-0.4,0.2
			C65.1,35.7,64.9,35.3,64.7,34.9z"/>
		<path d="M65.8,38.5h4.4v0.6h-4.4V38.5z"/>
		<path d="M72.9,38.1h2.6v0.5h-2.6v2.2c0,0.3,0.1,0.4,0.2,0.5c0.2,0.1,0.4,0.1,0.7,0.1c0.5,0,1,0,1.5-0.1V42c-0.6,0-1.1,0.1-1.5,0.1
			c-0.6,0-1-0.1-1.2-0.2c-0.3-0.2-0.4-0.5-0.4-1v-2.2h-1.8v-0.5h1.8v-1.8h-1.5v-0.5h4.5v0.5h-2.4V38.1z"/>
		<path d="M75.9,36.1c0.8,0.4,1.4,0.8,1.9,1.2l-0.4,0.5c-0.5-0.4-1.1-0.8-1.8-1.2L75.9,36.1z M80,36.5l0.6,0.3
			c-0.2,1.4-0.7,2.5-1.5,3.3c-0.8,0.9-1.8,1.5-3.2,1.8l-0.3-0.5C78.1,40.8,79.6,39.1,80,36.5z"/>
		<path d="M61.3,45.8l-1.6,5.6h-0.8l-1.2-4.1c0-0.2-0.1-0.4-0.1-0.6h0c0,0.2,0,0.4-0.1,0.6l-1.2,4.1h-0.8L54,45.8h0.7l1.2,4.3
			c0,0.2,0.1,0.4,0.1,0.6h0c0-0.1,0.1-0.3,0.1-0.6l1.2-4.3H58l1.2,4.3c0,0.1,0.1,0.3,0.1,0.5h0c0-0.1,0-0.3,0.1-0.5l1.1-4.3H61.3z"
			/>
		<path d="M64.7,49.5h-2.8c0,0.4,0.1,0.8,0.4,1s0.5,0.4,0.9,0.4c0.5,0,0.9-0.1,1.2-0.4v0.6c-0.4,0.3-0.8,0.4-1.4,0.4
			c-0.6,0-1-0.2-1.3-0.5s-0.5-0.9-0.5-1.5c0-0.6,0.2-1.1,0.5-1.5s0.8-0.6,1.3-0.6s0.9,0.2,1.2,0.5s0.4,0.8,0.4,1.4V49.5z M64,49
			c0-0.4-0.1-0.7-0.3-0.9s-0.4-0.3-0.7-0.3c-0.3,0-0.6,0.1-0.8,0.3s-0.3,0.5-0.4,0.8H64z"/>
		<path d="M66.1,50.8L66.1,50.8l0,0.6h-0.6v-5.9h0.6v2.6h0c0.3-0.5,0.8-0.8,1.4-0.8c0.5,0,0.9,0.2,1.2,0.5s0.4,0.8,0.4,1.4
			c0,0.7-0.2,1.2-0.5,1.6s-0.8,0.6-1.3,0.6C66.8,51.5,66.4,51.3,66.1,50.8z M66.1,49.2v0.6c0,0.3,0.1,0.6,0.3,0.8s0.5,0.3,0.8,0.3
			c0.4,0,0.7-0.1,0.9-0.4s0.3-0.7,0.3-1.2c0-0.4-0.1-0.8-0.3-1s-0.5-0.4-0.8-0.4c-0.4,0-0.7,0.1-0.9,0.4S66.1,48.8,66.1,49.2z"/>
		<path d="M71.3,45.4h5.2c-0.1,0.7-0.3,1.3-0.5,1.8c-0.2,0.4-0.5,0.8-1,1.2L74.6,48c0.3-0.3,0.6-0.6,0.8-1c0.2-0.3,0.3-0.7,0.3-1
			h-4.5V45.4z M71.5,51.2c0.7-0.3,1.2-0.7,1.4-1.2c0.3-0.5,0.4-1.2,0.4-2.1v-1.3H74v1.3c0,1.1-0.2,2-0.6,2.6
			c-0.3,0.4-0.8,0.8-1.5,1.2L71.5,51.2z"/>
		<path d="M81.1,46.1c-0.1,1.5-0.3,2.6-0.8,3.4c-0.6,1-1.5,1.7-2.9,2.2L77,51.2c1.2-0.4,2.1-1,2.6-1.9c0.5-0.8,0.8-1.9,0.8-3.3h-3.7
			v-0.5h3.8c0-0.1-0.1-0.2-0.1-0.3c0-0.3,0.1-0.5,0.3-0.7c0.2-0.2,0.4-0.2,0.6-0.2c0.3,0,0.5,0.1,0.7,0.3c0.2,0.2,0.2,0.4,0.2,0.6
			c0,0.3-0.1,0.5-0.3,0.7c-0.2,0.2-0.4,0.2-0.6,0.2C81.3,46.2,81.2,46.1,81.1,46.1z M81.3,44.7c-0.2,0-0.3,0.1-0.4,0.2
			c-0.1,0.1-0.1,0.2-0.1,0.4c0,0.2,0.1,0.3,0.2,0.4c0.1,0.1,0.2,0.1,0.4,0.1c0.2,0,0.3-0.1,0.4-0.2c0.1-0.1,0.1-0.2,0.1-0.4
			c0-0.2-0.1-0.3-0.2-0.4C81.6,44.8,81.5,44.7,81.3,44.7z"/>
		<path d="M83.1,45.2v3.9h-0.6v-3.9H83.1z M82.9,51.2c1-0.2,1.6-0.6,2-1c0.3-0.5,0.5-1.2,0.5-2.1v-2.9H86v3c0,1.2-0.3,2-0.8,2.5
			c-0.4,0.5-1.1,0.8-2.1,1L82.9,51.2z"/>
	</g>
	<g class="st5">
		<path d="M239.6,113.8h-2.5v-0.5h5.1v0.5h-2c0,0.7,0,1.1-0.1,1.5c0,0.3-0.1,0.6-0.2,0.8c-0.3,0.8-1,1.4-1.9,1.8l-0.4-0.4
			c0.9-0.4,1.5-0.9,1.7-1.6C239.5,115.5,239.6,114.8,239.6,113.8z M237.7,111.5h3.4v0.5h-3.4V111.5z M241.1,111l0.4-0.2
			c0.2,0.3,0.4,0.8,0.6,1.4l-0.4,0.2C241.5,111.8,241.4,111.4,241.1,111z M242,110.7l0.4-0.1c0.2,0.3,0.4,0.8,0.6,1.3l-0.4,0.2
			C242.4,111.5,242.2,111,242,110.7z"/>
		<path d="M243.1,114.3h4.4v0.6h-4.4V114.3z"/>
		<path d="M250.2,113.9h2.6v0.5h-2.6v2.2c0,0.3,0.1,0.4,0.2,0.5c0.2,0.1,0.4,0.1,0.7,0.1c0.5,0,1,0,1.5-0.1v0.6
			c-0.6,0-1.1,0.1-1.5,0.1c-0.6,0-1-0.1-1.2-0.2c-0.3-0.2-0.4-0.5-0.4-1v-2.2h-1.8v-0.5h1.8v-1.8h-1.5v-0.5h4.5v0.5h-2.4V113.9z"/>
		<path d="M253.2,111.8c0.8,0.4,1.4,0.8,1.9,1.2l-0.4,0.5c-0.5-0.4-1.1-0.8-1.8-1.2L253.2,111.8z M257.3,112.2l0.6,0.3
			c-0.2,1.4-0.7,2.5-1.5,3.3c-0.8,0.9-1.8,1.5-3.2,1.8l-0.3-0.5C255.4,116.5,256.9,114.9,257.3,112.2z"/>
		<path d="M238.4,127.1h-0.7l-0.6-1.6h-2.4l-0.6,1.6h-0.7l2.1-5.6h0.7L238.4,127.1z M236.9,125l-0.9-2.4c0-0.1-0.1-0.2-0.1-0.4h0
			c0,0.2-0.1,0.3-0.1,0.4l-0.9,2.4H236.9z"/>
		<path d="M239.6,125v2.1H239v-5.6h1.5c0.6,0,1.1,0.1,1.4,0.4c0.3,0.3,0.5,0.7,0.5,1.2s-0.2,1-0.5,1.3c-0.4,0.3-0.9,0.5-1.5,0.5
			H239.6z M239.6,122.1v2.3h0.7c0.5,0,0.8-0.1,1-0.3s0.4-0.5,0.4-0.9c0-0.7-0.4-1.1-1.3-1.1H239.6z"/>
		<path d="M243.9,127.1h-0.7v-5.6h0.7V127.1z"/>
		<path d="M246.4,121.2h5.2c-0.1,0.7-0.3,1.3-0.5,1.8c-0.2,0.4-0.5,0.8-1,1.2l-0.5-0.4c0.3-0.3,0.6-0.6,0.8-1c0.2-0.3,0.3-0.7,0.3-1
			h-4.5V121.2z M246.7,127c0.7-0.3,1.2-0.7,1.4-1.2c0.3-0.5,0.4-1.2,0.4-2.1v-1.3h0.6v1.3c0,1.1-0.2,2-0.6,2.6
			c-0.3,0.4-0.8,0.8-1.5,1.2L246.7,127z"/>
		<path d="M256.2,121.9c-0.1,1.5-0.3,2.6-0.8,3.4c-0.6,1-1.5,1.7-2.9,2.2l-0.3-0.5c1.2-0.4,2.1-1,2.6-1.9c0.5-0.8,0.8-1.9,0.8-3.3
			h-3.7v-0.5h3.8c0-0.1-0.1-0.2-0.1-0.3c0-0.3,0.1-0.5,0.3-0.7c0.2-0.2,0.4-0.2,0.6-0.2c0.3,0,0.5,0.1,0.7,0.3
			c0.2,0.2,0.2,0.4,0.2,0.6c0,0.3-0.1,0.5-0.3,0.7c-0.2,0.2-0.4,0.2-0.6,0.2C256.4,121.9,256.3,121.9,256.2,121.9z M256.5,120.5
			c-0.2,0-0.3,0.1-0.4,0.2c-0.1,0.1-0.1,0.2-0.1,0.4c0,0.2,0.1,0.3,0.2,0.4c0.1,0.1,0.2,0.1,0.4,0.1c0.2,0,0.3-0.1,0.4-0.2
			c0.1-0.1,0.1-0.2,0.1-0.4c0-0.2-0.1-0.3-0.2-0.4C256.8,120.5,256.6,120.5,256.5,120.5z"/>
		<path d="M258.3,121v3.9h-0.6V121H258.3z M258.1,127c1-0.2,1.6-0.6,2-1c0.3-0.5,0.5-1.2,0.5-2.1v-2.9h0.6v3c0,1.2-0.3,2-0.8,2.5
			c-0.4,0.5-1.1,0.8-2.1,1L258.1,127z"/>
	</g>
	<g id="shape1317-67">
		<g class="st5">
			<path d="M59.1,113.4h-2.5v-0.5h5.1v0.5h-2c0,0.7,0,1.1-0.1,1.5c0,0.3-0.1,0.6-0.2,0.8c-0.3,0.8-1,1.4-1.9,1.8l-0.4-0.4
				c0.9-0.4,1.5-0.9,1.7-1.6C59.1,115,59.1,114.4,59.1,113.4z M57.2,111.1h3.4v0.5h-3.4V111.1z M60.6,110.5l0.4-0.2
				c0.2,0.3,0.4,0.8,0.6,1.4l-0.4,0.2C61,111.4,60.9,110.9,60.6,110.5z M61.5,110.2l0.4-0.1c0.2,0.3,0.4,0.8,0.6,1.3l-0.4,0.2
				C61.9,111.1,61.7,110.6,61.5,110.2z"/>
			<path d="M62.6,113.8H67v0.6h-4.4V113.8z"/>
			<path d="M69.7,113.4h2.6v0.5h-2.6v2.2c0,0.3,0.1,0.4,0.2,0.5c0.2,0.1,0.4,0.1,0.7,0.1c0.5,0,1,0,1.5-0.1v0.6
				c-0.6,0-1.1,0.1-1.5,0.1c-0.6,0-1-0.1-1.2-0.2c-0.3-0.2-0.4-0.5-0.4-1V114h-1.8v-0.5h1.8v-1.8h-1.5v-0.5h4.5v0.5h-2.4V113.4z"/>
			<path d="M72.7,111.4c0.8,0.4,1.4,0.8,1.9,1.2l-0.4,0.5c-0.5-0.4-1.1-0.8-1.8-1.2L72.7,111.4z M76.8,111.8l0.6,0.3
				c-0.2,1.4-0.7,2.5-1.5,3.3c-0.8,0.9-1.8,1.5-3.2,1.8l-0.3-0.5C74.9,116.1,76.4,114.5,76.8,111.8z"/>
			<path d="M46.9,123h-2.5v-0.5h5.1v0.5h-2c0,0.7,0,1.1-0.1,1.5c0,0.3-0.1,0.6-0.2,0.8c-0.3,0.8-1,1.4-1.9,1.8l-0.4-0.4
				c0.9-0.4,1.5-0.9,1.7-1.6C46.8,124.6,46.9,124,46.9,123z M44.9,120.7h3.4v0.5h-3.4V120.7z M48.4,120.1l0.4-0.2
				c0.2,0.3,0.4,0.8,0.6,1.4l-0.4,0.2C48.8,121,48.6,120.5,48.4,120.1z M49.3,119.8l0.4-0.1c0.2,0.3,0.4,0.8,0.6,1.3l-0.4,0.2
				C49.7,120.7,49.5,120.2,49.3,119.8z"/>
			<path d="M53.4,124.4c-0.7,1.1-1.6,1.9-2.9,2.5l-0.4-0.5c1.1-0.6,2-1.3,2.6-2.2c0.5-0.8,0.9-1.7,1.2-2.9h-3.4v-0.5h4.1
				c-0.2,1.2-0.6,2.2-1.1,3.1c0.7,0.9,1.3,1.8,1.9,2.7l-0.6,0.4C54.6,126.1,54,125.2,53.4,124.4z"/>
			<path d="M57.1,121.6c-0.4,0.9-0.9,1.7-1.5,2.3l-0.5-0.4c0.9-0.9,1.4-2,1.7-3.3l0.6,0.1c-0.1,0.2-0.1,0.5-0.2,0.8h2.8
				c-0.3,1.8-0.8,3.2-1.5,4.2c-0.6,0.7-1.4,1.3-2.5,1.8l-0.4-0.4c1.1-0.5,2-1.1,2.6-1.9c0.6-0.8,0.9-1.8,1.1-3.1H57.1z"/>
			<path d="M61.1,123.2v3.8h-0.6v-6.7h0.6v2.3c1.3,0.4,2.3,0.8,3,1.3l-0.3,0.6C63.1,124,62.2,123.6,61.1,123.2z"/>
			<path d="M62.9,122.4l0.5-0.2c0.2,0.4,0.4,1,0.7,1.7l-0.5,0.2C63.4,123.5,63.2,122.9,62.9,122.4z M63.8,126.7c1-0.4,1.7-1,2.1-1.8
				c0.4-0.7,0.6-1.7,0.7-2.9l0.6,0.1c-0.1,1.3-0.4,2.4-0.8,3.1c-0.3,0.4-0.6,0.8-1,1.1c-0.3,0.3-0.8,0.5-1.3,0.8L63.8,126.7z
				 M64.4,122l0.5-0.2c0.2,0.5,0.4,1,0.6,1.7l-0.5,0.2C64.8,123.1,64.6,122.5,64.4,122z"/>
			<path d="M71.4,121.4c-0.1,1.5-0.3,2.6-0.8,3.4c-0.6,1-1.5,1.7-2.9,2.2l-0.3-0.5c1.2-0.4,2.1-1,2.6-1.9c0.5-0.8,0.8-1.9,0.8-3.3
				H67v-0.5h3.8c0-0.1-0.1-0.2-0.1-0.3c0-0.3,0.1-0.5,0.3-0.7c0.2-0.2,0.4-0.2,0.6-0.2c0.3,0,0.5,0.1,0.7,0.3
				c0.2,0.2,0.2,0.4,0.2,0.6c0,0.3-0.1,0.5-0.3,0.7c-0.2,0.2-0.4,0.2-0.6,0.2C71.5,121.5,71.5,121.5,71.4,121.4z M71.6,120
				c-0.2,0-0.3,0.1-0.4,0.2c-0.1,0.1-0.1,0.2-0.1,0.4c0,0.2,0.1,0.3,0.2,0.4c0.1,0.1,0.2,0.1,0.4,0.1c0.2,0,0.3-0.1,0.4-0.2
				c0.1-0.1,0.1-0.2,0.1-0.4c0-0.2-0.1-0.3-0.2-0.4C71.9,120.1,71.8,120,71.6,120z"/>
			<path d="M74.6,120.7h5.2c-0.1,0.7-0.3,1.3-0.5,1.8c-0.2,0.4-0.5,0.8-1,1.2l-0.5-0.4c0.3-0.3,0.6-0.6,0.8-1c0.2-0.3,0.3-0.7,0.3-1
				h-4.5V120.7z M74.9,126.5c0.7-0.3,1.2-0.7,1.4-1.2c0.3-0.5,0.4-1.2,0.4-2.1v-1.3h0.6v1.3c0,1.1-0.2,2-0.6,2.6
				c-0.3,0.4-0.8,0.8-1.5,1.2L74.9,126.5z"/>
			<path d="M84.4,121.4c-0.1,1.5-0.3,2.6-0.8,3.4c-0.6,1-1.5,1.7-2.9,2.2l-0.3-0.5c1.2-0.4,2.1-1,2.6-1.9c0.5-0.8,0.8-1.9,0.8-3.3
				H80v-0.5h3.8c0-0.1-0.1-0.2-0.1-0.3c0-0.3,0.1-0.5,0.3-0.7c0.2-0.2,0.4-0.2,0.6-0.2c0.3,0,0.5,0.1,0.7,0.3
				c0.2,0.2,0.2,0.4,0.2,0.6c0,0.3-0.1,0.5-0.3,0.7c-0.2,0.2-0.4,0.2-0.6,0.2C84.6,121.5,84.5,121.5,84.4,121.4z M84.7,120
				c-0.2,0-0.3,0.1-0.4,0.2c-0.1,0.1-0.1,0.2-0.1,0.4c0,0.2,0.1,0.3,0.2,0.4c0.1,0.1,0.2,0.1,0.4,0.1c0.2,0,0.3-0.1,0.4-0.2
				c0.1-0.1,0.1-0.2,0.1-0.4c0-0.2-0.1-0.3-0.2-0.4C84.9,120.1,84.8,120,84.7,120z"/>
			<path d="M86.5,120.5v3.9h-0.6v-3.9H86.5z M86.2,126.5c1-0.2,1.6-0.6,2-1c0.3-0.5,0.5-1.2,0.5-2.1v-2.9h0.6v3c0,1.2-0.3,2-0.8,2.5
				c-0.4,0.5-1.1,0.8-2.1,1L86.2,126.5z"/>
		</g>
	</g>
	<g id="shape1337-83">
		<g class="st5">
			<path d="M5.4,31.6l0.3-0.5c0.9,0.4,1.6,0.6,1.9,0.8l-0.3,0.5C6.8,32.2,6.2,31.9,5.4,31.6z M10.3,30.4l0.6,0.3
				c-0.1,0.6-0.4,1.2-0.7,1.8C10,33,9.7,33.4,9.4,33.8c-0.8,0.9-1.8,1.4-3.2,1.7L5.9,35c1.2-0.2,2.3-0.7,3-1.6
				C9.6,32.7,10,31.7,10.3,30.4z M6.1,29.8l0.3-0.5c0.8,0.3,1.4,0.6,1.8,0.9l-0.3,0.5C7.5,30.5,6.9,30.2,6.1,29.8z"/>
			<path d="M11,32.1h4.4v0.6H11V32.1z"/>
			<path d="M16.9,30.3c-0.4,0.9-0.9,1.7-1.5,2.3L15,32.3c0.9-0.9,1.4-2,1.7-3.3l0.6,0.1c-0.1,0.2-0.1,0.5-0.2,0.8h2.8
				c-0.3,1.8-0.8,3.2-1.5,4.2c-0.6,0.7-1.4,1.3-2.5,1.8l-0.4-0.4c1.1-0.5,2-1.1,2.6-1.9c0.6-0.8,0.9-1.8,1.1-3.1H16.9z"/>
			<path d="M21.2,35c0.8-0.2,1.4-0.7,2-1.3c0.5-0.5,0.9-1.2,1.2-1.9l0.5,0.4c-0.4,0.9-1,1.7-1.7,2.3c-0.6,0.5-1.4,0.9-2.3,1.2
				l-0.4-0.3v-6.2h0.6V35z"/>
			<path d="M24,31.1l0.5-0.2c0.2,0.4,0.4,1,0.7,1.7l-0.5,0.2C24.5,32.2,24.3,31.6,24,31.1z M24.9,35.4c1-0.4,1.7-1,2.1-1.8
				c0.4-0.7,0.6-1.7,0.7-2.9l0.6,0.1c-0.1,1.3-0.4,2.4-0.8,3.1c-0.3,0.4-0.6,0.8-1,1.1c-0.3,0.3-0.8,0.5-1.3,0.8L24.9,35.4z
				 M25.5,30.7l0.5-0.2c0.2,0.5,0.4,1,0.6,1.7l-0.5,0.2C25.9,31.8,25.8,31.2,25.5,30.7z"/>
			<path d="M29.1,31.9v3.8h-0.6V29h0.6v2.3c1.3,0.4,2.3,0.8,3,1.3l-0.3,0.6C31.1,32.7,30.2,32.3,29.1,31.9z"/>
			<v:paragraph  v:horizAlign="1"></v:paragraph>
			<v:tabList></v:tabList>
		</g>
	</g>
	<g class="st5">
		<path d="M49.9,189.6h-2.5v-0.5h5.1v0.5h-2c0,0.7,0,1.1-0.1,1.5c0,0.3-0.1,0.6-0.2,0.8c-0.3,0.8-1,1.4-1.9,1.8l-0.4-0.4
			c0.9-0.4,1.5-0.9,1.7-1.6C49.8,191.2,49.9,190.6,49.9,189.6z M47.9,187.3h3.4v0.5h-3.4V187.3z M51.4,186.7l0.4-0.2
			c0.2,0.3,0.4,0.8,0.6,1.4l-0.4,0.2C51.8,187.6,51.6,187.1,51.4,186.7z M52.3,186.4l0.4-0.1c0.2,0.3,0.4,0.8,0.6,1.3l-0.4,0.2
			C52.7,187.2,52.5,186.8,52.3,186.4z"/>
		<path d="M53.4,190h4.4v0.6h-4.4V190z"/>
		<path d="M60.5,189.6h2.6v0.5h-2.6v2.2c0,0.3,0.1,0.4,0.2,0.5c0.2,0.1,0.4,0.1,0.7,0.1c0.5,0,1,0,1.5-0.1v0.6
			c-0.6,0-1.1,0.1-1.5,0.1c-0.6,0-1-0.1-1.2-0.2c-0.3-0.2-0.4-0.5-0.4-1v-2.2h-1.8v-0.5h1.8v-1.8h-1.5v-0.5h4.5v0.5h-2.4V189.6z"/>
		<path d="M63.5,187.6c0.8,0.4,1.4,0.8,1.9,1.2l-0.4,0.5c-0.5-0.4-1.1-0.8-1.8-1.2L63.5,187.6z M67.6,188l0.6,0.3
			c-0.2,1.4-0.7,2.5-1.5,3.3c-0.8,0.9-1.8,1.5-3.2,1.8l-0.3-0.5C65.7,192.3,67.2,190.7,67.6,188z"/>
		<path d="M77.3,187.7l-1.6,5.6H75l-1.2-4.1c0-0.2-0.1-0.4-0.1-0.6h0c0,0.2,0,0.4-0.1,0.6l-1.2,4.1h-0.8l-1.6-5.6h0.7L72,192
			c0,0.2,0.1,0.4,0.1,0.6h0c0-0.1,0.1-0.3,0.1-0.6l1.2-4.3h0.6l1.2,4.3c0,0.1,0.1,0.3,0.1,0.5h0c0-0.1,0-0.3,0.1-0.5l1.1-4.3H77.3z"
			/>
		<path d="M80.8,191.5H78c0,0.4,0.1,0.8,0.4,1s0.5,0.4,0.9,0.4c0.5,0,0.9-0.1,1.2-0.4v0.6c-0.4,0.3-0.8,0.4-1.4,0.4
			c-0.6,0-1-0.2-1.3-0.5s-0.5-0.9-0.5-1.5c0-0.6,0.2-1.1,0.5-1.5s0.8-0.6,1.3-0.6s0.9,0.2,1.2,0.5s0.4,0.8,0.4,1.4V191.5z
			 M80.1,190.9c0-0.4-0.1-0.7-0.3-0.9s-0.4-0.3-0.7-0.3c-0.3,0-0.6,0.1-0.8,0.3s-0.3,0.5-0.4,0.8H80.1z"/>
		<path d="M82.2,192.7L82.2,192.7l0,0.6h-0.6v-5.9h0.6v2.6h0c0.3-0.5,0.8-0.8,1.4-0.8c0.5,0,0.9,0.2,1.2,0.5s0.4,0.8,0.4,1.4
			c0,0.7-0.2,1.2-0.5,1.6s-0.8,0.6-1.3,0.6C82.8,193.4,82.4,193.2,82.2,192.7z M82.2,191.1v0.6c0,0.3,0.1,0.6,0.3,0.8
			s0.5,0.3,0.8,0.3c0.4,0,0.7-0.1,0.9-0.4s0.3-0.7,0.3-1.2c0-0.4-0.1-0.8-0.3-1s-0.5-0.4-0.8-0.4c-0.4,0-0.7,0.1-0.9,0.4
			S82.2,190.7,82.2,191.1z"/>
		<path d="M92.4,193.3h-0.7l-0.6-1.6h-2.4l-0.6,1.6h-0.7l2.1-5.6h0.7L92.4,193.3z M90.8,191.1l-0.9-2.4c0-0.1-0.1-0.2-0.1-0.4h0
			c0,0.2-0.1,0.3-0.1,0.4l-0.9,2.4H90.8z"/>
		<path d="M93.6,191.2v2.1h-0.7v-5.6h1.5c0.6,0,1.1,0.1,1.4,0.4s0.5,0.7,0.5,1.2s-0.2,1-0.5,1.3s-0.9,0.5-1.5,0.5H93.6z M93.6,188.3
			v2.3h0.7c0.5,0,0.8-0.1,1-0.3s0.4-0.5,0.4-0.9c0-0.7-0.4-1.1-1.3-1.1H93.6z"/>
		<path d="M97.8,193.3h-0.7v-5.6h0.7V193.3z"/>
		<v:paragraph  v:horizAlign="1"></v:paragraph>
		<v:tabList></v:tabList>
	</g>
	<g id="shape1385-112">
		<g class="st5">
			<path d="M5.4,108.7l0.3-0.5c0.9,0.4,1.6,0.6,1.9,0.8l-0.3,0.5C6.8,109.3,6.2,109,5.4,108.7z M10.3,107.5l0.6,0.3
				c-0.1,0.6-0.4,1.2-0.7,1.8c-0.3,0.5-0.5,0.9-0.8,1.3c-0.8,0.9-1.8,1.4-3.2,1.7l-0.3-0.5c1.2-0.2,2.3-0.7,3-1.6
				C9.6,109.8,10,108.8,10.3,107.5z M6.1,107l0.3-0.5c0.8,0.3,1.4,0.6,1.8,0.9l-0.3,0.5C7.5,107.6,6.9,107.3,6.1,107z"/>
			<path d="M11,109.3h4.4v0.6H11V109.3z"/>
			<path d="M16.9,107.5c-0.4,0.9-0.9,1.7-1.5,2.3l-0.5-0.4c0.9-0.9,1.4-2,1.7-3.3l0.6,0.1c-0.1,0.2-0.1,0.5-0.2,0.8h2.8
				c-0.3,1.8-0.8,3.2-1.5,4.2c-0.6,0.7-1.4,1.3-2.5,1.8l-0.4-0.4c1.1-0.5,2-1.1,2.6-1.9c0.6-0.8,0.9-1.8,1.1-3.1H16.9z"/>
			<path d="M21.2,112.2c0.8-0.2,1.4-0.7,2-1.3c0.5-0.5,0.9-1.2,1.2-1.9l0.5,0.4c-0.4,0.9-1,1.7-1.7,2.3c-0.6,0.5-1.4,0.9-2.3,1.2
				l-0.4-0.3v-6.2h0.6V112.2z"/>
			<path d="M24,108.2l0.5-0.2c0.2,0.4,0.4,1,0.7,1.7l-0.5,0.2C24.5,109.4,24.3,108.8,24,108.2z M24.9,112.6c1-0.4,1.7-1,2.1-1.8
				c0.4-0.7,0.6-1.7,0.7-2.9l0.6,0.1c-0.1,1.3-0.4,2.4-0.8,3.1c-0.3,0.4-0.6,0.8-1,1.1c-0.3,0.3-0.8,0.5-1.3,0.8L24.9,112.6z
				 M25.5,107.9l0.5-0.2c0.2,0.5,0.4,1,0.6,1.7l-0.5,0.2C25.9,109,25.8,108.4,25.5,107.9z"/>
			<path d="M29.1,109.1v3.8h-0.6v-6.7h0.6v2.3c1.3,0.4,2.3,0.8,3,1.3l-0.3,0.6C31.1,109.9,30.2,109.4,29.1,109.1z"/>
			<v:paragraph  v:horizAlign="1"></v:paragraph>
			<v:tabList></v:tabList>
		</g>
	</g>
	<g id="shape1416-127">
		<g class="st5">
			<path d="M5.4,179.5l0.3-0.5c0.9,0.4,1.6,0.6,1.9,0.8l-0.3,0.5C6.8,180.1,6.2,179.8,5.4,179.5z M10.3,178.3l0.6,0.3
				c-0.1,0.6-0.4,1.2-0.7,1.8c-0.3,0.5-0.5,0.9-0.8,1.3c-0.8,0.9-1.8,1.4-3.2,1.7l-0.3-0.5c1.2-0.2,2.3-0.7,3-1.6
				C9.6,180.6,10,179.6,10.3,178.3z M6.1,177.8l0.3-0.5c0.8,0.3,1.4,0.6,1.8,0.9l-0.3,0.5C7.5,178.4,6.9,178.1,6.1,177.8z"/>
			<path d="M11,180.1h4.4v0.6H11V180.1z"/>
			<path d="M16.9,178.3c-0.4,0.9-0.9,1.7-1.5,2.3l-0.5-0.4c0.9-0.9,1.4-2,1.7-3.3l0.6,0.1c-0.1,0.2-0.1,0.5-0.2,0.8h2.8
				c-0.3,1.8-0.8,3.2-1.5,4.2c-0.6,0.7-1.4,1.3-2.5,1.8l-0.4-0.4c1.1-0.5,2-1.1,2.6-1.9c0.6-0.8,0.9-1.8,1.1-3.1H16.9z"/>
			<path d="M21.2,183c0.8-0.2,1.4-0.7,2-1.3c0.5-0.5,0.9-1.2,1.2-1.9l0.5,0.4c-0.4,0.9-1,1.7-1.7,2.3c-0.6,0.5-1.4,0.9-2.3,1.2
				l-0.4-0.3v-6.2h0.6V183z"/>
			<path d="M24,179l0.5-0.2c0.2,0.4,0.4,1,0.7,1.7l-0.5,0.2C24.5,180.2,24.3,179.6,24,179z M24.9,183.4c1-0.4,1.7-1,2.1-1.8
				c0.4-0.7,0.6-1.7,0.7-2.9l0.6,0.1c-0.1,1.3-0.4,2.4-0.8,3.1c-0.3,0.4-0.6,0.8-1,1.1c-0.3,0.3-0.8,0.5-1.3,0.8L24.9,183.4z
				 M25.5,178.7l0.5-0.2c0.2,0.5,0.4,1,0.6,1.7l-0.5,0.2C25.9,179.7,25.8,179.2,25.5,178.7z"/>
			<path d="M29.1,179.9v3.8h-0.6V177h0.6v2.3c1.3,0.4,2.3,0.8,3,1.3l-0.3,0.6C31.1,180.7,30.2,180.2,29.1,179.9z"/>
			<v:paragraph  v:horizAlign="1"></v:paragraph>
			<v:tabList></v:tabList>
		</g>
	</g>
	<g class="st5">
		<path class="st6" d="M161.1,64.9c-0.4,0.9-0.9,1.7-1.5,2.3l-0.5-0.4c0.9-0.9,1.4-2,1.7-3.3l0.6,0.1c-0.1,0.2-0.1,0.5-0.2,0.8h2.8
			c-0.3,1.8-0.8,3.2-1.5,4.2c-0.6,0.7-1.4,1.3-2.5,1.8l-0.4-0.4c1.1-0.5,2-1.1,2.6-1.9c0.6-0.8,0.9-1.8,1.1-3.1H161.1z"/>
		<path class="st6" d="M163.8,65.6h4.5c-0.1,1.5-0.4,2.7-1.1,3.4c-0.5,0.6-1.4,1-2.5,1.3l-0.3-0.5c1.1-0.3,1.9-0.7,2.4-1.4
			c0.5-0.6,0.7-1.4,0.8-2.3h-3.9V65.6z M164.3,63.9h3.6v0.5h-3.6V63.9z"/>
		<path class="st6" d="M170.5,66.1c-0.6,0.5-1.4,1-2.2,1.5l-0.3-0.5c0.9-0.5,1.7-1.1,2.5-1.7c0.7-0.6,1.3-1.2,1.8-1.9l0.5,0.3
			c-0.5,0.6-1,1.2-1.6,1.7v4.8h-0.6V66.1z"/>
		<path class="st6" d="M172.3,64h5.2c-0.1,0.7-0.3,1.3-0.5,1.8c-0.2,0.4-0.5,0.8-1,1.2l-0.5-0.4c0.3-0.3,0.6-0.6,0.8-1
			c0.2-0.3,0.3-0.7,0.3-1h-4.5V64z M172.5,69.8c0.7-0.3,1.2-0.7,1.4-1.2c0.3-0.5,0.4-1.2,0.4-2.1v-1.3h0.6v1.3c0,1.1-0.2,2-0.6,2.6
			c-0.3,0.4-0.8,0.8-1.5,1.2L172.5,69.8z"/>
		<path class="st6" d="M177.8,64.3c0.8,0.4,1.4,0.8,1.9,1.2l-0.4,0.5c-0.5-0.4-1.1-0.8-1.8-1.2L177.8,64.3z M181.8,64.7l0.6,0.3
			c-0.2,1.4-0.7,2.5-1.5,3.3c-0.8,0.9-1.8,1.5-3.2,1.8l-0.3-0.5C180,69,181.4,67.4,181.8,64.7z"/>
		<path class="st6" d="M183.4,66.5v3.8h-0.6v-6.7h0.6v2.3c1.3,0.4,2.3,0.8,3,1.3l-0.3,0.6C185.4,67.3,184.5,66.9,183.4,66.5z"/>
		<path class="st6" d="M189.3,64.8c-0.1,1.8-0.4,3.2-0.8,4.2c-0.3,0.6-0.6,0.8-1.1,0.8c-0.4,0-0.7-0.2-0.9-0.6
			c-0.2-0.4-0.3-0.9-0.3-1.6c0-0.5,0.1-1,0.3-1.5c0.1-0.4,0.3-0.7,0.6-1c0.3-0.3,0.6-0.5,1-0.6c0.4-0.1,0.7-0.2,1.1-0.2
			c0.9,0,1.6,0.3,2,0.9c0.4,0.5,0.6,1.2,0.6,2.2c0,0.8-0.2,1.4-0.6,1.9c-0.4,0.5-1.1,0.9-1.9,1l-0.3-0.5c1.5-0.3,2.2-1.2,2.2-2.6
			c0-0.8-0.2-1.5-0.6-1.9C190.2,64.9,189.8,64.8,189.3,64.8z M188.7,64.8c-0.3,0-0.5,0.1-0.7,0.2c-0.2,0.1-0.4,0.3-0.6,0.5
			c-0.4,0.5-0.7,1.2-0.7,2c0,0.5,0.1,0.9,0.2,1.2c0.1,0.2,0.3,0.4,0.4,0.4c0.1,0,0.3,0,0.4-0.1c0.1-0.1,0.2-0.2,0.3-0.4
			C188.3,67.7,188.6,66.4,188.7,64.8z"/>
		<path class="st6" d="M195,69.8C195,69.8,195,69.8,195,69.8c-0.2,0.1-0.2,0.1-0.3,0.2c-0.5,0.3-1.1,0.5-1.9,0.6c0,0-0.1,0-0.1,0
			c0,0-0.1,0-0.1-0.1c-0.1-0.1-0.1-0.2-0.2-0.3c0.8-0.1,1.4-0.3,1.9-0.5c0.1-0.1,0.2-0.1,0.3-0.2C194.7,69.6,194.8,69.6,195,69.8
			C195,69.7,195,69.7,195,69.8z M194.5,65.4c0,0.1,0,0.1,0,0.1c0,0,0,0.1-0.1,0.1c-0.5,0.2-0.9,0.4-1.3,0.6
			c-0.2,0.1-0.2,0.1-0.3,0.1c0,0-0.1,0.1-0.1,0.1c0,0-0.1,0-0.1-0.1c-0.1-0.1-0.1-0.3-0.2-0.4c0.2,0,0.4-0.1,0.6-0.1
			c0.4-0.1,0.9-0.4,1.5-0.7C194.5,65.1,194.5,65.2,194.5,65.4z M194.2,64.2C194.3,64.3,194.3,64.3,194.2,64.2c0,0.1,0,0.1,0,0.1
			l-0.2,0.2c0,0.1-0.1,0.1-0.1,0.1c0,0,0,0-0.1,0c-0.4-0.3-0.7-0.5-1.2-0.7c0,0-0.1,0-0.1,0s0,0,0.1-0.1l0.1-0.2
			c0,0,0.1-0.1,0.1-0.1c0,0,0,0,0,0C193.4,63.7,193.8,63.9,194.2,64.2z M198.2,69.4C198.2,69.4,198.2,69.4,198.2,69.4l-1.2,0h-2.4
			l-1.1,0c0,0-0.1,0-0.1-0.1l0-0.8v-1.3l0-0.8c0,0,0-0.1,0.1-0.1l1.1,0h2.4l1.1,0c0,0,0.1,0,0.1,0.1l0,0.8v1.3L198.2,69.4z
			 M197.7,67.3v-0.5H194v0.5H197.7z M197.7,68.1v-0.5H194v0.5H197.7z M197.7,69v-0.6H194V69H197.7z M199.4,66.1
			c-0.1,0.1-0.1,0.2-0.2,0.3c0,0.1-0.1,0.1-0.1,0.1c0,0-0.1,0-0.1,0c-1.3-0.3-2.1-0.9-2.4-1.7c-0.3,0.7-0.9,1.2-2,1.4
			c-0.1,0-0.1,0-0.1,0c0,0-0.1,0-0.1-0.1c-0.1-0.1-0.1-0.2-0.2-0.2c0.7-0.1,1.2-0.3,1.5-0.5c0.3-0.2,0.6-0.6,0.7-1h-0.9
			c-0.2,0.2-0.4,0.4-0.6,0.5c-0.1,0-0.1,0.1-0.1,0.1c0,0-0.1,0-0.1-0.1c-0.1-0.1-0.1-0.1-0.2-0.2c0.5-0.3,0.8-0.7,1.1-1.1
			c0.1-0.1,0.1-0.3,0.2-0.4c0.2,0,0.3,0.1,0.4,0.1c0.1,0,0.1,0.1,0.1,0.1c0,0,0,0.1-0.1,0.1c0,0-0.1,0.1-0.1,0.2
			c-0.1,0.1-0.1,0.2-0.2,0.3h2.6c0.1,0,0.2,0,0.2,0c0,0,0.1,0,0.1,0c0,0,0.1,0,0.2,0.1c0.1,0.1,0.2,0.2,0.2,0.2c0,0,0,0.1-0.1,0.1
			c-0.1,0-0.1,0.1-0.2,0.2c-0.1,0.2-0.3,0.4-0.4,0.6c-0.1,0.1-0.1,0.1-0.1,0.1c0,0-0.1,0-0.1,0c-0.1,0-0.2-0.1-0.3-0.1
			c0.2-0.2,0.4-0.4,0.6-0.7h-1.5c0.2,0.5,0.5,0.9,1.1,1.2C198.4,65.9,198.9,66,199.4,66.1z M199.3,70.2c-0.1,0.1-0.2,0.2-0.2,0.3
			c0,0.1-0.1,0.1-0.1,0.1c0,0-0.1,0-0.1,0c-0.8-0.2-1.5-0.4-2.1-0.8c0,0,0,0,0,0c0,0,0,0,0.1-0.1l0.2-0.1c0,0,0.1,0,0.1,0
			c0,0,0,0,0.1,0C197.7,69.8,198.4,70.1,199.3,70.2z"/>
		<path class="st6" d="M202.7,66.8c-0.1,0.1-0.1,0.2-0.2,0.3c0,0.1-0.1,0.1-0.1,0.1c0,0,0,0-0.1-0.1c-0.3-0.4-0.5-0.7-0.6-1.2
			c0,1.1,0,2.2,0,3.3c0,0.3,0,0.6,0,1c0,0.2,0,0.3,0,0.3c0,0,0,0.1-0.1,0.1h-0.4c0,0-0.1,0-0.1-0.1c0,0,0-0.2,0-0.7
			c0-1.3,0-2.6,0.1-3.7c-0.2,1-0.6,1.9-1,2.6c0,0.1-0.1,0.1-0.1,0.1c0,0-0.1,0-0.1-0.1c-0.1-0.1-0.1-0.2-0.2-0.3
			c0.5-0.7,1-1.7,1.3-2.9h-0.3l-0.8,0c0,0-0.1,0-0.1-0.1v-0.3c0,0,0-0.1,0.1-0.1l0.8,0h0.4v-0.8c0-0.4,0-0.8-0.1-0.9
			c0.2,0,0.4,0,0.5,0c0.1,0,0.1,0,0.1,0.1s0,0.1,0,0.2c0,0.1,0,0.3,0,0.7v0.8h0.1l0.8,0c0,0,0.1,0,0.1,0.1v0.3c0,0,0,0.1-0.1,0.1
			l-0.8,0h-0.1C202,66.1,202.3,66.5,202.7,66.8z M207.4,67.5c-0.1,0.1-0.1,0.2-0.2,0.3c0,0.1-0.1,0.1-0.1,0.1c0,0-0.1,0-0.1,0
			c-0.8-0.3-1.6-0.8-2.1-1.3c-0.6,0.5-1.3,1-2.2,1.3c-0.1,0-0.1,0-0.1,0c0,0-0.1,0-0.1-0.1c0-0.1-0.1-0.2-0.2-0.3
			c0.9-0.3,1.7-0.8,2.3-1.3c-0.4-0.4-0.6-0.7-0.9-1.2c-0.2,0.3-0.4,0.6-0.7,0.8c-0.1,0.1-0.1,0.1-0.1,0.1c0,0-0.1,0-0.1-0.1
			c0-0.1-0.1-0.1-0.3-0.2c0.7-0.6,1.2-1.3,1.5-2.1c0.1-0.2,0.1-0.3,0.1-0.4c0.2,0.1,0.4,0.1,0.5,0.1c0.1,0,0.1,0.1,0.1,0.1
			s0,0.1-0.1,0.1c0,0-0.1,0.1-0.1,0.2c-0.1,0.2-0.1,0.3-0.2,0.4h1.8c0.1,0,0.1,0,0.1,0c0,0,0.1,0,0.1,0c0.1,0,0.1,0,0.2,0.1
			c0.1,0.1,0.1,0.2,0.1,0.2c0,0,0,0.1-0.1,0.1c-0.1,0-0.1,0.1-0.2,0.2c-0.3,0.6-0.7,1.1-1.1,1.5C205.9,66.8,206.6,67.2,207.4,67.5z
			 M206.4,70.5C206.4,70.6,206.4,70.6,206.4,70.5l-0.4,0.1c0,0-0.1,0-0.1-0.1v-0.4h-2.2v0.4c0,0,0,0.1-0.1,0.1h-0.4
			c0,0-0.1,0-0.1-0.1l0-1.3v-0.6l0-0.8c0,0,0-0.1,0.1-0.1l0.9,0h1.2l0.9,0c0,0,0.1,0,0.1,0.1l0,0.7v0.7L206.4,70.5z M205.9,69.7
			v-1.6h-2.2v1.6H205.9z M205.9,64.6H204l-0.1,0.1c0.2,0.4,0.5,0.9,0.9,1.2C205.3,65.6,205.7,65.1,205.9,64.6z"/>
		<path class="st6" d="M208.5,65.3c-0.1,0.7-0.2,1.2-0.3,1.6c0,0,0,0,0,0c0,0,0,0-0.1,0l-0.2-0.1c-0.1,0-0.1-0.1-0.1-0.1
			c0,0,0,0,0-0.1c0.2-0.4,0.3-0.9,0.3-1.6c0,0,0,0,0,0c0,0,0,0,0.1,0L208.5,65.3C208.5,65.2,208.5,65.2,208.5,65.3
			C208.5,65.2,208.5,65.2,208.5,65.3C208.5,65.2,208.5,65.3,208.5,65.3z M209.4,63.5c0,0,0,0.1,0,0.1c0,0.1-0.1,0.4-0.1,0.8v4.6
			l0,1.4c0,0,0,0.1-0.1,0.1h-0.4c0,0-0.1,0-0.1-0.1l0-1.4v-4.6c0-0.5,0-0.9-0.1-1.1C209,63.4,209.1,63.4,209.4,63.5
			C209.4,63.4,209.4,63.4,209.4,63.5z M210.2,66.1C210.2,66.1,210.2,66.1,210.2,66.1c0,0.1,0,0.1-0.1,0.1l-0.2,0.1c0,0-0.1,0-0.1,0
			c0,0,0,0,0,0c-0.1-0.4-0.2-0.8-0.3-1.1c0,0,0,0,0,0c0,0,0,0,0.1-0.1l0.2-0.1c0,0,0,0,0.1,0c0,0,0,0,0,0
			C210,65.3,210.1,65.7,210.2,66.1z M214.9,66.4C214.9,66.4,214.9,66.4,214.9,66.4l-1.1,0h-2.4l-1.1,0c0,0-0.1,0-0.1-0.1v-0.3
			c0,0,0-0.1,0.1-0.1l1.1,0h0.8v-0.6h-0.5l-1,0c0,0-0.1,0-0.1-0.1v-0.3c0,0,0-0.1,0.1-0.1l1,0h0.5v-0.5h-0.7l-1,0c0,0-0.1,0-0.1-0.1
			v-0.3c0,0,0-0.1,0.1-0.1l1,0h0.7c0-0.4,0-0.7-0.1-0.9c0.2,0,0.4,0,0.5,0c0.1,0,0.1,0,0.1,0.1c0,0,0,0.1,0,0.2
			c0,0.1-0.1,0.3-0.1,0.6h0.9l1,0c0,0,0.1,0,0.1,0.1v0.3c0,0,0,0.1-0.1,0.1l-1,0h-0.9v0.5h0.7l0.9,0c0,0,0.1,0,0.1,0.1v0.3
			c0,0,0,0.1-0.1,0.1l-0.9,0h-0.7V66h1.2l1.1,0c0,0,0.1,0,0.1,0.1V66.4z M214.2,67l0,0.9v0.9l0,1.1c0,0.3-0.1,0.4-0.2,0.5
			c-0.1,0.1-0.4,0.1-0.7,0.1c0,0-0.1,0-0.1,0c-0.1,0-0.1,0-0.1,0c0,0,0-0.1-0.1-0.1c0-0.1-0.1-0.2-0.2-0.3c0.2,0,0.4,0,0.5,0
			c0.2,0,0.2,0,0.3-0.1c0,0,0-0.1,0-0.2v-0.6h-2.6v0.3l0,1c0,0,0,0.1-0.1,0.1h-0.4c0,0-0.1,0-0.1-0.1l0-1v-1.6l0-0.9
			c0,0,0-0.1,0.1-0.1l1.1,0h1.4L214.2,67C214.2,66.9,214.2,66.9,214.2,67z M213.7,67.9v-0.6h-2.6v0.6H213.7z M213.7,68.8v-0.6h-2.6
			v0.6H213.7z"/>
		<path class="st6" d="M219.1,67.7C219.1,67.7,219.1,67.7,219.1,67.7l-1,0h-0.4v0.9h0.4l0.9,0c0,0,0.1,0,0.1,0.1V69
			c0,0,0,0.1-0.1,0.1l-0.9,0h-0.4v0.7l0,0.8c0,0,0,0.1-0.1,0.1h-0.4c0,0-0.1,0-0.1-0.1l0-0.8V69h-0.4l-0.9,0c0,0-0.1,0-0.1-0.1v-0.3
			c0,0,0-0.1,0.1-0.1l0.9,0h0.4v-0.9h-0.6l-1,0c0,0-0.1,0-0.1-0.1v-0.3c0,0,0-0.1,0.1-0.1l1,0h1.1c0.1-0.2,0.2-0.5,0.4-0.9
			c0-0.1,0.1-0.2,0.1-0.3c0.1,0,0.3,0.1,0.4,0.1c0.1,0,0.1,0.1,0.1,0.1c0,0,0,0.1-0.1,0.1c0,0-0.1,0.1-0.1,0.2
			c-0.1,0.3-0.2,0.5-0.4,0.8l0.9,0c0,0,0.1,0,0.1,0.1V67.7z M219.1,66C219.1,66,219.1,66,219.1,66l-1,0h-1.4l-1,0c0,0-0.1,0-0.1-0.1
			v-0.3c0,0,0-0.1,0.1-0.1l1,0h0.5v-0.8h-0.4l-0.9,0c0,0-0.1,0-0.1-0.1v-0.3c0,0,0-0.1,0.1-0.1l0.9,0h0.4v-0.2c0-0.4,0-0.6-0.1-0.8
			c0.2,0,0.4,0,0.5,0c0.1,0,0.1,0,0.1,0.1c0,0,0,0.1,0,0.1c0,0.1,0,0.2,0,0.5v0.3h0.3l0.9,0c0,0,0.1,0,0.1,0.1v0.3
			c0,0,0,0.1-0.1,0.1l-0.9,0h-0.3v0.8h0.4l1,0c0,0,0.1,0,0.1,0.1V66z M217,67C217,67,217,67,217,67c0,0.1,0,0.1-0.1,0.1l-0.2,0.1
			c0,0-0.1,0-0.1,0c0,0,0,0,0,0c-0.1-0.3-0.2-0.5-0.3-0.8c0,0,0,0,0,0c0,0,0,0,0.1-0.1l0.2-0.1c0,0,0,0,0.1,0c0,0,0,0,0.1,0
			C216.8,66.4,216.9,66.7,217,67z M222.9,70.1c-0.1,0.1-0.2,0.2-0.2,0.3c0,0.1-0.1,0.1-0.1,0.1c0,0,0,0-0.1,0
			c-0.5-0.4-0.9-0.7-1.2-1.1c-0.2,0.4-0.5,0.7-0.9,1.1c-0.1,0.1-0.1,0.1-0.1,0.1c0,0-0.1,0-0.1-0.1c-0.1-0.1-0.1-0.2-0.2-0.3
			c0.4-0.4,0.8-0.7,1-1.2c-0.4-0.6-0.7-1.3-0.9-2.2h-0.2v2.1l0,1.6c0,0,0,0.1-0.1,0.1h-0.4c0,0-0.1,0-0.1-0.1l0-1.6v-3.4l0-1.6
			c0,0,0-0.1,0.1-0.1l1,0h1.2l0.9,0c0.1,0,0.1,0,0.1,0.1c0,0.2,0,0.3,0,0.4c0,0.5-0.1,0.8-0.2,1c-0.1,0.2-0.2,0.3-0.3,0.4
			c-0.1,0.1-0.3,0.1-0.5,0.1c-0.1,0-0.3,0-0.5,0c-0.1,0-0.1,0-0.1,0c0,0,0-0.1,0-0.1c0-0.1-0.1-0.2-0.1-0.3c0.3,0,0.5,0.1,0.7,0.1
			c0.1,0,0.2,0,0.3-0.1c0,0,0.1-0.1,0.1-0.3c0-0.2,0.1-0.4,0.1-0.8h-2.2v2.1h1.9c0.1,0,0.1,0,0.2,0c0,0,0.1,0,0.1,0
			c0,0,0.1,0,0.2,0.1c0.1,0.1,0.1,0.2,0.1,0.2c0,0,0,0.1-0.1,0.1c0,0-0.1,0.1-0.1,0.3c-0.2,0.8-0.4,1.4-0.7,1.9
			C221.8,69.3,222.3,69.7,222.9,70.1z M221.8,66.8h-1.4c0.2,0.7,0.4,1.3,0.8,1.8C221.4,68.1,221.6,67.5,221.8,66.8z"/>
		<path class="st6" d="M184.1,73.8h4.4c0,1.9-0.4,3.3-1,4.3c-0.6,0.8-1.5,1.4-2.7,1.9l-0.3-0.5c1.2-0.4,2.1-1,2.6-1.9
			c0.5-0.8,0.8-1.9,0.8-3.3h-3.7V73.8z"/>
		<path class="st6" d="M189.1,79.6v-5.7h4.2v5.7H189.1z M192.7,79v-4.6h-2.9V79H192.7z"/>
		<path class="st6" d="M193.8,76.3h4.4v0.6h-4.4V76.3z"/>
	</g>
</g>
<g id="source" xmlns:ev="http://www.w3.org/2001/xml-events" xmlns:v="http://schemas.microsoft.com/visio/2003/SVGExtensions/">
	<path class="st7" d="M227.4,92.7c-0.7,0-2.7,0-3.2,0c-18.4,0-36.9,0.2-55.3-0.1c-11.8-0.2-23.8,8.4-26.2,21.7
		c-0.3,1.7-0.4,3.5-0.4,5.2c0,6.8,0,13.6,0,20.4c0,14.1-8.6,24.9-22.4,27.9c-1.8,0.4-3.8,0.5-5.7,0.5c-9.4,0-7.9,0-17.3,0
		c-0.2,0,0,0-0.3,0c-0.4,0-0.9-0.2-0.9-0.6c0-0.6,0.6-0.7,1.1-0.7c0.9,0,0.4,0,0.9,0c9.8,0,8.6,0.1,18.4-0.1
		c12.1-0.2,22.9-10.1,24.6-22.1c0.3-2,0.3-4,0.4-6c0.1-7.2-0.2-14.4,0.2-21.6c0.6-11.2,6.6-19.1,16.7-23.8c0.5-0.2,0.9-0.4,1.4-0.9
		c-0.5,0-1,0-1.6,0c-22.2,0-35.2,0-57.5-0.1c0,0-0.7,0-0.7-0.5c0-0.6,0.8-0.6,0.8-0.6c22.2,0,35.1-0.1,57.3-0.1c0.5,0,1.1,0,1.9,0
		c-0.4-0.3-0.6-0.5-0.8-0.6c-11.8-5-17.5-14.2-17.7-26.8c-0.1-7.8,0-15.7-0.1-23.5C140.6,28,130,16.5,117.6,15.8
		c-7.8-0.5-4.7-0.3-12.5-0.3c-2,0-4,0-6,0c-0.4,0-1.5,0-1.5-0.6c-0.1-0.7,1.2-0.7,1.7-0.7c6.5,0,2,0,8.5,0c4.7,0,9.4-0.2,14,1
		c10.5,2.7,19,12.2,20.1,22.9c0.4,4.3,0.3,8.7,0.3,13c0,4.5,0,9,0,13.5c0.1,13.5,9.1,24.1,22.3,26.4c0.7,0.1,1.5,0.1,2.2,0.1
		c19.1,0,38.3,0,57.4,0c0.4,0,2.2,0,3-0.1"/>
	<g>
		<path class="st7" d="M225.8,91.8c0-2-0.8-3.1-1.4-4.3c2.8,1.5,5.5,2.9,8.2,4.3c-2.7,1.4-5.4,2.8-8.2,4.3
			C225,94.6,225.8,93.6,225.8,91.8z"/>
	</g>
</g>
</svg>
