<svg id="svg133" xmlns="http://www.w3.org/2000/svg" viewBox="0 0 224.4 98.83">
  <defs>
    <style>
      .cls-1 {
        fill: #0078d7;
      }

      .cls-2 {
        isolation: isolate;
      }

      .cls-3, .cls-4 {
        fill: #008bfd;
      }

      .cls-4 {
        stroke: gray;
        stroke-linecap: round;
        stroke-linejoin: round;
        stroke-width: 0.75px;
      }

      .cls-5 {
        fill: #fff;
      }

      .cls-6 {
        fill: #505050;
      }

      .cls-7 {
        fill: #00b0f0;
      }

      .cls-8 {
        fill: none;
        stroke: #505050;
        stroke-miterlimit: 10;
      }
    </style>
  </defs>
  <title>OJ104544462</title>
  <g id="shape1172-2">
    <path id="path19" class="cls-1" d="M60.23,66.79H46V38.41H60.23v7.68H61V37.65H45.26v29.9H61V65.23h-.76Z"/>
  </g>
  <g id="shape1173-4">
    <path id="path24" class="cls-1" d="M59.47,39.21H46.83v4.58H59.47Zm-9.58,1.91h6.53v.76H49.89ZM56.48,43H49.86V42.2h6.62Z"/>
  </g>
  <g id="shape1174-6">
    <path id="path29" class="cls-1" d="M46.79,44.57v3h8.6V46.1h4.08V44.57Z"/>
  </g>
  <g id="shape1175-8">
    <rect id="rect34" class="cls-1" x="46.79" y="48.38" width="8.6" height="2.68"/>
  </g>
  <g id="shape1176-10">
    <path id="path39" class="cls-1" d="M46.79,66H59.44v-.79H55.36V51.85h-8.6V66Zm1.53-2.73h2.29V64.5H48.32Z"/>
  </g>
  <g id="shape1177-12">
    <path id="path44" class="cls-1" d="M70,63H67.55V61.09H65V63H62.59a1.32,1.32,0,0,0-1.31,1.14h10C71.35,63.54,70.68,63,70,63Z"/>
  </g>
  <g id="shape1178-14">
    <path id="path49" class="cls-1" d="M74.85,49H57.75a.64.64,0,0,0-.67.6V59.72a.64.64,0,0,0,.67.6h17.1a.64.64,0,0,0,.67-.6V49.59A.62.62,0,0,0,74.85,49Zm-1,9.84H58.77V50.52H73.83Z"/>
  </g>
  <g id="shape1179-16">
    <path id="path54" class="cls-1" d="M70.21,56.35V52.91L66.7,51.06l-3.5,1.78v3.54l3.5,1.81Zm-4.4-2.3.89-.44.86.44-.86.48Zm0-1.14.86-.45.86.45-.86.48Zm1.91,4.52-1,.51V57l1-.51Zm0-1.18-1,.51v-.92l1-.51Zm0-1.11-1,.51v-.93l1-.51Zm-.82-1.66.86-.44.89.44-.86.45Zm2,3.35-1,.5v-.92l1-.51Zm0-1.18-1,.51v-.93l1-.51Zm0-1.15L68,55v-.89l1-.51Zm1,1.75-.86.45v-.93l.86-.44Zm0-1.14-.86.44v-.92l.86-.45ZM70,54l-.86.44v-.92L70,53Zm-.19-1.05-.89.44L68,52.91l.86-.45Zm-1.11-.58-.89.45-.86-.45.86-.44Zm-2-1,.86.45-.86.45-.89-.45Zm-1.11.61.86.44-.86.45-.86-.45Zm-1.08.57.89.45-.89.44-.9-.44Zm-.26,4.27-.86-.45v-.92l.86.45Zm0-1.18-.86-.44v-.93l.86.45Zm0-1.15L63.39,54v-.89l.86.44Zm1.18,2.93-1-.5V55.9l1,.51Zm0-1.17-1-.51v-.93l1,.51Zm0-1.15-1-.51v-.89l1,.51Zm-.7-1.53.89-.44.86.44-.89.48Zm1.88,4.46-1-.51v-.89l1,.51Zm0-1.15-1-.51v-.92l1,.51Zm0-1.14-1-.51v-.93l1,.51Z"/>
  </g>
  <g id="shape1171-18">
    <g id="text57" class="cls-2">
      <path class="cls-3" d="M27.51,73.27H24.44v-.65h6.35v.65H28.28a17.66,17.66,0,0,1-.1,1.83,3.76,3.76,0,0,1-.24,1,4.46,4.46,0,0,1-2.39,2.3l-.5-.56a3.74,3.74,0,0,0,2.18-2A8.28,8.28,0,0,0,27.51,73.27ZM25,70.43h4.28v.66H25Zm4.35-.74.51-.19a9.59,9.59,0,0,1,.74,1.69l-.54.21A9.54,9.54,0,0,0,29.38,69.69Zm1.12-.34.5-.18a8.62,8.62,0,0,1,.71,1.64l-.52.21A10.42,10.42,0,0,0,30.5,69.35Z"/>
      <path class="cls-3" d="M36.2,75.06a8.91,8.91,0,0,1-3.57,3.16l-.44-.57a8.79,8.79,0,0,0,3.27-2.81,10.29,10.29,0,0,0,1.47-3.61h-4.2v-.66h5.18a13.19,13.19,0,0,1-1.32,3.82,22.52,22.52,0,0,1,2.33,3.36l-.73.47A17.89,17.89,0,0,0,36.2,75.06Z"/>
      <path class="cls-3" d="M42.1,71.6a9.18,9.18,0,0,1-1.84,2.87L39.69,74a8.71,8.71,0,0,0,2.16-4.16l.79.12c-.07.26-.16.57-.29.94h3.47a10.68,10.68,0,0,1-1.91,5.26,7.45,7.45,0,0,1-3.16,2.21l-.44-.54a6.93,6.93,0,0,0,3.21-2.36,9,9,0,0,0,1.4-3.9Z"/>
      <path class="cls-3" d="M48.44,73.57v4.75h-.77V69.94h.77v2.9a15.67,15.67,0,0,1,3.81,1.58l-.38.73A12.6,12.6,0,0,0,48.44,73.57Z"/>
      <path class="cls-3" d="M53,72.5l.64-.27a12.92,12.92,0,0,1,.83,2.17l-.66.26A12.87,12.87,0,0,0,53,72.5Zm1.11,5.42a5.08,5.08,0,0,0,2.68-2.2A8.39,8.39,0,0,0,57.68,72l.73.16a9.51,9.51,0,0,1-1,3.9,4.63,4.63,0,0,1-1.2,1.4,7,7,0,0,1-1.65.94Zm.78-5.85.63-.25A12.18,12.18,0,0,1,56.27,74l-.65.28A10.72,10.72,0,0,0,54.91,72.07Z"/>
      <path class="cls-3" d="M63.81,71.32a9.43,9.43,0,0,1-1,4.24,6.34,6.34,0,0,1-3.65,2.78l-.42-.6A6,6,0,0,0,62,75.42a7.47,7.47,0,0,0,1-4.1H58.32v-.67h4.79a1.13,1.13,0,0,1-.07-.39,1.09,1.09,0,0,1,.37-.83,1.12,1.12,0,0,1,.75-.29,1.09,1.09,0,0,1,.83.37,1.12,1.12,0,0,1,.29.75,1.12,1.12,0,0,1-1.12,1.13A1,1,0,0,1,63.81,71.32Zm.35-1.75a.69.69,0,0,0-.46,1.21.65.65,0,0,0,.46.18.68.68,0,0,0,.52-.23.71.71,0,0,0,.17-.47.64.64,0,0,0-.22-.51A.67.67,0,0,0,64.16,69.57Z"/>
      <path class="cls-3" d="M68.78,70.48h6.51a7,7,0,0,1-.61,2.21,4.78,4.78,0,0,1-1.21,1.51l-.59-.49a4.15,4.15,0,0,0,1.06-1.26,3.26,3.26,0,0,0,.42-1.29H68.78Zm.3,7.22a3.94,3.94,0,0,0,1.8-1.5,5.4,5.4,0,0,0,.54-2.65V72h.77v1.6a5.6,5.6,0,0,1-.8,3.21,4.94,4.94,0,0,1-1.83,1.49Z"/>
      <path class="cls-3" d="M81.9,71.32a9.56,9.56,0,0,1-1,4.24,6.34,6.34,0,0,1-3.65,2.78l-.42-.6a6,6,0,0,0,3.25-2.32,7.55,7.55,0,0,0,1-4.1H76.41v-.67H81.2a.94.94,0,0,1-.07-.39,1.06,1.06,0,0,1,.37-.83,1.12,1.12,0,0,1,1.58.08A1.13,1.13,0,0,1,83,71.1a1.08,1.08,0,0,1-.75.29A1,1,0,0,1,81.9,71.32Zm.35-1.75a.68.68,0,0,0-.69.69.68.68,0,0,0,.69.7.68.68,0,0,0,.52-.23.71.71,0,0,0,.17-.47.65.65,0,0,0-.23-.51A.63.63,0,0,0,82.25,69.57Z"/>
      <path class="cls-3" d="M85.37,70.23v4.91H84.6V70.23Zm-.28,7.5a4,4,0,0,0,2.48-1.29,4.38,4.38,0,0,0,.64-2.62V70.17H89v3.75a4.48,4.48,0,0,1-1,3.19,4.83,4.83,0,0,1-2.56,1.22Z"/>
    </g>
  </g>
  <g id="group1180-20">
    <g id="group1181-21">
      <g id="group1182-22">
        <g id="group1183-23">
          <g id="shape1184-24">
            <path id="path71" class="cls-3" d="M7.85,44.76a4.5,4.5,0,0,0-3,5.67c.66,2.55,3,4.21,5.27,3.66a4.49,4.49,0,0,0,3-5.66C12.57,45.76,10.16,44.1,7.85,44.76Z"/>
          </g>
        </g>
        <g id="group1185-26">
          <g id="shape1186-27">
            <path id="path79" class="cls-3" d="M12.78,54.78c-.43,0-.88.77-1.54,1.11s-1.31.89-3.17,0S6,54.22,4.43,54.22s-4,2.78-4,6.88H16a12.15,12.15,0,0,0-1.11-4.21C13.77,54.78,13.23,54.78,12.78,54.78Z"/>
          </g>
        </g>
      </g>
    </g>
    <g id="group1187-29">
      <g id="shape1188-30">
        <path id="path89" class="cls-4" d="M14.19,49.84H10.07a.7.7,0,0,0-.65.65v2.85a.73.73,0,0,0,.76.66h.76v5.15a1,1,0,0,0,1,1.09,1,1,0,0,0,1-1h.21V58.6c0-.22.33-.33.33-.33v-.33c-.33-.11-.54-.32-.54-.43v-.33L13.1,57a3.53,3.53,0,0,0,.33-.55,2.4,2.4,0,0,1-.33-.55c-.1-.11-.1-.33-.21-.44V55.2a2.52,2.52,0,0,1,.76-1.09h.54a.71.71,0,0,0,.65-.66v-3A.62.62,0,0,0,14.19,49.84ZM11.8,59.37c0,.22,0,.33-.21.33s-.22-.22-.22-.33V54.55c0-.22.11-.33.22-.33s.21.22.21.33Zm.33-7.78a.66.66,0,0,1,0-1.32.71.71,0,0,1,.65.66A.63.63,0,0,1,12.13,51.59Z"/>
      </g>
      <g id="shape1189-32">
        <path id="path94" class="cls-5" d="M11.57,59.67a.24.24,0,0,1-.22-.22v-5a.22.22,0,0,1,.44,0v5.1C11.79,59.67,11.68,59.67,11.57,59.67Z"/>
      </g>
      <g id="shape1190-34">
        <ellipse id="ellipse99" class="cls-5" cx="12.14" cy="50.92" rx="0.66" ry="0.67"/>
      </g>
    </g>
  </g>
  <path id="path108" class="cls-3" d="M191.76,41.68h-20.5a1.1,1.1,0,0,0-1.09,1.11V59.53a1.09,1.09,0,0,0,1.09,1.1h5.28a3.29,3.29,0,0,0,3.21,2.27,3.37,3.37,0,0,0,0-6.74,3.29,3.29,0,0,0-3.21,2.27h-4.19v-12h18.31v12h-3.45a7.61,7.61,0,0,0-7.46-6.57,8.25,8.25,0,0,0-3.64.92l1,2a5.28,5.28,0,0,1,2.55-.68,5.46,5.46,0,0,1,0,10.92,5.28,5.28,0,0,1-2.55-.68l-1,2a7.4,7.4,0,0,0,3.64.92,7.61,7.61,0,0,0,7.46-6.56h4.55a1.09,1.09,0,0,0,1.09-1.1V42.79A1.14,1.14,0,0,0,191.76,41.68Z"/>
  <g id="text110" class="cls-2">
    <path class="cls-3" d="M168.06,80.2h-.91l-.74-2h-3l-.7,2h-.91l2.68-7h.85Zm-1.92-2.7-1.1-3a3,3,0,0,1-.11-.47h0a2.74,2.74,0,0,1-.11.47l-1.09,3Z"/>
    <path class="cls-3" d="M169.93,77.56V80.2h-.82v-7H171a2.51,2.51,0,0,1,1.74.55,2,2,0,0,1,.62,1.54,2.12,2.12,0,0,1-.69,1.63,2.63,2.63,0,0,1-1.85.64Zm0-3.62v2.87h.86a1.92,1.92,0,0,0,1.3-.39,1.35,1.35,0,0,0,.45-1.09c0-.93-.55-1.39-1.64-1.39Z"/>
    <path class="cls-3" d="M175.43,80.2h-.82v-7h.82Z"/>
    <path class="cls-3" d="M179.79,72.76h6.51a7,7,0,0,1-.61,2.21,4.92,4.92,0,0,1-1.21,1.51l-.59-.49A4.4,4.4,0,0,0,185,74.73a3.6,3.6,0,0,0,.42-1.3h-5.58Zm.3,7.22a3.86,3.86,0,0,0,1.79-1.5,5.31,5.31,0,0,0,.55-2.65V74.25h.77v1.6a5.6,5.6,0,0,1-.8,3.21,4.94,4.94,0,0,1-1.83,1.49Z"/>
    <path class="cls-3" d="M192.9,73.6a9.36,9.36,0,0,1-1,4.23,6.34,6.34,0,0,1-3.65,2.79l-.42-.6a6.1,6.1,0,0,0,3.25-2.32,7.47,7.47,0,0,0,1-4.1h-4.66v-.67h4.79a.94.94,0,0,1-.07-.39,1.08,1.08,0,0,1,.36-.83,1.13,1.13,0,0,1,.76-.29,1.06,1.06,0,0,1,.83.37,1.08,1.08,0,0,1,.28.75,1.09,1.09,0,0,1-1.11,1.12A1.09,1.09,0,0,1,192.9,73.6Zm.36-1.75a.68.68,0,0,0-.69.69.67.67,0,0,0,.22.52.72.72,0,0,0,1,0,.67.67,0,0,0,.17-.47.64.64,0,0,0-.22-.51A.65.65,0,0,0,193.26,71.85Z"/>
    <path class="cls-3" d="M196.38,72.51v4.9h-.77v-4.9ZM196.1,80a4.07,4.07,0,0,0,2.48-1.29,4.45,4.45,0,0,0,.64-2.62V72.45H200V76.2a4.48,4.48,0,0,1-1,3.19,4.87,4.87,0,0,1-2.56,1.22Z"/>
  </g>
  <g id="shape1192-39">
    <g id="use7">
      <g id="lend5">
        <path id="path4" class="cls-6" d="M161.69,50.43l8.05,4-8,4a9,9,0,0,0,0-8"/>
      </g>
    </g>
  </g>
  <g class="cls-2">
    <path class="cls-7" d="M44.31,6.52H41.65V5.89h2.66Z"/>
    <path class="cls-7" d="M51.65,3a.07.07,0,0,1-.08.08l-1,0H49.37l-1,0s-.07,0-.07-.08V2.58c0-.05,0-.07.07-.07l1,0h1.16l1,0s.08,0,.08.07Zm-.3-1.36c0,.05,0,.07-.08.07H48.75s-.08,0-.08-.07v-.4c0-.06,0-.09.08-.09l.87,0h.78l.87,0s.08,0,.08.09Zm0,7.75s0,.07-.08.07h-.4s-.08,0-.08-.07V9.07H49.26v.52c0,.06,0,.08-.08.08h-.4c-.06,0-.09,0-.09-.08l0-1.45v-.6l0-.89c0-.05,0-.07.09-.07l.85,0h.74l.86,0c.06,0,.08,0,.08.07l0,.71V8Zm-.12-5.06s0,.08-.08.08l-.81,0h-.63l-.81,0a.07.07,0,0,1-.08-.08V4c0-.06,0-.08.08-.08l.81,0h.63l.81,0c.06,0,.08,0,.08.08Zm0,1.33c0,.06,0,.08-.08.08l-.81,0h-.63l-.81,0s-.08,0-.08-.08V5.28s0-.07.08-.07l.81,0h.63l.81,0c.06,0,.08,0,.08.07Zm-.44,2.92V7.09H49.26v1.5Zm6-7.32c0,.07,0,.29,0,.64a10.56,10.56,0,0,1-.31,2.73.84.84,0,0,1-.9.57,6.45,6.45,0,0,1-.67,0c-.08,0-.13,0-.14,0a.49.49,0,0,1,0-.17,1.11,1.11,0,0,0-.14-.41,4.51,4.51,0,0,0,.86.08c.25,0,.42-.08.49-.26a9.06,9.06,0,0,0,.27-2.66H54.39a5.47,5.47,0,0,1-.3,1.47l.92.48s.05,0,.05,0a.79.79,0,0,1-.05.1l-.13.27c0,.07-.07.11-.1.11l-.06,0c-.22-.14-.5-.29-.84-.47a4.13,4.13,0,0,1-1.82,1.83.46.46,0,0,1-.16.06s-.09,0-.14-.13a.92.92,0,0,0-.3-.29,3.63,3.63,0,0,0,1.92-1.72c-.38-.17-.77-.33-1.17-.47l-.05,0a.82.82,0,0,1,0-.11l.12-.26s0-.07.08-.07l.06,0c.45.15.83.3,1.12.43a4.73,4.73,0,0,0,.23-1.25h-.42l-1.26,0c-.05,0-.08,0-.08-.07v-.4c0-.06,0-.08.08-.08l1.26,0h2l1.28,0A.08.08,0,0,1,56.78,1.27ZM52.62,6.84a6.35,6.35,0,0,1-.56,1.88s0,0-.06,0l-.11,0-.24-.13c-.08,0-.12-.07-.12-.1l0,0a5.05,5.05,0,0,0,.54-1.76s0-.08.06-.08l.1,0,.27.07c.07,0,.11,0,.11.08A.08.08,0,0,1,52.62,6.84ZM56,8.28A2.78,2.78,0,0,1,55.8,9a.75.75,0,0,1-.33.35,2.28,2.28,0,0,1-1,.17,2.67,2.67,0,0,1-.92-.11.64.64,0,0,1-.36-.66V7a5.72,5.72,0,0,0,0-.76l.56,0c.08,0,.12,0,.12.08a.31.31,0,0,1,0,.12,1.55,1.55,0,0,0,0,.47V8.52a.61.61,0,0,0,0,.28.38.38,0,0,0,.15.12,1.67,1.67,0,0,0,.56.06,1.54,1.54,0,0,0,.7-.1c.17-.13.26-.48.27-1.06a1,1,0,0,0,.37.2c.11,0,.17.1.17.17S56,8.24,56,8.28Zm-.74-2a.07.07,0,0,1,0,.06s0,.06-.08.12L55,6.59c-.06.07-.1.1-.12.1l0,0a4.72,4.72,0,0,0-1.21-1s0,0,0-.05l.08-.1.19-.18c.05,0,.08-.06.1-.06l.06,0A7.17,7.17,0,0,1,55.22,6.23Zm2.07,2a.11.11,0,0,1,0,0s0,.05-.12.1l-.24.12-.12,0s0,0,0-.06a6.35,6.35,0,0,0-.89-1.71.08.08,0,0,1,0,0s0,0,.12-.07l.22-.11a.24.24,0,0,1,.11,0,.12.12,0,0,1,.06,0A7.56,7.56,0,0,1,57.29,8.21Z"/>
    <path class="cls-7" d="M61.65,3.05c0,.06,0,.09-.08.09l-1,0H59.24l-1.05,0s-.08,0-.08-.09V2.63a.07.07,0,0,1,.08-.08l1.05,0h1.28l1,0a.07.07,0,0,1,.08.08Zm-.36,6.42s0,.08-.08.08H60.8a.07.07,0,0,1-.08-.08V9.14H59.13v.5c0,.06,0,.09-.08.09h-.41s-.08,0-.08-.09l0-1.47V7.56l0-.86c0-.06,0-.08.08-.08l.88,0h.8l.9,0c.05,0,.07,0,.07.08l0,.71v.65Zm.05-7.8c0,.05,0,.07-.08.07l-.88,0h-.84l-.88,0s-.08,0-.08-.07v-.4c0-.06,0-.08.08-.08l.88,0h.84l.88,0c.05,0,.08,0,.08.08ZM61.2,4.41s0,.07-.09.07l-.82,0h-.73l-.83,0s-.08,0-.08-.07V4s0-.07.08-.07l.83,0h.73l.82,0c.06,0,.09,0,.09.07Zm0,1.32a.08.08,0,0,1-.09.09l-.82,0h-.73l-.83,0s-.08,0-.08-.09V5.34a.07.07,0,0,1,.08-.08l.83,0h.73l.82,0c.06,0,.09,0,.09.08Zm-.48,2.92V7.13H59.13V8.65Zm6.3.52c0,.05,0,.07-.07.07l-1.36,0H63l-1.35,0s-.08,0-.08-.07V8.73a.07.07,0,0,1,.08-.08l.72,0V5.38A8.51,8.51,0,0,0,62.34,4a6.46,6.46,0,0,1,.65.07c.08,0,.12,0,.12.08a.71.71,0,0,1-.06.19,5.61,5.61,0,0,0,0,1V8.67h1.21V1.94H63.3L62,2a.07.07,0,0,1-.08-.08V1.46c0-.06,0-.08.08-.08l1.28,0h2.16l1.29,0s.08,0,.08.08v.43a.07.07,0,0,1-.08.08l-1.29,0h-.65V4.76h1l.76,0s.08,0,.08.08v.43a.07.07,0,0,1-.08.08l-.76,0h-1V8.67h.78l1.36,0s.07,0,.07.08Z"/>
    <path class="cls-7" d="M73.28,8.87h-5V8.2h4.2V2.51H68.3V1.84h5Z"/>
    <path class="cls-7" d="M74.68,4.89h5.44v.75H74.68Z"/>
    <path class="cls-7" d="M82.7,4.64V9.4h-.77V1h.77v2.9a15.34,15.34,0,0,1,3.81,1.58l-.38.73A12.6,12.6,0,0,0,82.7,4.64ZM84.64.8l.51-.2a13.08,13.08,0,0,1,.74,1.69l-.54.22A9.83,9.83,0,0,0,84.64.8ZM85.78.46l.5-.19A7.9,7.9,0,0,1,87,1.92l-.52.21A9,9,0,0,0,85.78.46Z"/>
    <path class="cls-7" d="M90.53,1.72H96a9.48,9.48,0,0,1-1.29,5.37,6.94,6.94,0,0,1-3.36,2.33L91,8.81A6.05,6.05,0,0,0,94.22,6.5a7.62,7.62,0,0,0,1-4.11H90.53Z"/>
    <path class="cls-7" d="M97.47,8.94V1.78h5.22V8.94Zm4.44-.68V2.46H98.23v5.8Z"/>
    <path class="cls-7" d="M104.1,4.89h5.44v.75H104.1Z"/>
    <path class="cls-7" d="M115.7,10.59H115a6.26,6.26,0,0,1-1.51-4.27A6.47,6.47,0,0,1,115,2h.73a6.55,6.55,0,0,0-1.54,4.32A6.46,6.46,0,0,0,115.7,10.59Z"/>
    <path class="cls-7" d="M117.58,6.35V9h-.82V2h1.92a2.56,2.56,0,0,1,1.74.55A2,2,0,0,1,121,4.08a2.1,2.1,0,0,1-.69,1.63,2.59,2.59,0,0,1-1.85.64Zm0-3.61V5.61h.86a1.91,1.91,0,0,0,1.29-.39,1.38,1.38,0,0,0,.45-1.1c0-.92-.55-1.38-1.64-1.38Z"/>
    <path class="cls-7" d="M127.12,9H126l-2.71-3.21a1.73,1.73,0,0,1-.18-.24h0V9h-.82V2h.82V5.28h0a1.62,1.62,0,0,1,.18-.23L125.89,2h1l-3,3.36Z"/>
    <path class="cls-7" d="M132.45,8.7a4,4,0,0,1-1.94.41,3.13,3.13,0,0,1-2.39-1,3.54,3.54,0,0,1-.9-2.52,3.75,3.75,0,0,1,1-2.72,3.44,3.44,0,0,1,2.57-1,4.18,4.18,0,0,1,1.65.28V3a3.36,3.36,0,0,0-1.66-.42,2.57,2.57,0,0,0-2,.8,3.05,3.05,0,0,0-.75,2.16,2.89,2.89,0,0,0,.7,2,2.41,2.41,0,0,0,1.84.76,3.51,3.51,0,0,0,1.83-.47Z"/>
    <path class="cls-7" d="M137.42,9h-3.71V2h3.56v.75h-2.74V5.06h2.53V5.8h-2.53V8.25h2.89Z"/>
    <path class="cls-7" d="M143.34,2.88h-1.73V2.27c.52,0,1.1,0,1.76,0q.07-1,.09-1.35l.71,0c0,.56-.09,1-.11,1.27,1.09,0,2.16-.14,3.22-.27V2.6c-1.05.11-2.14.19-3.26.24,0,.63,0,1.1-.05,1.41a5.58,5.58,0,0,1,1.52-.19,5.35,5.35,0,0,0,.16-.66l.68.14c-.05.23-.11.42-.16.59a2.14,2.14,0,0,1,1.6,1,2.71,2.71,0,0,1,.38,1.44c0,1.61-1,2.56-3,2.85l-.28-.61a3.46,3.46,0,0,0,2-.84,1.77,1.77,0,0,0,.55-1.32,2.11,2.11,0,0,0-.49-1.49,1.48,1.48,0,0,0-.9-.48A10.73,10.73,0,0,1,144.31,8a2.41,2.41,0,0,1-1.82,1,1.18,1.18,0,0,1-1-.41,1.51,1.51,0,0,1-.28-1,3.23,3.23,0,0,1,.6-1.95,3.65,3.65,0,0,1,1.48-1.18C143.31,3.78,143.33,3.24,143.34,2.88Zm.35,4.78a10,10,0,0,1-.38-2.49,2.67,2.67,0,0,0-1.08,1.08,2.58,2.58,0,0,0-.34,1.3,1,1,0,0,0,.17.6.48.48,0,0,0,.39.18A1.86,1.86,0,0,0,143.69,7.66Zm.53-.67a9.65,9.65,0,0,0,1.11-2.36,4.35,4.35,0,0,0-1.36.22A10.21,10.21,0,0,0,144.22,7Z"/>
    <path class="cls-7" d="M149.84,1.21l.7.09a27.83,27.83,0,0,0-.31,3.5c0,.33,0,.61,0,.83q.36-.87.69-1.5l.46.35a11.57,11.57,0,0,0-.7,1.58,3.65,3.65,0,0,0-.17.6h-.77a8.81,8.81,0,0,1-.21-2A29.93,29.93,0,0,1,149.84,1.21Zm3.33,0,.73,0c.06,1.24.09,2.37.09,3.4a10.25,10.25,0,0,1-.17,2.17A3.33,3.33,0,0,1,153.33,8a4.11,4.11,0,0,1-2.52,1.51l-.43-.57a3.49,3.49,0,0,0,2.25-1.21,5.29,5.29,0,0,0,.66-3.1C153.29,3.69,153.25,2.57,153.17,1.25Z"/>
    <path class="cls-7" d="M155.89,10.59h-.71a6.45,6.45,0,0,0,1.52-4.28A6.6,6.6,0,0,0,155.17,2h.72a6.44,6.44,0,0,1,1.53,4.33A6.23,6.23,0,0,1,155.89,10.59Z"/>
    <path class="cls-7" d="M44.31,18.52H41.65v-.63h2.66Z"/>
    <path class="cls-7" d="M51.83,17.85a.11.11,0,0,1,0,0s0,.05-.09.08l-.22.08-.11,0s0,0-.06-.07l-.18-.56-.8.08v2.68l0,1.46a.07.07,0,0,1-.08.08h-.45a.07.07,0,0,1-.08-.08l0-1.46V17.61l-1,.06a.72.72,0,0,0-.38.08.19.19,0,0,1-.1,0c-.05,0-.08,0-.1-.12s-.06-.32-.09-.55a4.21,4.21,0,0,0,.57,0h.12c.27-.35.53-.72.79-1.1a15,15,0,0,0-1.44-1.5s0-.05,0-.06a.31.31,0,0,1,.06-.12l.16-.21a.13.13,0,0,1,.09-.07s0,0,.07,0l.39.37a14.19,14.19,0,0,0,.73-1.25,2.12,2.12,0,0,0,.19-.55l.52.24c.07,0,.11.09.11.14a.18.18,0,0,1-.09.12.84.84,0,0,0-.21.29c-.23.39-.52.85-.89,1.37a8,8,0,0,1,.67.73q.3-.48.78-1.29a1.73,1.73,0,0,0,.22-.57,4.19,4.19,0,0,1,.55.26c.06,0,.09.09.09.14a.18.18,0,0,1-.09.12,1.42,1.42,0,0,0-.33.41c-.56.9-1.13,1.72-1.7,2.46.41,0,.92-.05,1.52-.1a6.62,6.62,0,0,0-.3-.66s0,0,0-.06,0,0,.09-.07l.23-.08.09,0s0,0,0,.05A8.85,8.85,0,0,1,51.83,17.85Zm-2.53.7a.58.58,0,0,1,0,.13.57.57,0,0,0-.06.28,9,9,0,0,1-.45,1.91c0,.1-.08.15-.11.15L48.52,21a1.21,1.21,0,0,0-.36-.17,7,7,0,0,0,.5-1.92c0-.11,0-.2,0-.29v-.22a3.47,3.47,0,0,1,.49.1C49.25,18.49,49.3,18.51,49.3,18.55Zm2.41,1.33v0s0,.07-.11.09l-.22.08-.12,0s0,0,0-.08a12,12,0,0,0-.39-1.55.11.11,0,0,1,0,0s0-.05.1-.07l.24-.07a.11.11,0,0,1,.07,0s0,0,.06.06A8.57,8.57,0,0,1,51.71,19.88Zm1.95-2.28a.23.23,0,0,1,0,.09.33.33,0,0,0,0,.1,1.73,1.73,0,0,0,0,.49,4.07,4.07,0,0,1-.43,1.92,3.14,3.14,0,0,1-1.52,1.39l-.15,0s-.09,0-.16-.13a1.68,1.68,0,0,0-.34-.27,3.19,3.19,0,0,0,1.68-1.32A3.71,3.71,0,0,0,53,18.2a5.78,5.78,0,0,0,0-.75l.57,0C53.6,17.51,53.66,17.54,53.66,17.6Zm3.43-3.08s0,.06-.08.06l-1.34,0H54.14a13.54,13.54,0,0,1-.94,1.86c1.06-.09,1.88-.18,2.46-.26-.21-.27-.44-.52-.67-.77,0,0,0-.05,0-.07s0-.05.09-.09l.21-.11a.16.16,0,0,1,.09,0,.07.07,0,0,1,.06,0,10.13,10.13,0,0,1,1.48,1.79.2.2,0,0,1,0,.08s0,.05-.09.08l-.26.16-.13.05s0,0-.06-.05c-.16-.28-.29-.49-.37-.61-1.1.15-2.24.29-3.42.39a1.2,1.2,0,0,0-.44.1.19.19,0,0,1-.11.05s-.07,0-.09-.1a4.7,4.7,0,0,1-.15-.6h.77a10.56,10.56,0,0,0,.93-1.9h-.32l-1.33,0c-.05,0-.08,0-.08-.06v-.41c0-.06,0-.08.08-.08l1.33,0h.76v-.42a4.3,4.3,0,0,0-.07-.9,5.22,5.22,0,0,1,.66.06c.08,0,.12,0,.12.08a.71.71,0,0,1-.06.19,2,2,0,0,0,0,.57v.42h1.14L57,14c.05,0,.08,0,.08.08Zm.11,5.65a1.68,1.68,0,0,1-.32,1.09,1.68,1.68,0,0,1-1.14.27,2.14,2.14,0,0,1-.82-.11.6.6,0,0,1-.29-.61V18.49a6.88,6.88,0,0,0-.06-1.11,5.67,5.67,0,0,1,.62.06c.09,0,.14,0,.14.08a.84.84,0,0,1-.06.19,3.82,3.82,0,0,0-.05.82v2.11c0,.15,0,.24.1.28a1.13,1.13,0,0,0,.48.07c.38,0,.61-.07.69-.19a2.31,2.31,0,0,0,.17-1.06,1.46,1.46,0,0,0,.36.19.44.44,0,0,1,.16.08A.51.51,0,0,1,57.2,20.17Z"/>
    <path class="cls-7" d="M67.38,16.42a1.26,1.26,0,0,0-.28.4c0,.1-.09.16-.13.16a.35.35,0,0,1-.16-.06,9.57,9.57,0,0,1-4.23-3.44A11,11,0,0,1,58.51,17l-.15.06s-.07-.05-.13-.15a1.28,1.28,0,0,0-.31-.35A9,9,0,0,0,62,13.15a2.66,2.66,0,0,0,.28-.56l.62.11c.09,0,.14.07.14.12a.13.13,0,0,1-.07.11L62.9,13A9.48,9.48,0,0,0,67.38,16.42Zm-1.89,5.11s0,.08-.09.08h-.47c-.06,0-.08,0-.08-.08v-.41H60.41v.46c0,.05,0,.07-.08.07h-.48c-.05,0-.08,0-.08-.07l0-1.74V19l0-1.13s0-.07.08-.07l1.38,0H64l1.37,0c.06,0,.09,0,.09.07l0,1v.91Zm-.64-1V18.39H60.41v2.19Zm-.18-4.09a.07.07,0,0,1-.08.08l-1.17,0h-1.6l-1.17,0a.07.07,0,0,1-.08-.08v-.44c0-.05,0-.07.08-.07l1.17,0h1.6l1.17,0s.08,0,.08.07Z"/>
    <path class="cls-7" d="M79.56,14l-2,7h-1l-1.44-5.12a3.19,3.19,0,0,1-.12-.71h0a4.1,4.1,0,0,1-.12.7L73.47,21h-1l-2.05-7h.91l1.49,5.37a3.29,3.29,0,0,1,.11.71h0a3.23,3.23,0,0,1,.15-.71L74.7,14h.78L77,19.4a3.78,3.78,0,0,1,.11.66h0a4.33,4.33,0,0,1,.14-.68L78.67,14Z"/>
    <path class="cls-7" d="M81,14.73a.51.51,0,0,1-.52-.52.52.52,0,0,1,.15-.38.53.53,0,0,1,.37-.14.55.55,0,0,1,.37.14.53.53,0,0,1,.16.38.5.5,0,0,1-.16.36A.52.52,0,0,1,81,14.73ZM81.42,21h-.8V16h.8Z"/>
    <path class="cls-7" d="M87.18,21h-.8V18.14c0-1.06-.39-1.59-1.16-1.59a1.25,1.25,0,0,0-1,.45,1.64,1.64,0,0,0-.4,1.14V21H83V16h.8v.83h0a1.8,1.8,0,0,1,1.64-.95,1.52,1.52,0,0,1,1.26.53,2.34,2.34,0,0,1,.43,1.53Z"/>
    <path class="cls-7" d="M93.05,21h-.81v-.85h0a2,2,0,0,1-3.23.29,2.74,2.74,0,0,1-.56-1.83,3,3,0,0,1,.62-2,2.06,2.06,0,0,1,1.67-.75,1.62,1.62,0,0,1,1.5.81h0v-3.1h.81Zm-.81-2.27V18a1.42,1.42,0,0,0-.4-1,1.32,1.32,0,0,0-1-.42,1.37,1.37,0,0,0-1.15.54,2.35,2.35,0,0,0-.42,1.48,2.13,2.13,0,0,0,.4,1.37,1.33,1.33,0,0,0,1.08.5A1.38,1.38,0,0,0,91.83,20,1.81,1.81,0,0,0,92.24,18.73Z"/>
    <path class="cls-7" d="M96.79,21.11a2.31,2.31,0,0,1-1.77-.7,2.6,2.6,0,0,1-.67-1.86,2.68,2.68,0,0,1,.69-2,2.45,2.45,0,0,1,1.86-.71,2.25,2.25,0,0,1,1.75.69,2.72,2.72,0,0,1,.63,1.91,2.69,2.69,0,0,1-.68,1.91A2.37,2.37,0,0,1,96.79,21.11Zm.06-4.56a1.54,1.54,0,0,0-1.23.53,2.19,2.19,0,0,0-.44,1.44,2.08,2.08,0,0,0,.45,1.41,1.55,1.55,0,0,0,1.22.51,1.48,1.48,0,0,0,1.19-.5,2.21,2.21,0,0,0,.42-1.44A2.21,2.21,0,0,0,98,17.06,1.46,1.46,0,0,0,96.85,16.55Z"/>
    <path class="cls-7" d="M106.86,16l-1.5,5h-.83l-1-3.58a2.09,2.09,0,0,1-.08-.47h0a2.15,2.15,0,0,1-.1.46L102.18,21h-.8l-1.52-5h.84l1,3.75a3.59,3.59,0,0,1,.07.45h0a2,2,0,0,1,.09-.45L103.09,16h.73l1,3.76a2.44,2.44,0,0,1,.08.45h0a1.78,1.78,0,0,1,.08-.45l1-3.76Z"/>
    <path class="cls-7" d="M107.58,20.81V20a2.35,2.35,0,0,0,1.44.48c.7,0,1-.24,1-.7a.59.59,0,0,0-.09-.34.82.82,0,0,0-.24-.25,1.75,1.75,0,0,0-.36-.19l-.45-.18a5.37,5.37,0,0,1-.58-.27,1.74,1.74,0,0,1-.42-.3,1.08,1.08,0,0,1-.26-.38,1.56,1.56,0,0,1-.08-.51,1.17,1.17,0,0,1,.16-.62,1.42,1.42,0,0,1,.43-.45,1.79,1.79,0,0,1,.61-.28,2.82,2.82,0,0,1,.71-.09,2.86,2.86,0,0,1,1.16.22v.81a2.25,2.25,0,0,0-1.27-.36,1.62,1.62,0,0,0-.4.05,1.12,1.12,0,0,0-.31.15.6.6,0,0,0-.2.22.55.55,0,0,0-.07.28.65.65,0,0,0,.28.57A1.69,1.69,0,0,0,109,18l.44.18c.22.09.42.17.6.26a2.11,2.11,0,0,1,.45.31,1.14,1.14,0,0,1,.28.38,1.25,1.25,0,0,1,.1.53,1.22,1.22,0,0,1-.16.64,1.48,1.48,0,0,1-.44.46,1.78,1.78,0,0,1-.63.26,3,3,0,0,1-.74.09A2.79,2.79,0,0,1,107.58,20.81Z"/>
    <path class="cls-7" d="M118,15c0,.05,0,.08-.08.08l-1,0h-1.16l-1,0a.07.07,0,0,1-.07-.08v-.43a.06.06,0,0,1,.07-.07l1,0h1.16l1,0c.06,0,.08,0,.08.07Zm-.3-1.36s0,.07-.08.07h-2.52c-.05,0-.08,0-.08-.07v-.4c0-.06,0-.09.08-.09l.88,0h.77l.87,0c.06,0,.08,0,.08.09Zm0,7.75c0,.05,0,.07-.08.07h-.4s-.08,0-.08-.07v-.33h-1.49v.52c0,.06,0,.08-.07.08h-.4c-.07,0-.1,0-.1-.08l0-1.45v-.6l0-.89s0-.07.09-.07l.85,0h.74l.87,0s.07,0,.07.07V21.4Zm-.12-5.06c0,.05,0,.08-.08.08l-.81,0H116l-.81,0a.07.07,0,0,1-.08-.08V16c0-.06,0-.08.08-.08l.81,0h.63l.81,0c.06,0,.08,0,.08.08Zm0,1.33c0,.06,0,.08-.08.08l-.81,0H116l-.81,0s-.08,0-.08-.08v-.39c0-.05,0-.07.08-.07l.81,0h.63l.81,0c.06,0,.08,0,.08.07Zm-.44,2.92v-1.5h-1.49v1.5Zm6-7.32c0,.07,0,.29,0,.64a10.56,10.56,0,0,1-.31,2.73.84.84,0,0,1-.9.57,6.59,6.59,0,0,1-.67,0c-.08,0-.13,0-.14-.05a.49.49,0,0,1,0-.17,1.11,1.11,0,0,0-.14-.41,4.51,4.51,0,0,0,.86.08c.26,0,.42-.08.49-.26a9.06,9.06,0,0,0,.27-2.66h-1.76a5.47,5.47,0,0,1-.3,1.47l.93.48s0,0,0,.05l-.05.1-.13.27c0,.07-.06.11-.09.11l-.07,0c-.22-.14-.5-.29-.84-.47a4.08,4.08,0,0,1-1.82,1.83.46.46,0,0,1-.16.06s-.08-.05-.14-.13a.92.92,0,0,0-.3-.29,3.6,3.6,0,0,0,1.92-1.72c-.38-.17-.77-.33-1.17-.47,0,0,0,0,0,0a.82.82,0,0,1,0-.11l.12-.26s0-.07.08-.07l.06,0c.46.15.83.3,1.13.43a4.75,4.75,0,0,0,.22-1.25h-.42l-1.26,0s-.08,0-.08-.07v-.4c0-.06,0-.08.08-.08l1.26,0h2l1.29,0C123.12,13.18,123.15,13.21,123.15,13.27ZM119,18.84a6.35,6.35,0,0,1-.56,1.88s0,.05-.06.05l-.11,0-.24-.13c-.08,0-.12-.07-.12-.1s0,0,0-.05a5.05,5.05,0,0,0,.54-1.76c0-.05,0-.08.06-.08l.1,0,.27.07c.07,0,.11.05.11.08A.08.08,0,0,1,119,18.84Zm3.34,1.44a2.78,2.78,0,0,1-.16.73.75.75,0,0,1-.33.35,2.28,2.28,0,0,1-1,.17,2.71,2.71,0,0,1-.92-.11.64.64,0,0,1-.36-.66V19a5.72,5.72,0,0,0,0-.76l.56.05c.08,0,.12.05.12.08a.31.31,0,0,1,0,.12,1.55,1.55,0,0,0,0,.47v1.55a.78.78,0,0,0,0,.28.38.38,0,0,0,.15.12,1.67,1.67,0,0,0,.56.06,1.54,1.54,0,0,0,.7-.1c.17-.13.26-.48.27-1.06a1.11,1.11,0,0,0,.37.2c.11,0,.17.1.17.17A.34.34,0,0,1,122.33,20.28Zm-.74-2.05a.07.07,0,0,1,0,.06s0,.06-.08.12l-.19.18c-.06.07-.1.1-.12.1l0,0A4.56,4.56,0,0,0,120,17.61s0,0,0-.05,0,0,.07-.1l.19-.18s.08-.06.1-.06l.07,0A7.55,7.55,0,0,1,121.59,18.23Zm2.07,2a.11.11,0,0,1,0,.05s0,0-.12.1l-.24.12-.12.05s0,0,0-.06a6.35,6.35,0,0,0-.89-1.71.08.08,0,0,1,0,0s0,0,.12-.07l.22-.11.11,0s0,0,.06.05A7.17,7.17,0,0,1,123.66,20.21Z"/>
    <path class="cls-7" d="M128,15.05c0,.06,0,.09-.08.09l-1,0h-1.28l-1,0s-.08,0-.08-.09v-.42a.07.07,0,0,1,.08-.08l1,0h1.28l1,0c.06,0,.08,0,.08.08Zm-.35,6.42c0,.05,0,.08-.09.08h-.41a.07.07,0,0,1-.08-.08v-.33H125.5v.5c0,.06,0,.09-.08.09H125c-.05,0-.08,0-.08-.09l0-1.47v-.61l0-.86c0-.06,0-.08.08-.08l.88,0h.8l.9,0s.08,0,.08.08l0,.71v.65Zm0-7.8c0,.05,0,.07-.08.07l-.88,0h-.84l-.88,0s-.08,0-.08-.07v-.4c0-.06,0-.08.08-.08l.88,0h.84l.88,0c.06,0,.08,0,.08.08Zm-.14,2.74c0,.05,0,.07-.09.07l-.82,0h-.73l-.83,0s-.08,0-.08-.07V16c0-.05,0-.07.08-.07l.83,0h.73l.82,0c.06,0,.09,0,.09.07Zm0,1.32a.08.08,0,0,1-.09.09l-.82,0h-.73l-.83,0s-.08,0-.08-.09v-.39a.07.07,0,0,1,.08-.08l.83,0h.73l.82,0c.06,0,.09,0,.09.08Zm-.48,2.92V19.13H125.5v1.52Zm6.3.52s0,.07-.07.07l-1.36,0h-2.55l-1.34,0c-.06,0-.09,0-.09-.07v-.44c0-.05,0-.08.09-.08l.71,0V17.38a8.51,8.51,0,0,0-.07-1.37c.27,0,.49,0,.66.07s.11,0,.11.08a.71.71,0,0,1-.06.19,6.15,6.15,0,0,0,0,1v3.29h1.2V13.94h-.91l-1.28,0a.07.07,0,0,1-.08-.08v-.43c0-.06,0-.08.08-.08l1.28,0h2.16l1.29,0s.08,0,.08.08v.43a.07.07,0,0,1-.08.08l-1.29,0h-.65v2.82h1l.76,0c.06,0,.08,0,.08.08v.43c0,.05,0,.08-.08.08l-.76,0h-1v3.36H132l1.36,0c.05,0,.07,0,.07.08Z"/>
    <path class="cls-7" d="M44.31,30.52H41.65v-.63h2.66Z"/>
    <path class="cls-7" d="M53.39,32.21h2v.67H48.18v-.67H52.6l.45-5.67H49v-.67H53.9Z"/>
    <path class="cls-7" d="M55.58,28.89H61v.75H55.58Z"/>
    <path class="cls-7" d="M63.91,27.07h2.51V25.23h.75v1.84h1.61v.67H67.17v.7a5.21,5.21,0,0,1-1,3.61,5.23,5.23,0,0,1-2.72,1.38L63,32.86a4.38,4.38,0,0,0,2.68-1.4,4.76,4.76,0,0,0,.75-2.92v-.8H63.91v2.6h-.75v-2.6H61.63v-.67h1.53v-2h.75Zm3.36-2.46.51-.16a11.29,11.29,0,0,1,.61,1.74l-.55.17A10.28,10.28,0,0,0,67.27,24.61Zm1.08-.25.51-.14a7.19,7.19,0,0,1,.58,1.69l-.53.17A9.39,9.39,0,0,0,68.35,24.36Z"/>
    <path class="cls-7" d="M69.47,28.89h5.44v.75H69.47Z"/>
    <path class="cls-7" d="M83.67,33.62a.07.07,0,0,1-.08.08H83.1c-.06,0-.08,0-.08-.08v-.51H79v.57a.07.07,0,0,1-.08.07h-.48c-.06,0-.08,0-.08-.07l0-1.74V30.43a21,21,0,0,1-2.18,1.1l-.15,0s-.07-.05-.13-.15a1,1,0,0,0-.29-.34A13.57,13.57,0,0,0,79.44,29,7.35,7.35,0,0,0,78.14,28s0-.05,0-.06,0,0,.06-.1l.22-.19a.16.16,0,0,1,.1-.07l.07,0a9.33,9.33,0,0,1,1.38,1.05,15.35,15.35,0,0,0,2-2.18H79a11,11,0,0,1-2.52,2l-.15.07s-.08-.05-.14-.15a1,1,0,0,0-.3-.29,9.23,9.23,0,0,0,3.28-2.85,2.23,2.23,0,0,0,.31-.58,3.42,3.42,0,0,1,.61.21.11.11,0,0,1,.09.11s0,.08-.12.12a1.11,1.11,0,0,0-.26.31l-.36.48H82a.7.7,0,0,0,.24,0l.12,0a.47.47,0,0,1,.29.17c.13.12.2.21.2.28s0,.11-.13.15a1.17,1.17,0,0,0-.29.3,14.51,14.51,0,0,1-3.23,3.15h4.38s.08,0,.08.06l0,1.16v.82Zm-.65-1V30.43H79v2.14Z"/>
    <path class="cls-7" d="M88.87,26l-3.36,8.17h-.75L88.11,26Z"/>
    <path class="cls-7" d="M88.58,32.8A10.08,10.08,0,0,0,90,29.62a24.48,24.48,0,0,0,.62-3.92l.79.07a23.49,23.49,0,0,1-.81,4.53,10.64,10.64,0,0,1-1.33,2.88Zm4.27-7,.76-.06a18.89,18.89,0,0,0,2.08,7.07l-.73.42A20.91,20.91,0,0,1,92.85,25.75Zm2.24-1.28a1.1,1.1,0,0,1,.84.38,1.12,1.12,0,1,1-2,.74,1.09,1.09,0,0,1,.37-.83A1.12,1.12,0,0,1,95.09,24.47Zm0,.43a.7.7,0,0,0-.69.69.67.67,0,0,0,.23.52.65.65,0,0,0,.46.18.68.68,0,0,0,.52-.23.66.66,0,0,0,.18-.47.65.65,0,0,0-.23-.51A.67.67,0,0,0,95.09,24.9Z"/>
    <path class="cls-7" d="M100.76,30.13a8.91,8.91,0,0,1-3.57,3.16l-.44-.57A8.79,8.79,0,0,0,100,29.91a10,10,0,0,0,1.46-3.6h-4.2v-.67h5.19a13.19,13.19,0,0,1-1.32,3.82,22.52,22.52,0,0,1,2.33,3.36l-.74.47A17.61,17.61,0,0,0,100.76,30.13Z"/>
    <path class="cls-7" d="M105,26.28v2.91h-.77V25.61h5.67a14.81,14.81,0,0,1-.55,4.69,4.78,4.78,0,0,1-1.34,2,5.68,5.68,0,0,1-2,1.15l-.49-.55a4.45,4.45,0,0,0,3.07-2.74,12.21,12.21,0,0,0,.5-3.86Z"/>
    <path class="cls-7" d="M111,28.89h5.44v.75H111Z"/>
    <path class="cls-7" d="M119.06,28.64V33.4h-.77V25h.77v2.9a15.67,15.67,0,0,1,3.81,1.58l-.39.73A12.52,12.52,0,0,0,119.06,28.64ZM121,24.8l.5-.2a11.57,11.57,0,0,1,.75,1.69l-.55.22A9.91,9.91,0,0,0,121,24.8Zm1.13-.34.51-.19a7.93,7.93,0,0,1,.7,1.65l-.51.21A8.93,8.93,0,0,0,122.13,24.46Z"/>
  </g>
  <line class="cls-8" x1="162.7" y1="54.45" x2="75.52" y2="54.45"/>
</svg>
