<svg xmlns="http://www.w3.org/2000/svg" viewBox="0 0 204.71 66.15"><defs><style>.cls-1{fill:#007efd;}.cls-2,.cls-3{fill:#008bfd;}.cls-3{stroke:gray;stroke-linecap:round;stroke-linejoin:round;stroke-width:0.75px;}.cls-4{fill:#fff;}.cls-5{fill:#505050;}.cls-6{fill:#00b0f0;}</style></defs><title>OJ104546516</title><g id="shapes"><g id="group1195-2"><g id="shape1200-7"><path class="cls-1" d="M69.66,9.34H63.58c-.23,0-.38.15-.38.46V12a.35.35,0,0,0,.38.37H67v3.39c0,.23.15.38.45.38h2.18a.35.35,0,0,0,.37-.38v-6A.35.35,0,0,0,69.66,9.34Zm-17.19,21H49V27c0-.22-.15-.37-.45-.37H46.4A.35.35,0,0,0,46,27v6a.36.36,0,0,0,.38.38h6.07c.23,0,.38-.15.38-.45V30.72A.36.36,0,0,0,52.47,30.34Zm13.58-3.69a.9.9,0,0,0-.45.08l-2.32-4.07a2.77,2.77,0,0,0-1.88-4.81,3,3,0,0,0-1.12.22L57.8,14.61a2,2,0,0,0,.53-1.5A2.33,2.33,0,1,0,56,15.44a2.38,2.38,0,0,0,.75-.15l2.48,3.54a2.82,2.82,0,0,0-.68,1.43l-7.2.6a1.78,1.78,0,0,0-1.65-1,1.88,1.88,0,0,0,0,3.76,1.92,1.92,0,0,0,1.87-1.58l7.06-.6a3.74,3.74,0,0,0,.67,1.2L57.5,25.6h-.22a1.88,1.88,0,1,0,1.87,1.88,2.13,2.13,0,0,0-.52-1.35l1.72-2.86a4,4,0,0,0,1,.15,3.38,3.38,0,0,0,.82-.15l2.33,4.06a2.34,2.34,0,0,0-.68,1.58,2.18,2.18,0,1,0,2.25-2.26Z"/></g></g><g id="group1201-12"><g id="group1202-13"><g id="group1203-14"><g id="group1204-15"><g id="shape1205-16"><path class="cls-2" d="M7.85,13.61a4.49,4.49,0,0,0-3,5.66c.66,2.56,3,4.22,5.27,3.67a4.5,4.5,0,0,0,3-5.67C12.57,14.61,10.16,12.94,7.85,13.61Z"/></g></g><g id="group1206-18"><g id="shape1207-19"><path class="cls-2" d="M12.79,23.63c-.44,0-.88.78-1.54,1.11s-1.32.89-3.18,0S6,23.08,4.44,23.08.38,25.85.38,30H16a12.14,12.14,0,0,0-1.1-4.22C13.77,23.63,13.23,23.63,12.79,23.63Z"/></g></g></g></g><g id="group1208-21"><g id="shape1209-22"><path class="cls-3" d="M14.19,18.69H10.07a.71.71,0,0,0-.65.66V22.2a.73.73,0,0,0,.76.66h.76V28a1,1,0,0,0,1,1.1,1,1,0,0,0,1-1h.21v-.65c0-.22.33-.33.33-.33V26.8c-.33-.11-.54-.33-.54-.44V26l.21-.22a3.55,3.55,0,0,0,.33-.54,2.4,2.4,0,0,1-.33-.55c-.1-.11-.1-.33-.21-.44v-.22a2.51,2.51,0,0,1,.76-1.1h.54a.7.7,0,0,0,.65-.65v-3A.63.63,0,0,0,14.19,18.69ZM11.8,28.22c0,.22,0,.33-.21.33s-.22-.22-.22-.33V23.4c0-.22.11-.33.22-.33s.21.22.21.33Zm.33-7.78a.69.69,0,0,1-.65-.65.7.7,0,0,1,.65-.66.71.71,0,0,1,.65.66A.62.62,0,0,1,12.13,20.44Z"/></g><g id="shape1210-24"><path class="cls-4" d="M11.57,28.53a.24.24,0,0,1-.22-.22v-5a.22.22,0,1,1,.44,0v5.11C11.79,28.53,11.68,28.53,11.57,28.53Z"/></g><g id="shape1211-26"><ellipse class="cls-4" cx="12.14" cy="19.77" rx="0.66" ry="0.67"/></g></g></g><path class="cls-2" d="M191.76,8.21h-20.5a1.09,1.09,0,0,0-1.09,1.1V26.05a1.1,1.1,0,0,0,1.09,1.11h5.28a3.29,3.29,0,0,0,3.21,2.27,3.38,3.38,0,0,0,0-6.75A3.29,3.29,0,0,0,176.54,25h-4.19V13h18.31V25h-3.45a7.61,7.61,0,0,0-7.46-6.56,8.25,8.25,0,0,0-3.64.92l1,2a5.27,5.27,0,0,1,2.55-.67,5.46,5.46,0,0,1,0,10.91,5.27,5.27,0,0,1-2.55-.67l-1,2a7.51,7.51,0,0,0,3.64.92,7.61,7.61,0,0,0,7.46-6.56h4.55a1.1,1.1,0,0,0,1.09-1.11V9.31A1.14,1.14,0,0,0,191.76,8.21Z"/><g id="shape1213-31"><g id="lend5"><path class="cls-5" d="M161.69,17l8.05,4-8,4a9,9,0,0,0,0-8"/></g></g></g><g id="text"><path class="cls-6" d="M84.93,8.81H81.85V8.16H88.2v.65H85.69a18.29,18.29,0,0,1-.09,1.83,4,4,0,0,1-.24,1A4.51,4.51,0,0,1,83,13.9l-.49-.57a3.7,3.7,0,0,0,2.17-2A8.31,8.31,0,0,0,84.93,8.81ZM82.45,6h4.27v.65H82.45Zm4.35-.75L87.3,5a10.32,10.32,0,0,1,.75,1.69L87.5,7A9.35,9.35,0,0,0,86.8,5.23Zm1.11-.33.5-.18a8.31,8.31,0,0,1,.72,1.64l-.53.21A9.26,9.26,0,0,0,87.91,4.9Z"/><path class="cls-6" d="M89.87,13.28a10.23,10.23,0,0,0,1.39-3.19,23.4,23.4,0,0,0,.62-3.92l.8.07a24.21,24.21,0,0,1-.82,4.53,10.63,10.63,0,0,1-1.32,2.88Zm4.27-7.06.76-.06A18.53,18.53,0,0,0,97,13.23l-.74.42A20.91,20.91,0,0,1,94.14,6.22Zm1-.69.51-.2A12.47,12.47,0,0,1,96.37,7l-.54.22A10.68,10.68,0,0,0,95.12,5.53Zm1.11-.35.5-.18a8.62,8.62,0,0,1,.71,1.64l-.52.21A9.58,9.58,0,0,0,96.23,5.18Z"/><path class="cls-6" d="M100.31,8.55a22.06,22.06,0,0,1-2.81,1.88l-.41-.57a18,18,0,0,0,3.12-2.15,14.15,14.15,0,0,0,2.22-2.33l.65.41a15.3,15.3,0,0,1-2,2.12v6h-.77Z"/><path class="cls-6" d="M106.65,10.6a8.91,8.91,0,0,1-3.57,3.16l-.44-.57a8.79,8.79,0,0,0,3.27-2.81,10,10,0,0,0,1.46-3.6h-4.2V6.11h5.19A13.26,13.26,0,0,1,107,9.94a21.54,21.54,0,0,1,2.33,3.36l-.74.46A18.82,18.82,0,0,0,106.65,10.6Z"/><path class="cls-6" d="M117.63,13.34h-5v-.66h4.19V7h-4.19V6.31h5Z"/><path class="cls-6" d="M118.57,9.36H124v.75h-5.44Z"/><path class="cls-6" d="M125.76,9.12v4.75H125V5.48h.78v2.9a15,15,0,0,1,3.8,1.59l-.38.72A12.52,12.52,0,0,0,125.76,9.12Zm1.94-3.85.5-.2A12.79,12.79,0,0,1,129,6.76L128.4,7A9.91,9.91,0,0,0,127.7,5.27Zm1.13-.34.51-.18a7.82,7.82,0,0,1,.7,1.64l-.51.21A10,10,0,0,0,128.83,4.93Z"/><path class="cls-6" d="M132.16,6.2h5.51a9.46,9.46,0,0,1-1.29,5.36A6.94,6.94,0,0,1,133,13.89l-.42-.6A6.15,6.15,0,0,0,135.85,11a7.62,7.62,0,0,0,1-4.11h-4.67Z"/><path class="cls-6" d="M138.75,13.41V6.25H144v7.16Zm4.45-.68V6.93h-3.68v5.8Z"/><path class="cls-6" d="M144.88,9.36h5.44v.75h-5.44Z"/><path d="M46.15,40.28a7,7,0,0,0-.53-1.18l.52-.2a13.39,13.39,0,0,1,.73,1.69l-.32.13.12.3a8.18,8.18,0,0,1-1.4,4.73A7,7,0,0,1,42,47.87l-.42-.6A6.21,6.21,0,0,0,44.88,45a7.35,7.35,0,0,0,1-4H41.18v-.67Zm.62-1.42.5-.18A8.31,8.31,0,0,1,48,40.32l-.53.21A9.26,9.26,0,0,0,46.77,38.86Z"/><path d="M48.09,42h5.65a6.56,6.56,0,0,1-1.39,4.26,6,6,0,0,1-3.08,1.62l-.36-.57a5.35,5.35,0,0,0,3-1.73,4.94,4.94,0,0,0,1-2.91H48.09Zm.61-2.13h4.53v.67H48.7Z"/><path d="M57.6,40.77h2.56a9.2,9.2,0,0,1-1.11,5.11,6,6,0,0,1-3,2l-.41-.58a5.06,5.06,0,0,0,2.89-2,7.4,7.4,0,0,0,.84-3.88H55.05v2.47h-.78V40.77h2.55V39.31h.78Z"/><path d="M63.44,41.52h2.5V39.68h.76v1.84h1.6v.67H66.7v.71a5.24,5.24,0,0,1-1,3.61,5.38,5.38,0,0,1-2.73,1.38l-.4-.57a4.46,4.46,0,0,0,2.68-1.4A4.8,4.8,0,0,0,65.94,43v-.8h-2.5V44.8h-.76V42.19H61.15v-.67h1.53v-2h.76Zm3.35-2.46.52-.16a11.59,11.59,0,0,1,.6,1.75l-.54.17A11.33,11.33,0,0,0,66.79,39.06Zm1.08-.25.52-.14A7.56,7.56,0,0,1,69,40.36l-.52.17A9.59,9.59,0,0,0,67.87,38.81Z"/><path d="M69.35,43.35h5.44v.74H69.35Z"/><path d="M44.62,53.1,46.1,53v.62c-.54.06-1.09.11-1.64.14a28.29,28.29,0,0,1-1.76,4.63l-.65-.3a21.39,21.39,0,0,0,1.69-4.3q-.81,0-1.62,0l0-.62c.56,0,1.16,0,1.81,0,.13-.56.24-1.12.33-1.69l.73.09C44.88,52,44.77,52.51,44.62,53.1Zm2.15,4.14c-.06-.72-.1-1.56-.1-2.55h.68c0,.85,0,1.75.12,2.71a6.8,6.8,0,0,1,1.83,1.14l-.37.68a5.94,5.94,0,0,0-1.44-1.09v.17q0,1.59-1.77,1.59a1.87,1.87,0,0,1-1.32-.42,1.17,1.17,0,0,1-.39-.92,1.22,1.22,0,0,1,.64-1.07,2.31,2.31,0,0,1,1.25-.33A4.14,4.14,0,0,1,46.77,57.24Zm0,.66a3.06,3.06,0,0,0-.83-.14,1.67,1.67,0,0,0-1,.25.6.6,0,0,0-.28.52.62.62,0,0,0,.3.55,1.38,1.38,0,0,0,.79.2.93.93,0,0,0,1.05-1.06Zm0-4.54.31-.57a9.75,9.75,0,0,1,2.28,1.07l-.36.62A9.13,9.13,0,0,0,46.81,53.36Z"/><path d="M50,51.57h.75c-.12,3.42-.17,5.49-.17,6.19a1.53,1.53,0,0,0,.32,1.13,1.6,1.6,0,0,0,1.11.3,2.29,2.29,0,0,0,1.74-.67,4,4,0,0,0,.87-1.91l.68.34q-.68,2.91-3.27,2.91a2.31,2.31,0,0,1-1.72-.51,2.23,2.23,0,0,1-.43-1.54c0-.37,0-1.26,0-2.68C50,53.41,50,52.22,50,51.57Z"/><path d="M54.83,52h6.51a6.77,6.77,0,0,1-.61,2.21,5,5,0,0,1-1.2,1.51l-.59-.49A4.53,4.53,0,0,0,60,54a3.44,3.44,0,0,0,.43-1.3H54.83Zm.3,7.22a4,4,0,0,0,1.8-1.5,5.42,5.42,0,0,0,.55-2.65V53.5h.76v1.6a5.52,5.52,0,0,1-.8,3.21,5,5,0,0,1-1.82,1.49Z"/><path d="M67.34,52.85a9.36,9.36,0,0,1-1,4.23,6.41,6.41,0,0,1-3.66,2.79l-.42-.6A6.14,6.14,0,0,0,65.55,57a7.58,7.58,0,0,0,1-4.1H61.86v-.67h4.79a.94.94,0,0,1-.07-.39,1.08,1.08,0,0,1,.36-.83,1.13,1.13,0,0,1,.76-.29,1.13,1.13,0,0,1,.75,1.95,1.12,1.12,0,0,1-.75.29A1,1,0,0,1,67.34,52.85Zm.36-1.75a.67.67,0,0,0-.69.69.67.67,0,0,0,.22.52.7.7,0,0,0,.47.17.65.65,0,0,0,.51-.22.67.67,0,0,0,.17-.47.64.64,0,0,0-.22-.51A.65.65,0,0,0,67.7,51.1Z"/><path d="M70.24,51.76v4.9h-.77v-4.9ZM70,59.26A4,4,0,0,0,72.44,58a4.38,4.38,0,0,0,.64-2.62V51.7h.77v3.75a4.51,4.51,0,0,1-1,3.18,4.83,4.83,0,0,1-2.57,1.23Z"/><path d="M169.33,46.72h-.91l-.74-2h-3l-.7,2h-.91l2.68-7h.85ZM167.41,44l-1.1-3a2.75,2.75,0,0,1-.11-.47h0a2.53,2.53,0,0,1-.11.47L165,44Z"/><path d="M171.18,44.07v2.65h-.82v-7h1.92a2.56,2.56,0,0,1,1.74.55,2,2,0,0,1,.62,1.54,2.1,2.1,0,0,1-.69,1.63,2.57,2.57,0,0,1-1.85.64Zm0-3.61v2.87H172a1.89,1.89,0,0,0,1.29-.39,1.37,1.37,0,0,0,.45-1.1c0-.92-.55-1.38-1.64-1.38Z"/><path d="M176.78,46.72H176v-7h.82Z"/><path d="M180.58,39.27h6.51a7.1,7.1,0,0,1-.61,2.22A5.16,5.16,0,0,1,185.27,43l-.59-.49a4.21,4.21,0,0,0,1-1.26,3.49,3.49,0,0,0,.43-1.3h-5.58Zm.3,7.23A3.93,3.93,0,0,0,182.67,45a5.24,5.24,0,0,0,.55-2.64V40.76H184v1.61a5.54,5.54,0,0,1-.8,3.2,5.06,5.06,0,0,1-1.83,1.5Z"/><path d="M193.09,40.11a9.53,9.53,0,0,1-1,4.24,6.39,6.39,0,0,1-3.65,2.79l-.42-.6a6.11,6.11,0,0,0,3.25-2.32,7.62,7.62,0,0,0,1-4.11H187.6v-.66h4.79a1,1,0,0,1-.07-.4,1.13,1.13,0,0,1,2-.75,1.12,1.12,0,0,1,.29.75,1.07,1.07,0,0,1-.37.84,1.08,1.08,0,0,1-.75.29A.84.84,0,0,1,193.09,40.11Zm.35-1.74a.67.67,0,0,0-.52.22.71.71,0,0,0-.17.46.67.67,0,0,0,.23.52.63.63,0,0,0,.46.18.68.68,0,0,0,.52-.23.7.7,0,0,0,.17-.47.68.68,0,0,0-.23-.51A.67.67,0,0,0,193.44,38.37Z"/><path d="M196,39v4.9h-.77V39Zm-.28,7.5a4,4,0,0,0,2.48-1.3,4.43,4.43,0,0,0,.64-2.62V39h.77v3.75a4.51,4.51,0,0,1-1,3.18,5,5,0,0,1-2.56,1.23Z"/><rect class="cls-5" x="64.49" y="19.99" width="99.53" height="1.75" rx="0.76"/></g></svg>