<svg id="svg111" xmlns="http://www.w3.org/2000/svg" viewBox="0 0 204.7 66.2">
  <defs>
    <style>
      .cls-1 {
        fill: #007efd;
      }

      .cls-2, .cls-9 {
        fill: none;
      }

      .cls-3 {
        isolation: isolate;
      }

      .cls-4, .cls-5 {
        fill: #008bfd;
      }

      .cls-5 {
        stroke: gray;
        stroke-linejoin: round;
        stroke-width: 0.75px;
      }

      .cls-5, .cls-9 {
        stroke-linecap: round;
      }

      .cls-6 {
        fill: #fff;
      }

      .cls-7 {
        fill: #00b0f0;
      }

      .cls-8 {
        fill: #505050;
      }

      .cls-9 {
        stroke: #505050;
        stroke-miterlimit: 10;
        stroke-width: 1.91px;
      }
    </style>
  </defs>
  <title>OJ104546516</title>
  <g id="group1195-2">
    <g id="shape1200-7">
      <path id="path33" class="cls-1" d="M69.65,9.3h-6.1a.46.46,0,0,0-.4.5V12a.43.43,0,0,0,.4.4h3.5v3.4a.43.43,0,0,0,.4.4h2.2a.37.37,0,0,0,.4-.4v-6A.46.46,0,0,0,69.65,9.3Zm-17.2,21H49V26.9a.46.46,0,0,0-.5-.4h-2.2a.37.37,0,0,0-.4.4v6a.43.43,0,0,0,.4.4h6.1a.46.46,0,0,0,.4-.5V30.6C52.85,30.5,52.65,30.3,52.45,30.3Zm13.6-3.7c-.2,0-.3,0-.4.1l-2.3-4.1a2.76,2.76,0,0,0-1.9-4.8,3.59,3.59,0,0,0-1.1.2l-2.6-3.4a2,2,0,0,0,.5-1.5A2.26,2.26,0,0,0,56,10.8a2.3,2.3,0,0,0,0,4.6,2.35,2.35,0,0,0,.8-.2l2.5,3.5a3.09,3.09,0,0,0-.7,1.4l-7.2.6a1.82,1.82,0,0,0-1.7-1,1.9,1.9,0,0,0,0,3.8,2,2,0,0,0,1.9-1.6l7.1-.6a4.73,4.73,0,0,0,.7,1.2l-1.8,2.9h-.2a1.9,1.9,0,0,0,0,3.8,1.91,1.91,0,0,0,1.4-3.2l1.7-2.9a3,3,0,0,0,1,.2,2.35,2.35,0,0,0,.8-.2l2.3,4.1a2.36,2.36,0,0,0-.7,1.6,2.2,2.2,0,1,0,2.2-2.2Z"/>
    </g>
  </g>
  <rect class="cls-2" x="26.2" y="38.6" width="64.6" height="24.2"/>
  <g id="Brows..." class="cls-3">
    <g class="cls-3">
      <path class="cls-1" d="M38.34,40a9.15,9.15,0,0,0-.53-1.18l.51-.2a12.47,12.47,0,0,1,.74,1.69l-.33.13.13.3a8.12,8.12,0,0,1-1.4,4.72,7.19,7.19,0,0,1-3.23,2.13l-.42-.6a6.18,6.18,0,0,0,3.25-2.29,7.34,7.34,0,0,0,1-4H33.37V40ZM39,38.56l.5-.18A8.35,8.35,0,0,1,40.17,40l-.52.21A9.26,9.26,0,0,0,39,38.56Z"/>
      <path class="cls-1" d="M40.72,41.7h5.65A6.51,6.51,0,0,1,45,46a6,6,0,0,1-3.08,1.63L41.54,47a5.35,5.35,0,0,0,3-1.72,4.94,4.94,0,0,0,1-2.91H40.72Zm.61-2.13h4.53v.67H41.33Z"/>
      <path class="cls-1" d="M51,40.47h2.57a9,9,0,0,1-1.12,5.1,5.79,5.79,0,0,1-3,2L49,47a5.09,5.09,0,0,0,2.89-2,7.4,7.4,0,0,0,.84-3.88h-4.3v2.47h-.77V40.47H50.2V39H51Z"/>
      <path class="cls-1" d="M57,41.22h2.51V39.38h.75v1.84h1.61v.67H60.23v.71a5.2,5.2,0,0,1-1,3.6,5.27,5.27,0,0,1-2.72,1.39L56.05,47a4.35,4.35,0,0,0,2.68-1.4,4.76,4.76,0,0,0,.75-2.92v-.8H57v2.6h-.75v-2.6H54.69v-.67h1.53v-2H57Zm3.36-2.46.51-.16a10.31,10.31,0,0,1,.61,1.74l-.55.18A10.13,10.13,0,0,0,60.33,38.76Zm1.08-.25.51-.14a7.36,7.36,0,0,1,.58,1.69l-.53.17A8.68,8.68,0,0,0,61.41,38.51Z"/>
      <path class="cls-1" d="M62.53,43H68v.75H62.53Z"/>
      <path class="cls-1" d="M71.28,40.8l1.48-.14v.62c-.55.06-1.09.11-1.65.13a27.18,27.18,0,0,1-1.76,4.64l-.65-.31a21.37,21.37,0,0,0,1.7-4.29q-.81,0-1.62,0l0-.62c.56,0,1.16,0,1.8,0,.13-.56.24-1.12.33-1.69l.73.09C71.54,39.68,71.42,40.21,71.28,40.8Zm2.14,4.13c-.06-.71-.09-1.56-.1-2.54H74c0,.85,0,1.75.11,2.71A6.5,6.5,0,0,1,76,46.24l-.37.68a5.17,5.17,0,0,0-1.44-1.09V46c0,1.07-.59,1.6-1.77,1.6a1.87,1.87,0,0,1-1.32-.42,1.2,1.2,0,0,1-.38-.92,1.23,1.23,0,0,1,.63-1.08,2.41,2.41,0,0,1,1.26-.32A4.91,4.91,0,0,1,73.42,44.93Zm0,.67a2.67,2.67,0,0,0-.83-.14,1.71,1.71,0,0,0-1,.25.61.61,0,0,0-.27.52.64.64,0,0,0,.29.55,1.38,1.38,0,0,0,.79.19.93.93,0,0,0,1.05-1Zm0-4.54.32-.57a9.37,9.37,0,0,1,2.28,1.07l-.37.62A9,9,0,0,0,73.46,41.06Z"/>
      <path class="cls-1" d="M77.56,39.27h.74q-.17,5.13-.17,6.19a1.5,1.5,0,0,0,.33,1.12,1.54,1.54,0,0,0,1.1.31,2.3,2.3,0,0,0,1.75-.68,3.91,3.91,0,0,0,.87-1.91l.67.35q-.66,2.91-3.27,2.91A2.24,2.24,0,0,1,77.87,47a2.2,2.2,0,0,1-.44-1.53c0-.37,0-1.26,0-2.69C77.52,41.1,77.54,39.92,77.56,39.27Z"/>
    </g>
    <g class="cls-3">
      <path class="cls-1" d="M47.59,51.7H54.1a6.84,6.84,0,0,1-.61,2.22,5.13,5.13,0,0,1-1.2,1.51l-.59-.49a4.53,4.53,0,0,0,1-1.26,3.49,3.49,0,0,0,.43-1.3H47.59Zm.3,7.23a4,4,0,0,0,1.8-1.51,5.35,5.35,0,0,0,.55-2.64V53.19H51V54.8a5.49,5.49,0,0,1-.8,3.2,5,5,0,0,1-1.82,1.5Z"/>
      <path class="cls-1" d="M60.71,52.54a9.43,9.43,0,0,1-1,4.24,6.39,6.39,0,0,1-3.65,2.79l-.42-.6a6.11,6.11,0,0,0,3.25-2.32,7.53,7.53,0,0,0,1-4.11H55.22v-.66H60a1.19,1.19,0,0,1-.07-.4,1.11,1.11,0,0,1,.37-.83,1.14,1.14,0,0,1,1.58.08,1.12,1.12,0,0,1,.29.75,1.07,1.07,0,0,1-.37.84,1.08,1.08,0,0,1-.75.29A.84.84,0,0,1,60.71,52.54Zm.35-1.74a.67.67,0,0,0-.52.22.71.71,0,0,0-.17.46.67.67,0,0,0,.23.52.63.63,0,0,0,.46.18.68.68,0,0,0,.52-.23.7.7,0,0,0,.17-.47.66.66,0,0,0-.69-.68Z"/>
      <path class="cls-1" d="M64.19,51.46v4.9h-.77v-4.9ZM63.9,59a4,4,0,0,0,2.48-1.3A4.36,4.36,0,0,0,67,55V51.4h.77v3.75a4.51,4.51,0,0,1-1,3.18,5,5,0,0,1-2.57,1.23Z"/>
    </g>
  </g>
  <g id="group1201-12">
    <g id="group1202-13">
      <g id="group1203-14">
        <g id="group1204-15">
          <g id="shape1205-16">
            <path id="path53" class="cls-4" d="M7.83,13.64a4.6,4.6,0,0,0-3,5.7c.7,2.6,3,4.2,5.3,3.7a4.6,4.6,0,0,0,3-5.7C12.53,14.64,10.13,12.94,7.83,13.64Z"/>
          </g>
        </g>
        <g id="group1206-18">
          <g id="shape1207-19">
            <path id="path61" class="cls-4" d="M12.77,23.61c-.39,0-.89.8-1.5,1.1a2.88,2.88,0,0,1-3.2,0C6.17,23.81,6,23,4.47,23S.38,25.81.38,29.91H16a11.38,11.38,0,0,0-1.1-4.2C13.77,23.61,13.27,23.61,12.77,23.61Z"/>
          </g>
        </g>
      </g>
    </g>
    <g id="group1208-21">
      <g id="shape1209-22">
        <path id="path71" class="cls-5" d="M14.22,18.65h-4.1a.67.67,0,0,0-.6.7v2.8a.77.77,0,0,0,.8.7h.8V28a1,1,0,0,0,1,1.1.94.94,0,0,0,1-1h.2v-.7c0-.2.3-.3.3-.3v-.3c-.3-.1-.5-.3-.5-.4v-.3l.2-.2c-.1-.2.1-.6.1-.6a2.19,2.19,0,0,1-.3-.5c-.1-.1-.1-.3-.2-.4v-.2a2.75,2.75,0,0,1,.7-1.2h.5c.3,0,.7-.3.7-.6v-3A.66.66,0,0,0,14.22,18.65Zm-2.4,9.6c0,.2,0,.3-.2.3s-.2-.2-.2-.3v-4.8c0-.2.1-.3.2-.3s.2.2.2.3Zm.3-7.8a.7.7,0,0,1,0-1.4.67.67,0,0,1,.6.7A.56.56,0,0,1,12.12,20.45Z"/>
      </g>
      <g id="shape1210-24">
        <path id="path76" class="cls-6" d="M11.55,28.48a.22.22,0,0,1-.2-.2v-5a.2.2,0,0,1,.4,0v5.1C11.75,28.48,11.65,28.48,11.55,28.48Z"/>
      </g>
      <g id="shape1211-26">
        <circle id="ellipse81" class="cls-6" cx="12.18" cy="19.78" r="0.7"/>
      </g>
    </g>
  </g>
  <path id="path90" class="cls-4" d="M191.8,8.2H171.3a1.11,1.11,0,0,0-1.1,1.1V26a1.11,1.11,0,0,0,1.1,1.1h5.3a3.35,3.35,0,1,0,3.2-4.5,3.24,3.24,0,0,0-3.2,2.3h-4.2V13h18.3V25h-3.4a7.64,7.64,0,0,0-7.5-6.6,8.7,8.7,0,0,0-3.6.9l1,2a5.59,5.59,0,0,1,2.6-.7,5.53,5.53,0,0,1,5.4,5.5,5.46,5.46,0,0,1-5.4,5.5,4.84,4.84,0,0,1-2.6-.7l-1,2a7.58,7.58,0,0,0,11.1-5.7h4.6a1.11,1.11,0,0,0,1.1-1.1V9.3A1.38,1.38,0,0,0,191.8,8.2Z"/>
  <g id="text92" class="cls-3">
    <path class="cls-4" d="M170,46.72h-.91l-.74-2h-3l-.7,2h-.91l2.68-7h.85ZM168.1,44,167,41a2.75,2.75,0,0,1-.11-.47h0a2.53,2.53,0,0,1-.11.47l-1.09,3Z"/>
    <path class="cls-4" d="M171.9,44.07v2.65h-.82v-7H173a2.56,2.56,0,0,1,1.74.55,2,2,0,0,1,.62,1.54,2.1,2.1,0,0,1-.69,1.63,2.59,2.59,0,0,1-1.85.64Zm0-3.61v2.87h.86a1.91,1.91,0,0,0,1.29-.39,1.38,1.38,0,0,0,.45-1.1c0-.92-.55-1.38-1.64-1.38Z"/>
    <path class="cls-4" d="M177.39,46.72h-.82v-7h.82Z"/>
    <path class="cls-4" d="M181.75,39.27h6.51a7.1,7.1,0,0,1-.61,2.22A5,5,0,0,1,186.44,43l-.59-.49a4.4,4.4,0,0,0,1.06-1.26,3.42,3.42,0,0,0,.42-1.3h-5.58Zm.3,7.23a4,4,0,0,0,1.8-1.51,5.36,5.36,0,0,0,.54-2.64V40.76h.77v1.61a5.54,5.54,0,0,1-.8,3.2,5.06,5.06,0,0,1-1.83,1.5Z"/>
    <path class="cls-4" d="M194.87,40.11a9.53,9.53,0,0,1-1,4.24,6.39,6.39,0,0,1-3.65,2.79l-.42-.6a6.15,6.15,0,0,0,3.25-2.32,7.62,7.62,0,0,0,1-4.11h-4.67v-.66h4.79a1,1,0,0,1-.07-.39,1.13,1.13,0,0,1,2-.76,1.13,1.13,0,0,1,.29.76,1.09,1.09,0,0,1-.37.83,1.12,1.12,0,0,1-.75.29A.81.81,0,0,1,194.87,40.11Zm.35-1.74a.67.67,0,0,0-.52.22.71.71,0,0,0-.17.47.65.65,0,0,0,.22.51.67.67,0,0,0,.47.18.69.69,0,1,0,0-1.38Z"/>
    <path class="cls-4" d="M198.34,39v4.9h-.77V39Zm-.28,7.5a4,4,0,0,0,2.48-1.3,4.36,4.36,0,0,0,.64-2.62V39H202v3.75a4.47,4.47,0,0,1-1,3.18,4.91,4.91,0,0,1-2.56,1.23Z"/>
  </g>
  <g id="shape1214-37">
    <rect id="rect104" class="cls-2" x="73.89" y="0.42" width="90.4" height="20"/>
    <g id="text106" class="cls-3">
      <path class="cls-7" d="M83.55,8.72H80.48V8.07h6.35v.65H84.32a15.21,15.21,0,0,1-.1,1.83,3.76,3.76,0,0,1-.24.95,4.42,4.42,0,0,1-2.39,2.3l-.5-.56a3.72,3.72,0,0,0,2.18-2A8.41,8.41,0,0,0,83.55,8.72ZM81.07,5.88h4.28v.66H81.07Zm4.35-.74L85.93,5a9.59,9.59,0,0,1,.74,1.69l-.54.22A8.71,8.71,0,0,0,85.42,5.14Zm1.12-.33.5-.19a8.46,8.46,0,0,1,.71,1.65l-.52.2A9.14,9.14,0,0,0,86.54,4.81Z"/>
      <path class="cls-7" d="M87.51,13.18A10.31,10.31,0,0,0,88.91,10a24.73,24.73,0,0,0,.61-3.93l.8.08a25.13,25.13,0,0,1-.81,4.53,11,11,0,0,1-1.33,2.88Zm4.27-7,.76-.07a18.53,18.53,0,0,0,2.08,7.08l-.74.42A21.18,21.18,0,0,1,91.78,6.13Zm1-.7.51-.2A13.76,13.76,0,0,1,94,6.92l-.54.22A11.53,11.53,0,0,0,92.76,5.43Zm1.11-.34.5-.18a8.62,8.62,0,0,1,.71,1.64l-.52.21A9.58,9.58,0,0,0,93.87,5.09Z"/>
      <path class="cls-7" d="M98.31,8.46a24,24,0,0,1-2.81,1.88l-.41-.57a19.4,19.4,0,0,0,3.12-2.15,13.73,13.73,0,0,0,2.21-2.34l.66.41a16,16,0,0,1-2,2.13v5.95h-.77Z"/>
      <path class="cls-7" d="M105.78,10.51a8.91,8.91,0,0,1-3.57,3.16l-.44-.57A8.87,8.87,0,0,0,105,10.29a10,10,0,0,0,1.46-3.61h-4.2V6h5.19a13.81,13.81,0,0,1-1.32,3.82,23.29,23.29,0,0,1,2.33,3.36l-.74.47A18.82,18.82,0,0,0,105.78,10.51Z"/>
      <path class="cls-7" d="M117.65,13.25h-5v-.67h4.2V6.89h-4.2V6.22h5Z"/>
      <path class="cls-7" d="M119.05,9.27h5.44V10h-5.44Z"/>
      <path class="cls-7" d="M127.07,9v4.75h-.77V5.39h.77v2.9a15.34,15.34,0,0,1,3.81,1.58l-.38.73A12.6,12.6,0,0,0,127.07,9ZM129,5.18l.51-.2a11.3,11.3,0,0,1,.74,1.69l-.54.22A9.83,9.83,0,0,0,129,5.18Zm1.14-.35.5-.18a8,8,0,0,1,.71,1.64l-.52.21A9.58,9.58,0,0,0,130.15,4.83Z"/>
      <path class="cls-7" d="M134.9,6.1h5.51a9.48,9.48,0,0,1-1.29,5.37,6.86,6.86,0,0,1-3.36,2.32l-.42-.6a6,6,0,0,0,3.25-2.32,7.47,7.47,0,0,0,1-4.1H134.9Z"/>
      <path class="cls-7" d="M141.84,13.32V6.16h5.22v7.16Zm4.45-.68V6.84H142.6v5.8Z"/>
      <path class="cls-7" d="M148.48,9.27h5.44V10h-5.44Z"/>
    </g>
  </g>
  <g id="shape1100-52">
    <g id="use1353">
      <g id="lend5">
        <path id="path1350" class="cls-8" d="M159.36,20.2l8,4-8,4a9,9,0,0,0,0-8"/>
      </g>
    </g>
  </g>
  <line class="cls-9" x1="162.38" y1="24.39" x2="76.25" y2="24.39"/>
</svg>
