<svg id="svg168" xmlns="http://www.w3.org/2000/svg" viewBox="0 0 88.81 48.79">
  <defs>
    <style>
      .cls-1, .cls-2 {
        fill: #008bfd;
      }

      .cls-2 {
        stroke: gray;
        stroke-linecap: round;
        stroke-linejoin: round;
        stroke-width: 0.75px;
      }

      .cls-3 {
        fill: #fff;
      }

      .cls-4 {
        isolation: isolate;
      }
    </style>
  </defs>
  <title>OJ104440674</title>
  <g id="group1800-1">
    <g id="group1801-2">
      <g id="group1802-3">
        <g id="group1803-4">
          <g id="shape1804-5">
            <path id="path16" class="cls-1" d="M7.85,6.78a4.49,4.49,0,0,0-3,5.66c.66,2.55,3,4.22,5.27,3.66a4.49,4.49,0,0,0,3-5.66C12.57,7.78,10.16,6.11,7.85,6.78Z"/>
          </g>
        </g>
        <g id="group1805-7">
          <g id="shape1806-8">
            <path id="path24" class="cls-1" d="M12.78,16.79c-.43,0-.88.78-1.54,1.11s-1.31.89-3.17,0S6,16.24,4.43,16.24s-4,2.77-4,6.88H16a12.19,12.19,0,0,0-1.11-4.22C13.77,16.79,13.23,16.79,12.78,16.79Z"/>
          </g>
        </g>
      </g>
    </g>
    <g id="group1807-10">
      <g id="shape1808-11">
        <path id="path34" class="cls-2" d="M14.19,11.85H10.07a.71.71,0,0,0-.65.66v2.85a.72.72,0,0,0,.76.65h.76v5.15a1,1,0,0,0,1,1.1,1,1,0,0,0,1-1h.21v-.65c0-.22.33-.33.33-.33V20c-.33-.11-.54-.33-.54-.44v-.33L13.1,19a3.55,3.55,0,0,0,.33-.54,2.4,2.4,0,0,1-.33-.55c-.1-.11-.1-.33-.21-.44v-.22a2.51,2.51,0,0,1,.76-1.1h.54a.7.7,0,0,0,.65-.65v-3A.63.63,0,0,0,14.19,11.85ZM11.8,21.38c0,.22,0,.33-.21.33s-.22-.22-.22-.33V16.56c0-.22.11-.33.22-.33s.21.22.21.33Zm.33-7.78a.69.69,0,0,1-.65-.65.7.7,0,0,1,.65-.66.71.71,0,0,1,.65.66A.62.62,0,0,1,12.13,13.6Z"/>
      </g>
      <g id="shape1809-13">
        <path id="path39" class="cls-3" d="M11.57,21.69a.24.24,0,0,1-.22-.22v-5a.22.22,0,1,1,.44,0v5.11C11.79,21.69,11.68,21.69,11.57,21.69Z"/>
      </g>
      <g id="shape1810-15">
        <ellipse id="ellipse44" class="cls-3" cx="12.14" cy="12.93" rx="0.66" ry="0.67"/>
      </g>
    </g>
  </g>
  <g id="group1873-18">
    <g id="shape1874-19">
      <path id="path57" class="cls-1" d="M70,24.41A11.81,11.81,0,0,1,53.2,22.12,12.55,12.55,0,0,1,55.44,4.83a11.72,11.72,0,0,1,7.29-2.54,11.89,11.89,0,0,1,9.55,4.84A12.54,12.54,0,0,1,70,24.41ZM73.7,6A13.57,13.57,0,0,0,54.34,3.36a14.45,14.45,0,0,0-2.55,19.88,13.65,13.65,0,0,0,11,5.55,13.45,13.45,0,0,0,8.39-2.92A14.44,14.44,0,0,0,73.7,6Z"/>
    </g>
  </g>
  <g id="group1875-21">
    <g id="group1876-22">
      <g id="group1877-23">
        <g id="shape1878-24">
          <path id="path69" class="cls-1" d="M56.06,17.18a17,17,0,0,1-2-2.35,18.32,18.32,0,0,0-1.66,6.89c.11.16.11.28.23.44a13.4,13.4,0,0,0,2,2.05A14.18,14.18,0,0,1,56.06,17.18Z"/>
        </g>
      </g>
      <g id="shape1879-26">
        <path id="path75" class="cls-1" d="M60.68,7.74a21,21,0,0,0-3.33,3,16.41,16.41,0,0,0-1.61,2,15,15,0,0,0,1.9,2.47,16.84,16.84,0,0,1,2.2-2.57A27.32,27.32,0,0,1,63,10.07C62.17,9.31,61.39,8.54,60.68,7.74Z"/>
      </g>
      <g id="group1880-28">
        <g id="shape1881-29">
          <path id="path82" class="cls-1" d="M72.15,7a12.55,12.55,0,0,0-1.73-1.83,12.55,12.55,0,0,0-8,1.54c.76.84,1.51,1.62,2.24,2.36C69,6.59,72.15,7,72.15,7Z"/>
        </g>
      </g>
      <g id="group1882-31">
        <g id="shape1883-32">
          <path id="path90" class="cls-1" d="M54.61,14.59a19.94,19.94,0,0,1,1.19-2.07,9.83,9.83,0,0,1-1.6-6.79,13.19,13.19,0,0,0-1.29,1.61C52.53,8.94,52.51,11.5,54.61,14.59Z"/>
        </g>
      </g>
      <g id="group1884-34">
        <g id="shape1885-35">
          <path id="path98" class="cls-1" d="M59.91,17.36a22.67,22.67,0,0,1-2.27-2.13,13.68,13.68,0,0,0-1.14,1.95,25.18,25.18,0,0,0,2.09,1.91,19.18,19.18,0,0,0,12.56,4.38,9.27,9.27,0,0,0,1.54-1.94C71.46,21.79,66.2,22.47,59.91,17.36Z"/>
        </g>
      </g>
      <g id="group1886-37">
        <g id="shape1887-38">
          <path id="path106" class="cls-1" d="M54.55,14.83a16.24,16.24,0,0,0,2,2.35,14.7,14.7,0,0,1,1.14-1.95,15,15,0,0,1-1.9-2.47A15.67,15.67,0,0,0,54.55,14.83Z"/>
        </g>
      </g>
      <g id="group1888-40">
        <g id="shape1889-41">
          <path id="path114" class="cls-1" d="M63,10.07a99.43,99.43,0,0,0,11.15,8.82,9.82,9.82,0,0,0,.33-1.05A96.8,96.8,0,0,1,64.61,9,16,16,0,0,0,63,10.07Z"/>
        </g>
      </g>
      <g id="group1890-43">
        <g id="shape1891-44">
          <path id="path122" class="cls-1" d="M62.38,6.65c-1.1-1.18-2.22-2.44-3.36-3.8a11.13,11.13,0,0,0-1.59.67,26.74,26.74,0,0,0,3.24,4.22A15.69,15.69,0,0,1,62.38,6.65Z"/>
        </g>
      </g>
      <g id="shape1892-46">
        <path id="path128" class="cls-1" d="M62.45,6.62A20.57,20.57,0,0,0,60.58,7.8c.72.79,1.45,1.6,2.25,2.36.57-.4,1.34-.89,1.87-1.19C64,8.24,63.21,7.45,62.45,6.62Z"/>
      </g>
      <g id="shape1893-48">
        <path id="path133" class="cls-1" d="M62.25,6.51a14.89,14.89,0,0,0-1.67,1.13c.72.79,1.74,1.81,2.54,2.57.57-.4,1.05-.81,1.58-1.11C64,8.37,63,7.35,62.25,6.51Z"/>
      </g>
    </g>
    <g id="group1894-50">
      <g id="shape1895-51">
        <path id="path141" class="cls-1" d="M68.3,13.06a2.71,2.71,0,0,0-.48,3.71,2.55,2.55,0,0,0,3.63.5,2.71,2.71,0,0,0,.48-3.71A2.55,2.55,0,0,0,68.3,13.06Z"/>
      </g>
    </g>
    <g id="group1896-53">
      <g id="shape1897-54">
        <path id="path149" class="cls-1" d="M63.25,19.05a2.52,2.52,0,0,0-.45,3.44,2.37,2.37,0,0,0,3.36.45,2.49,2.49,0,0,0,.44-3.43A2.35,2.35,0,0,0,63.25,19.05Z"/>
      </g>
    </g>
    <g id="group1898-56">
      <g id="shape1899-57">
        <path id="path157" class="cls-1" d="M54,11.87a3.79,3.79,0,0,0-.68,5.21,3.58,3.58,0,0,0,5.1.7,3.8,3.8,0,0,0,.67-5.23A3.58,3.58,0,0,0,54,11.87Z"/>
      </g>
    </g>
  </g>
  <g id="shape1872-59">
    <g id="text162" class="cls-4">
      <path class="cls-1" d="M49.54,34.78l-2,7h-1l-1.44-5.12a3.19,3.19,0,0,1-.11-.71h0a3.32,3.32,0,0,1-.13.7l-1.45,5.13h-1l-2-7h.9l1.49,5.38a3.78,3.78,0,0,1,.12.7h0a5,5,0,0,1,.15-.7l1.55-5.38h.79L47,40.19a4.92,4.92,0,0,1,.12.66h0a4,4,0,0,1,.13-.67l1.43-5.4Z"/>
      <path class="cls-1" d="M54.29,39.49H50.76a2,2,0,0,0,.45,1.29,1.56,1.56,0,0,0,1.18.45A2.47,2.47,0,0,0,54,40.67v.76a3,3,0,0,1-1.75.47,2.09,2.09,0,0,1-1.66-.68,2.79,2.79,0,0,1-.61-1.91,2.72,2.72,0,0,1,.67-1.91,2.1,2.1,0,0,1,1.64-.73,1.9,1.9,0,0,1,1.52.63,2.67,2.67,0,0,1,.53,1.77Zm-.82-.68a1.62,1.62,0,0,0-.33-1.08,1.14,1.14,0,0,0-.92-.39,1.32,1.32,0,0,0-1,.41,1.91,1.91,0,0,0-.49,1.06Z"/>
      <path class="cls-1" d="M56.41,41.06h0v.73h-.8V34.38h.8v3.29h0a1.89,1.89,0,0,1,1.73-1,1.84,1.84,0,0,1,1.51.67,2.8,2.8,0,0,1,.54,1.8,3.07,3.07,0,0,1-.61,2,2,2,0,0,1-1.67.75A1.65,1.65,0,0,1,56.41,41.06Zm0-2v.7a1.49,1.49,0,0,0,.41,1,1.32,1.32,0,0,0,1,.43A1.36,1.36,0,0,0,59,40.67a2.56,2.56,0,0,0,.41-1.54A2,2,0,0,0,59,37.82a1.28,1.28,0,0,0-1.05-.48,1.43,1.43,0,0,0-1.12.49A1.75,1.75,0,0,0,56.39,39.05Z"/>
      <path class="cls-1" d="M64.1,34.35h6.51A7.11,7.11,0,0,1,70,36.56a5.16,5.16,0,0,1-1.21,1.51l-.59-.49a4.21,4.21,0,0,0,1-1.26,3.44,3.44,0,0,0,.43-1.3H64.1Zm.3,7.22a3.93,3.93,0,0,0,1.79-1.51,5.24,5.24,0,0,0,.55-2.64V35.83h.77v1.61a5.54,5.54,0,0,1-.8,3.2,5.06,5.06,0,0,1-1.83,1.5Z"/>
      <path class="cls-1" d="M77.21,35.19a9.53,9.53,0,0,1-1,4.23,6.41,6.41,0,0,1-3.66,2.79l-.42-.6a6.14,6.14,0,0,0,3.26-2.32,7.61,7.61,0,0,0,1-4.1H71.72v-.67h4.79a1.18,1.18,0,0,1-.06-.39,1.12,1.12,0,0,1,1.94-.76A1.14,1.14,0,0,1,78.32,35a1.13,1.13,0,0,1-.76.29A1,1,0,0,1,77.21,35.19Zm.35-1.75a.65.65,0,0,0-.51.22.67.67,0,0,0-.17.47.68.68,0,0,0,.68.69.67.67,0,0,0,.52-.23.64.64,0,0,0,.17-.46.67.67,0,0,0-.22-.52A.7.7,0,0,0,77.56,33.44Z"/>
      <path class="cls-1" d="M80.69,34.1V39h-.77V34.1Zm-.28,7.5a4,4,0,0,0,2.48-1.3,4.42,4.42,0,0,0,.64-2.61V34h.77v3.75a4.47,4.47,0,0,1-1,3.18,5,5,0,0,1-2.56,1.23Z"/>
    </g>
  </g>
</svg>
