<svg id="svg990" xmlns="http://www.w3.org/2000/svg" viewBox="0 0 424.04 484">
  <defs>
    <style>
      .cls-1, .cls-6 {
        fill: #008bfd;
      }

      .cls-2 {
        isolation: isolate;
      }

      .cls-3 {
        fill: #007efd;
      }

      .cls-4 {
        fill: #505050;
      }

      .cls-5 {
        fill: #0078d7;
      }

      .cls-6 {
        stroke: gray;
        stroke-width: 0.75px;
      }

      .cls-6, .cls-8 {
        stroke-linecap: round;
        stroke-linejoin: round;
      }

      .cls-7, .cls-8 {
        fill: #fff;
      }

      .cls-8 {
        stroke: #000;
        stroke-width: 0.24px;
      }

      .cls-9 {
        fill: none;
        stroke: #505050;
        stroke-miterlimit: 10;
      }
    </style>
  </defs>
  <title>OJ104440672</title>
  <g>
    <g id="group1113-2">
      <g id="shape1114-3">
        <path id="path21" class="cls-1" d="M70,24.4a11.81,11.81,0,0,1-16.84-2.29A12.56,12.56,0,0,1,55.43,4.82a11.82,11.82,0,0,1,16.84,2.3A12.54,12.54,0,0,1,70,24.4ZM73.69,6A13.57,13.57,0,0,0,54.33,3.36a14.43,14.43,0,0,0-2.55,19.87,13.62,13.62,0,0,0,11,5.55,13.45,13.45,0,0,0,8.39-2.92A14.44,14.44,0,0,0,73.69,6Z"/>
      </g>
    </g>
    <g id="group1115-5">
      <g id="group1116-6">
        <g id="group1117-7">
          <g id="shape1118-8">
            <path id="path33" class="cls-1" d="M56.06,17.19a17,17,0,0,1-2-2.35,18.28,18.28,0,0,0-1.66,6.88c.11.16.11.29.23.44a12.55,12.55,0,0,0,2,2.05A14.13,14.13,0,0,1,56.06,17.19Z"/>
          </g>
        </g>
        <g id="shape1119-10">
          <path id="path39" class="cls-1" d="M60.67,7.74a21,21,0,0,0-3.33,3,15.71,15.71,0,0,0-1.61,2,15.42,15.42,0,0,0,1.9,2.46,16.32,16.32,0,0,1,2.2-2.56A26.47,26.47,0,0,1,63,10.06C62.16,9.3,61.38,8.53,60.67,7.74Z"/>
        </g>
        <g id="group1120-12">
          <g id="shape1121-13">
            <path id="path46" class="cls-1" d="M72.15,7a12,12,0,0,0-1.73-1.82,12.53,12.53,0,0,0-8,1.53c.76.84,1.51,1.63,2.24,2.36C69,6.59,72.15,7,72.15,7Z"/>
          </g>
        </g>
        <g id="group1122-15">
          <g id="shape1123-16">
            <path id="path54" class="cls-1" d="M54.34,15a19.82,19.82,0,0,1,1.19-2.06,9.84,9.84,0,0,1-1.6-6.79,13.09,13.09,0,0,0-1.29,1.6C52.26,9.34,52.24,11.9,54.34,15Z"/>
          </g>
        </g>
        <g id="group1124-18">
          <g id="shape1125-19">
            <path id="path62" class="cls-1" d="M59.9,17.37a21.6,21.6,0,0,1-2.27-2.14,14.25,14.25,0,0,0-1.14,1.95,23.54,23.54,0,0,0,2.09,1.91,19.12,19.12,0,0,0,12.56,4.38,9,9,0,0,0,1.54-1.94C71.45,21.79,66.19,22.48,59.9,17.37Z"/>
          </g>
        </g>
        <g id="group1126-21">
          <g id="shape1127-22">
            <path id="path70" class="cls-1" d="M54.55,14.83a15.72,15.72,0,0,0,2,2.35,15.36,15.36,0,0,1,1.14-1.95,15.42,15.42,0,0,1-1.9-2.46A15.58,15.58,0,0,0,54.55,14.83Z"/>
          </g>
        </g>
        <g id="group1128-24">
          <g id="shape1129-25">
            <path id="path78" class="cls-1" d="M63,10.07a97,97,0,0,0,11.15,8.82,9.82,9.82,0,0,0,.33-1.05A95.51,95.51,0,0,1,64.61,9Q63.82,9.47,63,10.07Z"/>
          </g>
        </g>
        <g id="group1130-27">
          <g id="shape1131-28">
            <path id="path86" class="cls-1" d="M62.38,6.66Q60.73,4.89,59,2.86a10.05,10.05,0,0,0-1.59.66,26.3,26.3,0,0,0,3.24,4.22A17.22,17.22,0,0,1,62.38,6.66Z"/>
          </g>
        </g>
        <g id="shape1132-30">
          <path id="path92" class="cls-1" d="M62.45,6.62a18.74,18.74,0,0,0-1.87,1.19c.72.78,1.45,1.59,2.25,2.35.57-.4,1.34-.88,1.87-1.18C64,8.25,63.21,7.46,62.45,6.62Z"/>
        </g>
        <g id="shape1133-32">
          <path id="path97" class="cls-1" d="M62.25,6.52a16.24,16.24,0,0,0-1.67,1.12c.72.79,1.74,1.81,2.54,2.57.57-.4,1.05-.8,1.58-1.11C64,8.38,63,7.35,62.25,6.52Z"/>
        </g>
      </g>
      <g id="group1134-34">
        <g id="shape1135-35">
          <path id="path105" class="cls-1" d="M68.3,13.07a2.7,2.7,0,0,0-.48,3.7,2.56,2.56,0,0,0,3.63.51,2.72,2.72,0,0,0,.48-3.72A2.55,2.55,0,0,0,68.3,13.07Z"/>
        </g>
      </g>
      <g id="group1136-37">
        <g id="shape1137-38">
          <path id="path113" class="cls-1" d="M63.13,19.19a2.52,2.52,0,0,0-.45,3.44,2.37,2.37,0,0,0,3.36.45,2.49,2.49,0,0,0,.44-3.43A2.36,2.36,0,0,0,63.13,19.19Z"/>
        </g>
      </g>
      <g id="group1138-40">
        <g id="shape1139-41">
          <path id="path121" class="cls-1" d="M54,11.86a3.79,3.79,0,0,0-.68,5.21,3.58,3.58,0,0,0,5.1.7,3.8,3.8,0,0,0,.67-5.23A3.59,3.59,0,0,0,54,11.86Z"/>
        </g>
      </g>
    </g>
  </g>
  <g>
    <g id="group1113-2-2" data-name="group1113-2">
      <g id="shape1114-3-2" data-name="shape1114-3">
        <path id="path21-2" data-name="path21" class="cls-1" d="M70,164a11.81,11.81,0,0,1-16.84-2.29,12.56,12.56,0,0,1,2.24-17.29,11.82,11.82,0,0,1,16.84,2.3A12.54,12.54,0,0,1,70,164Zm3.66-18.41A13.57,13.57,0,0,0,54.33,143a14.43,14.43,0,0,0-2.55,19.87,13.62,13.62,0,0,0,11,5.55,13.45,13.45,0,0,0,8.39-2.92A14.44,14.44,0,0,0,73.69,145.6Z"/>
      </g>
    </g>
    <g id="group1115-5-2" data-name="group1115-5">
      <g id="group1116-6-2" data-name="group1116-6">
        <g id="group1117-7-2" data-name="group1117-7">
          <g id="shape1118-8-2" data-name="shape1118-8">
            <path id="path33-2" data-name="path33" class="cls-1" d="M56.06,156.8a17,17,0,0,1-2-2.35,18.28,18.28,0,0,0-1.66,6.88c.11.16.11.29.23.44a12.55,12.55,0,0,0,2,2A14.13,14.13,0,0,1,56.06,156.8Z"/>
          </g>
        </g>
        <g id="shape1119-10-2" data-name="shape1119-10">
          <path id="path39-2" data-name="path39" class="cls-1" d="M60.67,147.35a21,21,0,0,0-3.33,3,15.71,15.71,0,0,0-1.61,2,15.42,15.42,0,0,0,1.9,2.46,16.32,16.32,0,0,1,2.2-2.56A26.47,26.47,0,0,1,63,149.67C62.16,148.91,61.38,148.14,60.67,147.35Z"/>
        </g>
        <g id="group1120-12-2" data-name="group1120-12">
          <g id="shape1121-13-2" data-name="shape1121-13">
            <path id="path46-2" data-name="path46" class="cls-1" d="M72.15,146.55a12,12,0,0,0-1.73-1.82,12.53,12.53,0,0,0-8,1.53c.76.84,1.51,1.63,2.24,2.36C69,146.19,72.15,146.55,72.15,146.55Z"/>
          </g>
        </g>
        <g id="group1122-15-2" data-name="group1122-15">
          <g id="shape1123-16-2" data-name="shape1123-16">
            <path id="path54-2" data-name="path54" class="cls-1" d="M54.34,154.58a19.82,19.82,0,0,1,1.19-2.06,9.84,9.84,0,0,1-1.6-6.79,13.09,13.09,0,0,0-1.29,1.6C52.26,148.94,52.24,151.5,54.34,154.58Z"/>
          </g>
        </g>
        <g id="group1124-18-2" data-name="group1124-18">
          <g id="shape1125-19-2" data-name="shape1125-19">
            <path id="path62-2" data-name="path62" class="cls-1" d="M59.9,157a21.6,21.6,0,0,1-2.27-2.14,14.25,14.25,0,0,0-1.14,1.95,23.54,23.54,0,0,0,2.09,1.91,19.12,19.12,0,0,0,12.56,4.38,9,9,0,0,0,1.54-1.94C71.45,161.4,66.19,162.09,59.9,157Z"/>
          </g>
        </g>
        <g id="group1126-21-2" data-name="group1126-21">
          <g id="shape1127-22-2" data-name="shape1127-22">
            <path id="path70-2" data-name="path70" class="cls-1" d="M54.55,154.44a15.72,15.72,0,0,0,2,2.35,15.36,15.36,0,0,1,1.14-1.95,15.42,15.42,0,0,1-1.9-2.46A15.58,15.58,0,0,0,54.55,154.44Z"/>
          </g>
        </g>
        <g id="group1128-24-2" data-name="group1128-24">
          <g id="shape1129-25-2" data-name="shape1129-25">
            <path id="path78-2" data-name="path78" class="cls-1" d="M63,149.67a97,97,0,0,0,11.15,8.82,9.82,9.82,0,0,0,.33-1.05,95.51,95.51,0,0,1-9.83-8.82Q63.82,149.07,63,149.67Z"/>
          </g>
        </g>
        <g id="group1130-27-2" data-name="group1130-27">
          <g id="shape1131-28-2" data-name="shape1131-28">
            <path id="path86-2" data-name="path86" class="cls-1" d="M62.38,146.27q-1.65-1.77-3.36-3.8a10.05,10.05,0,0,0-1.59.66,26.3,26.3,0,0,0,3.24,4.22A17.22,17.22,0,0,1,62.38,146.27Z"/>
          </g>
        </g>
        <g id="shape1132-30-2" data-name="shape1132-30">
          <path id="path92-2" data-name="path92" class="cls-1" d="M62.45,146.23a18.74,18.74,0,0,0-1.87,1.19c.72.78,1.45,1.59,2.25,2.35.57-.4,1.34-.88,1.87-1.18C64,147.86,63.21,147.07,62.45,146.23Z"/>
        </g>
        <g id="shape1133-32-2" data-name="shape1133-32">
          <path id="path97-2" data-name="path97" class="cls-1" d="M62.25,146.12a16.24,16.24,0,0,0-1.67,1.12c.72.79,1.74,1.81,2.54,2.57.57-.4,1.05-.8,1.58-1.11C64,148,63,147,62.25,146.12Z"/>
        </g>
      </g>
      <g id="group1134-34-2" data-name="group1134-34">
        <g id="shape1135-35-2" data-name="shape1135-35">
          <path id="path105-2" data-name="path105" class="cls-1" d="M68.3,152.68a2.7,2.7,0,0,0-.48,3.7,2.56,2.56,0,0,0,3.63.51,2.72,2.72,0,0,0,.48-3.72A2.55,2.55,0,0,0,68.3,152.68Z"/>
        </g>
      </g>
      <g id="group1136-37-2" data-name="group1136-37">
        <g id="shape1137-38-2" data-name="shape1137-38">
          <path id="path113-2" data-name="path113" class="cls-1" d="M63.13,158.8a2.52,2.52,0,0,0-.45,3.44,2.37,2.37,0,0,0,3.36.45,2.49,2.49,0,0,0,.44-3.43A2.36,2.36,0,0,0,63.13,158.8Z"/>
        </g>
      </g>
      <g id="group1138-40-2" data-name="group1138-40">
        <g id="shape1139-41-2" data-name="shape1139-41">
          <path id="path121-2" data-name="path121" class="cls-1" d="M54,151.47a3.79,3.79,0,0,0-.68,5.21,3.58,3.58,0,0,0,5.1.7,3.8,3.8,0,0,0,.67-5.23A3.59,3.59,0,0,0,54,151.47Z"/>
        </g>
      </g>
    </g>
  </g>
  <g>
    <g id="group1113-2-3" data-name="group1113-2">
      <g id="shape1114-3-3" data-name="shape1114-3">
        <path id="path21-3" data-name="path21" class="cls-1" d="M70,94.28A11.81,11.81,0,0,1,53.19,92,12.56,12.56,0,0,1,55.43,74.7,11.82,11.82,0,0,1,72.27,77,12.54,12.54,0,0,1,70,94.28Zm3.66-18.41a13.57,13.57,0,0,0-19.36-2.63,14.43,14.43,0,0,0-2.55,19.87,13.62,13.62,0,0,0,11,5.55,13.45,13.45,0,0,0,8.39-2.92A14.44,14.44,0,0,0,73.69,75.87Z"/>
      </g>
    </g>
    <g id="group1115-5-3" data-name="group1115-5">
      <g id="group1116-6-3" data-name="group1116-6">
        <g id="group1117-7-3" data-name="group1117-7">
          <g id="shape1118-8-3" data-name="shape1118-8">
            <path id="path33-3" data-name="path33" class="cls-1" d="M56.06,87.07a17,17,0,0,1-2-2.35,18.28,18.28,0,0,0-1.66,6.88c.11.16.11.29.23.44a12.55,12.55,0,0,0,2,2A14.13,14.13,0,0,1,56.06,87.07Z"/>
          </g>
        </g>
        <g id="shape1119-10-3" data-name="shape1119-10">
          <path id="path39-3" data-name="path39" class="cls-1" d="M60.67,77.62a21,21,0,0,0-3.33,3,15.71,15.71,0,0,0-1.61,2.05,15.42,15.42,0,0,0,1.9,2.46,16.32,16.32,0,0,1,2.2-2.56A26.47,26.47,0,0,1,63,79.94C62.16,79.18,61.38,78.41,60.67,77.62Z"/>
        </g>
        <g id="group1120-12-3" data-name="group1120-12">
          <g id="shape1121-13-3" data-name="shape1121-13">
            <path id="path46-3" data-name="path46" class="cls-1" d="M72.15,76.83A12,12,0,0,0,70.42,75a12.53,12.53,0,0,0-8,1.53c.76.84,1.51,1.63,2.24,2.36C69,76.47,72.15,76.83,72.15,76.83Z"/>
          </g>
        </g>
        <g id="group1122-15-3" data-name="group1122-15">
          <g id="shape1123-16-3" data-name="shape1123-16">
            <path id="path54-3" data-name="path54" class="cls-1" d="M54.34,84.86a19.82,19.82,0,0,1,1.19-2.06A9.84,9.84,0,0,1,53.93,76a13.09,13.09,0,0,0-1.29,1.6C52.26,79.22,52.24,81.78,54.34,84.86Z"/>
          </g>
        </g>
        <g id="group1124-18-3" data-name="group1124-18">
          <g id="shape1125-19-3" data-name="shape1125-19">
            <path id="path62-3" data-name="path62" class="cls-1" d="M59.9,87.25a21.6,21.6,0,0,1-2.27-2.14,14.25,14.25,0,0,0-1.14,2A23.54,23.54,0,0,0,58.58,89a19.12,19.12,0,0,0,12.56,4.38,9,9,0,0,0,1.54-1.94C71.45,91.67,66.19,92.36,59.9,87.25Z"/>
          </g>
        </g>
        <g id="group1126-21-3" data-name="group1126-21">
          <g id="shape1127-22-3" data-name="shape1127-22">
            <path id="path70-3" data-name="path70" class="cls-1" d="M54.55,84.71a15.72,15.72,0,0,0,2,2.35,15.36,15.36,0,0,1,1.14-2,15.42,15.42,0,0,1-1.9-2.46A15.58,15.58,0,0,0,54.55,84.71Z"/>
          </g>
        </g>
        <g id="group1128-24-3" data-name="group1128-24">
          <g id="shape1129-25-3" data-name="shape1129-25">
            <path id="path78-3" data-name="path78" class="cls-1" d="M63,80a97,97,0,0,0,11.15,8.82,9.82,9.82,0,0,0,.33-1,95.51,95.51,0,0,1-9.83-8.82Q63.82,79.35,63,80Z"/>
          </g>
        </g>
        <g id="group1130-27-3" data-name="group1130-27">
          <g id="shape1131-28-3" data-name="shape1131-28">
            <path id="path86-3" data-name="path86" class="cls-1" d="M62.38,76.54q-1.65-1.77-3.36-3.8a10.05,10.05,0,0,0-1.59.66,26.3,26.3,0,0,0,3.24,4.22A17.22,17.22,0,0,1,62.38,76.54Z"/>
          </g>
        </g>
        <g id="shape1132-30-3" data-name="shape1132-30">
          <path id="path92-3" data-name="path92" class="cls-1" d="M62.45,76.5a18.74,18.74,0,0,0-1.87,1.19c.72.78,1.45,1.59,2.25,2.35.57-.4,1.34-.88,1.87-1.18C64,78.13,63.21,77.34,62.45,76.5Z"/>
        </g>
        <g id="shape1133-32-3" data-name="shape1133-32">
          <path id="path97-3" data-name="path97" class="cls-1" d="M62.25,76.4a16.24,16.24,0,0,0-1.67,1.12c.72.79,1.74,1.81,2.54,2.57.57-.4,1.05-.8,1.58-1.11C64,78.26,63,77.23,62.25,76.4Z"/>
        </g>
      </g>
      <g id="group1134-34-3" data-name="group1134-34">
        <g id="shape1135-35-3" data-name="shape1135-35">
          <path id="path105-3" data-name="path105" class="cls-1" d="M68.3,83a2.7,2.7,0,0,0-.48,3.7,2.56,2.56,0,0,0,3.63.51,2.72,2.72,0,0,0,.48-3.72A2.55,2.55,0,0,0,68.3,83Z"/>
        </g>
      </g>
      <g id="group1136-37-3" data-name="group1136-37">
        <g id="shape1137-38-3" data-name="shape1137-38">
          <path id="path113-3" data-name="path113" class="cls-1" d="M63.13,89.07a2.52,2.52,0,0,0-.45,3.44A2.37,2.37,0,0,0,66,93a2.49,2.49,0,0,0,.44-3.43A2.36,2.36,0,0,0,63.13,89.07Z"/>
        </g>
      </g>
      <g id="group1138-40-3" data-name="group1138-40">
        <g id="shape1139-41-3" data-name="shape1139-41">
          <path id="path121-3" data-name="path121" class="cls-1" d="M54,81.74A3.79,3.79,0,0,0,53.31,87a3.58,3.58,0,0,0,5.1.7,3.8,3.8,0,0,0,.67-5.23A3.59,3.59,0,0,0,54,81.74Z"/>
        </g>
      </g>
    </g>
  </g>
  <g id="shape1101-88">
    <g id="text253" class="cls-2">
      <path class="cls-1" d="M49,244.84l-2,7H46l-1.44-5.11a3.2,3.2,0,0,1-.11-.72h0a3.42,3.42,0,0,1-.13.71l-1.45,5.12h-1l-2-7h.9l1.49,5.37a3.31,3.31,0,0,1,.12.7h0a3.28,3.28,0,0,1,.15-.7l1.54-5.37h.79l1.49,5.41a3.65,3.65,0,0,1,.11.65h0a4.23,4.23,0,0,1,.13-.67l1.43-5.39Z"/>
      <path class="cls-1" d="M53.71,249.54H50.18a1.83,1.83,0,0,0,.45,1.29,1.55,1.55,0,0,0,1.18.46,2.46,2.46,0,0,0,1.55-.56v.75a2.89,2.89,0,0,1-1.74.48,2.14,2.14,0,0,1-1.67-.68,2.81,2.81,0,0,1-.6-1.92,2.73,2.73,0,0,1,.66-1.9,2.12,2.12,0,0,1,1.64-.73,1.88,1.88,0,0,1,1.52.63,2.63,2.63,0,0,1,.54,1.76Zm-.82-.68a1.68,1.68,0,0,0-.34-1.08,1.15,1.15,0,0,0-.91-.38,1.31,1.31,0,0,0-1,.4,1.86,1.86,0,0,0-.48,1.06Z"/>
      <path class="cls-1" d="M55.83,251.12h0v.72H55v-7.4h.81v3.28h0a1.89,1.89,0,0,1,1.72-1,1.82,1.82,0,0,1,1.51.67,2.76,2.76,0,0,1,.54,1.8,3.06,3.06,0,0,1-.61,2,2,2,0,0,1-1.67.76A1.62,1.62,0,0,1,55.83,251.12Zm0-2v.7a1.47,1.47,0,0,0,.4,1,1.42,1.42,0,0,0,2.16-.12,2.53,2.53,0,0,0,.41-1.55,2,2,0,0,0-.38-1.31,1.3,1.3,0,0,0-1-.47,1.42,1.42,0,0,0-1.12.48A1.81,1.81,0,0,0,55.81,249.1Z"/>
      <path class="cls-1" d="M63.51,244.4H70a7,7,0,0,1-.61,2.21,4.78,4.78,0,0,1-1.21,1.51l-.59-.49a4.27,4.27,0,0,0,1.06-1.26,3.25,3.25,0,0,0,.42-1.3H63.51Zm.3,7.22a3.94,3.94,0,0,0,1.8-1.5,5.43,5.43,0,0,0,.54-2.65v-1.58h.77v1.6a5.6,5.6,0,0,1-.8,3.21,4.94,4.94,0,0,1-1.83,1.49Z"/>
      <path class="cls-1" d="M76.63,245.24a9.48,9.48,0,0,1-1,4.23A6.31,6.31,0,0,1,72,252.26l-.42-.6a6.05,6.05,0,0,0,3.25-2.32,7.55,7.55,0,0,0,1-4.1H71.14v-.67h4.79a.94.94,0,0,1-.07-.39,1.06,1.06,0,0,1,.37-.83,1.12,1.12,0,0,1,1.58.08,1.1,1.1,0,0,1,.29.75,1.13,1.13,0,0,1-.37.84,1.11,1.11,0,0,1-.75.28A1,1,0,0,1,76.63,245.24Zm.35-1.75a.68.68,0,0,0-.69.69.67.67,0,0,0,.22.52.67.67,0,0,0,.47.17.67.67,0,0,0,.52-.22.71.71,0,0,0,.17-.47.7.7,0,0,0-.69-.69Z"/>
      <path class="cls-1" d="M80.1,244.15v4.9h-.77v-4.9Zm-.28,7.5a4,4,0,0,0,2.48-1.29,4.38,4.38,0,0,0,.64-2.62v-3.65h.77v3.75a4.48,4.48,0,0,1-1,3.19,4.83,4.83,0,0,1-2.56,1.22Z"/>
    </g>
  </g>
  <path id="path261" class="cls-1" d="M305.43,284h-20.5a1.1,1.1,0,0,0-1.09,1.11v16.74a1.09,1.09,0,0,0,1.09,1.1h5.28a3.29,3.29,0,0,0,3.21,2.27,3.38,3.38,0,0,0,0-6.75,3.29,3.29,0,0,0-3.21,2.27H286v-12h18.31v12h-3.45a7.61,7.61,0,0,0-7.46-6.56,8.25,8.25,0,0,0-3.64.92l1,2a5.27,5.27,0,0,1,2.55-.67,5.46,5.46,0,0,1,0,10.92,5.28,5.28,0,0,1-2.55-.68l-1,2a7.4,7.4,0,0,0,3.64.92,7.61,7.61,0,0,0,7.46-6.56h4.55a1.09,1.09,0,0,0,1.09-1.1V285.08A1.14,1.14,0,0,0,305.43,284Z"/>
  <g id="text263" class="cls-2">
    <path class="cls-1" d="M281.73,323.13h-.91l-.74-2h-3l-.7,2h-.91l2.68-7H279Zm-1.92-2.7-1.1-3a2.75,2.75,0,0,1-.11-.47h0a2.53,2.53,0,0,1-.11.47l-1.09,3Z"/>
    <path class="cls-1" d="M283.6,320.49v2.64h-.82v-7h1.93a2.51,2.51,0,0,1,1.74.55,2,2,0,0,1,.62,1.54,2.1,2.1,0,0,1-.69,1.63,2.65,2.65,0,0,1-1.85.64Zm0-3.62v2.87h.86a2,2,0,0,0,1.3-.38,1.38,1.38,0,0,0,.45-1.1c0-.92-.55-1.39-1.64-1.39Z"/>
    <path class="cls-1" d="M289.1,323.13h-.82v-7h.82Z"/>
    <path class="cls-1" d="M293.46,315.69H300a7,7,0,0,1-.61,2.21,4.92,4.92,0,0,1-1.21,1.51l-.59-.49a4,4,0,0,0,1.05-1.26,3.45,3.45,0,0,0,.43-1.29h-5.58Zm.3,7.22a3.86,3.86,0,0,0,1.79-1.5,5.31,5.31,0,0,0,.55-2.65v-1.58h.77v1.6a5.6,5.6,0,0,1-.8,3.21,4.94,4.94,0,0,1-1.83,1.49Z"/>
    <path class="cls-1" d="M306.57,316.53a9.44,9.44,0,0,1-1,4.24,6.37,6.37,0,0,1-3.65,2.78l-.42-.6a6.05,6.05,0,0,0,3.25-2.32,7.56,7.56,0,0,0,1-4.1h-4.66v-.67h4.79a.94.94,0,0,1-.07-.39,1.08,1.08,0,0,1,.36-.83,1.13,1.13,0,0,1,.76-.29,1.11,1.11,0,0,1,1.11,1.12,1.11,1.11,0,0,1-1.11,1.13A1,1,0,0,1,306.57,316.53Zm.36-1.75a.67.67,0,0,0-.52.23.64.64,0,0,0-.17.46.67.67,0,0,0,.22.52.69.69,0,0,0,1-.05.67.67,0,0,0,.17-.47.64.64,0,0,0-.22-.51A.65.65,0,0,0,306.93,314.78Z"/>
    <path class="cls-1" d="M310.05,315.44v4.91h-.77v-4.91Zm-.28,7.5a4,4,0,0,0,2.48-1.29,4.45,4.45,0,0,0,.64-2.62v-3.65h.77v3.75a4.48,4.48,0,0,1-1,3.19,4.87,4.87,0,0,1-2.56,1.22Z"/>
  </g>
  <g id="group1131-94">
    <g id="shape1136-99">
      <path id="path286" class="cls-3" d="M77.21,427.2H71.13c-.23,0-.38.14-.38.45v2.18a.36.36,0,0,0,.38.38h3.45v3.38c0,.22.15.37.45.37h2.18a.35.35,0,0,0,.37-.37v-6A.34.34,0,0,0,77.21,427.2ZM60,448.18H56.57V444.8c0-.22-.15-.37-.45-.37H54a.35.35,0,0,0-.38.37v6a.35.35,0,0,0,.38.37H60c.23,0,.38-.15.38-.46v-2.18A.36.36,0,0,0,60,448.18ZM73.6,444.5a.9.9,0,0,0-.45.08l-2.32-4.06a2.9,2.9,0,0,0,.9-2,2.79,2.79,0,0,0-3.9-2.56l-2.48-3.47a2,2,0,0,0,.53-1.5,2.33,2.33,0,1,0-2.33,2.32,2.38,2.38,0,0,0,.75-.14l2.48,3.54a2.82,2.82,0,0,0-.68,1.43l-7.2.6a1.78,1.78,0,0,0-1.65-1,1.88,1.88,0,0,0,0,3.76,1.92,1.92,0,0,0,1.87-1.59l7.06-.6a3.94,3.94,0,0,0,.67,1.22l-1.8,2.93h-.22a1.88,1.88,0,1,0,1.87,1.88,2.11,2.11,0,0,0-.52-1.35l1.72-2.86a4.59,4.59,0,0,0,1,.15,3.94,3.94,0,0,0,.82-.15L72,445.18a2.3,2.3,0,0,0-.68,1.57,2.18,2.18,0,1,0,2.25-2.25Z"/>
    </g>
  </g>
  <g class="cls-2">
    <path class="cls-3" d="M44.36,458.48a7,7,0,0,0-.53-1.18l.52-.2a12.75,12.75,0,0,1,.73,1.69l-.32.13.12.3a8.12,8.12,0,0,1-1.4,4.72,7.13,7.13,0,0,1-3.23,2.13l-.42-.6a6.21,6.21,0,0,0,3.26-2.29,7.35,7.35,0,0,0,1-4H39.39v-.67Zm.62-1.42.5-.18a8.31,8.31,0,0,1,.72,1.64l-.53.21A9.26,9.26,0,0,0,45,457.06Z"/>
    <path class="cls-3" d="M46.75,460.2H52.4a6.56,6.56,0,0,1-1.4,4.25,6,6,0,0,1-3.07,1.63l-.36-.58a5.28,5.28,0,0,0,3-1.72,4.94,4.94,0,0,0,1-2.91H46.75Zm.61-2.13h4.53v.67H47.36Z"/>
    <path class="cls-3" d="M57,459h2.56a9.14,9.14,0,0,1-1.11,5.1,5.93,5.93,0,0,1-3,2l-.41-.59a5.05,5.05,0,0,0,2.89-2,7.4,7.4,0,0,0,.84-3.88H54.45v2.47h-.77V459h2.55v-1.46H57Z"/>
    <path class="cls-3" d="M63,459.72h2.51v-1.84h.75v1.84h1.6v.67h-1.6v.71a5.2,5.2,0,0,1-1.05,3.6,5.31,5.31,0,0,1-2.73,1.39l-.4-.58a4.41,4.41,0,0,0,2.68-1.4,4.76,4.76,0,0,0,.75-2.92v-.8H63V463h-.76v-2.6H60.72v-.67h1.52v-2H63Zm3.36-2.46.51-.16a11.41,11.41,0,0,1,.6,1.74l-.54.18A12.19,12.19,0,0,0,66.36,457.26Zm1.07-.25.52-.14a6.93,6.93,0,0,1,.57,1.69l-.52.17A9.33,9.33,0,0,0,67.43,457Z"/>
    <path class="cls-3" d="M68.56,461.54H74v.75H68.56Z"/>
    <path class="cls-3" d="M77.3,459.3l1.48-.14v.62c-.54.06-1.09.11-1.64.13a27.25,27.25,0,0,1-1.77,4.64l-.65-.31a20.79,20.79,0,0,0,1.7-4.29q-.81,0-1.62,0l0-.62c.56,0,1.16,0,1.8,0,.14-.56.25-1.12.34-1.69l.72.09C77.56,458.19,77.45,458.71,77.3,459.3Zm2.15,4.13c-.06-.71-.1-1.56-.11-2.54H80c0,.85,0,1.75.11,2.71A6.71,6.71,0,0,1,82,464.74l-.38.68a5.37,5.37,0,0,0-1.44-1.09v.16c0,1.07-.59,1.6-1.76,1.6a1.87,1.87,0,0,1-1.32-.42,1.17,1.17,0,0,1-.39-.92,1.22,1.22,0,0,1,.64-1.08,2.37,2.37,0,0,1,1.25-.32A4.94,4.94,0,0,1,79.45,463.43Zm0,.67a2.72,2.72,0,0,0-.83-.14,1.67,1.67,0,0,0-1,.25.59.59,0,0,0-.28.52.63.63,0,0,0,.3.55,1.35,1.35,0,0,0,.79.2.94.94,0,0,0,1-1.06Zm0-4.54.31-.57a9.75,9.75,0,0,1,2.28,1.07l-.36.62A9.13,9.13,0,0,0,79.49,459.56Z"/>
    <path class="cls-3" d="M83.58,457.77h.75c-.12,3.42-.17,5.48-.17,6.19a1.19,1.19,0,0,0,1.43,1.43,2.3,2.3,0,0,0,1.74-.68,3.91,3.91,0,0,0,.87-1.91l.68.35c-.44,1.94-1.54,2.91-3.27,2.91a2.27,2.27,0,0,1-1.72-.52,2.2,2.2,0,0,1-.43-1.53c0-.37,0-1.26,0-2.69C83.54,459.6,83.57,458.42,83.58,457.77Z"/>
    <path class="cls-3" d="M53.62,470.2h6.51a7.1,7.1,0,0,1-.61,2.22,5.16,5.16,0,0,1-1.21,1.51l-.59-.49a4.21,4.21,0,0,0,1.05-1.26,3.44,3.44,0,0,0,.43-1.3H53.62Zm.3,7.23a3.93,3.93,0,0,0,1.79-1.51,5.24,5.24,0,0,0,.55-2.64v-1.59H57v1.61a5.57,5.57,0,0,1-.8,3.2A5.06,5.06,0,0,1,54.4,478Z"/>
    <path class="cls-3" d="M66.73,471a9.44,9.44,0,0,1-1,4.24,6.41,6.41,0,0,1-3.66,2.79l-.41-.6a6.15,6.15,0,0,0,3.25-2.32,7.62,7.62,0,0,0,1-4.11H61.25v-.66H66A1,1,0,0,1,66,470a1.1,1.1,0,0,1,.36-.83,1.12,1.12,0,0,1,.76-.28,1.1,1.1,0,0,1,.83.36,1.11,1.11,0,0,1,.28.75,1.09,1.09,0,0,1-.36.84,1.12,1.12,0,0,1-.75.29A.86.86,0,0,1,66.73,471Zm.36-1.74a.69.69,0,1,0,.51,1.15.65.65,0,0,0,.17-.47.67.67,0,0,0-.22-.51A.69.69,0,0,0,67.09,469.3Z"/>
    <path class="cls-3" d="M70.21,470v4.9h-.77V470Zm-.28,7.5a4,4,0,0,0,2.48-1.3,4.43,4.43,0,0,0,.64-2.62V469.9h.77v3.75a4.47,4.47,0,0,1-1,3.18,5,5,0,0,1-2.56,1.23Z"/>
  </g>
  <g id="shape1138-105">
    <path id="path302" class="cls-1" d="M71.17,279.66H54.32c-1.48,0-1.5.4-1.5,2.23v29.55c0,1.83,0,2.17,1.49,2.22H71.17c1.47-.05,1.49-.39,1.49-2.22V281.89C72.66,280.06,72.64,279.71,71.17,279.66Zm-10.76,1.15h4.67a.18.18,0,0,1,0,.36H60.41a.18.18,0,0,1,0-.36Zm.12,31.09H59.39c-.19,0-.34-.07-.34-.27s.15-.26.34-.26h1.14c.19,0,.35.07.35.26S60.72,311.9,60.53,311.9Zm3,.2H62c-.26,0-.47-.11-.47-.37s.21-.36.47-.36h1.55c.26,0,.47.1.47.37S63.78,312.1,63.52,312.1Zm2.59-.2H65c-.18,0-.34-.08-.34-.27s.16-.27.34-.27h1.14c.19,0,.34.08.34.27S66.3,311.9,66.11,311.9Zm5.12-3.45c0,1.56-.14,1.9-1.56,1.92H55.81c-1.41,0-1.56-.36-1.56-1.92V283.87c0-1.63.16-1.63,1.74-1.63h13.5c1.59,0,1.75,0,1.75,1.63Z"/>
  </g>
  <g id="shape1139-107">
    <path id="path307" class="cls-1" d="M70.26,284.87c0-1.57-.19-1.58-1.73-1.58H56.9c-1.54,0-1.69,0-1.69,1.58v22.54c0,1.57.16,1.85,1.69,1.85H68.53c1.54,0,1.73-.28,1.73-1.86Zm-8,16.65-4.77-2.83V293l4.77,2.82ZM58,292.25l4.76-2.81,4.78,2.83-4.75,2.81Zm10,6.44-4.77,2.83v-5.63L68,293.07Z"/>
  </g>
  <g id="text312" class="cls-2">
    <g class="cls-2">
      <path class="cls-1" d="M51.21,322.74h3.3v.64h-3.3v2.69q0,.51.24.63a2,2,0,0,0,.92.17c.66,0,1.3,0,1.92-.1v.75c-.7.06-1.31.08-1.83.08a3.33,3.33,0,0,1-1.52-.24,1.27,1.27,0,0,1-.49-1.2v-2.78H48.24v-.64h2.21v-2.19H48.57v-.66h5.62v.66h-3Z"/>
      <path class="cls-1" d="M55.42,327.12a10.08,10.08,0,0,0,1.4-3.18,24.59,24.59,0,0,0,.61-3.92l.8.07a23.49,23.49,0,0,1-.81,4.53,10.64,10.64,0,0,1-1.33,2.88Zm4.27-7.05.76-.06a18.71,18.71,0,0,0,2.08,7.07l-.74.42A21.12,21.12,0,0,1,59.69,320.07Zm1-.69.51-.2a12.79,12.79,0,0,1,.74,1.68l-.54.22A10.92,10.92,0,0,0,60.67,319.38Zm1.11-.35.5-.18a8,8,0,0,1,.71,1.64l-.52.21A9.58,9.58,0,0,0,61.78,319Z"/>
      <path class="cls-1" d="M66.22,322.4a23.17,23.17,0,0,1-2.81,1.88l-.41-.57a18.78,18.78,0,0,0,3.12-2.15,13.73,13.73,0,0,0,2.21-2.34l.66.41a15.41,15.41,0,0,1-2,2.13v6h-.77Z"/>
      <path class="cls-1" d="M71.6,319.7c0,1.9,0,3.26-.1,4.1a7.45,7.45,0,0,1-.28,1.68,4.66,4.66,0,0,1-1.46,2.16l-.58-.46a3.69,3.69,0,0,0,1.36-2,9.08,9.08,0,0,0,.25-2.06c0-.74,0-1.88,0-3.44Zm2.13,6.78a7.49,7.49,0,0,0,2.6-3.43l.51.67a9.14,9.14,0,0,1-3.44,3.92l-.43-.23v-7.78h.76Z"/>
      <path class="cls-1" d="M52,331.87h6.51a6.84,6.84,0,0,1-.61,2.22,5,5,0,0,1-1.2,1.5l-.59-.48a4.53,4.53,0,0,0,1.05-1.26,3.3,3.3,0,0,0,.42-1.3H52Zm.3,7.23a4,4,0,0,0,1.8-1.51,5.39,5.39,0,0,0,.55-2.65v-1.58h.76V335a5.6,5.6,0,0,1-.8,3.21,5.06,5.06,0,0,1-1.83,1.5Z"/>
      <path class="cls-1" d="M65.09,332.71a9.43,9.43,0,0,1-1,4.24,6.34,6.34,0,0,1-3.65,2.78l-.42-.6a6.05,6.05,0,0,0,3.25-2.31,7.53,7.53,0,0,0,1-4.11H59.6V332h4.79a1.13,1.13,0,0,1-.07-.39,1.13,1.13,0,0,1,2-.75,1.12,1.12,0,0,1,.29.75,1.12,1.12,0,0,1-1.12,1.13A.84.84,0,0,1,65.09,332.71Zm.35-1.74a.67.67,0,0,0-.52.22.71.71,0,0,0-.17.46.68.68,0,0,0,.23.52.63.63,0,0,0,.46.18.68.68,0,0,0,.52-.23.7.7,0,0,0,.17-.47.66.66,0,0,0-.23-.51A.63.63,0,0,0,65.44,331Z"/>
      <path class="cls-1" d="M68.57,331.62v4.91h-.78v-4.91Zm-.29,7.5a4,4,0,0,0,2.48-1.29,4.38,4.38,0,0,0,.64-2.62v-3.64h.77v3.75a4.51,4.51,0,0,1-1,3.18,5,5,0,0,1-2.57,1.23Z"/>
    </g>
  </g>
  <g id="shape1140-112">
    <g id="use15">
      <g id="lend5">
        <path id="path12" class="cls-4" d="M275.36,292.72l8,4-8,4a9.08,9.08,0,0,0,0-8"/>
      </g>
    </g>
  </g>
  <g id="shape1142-119">
    <path id="path327" class="cls-5" d="M67.79,384.27H53.58V355.89H67.79v7.68h.76v-8.44H52.82V385H68.55v-2.32h-.76Z"/>
  </g>
  <g id="shape1143-121">
    <path id="path332" class="cls-5" d="M67,356.69H54.38v4.58H67Zm-9.58,1.91H64v.76H57.44ZM64,360.45H57.41v-.77H64Z"/>
  </g>
  <g id="shape1144-123">
    <path id="path337" class="cls-5" d="M54.34,362v3h8.6v-1.53H67V362Z"/>
  </g>
  <g id="shape1145-125">
    <rect id="rect342" class="cls-5" x="54.34" y="365.86" width="8.6" height="2.68"/>
  </g>
  <g id="shape1146-127">
    <path id="path347" class="cls-5" d="M54.34,383.5H67v-.79H62.91V369.33h-8.6V383.5Zm1.53-2.74h2.29V382H55.87Z"/>
  </g>
  <g id="shape1147-129">
    <path id="path352" class="cls-5" d="M77.57,380.45H75.11v-1.88H72.6v1.88H70.15a1.32,1.32,0,0,0-1.31,1.14h10A1.28,1.28,0,0,0,77.57,380.45Z"/>
  </g>
  <g id="shape1148-131">
    <path id="path357" class="cls-5" d="M82.4,366.47H65.3a.64.64,0,0,0-.67.6V377.2a.64.64,0,0,0,.67.6H82.4a.64.64,0,0,0,.67-.6V367.07A.62.62,0,0,0,82.4,366.47Zm-1,9.84H66.32V368H81.38Z"/>
  </g>
  <g id="shape1149-133">
    <path id="path362" class="cls-5" d="M77.76,373.82v-3.44l-3.51-1.85-3.5,1.78v3.54l3.5,1.81Zm-4.4-2.3.89-.44.86.44-.86.48Zm0-1.14.86-.45.86.45-.86.47Zm1.91,4.52-1,.51v-.93l1-.5Zm0-1.18-1,.51v-.92l1-.51Zm0-1.11-1,.51v-.93l1-.51ZM74.48,371l.86-.45.89.45-.86.45Zm2,3.34-1,.51v-.92l1-.51Zm0-1.17-1,.5v-.92l1-.51Zm0-1.15-1,.51v-.89l1-.51Zm1,1.75-.86.45v-.93l.86-.44Zm0-1.15-.86.45v-.92l.86-.45Zm0-1.14-.86.44V371l.86-.45Zm-.19-1.05-.89.44-.89-.44.86-.45Zm-1.11-.58-.89.45-.86-.45.86-.44Zm-2-1.05.86.45-.86.44-.89-.44Zm-1.11.61.86.44-.86.45-.86-.45Zm-1.08.57.89.45-.89.44-.9-.44Zm-.26,4.27-.86-.45v-.92l.86.44Zm0-1.18-.86-.45v-.92l.86.45Zm0-1.15-.86-.44v-.89l.86.44ZM73,374.8l-1-.51v-.92l1,.51Zm0-1.18-1-.5v-.93l1,.51Zm0-1.14L72,372v-.89l1,.51Zm-.7-1.53.89-.45L74,371l-.89.48Zm1.88,4.46-1-.51V374l1,.51Zm0-1.15-1-.51v-.92l1,.51Zm0-1.14-1-.51v-.93l1,.51Z"/>
  </g>
  <g id="shape1141-135">
    <g id="text365" class="cls-2">
      <path class="cls-5" d="M45.19,391.37H42.12v-.65h6.35v.65H46a15.4,15.4,0,0,1-.1,1.84,3.38,3.38,0,0,1-.24,1,4.42,4.42,0,0,1-2.39,2.3l-.5-.56a3.71,3.71,0,0,0,2.18-2A8,8,0,0,0,45.19,391.37Zm-2.48-2.83H47v.66H42.71Zm4.35-.74.51-.2a9.93,9.93,0,0,1,.74,1.69l-.54.22A8.37,8.37,0,0,0,47.06,387.8Zm1.12-.34.5-.18a7.79,7.79,0,0,1,.71,1.64l-.52.21A9.26,9.26,0,0,0,48.18,387.46Z"/>
      <path class="cls-5" d="M53.89,393.17a9,9,0,0,1-3.57,3.16l-.44-.58a8.79,8.79,0,0,0,3.27-2.81,10,10,0,0,0,1.46-3.6h-4.2v-.67H55.6a13.56,13.56,0,0,1-1.32,3.83,22.76,22.76,0,0,1,2.33,3.36l-.74.47A18,18,0,0,0,53.89,393.17Z"/>
      <path class="cls-5" d="M59.79,389.7A9.42,9.42,0,0,1,58,392.58l-.57-.44A8.76,8.76,0,0,0,59.54,388l.79.12c-.07.26-.17.57-.29.94h3.47a10.74,10.74,0,0,1-1.91,5.25,7.53,7.53,0,0,1-3.16,2.22L58,396a6.9,6.9,0,0,0,3.2-2.37,9.09,9.09,0,0,0,1.41-3.9Z"/>
      <path class="cls-5" d="M66.12,391.68v4.75h-.77V388h.77v2.9a15.32,15.32,0,0,1,3.81,1.59l-.38.72A12.6,12.6,0,0,0,66.12,391.68Z"/>
      <path class="cls-5" d="M70.71,390.61l.64-.28a14.43,14.43,0,0,1,.83,2.18l-.66.26A12.25,12.25,0,0,0,70.71,390.61Zm1.1,5.42a5.11,5.11,0,0,0,2.69-2.2,8.34,8.34,0,0,0,.86-3.69l.74.16a9.6,9.6,0,0,1-1,3.9,4.88,4.88,0,0,1-1.2,1.39,6.91,6.91,0,0,1-1.66,1Zm.79-5.85.63-.26a13.57,13.57,0,0,1,.73,2.14l-.66.28A9.79,9.79,0,0,0,72.6,390.18Z"/>
      <path class="cls-5" d="M81.5,389.43a9.48,9.48,0,0,1-1,4.23,6.39,6.39,0,0,1-3.65,2.79l-.42-.6a6.15,6.15,0,0,0,3.25-2.32,7.6,7.6,0,0,0,1-4.1H76v-.67H80.8a.94.94,0,0,1-.07-.39,1.06,1.06,0,0,1,.37-.83,1,1,0,0,1,.75-.29,1.06,1.06,0,0,1,.83.37,1.12,1.12,0,0,1-.83,1.87A1,1,0,0,1,81.5,389.43Zm.35-1.75a.67.67,0,0,0-.52.22.71.71,0,0,0-.17.47.69.69,0,0,0,.22.52.69.69,0,0,0,1.16-.52.68.68,0,0,0-.69-.69Z"/>
      <path class="cls-5" d="M51.88,400.59h6.51a7.11,7.11,0,0,1-.61,2.21,5,5,0,0,1-1.2,1.51l-.6-.49A4.4,4.4,0,0,0,57,402.56a3.25,3.25,0,0,0,.42-1.3H51.88Zm.3,7.22a4,4,0,0,0,1.8-1.5,5.43,5.43,0,0,0,.54-2.65v-1.58h.77v1.6a5.6,5.6,0,0,1-.8,3.21,5,5,0,0,1-1.83,1.49Z"/>
      <path class="cls-5" d="M65,401.43a9.48,9.48,0,0,1-1,4.23,6.39,6.39,0,0,1-3.65,2.79l-.42-.6a6.11,6.11,0,0,0,3.25-2.32,7.6,7.6,0,0,0,1-4.1H59.51v-.67H64.3a.94.94,0,0,1-.07-.39,1.06,1.06,0,0,1,.37-.83,1,1,0,0,1,.75-.29,1.06,1.06,0,0,1,.83.37,1.08,1.08,0,0,1,.29.75,1.06,1.06,0,0,1-.37.83,1,1,0,0,1-.75.29A1,1,0,0,1,65,401.43Zm.35-1.75a.67.67,0,0,0-.52.22.71.71,0,0,0-.17.47.7.7,0,0,0,.23.52.67.67,0,0,0,.46.17.67.67,0,0,0,.69-.69.68.68,0,0,0-.23-.52A.67.67,0,0,0,65.35,399.68Z"/>
      <path class="cls-5" d="M68.48,400.34v4.9H67.7v-4.9Zm-.29,7.5a4,4,0,0,0,2.48-1.3,4.33,4.33,0,0,0,.64-2.61v-3.65h.77V404a4.51,4.51,0,0,1-1,3.18,4.91,4.91,0,0,1-2.57,1.23Z"/>
    </g>
  </g>
  <g id="group1150-137">
    <g id="group1151-138">
      <g id="group1152-139">
        <g id="group1153-140">
          <g id="shape1154-141">
            <path id="path379" class="cls-1" d="M7.85,152.05a4.49,4.49,0,0,0-3,5.66c.66,2.56,3,4.22,5.27,3.67a4.49,4.49,0,0,0,3-5.66C12.57,153.05,10.16,151.39,7.85,152.05Z"/>
          </g>
        </g>
        <g id="group1155-143">
          <g id="shape1156-144">
            <path id="path387" class="cls-1" d="M12.78,162.07c-.43,0-.88.77-1.54,1.11s-1.31.88-3.17,0-2.1-1.67-3.64-1.67-4,2.78-4,6.88H16a12.24,12.24,0,0,0-1.11-4.22C13.77,162.07,13.23,162.07,12.78,162.07Z"/>
          </g>
        </g>
      </g>
    </g>
    <g id="group1157-146">
      <g id="shape1158-147">
        <path id="path397" class="cls-6" d="M14.19,157.12H10.07a.71.71,0,0,0-.65.66v2.85a.73.73,0,0,0,.76.66h.76v5.15a1,1,0,0,0,1,1.09,1,1,0,0,0,1-1h.21v-.66c0-.22.33-.33.33-.33v-.33c-.33-.11-.54-.33-.54-.44v-.32l.21-.22a3.53,3.53,0,0,0,.33-.55,2.4,2.4,0,0,1-.33-.55c-.1-.11-.1-.33-.21-.44v-.22a2.52,2.52,0,0,1,.76-1.09h.54a.71.71,0,0,0,.65-.66v-3A.63.63,0,0,0,14.19,157.12Zm-2.39,9.54c0,.22,0,.33-.21.33s-.22-.22-.22-.33v-4.82c0-.22.11-.33.22-.33s.21.22.21.33Zm.33-7.78a.66.66,0,0,1,0-1.32.71.71,0,0,1,.65.66A.63.63,0,0,1,12.13,158.88Z"/>
      </g>
      <g id="shape1159-149">
        <path id="path402" class="cls-7" d="M11.57,167a.24.24,0,0,1-.22-.22v-5a.22.22,0,1,1,.44,0v5.1C11.79,167,11.68,167,11.57,167Z"/>
      </g>
      <g id="shape1160-151">
        <ellipse id="ellipse407" class="cls-7" cx="12.14" cy="158.2" rx="0.66" ry="0.67"/>
      </g>
    </g>
  </g>
  <g id="shape1170-153">
    <g id="use15-2" data-name="use15">
      <g id="lend5-2" data-name="lend5">
        <path id="path12-2" data-name="path12" class="cls-4" d="M275.36,292.71l8,4-8,4a9.06,9.06,0,0,0,0-8"/>
      </g>
    </g>
  </g>
  <g id="shape1171-158">
    <g id="use15-3" data-name="use15">
      <g id="lend5-3" data-name="lend5">
        <path id="path12-3" data-name="path12" class="cls-4" d="M275.37,292.71l8,4-8,4a9,9,0,0,0,0-8"/>
      </g>
    </g>
  </g>
  <g id="shape1172-163">
    <g id="use15-4" data-name="use15">
      <g id="lend5-4" data-name="lend5">
        <path id="path12-4" data-name="path12" class="cls-4" d="M275.37,292.71l8,4-8,4a9,9,0,0,0,0-8"/>
      </g>
    </g>
  </g>
  <g id="shape1173-168">
    <g id="use15-5" data-name="use15">
      <g id="lend5-5" data-name="lend5">
        <path id="path12-5" data-name="path12" class="cls-4" d="M275.37,292.71l8,4-8,4a9,9,0,0,0,0-8"/>
      </g>
    </g>
  </g>
  <path id="path436" class="cls-1" d="M413.15,284h-20.5a1.1,1.1,0,0,0-1.09,1.11v16.74a1.09,1.09,0,0,0,1.09,1.1h5.28a3.29,3.29,0,0,0,3.21,2.27,3.38,3.38,0,0,0,0-6.75,3.29,3.29,0,0,0-3.21,2.27h-4.19v-12h18.31v12H408.6a7.61,7.61,0,0,0-7.46-6.56,8.25,8.25,0,0,0-3.64.92l1,2a5.27,5.27,0,0,1,2.55-.67,5.46,5.46,0,0,1,0,10.92,5.28,5.28,0,0,1-2.55-.68l-1,2a7.4,7.4,0,0,0,3.64.92,7.61,7.61,0,0,0,7.46-6.56h4.55a1.09,1.09,0,0,0,1.09-1.1V285.08A1.14,1.14,0,0,0,413.15,284Z"/>
  <g id="text438" class="cls-2">
    <path class="cls-1" d="M389.44,323.13h-.91l-.74-2h-3l-.7,2h-.91l2.69-7h.85Zm-1.92-2.7-1.1-3a3,3,0,0,1-.1-.47h0a2.42,2.42,0,0,1-.12.47l-1.08,3Z"/>
    <path class="cls-1" d="M391.32,320.49v2.64h-.82v-7h1.92a2.51,2.51,0,0,1,1.74.55,1.92,1.92,0,0,1,.62,1.54,2.13,2.13,0,0,1-.68,1.63,2.66,2.66,0,0,1-1.86.64Zm0-3.62v2.87h.86a2,2,0,0,0,1.3-.38,1.41,1.41,0,0,0,.44-1.1c0-.92-.54-1.39-1.64-1.39Z"/>
    <path class="cls-1" d="M396.81,323.13H396v-7h.82Z"/>
    <path class="cls-1" d="M401.17,315.69h6.51a6.7,6.7,0,0,1-.61,2.21,4.88,4.88,0,0,1-1.2,1.51l-.59-.49a4.26,4.26,0,0,0,1.05-1.26,3.26,3.26,0,0,0,.42-1.29h-5.58Zm.3,7.22a3.94,3.94,0,0,0,1.8-1.5,5.42,5.42,0,0,0,.55-2.65v-1.58h.76v1.6a5.52,5.52,0,0,1-.8,3.21,4.9,4.9,0,0,1-1.82,1.49Z"/>
    <path class="cls-1" d="M414.29,316.53a9.43,9.43,0,0,1-1,4.24,6.34,6.34,0,0,1-3.65,2.78l-.42-.6a6,6,0,0,0,3.25-2.32,7.47,7.47,0,0,0,1-4.1H408.8v-.67h4.79a1.13,1.13,0,0,1-.07-.39,1.12,1.12,0,0,1,2-.75,1.12,1.12,0,0,1,.29.75,1.12,1.12,0,0,1-1.12,1.13A1,1,0,0,1,414.29,316.53Zm.35-1.75a.69.69,0,0,0-.46,1.21.63.63,0,0,0,.46.18.68.68,0,0,0,.52-.23.71.71,0,0,0,.17-.47.68.68,0,0,0-.69-.69Z"/>
    <path class="cls-1" d="M417.77,315.44v4.91H417v-4.91Zm-.29,7.5a4,4,0,0,0,2.48-1.29,4.38,4.38,0,0,0,.64-2.62v-3.65h.77v3.75a4.52,4.52,0,0,1-1,3.19,4.9,4.9,0,0,1-2.57,1.22Z"/>
  </g>
  <g id="shape1175-176">
    <g id="use15-6" data-name="use15">
      <g id="lend5-6" data-name="lend5">
        <path id="path12-6" data-name="path12" class="cls-4" d="M383.08,292.71l8,4-8,4a9,9,0,0,0,0-8"/>
      </g>
    </g>
  </g>
  <g id="group1176-181">
    <g id="group1177-182">
      <g id="group1178-183">
        <g id="group1179-184">
          <g id="shape1180-185">
            <path id="path456" class="cls-1" d="M10.33,216.18a4.49,4.49,0,0,0-3,5.66c.66,2.56,3,4.22,5.27,3.67a4.49,4.49,0,0,0,3-5.66C15.05,217.18,12.64,215.52,10.33,216.18Z"/>
          </g>
        </g>
        <g id="group1181-187">
          <g id="shape1182-188">
            <path id="path464" class="cls-1" d="M15.27,226.2c-.44,0-.88.77-1.54,1.11s-1.32.88-3.18,0-2.09-1.67-3.63-1.67-4.06,2.78-4.06,6.88H18.45a12.14,12.14,0,0,0-1.1-4.22C16.25,226.2,15.71,226.2,15.27,226.2Z"/>
          </g>
        </g>
      </g>
    </g>
    <g id="group1183-190">
      <g id="shape1184-191">
        <path id="path474" class="cls-6" d="M16.67,221.25H12.55a.71.71,0,0,0-.65.66v2.85a.73.73,0,0,0,.76.66h.76v5.15a1,1,0,0,0,1,1.09,1,1,0,0,0,1-1h.21V230c0-.22.33-.33.33-.33v-.33c-.33-.11-.54-.33-.54-.44v-.32l.21-.22a3.53,3.53,0,0,0,.33-.55,2.4,2.4,0,0,1-.33-.55c-.1-.11-.1-.33-.21-.44v-.22a2.52,2.52,0,0,1,.76-1.09h.54a.71.71,0,0,0,.65-.66v-3A.63.63,0,0,0,16.67,221.25Zm-2.39,9.54c0,.22,0,.33-.21.33s-.22-.22-.22-.33V226c0-.22.11-.33.22-.33s.21.22.21.33Zm.33-7.78a.66.66,0,0,1,0-1.32.71.71,0,0,1,.65.66A.63.63,0,0,1,14.61,223Z"/>
      </g>
      <g id="shape1185-193">
        <path id="path479" class="cls-7" d="M14.05,231.09a.24.24,0,0,1-.22-.22v-5a.22.22,0,1,1,.44,0V231C14.27,231.09,14.16,231.09,14.05,231.09Z"/>
      </g>
      <g id="shape1186-195">
        <ellipse id="ellipse484" class="cls-7" cx="14.62" cy="222.34" rx="0.66" ry="0.67"/>
      </g>
    </g>
  </g>
  <g id="group1187-197">
    <g id="group1188-198">
      <g id="group1189-199">
        <g id="group1190-200">
          <g id="shape1191-201">
            <path id="path499" class="cls-1" d="M7.85,76.58a4.49,4.49,0,0,0-3,5.66c.66,2.56,3,4.22,5.27,3.67a4.49,4.49,0,0,0,3-5.66C12.57,77.58,10.16,75.92,7.85,76.58Z"/>
          </g>
        </g>
        <g id="group1192-203">
          <g id="shape1193-204">
            <path id="path507" class="cls-1" d="M12.78,86.6c-.43,0-.88.77-1.54,1.11s-1.31.88-3.17,0S6,86,4.43,86s-4,2.78-4,6.88H16a12.24,12.24,0,0,0-1.11-4.22C13.77,86.6,13.23,86.6,12.78,86.6Z"/>
          </g>
        </g>
      </g>
    </g>
    <g id="group1194-206">
      <g id="shape1195-207">
        <path id="path517" class="cls-6" d="M14.19,81.65H10.07a.71.71,0,0,0-.65.66v2.85a.73.73,0,0,0,.76.66h.76V91a1,1,0,0,0,1,1.09,1,1,0,0,0,1-1h.21v-.66c0-.22.33-.33.33-.33v-.33c-.33-.11-.54-.33-.54-.44V89l.21-.22a3.53,3.53,0,0,0,.33-.55,2.4,2.4,0,0,1-.33-.55c-.1-.11-.1-.33-.21-.44V87a2.52,2.52,0,0,1,.76-1.09h.54a.71.71,0,0,0,.65-.66v-3A.63.63,0,0,0,14.19,81.65ZM11.8,91.19c0,.22,0,.33-.21.33s-.22-.22-.22-.33V86.37c0-.22.11-.33.22-.33s.21.22.21.33Zm.33-7.78a.66.66,0,0,1,0-1.32.71.71,0,0,1,.65.66A.63.63,0,0,1,12.13,83.41Z"/>
      </g>
      <g id="shape1196-209">
        <path id="path522" class="cls-7" d="M11.57,91.49a.24.24,0,0,1-.22-.22v-5a.22.22,0,1,1,.44,0v5.1C11.79,91.49,11.68,91.49,11.57,91.49Z"/>
      </g>
      <g id="shape1197-211">
        <ellipse id="ellipse527" class="cls-7" cx="12.14" cy="82.73" rx="0.66" ry="0.67"/>
      </g>
    </g>
  </g>
  <g id="group1198-213">
    <g id="group1199-214">
      <g id="group1200-215">
        <g id="group1201-216">
          <g id="shape1202-217">
            <path id="path542" class="cls-1" d="M10.33,368.69a4.49,4.49,0,0,0-3,5.66c.66,2.56,3,4.22,5.27,3.67a4.49,4.49,0,0,0,3-5.66C15.05,369.69,12.64,368,10.33,368.69Z"/>
          </g>
        </g>
        <g id="group1203-219">
          <g id="shape1204-220">
            <path id="path550" class="cls-1" d="M15.27,378.71c-.44,0-.88.77-1.54,1.11s-1.32.88-3.18,0-2.09-1.67-3.63-1.67S2.86,380.93,2.86,385H18.45a12.14,12.14,0,0,0-1.1-4.22C16.25,378.71,15.71,378.71,15.27,378.71Z"/>
          </g>
        </g>
      </g>
    </g>
    <g id="group1205-222">
      <g id="shape1206-223">
        <path id="path560" class="cls-6" d="M16.67,373.76H12.55a.71.71,0,0,0-.65.66v2.85a.73.73,0,0,0,.76.66h.76v5.15a1,1,0,0,0,1,1.09,1,1,0,0,0,1-1h.21v-.66c0-.22.33-.33.33-.33v-.33c-.33-.11-.54-.33-.54-.44v-.32l.21-.22a3.53,3.53,0,0,0,.33-.55,2.4,2.4,0,0,1-.33-.55c-.1-.11-.1-.33-.21-.44v-.22a2.52,2.52,0,0,1,.76-1.09h.54a.71.71,0,0,0,.65-.66v-3A.63.63,0,0,0,16.67,373.76Zm-2.39,9.54c0,.22,0,.33-.21.33s-.22-.22-.22-.33v-4.82c0-.22.11-.33.22-.33s.21.22.21.33Zm.33-7.78a.66.66,0,0,1,0-1.32.71.71,0,0,1,.65.66A.63.63,0,0,1,14.61,375.52Z"/>
      </g>
      <g id="shape1207-225">
        <path id="path565" class="cls-7" d="M14.05,383.6a.24.24,0,0,1-.22-.22v-5a.22.22,0,1,1,.44,0v5.1C14.27,383.6,14.16,383.6,14.05,383.6Z"/>
      </g>
      <g id="shape1208-227">
        <ellipse id="ellipse570" class="cls-7" cx="14.62" cy="374.84" rx="0.66" ry="0.67"/>
      </g>
    </g>
  </g>
  <g id="group1218-229">
    <g id="group1219-230">
      <g id="group1220-231">
        <g id="group1221-232">
          <g id="shape1222-233">
            <path id="path585" class="cls-1" d="M10.33,431.4a4.49,4.49,0,0,0-3,5.66c.66,2.56,3,4.22,5.27,3.67a4.49,4.49,0,0,0,3-5.66C15.05,432.4,12.64,430.74,10.33,431.4Z"/>
          </g>
        </g>
        <g id="group1223-235">
          <g id="shape1224-236">
            <path id="path593" class="cls-1" d="M15.27,441.42c-.44,0-.88.77-1.54,1.11s-1.32.88-3.18,0-2.09-1.67-3.63-1.67-4.06,2.78-4.06,6.88H18.45a12.14,12.14,0,0,0-1.1-4.22C16.25,441.42,15.71,441.42,15.27,441.42Z"/>
          </g>
        </g>
      </g>
    </g>
    <g id="group1225-238">
      <g id="shape1226-239">
        <path id="path603" class="cls-6" d="M16.67,436.47H12.55a.71.71,0,0,0-.65.66V440a.73.73,0,0,0,.76.66h.76v5.15a1,1,0,0,0,1,1.09,1,1,0,0,0,1-1h.21v-.66c0-.22.33-.33.33-.33v-.33c-.33-.11-.54-.33-.54-.44v-.32l.21-.22a3.53,3.53,0,0,0,.33-.55,2.4,2.4,0,0,1-.33-.55c-.1-.11-.1-.33-.21-.44v-.22a2.52,2.52,0,0,1,.76-1.09h.54a.71.71,0,0,0,.65-.66v-3A.63.63,0,0,0,16.67,436.47ZM14.28,446c0,.22,0,.33-.21.33s-.22-.22-.22-.33v-4.82c0-.22.11-.33.22-.33s.21.22.21.33Zm.33-7.78a.66.66,0,0,1,0-1.32.71.71,0,0,1,.65.66A.63.63,0,0,1,14.61,438.23Z"/>
      </g>
      <g id="shape1227-241">
        <path id="path608" class="cls-7" d="M14.05,446.31a.24.24,0,0,1-.22-.22v-5a.22.22,0,1,1,.44,0v5.1C14.27,446.31,14.16,446.31,14.05,446.31Z"/>
      </g>
      <g id="shape1228-243">
        <ellipse id="ellipse613" class="cls-7" cx="14.62" cy="437.56" rx="0.66" ry="0.67"/>
      </g>
    </g>
  </g>
  <g class="cls-2">
    <path class="cls-1" d="M36,37.62l.34-.6a21.86,21.86,0,0,1,2.35,1l-.38.67A15.05,15.05,0,0,0,36,37.62Zm6.13-1.48.7.39a10.93,10.93,0,0,1-.82,2.26,7.3,7.3,0,0,1-1,1.59,7.23,7.23,0,0,1-4,2.14l-.41-.63a6.46,6.46,0,0,0,3.8-2A8.19,8.19,0,0,0,42.17,36.14Zm-5.24-.66.37-.59A14.53,14.53,0,0,1,39.58,36l-.4.66A12.75,12.75,0,0,0,36.93,35.48Z"/>
    <path class="cls-1" d="M44.25,35.31a17.42,17.42,0,0,1,2.34,1.49l-.49.66a15.73,15.73,0,0,0-2.3-1.56Zm5,.5.76.36a8.25,8.25,0,0,1-1.86,4.15,8,8,0,0,1-4,2.3l-.34-.68A6.79,6.79,0,0,0,49.28,35.81Z"/>
    <path class="cls-1" d="M56.3,35.44a10.46,10.46,0,0,0-.6-1.38l.51-.2A13.76,13.76,0,0,1,57,35.55l-.4.16.32.42A9.6,9.6,0,0,1,55,40.83a7.64,7.64,0,0,1-3,2.08l-.44-.54A6.9,6.9,0,0,0,54.67,40a9,9,0,0,0,1.41-3.91H53.26A9.42,9.42,0,0,1,51.42,39l-.57-.44A8.71,8.71,0,0,0,53,34.38l.79.12c-.07.26-.17.57-.29.94Zm.57-1.61.5-.18a8.62,8.62,0,0,1,.71,1.64l-.52.21A9.58,9.58,0,0,0,56.87,33.83Z"/>
    <path class="cls-1" d="M60.41,34.82c0,1.89,0,3.26-.1,4.1A7.55,7.55,0,0,1,60,40.6a4.66,4.66,0,0,1-1.46,2.15L58,42.3a3.68,3.68,0,0,0,1.36-2,9.49,9.49,0,0,0,.25-2.05c0-.74,0-1.89,0-3.44Zm2.13,6.78a7.41,7.41,0,0,0,2.59-3.43l.52.66a9.09,9.09,0,0,1-3.44,3.92l-.43-.22V34.75h.76Z"/>
    <path class="cls-1" d="M69.14,40.24c.84-1.58,1.55-3,2.12-4.27a.7.7,0,0,1,.63-.5.85.85,0,0,1,.71.41c.46.69,1.14,1.68,2,3l1.87,2.74-.66.52c-.9-1.33-2.13-3.2-3.7-5.63a.19.19,0,0,0-.15-.1.2.2,0,0,0-.18.13q-.85,1.88-2,4.08Zm6.09-5.74a1.12,1.12,0,0,1,1.13,1.12,1.1,1.1,0,0,1-.38.84,1.08,1.08,0,0,1-.75.28,1.06,1.06,0,0,1-.83-.37,1.12,1.12,0,0,1,.08-1.58A1.12,1.12,0,0,1,75.23,34.5Zm0,.43a.7.7,0,0,0-.69.69.68.68,0,0,0,.23.52.64.64,0,0,0,.46.17.68.68,0,0,0,.7-.69.65.65,0,0,0-.23-.51A.67.67,0,0,0,75.23,34.93Z"/>
    <path class="cls-1" d="M76.8,38.33h5.44v.74H76.8Z"/>
    <path class="cls-1" d="M83.15,37.62l.35-.6a20.52,20.52,0,0,1,2.34,1l-.37.67A14.78,14.78,0,0,0,83.15,37.62Zm6.14-1.48.69.39a9.88,9.88,0,0,1-.82,2.26,6.64,6.64,0,0,1-1,1.59,7.16,7.16,0,0,1-4,2.14l-.42-.63a6.43,6.43,0,0,0,3.8-2A8.2,8.2,0,0,0,89.29,36.14Zm-5.24-.66.37-.59A14.53,14.53,0,0,1,86.7,36l-.4.66A12.75,12.75,0,0,0,84.05,35.48Zm4-1.32.51-.2a9.44,9.44,0,0,1,.74,1.69l-.54.23A8.06,8.06,0,0,0,88,34.16Zm1.17-.3.5-.18a8,8,0,0,1,.71,1.64l-.52.21A9.58,9.58,0,0,0,89.19,33.86Z"/>
    <path class="cls-1" d="M35.53,47H42a6.7,6.7,0,0,1-.61,2.21,4.88,4.88,0,0,1-1.2,1.51l-.59-.49a4.26,4.26,0,0,0,1-1.26,3.45,3.45,0,0,0,.43-1.29H35.53Zm.3,7.22a3.94,3.94,0,0,0,1.8-1.5,5.42,5.42,0,0,0,.55-2.65V48.48h.76v1.6a5.52,5.52,0,0,1-.8,3.21,4.9,4.9,0,0,1-1.82,1.49Z"/>
    <path class="cls-1" d="M48.65,47.83a9.35,9.35,0,0,1-1,4.23A6.31,6.31,0,0,1,44,54.85l-.42-.6a6,6,0,0,0,3.25-2.32,7.47,7.47,0,0,0,1-4.1H43.16v-.67H48a1.13,1.13,0,0,1-.07-.39,1.06,1.06,0,0,1,.37-.83,1.12,1.12,0,0,1,1.58.08,1.13,1.13,0,0,1-.08,1.59,1.08,1.08,0,0,1-.75.28A1,1,0,0,1,48.65,47.83ZM49,46.08a.69.69,0,0,0-.46,1.21.63.63,0,0,0,.46.17.67.67,0,0,0,.52-.22.71.71,0,0,0,.17-.47.65.65,0,0,0-.23-.51A.63.63,0,0,0,49,46.08Z"/>
    <path class="cls-1" d="M52.13,46.74v4.9h-.78v-4.9Zm-.29,7.5A4,4,0,0,0,54.32,53,4.38,4.38,0,0,0,55,50.33V46.68h.77v3.75a4.52,4.52,0,0,1-1,3.19,4.9,4.9,0,0,1-2.57,1.22Z"/>
    <path class="cls-1" d="M59.25,48h4.69v.67H62A9.3,9.3,0,0,1,61.19,53,4.44,4.44,0,0,1,59,54.86l-.55-.49a5,5,0,0,0,1.66-1.07A3.78,3.78,0,0,0,61,51.58a13.33,13.33,0,0,0,.28-2.92H59.07a7.92,7.92,0,0,1-1.3,2.5l-.64-.35A8.64,8.64,0,0,0,58.8,46.4l.75.09Q59.43,47.27,59.25,48Z"/>
    <path class="cls-1" d="M64.3,50.33h5.44v.74H64.3Z"/>
    <path class="cls-1" d="M70.65,49.62,71,49a20.52,20.52,0,0,1,2.34,1l-.37.67A14.78,14.78,0,0,0,70.65,49.62Zm6.14-1.48.69.39a9.88,9.88,0,0,1-.82,2.26,6.64,6.64,0,0,1-1,1.59,7.16,7.16,0,0,1-4,2.14l-.42-.63a6.43,6.43,0,0,0,3.8-2A8.2,8.2,0,0,0,76.79,48.14Zm-5.24-.66.37-.59A14.53,14.53,0,0,1,74.2,48l-.4.66A12.75,12.75,0,0,0,71.55,47.48Z"/>
    <path class="cls-1" d="M82.24,51.06V49.15H78.79V48.5H83v6.13H78.74V54h3.5V51.7H78.93v-.64Z"/>
    <path class="cls-1" d="M84.77,47.31a17.6,17.6,0,0,1,2.35,1.49l-.5.66a15.2,15.2,0,0,0-2.3-1.56Zm5,.5.75.36a8.08,8.08,0,0,1-1.86,4.15,8,8,0,0,1-4,2.3l-.34-.68A6.8,6.8,0,0,0,89.81,47.81Z"/>
  </g>
  <g id="group1453-290">
    <g id="group1454-291">
      <g id="group1455-292">
        <g id="group1456-293">
          <g id="shape1457-294">
            <path id="path747" class="cls-1" d="M7.85,6.77a4.49,4.49,0,0,0-3,5.66c.66,2.56,3,4.22,5.27,3.67a4.49,4.49,0,0,0,3-5.66C12.57,7.77,10.16,6.11,7.85,6.77Z"/>
          </g>
        </g>
        <g id="group1458-296">
          <g id="shape1459-297">
            <path id="path755" class="cls-1" d="M12.78,16.79c-.43,0-.88.77-1.54,1.11s-1.31.88-3.17,0S6,16.23,4.43,16.23s-4,2.78-4,6.88H16a12.24,12.24,0,0,0-1.11-4.22C13.77,16.79,13.23,16.79,12.78,16.79Z"/>
          </g>
        </g>
      </g>
    </g>
    <g id="group1460-299">
      <g id="shape1461-300">
        <path id="path765" class="cls-6" d="M14.19,11.84H10.07a.71.71,0,0,0-.65.66v2.85a.73.73,0,0,0,.76.66h.76v5.15a1,1,0,0,0,1,1.09,1,1,0,0,0,1-1h.21v-.66c0-.22.33-.33.33-.33V20c-.33-.11-.54-.33-.54-.44v-.32L13.1,19a3.53,3.53,0,0,0,.33-.55,2.4,2.4,0,0,1-.33-.55c-.1-.11-.1-.33-.21-.44v-.22a2.52,2.52,0,0,1,.76-1.09h.54a.71.71,0,0,0,.65-.66v-3A.63.63,0,0,0,14.19,11.84ZM11.8,21.38c0,.22,0,.33-.21.33s-.22-.22-.22-.33V16.56c0-.22.11-.33.22-.33s.21.22.21.33Zm.33-7.78a.66.66,0,0,1,0-1.32.71.71,0,0,1,.65.66A.63.63,0,0,1,12.13,13.6Z"/>
      </g>
      <g id="shape1462-302">
        <path id="path770" class="cls-7" d="M11.57,21.68a.24.24,0,0,1-.22-.22v-5a.22.22,0,1,1,.44,0v5.1C11.79,21.68,11.68,21.68,11.57,21.68Z"/>
      </g>
      <g id="shape1463-304">
        <ellipse id="ellipse775" class="cls-7" cx="12.14" cy="12.93" rx="0.66" ry="0.67"/>
      </g>
    </g>
  </g>
  <g id="shape1464-348">
    <g id="text893" class="cls-2">
      <path class="cls-1" d="M49.54,105.23l-2,7h-1l-1.44-5.12a3.19,3.19,0,0,1-.11-.71h0a3.32,3.32,0,0,1-.13.7l-1.45,5.13h-1l-2-7h.9l1.49,5.38a3.78,3.78,0,0,1,.12.7h0a5,5,0,0,1,.15-.7l1.55-5.38h.79L47,110.64a4.92,4.92,0,0,1,.12.66h0a4.11,4.11,0,0,1,.13-.68l1.43-5.39Z"/>
      <path class="cls-1" d="M54.29,109.94H50.76a2,2,0,0,0,.45,1.29,1.57,1.57,0,0,0,1.19.45,2.46,2.46,0,0,0,1.55-.56v.75a2.9,2.9,0,0,1-1.75.48,2.09,2.09,0,0,1-1.66-.68,2.79,2.79,0,0,1-.61-1.91,2.72,2.72,0,0,1,.67-1.91,2.1,2.1,0,0,1,1.64-.73,1.9,1.9,0,0,1,1.52.63,2.65,2.65,0,0,1,.53,1.77Zm-.82-.68a1.62,1.62,0,0,0-.33-1.08,1.14,1.14,0,0,0-.92-.39,1.32,1.32,0,0,0-1,.41,1.91,1.91,0,0,0-.49,1.06Z"/>
      <path class="cls-1" d="M56.41,111.51h0v.73h-.8v-7.41h.8v3.28h0a1.9,1.9,0,0,1,1.73-1,1.84,1.84,0,0,1,1.51.67,2.8,2.8,0,0,1,.54,1.8,3.07,3.07,0,0,1-.61,2,2,2,0,0,1-1.67.75A1.65,1.65,0,0,1,56.41,111.51Zm0-2v.69a1.5,1.5,0,0,0,.41,1.06,1.43,1.43,0,0,0,2.16-.13,2.57,2.57,0,0,0,.41-1.55,2,2,0,0,0-.38-1.3,1.28,1.28,0,0,0-1.05-.48,1.4,1.4,0,0,0-1.12.49A1.75,1.75,0,0,0,56.39,109.5Z"/>
      <path class="cls-1" d="M64.1,104.79h6.51A7.1,7.1,0,0,1,70,107a5.16,5.16,0,0,1-1.21,1.51L68.2,108a4.21,4.21,0,0,0,1-1.26,3.49,3.49,0,0,0,.43-1.3H64.1Zm.3,7.23a3.93,3.93,0,0,0,1.79-1.51,5.24,5.24,0,0,0,.55-2.64v-1.59h.77v1.61a5.57,5.57,0,0,1-.8,3.2,5.06,5.06,0,0,1-1.83,1.5Z"/>
      <path class="cls-1" d="M77.21,105.63a9.44,9.44,0,0,1-1,4.24,6.41,6.41,0,0,1-3.66,2.79l-.42-.6a6.14,6.14,0,0,0,3.26-2.32,7.62,7.62,0,0,0,1-4.11H71.73V105h4.79a1,1,0,0,1-.07-.4,1.1,1.1,0,0,1,.36-.83,1.11,1.11,0,0,1,1.87.83,1.09,1.09,0,0,1-.36.84,1.13,1.13,0,0,1-.76.29A.84.84,0,0,1,77.21,105.63Zm.35-1.74a.66.66,0,0,0-.68.68.66.66,0,0,0,.22.52.65.65,0,0,0,.46.18.67.67,0,0,0,.52-.23.65.65,0,0,0,.17-.47.67.67,0,0,0-.22-.51A.65.65,0,0,0,77.56,103.89Z"/>
      <path class="cls-1" d="M80.69,104.55v4.9h-.77v-4.9Zm-.28,7.5a4,4,0,0,0,2.48-1.3,4.43,4.43,0,0,0,.64-2.62v-3.64h.77v3.75a4.47,4.47,0,0,1-1,3.18,5,5,0,0,1-2.56,1.23Z"/>
    </g>
  </g>
  <g id="group1492-350">
    <g id="group1493-351">
      <g id="group1494-352">
        <g id="group1495-353">
          <g id="shape1496-354">
            <path id="path907" class="cls-1" d="M10.33,288.82a4.49,4.49,0,0,0-3,5.66c.66,2.56,3,4.22,5.27,3.67a4.49,4.49,0,0,0,3-5.66C15.05,289.82,12.64,288.16,10.33,288.82Z"/>
          </g>
        </g>
        <g id="group1497-356">
          <g id="shape1498-357">
            <path id="path915" class="cls-1" d="M15.27,298.84c-.44,0-.88.77-1.54,1.11s-1.32.88-3.18,0-2.09-1.67-3.63-1.67-4.06,2.78-4.06,6.88H18.45a12.14,12.14,0,0,0-1.1-4.22C16.25,298.84,15.71,298.84,15.27,298.84Z"/>
          </g>
        </g>
      </g>
    </g>
    <g id="group1499-359">
      <g id="shape1500-360">
        <path id="path925" class="cls-6" d="M16.67,293.89H12.55a.71.71,0,0,0-.65.66v2.85a.73.73,0,0,0,.76.66h.76v5.15a1,1,0,0,0,1,1.09,1,1,0,0,0,1-1h.21v-.66c0-.22.33-.33.33-.33V302c-.33-.11-.54-.33-.54-.44v-.32l.21-.22a3.53,3.53,0,0,0,.33-.55,2.4,2.4,0,0,1-.33-.55c-.1-.11-.1-.33-.21-.44v-.22a2.52,2.52,0,0,1,.76-1.09h.54a.71.71,0,0,0,.65-.66v-3A.63.63,0,0,0,16.67,293.89Zm-2.39,9.54c0,.22,0,.33-.21.33s-.22-.22-.22-.33v-4.82c0-.22.11-.33.22-.33s.21.22.21.33Zm.33-7.78a.66.66,0,0,1,0-1.32.71.71,0,0,1,.65.66A.63.63,0,0,1,14.61,295.65Z"/>
      </g>
      <g id="shape1501-362">
        <path id="path930" class="cls-7" d="M14.05,303.73a.24.24,0,0,1-.22-.22v-5a.22.22,0,1,1,.44,0v5.1C14.27,303.73,14.16,303.73,14.05,303.73Z"/>
      </g>
      <g id="shape1502-364">
        <ellipse id="ellipse935" class="cls-7" cx="14.62" cy="294.98" rx="0.66" ry="0.67"/>
      </g>
    </g>
  </g>
  <g id="shape1683-366">
    <path id="path942" class="cls-8" d="M264.46,263.21l-15.91,11.42,6.08,18.48h19.66l6.08-18.48Z"/>
  </g>
  <g id="group1684-368">
    <g id="group1685-369">
      <g id="group1686-370">
        <g id="group1687-371">
          <g id="shape1688-372">
            <path id="path955" class="cls-1" d="M264.14,270.32a4.49,4.49,0,0,0-3,5.66c.66,2.56,3,4.22,5.27,3.67a4.49,4.49,0,0,0,3-5.66C268.86,271.32,266.45,269.66,264.14,270.32Z"/>
          </g>
        </g>
        <g id="group1689-374">
          <g id="shape1690-375">
            <path id="path963" class="cls-1" d="M269.07,280.34c-.44,0-.88.77-1.54,1.11s-1.32.88-3.18,0-2.09-1.67-3.63-1.67-4.06,2.78-4.06,6.88h15.59a12.14,12.14,0,0,0-1.1-4.22C270.05,280.34,269.51,280.34,269.07,280.34Z"/>
          </g>
        </g>
      </g>
    </g>
    <g id="group1691-377">
      <g id="shape1692-378">
        <path id="path973" class="cls-6" d="M270.48,275.4h-4.12a.71.71,0,0,0-.65.66v2.85a.73.73,0,0,0,.76.66h.76v5.15a1,1,0,0,0,1,1.09,1,1,0,0,0,1-1h.21v-.66c0-.22.33-.33.33-.33v-.33c-.33-.11-.54-.33-.54-.44v-.32l.21-.22a3.53,3.53,0,0,0,.33-.55,2.4,2.4,0,0,1-.33-.55c-.1-.11-.1-.33-.21-.44v-.22a2.52,2.52,0,0,1,.76-1.09h.54a.71.71,0,0,0,.65-.66v-3A.63.63,0,0,0,270.48,275.4Zm-2.39,9.54c0,.22,0,.33-.21.33s-.22-.22-.22-.33v-4.82c0-.22.11-.33.22-.33s.21.22.21.33Zm.33-7.78a.66.66,0,0,1,0-1.32.71.71,0,0,1,.65.66A.63.63,0,0,1,268.42,277.16Z"/>
      </g>
      <g id="shape1693-380">
        <path id="path978" class="cls-7" d="M267.86,285.23a.24.24,0,0,1-.22-.22v-5a.22.22,0,1,1,.44,0v5.1C268.08,285.23,268,285.23,267.86,285.23Z"/>
      </g>
      <g id="shape1694-382">
        <ellipse id="ellipse983" class="cls-7" cx="268.43" cy="276.48" rx="0.66" ry="0.67"/>
      </g>
    </g>
  </g>
  <line class="cls-9" x1="276.38" y1="296.73" x2="73.36" y2="296.73"/>
  <line class="cls-9" x1="386.63" y1="296.73" x2="307.18" y2="296.73"/>
  <g>
    <path class="cls-9" d="M77.1,154h75.16C167.5,154,179,164.68,179,183v73.78c0,18-1,40,37,40"/>
    <path class="cls-9" d="M77.1,224.92h75.16c15.24,0,26.74,10.66,26.74,29"/>
  </g>
  <g>
    <path class="cls-9" d="M77.1,439.45h75.16c15.24,0,26.74-10.66,26.74-29V336.69c0-18-1-39.95,37-39.95"/>
    <path class="cls-9" d="M83.32,368.55h70.57c14.31,0,25.11-10.65,25.11-29"/>
  </g>
  <g class="cls-2">
    <path class="cls-1" d="M36,177.29l.34-.6a21.86,21.86,0,0,1,2.35,1l-.38.67A14.16,14.16,0,0,0,36,177.29Zm6.13-1.48.7.39a10.64,10.64,0,0,1-.82,2.25,7.15,7.15,0,0,1-1,1.6,7.23,7.23,0,0,1-4,2.14l-.41-.63a6.52,6.52,0,0,0,3.8-2A8.3,8.3,0,0,0,42.17,175.81Zm-5.24-.66.38-.59a14.52,14.52,0,0,1,2.28,1.09l-.4.66A12.57,12.57,0,0,0,36.93,175.15Z"/>
    <path class="cls-1" d="M44.25,175a16.48,16.48,0,0,1,2.34,1.49l-.49.66a15,15,0,0,0-2.3-1.56Zm5,.5.75.36A8.17,8.17,0,0,1,48.18,180a7.9,7.9,0,0,1-4,2.31l-.34-.68A6.81,6.81,0,0,0,49.29,175.48Z"/>
    <path class="cls-1" d="M56.3,175.11a10.46,10.46,0,0,0-.6-1.38l.51-.2a13.08,13.08,0,0,1,.74,1.69l-.4.16.32.42A9.64,9.64,0,0,1,55,180.5a7.64,7.64,0,0,1-3,2.08l-.44-.54a6.85,6.85,0,0,0,3.2-2.37,8.91,8.91,0,0,0,1.41-3.9H53.26a9.42,9.42,0,0,1-1.84,2.88l-.57-.44A8.76,8.76,0,0,0,53,174.05l.79.12c-.07.26-.17.57-.29.94Zm.57-1.61.5-.18a8.35,8.35,0,0,1,.71,1.64l-.52.21A9.26,9.26,0,0,0,56.87,173.5Z"/>
    <path class="cls-1" d="M60.41,174.49c0,1.89,0,3.26-.1,4.1a7.66,7.66,0,0,1-.28,1.68,4.71,4.71,0,0,1-1.46,2.15L58,182a3.72,3.72,0,0,0,1.36-2,9.6,9.6,0,0,0,.25-2.06c0-.73,0-1.88,0-3.43Zm2.13,6.78a7.52,7.52,0,0,0,2.6-3.44l.51.67a9.15,9.15,0,0,1-3.44,3.92l-.43-.22v-7.78h.76Z"/>
    <path class="cls-1" d="M69.14,179.91q1.26-2.39,2.12-4.27a.7.7,0,0,1,.63-.5.85.85,0,0,1,.71.41l2,3,1.87,2.74-.66.52q-1.35-2-3.7-5.63a.17.17,0,0,0-.15-.1.19.19,0,0,0-.18.13q-.85,1.88-2,4.08Zm6.09-5.74a1.12,1.12,0,0,1,1.13,1.12,1.07,1.07,0,0,1-.38.83,1,1,0,0,1-.75.29,1.06,1.06,0,0,1-.83-.37,1.12,1.12,0,0,1,.08-1.58A1.12,1.12,0,0,1,75.23,174.17Zm0,.43a.64.64,0,0,0-.51.22.67.67,0,0,0-.18.47.68.68,0,0,0,.69.69.68.68,0,0,0,.7-.69.68.68,0,0,0-.23-.52A.7.7,0,0,0,75.23,174.6Z"/>
    <path class="cls-1" d="M76.8,178h5.44v.74H76.8Z"/>
    <path class="cls-1" d="M83.15,177.29l.35-.6a20.52,20.52,0,0,1,2.34,1l-.37.67A13.93,13.93,0,0,0,83.15,177.29Zm6.14-1.48.7.39a10.64,10.64,0,0,1-.82,2.25,7.15,7.15,0,0,1-1,1.6,7.23,7.23,0,0,1-4,2.14l-.41-.63a6.49,6.49,0,0,0,3.79-2A8.3,8.3,0,0,0,89.29,175.81Zm-5.24-.66.37-.59a13.68,13.68,0,0,1,2.28,1.09l-.4.66A12.1,12.1,0,0,0,84.05,175.15Zm4-1.32.52-.2a10.26,10.26,0,0,1,.73,1.69l-.53.22A8.78,8.78,0,0,0,88,173.83Zm1.17-.3.5-.18a8.31,8.31,0,0,1,.72,1.64l-.53.21A9.26,9.26,0,0,0,89.19,173.53Z"/>
    <path class="cls-1" d="M35.53,186.66H42a6.77,6.77,0,0,1-.61,2.21,5,5,0,0,1-1.2,1.51l-.59-.49a4.53,4.53,0,0,0,1-1.26,3.44,3.44,0,0,0,.43-1.3H35.53Zm.3,7.22a4,4,0,0,0,1.8-1.5,5.42,5.42,0,0,0,.55-2.65v-1.58h.76v1.6a5.52,5.52,0,0,1-.8,3.21,5,5,0,0,1-1.82,1.49Z"/>
    <path class="cls-1" d="M48.65,187.5a9.35,9.35,0,0,1-1,4.23A6.39,6.39,0,0,1,44,194.52l-.42-.6a6.11,6.11,0,0,0,3.25-2.32,7.49,7.49,0,0,0,1-4.1H43.16v-.67H48a1.13,1.13,0,0,1-.07-.39,1.06,1.06,0,0,1,.37-.83,1.08,1.08,0,0,1,.75-.29,1.06,1.06,0,0,1,.83.37,1.08,1.08,0,0,1,.29.75,1.06,1.06,0,0,1-.37.83,1,1,0,0,1-.75.29A1,1,0,0,1,48.65,187.5Zm.35-1.75a.67.67,0,0,0-.52.22.71.71,0,0,0-.17.47.68.68,0,0,0,.23.52.72.72,0,0,0,1-.05.71.71,0,0,0,.17-.47.65.65,0,0,0-.23-.51A.63.63,0,0,0,49,185.75Z"/>
    <path class="cls-1" d="M52.13,186.41v4.9h-.78v-4.9Zm-.29,7.5a4,4,0,0,0,2.48-1.3A4.33,4.33,0,0,0,55,190v-3.65h.77v3.75a4.51,4.51,0,0,1-1,3.18,4.83,4.83,0,0,1-2.57,1.23Z"/>
    <path class="cls-1" d="M59.25,187.66h4.69v.67H62a9.26,9.26,0,0,1-.81,4.37A4.4,4.4,0,0,1,59,194.53l-.55-.49A5.12,5.12,0,0,0,60.08,193a3.83,3.83,0,0,0,.87-1.72,13.4,13.4,0,0,0,.28-2.92H59.07a8,8,0,0,1-1.3,2.5l-.64-.35a8.67,8.67,0,0,0,1.67-4.41l.75.09Q59.43,186.94,59.25,187.66Z"/>
    <path class="cls-1" d="M64.3,190h5.44v.74H64.3Z"/>
    <path class="cls-1" d="M70.65,189.29l.35-.6a20.52,20.52,0,0,1,2.34,1l-.37.67A13.93,13.93,0,0,0,70.65,189.29Zm6.14-1.48.69.39a9.64,9.64,0,0,1-.82,2.25,6.52,6.52,0,0,1-1,1.6,7.16,7.16,0,0,1-4,2.14l-.42-.63a6.49,6.49,0,0,0,3.8-2A8.3,8.3,0,0,0,76.79,187.81Zm-5.24-.66.37-.59a13.68,13.68,0,0,1,2.28,1.09l-.4.66A12.1,12.1,0,0,0,71.55,187.15Z"/>
    <path class="cls-1" d="M82.24,190.73v-1.91H78.79v-.65H83v6.13H78.74v-.64h3.5v-2.29H78.93v-.64Z"/>
    <path class="cls-1" d="M84.77,187a16.64,16.64,0,0,1,2.35,1.49l-.5.66a14.5,14.5,0,0,0-2.3-1.56Zm5,.5.75.36A8,8,0,0,1,88.7,192a7.9,7.9,0,0,1-4,2.31l-.34-.68A6.8,6.8,0,0,0,89.81,187.48Z"/>
  </g>
  <g>
    <g id="group1113-2-4" data-name="group1113-2">
      <g id="shape1114-3-4" data-name="shape1114-3">
        <path id="path21-4" data-name="path21" class="cls-1" d="M70,233.73a11.81,11.81,0,0,1-16.84-2.29,12.56,12.56,0,0,1,2.24-17.29,11.82,11.82,0,0,1,16.84,2.3A12.54,12.54,0,0,1,70,233.73Zm3.66-18.41a13.57,13.57,0,0,0-19.36-2.63,14.43,14.43,0,0,0-2.55,19.87,13.62,13.62,0,0,0,11,5.55,13.45,13.45,0,0,0,8.39-2.92A14.44,14.44,0,0,0,73.69,215.32Z"/>
      </g>
    </g>
    <g id="group1115-5-4" data-name="group1115-5">
      <g id="group1116-6-4" data-name="group1116-6">
        <g id="group1117-7-4" data-name="group1117-7">
          <g id="shape1118-8-4" data-name="shape1118-8">
            <path id="path33-4" data-name="path33" class="cls-1" d="M56.06,226.52a17,17,0,0,1-2-2.35,18.28,18.28,0,0,0-1.66,6.88c.11.16.11.29.23.44a12.55,12.55,0,0,0,2,2A14.13,14.13,0,0,1,56.06,226.52Z"/>
          </g>
        </g>
        <g id="shape1119-10-4" data-name="shape1119-10">
          <path id="path39-4" data-name="path39" class="cls-1" d="M60.67,217.08a21,21,0,0,0-3.33,3,15.71,15.71,0,0,0-1.61,2.05,15.42,15.42,0,0,0,1.9,2.46,16.32,16.32,0,0,1,2.2-2.56A26.47,26.47,0,0,1,63,219.4C62.16,218.64,61.38,217.87,60.67,217.08Z"/>
        </g>
        <g id="group1120-12-4" data-name="group1120-12">
          <g id="shape1121-13-4" data-name="shape1121-13">
            <path id="path46-4" data-name="path46" class="cls-1" d="M72.15,216.28a12,12,0,0,0-1.73-1.82,12.53,12.53,0,0,0-8,1.53c.76.84,1.51,1.63,2.24,2.36C69,215.92,72.15,216.28,72.15,216.28Z"/>
          </g>
        </g>
        <g id="group1122-15-4" data-name="group1122-15">
          <g id="shape1123-16-4" data-name="shape1123-16">
            <path id="path54-4" data-name="path54" class="cls-1" d="M54.34,224.31a19.82,19.82,0,0,1,1.19-2.06,9.84,9.84,0,0,1-1.6-6.79,13.09,13.09,0,0,0-1.29,1.6C52.26,218.67,52.24,221.23,54.34,224.31Z"/>
          </g>
        </g>
        <g id="group1124-18-4" data-name="group1124-18">
          <g id="shape1125-19-4" data-name="shape1125-19">
            <path id="path62-4" data-name="path62" class="cls-1" d="M59.9,226.7a21.6,21.6,0,0,1-2.27-2.14,14.25,14.25,0,0,0-1.14,1.95,23.54,23.54,0,0,0,2.09,1.91,19.12,19.12,0,0,0,12.56,4.38,9,9,0,0,0,1.54-1.94C71.45,231.12,66.19,231.81,59.9,226.7Z"/>
          </g>
        </g>
        <g id="group1126-21-4" data-name="group1126-21">
          <g id="shape1127-22-4" data-name="shape1127-22">
            <path id="path70-4" data-name="path70" class="cls-1" d="M54.55,224.16a15.72,15.72,0,0,0,2,2.35,15.36,15.36,0,0,1,1.14-1.95,15.42,15.42,0,0,1-1.9-2.46A15.58,15.58,0,0,0,54.55,224.16Z"/>
          </g>
        </g>
        <g id="group1128-24-4" data-name="group1128-24">
          <g id="shape1129-25-4" data-name="shape1129-25">
            <path id="path78-4" data-name="path78" class="cls-1" d="M63,219.4a97,97,0,0,0,11.15,8.82,9.82,9.82,0,0,0,.33-1.05,95.51,95.51,0,0,1-9.83-8.82Q63.82,218.8,63,219.4Z"/>
          </g>
        </g>
        <g id="group1130-27-4" data-name="group1130-27">
          <g id="shape1131-28-4" data-name="shape1131-28">
            <path id="path86-4" data-name="path86" class="cls-1" d="M62.38,216q-1.65-1.77-3.36-3.8a10.05,10.05,0,0,0-1.59.66,26.3,26.3,0,0,0,3.24,4.22A17.22,17.22,0,0,1,62.38,216Z"/>
          </g>
        </g>
        <g id="shape1132-30-4" data-name="shape1132-30">
          <path id="path92-4" data-name="path92" class="cls-1" d="M62.45,216a18.74,18.74,0,0,0-1.87,1.19c.72.78,1.45,1.59,2.25,2.35.57-.4,1.34-.88,1.87-1.18C64,217.58,63.21,216.79,62.45,216Z"/>
        </g>
        <g id="shape1133-32-4" data-name="shape1133-32">
          <path id="path97-4" data-name="path97" class="cls-1" d="M62.25,215.85A16.24,16.24,0,0,0,60.58,217c.72.79,1.74,1.81,2.54,2.57.57-.4,1.05-.8,1.58-1.11C64,217.71,63,216.68,62.25,215.85Z"/>
        </g>
      </g>
      <g id="group1134-34-4" data-name="group1134-34">
        <g id="shape1135-35-4" data-name="shape1135-35">
          <path id="path105-4" data-name="path105" class="cls-1" d="M68.3,222.4a2.7,2.7,0,0,0-.48,3.7,2.56,2.56,0,0,0,3.63.51,2.72,2.72,0,0,0,.48-3.72A2.55,2.55,0,0,0,68.3,222.4Z"/>
        </g>
      </g>
      <g id="group1136-37-4" data-name="group1136-37">
        <g id="shape1137-38-4" data-name="shape1137-38">
          <path id="path113-4" data-name="path113" class="cls-1" d="M63.13,228.53a2.52,2.52,0,0,0-.45,3.44,2.37,2.37,0,0,0,3.36.45,2.49,2.49,0,0,0,.44-3.43A2.36,2.36,0,0,0,63.13,228.53Z"/>
        </g>
      </g>
      <g id="group1138-40-4" data-name="group1138-40">
        <g id="shape1139-41-4" data-name="shape1139-41">
          <path id="path121-4" data-name="path121" class="cls-1" d="M54,221.2a3.79,3.79,0,0,0-.68,5.21,3.58,3.58,0,0,0,5.1.7,3.8,3.8,0,0,0,.67-5.23A3.59,3.59,0,0,0,54,221.2Z"/>
        </g>
      </g>
    </g>
  </g>
</svg>
