<?xml version="1.0" encoding="utf-8"?>
<!-- Generator: Adobe Illustrator 23.0.3, SVG Export Plug-In . SVG Version: 6.00 Build 0)  -->
<svg version="1.1" xmlns="http://www.w3.org/2000/svg" xmlns:xlink="http://www.w3.org/1999/xlink" x="0px" y="0px"
	 viewBox="0 0 424 484" style="enable-background:new 0 0 424 484;" xml:space="preserve">
<style type="text/css">
	.st0{fill-rule:evenodd;clip-rule:evenodd;fill:#008BFD;}
	.st1{fill-rule:evenodd;clip-rule:evenodd;fill:#007EFD;}
	.st2{fill-rule:evenodd;clip-rule:evenodd;fill:#0078D7;}
	
		.st3{fill-rule:evenodd;clip-rule:evenodd;fill:#008BFD;stroke:#808080;stroke-width:0.75;stroke-linecap:round;stroke-linejoin:round;stroke-miterlimit:3;}
	.st4{fill-rule:evenodd;clip-rule:evenodd;fill:#FFFFFF;}
	
		.st5{fill-rule:evenodd;clip-rule:evenodd;fill:#FFFFFF;stroke:#000000;stroke-width:0.24;stroke-linecap:round;stroke-linejoin:round;stroke-miterlimit:3;}
	.st6{enable-background:new    ;}
	.st7{fill-rule:evenodd;clip-rule:evenodd;fill:none;}
	.st8{fill:#505050;}
	.st9{fill-rule:evenodd;clip-rule:evenodd;fill:#505050;}
</style>
<g id="shapes" xmlns:ev="http://www.w3.org/2001/xml-events" xmlns:v="http://schemas.microsoft.com/visio/2003/SVGExtensions/">
	<g id="group1073-1" transform="translate(47.1467,-315.611)">
		<g id="group1074-2">
			<g id="shape1075-3">
				<path class="st0" d="M22.9,479.6c-2.2,1.7-4.8,2.5-7.3,2.5c-3.6,0-7.2-1.7-9.6-4.8c-4-5.4-3-13.1,2.2-17.3
					c2.2-1.7,4.8-2.5,7.3-2.5c3.6,0,7.2,1.7,9.5,4.8C29.2,467.7,28.2,475.5,22.9,479.6z M26.5,461.2c-2.7-3.6-6.8-5.5-11-5.5
					c-2.9,0-5.9,0.9-8.4,2.9c-6,4.8-7.2,13.7-2.6,19.9c2.7,3.6,6.8,5.5,11,5.5c2.9,0,5.9-0.9,8.4-2.9
					C30,476.3,31.2,467.4,26.5,461.2z"/>
			</g>
		</g>
		<g id="group1076-5" transform="translate(4.95554,-4.39536)">
			<g id="group1077-6" transform="translate(0.341805,-0.176482)">
				<g id="group1078-7" transform="translate(0.437248,3.41061E-13)">
					<g id="shape1079-8">
						<path class="st0" d="M3.6,477c-0.8-0.8-1.4-1.6-2-2.4c-1.1,2.4-1.6,4.9-1.7,6.9c0.1,0.2,0.1,0.3,0.2,0.4c0.6,0.8,1.3,1.5,2,2
							C2.1,482.4,2.3,479.7,3.6,477z"/>
					</g>
				</g>
				<g id="shape1080-10" transform="translate(3.29213,-8.97695)">
					<path class="st0" d="M4.9,476.5c-1.1,0.8-2.2,1.8-3.3,3c-0.6,0.7-1.1,1.4-1.6,2.1c0.5,0.8,1.1,1.6,1.9,2.5
						c0.6-0.9,1.3-1.7,2.2-2.6c1.1-1.1,2.2-1.9,3.1-2.6C6.4,478.1,5.7,477.3,4.9,476.5z"/>
				</g>
				<g id="group1081-12" transform="translate(9.93516,-15.1958)">
					<g id="shape1082-13">
						<path class="st0" d="M9.8,481.9c-0.5-0.7-1.1-1.3-1.7-1.8c-1.9-0.3-4.7-0.3-8,1.5c0.8,0.8,1.5,1.6,2.2,2.4
							C6.6,481.6,9.8,481.9,9.8,481.9z"/>
					</g>
				</g>
				<g id="group1083-15" transform="translate(1.10162E-13,-9.38012)">
					<g id="shape1084-16">
						<path class="st0" d="M2.1,484c0.3-0.7,0.7-1.4,1.2-2.1c-1.9-3.1-1.8-5.6-1.6-6.8c-0.5,0.5-0.9,1-1.3,1.6
							C0,478.4,0,480.9,2.1,484z"/>
					</g>
				</g>
				<g id="group1085-18" transform="translate(4.05148,-0.740211)">
					<g id="shape1086-19">
						<path class="st0" d="M3.4,477.9c-0.9-0.7-1.6-1.4-2.3-2.1c-0.5,0.7-0.8,1.3-1.1,1.9c0.6,0.6,1.3,1.3,2.1,1.9
							c4.9,4,9.8,4.4,12.6,4.4c0.2,0,1-1.2,1.5-1.9C15,482.3,9.7,483,3.4,477.9z"/>
					</g>
				</g>
				<g id="group1087-21" transform="translate(2.10339,-7.03041)">
					<g id="shape1088-22">
						<path class="st0" d="M0,481.6c0.5,0.8,1.1,1.5,2,2.4c0.3-0.6,0.7-1.3,1.1-2c-0.8-0.8-1.4-1.7-1.9-2.5
							C0.7,480.3,0.3,481,0,481.6z"/>
					</g>
				</g>
				<g id="group1089-24" transform="translate(10.5195,-5.3233)">
					<g id="shape1090-25">
						<path class="st0" d="M0,475.2c4.5,4.3,9.8,7.9,11.1,8.8c0.1-0.4,0.2-0.7,0.3-1c-1.4-1.1-5.3-4.2-9.8-8.8
							C1.1,474.4,0.6,474.8,0,475.2z"/>
					</g>
				</g>
				<g id="group1091-27" transform="translate(4.98729,-16.4714)">
					<g id="shape1092-28">
						<path class="st0" d="M4.9,482.9c-1.1-1.2-2.2-2.5-3.4-3.8c-0.6,0.2-1.1,0.4-1.6,0.7c0.8,1.4,2,2.8,3.2,4.2
							C3.8,483.6,4.4,483.2,4.9,482.9z"/>
					</g>
				</g>
				<g id="shape1093-30" transform="translate(8.13763,-14.0503)">
					<path class="st0" d="M1.9,480.5c-0.6,0.3-1.3,0.8-1.9,1.2c0.7,0.8,1.5,1.6,2.3,2.4c0.6-0.4,1.3-0.9,1.9-1.2
						C3.4,482.1,2.6,481.3,1.9,480.5z"/>
				</g>
				<g id="shape1094-32" transform="translate(8.1369,-14.0039)">
					<path class="st0" d="M1.7,480.3c-0.6,0.3-1.1,0.7-1.7,1.1c0.7,0.8,1.7,1.8,2.5,2.6c0.6-0.4,1-0.8,1.6-1.1
						C3.4,482.2,2.4,481.1,1.7,480.3z"/>
				</g>
			</g>
			<g id="group1095-34" transform="translate(14.8617,-6.23662)">
				<g id="shape1096-35">
					<path class="st0" d="M1.3,478.9c-1.1,0.9-1.3,2.5-0.5,3.7c0.9,1.2,2.5,1.4,3.6,0.5c1.1-0.9,1.3-2.5,0.5-3.7
						C4.1,478.3,2.5,478,1.3,478.9z"/>
				</g>
			</g>
			<g id="group1097-37" transform="translate(9.65099,-1.7053E-13)">
				<g id="shape1098-38">
					<path class="st0" d="M1.2,479.3c-1,0.8-1.2,2.4-0.4,3.4c0.8,1.1,2.3,1.3,3.4,0.4c1-0.8,1.2-2.4,0.4-3.4S2.3,478.5,1.2,479.3z"
						/>
				</g>
			</g>
			<g id="group1099-40" transform="translate(0,-5.36433)">
				<g id="shape1100-41">
					<path class="st0" d="M1.9,476.8c-1.6,1.3-1.9,3.6-0.7,5.2c1.2,1.6,3.5,2,5.1,0.7s1.9-3.6,0.7-5.2
						C5.8,475.9,3.5,475.6,1.9,476.8z"/>
				</g>
			</g>
		</g>
	</g>
	<g id="group1101-46" transform="translate(47.1467,-245.807)">
		<g id="group1102-47">
			<g id="shape1103-48">
				<path class="st0" d="M22.9,479.6c-2.2,1.7-4.8,2.5-7.3,2.5c-3.6,0-7.2-1.7-9.6-4.8c-4-5.4-3-13.1,2.2-17.3
					c2.2-1.7,4.8-2.5,7.3-2.5c3.6,0,7.2,1.7,9.5,4.8C29.2,467.7,28.2,475.5,22.9,479.6z M26.5,461.2c-2.7-3.6-6.8-5.5-11-5.5
					c-2.9,0-5.9,0.9-8.4,2.9c-6,4.8-7.2,13.7-2.6,19.9c2.7,3.6,6.8,5.5,11,5.5c2.9,0,5.9-0.9,8.4-2.9
					C30,476.3,31.2,467.4,26.5,461.2z"/>
			</g>
		</g>
		<g id="group1104-50" transform="translate(4.95554,-4.39536)">
			<g id="group1105-51" transform="translate(0.341805,-0.176482)">
				<g id="group1106-52" transform="translate(0.437248,3.41061E-13)">
					<g id="shape1107-53">
						<path class="st0" d="M3.6,477c-0.8-0.8-1.4-1.6-2-2.4c-1.1,2.4-1.6,4.9-1.7,6.9c0.1,0.2,0.1,0.3,0.2,0.4c0.6,0.8,1.3,1.5,2,2
							C2.1,482.4,2.3,479.7,3.6,477z"/>
					</g>
				</g>
				<g id="shape1108-55" transform="translate(3.29213,-8.97695)">
					<path class="st0" d="M4.9,476.5c-1.1,0.8-2.2,1.8-3.3,3c-0.6,0.7-1.1,1.4-1.6,2.1c0.5,0.8,1.1,1.6,1.9,2.5
						c0.6-0.9,1.3-1.7,2.2-2.6c1.1-1.1,2.2-1.9,3.1-2.6C6.4,478.1,5.7,477.3,4.9,476.5z"/>
				</g>
				<g id="group1109-57" transform="translate(9.93516,-15.1958)">
					<g id="shape1110-58">
						<path class="st0" d="M9.8,481.9c-0.5-0.7-1.1-1.3-1.7-1.8c-1.9-0.3-4.7-0.3-8,1.5c0.8,0.8,1.5,1.6,2.2,2.4
							C6.6,481.6,9.8,481.9,9.8,481.9z"/>
					</g>
				</g>
				<g id="group1111-60" transform="translate(1.10162E-13,-9.38012)">
					<g id="shape1112-61">
						<path class="st0" d="M2.1,484c0.3-0.7,0.7-1.4,1.2-2.1c-1.9-3.1-1.8-5.6-1.6-6.8c-0.5,0.5-0.9,1-1.3,1.6
							C0,478.4,0,480.9,2.1,484z"/>
					</g>
				</g>
				<g id="group1113-63" transform="translate(4.05148,-0.740211)">
					<g id="shape1114-64">
						<path class="st0" d="M3.4,477.9c-0.9-0.7-1.6-1.4-2.3-2.1c-0.5,0.7-0.8,1.3-1.1,1.9c0.6,0.6,1.3,1.3,2.1,1.9
							c4.9,4,9.8,4.4,12.6,4.4c0.2,0,1-1.2,1.5-1.9C15,482.3,9.7,483,3.4,477.9z"/>
					</g>
				</g>
				<g id="group1115-66" transform="translate(2.10339,-7.03041)">
					<g id="shape1116-67">
						<path class="st0" d="M0,481.6c0.5,0.8,1.1,1.5,2,2.4c0.3-0.6,0.7-1.3,1.1-2c-0.8-0.8-1.4-1.7-1.9-2.5
							C0.7,480.3,0.3,481,0,481.6z"/>
					</g>
				</g>
				<g id="group1117-69" transform="translate(10.5195,-5.3233)">
					<g id="shape1118-70">
						<path class="st0" d="M0,475.2c4.5,4.3,9.8,7.9,11.1,8.8c0.1-0.4,0.2-0.7,0.3-1c-1.4-1.1-5.3-4.2-9.8-8.8
							C1.1,474.4,0.6,474.8,0,475.2z"/>
					</g>
				</g>
				<g id="group1119-72" transform="translate(4.98729,-16.4714)">
					<g id="shape1120-73">
						<path class="st0" d="M4.9,482.9c-1.1-1.2-2.2-2.5-3.4-3.8c-0.6,0.2-1.1,0.4-1.6,0.7c0.8,1.4,2,2.8,3.2,4.2
							C3.8,483.6,4.4,483.2,4.9,482.9z"/>
					</g>
				</g>
				<g id="shape1121-75" transform="translate(8.13763,-14.0503)">
					<path class="st0" d="M1.9,480.5c-0.6,0.3-1.3,0.8-1.9,1.2c0.7,0.8,1.5,1.6,2.3,2.4c0.6-0.4,1.3-0.9,1.9-1.2
						C3.4,482.1,2.6,481.3,1.9,480.5z"/>
				</g>
				<g id="shape1122-77" transform="translate(8.1369,-14.0039)">
					<path class="st0" d="M1.7,480.3c-0.6,0.3-1.1,0.7-1.7,1.1c0.7,0.8,1.7,1.8,2.5,2.6c0.6-0.4,1-0.8,1.6-1.1
						C3.4,482.2,2.4,481.1,1.7,480.3z"/>
				</g>
			</g>
			<g id="group1123-79" transform="translate(14.8617,-6.23662)">
				<g id="shape1124-80">
					<path class="st0" d="M1.3,478.9c-1.1,0.9-1.3,2.5-0.5,3.7c0.9,1.2,2.5,1.4,3.6,0.5c1.1-0.9,1.3-2.5,0.5-3.7
						C4.1,478.3,2.5,478,1.3,478.9z"/>
				</g>
			</g>
			<g id="group1125-82" transform="translate(9.65099,-1.7053E-13)">
				<g id="shape1126-83">
					<path class="st0" d="M1.2,479.3c-1,0.8-1.2,2.4-0.4,3.4c0.8,1.1,2.3,1.3,3.4,0.4c1-0.8,1.2-2.4,0.4-3.4S2.3,478.5,1.2,479.3z"
						/>
				</g>
			</g>
			<g id="group1127-85" transform="translate(0,-5.36433)">
				<g id="shape1128-86">
					<path class="st0" d="M1.9,476.8c-1.6,1.3-1.9,3.6-0.7,5.2c1.2,1.6,3.5,2,5.1,0.7s1.9-3.6,0.7-5.2
						C5.8,475.9,3.5,475.6,1.9,476.8z"/>
				</g>
			</g>
		</g>
	</g>
	<g id="shape1129-90" transform="translate(283.84,-174.516)">
		<path class="st0" d="M21.6,458.5H1.1c-0.6,0-1.1,0.5-1.1,1.1v16.7c0,0.6,0.5,1.1,1.1,1.1h5.3c0.4,1.4,1.7,2.3,3.2,2.3
			c1.8,0,3.3-1.5,3.3-3.4s-1.5-3.4-3.3-3.4c-1.5,0-2.8,0.9-3.2,2.3H2.2v-12h18.3v12H17c-0.5-3.7-3.7-6.6-7.5-6.6
			c-1.3,0-2.5,0.4-3.6,0.9l1,2c0.7-0.4,1.7-0.7,2.6-0.7c2.9,0,5.4,2.4,5.4,5.5c0,3-2.4,5.5-5.4,5.5c-0.9,0-1.8-0.3-2.6-0.7l-1,2
			c1.1,0.6,2.4,0.9,3.6,0.9c3.8,0,7-2.9,7.5-6.6h4.5c0.6,0,1.1-0.5,1.1-1.1v-16.7C22.7,459,22.2,458.5,21.6,458.5z"/>
	</g>
	<g id="group1130-93" transform="translate(52.8159,-32.0037)">
		<g id="group1131-94">
			<g id="shape1136-99" transform="translate(0.750347,-0.801256)">
				<path class="st1" d="M23.6,460h-6.1c-0.2,0-0.4,0.1-0.4,0.5v2.2c0,0.2,0.1,0.4,0.4,0.4H21v3.4c0,0.2,0.1,0.4,0.4,0.4h2.2
					c0.2,0,0.4-0.1,0.4-0.4v-6C24,460.1,23.9,460,23.6,460z M6.4,481H3v-3.4c0-0.2-0.2-0.4-0.5-0.4H0.4c-0.2,0-0.4,0.1-0.4,0.4v6
					c0,0.2,0.2,0.4,0.4,0.4h6.1c0.2,0,0.4-0.1,0.4-0.5v-2.2C6.8,481.1,6.7,481,6.4,481z M20,477.3c-0.2,0-0.3,0-0.5,0.1l-2.3-4.1
					c0.5-0.5,0.9-1.2,0.9-2c0-1.5-1.3-2.8-2.8-2.8c-0.4,0-0.8,0.1-1.1,0.2l-2.5-3.5c0.4-0.4,0.5-0.9,0.5-1.5c0-1.3-1.1-2.3-2.3-2.3
					s-2.3,1.1-2.3,2.3s1,2.3,2.3,2.3c0.3,0,0.5-0.1,0.8-0.1l2.5,3.5c-0.3,0.4-0.6,0.8-0.7,1.4l-7.2,0.6c-0.3-0.6-0.9-1-1.6-1
					c-1,0-1.9,0.8-1.9,1.9c0,1.1,0.8,1.9,1.9,1.9c0.9,0,1.7-0.7,1.9-1.6l7.1-0.6c0.2,0.5,0.4,0.8,0.7,1.2l-1.8,2.9h-0.2
					c-1.1,0-1.9,0.8-1.9,1.9c0,1.1,0.8,1.9,1.9,1.9c1.1,0,1.9-0.8,1.9-1.9c0-0.5-0.2-1-0.5-1.4l1.7-2.9c0.3,0.1,0.6,0.1,1,0.1
					c0.3,0,0.5-0.1,0.8-0.1l2.3,4.1c-0.4,0.4-0.7,1-0.7,1.6c0,1.2,1,2.2,2.2,2.2c1.2,0,2.2-1,2.2-2.2
					C22.1,478.4,21.2,477.3,20,477.3z"/>
			</g>
		</g>
	</g>
	<g id="group1137-104" transform="translate(52.8159,-170.335)">
		<g id="shape1138-105">
			<path class="st0" d="M18.4,450L18.4,450l-16.9,0l0,0C0,450,0,450.4,0,452.2v29.5c0,1.8,0,2.2,1.5,2.2c0,0,0.4,0,0.5,0h15.8
				c0.1,0,0.5,0,0.5,0c1.5,0,1.5-0.4,1.5-2.2v-29.5C19.8,450.4,19.8,450,18.4,450z M7.6,451.1h4.7c0.1,0,0.1,0.1,0.1,0.2
				c0,0.1-0.1,0.2-0.1,0.2H7.6c-0.1,0-0.2-0.1-0.2-0.2C7.4,451.2,7.5,451.1,7.6,451.1z M7.7,482.2H6.6c-0.2,0-0.3-0.1-0.3-0.3
				c0-0.2,0.2-0.3,0.3-0.3h1.1c0.2,0,0.4,0.1,0.4,0.3C8.1,482.2,7.9,482.2,7.7,482.2z M10.7,482.4H9.1c-0.3,0-0.5-0.1-0.5-0.4
				c0-0.3,0.2-0.4,0.5-0.4l1.6,0c0.3,0,0.5,0.1,0.5,0.4C11.2,482.3,11,482.4,10.7,482.4z M13.3,482.2h-1.1c-0.2,0-0.3-0.1-0.3-0.3
				s0.2-0.3,0.3-0.3h1.1c0.2,0,0.3,0.1,0.3,0.3S13.5,482.2,13.3,482.2z M18.4,478.8c0,1.6-0.1,1.9-1.6,1.9H9.2H3
				c-1.4,0-1.6-0.4-1.6-1.9v-24.6c0-1.6,0.2-1.6,1.7-1.6h6h7.5c1.6,0,1.8,0,1.8,1.6L18.4,478.8z"/>
		</g>
		<g id="shape1139-107" transform="translate(2.39497,-4.40465)">
			<path class="st0" d="M15.1,459.6c0-1.6-0.2-1.6-1.7-1.6H1.7c-1.5,0-1.7,0-1.7,1.6v22.5c0,1.6,0.2,1.9,1.7,1.9h11.6
				c1.5,0,1.7-0.3,1.7-1.9V459.6z M7.1,476.3l-4.8-2.8v-5.7l4.8,2.8V476.3z M2.8,467l4.8-2.8l4.8,2.8l-4.8,2.8L2.8,467z M12.7,473.4
				L8,476.3v-5.6l4.8-2.8V473.4z"/>
		</g>
	</g>
	<g id="group1141-118" transform="translate(52.8159,-98.9722)">
		<g id="shape1142-119">
			<path class="st2" d="M15,483.2H0.8v-28.4H15v7.7h0.8v-8.4H0V484h15.7v-2.3H15V483.2z"/>
		</g>
		<g id="shape1143-121" transform="translate(1.5606,-23.7593)">
			<path class="st2" d="M12.6,479.4H0v4.6h12.6V479.4z M3.1,481.3h6.5v0.8H3.1V481.3z M9.6,483.2L9.6,483.2H3.1H3v-0.8h0.1h6.4h0.1
				V483.2z"/>
		</g>
		<g id="shape1144-123" transform="translate(1.52875,-19.9374)">
			<path class="st2" d="M0,481v3h8.6v-1.5h4.1V481H0z"/>
		</g>
		<g id="shape1145-125" transform="translate(1.52875,-16.4978)">
			<rect x="0" y="481.3" class="st2" width="8.6" height="2.7"/>
		</g>
		<g id="shape1146-127" transform="translate(1.4969,-1.52875)">
			<path class="st2" d="M0,484h12.7v-0.8H8.6v-13.4H0L0,484L0,484z M1.6,481.3h2.3v1.2H1.6V481.3z"/>
		</g>
		<g id="shape1147-129" transform="translate(16.02,-3.43969)">
			<path class="st2" d="M8.7,482.9H6.3V481H3.8v1.9H1.3c-0.7,0-1.3,0.6-1.3,1.1h10C10.1,483.4,9.4,482.9,8.7,482.9z"/>
		</g>
		<g id="shape1148-131" transform="translate(11.816,-7.22971)">
			<path class="st2" d="M17.8,472.7H0.7c-0.4,0-0.7,0.3-0.7,0.6v10.1c0,0.3,0.3,0.6,0.7,0.6h17.1c0.4,0,0.7-0.3,0.7-0.6v-10.1
				C18.4,472.9,18.1,472.7,17.8,472.7z M16.8,482.5H1.7v-8.3h15.1V482.5z"/>
		</g>
		<g id="shape1149-133" transform="translate(17.931,-9.36359)">
			<path class="st2" d="M7,482.2v-3.4l-3.5-1.9L0,478.6v3.5l3.5,1.8L7,482.2z M2.6,479.9l0.9-0.4l0.9,0.4l-0.9,0.5L2.6,479.9z
				 M2.6,478.7l0.9-0.5l0.9,0.5l-0.9,0.5L2.6,478.7z M4.5,483.2l-1,0.5v-0.9l1-0.5V483.2z M4.5,482.1l-1,0.5v-0.9l1-0.5V482.1z
				 M4.5,481l-1,0.5v-0.9l1-0.5V481z M3.7,479.3l0.9-0.5l0.9,0.5l-0.9,0.4L3.7,479.3z M5.7,482.6l-0.9,0.5v-0.9l0.9-0.5V482.6z
				 M5.7,481.5L4.8,482V481l0.9-0.5V481.5z M5.7,480.3l-0.9,0.5v-0.9l0.9-0.5V480.3z M6.8,482.1l-0.9,0.5v-0.9l0.9-0.4V482.1z
				 M6.8,480.9l-0.9,0.4v-0.9l0.9-0.5V480.9z M6.8,479.8l-0.9,0.4v-0.9l0.9-0.5V479.8z M6.6,478.7l-0.9,0.4l-0.9-0.4l0.9-0.5
				L6.6,478.7z M5.5,478.1l-0.9,0.4l-0.9-0.4l0.9-0.4L5.5,478.1z M3.5,477.1l0.9,0.5L3.5,478l-0.9-0.4L3.5,477.1z M2.4,477.7
				l0.9,0.4l-0.9,0.4l-0.9-0.4L2.4,477.7z M1.3,478.3l0.9,0.5l-0.9,0.4l-0.9-0.4L1.3,478.3z M1,482.5l-0.9-0.5v-0.9l0.9,0.4V482.5z
				 M1,481.4l-0.9-0.4V480l0.9,0.5V481.4z M1,480.2l-0.9-0.4v-0.9l0.9,0.4V480.2z M2.2,483.1l-1-0.5v-0.9l1,0.5V483.1z M2.2,482
				l-1-0.5v-0.9l1,0.5V482z M2.2,480.8l-1-0.5v-0.9l1,0.5V480.8z M1.5,479.3l0.9-0.5l0.9,0.5l-0.9,0.5L1.5,479.3z M3.4,483.8l-1-0.5
				v-0.9l1,0.5V483.8z M3.4,482.6l-1-0.5v-0.9l1,0.5V482.6z M3.4,481.5l-1-0.5V480l1,0.5V481.5z"/>
		</g>
	</g>
	<g id="group1150-137" transform="translate(0.375,-315.611)">
		<g id="group1151-138">
			<g id="group1152-139">
				<g id="group1153-140" transform="translate(3.8518,-6.4617)">
					<g id="shape1154-141">
						<path class="st0" d="M3.6,474.1c-2.3,0.6-3.6,3.1-3,5.7c0.7,2.6,3,4.2,5.3,3.7c2.3-0.6,3.6-3.1,3-5.7
							C8.3,475.1,5.9,473.5,3.6,474.1z"/>
					</g>
				</g>
				<g id="group1155-143">
					<g id="shape1156-144">
						<path class="st0" d="M12.4,477.7c-0.4,0-0.9,0.8-1.5,1.1c-0.7,0.3-1.3,0.9-3.2,0c-1.9-0.9-2.1-1.7-3.6-1.7
							c-1.5,0-4.1,2.8-4.1,6.9h15.6c0,0-0.2-2.8-1.1-4.2C13.4,477.7,12.9,477.7,12.4,477.7z"/>
					</g>
				</g>
			</g>
		</g>
		<g id="group1157-146" transform="translate(9.0485,-0.85947)">
			<g id="shape1158-147">
				<path class="st3" d="M4.8,473.6H0.7c-0.3,0-0.6,0.3-0.6,0.7v2.9c0,0.3,0.3,0.7,0.8,0.7h0.8v5.1c0,0.6,0.4,1.1,1,1.1s1-0.4,1-1
					c0.1,0,0.2,0,0.2,0s0-0.5,0-0.7c0-0.2,0.3-0.3,0.3-0.3v-0.3c-0.3-0.1-0.5-0.3-0.5-0.4v-0.3c0.1-0.1,0.2-0.2,0.2-0.2
					c0.1-0.1,0.3-0.5,0.3-0.5s-0.3-0.4-0.3-0.6c-0.1-0.1-0.1-0.3-0.2-0.4V479c0.1-0.5,0.8-1.1,0.8-1.1h0.5c0.3,0,0.7-0.3,0.7-0.7v-3
					C5.4,473.9,5.2,473.6,4.8,473.6z M2.4,483.1c0,0.2,0,0.3-0.2,0.3c-0.2,0-0.2-0.2-0.2-0.3v-4.8c0-0.2,0.1-0.3,0.2-0.3
					c0.2,0,0.2,0.2,0.2,0.3V483.1z M2.7,475.4c-0.3,0-0.7-0.3-0.7-0.7c0-0.3,0.3-0.7,0.7-0.7c0.3,0,0.6,0.3,0.6,0.7
					C3.4,475,3.1,475.4,2.7,475.4z"/>
			</g>
			<g id="shape1159-149" transform="translate(1.92482,-0.570755)">
				<path class="st4" d="M0.2,484c-0.1,0-0.2-0.1-0.2-0.2v-5c0-0.1,0.1-0.2,0.2-0.2s0.2,0.1,0.2,0.2v5.1C0.4,484,0.3,484,0.2,484z"
					/>
			</g>
			<g id="shape1160-151" transform="translate(2.05993,-8.66317)">
				<ellipse class="st4" cx="0.7" cy="483.3" rx="0.7" ry="0.7"/>
			</g>
		</g>
	</g>
	<g id="shape1174-173" transform="translate(391.556,-174.516)">
		<path class="st0" d="M21.6,458.5H1.1c-0.6,0-1.1,0.5-1.1,1.1v16.7c0,0.6,0.5,1.1,1.1,1.1h5.3c0.4,1.4,1.7,2.3,3.2,2.3
			c1.8,0,3.3-1.5,3.3-3.4s-1.5-3.4-3.3-3.4c-1.5,0-2.8,0.9-3.2,2.3H2.2v-12h18.3v12H17c-0.5-3.7-3.7-6.6-7.5-6.6
			c-1.3,0-2.6,0.4-3.6,0.9l1,2c0.7-0.4,1.7-0.7,2.6-0.7c2.9,0,5.4,2.4,5.4,5.5c0,3-2.4,5.5-5.4,5.5c-0.9,0-1.8-0.3-2.6-0.7l-1,2
			c1.1,0.6,2.4,0.9,3.6,0.9c3.8,0,7-2.9,7.5-6.6h4.5c0.6,0,1.1-0.5,1.1-1.1v-16.7C22.7,459,22.2,458.5,21.6,458.5z"/>
	</g>
	<g id="group1176-181" transform="translate(2.85532,-251.477)">
		<g id="group1177-182">
			<g id="group1178-183">
				<g id="group1179-184" transform="translate(3.8518,-6.4617)">
					<g id="shape1180-185">
						<path class="st0" d="M3.6,474.1c-2.3,0.6-3.6,3.1-3,5.7c0.7,2.6,3,4.2,5.3,3.7c2.3-0.6,3.6-3.1,3-5.7
							C8.3,475.1,5.9,473.5,3.6,474.1z"/>
					</g>
				</g>
				<g id="group1181-187">
					<g id="shape1182-188">
						<path class="st0" d="M12.4,477.7c-0.4,0-0.9,0.8-1.5,1.1c-0.7,0.3-1.3,0.9-3.2,0c-1.9-0.9-2.1-1.7-3.6-1.7
							c-1.5,0-4.1,2.8-4.1,6.9h15.6c0,0-0.2-2.8-1.1-4.2C13.4,477.7,12.9,477.7,12.4,477.7z"/>
					</g>
				</g>
			</g>
		</g>
		<g id="group1183-190" transform="translate(9.0485,-0.85947)">
			<g id="shape1184-191">
				<path class="st3" d="M4.8,473.6H0.7c-0.3,0-0.6,0.3-0.6,0.7v2.9c0,0.3,0.3,0.7,0.8,0.7h0.8v5.1c0,0.6,0.4,1.1,1,1.1s1-0.4,1-1
					c0.1,0,0.2,0,0.2,0s0-0.5,0-0.7c0-0.2,0.3-0.3,0.3-0.3v-0.3c-0.3-0.1-0.5-0.3-0.5-0.4v-0.3c0.1-0.1,0.2-0.2,0.2-0.2
					c0.1-0.1,0.3-0.5,0.3-0.5s-0.3-0.4-0.3-0.6c-0.1-0.1-0.1-0.3-0.2-0.4V479c0.1-0.5,0.8-1.1,0.8-1.1h0.5c0.3,0,0.7-0.3,0.7-0.7v-3
					C5.4,473.9,5.2,473.6,4.8,473.6z M2.4,483.1c0,0.2,0,0.3-0.2,0.3c-0.2,0-0.2-0.2-0.2-0.3v-4.8c0-0.2,0.1-0.3,0.2-0.3
					c0.2,0,0.2,0.2,0.2,0.3V483.1z M2.7,475.4c-0.3,0-0.7-0.3-0.7-0.7c0-0.3,0.3-0.7,0.7-0.7c0.3,0,0.6,0.3,0.6,0.7
					C3.4,475,3.1,475.4,2.7,475.4z"/>
			</g>
			<g id="shape1185-193" transform="translate(1.92482,-0.570755)">
				<path class="st4" d="M0.2,484c-0.1,0-0.2-0.1-0.2-0.2v-5c0-0.1,0.1-0.2,0.2-0.2s0.2,0.1,0.2,0.2v5.1C0.4,484,0.3,484,0.2,484z"
					/>
			</g>
			<g id="shape1186-195" transform="translate(2.05993,-8.66317)">
				<ellipse class="st4" cx="0.7" cy="483.3" rx="0.7" ry="0.7"/>
			</g>
		</g>
	</g>
	<g id="group1187-197" transform="translate(0.375,-391.083)">
		<g id="group1188-198">
			<g id="group1189-199">
				<g id="group1190-200" transform="translate(3.8518,-6.4617)">
					<g id="shape1191-201">
						<path class="st0" d="M3.6,474.1c-2.3,0.6-3.6,3.1-3,5.7c0.7,2.6,3,4.2,5.3,3.7c2.3-0.6,3.6-3.1,3-5.7
							C8.3,475.1,5.9,473.5,3.6,474.1z"/>
					</g>
				</g>
				<g id="group1192-203">
					<g id="shape1193-204">
						<path class="st0" d="M12.4,477.7c-0.4,0-0.9,0.8-1.5,1.1c-0.7,0.3-1.3,0.9-3.2,0c-1.9-0.9-2.1-1.7-3.6-1.7
							c-1.5,0-4.1,2.8-4.1,6.9h15.6c0,0-0.2-2.8-1.1-4.2C13.4,477.7,12.9,477.7,12.4,477.7z"/>
					</g>
				</g>
			</g>
		</g>
		<g id="group1194-206" transform="translate(9.0485,-0.85947)">
			<g id="shape1195-207">
				<path class="st3" d="M4.8,473.6H0.7c-0.3,0-0.6,0.3-0.6,0.7v2.9c0,0.3,0.3,0.7,0.8,0.7h0.8v5.1c0,0.6,0.4,1.1,1,1.1s1-0.4,1-1
					c0.1,0,0.2,0,0.2,0s0-0.5,0-0.7c0-0.2,0.3-0.3,0.3-0.3v-0.3c-0.3-0.1-0.5-0.3-0.5-0.4v-0.3c0.1-0.1,0.2-0.2,0.2-0.2
					c0.1-0.1,0.3-0.5,0.3-0.5s-0.3-0.4-0.3-0.6c-0.1-0.1-0.1-0.3-0.2-0.4V479c0.1-0.5,0.8-1.1,0.8-1.1h0.5c0.3,0,0.7-0.3,0.7-0.7v-3
					C5.4,473.9,5.2,473.6,4.8,473.6z M2.4,483.1c0,0.2,0,0.3-0.2,0.3c-0.2,0-0.2-0.2-0.2-0.3v-4.8c0-0.2,0.1-0.3,0.2-0.3
					c0.2,0,0.2,0.2,0.2,0.3V483.1z M2.7,475.4c-0.3,0-0.7-0.3-0.7-0.7c0-0.3,0.3-0.7,0.7-0.7c0.3,0,0.6,0.3,0.6,0.7
					C3.4,475,3.1,475.4,2.7,475.4z"/>
			</g>
			<g id="shape1196-209" transform="translate(1.92482,-0.570755)">
				<path class="st4" d="M0.2,484c-0.1,0-0.2-0.1-0.2-0.2v-5c0-0.1,0.1-0.2,0.2-0.2s0.2,0.1,0.2,0.2v5.1C0.4,484,0.3,484,0.2,484z"
					/>
			</g>
			<g id="shape1197-211" transform="translate(2.05993,-8.66317)">
				<ellipse class="st4" cx="0.7" cy="483.3" rx="0.7" ry="0.7"/>
			</g>
		</g>
	</g>
	<g id="group1198-213" transform="translate(2.85532,-98.9722)">
		<g id="group1199-214">
			<g id="group1200-215">
				<g id="group1201-216" transform="translate(3.8518,-6.4617)">
					<g id="shape1202-217">
						<path class="st0" d="M3.6,474.1c-2.3,0.6-3.6,3.1-3,5.7c0.7,2.6,3,4.2,5.3,3.7c2.3-0.6,3.6-3.1,3-5.7
							C8.3,475.1,5.9,473.5,3.6,474.1z"/>
					</g>
				</g>
				<g id="group1203-219">
					<g id="shape1204-220">
						<path class="st0" d="M12.4,477.7c-0.4,0-0.9,0.8-1.5,1.1c-0.7,0.3-1.3,0.9-3.2,0c-1.9-0.9-2.1-1.7-3.6-1.7
							c-1.5,0-4.1,2.8-4.1,6.9h15.6c0,0-0.2-2.8-1.1-4.2C13.4,477.7,12.9,477.7,12.4,477.7z"/>
					</g>
				</g>
			</g>
		</g>
		<g id="group1205-222" transform="translate(9.0485,-0.85947)">
			<g id="shape1206-223">
				<path class="st3" d="M4.8,473.6H0.7c-0.3,0-0.6,0.3-0.6,0.7v2.9c0,0.3,0.3,0.7,0.8,0.7h0.8v5.1c0,0.6,0.4,1.1,1,1.1s1-0.4,1-1
					c0.1,0,0.2,0,0.2,0s0-0.5,0-0.7c0-0.2,0.3-0.3,0.3-0.3v-0.3c-0.3-0.1-0.5-0.3-0.5-0.4v-0.3c0.1-0.1,0.2-0.2,0.2-0.2
					c0.1-0.1,0.3-0.5,0.3-0.5s-0.3-0.4-0.3-0.6c-0.1-0.1-0.1-0.3-0.2-0.4V479c0.1-0.5,0.8-1.1,0.8-1.1h0.5c0.3,0,0.7-0.3,0.7-0.7v-3
					C5.4,473.9,5.2,473.6,4.8,473.6z M2.4,483.1c0,0.2,0,0.3-0.2,0.3c-0.2,0-0.2-0.2-0.2-0.3v-4.8c0-0.2,0.1-0.3,0.2-0.3
					c0.2,0,0.2,0.2,0.2,0.3V483.1z M2.7,475.4c-0.3,0-0.7-0.3-0.7-0.7c0-0.3,0.3-0.7,0.7-0.7c0.3,0,0.6,0.3,0.6,0.7
					C3.4,475,3.1,475.4,2.7,475.4z"/>
			</g>
			<g id="shape1207-225" transform="translate(1.92482,-0.570755)">
				<path class="st4" d="M0.2,484c-0.1,0-0.2-0.1-0.2-0.2v-5c0-0.1,0.1-0.2,0.2-0.2s0.2,0.1,0.2,0.2v5.1C0.4,484,0.3,484,0.2,484z"
					/>
			</g>
			<g id="shape1208-227" transform="translate(2.05993,-8.66317)">
				<ellipse class="st4" cx="0.7" cy="483.3" rx="0.7" ry="0.7"/>
			</g>
		</g>
	</g>
	<g id="group1218-229" transform="translate(2.85532,-36.2556)">
		<g id="group1219-230">
			<g id="group1220-231">
				<g id="group1221-232" transform="translate(3.8518,-6.4617)">
					<g id="shape1222-233">
						<path class="st0" d="M3.6,474.1c-2.3,0.6-3.6,3.1-3,5.7c0.7,2.6,3,4.2,5.3,3.7c2.3-0.6,3.6-3.1,3-5.7
							C8.3,475.1,5.9,473.5,3.6,474.1z"/>
					</g>
				</g>
				<g id="group1223-235">
					<g id="shape1224-236">
						<path class="st0" d="M12.4,477.7c-0.4,0-0.9,0.8-1.5,1.1c-0.7,0.3-1.3,0.9-3.2,0c-1.9-0.9-2.1-1.7-3.6-1.7
							c-1.5,0-4.1,2.8-4.1,6.9h15.6c0,0-0.2-2.8-1.1-4.2C13.4,477.7,12.9,477.7,12.4,477.7z"/>
					</g>
				</g>
			</g>
		</g>
		<g id="group1225-238" transform="translate(9.0485,-0.85947)">
			<g id="shape1226-239">
				<path class="st3" d="M4.8,473.6H0.7c-0.3,0-0.6,0.3-0.6,0.7v2.9c0,0.3,0.3,0.7,0.8,0.7h0.8v5.1c0,0.6,0.4,1.1,1,1.1s1-0.4,1-1
					c0.1,0,0.2,0,0.2,0s0-0.5,0-0.7c0-0.2,0.3-0.3,0.3-0.3v-0.3c-0.3-0.1-0.5-0.3-0.5-0.4v-0.3c0.1-0.1,0.2-0.2,0.2-0.2
					c0.1-0.1,0.3-0.5,0.3-0.5s-0.3-0.4-0.3-0.6c-0.1-0.1-0.1-0.3-0.2-0.4V479c0.1-0.5,0.8-1.1,0.8-1.1h0.5c0.3,0,0.7-0.3,0.7-0.7v-3
					C5.4,473.9,5.2,473.6,4.8,473.6z M2.4,483.1c0,0.2,0,0.3-0.2,0.3c-0.2,0-0.2-0.2-0.2-0.3v-4.8c0-0.2,0.1-0.3,0.2-0.3
					c0.2,0,0.2,0.2,0.2,0.3V483.1z M2.7,475.4c-0.3,0-0.7-0.3-0.7-0.7c0-0.3,0.3-0.7,0.7-0.7c0.3,0,0.6,0.3,0.6,0.7
					C3.4,475,3.1,475.4,2.7,475.4z"/>
			</g>
			<g id="shape1227-241" transform="translate(1.92482,-0.570755)">
				<path class="st4" d="M0.2,484c-0.1,0-0.2-0.1-0.2-0.2v-5c0-0.1,0.1-0.2,0.2-0.2s0.2,0.1,0.2,0.2v5.1C0.4,484,0.3,484,0.2,484z"
					/>
			</g>
			<g id="shape1228-243" transform="translate(2.05993,-8.66317)">
				<ellipse class="st4" cx="0.7" cy="483.3" rx="0.7" ry="0.7"/>
			</g>
		</g>
	</g>
	<g id="group1425-245" transform="translate(47.1467,-455.217)">
		<g id="group1426-246">
			<g id="shape1427-247">
				<path class="st0" d="M22.9,479.6c-2.2,1.7-4.8,2.5-7.3,2.5c-3.6,0-7.2-1.7-9.6-4.8c-4-5.4-3-13.1,2.2-17.3
					c2.2-1.7,4.8-2.5,7.3-2.5c3.6,0,7.2,1.7,9.5,4.8C29.2,467.7,28.2,475.5,22.9,479.6z M26.5,461.2c-2.7-3.6-6.8-5.5-11-5.5
					c-2.9,0-5.9,0.9-8.4,2.9c-6,4.8-7.2,13.7-2.6,19.9c2.7,3.6,6.8,5.5,11,5.5c2.9,0,5.9-0.9,8.4-2.9
					C30,476.3,31.2,467.4,26.5,461.2z"/>
			</g>
		</g>
		<g id="group1428-249" transform="translate(4.95554,-4.39536)">
			<g id="group1429-250" transform="translate(0.341805,-0.176482)">
				<g id="group1430-251" transform="translate(0.437248,3.41061E-13)">
					<g id="shape1431-252">
						<path class="st0" d="M3.6,477c-0.8-0.8-1.4-1.6-2-2.4c-1.1,2.4-1.6,4.9-1.7,6.9c0.1,0.2,0.1,0.3,0.2,0.4c0.6,0.8,1.3,1.5,2,2
							C2.1,482.4,2.3,479.7,3.6,477z"/>
					</g>
				</g>
				<g id="shape1432-254" transform="translate(3.29213,-8.97695)">
					<path class="st0" d="M4.9,476.5c-1.1,0.8-2.2,1.8-3.3,3c-0.6,0.7-1.1,1.4-1.6,2.1c0.5,0.8,1.1,1.6,1.9,2.5
						c0.6-0.9,1.3-1.7,2.2-2.6c1.1-1.1,2.2-1.9,3.1-2.6C6.4,478.1,5.7,477.3,4.9,476.5z"/>
				</g>
				<g id="group1433-256" transform="translate(9.93516,-15.1958)">
					<g id="shape1434-257">
						<path class="st0" d="M9.8,481.9c-0.5-0.7-1.1-1.3-1.7-1.8c-1.9-0.3-4.7-0.3-8,1.5c0.8,0.8,1.5,1.6,2.2,2.4
							C6.6,481.6,9.8,481.9,9.8,481.9z"/>
					</g>
				</g>
				<g id="group1435-259" transform="translate(1.10162E-13,-9.38012)">
					<g id="shape1436-260">
						<path class="st0" d="M2.1,484c0.3-0.7,0.7-1.4,1.2-2.1c-1.9-3.1-1.8-5.6-1.6-6.8c-0.5,0.5-0.9,1-1.3,1.6
							C0,478.4,0,480.9,2.1,484z"/>
					</g>
				</g>
				<g id="group1437-262" transform="translate(4.05148,-0.740211)">
					<g id="shape1438-263">
						<path class="st0" d="M3.4,477.9c-0.9-0.7-1.6-1.4-2.3-2.1c-0.5,0.7-0.8,1.3-1.1,1.9c0.6,0.6,1.3,1.3,2.1,1.9
							c4.9,4,9.8,4.4,12.6,4.4c0.2,0,1-1.2,1.5-1.9C15,482.3,9.7,483,3.4,477.9z"/>
					</g>
				</g>
				<g id="group1439-265" transform="translate(2.10339,-7.03041)">
					<g id="shape1440-266">
						<path class="st0" d="M0,481.6c0.5,0.8,1.1,1.5,2,2.4c0.3-0.6,0.7-1.3,1.1-2c-0.8-0.8-1.4-1.7-1.9-2.5
							C0.7,480.3,0.3,481,0,481.6z"/>
					</g>
				</g>
				<g id="group1441-268" transform="translate(10.5195,-5.3233)">
					<g id="shape1442-269">
						<path class="st0" d="M0,475.2c4.5,4.3,9.8,7.9,11.1,8.8c0.1-0.4,0.2-0.7,0.3-1c-1.4-1.1-5.3-4.2-9.8-8.8
							C1.1,474.4,0.6,474.8,0,475.2z"/>
					</g>
				</g>
				<g id="group1443-271" transform="translate(4.98729,-16.4714)">
					<g id="shape1444-272">
						<path class="st0" d="M4.9,482.9c-1.1-1.2-2.2-2.5-3.4-3.8c-0.6,0.2-1.1,0.4-1.6,0.7c0.8,1.4,2,2.8,3.2,4.2
							C3.8,483.6,4.4,483.2,4.9,482.9z"/>
					</g>
				</g>
				<g id="shape1445-274" transform="translate(8.13763,-14.0503)">
					<path class="st0" d="M1.9,480.5c-0.6,0.3-1.3,0.8-1.9,1.2c0.7,0.8,1.5,1.6,2.3,2.4c0.6-0.4,1.3-0.9,1.9-1.2
						C3.4,482.1,2.6,481.3,1.9,480.5z"/>
				</g>
				<g id="shape1446-276" transform="translate(8.1369,-14.0039)">
					<path class="st0" d="M1.7,480.3c-0.6,0.3-1.1,0.7-1.7,1.1c0.7,0.8,1.7,1.8,2.5,2.6c0.6-0.4,1-0.8,1.6-1.1
						C3.4,482.2,2.4,481.1,1.7,480.3z"/>
				</g>
			</g>
			<g id="group1447-278" transform="translate(14.8617,-6.23662)">
				<g id="shape1448-279">
					<path class="st0" d="M1.3,478.9c-1.1,0.9-1.3,2.5-0.5,3.7c0.9,1.2,2.5,1.4,3.6,0.5c1.1-0.9,1.3-2.5,0.5-3.7
						C4.1,478.3,2.5,478,1.3,478.9z"/>
				</g>
			</g>
			<g id="group1449-281" transform="translate(9.65099,-1.7053E-13)">
				<g id="shape1450-282">
					<path class="st0" d="M1.2,479.3c-1,0.8-1.2,2.4-0.4,3.4c0.8,1.1,2.3,1.3,3.4,0.4c1-0.8,1.2-2.4,0.4-3.4S2.3,478.5,1.2,479.3z"
						/>
				</g>
			</g>
			<g id="group1451-284" transform="translate(0,-5.36433)">
				<g id="shape1452-285">
					<path class="st0" d="M1.9,476.8c-1.6,1.3-1.9,3.6-0.7,5.2c1.2,1.6,3.5,2,5.1,0.7s1.9-3.6,0.7-5.2
						C5.8,475.9,3.5,475.6,1.9,476.8z"/>
				</g>
			</g>
		</g>
	</g>
	<g id="group1453-290" transform="translate(0.375,-460.886)">
		<g id="group1454-291">
			<g id="group1455-292">
				<g id="group1456-293" transform="translate(3.8518,-6.4617)">
					<g id="shape1457-294">
						<path class="st0" d="M3.6,474.1c-2.3,0.6-3.6,3.1-3,5.7c0.7,2.6,3,4.2,5.3,3.7c2.3-0.6,3.6-3.1,3-5.7
							C8.3,475.1,5.9,473.5,3.6,474.1z"/>
					</g>
				</g>
				<g id="group1458-296">
					<g id="shape1459-297">
						<path class="st0" d="M12.4,477.7c-0.4,0-0.9,0.8-1.5,1.1c-0.7,0.3-1.3,0.9-3.2,0c-1.9-0.9-2.1-1.7-3.6-1.7
							c-1.5,0-4.1,2.8-4.1,6.9h15.6c0,0-0.2-2.8-1.1-4.2C13.4,477.7,12.9,477.7,12.4,477.7z"/>
					</g>
				</g>
			</g>
		</g>
		<g id="group1460-299" transform="translate(9.0485,-0.85947)">
			<g id="shape1461-300">
				<path class="st3" d="M4.8,473.6H0.7c-0.3,0-0.6,0.3-0.6,0.7v2.9c0,0.3,0.3,0.7,0.8,0.7h0.8v5.1c0,0.6,0.4,1.1,1,1.1s1-0.4,1-1
					c0.1,0,0.2,0,0.2,0s0-0.5,0-0.7c0-0.2,0.3-0.3,0.3-0.3v-0.3c-0.3-0.1-0.5-0.3-0.5-0.4v-0.3c0.1-0.1,0.2-0.2,0.2-0.2
					c0.1-0.1,0.3-0.5,0.3-0.5s-0.3-0.4-0.3-0.6c-0.1-0.1-0.1-0.3-0.2-0.4V479c0.1-0.5,0.8-1.1,0.8-1.1h0.5c0.3,0,0.7-0.3,0.7-0.7v-3
					C5.4,473.9,5.2,473.6,4.8,473.6z M2.4,483.1c0,0.2,0,0.3-0.2,0.3c-0.2,0-0.2-0.2-0.2-0.3v-4.8c0-0.2,0.1-0.3,0.2-0.3
					c0.2,0,0.2,0.2,0.2,0.3V483.1z M2.7,475.4c-0.3,0-0.7-0.3-0.7-0.7c0-0.3,0.3-0.7,0.7-0.7c0.3,0,0.6,0.3,0.6,0.7
					C3.4,475,3.1,475.4,2.7,475.4z"/>
			</g>
			<g id="shape1462-302" transform="translate(1.92482,-0.570755)">
				<path class="st4" d="M0.2,484c-0.1,0-0.2-0.1-0.2-0.2v-5c0-0.1,0.1-0.2,0.2-0.2s0.2,0.1,0.2,0.2v5.1C0.4,484,0.3,484,0.2,484z"
					/>
			</g>
			<g id="shape1463-304" transform="translate(2.05993,-8.66317)">
				<ellipse class="st4" cx="0.7" cy="483.3" rx="0.7" ry="0.7"/>
			</g>
		</g>
	</g>
	<g id="group1464-306" transform="translate(47.1467,-385.414)">
		<g id="group1465-307">
			<g id="shape1466-308">
				<path class="st0" d="M22.9,479.6c-2.2,1.7-4.8,2.5-7.3,2.5c-3.6,0-7.2-1.7-9.6-4.8c-4-5.4-3-13.1,2.2-17.3
					c2.2-1.7,4.8-2.5,7.3-2.5c3.6,0,7.2,1.7,9.5,4.8C29.2,467.7,28.2,475.5,22.9,479.6z M26.5,461.2c-2.7-3.6-6.8-5.5-11-5.5
					c-2.9,0-5.9,0.9-8.4,2.9c-6,4.8-7.2,13.7-2.6,19.9c2.7,3.6,6.8,5.5,11,5.5c2.9,0,5.9-0.9,8.4-2.9
					C30,476.3,31.2,467.4,26.5,461.2z"/>
			</g>
		</g>
		<g id="group1467-310" transform="translate(4.95554,-4.39536)">
			<g id="group1468-311" transform="translate(0.341805,-0.176482)">
				<g id="group1469-312" transform="translate(0.437248,3.41061E-13)">
					<g id="shape1470-313">
						<path class="st0" d="M3.6,477c-0.8-0.8-1.4-1.6-2-2.4c-1.1,2.4-1.6,4.9-1.7,6.9c0.1,0.2,0.1,0.3,0.2,0.4c0.6,0.8,1.3,1.5,2,2
							C2.1,482.4,2.3,479.7,3.6,477z"/>
					</g>
				</g>
				<g id="shape1471-315" transform="translate(3.29213,-8.97695)">
					<path class="st0" d="M4.9,476.5c-1.1,0.8-2.2,1.8-3.3,3c-0.6,0.7-1.1,1.4-1.6,2.1c0.5,0.8,1.1,1.6,1.9,2.5
						c0.6-0.9,1.3-1.7,2.2-2.6c1.1-1.1,2.2-1.9,3.1-2.6C6.4,478.1,5.7,477.3,4.9,476.5z"/>
				</g>
				<g id="group1472-317" transform="translate(9.93516,-15.1958)">
					<g id="shape1473-318">
						<path class="st0" d="M9.8,481.9c-0.5-0.7-1.1-1.3-1.7-1.8c-1.9-0.3-4.7-0.3-8,1.5c0.8,0.8,1.5,1.6,2.2,2.4
							C6.6,481.6,9.8,481.9,9.8,481.9z"/>
					</g>
				</g>
				<g id="group1474-320" transform="translate(1.10162E-13,-9.38012)">
					<g id="shape1475-321">
						<path class="st0" d="M2.1,484c0.3-0.7,0.7-1.4,1.2-2.1c-1.9-3.1-1.8-5.6-1.6-6.8c-0.5,0.5-0.9,1-1.3,1.6
							C0,478.4,0,480.9,2.1,484z"/>
					</g>
				</g>
				<g id="group1476-323" transform="translate(4.05148,-0.740211)">
					<g id="shape1477-324">
						<path class="st0" d="M3.4,477.9c-0.9-0.7-1.6-1.4-2.3-2.1c-0.5,0.7-0.8,1.3-1.1,1.9c0.6,0.6,1.3,1.3,2.1,1.9
							c4.9,4,9.8,4.4,12.6,4.4c0.2,0,1-1.2,1.5-1.9C15,482.3,9.7,483,3.4,477.9z"/>
					</g>
				</g>
				<g id="group1478-326" transform="translate(2.10339,-7.03041)">
					<g id="shape1479-327">
						<path class="st0" d="M0,481.6c0.5,0.8,1.1,1.5,2,2.4c0.3-0.6,0.7-1.3,1.1-2c-0.8-0.8-1.4-1.7-1.9-2.5
							C0.7,480.3,0.3,481,0,481.6z"/>
					</g>
				</g>
				<g id="group1480-329" transform="translate(10.5195,-5.3233)">
					<g id="shape1481-330">
						<path class="st0" d="M0,475.2c4.5,4.3,9.8,7.9,11.1,8.8c0.1-0.4,0.2-0.7,0.3-1c-1.4-1.1-5.3-4.2-9.8-8.8
							C1.1,474.4,0.6,474.8,0,475.2z"/>
					</g>
				</g>
				<g id="group1482-332" transform="translate(4.98729,-16.4714)">
					<g id="shape1483-333">
						<path class="st0" d="M4.9,482.9c-1.1-1.2-2.2-2.5-3.4-3.8c-0.6,0.2-1.1,0.4-1.6,0.7c0.8,1.4,2,2.8,3.2,4.2
							C3.8,483.6,4.4,483.2,4.9,482.9z"/>
					</g>
				</g>
				<g id="shape1484-335" transform="translate(8.13763,-14.0503)">
					<path class="st0" d="M1.9,480.5c-0.6,0.3-1.3,0.8-1.9,1.2c0.7,0.8,1.5,1.6,2.3,2.4c0.6-0.4,1.3-0.9,1.9-1.2
						C3.4,482.1,2.6,481.3,1.9,480.5z"/>
				</g>
				<g id="shape1485-337" transform="translate(8.1369,-14.0039)">
					<path class="st0" d="M1.7,480.3c-0.6,0.3-1.1,0.7-1.7,1.1c0.7,0.8,1.7,1.8,2.5,2.6c0.6-0.4,1-0.8,1.6-1.1
						C3.4,482.2,2.4,481.1,1.7,480.3z"/>
				</g>
			</g>
			<g id="group1486-339" transform="translate(14.8617,-6.23662)">
				<g id="shape1487-340">
					<path class="st0" d="M1.3,478.9c-1.1,0.9-1.3,2.5-0.5,3.7c0.9,1.2,2.5,1.4,3.6,0.5c1.1-0.9,1.3-2.5,0.5-3.7
						C4.1,478.3,2.5,478,1.3,478.9z"/>
				</g>
			</g>
			<g id="group1488-342" transform="translate(9.65099,-1.7053E-13)">
				<g id="shape1489-343">
					<path class="st0" d="M1.2,479.3c-1,0.8-1.2,2.4-0.4,3.4c0.8,1.1,2.3,1.3,3.4,0.4c1-0.8,1.2-2.4,0.4-3.4S2.3,478.5,1.2,479.3z"
						/>
				</g>
			</g>
			<g id="group1490-345" transform="translate(0,-5.36433)">
				<g id="shape1491-346">
					<path class="st0" d="M1.9,476.8c-1.6,1.3-1.9,3.6-0.7,5.2c1.2,1.6,3.5,2,5.1,0.7s1.9-3.6,0.7-5.2
						C5.8,475.9,3.5,475.6,1.9,476.8z"/>
				</g>
			</g>
		</g>
	</g>
	<g id="group1492-350" transform="translate(2.85532,-178.839)">
		<g id="group1493-351">
			<g id="group1494-352">
				<g id="group1495-353" transform="translate(3.8518,-6.4617)">
					<g id="shape1496-354">
						<path class="st0" d="M3.6,474.1c-2.3,0.6-3.6,3.1-3,5.7c0.7,2.6,3,4.2,5.3,3.7c2.3-0.6,3.6-3.1,3-5.7
							C8.3,475.1,5.9,473.5,3.6,474.1z"/>
					</g>
				</g>
				<g id="group1497-356">
					<g id="shape1498-357">
						<path class="st0" d="M12.4,477.7c-0.4,0-0.9,0.8-1.5,1.1c-0.7,0.3-1.3,0.9-3.2,0c-1.9-0.9-2.1-1.7-3.6-1.7
							c-1.5,0-4.1,2.8-4.1,6.9h15.6c0,0-0.2-2.8-1.1-4.2C13.4,477.7,12.9,477.7,12.4,477.7z"/>
					</g>
				</g>
			</g>
		</g>
		<g id="group1499-359" transform="translate(9.0485,-0.85947)">
			<g id="shape1500-360">
				<path class="st3" d="M4.8,473.6H0.7c-0.3,0-0.6,0.3-0.6,0.7v2.9c0,0.3,0.3,0.7,0.8,0.7h0.8v5.1c0,0.6,0.4,1.1,1,1.1s1-0.4,1-1
					c0.1,0,0.2,0,0.2,0s0-0.5,0-0.7c0-0.2,0.3-0.3,0.3-0.3v-0.3c-0.3-0.1-0.5-0.3-0.5-0.4v-0.3c0.1-0.1,0.2-0.2,0.2-0.2
					c0.1-0.1,0.3-0.5,0.3-0.5s-0.3-0.4-0.3-0.6c-0.1-0.1-0.1-0.3-0.2-0.4V479c0.1-0.5,0.8-1.1,0.8-1.1h0.5c0.3,0,0.7-0.3,0.7-0.7v-3
					C5.4,473.9,5.2,473.6,4.8,473.6z M2.4,483.1c0,0.2,0,0.3-0.2,0.3c-0.2,0-0.2-0.2-0.2-0.3v-4.8c0-0.2,0.1-0.3,0.2-0.3
					c0.2,0,0.2,0.2,0.2,0.3V483.1z M2.7,475.4c-0.3,0-0.7-0.3-0.7-0.7c0-0.3,0.3-0.7,0.7-0.7c0.3,0,0.6,0.3,0.6,0.7
					C3.4,475,3.1,475.4,2.7,475.4z"/>
			</g>
			<g id="shape1501-362" transform="translate(1.92482,-0.570755)">
				<path class="st4" d="M0.2,484c-0.1,0-0.2-0.1-0.2-0.2v-5c0-0.1,0.1-0.2,0.2-0.2s0.2,0.1,0.2,0.2v5.1C0.4,484,0.3,484,0.2,484z"
					/>
			</g>
			<g id="shape1502-364" transform="translate(2.05993,-8.66317)">
				<ellipse class="st4" cx="0.7" cy="483.3" rx="0.7" ry="0.7"/>
			</g>
		</g>
	</g>
	<g id="shape1683-366" transform="translate(249.331,-190.886)">
		<path class="st5" d="M15.1,454.1l-15.9,11.4L5.3,484H25l6.1-18.5L15.1,454.1z"/>
	</g>
	<g id="group1684-368" transform="translate(256.664,-197.335)">
		<g id="group1685-369">
			<g id="group1686-370">
				<g id="group1687-371" transform="translate(3.8518,-6.4617)">
					<g id="shape1688-372">
						<path class="st0" d="M3.6,474.1c-2.3,0.6-3.6,3.1-3,5.7c0.7,2.6,3,4.2,5.3,3.7c2.3-0.6,3.6-3.1,3-5.7
							C8.3,475.1,5.9,473.5,3.6,474.1z"/>
					</g>
				</g>
				<g id="group1689-374">
					<g id="shape1690-375">
						<path class="st0" d="M12.4,477.7c-0.4,0-0.9,0.8-1.5,1.1c-0.7,0.3-1.3,0.9-3.2,0c-1.9-0.9-2.1-1.7-3.6-1.7
							c-1.5,0-4.1,2.8-4.1,6.9h15.6c0,0-0.2-2.8-1.1-4.2C13.4,477.7,12.9,477.7,12.4,477.7z"/>
					</g>
				</g>
			</g>
		</g>
		<g id="group1691-377" transform="translate(9.0485,-0.85947)">
			<g id="shape1692-378">
				<path class="st3" d="M4.8,473.6H0.7c-0.3,0-0.6,0.3-0.6,0.7v2.9c0,0.3,0.3,0.7,0.8,0.7h0.8v5.1c0,0.6,0.4,1.1,1,1.1s1-0.4,1-1
					c0.1,0,0.2,0,0.2,0s0-0.5,0-0.7c0-0.2,0.3-0.3,0.3-0.3v-0.3c-0.3-0.1-0.5-0.3-0.5-0.4v-0.3c0.1-0.1,0.2-0.2,0.2-0.2
					c0.1-0.1,0.3-0.5,0.3-0.5s-0.3-0.4-0.3-0.6c-0.1-0.1-0.1-0.3-0.2-0.4V479c0.1-0.5,0.8-1.1,0.8-1.1h0.5c0.3,0,0.7-0.3,0.7-0.7v-3
					C5.4,473.9,5.2,473.6,4.8,473.6z M2.4,483.1c0,0.2,0,0.3-0.2,0.3c-0.2,0-0.2-0.2-0.2-0.3v-4.8c0-0.2,0.1-0.3,0.2-0.3
					c0.2,0,0.2,0.2,0.2,0.3V483.1z M2.7,475.4c-0.3,0-0.7-0.3-0.7-0.7c0-0.3,0.3-0.7,0.7-0.7c0.3,0,0.6,0.3,0.6,0.7
					C3.4,475,3.1,475.4,2.7,475.4z"/>
			</g>
			<g id="shape1693-380" transform="translate(1.92482,-0.570755)">
				<path class="st4" d="M0.2,484c-0.1,0-0.2-0.1-0.2-0.2v-5c0-0.1,0.1-0.2,0.2-0.2s0.2,0.1,0.2,0.2v5.1C0.4,484,0.3,484,0.2,484z"
					/>
			</g>
			<g id="shape1694-382" transform="translate(2.05993,-8.66317)">
				<ellipse class="st4" cx="0.7" cy="483.3" rx="0.7" ry="0.7"/>
			</g>
		</g>
	</g>
</g>
<g id="source_copy" xmlns:ev="http://www.w3.org/2001/xml-events" xmlns:v="http://schemas.microsoft.com/visio/2003/SVGExtensions/">
	<g id="shape1101-88_2_">
		<g class="st6">
			<path d="M53.1,244.2l-2,7h-1l-1.4-5.1c-0.1-0.2-0.1-0.5-0.1-0.7h0c0,0.2-0.1,0.5-0.1,0.7l-1.5,5.1h-1l-2.1-7h0.9l1.5,5.4
				c0.1,0.2,0.1,0.5,0.1,0.7h0c0-0.2,0.1-0.4,0.2-0.7l1.5-5.4H49l1.5,5.4c0.1,0.2,0.1,0.4,0.1,0.7h0c0-0.2,0.1-0.4,0.1-0.7l1.4-5.4
				H53.1z"/>
			<path d="M57.7,248.9h-3.5c0,0.6,0.2,1,0.4,1.3c0.3,0.3,0.7,0.5,1.2,0.5c0.6,0,1.1-0.2,1.6-0.6v0.8c-0.4,0.3-1,0.5-1.7,0.5
				c-0.7,0-1.3-0.2-1.7-0.7c-0.4-0.5-0.6-1.1-0.6-1.9c0-0.8,0.2-1.4,0.7-1.9c0.4-0.5,1-0.7,1.6-0.7s1.2,0.2,1.5,0.6
				c0.4,0.4,0.5,1,0.5,1.8V248.9z M56.9,248.2c0-0.5-0.1-0.8-0.3-1.1s-0.5-0.4-0.9-0.4c-0.4,0-0.7,0.1-1,0.4s-0.4,0.6-0.5,1.1H56.9z
				"/>
			<path d="M59.7,250.5L59.7,250.5l0,0.7h-0.8v-7.4h0.8v3.3h0c0.4-0.7,1-1,1.7-1c0.6,0,1.1,0.2,1.5,0.7c0.4,0.4,0.5,1,0.5,1.8
				c0,0.8-0.2,1.5-0.6,2c-0.4,0.5-1,0.8-1.7,0.8C60.6,251.3,60.1,251,59.7,250.5z M59.7,248.5v0.7c0,0.4,0.1,0.8,0.4,1.1
				s0.6,0.4,1,0.4c0.5,0,0.9-0.2,1.1-0.6c0.3-0.4,0.4-0.9,0.4-1.5c0-0.6-0.1-1-0.4-1.3c-0.3-0.3-0.6-0.5-1-0.5
				c-0.5,0-0.8,0.2-1.1,0.5C59.9,247.6,59.7,248,59.7,248.5z"/>
			<path d="M66.9,243.8h6.5c-0.1,0.9-0.3,1.6-0.6,2.2c-0.3,0.6-0.7,1.1-1.2,1.5L71,247c0.4-0.4,0.8-0.8,1.1-1.3
				c0.2-0.4,0.4-0.9,0.4-1.3h-5.6V243.8z M67.2,251c0.9-0.4,1.5-0.9,1.8-1.5c0.4-0.6,0.5-1.5,0.5-2.6v-1.6h0.8v1.6
				c0,1.4-0.3,2.4-0.8,3.2c-0.4,0.6-1,1.1-1.8,1.5L67.2,251z"/>
			<path d="M79.4,244.6c-0.1,1.8-0.4,3.2-1,4.2c-0.7,1.3-1.9,2.2-3.7,2.8l-0.4-0.6c1.5-0.5,2.6-1.3,3.3-2.3c0.6-1,1-2.4,1-4.1h-4.7
				v-0.7h4.8c0-0.1-0.1-0.2-0.1-0.4c0-0.3,0.1-0.6,0.4-0.8c0.2-0.2,0.5-0.3,0.8-0.3c0.3,0,0.6,0.1,0.8,0.4c0.2,0.2,0.3,0.5,0.3,0.8
				c0,0.3-0.1,0.6-0.4,0.8c-0.2,0.2-0.5,0.3-0.8,0.3C79.6,244.7,79.5,244.6,79.4,244.6z M79.7,242.9c-0.2,0-0.4,0.1-0.5,0.2
				c-0.1,0.1-0.2,0.3-0.2,0.5c0,0.2,0.1,0.4,0.2,0.5c0.1,0.1,0.3,0.2,0.5,0.2c0.2,0,0.4-0.1,0.5-0.2c0.1-0.1,0.2-0.3,0.2-0.5
				c0-0.2-0.1-0.4-0.2-0.5C80.1,242.9,79.9,242.9,79.7,242.9z"/>
			<path d="M82.3,243.5v4.9h-0.8v-4.9H82.3z M82,251c1.2-0.3,2-0.7,2.5-1.3c0.4-0.6,0.6-1.4,0.6-2.6v-3.6h0.8v3.8
				c0,1.4-0.3,2.5-1,3.2c-0.5,0.6-1.4,1-2.6,1.2L82,251z"/>
			<v:paragraph  v:horizAlign="1"></v:paragraph>
			<v:tabList></v:tabList>
		</g>
	</g>
	<g class="st6">
		<path d="M283.5,322.5h-0.9l-0.7-2h-3l-0.7,2h-0.9l2.7-7h0.8L283.5,322.5z M281.6,319.8l-1.1-3c0-0.1-0.1-0.3-0.1-0.5h0
			c0,0.2-0.1,0.4-0.1,0.5l-1.1,3H281.6z"/>
		<path d="M285.4,319.8v2.6h-0.8v-7h1.9c0.7,0,1.3,0.2,1.7,0.5c0.4,0.4,0.6,0.9,0.6,1.5s-0.2,1.2-0.7,1.6c-0.5,0.4-1.1,0.6-1.9,0.6
			H285.4z M285.4,316.2v2.9h0.9c0.6,0,1-0.1,1.3-0.4s0.4-0.6,0.4-1.1c0-0.9-0.5-1.4-1.6-1.4H285.4z"/>
		<path d="M291,322.5h-0.8v-7h0.8V322.5z"/>
		<path d="M294.8,315.1h6.5c-0.1,0.9-0.3,1.6-0.6,2.2c-0.3,0.6-0.7,1.1-1.2,1.5l-0.6-0.5c0.4-0.4,0.8-0.8,1.1-1.3
			c0.2-0.4,0.4-0.9,0.4-1.3h-5.6V315.1z M295.1,322.3c0.9-0.4,1.5-0.9,1.8-1.5c0.4-0.6,0.5-1.5,0.5-2.6v-1.6h0.8v1.6
			c0,1.4-0.3,2.4-0.8,3.2c-0.4,0.6-1,1.1-1.8,1.5L295.1,322.3z"/>
		<path d="M307.3,315.9c-0.1,1.8-0.4,3.2-1,4.2c-0.7,1.3-1.9,2.2-3.7,2.8l-0.4-0.6c1.5-0.5,2.6-1.3,3.3-2.3c0.6-1,1-2.4,1-4.1h-4.7
			v-0.7h4.8c0-0.1-0.1-0.2-0.1-0.4c0-0.3,0.1-0.6,0.4-0.8c0.2-0.2,0.5-0.3,0.8-0.3c0.3,0,0.6,0.1,0.8,0.4c0.2,0.2,0.3,0.5,0.3,0.8
			c0,0.3-0.1,0.6-0.4,0.8c-0.2,0.2-0.5,0.3-0.8,0.3C307.5,316,307.4,315.9,307.3,315.9z M307.6,314.1c-0.2,0-0.4,0.1-0.5,0.2
			c-0.1,0.1-0.2,0.3-0.2,0.5c0,0.2,0.1,0.4,0.2,0.5c0.1,0.1,0.3,0.2,0.5,0.2c0.2,0,0.4-0.1,0.5-0.2c0.1-0.1,0.2-0.3,0.2-0.5
			c0-0.2-0.1-0.4-0.2-0.5C308,314.2,307.8,314.1,307.6,314.1z"/>
		<path d="M310.2,314.8v4.9h-0.8v-4.9H310.2z M309.9,322.3c1.2-0.3,2-0.7,2.5-1.3c0.4-0.6,0.6-1.4,0.6-2.6v-3.6h0.8v3.8
			c0,1.4-0.3,2.5-1,3.2c-0.5,0.6-1.4,1-2.6,1.2L309.9,322.3z"/>
		<v:paragraph  v:horizAlign="1"></v:paragraph>
		<v:tabList></v:tabList>
	</g>
	<g id="shape1141-135_2_">
		<g class="st6">
			<path d="M41.4,390.7h-3.1v-0.6h6.3v0.6h-2.5c0,0.8,0,1.4-0.1,1.8c0,0.4-0.1,0.7-0.2,1c-0.4,1-1.2,1.7-2.4,2.3l-0.5-0.6
				c1.1-0.4,1.8-1.1,2.2-2C41.3,392.8,41.4,392,41.4,390.7z M38.9,387.9h4.3v0.7h-4.3V387.9z M43.2,387.2l0.5-0.2
				c0.3,0.4,0.5,1,0.7,1.7l-0.5,0.2C43.8,388.2,43.5,387.7,43.2,387.2z M44.4,386.8l0.5-0.2c0.3,0.4,0.5,1,0.7,1.6l-0.5,0.2
				C44.8,387.8,44.6,387.3,44.4,386.8z"/>
			<path d="M49.8,392.5c-0.9,1.3-2.1,2.4-3.6,3.2l-0.4-0.6c1.4-0.7,2.5-1.7,3.3-2.8c0.7-1,1.2-2.2,1.5-3.6h-4.2V388h5.2
				c-0.3,1.5-0.7,2.8-1.3,3.8c0.9,1.1,1.7,2.2,2.3,3.4l-0.7,0.5C51.2,394.6,50.6,393.5,49.8,392.5z"/>
			<path d="M54.8,389.1c-0.5,1.1-1.1,2.1-1.8,2.9l-0.6-0.4c1.1-1.1,1.8-2.5,2.2-4.2l0.8,0.1c-0.1,0.3-0.2,0.6-0.3,0.9h3.5
				c-0.3,2.3-0.9,4-1.9,5.3c-0.7,0.9-1.8,1.7-3.2,2.2l-0.4-0.5c1.4-0.6,2.5-1.4,3.2-2.4c0.7-1,1.2-2.3,1.4-3.9H54.8z"/>
			<path d="M60,391v4.8h-0.8v-8.4H60v2.9c1.6,0.5,2.8,1,3.8,1.6l-0.4,0.7C62.6,392,61.4,391.5,60,391z"/>
			<path d="M62.6,390l0.6-0.3c0.3,0.5,0.6,1.3,0.8,2.2l-0.7,0.3C63.2,391.4,62.9,390.7,62.6,390z M63.7,395.4
				c1.2-0.5,2.1-1.2,2.7-2.2c0.5-0.8,0.8-2.1,0.9-3.7l0.7,0.2c-0.1,1.7-0.5,3-1,3.9c-0.3,0.5-0.7,1-1.2,1.4c-0.4,0.3-1,0.7-1.7,0.9
				L63.7,395.4z M64.4,389.5l0.6-0.3c0.3,0.6,0.5,1.3,0.7,2.1l-0.7,0.3C65,390.8,64.7,390.1,64.4,389.5z"/>
			<path d="M73.4,388.8c-0.1,1.8-0.4,3.2-1,4.2c-0.7,1.3-1.9,2.2-3.7,2.8l-0.4-0.6c1.5-0.5,2.6-1.3,3.3-2.3c0.6-1,1-2.4,1-4.1H68
				v-0.7h4.8c0-0.1-0.1-0.2-0.1-0.4c0-0.3,0.1-0.6,0.4-0.8c0.2-0.2,0.5-0.3,0.8-0.3c0.3,0,0.6,0.1,0.8,0.4c0.2,0.2,0.3,0.5,0.3,0.8
				c0,0.3-0.1,0.6-0.4,0.8c-0.2,0.2-0.5,0.3-0.8,0.3C73.7,388.8,73.5,388.8,73.4,388.8z M73.8,387c-0.2,0-0.4,0.1-0.5,0.2
				c-0.1,0.1-0.2,0.3-0.2,0.5c0,0.2,0.1,0.4,0.2,0.5c0.1,0.1,0.3,0.2,0.5,0.2c0.2,0,0.4-0.1,0.5-0.2c0.1-0.1,0.2-0.3,0.2-0.5
				c0-0.2-0.1-0.4-0.2-0.5C74.1,387.1,74,387,73.8,387z"/>
			<path d="M78.1,387.9h6.5c-0.1,0.9-0.3,1.6-0.6,2.2c-0.3,0.6-0.7,1.1-1.2,1.5l-0.6-0.5c0.4-0.4,0.8-0.8,1.1-1.3
				c0.2-0.4,0.4-0.9,0.4-1.3h-5.6V387.9z M78.4,395.2c0.9-0.4,1.5-0.9,1.8-1.5c0.4-0.6,0.5-1.5,0.5-2.6v-1.6h0.8v1.6
				c0,1.4-0.3,2.4-0.8,3.2c-0.4,0.6-1,1.1-1.8,1.5L78.4,395.2z"/>
			<path d="M90.6,388.8c-0.1,1.8-0.4,3.2-1,4.2c-0.7,1.3-1.9,2.2-3.7,2.8l-0.4-0.6c1.5-0.5,2.6-1.3,3.3-2.3c0.6-1,1-2.4,1-4.1h-4.7
				v-0.7h4.8c0-0.1-0.1-0.2-0.1-0.4c0-0.3,0.1-0.6,0.4-0.8c0.2-0.2,0.5-0.3,0.8-0.3c0.3,0,0.6,0.1,0.8,0.4c0.2,0.2,0.3,0.5,0.3,0.8
				c0,0.3-0.1,0.6-0.4,0.8c-0.2,0.2-0.5,0.3-0.8,0.3C90.8,388.8,90.7,388.8,90.6,388.8z M91,387c-0.2,0-0.4,0.1-0.5,0.2
				c-0.1,0.1-0.2,0.3-0.2,0.5c0,0.2,0.1,0.4,0.2,0.5c0.1,0.1,0.3,0.2,0.5,0.2c0.2,0,0.4-0.1,0.5-0.2c0.1-0.1,0.2-0.3,0.2-0.5
				c0-0.2-0.1-0.4-0.2-0.5C91.3,387.1,91.2,387,91,387z"/>
			<path d="M93.5,387.7v4.9h-0.8v-4.9H93.5z M93.2,395.2c1.2-0.3,2-0.7,2.5-1.3c0.4-0.6,0.6-1.4,0.6-2.6v-3.6h0.8v3.8
				c0,1.4-0.3,2.5-1,3.2c-0.5,0.6-1.4,1-2.6,1.2L93.2,395.2z"/>
			<v:paragraph  v:horizAlign="1"></v:paragraph>
			<v:tabList></v:tabList>
		</g>
	</g>
	<g class="st6">
		<path d="M390.2,322.5h-0.9l-0.7-2h-3l-0.7,2H384l2.7-7h0.8L390.2,322.5z M388.3,319.8l-1.1-3c0-0.1-0.1-0.3-0.1-0.5h0
			c0,0.2-0.1,0.4-0.1,0.5l-1.1,3H388.3z"/>
		<path d="M392.1,319.8v2.6h-0.8v-7h1.9c0.7,0,1.3,0.2,1.7,0.5c0.4,0.4,0.6,0.9,0.6,1.5s-0.2,1.2-0.7,1.6c-0.5,0.4-1.1,0.6-1.9,0.6
			H392.1z M392.1,316.2v2.9h0.9c0.6,0,1-0.1,1.3-0.4s0.4-0.6,0.4-1.1c0-0.9-0.5-1.4-1.6-1.4H392.1z"/>
		<path d="M397.7,322.5h-0.8v-7h0.8V322.5z"/>
		<path d="M401.5,315.1h6.5c-0.1,0.9-0.3,1.6-0.6,2.2c-0.3,0.6-0.7,1.1-1.2,1.5l-0.6-0.5c0.4-0.4,0.8-0.8,1.1-1.3
			c0.2-0.4,0.4-0.9,0.4-1.3h-5.6V315.1z M401.8,322.3c0.9-0.4,1.5-0.9,1.8-1.5c0.4-0.6,0.5-1.5,0.5-2.6v-1.6h0.8v1.6
			c0,1.4-0.3,2.4-0.8,3.2c-0.4,0.6-1,1.1-1.8,1.5L401.8,322.3z"/>
		<path d="M414,315.9c-0.1,1.8-0.4,3.2-1,4.2c-0.7,1.3-1.9,2.2-3.7,2.8l-0.4-0.6c1.5-0.5,2.6-1.3,3.3-2.3c0.6-1,1-2.4,1-4.1h-4.7
			v-0.7h4.8c0-0.1-0.1-0.2-0.1-0.4c0-0.3,0.1-0.6,0.4-0.8c0.2-0.2,0.5-0.3,0.8-0.3c0.3,0,0.6,0.1,0.8,0.4c0.2,0.2,0.3,0.5,0.3,0.8
			c0,0.3-0.1,0.6-0.4,0.8c-0.2,0.2-0.5,0.3-0.8,0.3C414.2,316,414.1,315.9,414,315.9z M414.3,314.1c-0.2,0-0.4,0.1-0.5,0.2
			c-0.1,0.1-0.2,0.3-0.2,0.5c0,0.2,0.1,0.4,0.2,0.5c0.1,0.1,0.3,0.2,0.5,0.2c0.2,0,0.4-0.1,0.5-0.2c0.1-0.1,0.2-0.3,0.2-0.5
			c0-0.2-0.1-0.4-0.2-0.5C414.7,314.2,414.5,314.1,414.3,314.1z"/>
		<path d="M416.9,314.8v4.9h-0.8v-4.9H416.9z M416.6,322.3c1.2-0.3,2-0.7,2.5-1.3c0.4-0.6,0.6-1.4,0.6-2.6v-3.6h0.8v3.8
			c0,1.4-0.3,2.5-1,3.2c-0.5,0.6-1.4,1-2.6,1.2L416.6,322.3z"/>
		<v:paragraph  v:horizAlign="1"></v:paragraph>
		<v:tabList></v:tabList>
	</g>
	<g id="shape1425-287_2_">
		<g>
			<rect x="30.4" y="34.9" class="st7" width="67.9" height="21.4"/>
			<path d="M43.4,41.3v0.6h-4.2v1.8h-0.7v-1.8h-4.1v-0.6h4.1v-1h-3.2v-4h1c-0.2-0.4-0.6-1-1-1.4l0.6-0.3c0.4,0.4,0.8,1,1,1.4
				c-0.2,0.1-0.4,0.2-0.5,0.3h2.2c-0.1-0.4-0.4-1.1-0.8-1.6l0.6-0.2c0.3,0.5,0.7,1.1,0.8,1.6l-0.6,0.2h1.9c0.4-0.5,0.8-1.2,1.1-1.8
				l0.8,0.3c0,0.1-0.1,0.1-0.2,0.1c-0.2,0.4-0.6,0.9-0.9,1.4h1.1v4h-3.3v1H43.4z M36,36.8V38h2.5v-1.1H36z M36,39.7h2.5v-1.2H36
				V39.7z M41.9,38v-1.1h-2.6V38H41.9z M41.9,39.7v-1.2h-2.6v1.2H41.9z"/>
			<path d="M44.3,38.6h9.3v0.7h-9.3V38.6z"/>
			<path d="M54.2,39.7c0.8-0.8,2.3-2.6,2.9-3.2c0.3-0.3,0.5-0.4,0.8-0.4c0.3,0,0.5,0.1,0.8,0.4c1.3,1.2,3.4,3.5,4.9,5.4L63,42.5
				c-1.4-2-3.5-4.3-4.6-5.4c-0.2-0.2-0.3-0.3-0.4-0.3s-0.2,0.1-0.4,0.3c-0.5,0.5-1.9,2.2-2.6,2.9c0,0,0,0,0,0.1c0,0.1,0,0.2-0.1,0.2
				L54.2,39.7z M61.8,34.6c0.6,0,1.1,0.5,1.1,1.1s-0.5,1.1-1.1,1.1c-0.6,0-1.1-0.5-1.1-1.1C60.7,35.1,61.2,34.6,61.8,34.6z
				 M62.6,35.7c0-0.4-0.4-0.8-0.8-0.8c-0.4,0-0.8,0.4-0.8,0.8c0,0.4,0.4,0.8,0.8,0.8C62.3,36.5,62.6,36.1,62.6,35.7z"/>
			<path d="M64.6,38.6h8.3v0.7h-8c-0.1,0.1-0.2,0.2-0.3,0.2L64.6,38.6z"/>
			<path d="M74.5,37.6c0.9,0.2,2,0.6,2.7,0.9l-0.3,0.6c-0.7-0.3-1.8-0.7-2.7-0.9L74.5,37.6z M75.1,42.5c3.2-1.1,5.5-2.8,6.8-5.8
				c0.1,0.1,0.4,0.4,0.6,0.4c-1.3,2.9-3.7,4.8-6.7,5.9c0,0.1,0,0.2-0.1,0.3L75.1,42.5z M75.6,35.2c0.9,0.2,2,0.6,2.7,1l-0.3,0.6
				c-0.7-0.4-1.7-0.8-2.6-1L75.6,35.2z M80.3,34.8c0.4,0.4,1,1,1.3,1.4l-0.4,0.3c-0.3-0.4-0.9-1.1-1.3-1.5L80.3,34.8z M81.6,34.2
				c0.4,0.3,1,1,1.3,1.4L82.6,36c-0.3-0.4-0.9-1.1-1.3-1.4L81.6,34.2z"/>
			<path d="M94.3,35.6c0,0-0.1,0.1-0.1,0.1c-0.5,1.3-1.4,2.4-2.4,3.2c-0.1-0.1-0.4-0.3-0.6-0.4c0.9-0.7,1.7-1.6,2-2.5H86v-0.7h7.5
				l0.1,0L94.3,35.6z M90.4,37.5c0,0.1-0.1,0.1-0.2,0.2c-0.3,2.4-1.1,4.6-3.2,5.8c-0.1-0.1-0.4-0.3-0.6-0.5c2-1.1,2.8-3.2,3-5.6
				L90.4,37.5z"/>
			<path d="M33.5,47.9h6.4l0.1,0l0.7,0.5c0,0-0.1,0.1-0.1,0.1c-0.8,3.8-2.5,5.7-5.6,6.9c-0.1-0.2-0.3-0.4-0.4-0.6
				c2.9-1.1,4.6-2.9,5.2-6.2h-6.2V47.9z M41.1,46.2c0.6,0,1.1,0.5,1.1,1.1c0,0.6-0.5,1.1-1.1,1.1c-0.6,0-1.1-0.5-1.1-1.1
				C40,46.6,40.5,46.2,41.1,46.2z M41.9,47.3c0-0.4-0.3-0.8-0.8-0.8c-0.4,0-0.8,0.3-0.8,0.8c0,0.4,0.3,0.8,0.8,0.8
				C41.6,48,41.9,47.7,41.9,47.3z"/>
			<path d="M43.6,52.3v-4.9l0.9,0.1c0,0.1-0.1,0.2-0.2,0.2v4.6H43.6z M49.2,47c0,0.1-0.1,0.1-0.2,0.2v3.2c0,2.1-0.7,4-3.6,5.1
				c-0.1-0.1-0.3-0.4-0.5-0.5c2.8-1,3.4-2.7,3.4-4.6V47L49.2,47z"/>
			<path d="M59.4,49.1v0.7h-2.5c0,0.1-0.1,0.1-0.2,0.1c-0.3,2.3-1.2,4.3-3.3,5.6c-0.2-0.1-0.4-0.3-0.6-0.4c2-1.1,3-3,3.2-5.2h-2.8
				c-0.5,0.8-1,1.6-1.6,2.1c-0.1-0.1-0.4-0.3-0.6-0.4c1.1-0.9,2.2-2.9,2.7-4.7l1,0.2c0,0.1-0.1,0.1-0.3,0.1c-0.2,0.6-0.5,1.4-0.8,2
				H59.4z"/>
			<path d="M60.6,50.6H69v0.7h-8c-0.1,0.1-0.2,0.2-0.3,0.2L60.6,50.6z"/>
			<path d="M70.5,49.6c0.9,0.2,2,0.6,2.7,0.9l-0.3,0.6c-0.7-0.3-1.8-0.7-2.7-0.9L70.5,49.6z M71.1,54.5c3.2-1.1,5.5-2.8,6.8-5.8
				c0.1,0.1,0.5,0.3,0.6,0.4c-1.3,3-3.7,4.8-6.7,5.9c0,0.1,0,0.2-0.1,0.3L71.1,54.5z M71.6,47.1c0.9,0.2,2,0.6,2.7,1L74,48.7
				c-0.7-0.4-1.7-0.8-2.6-1L71.6,47.1z"/>
			<path d="M85,49.3v6.1h-0.6V55h-4.5v-0.6h4.5v-2h-4.1v-0.6h4.1v-1.9h-4.2v-0.5H85z"/>
			<path d="M87.6,47.5c1,0.3,2.2,0.8,3,1.4l-0.4,0.6c-0.7-0.5-1.9-1-2.9-1.4L87.6,47.5z M87.6,54.5c3.5-1.1,5.9-3.1,7.1-5.9
				c0.2,0.2,0.4,0.3,0.6,0.4c-1.2,2.7-3.7,4.9-7.1,6c0,0.1-0.1,0.2-0.1,0.2L87.6,54.5z"/>
		</g>
		<v:paragraph  v:horizAlign="1"></v:paragraph>
		<v:tabList></v:tabList>
		<v:lf></v:lf>
	</g>
	<g id="shape1464-348_2_">
		<g class="st6">
			<path d="M53.1,104.6l-2,7h-1l-1.4-5.1c-0.1-0.2-0.1-0.5-0.1-0.7h0c0,0.2-0.1,0.5-0.1,0.7l-1.5,5.1h-1l-2.1-7h0.9l1.5,5.4
				c0.1,0.2,0.1,0.5,0.1,0.7h0c0-0.2,0.1-0.4,0.2-0.7l1.5-5.4H49l1.5,5.4c0.1,0.2,0.1,0.4,0.1,0.7h0c0-0.2,0.1-0.4,0.1-0.7l1.4-5.4
				H53.1z"/>
			<path d="M57.7,109.3h-3.5c0,0.6,0.2,1,0.4,1.3c0.3,0.3,0.7,0.5,1.2,0.5c0.6,0,1.1-0.2,1.6-0.6v0.8c-0.4,0.3-1,0.5-1.7,0.5
				c-0.7,0-1.3-0.2-1.7-0.7c-0.4-0.5-0.6-1.1-0.6-1.9c0-0.8,0.2-1.4,0.7-1.9c0.4-0.5,1-0.7,1.6-0.7s1.2,0.2,1.5,0.6
				c0.4,0.4,0.5,1,0.5,1.8V109.3z M56.9,108.6c0-0.5-0.1-0.8-0.3-1.1s-0.5-0.4-0.9-0.4c-0.4,0-0.7,0.1-1,0.4s-0.4,0.6-0.5,1.1H56.9z
				"/>
			<path d="M59.7,110.9L59.7,110.9l0,0.7h-0.8v-7.4h0.8v3.3h0c0.4-0.7,1-1,1.7-1c0.6,0,1.1,0.2,1.5,0.7c0.4,0.4,0.5,1,0.5,1.8
				c0,0.8-0.2,1.5-0.6,2c-0.4,0.5-1,0.8-1.7,0.8C60.6,111.7,60.1,111.4,59.7,110.9z M59.7,108.9v0.7c0,0.4,0.1,0.8,0.4,1.1
				s0.6,0.4,1,0.4c0.5,0,0.9-0.2,1.1-0.6c0.3-0.4,0.4-0.9,0.4-1.5c0-0.6-0.1-1-0.4-1.3c-0.3-0.3-0.6-0.5-1-0.5
				c-0.5,0-0.8,0.2-1.1,0.5C59.9,108,59.7,108.4,59.7,108.9z"/>
			<path d="M66.9,104.2h6.5c-0.1,0.9-0.3,1.6-0.6,2.2c-0.3,0.6-0.7,1.1-1.2,1.5l-0.6-0.5c0.4-0.4,0.8-0.8,1.1-1.3
				c0.2-0.4,0.4-0.9,0.4-1.3h-5.6V104.2z M67.2,111.4c0.9-0.4,1.5-0.9,1.8-1.5c0.4-0.6,0.5-1.5,0.5-2.6v-1.6h0.8v1.6
				c0,1.4-0.3,2.4-0.8,3.2c-0.4,0.6-1,1.1-1.8,1.5L67.2,111.4z"/>
			<path d="M79.4,105c-0.1,1.8-0.4,3.2-1,4.2c-0.7,1.3-1.9,2.2-3.7,2.8l-0.4-0.6c1.5-0.5,2.6-1.3,3.3-2.3c0.6-1,1-2.4,1-4.1h-4.7
				v-0.7h4.8c0-0.1-0.1-0.2-0.1-0.4c0-0.3,0.1-0.6,0.4-0.8c0.2-0.2,0.5-0.3,0.8-0.3c0.3,0,0.6,0.1,0.8,0.4c0.2,0.2,0.3,0.5,0.3,0.8
				c0,0.3-0.1,0.6-0.4,0.8c-0.2,0.2-0.5,0.3-0.8,0.3C79.6,105.1,79.5,105,79.4,105z M79.7,103.2c-0.2,0-0.4,0.1-0.5,0.2
				c-0.1,0.1-0.2,0.3-0.2,0.5c0,0.2,0.1,0.4,0.2,0.5c0.1,0.1,0.3,0.2,0.5,0.2c0.2,0,0.4-0.1,0.5-0.2c0.1-0.1,0.2-0.3,0.2-0.5
				c0-0.2-0.1-0.4-0.2-0.5C80.1,103.3,79.9,103.2,79.7,103.2z"/>
			<path d="M82.3,103.9v4.9h-0.8v-4.9H82.3z M82,111.4c1.2-0.3,2-0.7,2.5-1.3c0.4-0.6,0.6-1.4,0.6-2.6v-3.6h0.8v3.8
				c0,1.4-0.3,2.5-1,3.2c-0.5,0.6-1.4,1-2.6,1.2L82,111.4z"/>
			<v:paragraph  v:horizAlign="1"></v:paragraph>
			<v:tabList></v:tabList>
		</g>
	</g>
	<g>
		<rect x="34.3" y="174.7" class="st7" width="56.6" height="21.4"/>
		<path d="M46.5,181.1C46.5,181.1,46.5,181.2,46.5,181.1l-1.4,0.1h-2.8v0.2l0,1.4c0,0.1,0,0.1-0.1,0.1h-0.5c0,0-0.1,0-0.1-0.1l0-1.4
			v-0.2h-2.6l-1.3,0c-0.1,0-0.1,0-0.1-0.1v-0.4c0-0.1,0-0.1,0.1-0.1l1.3,0h2.6v-0.9h-1.3l-1.4,0c-0.1,0-0.1,0-0.1-0.1l0-1V177l0-1
			c0,0,0-0.1,0.1-0.1l1.4,0h3.3l1.4,0c0.1,0,0.1,0,0.1,0.1l0,1v1.6l0,1c0,0.1,0,0.1-0.1,0.1l-1.4,0h-1.5v0.9h2.8l1.3,0
			c0.1,0,0.1,0,0.1,0.1V181.1z M40,175.3C40,175.3,40,175.3,40,175.3c0,0.1,0,0.1-0.1,0.1l-0.3,0.1c-0.1,0-0.1,0-0.1,0
			c0,0,0,0-0.1-0.1c-0.2-0.4-0.4-0.8-0.8-1.2c0,0,0,0,0-0.1c0,0,0-0.1,0.1-0.1l0.3-0.1c0,0,0.1,0,0.1,0c0,0,0,0,0.1,0
			C39.5,174.5,39.8,174.9,40,175.3z M41.8,177.5v-1h-2.2v1H41.8z M41.8,179.1V178h-2.2v1.1H41.8z M42.5,175.2
			C42.5,175.2,42.5,175.2,42.5,175.2c0,0.1,0,0.1-0.1,0.1l-0.3,0.1c-0.1,0-0.1,0-0.1,0c0,0-0.1,0-0.1-0.1c-0.1-0.5-0.3-0.9-0.6-1.3
			c0,0,0,0,0,0c0,0,0,0,0.1-0.1l0.3-0.1c0,0,0.1,0,0.1,0c0,0,0.1,0,0.1,0C42.2,174.3,42.4,174.8,42.5,175.2z M44.7,177.5v-1h-2.3v1
			H44.7z M44.7,179.1V178h-2.3v1.1H44.7z M45.6,174.3c0,0,0,0.1-0.1,0.1c-0.1,0.1-0.1,0.1-0.2,0.2c-0.2,0.3-0.4,0.6-0.6,1
			c0,0.1-0.1,0.1-0.1,0.1c0,0-0.1,0-0.2-0.1c-0.1-0.1-0.2-0.1-0.4-0.1c0.3-0.3,0.5-0.7,0.7-1c0.1-0.2,0.2-0.4,0.2-0.6
			c0.2,0.1,0.4,0.2,0.6,0.2C45.6,174.2,45.6,174.2,45.6,174.3z"/>
		<path d="M56.4,178.5C56.4,178.6,56.4,178.6,56.4,178.5l-1.4,0.1h-5.8l-1.3,0c-0.1,0-0.1,0-0.1-0.1V178c0-0.1,0-0.1,0.1-0.1l1.3,0
			H55l1.3,0c0.1,0,0.1,0,0.1,0.1V178.5z"/>
		<path d="M57.4,179.9c0.8-1.6,1.5-3,2.1-4.3c0.1-0.3,0.4-0.5,0.6-0.5c0.3,0,0.5,0.1,0.7,0.4c0.5,0.7,1.1,1.7,2,3
			c0.9,1.2,1.5,2.2,1.9,2.7l-0.7,0.5c-0.9-1.3-2.1-3.2-3.7-5.6c0-0.1-0.1-0.1-0.2-0.1c-0.1,0-0.1,0-0.2,0.1c-0.6,1.2-1.2,2.6-2,4.1
			L57.4,179.9z M63.5,174.2c0.3,0,0.6,0.1,0.8,0.4c0.2,0.2,0.3,0.5,0.3,0.7c0,0.3-0.1,0.6-0.4,0.8c-0.2,0.2-0.5,0.3-0.8,0.3
			c-0.3,0-0.6-0.1-0.8-0.4c-0.2-0.2-0.3-0.5-0.3-0.8c0-0.3,0.1-0.6,0.4-0.8C62.9,174.3,63.2,174.2,63.5,174.2z M63.5,174.6
			c-0.2,0-0.4,0.1-0.5,0.2c-0.1,0.1-0.2,0.3-0.2,0.5c0,0.2,0.1,0.4,0.2,0.5c0.1,0.1,0.3,0.2,0.5,0.2c0.2,0,0.4-0.1,0.5-0.2
			c0.1-0.1,0.2-0.3,0.2-0.5c0-0.2-0.1-0.4-0.2-0.5C63.8,174.7,63.6,174.6,63.5,174.6z"/>
		<path d="M65.2,178h5.4v0.7h-5.4V178z"/>
		<path d="M71.2,177.3l0.3-0.6c1.2,0.5,2,0.8,2.3,1l-0.4,0.7C72.9,178.1,72.1,177.7,71.2,177.3z M77.3,175.8l0.7,0.4
			c-0.2,0.8-0.5,1.5-0.8,2.3c-0.3,0.7-0.7,1.2-1,1.6c-1,1.1-2.3,1.8-4,2.1l-0.4-0.6c1.6-0.3,2.8-0.9,3.8-2
			C76.3,178.7,76.9,177.5,77.3,175.8z M72.1,175.2l0.4-0.6c1,0.4,1.7,0.8,2.3,1.1l-0.4,0.7C73.8,176,73,175.6,72.1,175.2z M76,173.9
			l0.5-0.2c0.3,0.4,0.5,1,0.7,1.7l-0.5,0.2C76.5,175,76.3,174.4,76,173.9z M77.2,173.6l0.5-0.2c0.3,0.4,0.5,1,0.7,1.6l-0.5,0.2
			C77.7,174.6,77.4,174,77.2,173.6z"/>
		<path d="M81.2,174.7h6.5c-0.1,0.9-0.3,1.6-0.6,2.2c-0.3,0.6-0.7,1.1-1.2,1.5l-0.6-0.5c0.4-0.4,0.8-0.8,1.1-1.3
			c0.2-0.4,0.4-0.9,0.4-1.3h-5.6V174.7z M81.5,181.9c0.9-0.4,1.5-0.9,1.8-1.5c0.4-0.6,0.5-1.5,0.5-2.6v-1.6h0.8v1.6
			c0,1.4-0.3,2.4-0.8,3.2c-0.4,0.6-1,1.1-1.8,1.5L81.5,181.9z"/>
		<path d="M46.7,187.5c-0.1,1.8-0.4,3.2-1,4.2c-0.7,1.3-1.9,2.2-3.7,2.8l-0.4-0.6c1.5-0.5,2.6-1.3,3.3-2.3c0.6-1,1-2.4,1-4.1h-4.7
			v-0.7H46c0-0.1-0.1-0.2-0.1-0.4c0-0.3,0.1-0.6,0.4-0.8c0.2-0.2,0.5-0.3,0.8-0.3c0.3,0,0.6,0.1,0.8,0.4c0.2,0.2,0.3,0.5,0.3,0.8
			c0,0.3-0.1,0.6-0.4,0.8c-0.2,0.2-0.5,0.3-0.8,0.3C46.9,187.6,46.8,187.6,46.7,187.5z M47,185.8c-0.2,0-0.4,0.1-0.5,0.2
			c-0.1,0.1-0.2,0.3-0.2,0.5c0,0.2,0.1,0.4,0.2,0.5c0.1,0.1,0.3,0.2,0.5,0.2c0.2,0,0.4-0.1,0.5-0.2c0.1-0.1,0.2-0.3,0.2-0.5
			c0-0.2-0.1-0.4-0.2-0.5C47.4,185.8,47.2,185.8,47,185.8z"/>
		<path d="M49.6,186.4v4.9h-0.8v-4.9H49.6z M49.3,193.9c1.2-0.3,2-0.7,2.5-1.3c0.4-0.6,0.6-1.4,0.6-2.6v-3.6h0.8v3.8
			c0,1.4-0.3,2.5-1,3.2c-0.5,0.6-1.4,1-2.6,1.2L49.3,193.9z"/>
		<path d="M55.9,187.7h4.7v0.7h-1.9c0,2-0.3,3.5-0.8,4.4c-0.4,0.8-1.2,1.4-2.2,1.8l-0.6-0.5c0.7-0.3,1.3-0.7,1.7-1.1
			c0.4-0.4,0.7-1,0.9-1.7c0.2-0.7,0.3-1.7,0.3-2.9h-2.2c-0.3,0.9-0.7,1.8-1.3,2.5l-0.6-0.3c0.9-1.1,1.4-2.5,1.7-4.4l0.8,0.1
			C56.1,186.7,56,187.2,55.9,187.7z"/>
		<path d="M60.9,190h5.4v0.7h-5.4V190z"/>
		<path d="M66.9,189.3l0.3-0.6c1.2,0.5,2,0.8,2.3,1l-0.4,0.7C68.7,190.1,67.9,189.7,66.9,189.3z M73,187.8l0.7,0.4
			c-0.2,0.8-0.5,1.5-0.8,2.3c-0.3,0.7-0.7,1.2-1,1.6c-1,1.1-2.3,1.8-4,2.1l-0.4-0.6c1.6-0.3,2.8-0.9,3.8-2
			C72.1,190.7,72.7,189.5,73,187.8z M67.8,187.2l0.4-0.6c1,0.4,1.7,0.8,2.3,1.1l-0.4,0.7C69.5,188,68.8,187.6,67.8,187.2z"/>
		<path d="M77.2,190.8v-1.9h-3.5v-0.6H78v6.1h-4.2v-0.6h3.5v-2.3h-3.3v-0.6H77.2z"/>
		<path d="M78.3,187c0.9,0.5,1.7,1,2.3,1.5l-0.5,0.7c-0.6-0.5-1.4-1-2.3-1.6L78.3,187z M83.3,187.5l0.8,0.4
			c-0.3,1.7-0.9,3.1-1.9,4.1c-1,1.1-2.3,1.9-4,2.3l-0.3-0.7C81,192.9,82.8,190.8,83.3,187.5z"/>
	</g>
	<v:paragraph  v:horizAlign="1"></v:paragraph>
	<v:tabList></v:tabList>
	<v:lf></v:lf>
	<g>
		<rect x="44.8" y="321.3" class="st7" width="35.9" height="21.4"/>
		<path d="M51.7,324.2H55v0.6h-3.3v2.7c0,0.3,0.1,0.5,0.2,0.6c0.2,0.1,0.5,0.2,0.9,0.2c0.7,0,1.3,0,1.9-0.1v0.8
			c-0.7,0.1-1.3,0.1-1.8,0.1c-0.7,0-1.2-0.1-1.5-0.2c-0.3-0.2-0.5-0.6-0.5-1.2v-2.8h-2.2v-0.6h2.2V322h-1.9v-0.7h5.6v0.7h-3V324.2z"
			/>
		<path d="M55.9,328.5c0.6-0.9,1.1-1.9,1.4-3.2c0.3-1.1,0.5-2.4,0.6-3.9l0.8,0.1c-0.2,1.8-0.4,3.3-0.8,4.5c-0.3,1.1-0.8,2.1-1.3,2.9
			L55.9,328.5z M60.2,321.5l0.8-0.1c0.3,2.8,1,5.2,2.1,7.1l-0.7,0.4C61.2,326.8,60.5,324.4,60.2,321.5z M61.2,320.8l0.5-0.2
			c0.2,0.3,0.4,0.9,0.7,1.7l-0.5,0.2C61.7,321.8,61.4,321.2,61.2,320.8z M62.3,320.5l0.5-0.2c0.3,0.4,0.5,1,0.7,1.6l-0.5,0.2
			C62.8,321.5,62.6,320.9,62.3,320.5z"/>
		<path d="M66.4,323.8c-0.8,0.6-1.7,1.2-2.8,1.9l-0.4-0.6c1.1-0.6,2.2-1.3,3.1-2.1c0.9-0.8,1.6-1.5,2.2-2.3l0.7,0.4
			c-0.6,0.8-1.3,1.5-2,2.1v6h-0.8V323.8z"/>
		<path d="M71.5,321.1c0,1.9,0,3.3-0.1,4.1c-0.1,0.7-0.1,1.3-0.3,1.7c-0.3,0.8-0.8,1.5-1.5,2.2l-0.6-0.5c0.6-0.5,1.1-1.1,1.4-2
			c0.1-0.4,0.2-1.1,0.2-2.1c0-0.7,0-1.9,0-3.4H71.5z M73.6,327.9c1.1-0.7,1.9-1.9,2.6-3.4l0.5,0.7c-0.8,1.7-2,3-3.4,3.9l-0.4-0.2
			v-7.8h0.8V327.9z"/>
		<path d="M53.1,333.3h6.5c-0.1,0.9-0.3,1.6-0.6,2.2c-0.3,0.6-0.7,1.1-1.2,1.5l-0.6-0.5c0.4-0.4,0.8-0.8,1.1-1.3
			c0.2-0.4,0.4-0.9,0.4-1.3h-5.6V333.3z M53.4,340.5c0.9-0.4,1.5-0.9,1.8-1.5c0.4-0.6,0.5-1.5,0.5-2.6v-1.6h0.8v1.6
			c0,1.4-0.3,2.4-0.8,3.2c-0.4,0.6-1,1.1-1.8,1.5L53.4,340.5z"/>
		<path d="M65.6,334.1c-0.1,1.8-0.4,3.2-1,4.2c-0.7,1.3-1.9,2.2-3.7,2.8l-0.4-0.6c1.5-0.5,2.6-1.3,3.3-2.3c0.6-1,1-2.4,1-4.1h-4.7
			v-0.7h4.8c0-0.1-0.1-0.2-0.1-0.4c0-0.3,0.1-0.6,0.4-0.8c0.2-0.2,0.5-0.3,0.8-0.3c0.3,0,0.6,0.1,0.8,0.4c0.2,0.2,0.3,0.5,0.3,0.8
			c0,0.3-0.1,0.6-0.4,0.8c-0.2,0.2-0.5,0.3-0.8,0.3C65.8,334.2,65.7,334.2,65.6,334.1z M65.9,332.4c-0.2,0-0.4,0.1-0.5,0.2
			c-0.1,0.1-0.2,0.3-0.2,0.5c0,0.2,0.1,0.4,0.2,0.5c0.1,0.1,0.3,0.2,0.5,0.2c0.2,0,0.4-0.1,0.5-0.2c0.1-0.1,0.2-0.3,0.2-0.5
			c0-0.2-0.1-0.4-0.2-0.5C66.3,332.4,66.1,332.4,65.9,332.4z"/>
		<path d="M68.5,333v4.9h-0.8V333H68.5z M68.2,340.5c1.2-0.3,2-0.7,2.5-1.3c0.4-0.6,0.6-1.4,0.6-2.6V333h0.8v3.8
			c0,1.4-0.3,2.5-1,3.2c-0.5,0.6-1.4,1-2.6,1.2L68.2,340.5z"/>
	</g>
	<v:paragraph  v:horizAlign="1"></v:paragraph>
	<v:tabList></v:tabList>
	<v:lf></v:lf>
	<g>
		<rect x="37.8" y="458" class="st7" width="55.4" height="21.4"/>
		<path d="M43.7,458.2c-0.2-0.5-0.4-0.9-0.5-1.2l0.5-0.2c0.2,0.3,0.4,0.9,0.7,1.7l-0.3,0.1l0.1,0.3c-0.1,2.1-0.6,3.7-1.4,4.7
			c-0.7,0.9-1.8,1.6-3.2,2.1l-0.4-0.6c1.5-0.5,2.6-1.3,3.3-2.3c0.6-1,1-2.3,1-4h-4.7v-0.7H43.7z M44.3,456.8l0.5-0.2
			c0.3,0.4,0.5,1,0.7,1.6l-0.5,0.2C44.8,457.8,44.5,457.3,44.3,456.8z"/>
		<path d="M45.6,459.9h5.6c-0.1,1.9-0.5,3.3-1.4,4.3c-0.7,0.7-1.7,1.3-3.1,1.6l-0.4-0.6c1.4-0.3,2.4-0.9,3-1.7
			c0.6-0.7,0.9-1.7,1-2.9h-4.8V459.9z M46.2,457.8h4.5v0.7h-4.5V457.8z"/>
		<path d="M55.1,458.7h2.6c0,2.3-0.4,4-1.1,5.1c-0.6,0.9-1.6,1.5-3,2l-0.4-0.6c1.4-0.4,2.3-1.1,2.9-2c0.6-0.9,0.8-2.2,0.8-3.9h-4.3
			v2.5h-0.8v-3.1h2.5v-1.5h0.8V458.7z"/>
		<path d="M60.9,459.5h2.5v-1.8h0.8v1.8h1.6v0.7h-1.6v0.7c0,1.6-0.4,2.8-1,3.6c-0.6,0.6-1.5,1.1-2.7,1.4l-0.4-0.6
			c1.3-0.3,2.2-0.7,2.7-1.4c0.5-0.7,0.7-1.6,0.7-2.9v-0.8h-2.5v2.6h-0.8v-2.6h-1.5v-0.7h1.5v-2h0.8V459.5z M64.3,457l0.5-0.2
			c0.2,0.4,0.4,1,0.6,1.7l-0.5,0.2C64.7,458.1,64.5,457.5,64.3,457z M65.4,456.8l0.5-0.1c0.2,0.4,0.4,1,0.6,1.7l-0.5,0.2
			C65.8,457.8,65.6,457.2,65.4,456.8z"/>
		<path d="M66.9,461.3h5.4v0.7h-5.4V461.3z"/>
		<path d="M75.4,459c0.4,0,0.9-0.1,1.5-0.1l0,0.6c-0.5,0.1-1.1,0.1-1.6,0.1c-0.4,1.5-1,3.1-1.8,4.6l-0.6-0.3
			c0.8-1.4,1.3-2.9,1.7-4.3c-0.5,0-1.1,0-1.6,0l0-0.6c0.6,0,1.2,0,1.8,0c0.1-0.6,0.2-1.1,0.3-1.7l0.7,0.1
			C75.7,457.9,75.6,458.4,75.4,459z M77.6,463.2c-0.1-0.7-0.1-1.6-0.1-2.5h0.7c0,0.9,0,1.8,0.1,2.7c0.7,0.3,1.3,0.7,1.8,1.1
			l-0.4,0.7c-0.5-0.5-1-0.8-1.4-1.1v0.2c0,1.1-0.6,1.6-1.8,1.6c-0.6,0-1-0.1-1.3-0.4c-0.3-0.2-0.4-0.5-0.4-0.9
			c0-0.5,0.2-0.8,0.6-1.1c0.3-0.2,0.8-0.3,1.3-0.3C77,463.1,77.3,463.1,77.6,463.2z M77.6,463.8c-0.3-0.1-0.6-0.1-0.8-0.1
			c-0.5,0-0.8,0.1-1,0.2c-0.2,0.1-0.3,0.3-0.3,0.5c0,0.2,0.1,0.4,0.3,0.6c0.2,0.1,0.5,0.2,0.8,0.2c0.7,0,1-0.4,1-1.1L77.6,463.8z
			 M77.6,459.3l0.3-0.6c0.9,0.3,1.7,0.7,2.3,1.1l-0.4,0.6C79.2,460,78.5,459.6,77.6,459.3z"/>
		<path d="M80.8,457.5h0.7c-0.1,3.4-0.2,5.5-0.2,6.2c0,0.5,0.1,0.9,0.3,1.1c0.2,0.2,0.6,0.3,1.1,0.3c0.7,0,1.3-0.2,1.7-0.7
			c0.4-0.4,0.7-1.1,0.9-1.9l0.7,0.3c-0.4,1.9-1.5,2.9-3.3,2.9c-0.8,0-1.4-0.2-1.7-0.5c-0.3-0.3-0.4-0.8-0.4-1.5c0-0.4,0-1.3,0-2.7
			C80.8,459.3,80.8,458.2,80.8,457.5z"/>
		<path d="M85.6,457.9h6.5c-0.1,0.9-0.3,1.6-0.6,2.2c-0.3,0.6-0.7,1.1-1.2,1.5l-0.6-0.5c0.4-0.4,0.8-0.8,1.1-1.3
			c0.2-0.4,0.4-0.9,0.4-1.3h-5.6V457.9z M85.9,465.2c0.9-0.4,1.5-0.9,1.8-1.5c0.4-0.6,0.5-1.5,0.5-2.6v-1.6h0.8v1.6
			c0,1.4-0.3,2.4-0.8,3.2c-0.4,0.6-1,1.1-1.8,1.5L85.9,465.2z"/>
		<path d="M64.8,470.8c-0.1,1.8-0.4,3.2-1,4.2c-0.7,1.3-1.9,2.2-3.7,2.8l-0.4-0.6c1.5-0.5,2.6-1.3,3.3-2.3c0.6-1,1-2.4,1-4.1h-4.7
			v-0.7h4.8c0-0.1-0.1-0.2-0.1-0.4c0-0.3,0.1-0.6,0.4-0.8c0.2-0.2,0.5-0.3,0.8-0.3c0.3,0,0.6,0.1,0.8,0.4c0.2,0.2,0.3,0.5,0.3,0.8
			c0,0.3-0.1,0.6-0.4,0.8c-0.2,0.2-0.5,0.3-0.8,0.3C65.1,470.9,65,470.8,64.8,470.8z M65.2,469c-0.2,0-0.4,0.1-0.5,0.2
			c-0.1,0.1-0.2,0.3-0.2,0.5c0,0.2,0.1,0.4,0.2,0.5c0.1,0.1,0.3,0.2,0.5,0.2c0.2,0,0.4-0.1,0.5-0.2c0.1-0.1,0.2-0.3,0.2-0.5
			c0-0.2-0.1-0.4-0.2-0.5C65.5,469.1,65.4,469,65.2,469z"/>
		<path d="M67.7,469.7v4.9H67v-4.9H67.7z M67.5,477.2c1.2-0.3,2-0.7,2.5-1.3c0.4-0.6,0.6-1.4,0.6-2.6v-3.6h0.8v3.8
			c0,1.4-0.3,2.5-1,3.2c-0.5,0.6-1.4,1-2.6,1.2L67.5,477.2z"/>
	</g>
	<v:paragraph  v:horizAlign="1"></v:paragraph>
	<v:tabList></v:tabList>
	<v:lf></v:lf>
</g>
<g id="source_1_" xmlns:ev="http://www.w3.org/2001/xml-events" xmlns:v="http://schemas.microsoft.com/visio/2003/SVGExtensions/">
	<g id="Arrow">
		<path class="st8" d="M308,296c1.7,0,49.5,0,75.5,0c-0.1-1.2-0.2-1.6-0.3-2.7c2.4,1.2,4.6,2.3,7.1,3.5c-2.5,1.2-4.7,2.4-7.1,3.5
			c0.1-1,0.2-1.6,0.3-2.7c-3.9,0-7.4,0-11,0c-3.7,0-7.6,0-11.4,0c-3.7,0-6.4,0-10.9,0c-3.7,0-7.5,0-11.2,0c-3.7,0-7.1,0-10.8,0
			c-3.7,0-7.6,0-11.4,0c-3.6,0-5,0-8.9,0c-0.1,0-0.9-0.2-0.9-0.8C307,296.2,307.9,296,308,296z"/>
		<g id="shape1579-52_1_" transform="translate(73.5133,-41.2635)">
			<g transform="scale(-2.68,-2.68) ">
				<g id="lend5_2_">
					<path class="st9" d="M308.8,334.1l8,4l-8,4C310.1,339.6,310.1,336.6,308.8,334.1"/>
				</g>
			</g>
		</g>
		<path class="st8" d="M278.1,297.7c-0.7,0-3.3,0-3.9,0c-22,0-43.9,0-65.9,0c-11,0-21.7,8.3-24.2,19c-0.7,2.9-0.9,6-0.9,9
			c-0.1,28.4-0.1,56.7-0.2,85.1c0,12-5.5,20.6-16.3,25.8c-2.9,1.4-6.3,2.2-9.5,2.2c-28.2,0.2-81.3-0.1-84.8-0.1
			c-0.8,0-0.9-0.9,0-0.9c2.9-0.1,54.8,0,82.2,0c11.5,0,19.8-5.3,24.9-15.5c1.8-3.5,2.3-7.3,2.3-11.2c0-19.1,0-38.2,0-57.3
			c0-0.3-0.1-0.7-0.4-1.1c-0.3,0.5-0.5,1-0.8,1.5c-5.2,10.3-13.4,16.1-25.2,16.1c-23,0.1-46,0-69,0c-0.6,0-2.6,0.1-2.9-0.2
			c-0.2-0.1-0.3-0.5-0.2-0.7c0.2-0.5,3-0.4,3.7-0.4c7.3,0,14.2,0,21.5,0c15.7,0,31.3,0,47,0c12.7,0,23.3-8.8,25.7-21.3
			c0.4-1.9,0.3-3.8,0.3-5.7c0.1-7-0.2-14,0.3-21c0.8-10.4,6.7-17.6,15.8-22.3c0.5-0.3,2.1-1,2.6-1.3c0,0,0.1,0-1.1,0
			c-41.6,0-124.5,0-124.6,0c-0.5,0-0.6-0.6-0.4-0.9c0.2-0.4,1.6-0.3,2.4-0.3c17.7,0,35.3,0,53,0.1c21.3,0,42.5,0.1,63.8,0.1
			c0.7,0,1.3,0,2.5,0c-2.1-1.2-3.9-2.1-5.6-3.2c-6.8-4.6-11.1-10.8-12.3-19.1c-0.2-1.5-0.2-3.1-0.2-4.6c0-6.1,0.1-12.2,0-18.2
			c-0.2-10.8-5.6-18.4-14.9-23.3c-3.9-2-8.1-2.6-12.5-2.6c-23.4,0-46.8,0-70.2,0c-0.8,0-2.1,0.1-2.4-0.2c-0.1-0.2-0.1-0.5,0-0.6
			c0.2-0.3,1.1-0.3,1.6-0.3c24.3,0,48.6-0.1,72.9,0.1c11.2,0.1,19,6,24.1,15.7c0.3,0.6,0.6,1.3,1.1,2.4c0.1-1,0.2-1.5,0.2-2
			c0-19.2,0-38.5,0-57.7c0-13-8-23.1-20.7-26c-2.1-0.5-4.3-0.6-6.5-0.6c-23.5,0-47,0-70.5,0c-0.8,0-1.9,0.1-2.3-0.2
			c-0.2-0.2-0.2-0.5-0.1-0.7c0.3-0.4,1.6-0.3,2.5-0.3c16.5,0,33.1,0,49.6,0c8,0,16.1-0.1,24.1,0.2c12.8,0.6,23.8,11.5,24.9,24.2
			c0.2,2,0.3,4,0.3,5.9c0,28,0,56.1,0.1,84.1c0,13.4,7.7,23.2,20.7,26.3c1.8,0.4,3.7,0.5,5.5,0.5c23,0,46,0,69,0c0.6,0,2.7,0,3.4,0"
			/>
		<g id="shape1579-52_2_" transform="translate(73.5133,-41.2635)">
			<g transform="scale(-2.68,-2.68) ">
				<g id="lend5_3_">
					<path class="st9" d="M201.8,334.1l8,4l-8,4C203.1,339.6,203.1,336.6,201.8,334.1"/>
				</g>
			</g>
		</g>
	</g>
	<g>
		<path class="st8" d="M276.6,296.8c0-2-0.8-3.1-1.4-4.3c2.8,1.5,5.5,2.9,8.2,4.3c-2.7,1.4-5.4,2.8-8.2,4.3
			C275.8,299.7,276.6,298.6,276.6,296.8z"/>
	</g>
	<g>
		<path class="st8" d="M383.5,296.9c0-2-0.8-3.1-1.4-4.3c2.8,1.5,5.5,2.9,8.2,4.3c-2.7,1.4-5.4,2.8-8.2,4.3
			C382.7,299.7,383.5,298.6,383.5,296.9z"/>
	</g>
</g>
</svg>
