<svg xmlns="http://www.w3.org/2000/svg" viewBox="0 0 204.71 69.22"><defs><style>.cls-1,.cls-3{fill:#008bfd;}.cls-2{fill:#505050;}.cls-3{stroke:gray;stroke-linecap:round;stroke-linejoin:round;stroke-width:0.75px;}.cls-4{fill:#fff;}.cls-5{fill:#00b0f0;}</style></defs><title>OJ104546510</title><g id="shapes"><g id="group1071-4"><g id="group1072-5"><g id="shape1073-6"><path class="cls-1" d="M66,32.83a11.78,11.78,0,0,1-16.84-2.29,12.56,12.56,0,0,1,2.24-17.29,11.82,11.82,0,0,1,16.84,2.3A12.54,12.54,0,0,1,66,32.83Zm3.66-18.41a13.57,13.57,0,0,0-19.36-2.63,14.43,14.43,0,0,0-2.55,19.87A13.55,13.55,0,0,0,67.13,34.3,14.45,14.45,0,0,0,69.69,14.42Z"/></g></g><g id="group1074-8"><g id="group1075-9"><g id="group1076-10"><g id="shape1077-11"><path class="cls-1" d="M52.06,25.61a17,17,0,0,1-2-2.35,18.28,18.28,0,0,0-1.66,6.88c.11.16.11.29.23.45a13.4,13.4,0,0,0,2,2.05A14.14,14.14,0,0,1,52.06,25.61Z"/></g></g><g id="shape1078-13"><path class="cls-1" d="M56.67,16.17a21,21,0,0,0-3.33,3,15.71,15.71,0,0,0-1.61,2.05,15.93,15.93,0,0,0,1.9,2.47,15.93,15.93,0,0,1,2.2-2.57A26.31,26.31,0,0,1,59,18.5C58.16,17.73,57.38,17,56.67,16.17Z"/></g><g id="group1079-15"><g id="shape1080-16"><path class="cls-1" d="M68.14,15.37a12.47,12.47,0,0,0-1.73-1.82,12.55,12.55,0,0,0-8,1.54c.76.83,1.51,1.62,2.24,2.36C65,15,68.14,15.37,68.14,15.37Z"/></g></g><g id="group1081-18"><g id="shape1082-19"><path class="cls-1" d="M50.54,32.64a19.94,19.94,0,0,1,1.19-2.07,9.83,9.83,0,0,1-1.6-6.79,13.9,13.9,0,0,0-1.29,1.6C48.46,27,48.44,29.55,50.54,32.64Z"/></g></g><g id="group1083-21"><g id="shape1084-22"><path class="cls-1" d="M55.9,25.79a22.67,22.67,0,0,1-2.27-2.13,13.15,13.15,0,0,0-1.14,1.95,25.16,25.16,0,0,0,2.09,1.9A19.15,19.15,0,0,0,67.14,31.9,9.13,9.13,0,0,0,68.68,30C67.45,30.21,62.19,30.9,55.9,25.79Z"/></g></g><g id="group1085-24"><g id="shape1086-25"><path class="cls-1" d="M50.54,23.26a16.8,16.8,0,0,0,2,2.35,14.09,14.09,0,0,1,1.14-1.95,15.93,15.93,0,0,1-1.9-2.47A15.67,15.67,0,0,0,50.54,23.26Z"/></g></g><g id="group1087-27"><g id="shape1088-28"><path class="cls-1" d="M59,18.49a98.68,98.68,0,0,0,11.15,8.83,10.76,10.76,0,0,0,.33-1.06,95,95,0,0,1-9.83-8.81A17.67,17.67,0,0,0,59,18.49Z"/></g></g><g id="group1089-30"><g id="shape1090-31"><path class="cls-1" d="M58.38,15.08c-1.1-1.18-2.22-2.44-3.36-3.8a11.09,11.09,0,0,0-1.59.66,26.8,26.8,0,0,0,3.24,4.23A15.69,15.69,0,0,1,58.38,15.08Z"/></g></g><g id="shape1091-33"><path class="cls-1" d="M58.45,15a18.74,18.74,0,0,0-1.87,1.19c.72.79,1.45,1.59,2.25,2.36.57-.41,1.34-.89,1.87-1.19C60,16.67,59.21,15.88,58.45,15Z"/></g><g id="shape1092-35"><path class="cls-1" d="M58.25,14.94a14.89,14.89,0,0,0-1.67,1.13c.72.78,1.74,1.8,2.54,2.57a18.53,18.53,0,0,1,1.58-1.11C60,16.8,59,15.78,58.25,14.94Z"/></g></g><g id="group1093-37"><g id="shape1094-38"><path class="cls-1" d="M64.3,21.49a2.71,2.71,0,0,0-.48,3.71,2.55,2.55,0,0,0,3.63.5A2.72,2.72,0,0,0,67.93,22,2.55,2.55,0,0,0,64.3,21.49Z"/></g></g><g id="group1095-40"><g id="shape1096-41"><path class="cls-1" d="M49.34,28.11a2.51,2.51,0,0,0-.45,3.43,2.37,2.37,0,0,0,3.36.46,2.49,2.49,0,0,0,.44-3.43A2.35,2.35,0,0,0,49.34,28.11Z"/></g></g><g id="group1097-43"><g id="shape1098-44"><path class="cls-1" d="M50,20.3a3.79,3.79,0,0,0-.68,5.21,3.57,3.57,0,0,0,5.1.69A3.8,3.8,0,0,0,55.08,21,3.58,3.58,0,0,0,50,20.3Z"/></g></g></g></g><g id="shape1099-49"><path class="cls-1" d="M191.76,10.11h-20.5a1.1,1.1,0,0,0-1.09,1.11V28a1.09,1.09,0,0,0,1.09,1.1h5.28a3.29,3.29,0,0,0,3.21,2.27,3.37,3.37,0,0,0,0-6.74,3.29,3.29,0,0,0-3.21,2.27h-4.19v-12h18.31v12h-3.45a7.61,7.61,0,0,0-7.46-6.57,8.25,8.25,0,0,0-3.64.92l1,2a5.28,5.28,0,0,1,2.55-.68,5.46,5.46,0,0,1,0,10.92,5.28,5.28,0,0,1-2.55-.68l-1,2a7.51,7.51,0,0,0,3.64.92,7.61,7.61,0,0,0,7.46-6.57h4.55a1.09,1.09,0,0,0,1.09-1.1V11.22A1.14,1.14,0,0,0,191.76,10.11Z"/></g><g id="shape1100-52"><g id="lend5"><path class="cls-2" d="M161.69,18.87l8.05,4-8,4a9,9,0,0,0,0-8"/></g></g><g id="group1101-58"><g id="group1102-59"><g id="group1103-60"><g id="group1104-61"><g id="shape1105-62"><path class="cls-1" d="M7.85,15.21a4.49,4.49,0,0,0-3,5.66c.66,2.55,3,4.22,5.27,3.66a4.49,4.49,0,0,0,3-5.66C12.57,16.2,10.16,14.54,7.85,15.21Z"/></g></g><g id="group1106-64"><g id="shape1107-65"><path class="cls-1" d="M12.79,25.22c-.44,0-.88.78-1.54,1.11s-1.32.89-3.18,0S6,24.66,4.44,24.66.38,27.44.38,31.55H16a12.09,12.09,0,0,0-1.1-4.22C13.77,25.22,13.23,25.22,12.79,25.22Z"/></g></g></g></g><g id="group1108-67"><g id="shape1109-68"><path class="cls-3" d="M14.19,20.28H10.07a.71.71,0,0,0-.65.65v2.85a.73.73,0,0,0,.76.66h.76v5.15a1,1,0,0,0,1,1.1,1,1,0,0,0,1-1h.21V29c0-.22.33-.33.33-.33v-.33c-.33-.1-.54-.32-.54-.43v-.33l.21-.22a3.53,3.53,0,0,0,.33-.55,2.4,2.4,0,0,1-.33-.55c-.1-.11-.1-.33-.21-.44v-.21a2.51,2.51,0,0,1,.76-1.1h.54a.71.71,0,0,0,.65-.66v-3A.63.63,0,0,0,14.19,20.28ZM11.8,29.81c0,.22,0,.33-.21.33s-.22-.22-.22-.33V25c0-.22.11-.33.22-.33s.21.22.21.33ZM12.13,22a.66.66,0,0,1,0-1.32.71.71,0,0,1,.65.66A.63.63,0,0,1,12.13,22Z"/></g><g id="shape1110-70"><path class="cls-4" d="M11.57,30.12a.25.25,0,0,1-.22-.23v-5a.22.22,0,1,1,.44,0V30C11.79,30.12,11.68,30.12,11.57,30.12Z"/></g><g id="shape1111-72"><ellipse class="cls-4" cx="12.14" cy="21.35" rx="0.66" ry="0.67"/></g></g></g></g><g id="text"><path d="M169.33,48.63h-.91l-.74-2h-3l-.7,2h-.91l2.68-7h.85Zm-1.92-2.7-1.1-3a2.59,2.59,0,0,1-.11-.46h0a2.6,2.6,0,0,1-.11.46l-1.09,3Z"/><path d="M171.18,46v2.65h-.82v-7h1.92a2.55,2.55,0,0,1,1.74.54,2,2,0,0,1,.62,1.55,2.13,2.13,0,0,1-.69,1.63,2.61,2.61,0,0,1-1.85.63Zm0-3.61v2.87H172a1.89,1.89,0,0,0,1.29-.39,1.36,1.36,0,0,0,.45-1.09c0-.93-.55-1.39-1.64-1.39Z"/><path d="M176.78,48.63H176v-7h.82Z"/><path d="M180.58,41.19h6.51a7,7,0,0,1-.61,2.21,5.16,5.16,0,0,1-1.21,1.51l-.59-.49a4.21,4.21,0,0,0,1-1.26,3.44,3.44,0,0,0,.43-1.3h-5.58Zm.3,7.22a3.93,3.93,0,0,0,1.79-1.51,5.24,5.24,0,0,0,.55-2.64V42.68H184v1.6a5.52,5.52,0,0,1-.81,3.21A4.92,4.92,0,0,1,181.36,49Z"/><path d="M193.09,42a9.48,9.48,0,0,1-1,4.23,6.39,6.39,0,0,1-3.65,2.79l-.42-.6a6.11,6.11,0,0,0,3.25-2.32,7.58,7.58,0,0,0,1-4.1H187.6v-.67h4.79a.94.94,0,0,1-.07-.39,1.12,1.12,0,0,1,1.12-1.12,1.06,1.06,0,0,1,.83.37,1.12,1.12,0,0,1-.83,1.87A1,1,0,0,1,193.09,42Zm.35-1.75a.67.67,0,0,0-.52.22.71.71,0,0,0-.17.47.7.7,0,0,0,1.21.47.73.73,0,0,0,.17-.47.68.68,0,0,0-.23-.52A.67.67,0,0,0,193.44,40.28Z"/><path d="M196,40.94v4.9h-.77v-4.9Zm-.29,7.5a4,4,0,0,0,2.48-1.3,4.35,4.35,0,0,0,.64-2.61V40.88h.78v3.75a4.51,4.51,0,0,1-1,3.18A4.87,4.87,0,0,1,196.07,49Z"/><path d="M31.38,45.87l.34-.6a18.33,18.33,0,0,1,2.35,1L33.7,47A13.53,13.53,0,0,0,31.38,45.87Zm6.13-1.48.7.39A10.84,10.84,0,0,1,37.39,47a7.39,7.39,0,0,1-1,1.6,7.22,7.22,0,0,1-4,2.13L32,50.13a6.51,6.51,0,0,0,3.8-2A8.3,8.3,0,0,0,37.51,44.39Zm-5.24-.66.38-.59a14.52,14.52,0,0,1,2.28,1.09l-.4.65A12.63,12.63,0,0,0,32.27,43.73Z"/><path d="M39,43.56a15.79,15.79,0,0,1,2.35,1.49l-.5.66a13.45,13.45,0,0,0-2.3-1.56Zm5,.49.75.37A7.45,7.45,0,0,1,39,50.87l-.34-.68A6.81,6.81,0,0,0,44.08,44.05Z"/><path d="M50.59,43.68a9.72,9.72,0,0,0-.6-1.37l.51-.2a13.08,13.08,0,0,1,.74,1.69l-.4.16.32.42a9.51,9.51,0,0,1-1.93,4.69,7.43,7.43,0,0,1-3,2.08l-.44-.53A7,7,0,0,0,49,48.25a9.14,9.14,0,0,0,1.41-3.9H47.55a9.25,9.25,0,0,1-1.84,2.87l-.57-.44a8.71,8.71,0,0,0,2.16-4.16l.79.13c-.07.25-.17.57-.29.93Zm.57-1.6.5-.18a8.35,8.35,0,0,1,.71,1.64l-.52.21A9.26,9.26,0,0,0,51.16,42.08Z"/><path d="M55.58,43.06q0,2.85-.09,4.11a7.37,7.37,0,0,1-.29,1.67A4.66,4.66,0,0,1,53.74,51l-.58-.46a3.64,3.64,0,0,0,1.36-2,9.08,9.08,0,0,0,.25-2.06c0-.74,0-1.88,0-3.44Zm2.13,6.79a7.51,7.51,0,0,0,2.6-3.44l.51.67A9.08,9.08,0,0,1,57.38,51L57,50.77V43h.76Z"/><path d="M64.78,48.48Q66,46.11,66.9,44.22a.69.69,0,0,1,.63-.5.82.82,0,0,1,.7.41l2,3c.86,1.24,1.48,2.16,1.88,2.74l-.66.52q-1.35-2-3.7-5.63a.18.18,0,0,0-.16-.1c-.08,0-.13,0-.17.13q-.87,1.86-2,4.07Zm6.09-5.73a1.06,1.06,0,0,1,.83.37,1,1,0,0,1,.29.74A1.12,1.12,0,0,1,70.87,45a1.09,1.09,0,0,1-.83-.37,1.13,1.13,0,0,1-.29-.76,1.11,1.11,0,0,1,1.12-1.11Zm0,.43a.64.64,0,0,0-.51.22.7.7,0,0,0,0,1,.69.69,0,0,0,.47.18.68.68,0,0,0,.52-.23.7.7,0,0,0,.17-.47.65.65,0,0,0-.22-.51A.67.67,0,0,0,70.87,43.18Z"/><path d="M72.81,46.57h5.44v.75H72.81Z"/><path d="M79.06,45.87l.34-.6a17.68,17.68,0,0,1,2.35,1l-.37.67A13.17,13.17,0,0,0,79.06,45.87Zm6.14-1.48.69.39A10.3,10.3,0,0,1,85.07,47a7,7,0,0,1-1,1.6,7.18,7.18,0,0,1-4,2.13l-.41-.63a6.48,6.48,0,0,0,3.8-2A8.3,8.3,0,0,0,85.2,44.39ZM80,43.73l.37-.59a13.68,13.68,0,0,1,2.28,1.09l-.4.65A12.15,12.15,0,0,0,80,43.73Zm4-1.33.51-.2a10.6,10.6,0,0,1,.74,1.69l-.54.23A9.24,9.24,0,0,0,83.93,42.4Zm1.17-.29.5-.18a8.35,8.35,0,0,1,.71,1.64l-.52.21A9.26,9.26,0,0,0,85.1,42.11Z"/><path d="M32.82,55.23h6.51a7.1,7.1,0,0,1-.61,2.22A5,5,0,0,1,37.51,59l-.59-.49A4.4,4.4,0,0,0,38,57.21a3.66,3.66,0,0,0,.42-1.3H32.82Zm.3,7.23A3.93,3.93,0,0,0,34.91,61a5.27,5.27,0,0,0,.55-2.64V56.72h.77v1.61a5.57,5.57,0,0,1-.8,3.2A5.06,5.06,0,0,1,33.6,63Z"/><path d="M45.58,56.07a9.43,9.43,0,0,1-1,4.24A6.39,6.39,0,0,1,41,63.1l-.42-.6a6.11,6.11,0,0,0,3.25-2.32,7.53,7.53,0,0,0,1-4.11H40.09v-.66h4.79a1.24,1.24,0,0,1-.07-.4,1.13,1.13,0,0,1,1.95-.75,1.12,1.12,0,0,1,.29.75,1.07,1.07,0,0,1-.37.84,1.08,1.08,0,0,1-.75.29A.84.84,0,0,1,45.58,56.07Zm.35-1.74a.67.67,0,0,0-.52.22.71.71,0,0,0-.17.46.67.67,0,0,0,.23.52.63.63,0,0,0,.46.18.68.68,0,0,0,.52-.23.7.7,0,0,0,.17-.47.66.66,0,0,0-.23-.51A.63.63,0,0,0,45.93,54.33Z"/><path d="M48.73,55v4.9H48V55Zm-.28,7.5a4,4,0,0,0,2.48-1.3,4.43,4.43,0,0,0,.64-2.62V54.93h.77v3.75a4.47,4.47,0,0,1-1,3.18,5,5,0,0,1-2.56,1.23Z"/><path d="M55.27,56.24H60v.66H58a9.32,9.32,0,0,1-.8,4.38A4.55,4.55,0,0,1,55,63.11l-.56-.49a5,5,0,0,0,1.66-1.07A3.78,3.78,0,0,0,57,59.82a14,14,0,0,0,.28-2.92H55.09a7.72,7.72,0,0,1-1.3,2.5l-.64-.34a8.53,8.53,0,0,0,1.67-4.42l.76.1C55.49,55.26,55.39,55.76,55.27,56.24Z"/><path d="M60.59,58.57H66v.75H60.59Z"/><path d="M66.83,57.87l.34-.6a18.33,18.33,0,0,1,2.35,1l-.37.67A13.53,13.53,0,0,0,66.83,57.87ZM73,56.39l.69.39A10.84,10.84,0,0,1,72.84,59a7.39,7.39,0,0,1-1,1.6,7.18,7.18,0,0,1-4,2.13l-.41-.63a6.51,6.51,0,0,0,3.8-2A8.41,8.41,0,0,0,73,56.39Zm-5.24-.66.37-.59a14.52,14.52,0,0,1,2.28,1.09l-.4.65A12.84,12.84,0,0,0,67.73,55.73Z"/><path d="M77.4,59.31V57.4H74v-.65h4.2v6.13H73.9v-.64h3.5V60H74.09v-.64Z"/><path d="M78.68,55.56A15.64,15.64,0,0,1,81,57.05l-.49.66a14.29,14.29,0,0,0-2.3-1.56Zm5,.49.76.37a8.17,8.17,0,0,1-1.86,4.14,8,8,0,0,1-4,2.31l-.34-.68A6.8,6.8,0,0,0,83.71,56.05Z"/><path class="cls-5" d="M97.94,12.8s0,.08-.08.08h-.41a.07.07,0,0,1-.08-.08v-.49H96v.82s0,.08-.08.08h-.42a.07.07,0,0,1-.08-.08l0-3.16V8.11l0-2.38a.07.07,0,0,1,.08-.08l.82,0h.71l.81,0c.06,0,.08,0,.08.08l0,2.08v2Zm-.57-4.15V6.2H96V8.65Zm0,3.13V9.17H96v2.61ZM104,9.07s0,.08-.09.08l-1.37,0H99.68l-1.37,0a.07.07,0,0,1-.08-.08v-.4a.07.07,0,0,1,.08-.08l1.37,0h1.87A11.44,11.44,0,0,0,102,7.45c0-.2.08-.36.1-.49a3.32,3.32,0,0,1,.55.13c.08,0,.12.06.12.1s0,.08-.08.14a1.49,1.49,0,0,0-.14.27c-.16.4-.32.74-.46,1h.43l1.37,0c.06,0,.09,0,.09.08Zm-.29-2.38c0,.06,0,.09-.08.09l-1.32,0H99.92l-1.32,0s-.08,0-.08-.09v-.4s0-.07.08-.07l1.32,0h.8V6a4.5,4.5,0,0,0-.07-.93,6.12,6.12,0,0,1,.63.06c.08,0,.12,0,.12.08a.59.59,0,0,1-.06.18,2.6,2.6,0,0,0,0,.62v.23h1l1.32,0c.06,0,.08,0,.08.07ZM103.05,14c0,.06,0,.08-.08.08h-.42c-.06,0-.09,0-.09-.08v-.45H99.63V14c0,.06,0,.08-.08.08h-.42s-.08,0-.08-.08l0-1.82v-.9l0-1.2a.07.07,0,0,1,.08-.08l1.16,0h1.52L103,10a.07.07,0,0,1,.08.08l0,1.08v1ZM100.3,8.18a.08.08,0,0,1,0,0s0,0-.1.07l-.28.08-.11,0s0,0-.06-.07a5.06,5.06,0,0,0-.39-1.11l0-.06s0,0,.1-.06L99.73,7l.08,0s0,0,.06.06A4.76,4.76,0,0,1,100.3,8.18Zm2.16,3.31v-1H99.63v1Zm0,1.53V12H99.63v1Z"/><path class="cls-5" d="M109.56,10.37a1,1,0,0,0-.06.31c0,.09,0,.15,0,.17l-.15.05q-1.3.27-3.54.57a1,1,0,0,0-.36.1l-.15,0s-.07,0-.1-.13A5.15,5.15,0,0,1,105,11c.31,0,.62,0,.93,0s.77-.07,1.25-.14v-.9h-.54l-1.16,0c-.06,0-.09,0-.09-.08V9.44s0-.08.09-.08l1.16,0h.54V8.65h-.45l-1.13,0a.07.07,0,0,1-.08-.08l0-.88V6.54l0-.89a.07.07,0,0,1,.08-.08l1.13,0h1.43l1.14,0a.07.07,0,0,1,.08.08l0,.89V7.71l0,.88a.07.07,0,0,1-.08.08l-1.14,0h-.46v.73h.5l1.16,0a.07.07,0,0,1,.08.08V9.8a.07.07,0,0,1-.08.08l-1.16,0h-.5v.83C108.33,10.6,108.94,10.49,109.56,10.37Zm-2.71,1.94a7.54,7.54,0,0,1-1.07,1.53s0,0-.07,0a.26.26,0,0,1-.12-.07l-.27-.21c-.06,0-.09-.09-.09-.11a.09.09,0,0,1,0-.06,4.56,4.56,0,0,0,1-1.4s0-.06.05-.06l.11,0,.29.15c.06,0,.1.06.1.09Zm.36-5.42V6h-1.12v.85Zm0,1.32V7.32h-1.12v.89Zm1.67-1.32V6h-1.15v.85Zm0,1.32V7.32h-1.15v.89Zm-.12,5.44c0,.06,0,.09-.13.11l-.33,0h-.06s-.08,0-.08-.08a8.33,8.33,0,0,0-.2-1.5v0s0,0,.12-.06l.29,0h.06s.06,0,.08.07A6.92,6.92,0,0,1,108.76,13.65Zm5.14-2.4a2.17,2.17,0,0,0-.31.37c-.06.09-.1.13-.12.13a.29.29,0,0,1-.13-.09,6.39,6.39,0,0,1-1.14-1.42,6,6,0,0,1-.62-1.69,5.57,5.57,0,0,1-.34,1.13,5.42,5.42,0,0,1-.71,1.2,4.63,4.63,0,0,1-.77.76.36.36,0,0,1-.14.09s-.07,0-.13-.12a1.75,1.75,0,0,0-.33-.28,4.45,4.45,0,0,0,1.62-1.91,5,5,0,0,0,.37-1.5h-1.3c-.06,0-.08,0-.08-.07v-.4s0-.08.08-.08l1.14,0h.21c0-.33,0-.6,0-.79a10,10,0,0,0-.07-1.4,6,6,0,0,1,.61.06c.09,0,.13.06.13.1l0,.19a2.74,2.74,0,0,0-.06.73q0,.6,0,1.11h.77l1.15,0a.07.07,0,0,1,.08.08v.4s0,.07-.08.07h-1.81a6.12,6.12,0,0,0,.86,2.11A5,5,0,0,0,113.9,11.25ZM111,13.56a.43.43,0,0,0,0,0s0,.06-.12.08l-.32.08-.1,0s-.06,0-.07-.08a7.26,7.26,0,0,0-.43-1.45.11.11,0,0,1,0,0s0-.05.11-.07l.3-.08h.06s.05,0,.07,0A8.36,8.36,0,0,1,111,13.56Zm2.58-.13a.07.07,0,0,1,0,.06s0,.06-.1.1l-.29.18-.1.05s0,0-.06-.06a8,8,0,0,0-1-1.53s0,0,0-.06,0,0,.1-.08l.26-.14.09,0a.15.15,0,0,1,.08.05A8.52,8.52,0,0,1,113.61,13.43Zm-.19-6.92a.1.1,0,0,1,0,.06s0,0-.07.08l-.22.13-.12.06s0,0,0,0a5.44,5.44,0,0,0-.64-1,.15.15,0,0,1,0-.06s0,0,.07-.07l.22-.12.08,0s0,0,.06,0A5.76,5.76,0,0,1,113.42,6.51Z"/><path class="cls-5" d="M118.54,13.43c0,.06,0,.08-.08.08H118s-.08,0-.08-.08v-.57H116v.79c0,.06,0,.08-.08.08h-.43s-.08,0-.08-.08l0-2.87V9.07l0-2.18c0-.06,0-.08.08-.08l.88,0a9,9,0,0,0,.37-1.16,2.25,2.25,0,0,0,.07-.58,3.25,3.25,0,0,1,.65.15c.07,0,.11.06.11.11a.19.19,0,0,1-.07.13.67.67,0,0,0-.16.29c-.15.44-.28.8-.39,1.06h.51l1,0c.06,0,.08,0,.08.08l0,1.93v1.84ZM118,9.51V7.35H116V9.51Zm0,2.82V10H116v2.29ZM123.65,7c0,.17,0,.42,0,.75a31.35,31.35,0,0,1-.32,4.88,2.36,2.36,0,0,1-.43,1.16,1,1,0,0,1-.81.35c-.28,0-.6,0-.95,0A.34.34,0,0,1,121,14a.89.89,0,0,1,0-.18,1.52,1.52,0,0,0-.17-.46,8.73,8.73,0,0,0,1.19.13H122c.34,0,.57-.38.7-1.12A32.68,32.68,0,0,0,123,7.44h-2.93a10.09,10.09,0,0,1-.8,1.34c-.06.08-.1.12-.13.12s-.08,0-.15-.1a1.27,1.27,0,0,0-.33-.24A8.63,8.63,0,0,0,120.09,6a3.86,3.86,0,0,0,.19-.89,5.65,5.65,0,0,1,.62.18c.1,0,.15.08.15.13a.26.26,0,0,1-.11.18,1.69,1.69,0,0,0-.23.47c-.1.25-.22.54-.36.85h2.12l1.09,0A.08.08,0,0,1,123.65,7Zm-2,3.86a.39.39,0,0,1,0,.06s0,.07-.1.11l-.29.21-.1.05s0,0,0-.05a8,8,0,0,0-1.26-1.92.09.09,0,0,1,0,0s0-.05.1-.1L120.2,9a.21.21,0,0,1,.09-.05s0,0,0,0A7.36,7.36,0,0,1,121.66,10.82Z"/><path class="cls-5" d="M124.35,6.11h5.51a9.44,9.44,0,0,1-1.29,5.36,6.88,6.88,0,0,1-3.36,2.33l-.42-.6A6.06,6.06,0,0,0,128,10.88a7.49,7.49,0,0,0,1-4.1h-4.67Z"/><path class="cls-5" d="M131,13.32V6.17h5.22v7.15Zm4.45-.67V6.84h-3.69v5.81Z"/><path class="cls-5" d="M137.07,9.28h5.44V10h-5.44Z"/><rect class="cls-2" x="72.98" y="21.99" width="90.64" height="1.75" rx="0.76"/></g></svg>