<svg id="svg1546" xmlns="http://www.w3.org/2000/svg" viewBox="0 0 204.71 69.22">
  <defs>
    <style>
      .cls-1, .cls-8 {
        fill: none;
      }

      .cls-2 {
        isolation: isolate;
      }

      .cls-3 {
        fill: #00b0f0;
      }

      .cls-4, .cls-5, .cls-9 {
        fill: #008bfd;
      }

      .cls-5 {
        stroke: gray;
        stroke-linejoin: round;
        stroke-width: 0.75px;
      }

      .cls-5, .cls-8 {
        stroke-linecap: round;
      }

      .cls-6 {
        fill: #fff;
      }

      .cls-7 {
        fill: #505050;
      }

      .cls-8 {
        stroke: #505050;
        stroke-miterlimit: 10;
        stroke-width: 2px;
      }

      .cls-9 {
        fill-rule: evenodd;
      }
    </style>
  </defs>
  <title>OJ104546510</title>
  <g id="shape1069-1">
    <rect id="rect1363" class="cls-1" x="78.35" y="0.37" width="80.48" height="20"/>
    <g id="text1365" class="cls-2">
      <path class="cls-3" d="M95.17,12.8a.07.07,0,0,1-.08.08h-.41a.07.07,0,0,1-.08-.08v-.49H93.25v.82s0,.08-.08.08h-.42a.07.07,0,0,1-.08-.08l0-3.16V8.11l0-2.38a.07.07,0,0,1,.08-.08l.82,0h.71l.81,0a.07.07,0,0,1,.08.08l0,2.08v2ZM94.6,8.65V6.2H93.25V8.65Zm0,3.13V9.17H93.25v2.61Zm6.61-2.71s0,.08-.09.08l-1.37,0H96.91l-1.37,0a.07.07,0,0,1-.08-.08v-.4a.07.07,0,0,1,.08-.08l1.37,0h1.87a11.44,11.44,0,0,0,.45-1.16c0-.2.08-.36.1-.49a3.32,3.32,0,0,1,.55.13c.08,0,.12.06.12.1s0,.08-.08.14a1.19,1.19,0,0,0-.14.27c-.16.4-.32.74-.46,1h.43l1.37,0c.06,0,.09,0,.09.08Zm-.29-2.38c0,.06,0,.09-.08.09l-1.32,0H97.15l-1.32,0s-.08,0-.08-.09v-.4s0-.07.08-.07l1.32,0H98V6a4.5,4.5,0,0,0-.07-.93q.32,0,.63.06c.08,0,.12,0,.12.08a.59.59,0,0,1-.06.18,2.6,2.6,0,0,0,0,.62v.23h1l1.32,0s.08,0,.08.07ZM100.28,14c0,.06,0,.08-.08.08h-.43s-.08,0-.08-.08v-.45H96.86V14c0,.06,0,.08-.08.08h-.42s-.08,0-.08-.08l0-1.82v-.9l0-1.2c0-.05,0-.08.08-.08l1.16,0H99l1.16,0a.07.07,0,0,1,.08.08l0,1.08v1ZM97.53,8.18a.08.08,0,0,1,0,0s0,0-.1.07l-.28.08-.11,0s0,0-.06-.07a5.06,5.06,0,0,0-.39-1.11l0-.06s0,0,.1-.06L97,7,97,7s0,0,.06.06A4.76,4.76,0,0,1,97.53,8.18Zm2.16,3.31v-1H96.86v1Zm0,1.53V12H96.86v1Z"/>
      <path class="cls-3" d="M106.56,10.37a1,1,0,0,0-.06.31c0,.09,0,.15,0,.17l-.16.05c-.87.18-2,.37-3.53.57a1,1,0,0,0-.36.1.5.5,0,0,1-.15,0c-.05,0-.08,0-.1-.14A2.34,2.34,0,0,1,102,11c.31,0,.62,0,.92,0s.78-.07,1.25-.14v-.9h-.53l-1.17,0a.07.07,0,0,1-.08-.08V9.44a.07.07,0,0,1,.08-.08l1.17,0h.53V8.65h-.45l-1.12,0c-.06,0-.08,0-.08-.08l0-.88V6.54l0-.89c0-.05,0-.08.08-.08l1.12,0h1.44l1.13,0c.06,0,.09,0,.09.08l0,.89V7.71l0,.88c0,.05,0,.08-.09.08l-1.13,0h-.46v.73h.49l1.17,0s.07,0,.07.08V9.8s0,.08-.07.08l-1.17,0h-.49v.83C105.33,10.6,105.94,10.49,106.56,10.37Zm-2.71,1.94a7.16,7.16,0,0,1-1.07,1.53.09.09,0,0,1-.07,0,.26.26,0,0,1-.12-.07l-.27-.21s-.08-.09-.08-.11a.07.07,0,0,1,0-.06,4.9,4.9,0,0,0,1-1.4s0-.06,0-.06l.11,0,.28.15c.07,0,.1.06.1.09A.06.06,0,0,1,103.85,12.31Zm.36-5.42V6H103.1v.85Zm0,1.32V7.32H103.1v.89Zm1.67-1.32V6h-1.14v.85Zm0,1.32V7.32h-1.14v.89Zm-.11,5.44c0,.06,0,.09-.14.11l-.33,0h-.06s-.07,0-.07-.08a8.33,8.33,0,0,0-.2-1.5.08.08,0,0,1,0,0s0,0,.12-.06l.3,0h.06s.06,0,.07.07A6.93,6.93,0,0,1,105.77,13.65Zm5.13-2.4a1.8,1.8,0,0,0-.3.37c-.06.09-.1.13-.13.13s-.06,0-.13-.09a6.69,6.69,0,0,1-1.14-1.42,6.46,6.46,0,0,1-.62-1.69,5,5,0,0,1-.34,1.13,5.43,5.43,0,0,1-.7,1.2,5.16,5.16,0,0,1-.78.76c-.07.06-.11.09-.13.09s-.08,0-.14-.12a1.12,1.12,0,0,0-.33-.28,4.45,4.45,0,0,0,1.62-1.91,4.72,4.72,0,0,0,.37-1.5h-1.29c-.06,0-.09,0-.09-.07v-.4s0-.08.09-.08l1.13,0h.21c0-.33,0-.6,0-.79a9.74,9.74,0,0,0-.08-1.4,5.48,5.48,0,0,1,.61.06c.09,0,.14.06.14.1l-.06.19a2.74,2.74,0,0,0-.06.73q0,.6,0,1.11h.78l1.14,0c.06,0,.08,0,.08.08v.4s0,.07-.08.07h-1.81a6.32,6.32,0,0,0,.86,2.11A5.21,5.21,0,0,0,110.9,11.25ZM108,13.56a.11.11,0,0,1,0,0s0,.06-.12.08l-.32.08-.1,0s-.06,0-.07-.08a6.66,6.66,0,0,0-.43-1.45.43.43,0,0,0,0,0s0-.05.11-.07l.3-.08h.07s0,0,.06,0A7.61,7.61,0,0,1,108,13.56Zm2.59-.13a.14.14,0,0,1,0,.06s0,.06-.11.1l-.29.18-.1.05s0,0-.06-.06a8.49,8.49,0,0,0-1-1.53s0,0,0-.06,0,0,.1-.08l.25-.14.1,0s0,0,.08.05A9.09,9.09,0,0,1,110.62,13.43Zm-.2-6.92a.15.15,0,0,1,0,.06s0,0-.07.08l-.22.13-.13.06s0,0,0,0a5.44,5.44,0,0,0-.64-1s0,0,0-.06,0,0,.07-.07l.22-.12a.16.16,0,0,1,.09,0l.06,0A5.18,5.18,0,0,1,110.42,6.51Z"/>
      <path class="cls-3" d="M115.32,13.43a.07.07,0,0,1-.08.08h-.44s-.07,0-.07-.08v-.57h-1.92v.79a.07.07,0,0,1-.08.08h-.44c-.05,0-.07,0-.07-.08l0-2.87V9.07l0-2.18c0-.06,0-.08.07-.08l.89,0a10.87,10.87,0,0,0,.37-1.16,2.25,2.25,0,0,0,.07-.58,3.25,3.25,0,0,1,.65.15c.07,0,.11.06.11.11a.24.24,0,0,1-.07.13.58.58,0,0,0-.16.29c-.16.44-.29.8-.4,1.06h.52l1,0c.05,0,.08,0,.08.08l0,1.93v1.84Zm-.59-3.92V7.35h-1.92V9.51Zm0,2.82V10h-1.92v2.29ZM120.42,7c0,.17,0,.42,0,.75a30,30,0,0,1-.33,4.88,2.37,2.37,0,0,1-.42,1.16,1,1,0,0,1-.81.35c-.28,0-.6,0-.95,0a.3.3,0,0,1-.17-.05.5.5,0,0,1,0-.18,1.56,1.56,0,0,0-.18-.46,8.84,8.84,0,0,0,1.2.13h.11c.34,0,.57-.38.7-1.12a32.92,32.92,0,0,0,.28-4.93h-2.92a10.15,10.15,0,0,1-.81,1.34c0,.08-.1.12-.12.12a.25.25,0,0,1-.15-.1,1.27,1.27,0,0,0-.33-.24A9.09,9.09,0,0,0,116.87,6a3.86,3.86,0,0,0,.19-.89,5.65,5.65,0,0,1,.62.18c.1,0,.15.08.15.13a.24.24,0,0,1-.12.18,1.83,1.83,0,0,0-.22.47c-.1.25-.22.54-.36.85h2.12l1.09,0C120.4,6.87,120.42,6.9,120.42,7Zm-2,3.86a.39.39,0,0,1,0,.06s0,.07-.11.11l-.28.21-.11.05s0,0,0-.05a8.6,8.6,0,0,0-1.26-1.92.09.09,0,0,1,0,0s0-.05.1-.1L117,9a.21.21,0,0,1,.09-.05s0,0,.05,0A7.89,7.89,0,0,1,118.44,10.82Z"/>
      <path class="cls-3" d="M121.66,6.11h5.5a9.55,9.55,0,0,1-1.28,5.36,6.88,6.88,0,0,1-3.36,2.33l-.42-.6a6.15,6.15,0,0,0,3.25-2.32,7.49,7.49,0,0,0,1-4.1h-4.66Z"/>
      <path class="cls-3" d="M128.59,13.32V6.17h5.22v7.15Zm4.45-.67V6.84h-3.69v5.81Z"/>
      <path class="cls-3" d="M135.23,9.28h5.44V10h-5.44Z"/>
    </g>
  </g>
  <g id="Singl..." class="cls-2">
    <path class="cls-4" d="M23,45.54l.34-.6a21.86,21.86,0,0,1,2.35,1l-.37.67A13.53,13.53,0,0,0,23,45.54Zm6.13-1.48.7.39A10.64,10.64,0,0,1,29,46.7,7.39,7.39,0,0,1,28,48.3a7.18,7.18,0,0,1-4,2.13l-.41-.62a6.58,6.58,0,0,0,3.8-2A8.3,8.3,0,0,0,29.14,44.06Zm-5.23-.66.37-.59a14.52,14.52,0,0,1,2.28,1.09l-.4.66A12.79,12.79,0,0,0,23.91,43.4Z"/>
    <path class="cls-4" d="M31.22,43.23a17.24,17.24,0,0,1,2.35,1.49l-.5.66a13.86,13.86,0,0,0-2.3-1.56Zm5,.5.75.36a8.17,8.17,0,0,1-1.86,4.14,7.9,7.9,0,0,1-4,2.31l-.34-.68A6.81,6.81,0,0,0,36.26,43.73Z"/>
    <path class="cls-4" d="M43.27,43.35a10.88,10.88,0,0,0-.6-1.37l.51-.2a13.08,13.08,0,0,1,.74,1.69l-.4.16.32.42a9.64,9.64,0,0,1-1.92,4.7,7.74,7.74,0,0,1-3,2.08l-.44-.54a6.92,6.92,0,0,0,3.2-2.37A8.88,8.88,0,0,0,43.05,44H40.23a9.25,9.25,0,0,1-1.84,2.87l-.57-.43A8.76,8.76,0,0,0,40,42.3l.79.12c-.07.25-.16.57-.29.93Zm.57-1.6.5-.18a8.35,8.35,0,0,1,.71,1.64l-.52.21A9.26,9.26,0,0,0,43.84,41.75Z"/>
    <path class="cls-4" d="M47.38,42.73c0,1.9,0,3.27-.1,4.11A7.66,7.66,0,0,1,47,48.52a4.68,4.68,0,0,1-1.46,2.15L45,50.22a3.76,3.76,0,0,0,1.36-2,9.6,9.6,0,0,0,.25-2.06c0-.74,0-1.88,0-3.44Zm2.13,6.79a7.52,7.52,0,0,0,2.6-3.44l.51.67a9.14,9.14,0,0,1-3.44,3.92l-.43-.23V42.67h.76Z"/>
    <path class="cls-4" d="M56.12,48.15q1.26-2.37,2.11-4.26a.7.7,0,0,1,.63-.5.85.85,0,0,1,.71.41l2,3,1.87,2.74-.66.52c-.89-1.33-2.13-3.21-3.7-5.63a.17.17,0,0,0-.32,0c-.58,1.25-1.25,2.6-2,4.08Zm6.08-5.73a1.12,1.12,0,0,1,1.13,1.12,1.09,1.09,0,0,1-.37.83,1.13,1.13,0,0,1-1.59-.08,1.12,1.12,0,0,1,.83-1.87Zm0,.43a.66.66,0,0,0-.68.69.64.64,0,0,0,.22.51.67.67,0,0,0,.46.18.68.68,0,0,0,.52-.23.65.65,0,0,0,.18-.46.68.68,0,0,0-.23-.52A.7.7,0,0,0,62.2,42.85Z"/>
    <path class="cls-4" d="M63.78,46.25h5.43V47H63.78Z"/>
    <path class="cls-4" d="M70.13,45.54l.34-.6a21.86,21.86,0,0,1,2.35,1l-.38.67A13.37,13.37,0,0,0,70.13,45.54Zm6.13-1.48.7.39a10.64,10.64,0,0,1-.82,2.25,7.39,7.39,0,0,1-1,1.6,7.22,7.22,0,0,1-4,2.13l-.41-.62a6.52,6.52,0,0,0,3.79-2A8.2,8.2,0,0,0,76.26,44.06ZM71,43.4l.37-.59a13.68,13.68,0,0,1,2.28,1.09l-.4.66A12.1,12.1,0,0,0,71,43.4Zm4-1.32.52-.2a10.12,10.12,0,0,1,.73,1.68l-.53.23A8.29,8.29,0,0,0,75,42.08Zm1.18-.3.49-.18a7.76,7.76,0,0,1,.72,1.64l-.53.21A10.09,10.09,0,0,0,76.17,41.78Z"/>
    <path class="cls-4" d="M81,42.91H87.5a6.85,6.85,0,0,1-.61,2.21,5.13,5.13,0,0,1-1.2,1.51l-.59-.49a4.53,4.53,0,0,0,1.05-1.26,3.44,3.44,0,0,0,.43-1.3H81Zm.3,7.22a4,4,0,0,0,1.8-1.51A5.35,5.35,0,0,0,83.64,46V44.39h.76V46a5.47,5.47,0,0,1-.8,3.2,5,5,0,0,1-1.82,1.5Z"/>
    <path class="cls-4" d="M94.11,43.75a9.38,9.38,0,0,1-1,4.23,6.39,6.39,0,0,1-3.65,2.79l-.42-.6a6.11,6.11,0,0,0,3.25-2.32,7.51,7.51,0,0,0,1-4.1H88.62v-.67h4.79a1.13,1.13,0,0,1-.07-.39,1.08,1.08,0,0,1,.37-.83,1,1,0,0,1,.75-.29,1.08,1.08,0,0,1,.83.36,1.13,1.13,0,0,1,.29.76,1.06,1.06,0,0,1-.37.83,1.08,1.08,0,0,1-.75.29A1,1,0,0,1,94.11,43.75ZM94.46,42a.67.67,0,0,0-.52.22.71.71,0,0,0-.17.47.66.66,0,0,0,.23.51.65.65,0,0,0,.46.18.68.68,0,0,0,.69-.69.67.67,0,0,0-.22-.52A.71.71,0,0,0,94.46,42Z"/>
    <path class="cls-4" d="M40.47,54.66v4.9H39.7v-4.9Zm-.29,7.5a4,4,0,0,0,2.48-1.3,4.35,4.35,0,0,0,.64-2.61V54.6h.78v3.75a4.51,4.51,0,0,1-1,3.18,4.87,4.87,0,0,1-2.57,1.23Z"/>
    <path class="cls-4" d="M47.59,55.91h4.69v.67H50.34a9.43,9.43,0,0,1-.8,4.37,4.52,4.52,0,0,1-2.23,1.83l-.55-.49a5.12,5.12,0,0,0,1.66-1.07,3.73,3.73,0,0,0,.87-1.72,13.4,13.4,0,0,0,.28-2.92H47.41a8,8,0,0,1-1.3,2.5l-.64-.35a8.71,8.71,0,0,0,1.67-4.42l.75.1Q47.77,55.19,47.59,55.91Z"/>
    <path class="cls-4" d="M52.64,58.25h5.44V59H52.64Z"/>
    <path class="cls-4" d="M59,57.54l.34-.6a21.86,21.86,0,0,1,2.35,1l-.38.67A13.37,13.37,0,0,0,59,57.54Zm6.13-1.48.7.39A10.64,10.64,0,0,1,65,58.7,7.39,7.39,0,0,1,64,60.3a7.22,7.22,0,0,1-4,2.13l-.41-.62a6.61,6.61,0,0,0,3.8-2A8.3,8.3,0,0,0,65.13,56.06Zm-5.24-.66.37-.59a13.68,13.68,0,0,1,2.28,1.09l-.4.66A12.1,12.1,0,0,0,59.89,55.4Z"/>
    <path class="cls-4" d="M70.58,59V57.07H67.13v-.65h4.2v6.13H67.08v-.64h3.5V59.62H67.27V59Z"/>
    <path class="cls-4" d="M73.11,55.23a16.64,16.64,0,0,1,2.35,1.49l-.5.66a13.74,13.74,0,0,0-2.29-1.56Zm5,.5.76.36A8.1,8.1,0,0,1,77,60.23a7.87,7.87,0,0,1-4,2.31l-.35-.68A6.8,6.8,0,0,0,78.15,55.73Z"/>
  </g>
  <path id="path1491" class="cls-4" d="M191.76,10.11h-20.5a1.1,1.1,0,0,0-1.09,1.11V28a1.09,1.09,0,0,0,1.09,1.1h5.28a3.29,3.29,0,0,0,3.21,2.27,3.37,3.37,0,0,0,0-6.74,3.29,3.29,0,0,0-3.21,2.27h-4.19v-12h18.31v12h-3.45a7.61,7.61,0,0,0-7.46-6.57,8.25,8.25,0,0,0-3.64.92l1,2a5.28,5.28,0,0,1,2.55-.68,5.46,5.46,0,0,1,0,10.92,5.28,5.28,0,0,1-2.55-.68l-1,2a7.51,7.51,0,0,0,3.64.92,7.61,7.61,0,0,0,7.46-6.57h4.55a1.09,1.09,0,0,0,1.09-1.1V11.22A1.14,1.14,0,0,0,191.76,10.11Z"/>
  <g id="text1493" class="cls-2">
    <path class="cls-4" d="M168,48.63h-.91l-.74-2h-3l-.7,2h-.91l2.68-7h.85Zm-1.92-2.7-1.1-3a2.59,2.59,0,0,1-.11-.46h0a2.6,2.6,0,0,1-.11.46l-1.09,3Z"/>
    <path class="cls-4" d="M169.9,46v2.65h-.82v-7H171a2.55,2.55,0,0,1,1.74.54,2,2,0,0,1,.62,1.55,2.13,2.13,0,0,1-.69,1.63,2.63,2.63,0,0,1-1.85.63Zm0-3.61v2.87h.86a1.91,1.91,0,0,0,1.29-.39,1.36,1.36,0,0,0,.45-1.09c0-.93-.55-1.39-1.64-1.39Z"/>
    <path class="cls-4" d="M175.39,48.63h-.82v-7h.82Z"/>
    <path class="cls-4" d="M179.75,41.19h6.51a7,7,0,0,1-.61,2.21,4.89,4.89,0,0,1-1.21,1.51l-.59-.49a4.4,4.4,0,0,0,1.06-1.26,3.42,3.42,0,0,0,.42-1.3h-5.58Zm.3,7.22a3.87,3.87,0,0,0,1.79-1.51,5.24,5.24,0,0,0,.55-2.64V42.68h.77v1.6a5.6,5.6,0,0,1-.8,3.21A5,5,0,0,1,180.53,49Z"/>
    <path class="cls-4" d="M192.87,42a9.48,9.48,0,0,1-1,4.23,6.39,6.39,0,0,1-3.65,2.79l-.42-.6a6.15,6.15,0,0,0,3.25-2.32,7.58,7.58,0,0,0,1-4.1h-4.67v-.67h4.79a.94.94,0,0,1-.07-.39,1.06,1.06,0,0,1,.37-.83,1,1,0,0,1,.75-.29,1.06,1.06,0,0,1,.83.37A1.12,1.12,0,0,1,194,41.8a1.12,1.12,0,0,1-.75.29A1,1,0,0,1,192.87,42Zm.35-1.75a.67.67,0,0,0-.52.22.71.71,0,0,0-.17.47.64.64,0,0,0,.22.51.71.71,0,0,0,1,0,.71.71,0,0,0,.17-.47.68.68,0,0,0-.69-.69Z"/>
    <path class="cls-4" d="M196.34,40.94v4.9h-.77v-4.9Zm-.28,7.5a4,4,0,0,0,2.48-1.3,4.33,4.33,0,0,0,.64-2.61V40.88H200v3.75a4.47,4.47,0,0,1-1,3.18A4.83,4.83,0,0,1,196.42,49Z"/>
  </g>
  <g id="group1101-58">
    <g id="group1102-59">
      <g id="group1103-60">
        <g id="group1104-61">
          <g id="shape1105-62">
            <path id="path1511" class="cls-4" d="M7.85,15.21a4.49,4.49,0,0,0-3,5.66c.66,2.55,3,4.22,5.27,3.66a4.49,4.49,0,0,0,3-5.66C12.57,16.2,10.16,14.54,7.85,15.21Z"/>
          </g>
        </g>
        <g id="group1106-64">
          <g id="shape1107-65">
            <path id="path1519" class="cls-4" d="M12.79,25.22c-.44,0-.88.78-1.54,1.11s-1.32.89-3.18,0S6,24.66,4.44,24.66.38,27.44.38,31.55H16a12.09,12.09,0,0,0-1.1-4.22C13.77,25.22,13.23,25.22,12.79,25.22Z"/>
          </g>
        </g>
      </g>
    </g>
    <g id="group1108-67">
      <g id="shape1109-68">
        <path id="path1529" class="cls-5" d="M14.19,20.28H10.07a.71.71,0,0,0-.65.65v2.85a.73.73,0,0,0,.76.66h.76v5.15a1,1,0,0,0,1,1.1,1,1,0,0,0,1-1h.21V29c0-.22.33-.33.33-.33v-.33c-.33-.1-.54-.32-.54-.43v-.33l.21-.22a3.53,3.53,0,0,0,.33-.55,2.4,2.4,0,0,1-.33-.55c-.1-.11-.1-.33-.21-.44v-.21a2.51,2.51,0,0,1,.76-1.1h.54a.71.71,0,0,0,.65-.66v-3A.63.63,0,0,0,14.19,20.28ZM11.8,29.81c0,.22,0,.33-.21.33s-.22-.22-.22-.33V25c0-.22.11-.33.22-.33s.21.22.21.33ZM12.13,22a.66.66,0,0,1,0-1.32.71.71,0,0,1,.65.66A.63.63,0,0,1,12.13,22Z"/>
      </g>
      <g id="shape1110-70">
        <path id="path1534" class="cls-6" d="M11.57,30.12a.25.25,0,0,1-.22-.23v-5a.22.22,0,1,1,.44,0V30C11.79,30.12,11.68,30.12,11.57,30.12Z"/>
      </g>
      <g id="shape1111-72">
        <ellipse id="ellipse1539" class="cls-6" cx="12.14" cy="21.35" rx="0.66" ry="0.67"/>
      </g>
    </g>
  </g>
  <g>
    <g id="shape1100-52">
      <g id="use1353">
        <g id="lend5">
          <path id="path1350" class="cls-7" d="M161.69,18.87l8.05,4-8,4a9,9,0,0,0,0-8"/>
        </g>
      </g>
    </g>
    <line class="cls-8" x1="74.63" y1="23.02" x2="166.03" y2="23.02"/>
  </g>
  <g>
    <g id="group1072-5">
      <g id="shape1073-6">
        <path id="path1376" class="cls-4" d="M66,32.83a11.78,11.78,0,0,1-16.84-2.29,12.56,12.56,0,0,1,2.24-17.29,11.82,11.82,0,0,1,16.84,2.3A12.54,12.54,0,0,1,66,32.83Zm3.66-18.41a13.57,13.57,0,0,0-19.36-2.63,14.43,14.43,0,0,0-2.55,19.87A13.55,13.55,0,0,0,67.13,34.3,14.45,14.45,0,0,0,69.69,14.42Z"/>
      </g>
    </g>
    <g id="group1074-8">
      <g id="group1075-9">
        <g id="group1076-10">
          <g id="shape1077-11">
            <path id="path1388" class="cls-4" d="M52.06,25.61a17,17,0,0,1-2-2.35,18.28,18.28,0,0,0-1.66,6.88c.11.16.11.29.23.45a13.4,13.4,0,0,0,2,2.05A14.14,14.14,0,0,1,52.06,25.61Z"/>
          </g>
        </g>
        <g id="shape1078-13">
          <path id="path1394" class="cls-4" d="M56.67,16.17a21,21,0,0,0-3.33,3,15.71,15.71,0,0,0-1.61,2.05,15.93,15.93,0,0,0,1.9,2.47,15.93,15.93,0,0,1,2.2-2.57A26.31,26.31,0,0,1,59,18.5C58.16,17.73,57.38,17,56.67,16.17Z"/>
        </g>
        <g id="group1079-15">
          <g id="shape1080-16">
            <path id="path1401" class="cls-4" d="M68.14,15.37a12.47,12.47,0,0,0-1.73-1.82,12.55,12.55,0,0,0-8,1.54c.76.83,1.51,1.62,2.24,2.36C65,15,68.14,15.37,68.14,15.37Z"/>
          </g>
        </g>
        <g id="group1083-21">
          <g id="shape1084-22">
            <path id="path1417" class="cls-4" d="M55.9,25.79a22.67,22.67,0,0,1-2.27-2.13,13.15,13.15,0,0,0-1.14,1.95,25.16,25.16,0,0,0,2.09,1.9A19.15,19.15,0,0,0,67.14,31.9,9.13,9.13,0,0,0,68.68,30C67.45,30.21,62.19,30.9,55.9,25.79Z"/>
          </g>
        </g>
        <g id="group1085-24">
          <g id="shape1086-25">
            <path id="path1425" class="cls-4" d="M50.54,23.26a16.8,16.8,0,0,0,2,2.35,14.09,14.09,0,0,1,1.14-1.95,15.93,15.93,0,0,1-1.9-2.47A15.67,15.67,0,0,0,50.54,23.26Z"/>
          </g>
        </g>
        <g id="group1087-27">
          <g id="shape1088-28">
            <path id="path1433" class="cls-4" d="M59,18.49a98.68,98.68,0,0,0,11.15,8.83,10.76,10.76,0,0,0,.33-1.06,95,95,0,0,1-9.83-8.81A17.67,17.67,0,0,0,59,18.49Z"/>
          </g>
        </g>
        <g id="group1089-30">
          <g id="shape1090-31">
            <path id="path1441" class="cls-4" d="M58.38,15.08c-1.1-1.18-2.22-2.44-3.36-3.8a11.09,11.09,0,0,0-1.59.66,26.8,26.8,0,0,0,3.24,4.23A15.69,15.69,0,0,1,58.38,15.08Z"/>
          </g>
        </g>
        <g id="shape1091-33">
          <path id="path1447" class="cls-4" d="M58.45,15a18.74,18.74,0,0,0-1.87,1.19c.72.79,1.45,1.59,2.25,2.36.57-.41,1.34-.89,1.87-1.19C60,16.67,59.21,15.88,58.45,15Z"/>
        </g>
        <g id="shape1092-35">
          <path id="path1452" class="cls-4" d="M58.25,14.94a14.89,14.89,0,0,0-1.67,1.13c.72.78,1.74,1.8,2.54,2.57a18.53,18.53,0,0,1,1.58-1.11C60,16.8,59,15.78,58.25,14.94Z"/>
        </g>
      </g>
      <g id="group1093-37">
        <g id="shape1094-38">
          <path id="path1460" class="cls-4" d="M64.3,21.49a2.71,2.71,0,0,0-.48,3.71,2.55,2.55,0,0,0,3.63.5A2.72,2.72,0,0,0,67.93,22,2.55,2.55,0,0,0,64.3,21.49Z"/>
        </g>
      </g>
      <g id="group1095-40">
        <g id="shape1096-41">
          <path id="path1468" class="cls-4" d="M59.24,27.83a2.51,2.51,0,0,0-.45,3.43,2.37,2.37,0,0,0,3.36.46,2.49,2.49,0,0,0,.44-3.43A2.35,2.35,0,0,0,59.24,27.83Z"/>
        </g>
      </g>
      <g id="group1097-43">
        <g id="shape1098-44">
          <path id="path1476" class="cls-4" d="M50,20.3a3.79,3.79,0,0,0-.68,5.21,3.57,3.57,0,0,0,5.1.69A3.8,3.8,0,0,0,55.08,21,3.58,3.58,0,0,0,50,20.3Z"/>
        </g>
      </g>
      <g id="group1081-18">
        <g id="shape1082-19">
          <path id="path1409" class="cls-9" d="M50.6,23.07A19.94,19.94,0,0,1,51.79,21a9.83,9.83,0,0,1-1.6-6.79,13.9,13.9,0,0,0-1.29,1.6C48.52,17.42,48.5,20,50.6,23.07Z"/>
        </g>
      </g>
    </g>
  </g>
</svg>
