<?xml version="1.0" encoding="utf-8"?>
<!-- Generator: Adobe Illustrator 23.0.3, SVG Export Plug-In . SVG Version: 6.00 Build 0)  -->
<svg version="1.1" xmlns="http://www.w3.org/2000/svg" xmlns:xlink="http://www.w3.org/1999/xlink" x="0px" y="0px"
	 viewBox="0 0 247.3 64.5" style="enable-background:new 0 0 247.3 64.5;" xml:space="preserve">
<style type="text/css">
	.st0{fill-rule:evenodd;clip-rule:evenodd;fill:#008BFD;}
	.st1{enable-background:new    ;}
	
		.st2{fill-rule:evenodd;clip-rule:evenodd;fill:#008BFD;stroke:#808080;stroke-width:0.75;stroke-linecap:round;stroke-linejoin:round;stroke-miterlimit:3;}
	.st3{fill-rule:evenodd;clip-rule:evenodd;fill:#FFFFFF;}
	.st4{fill:none;}
	.st5{fill:#00B0F0;}
	.st6{fill-rule:evenodd;clip-rule:evenodd;fill:#505050;}
	.st7{fill:#505050;}
</style>
<g id="shapes" xmlns:ev="http://www.w3.org/2001/xml-events" xmlns:v="http://schemas.microsoft.com/visio/2003/SVGExtensions/">
	<g id="group1549-1_1_" transform="translate(43.141,-20.0036)">
		<g id="group1550-2_1_">
			<g id="shape1551-3_1_">
				<path class="st0" d="M22.9,60.1c-2.2,1.7-4.8,2.5-7.3,2.5c-3.6,0-7.2-1.7-9.6-4.8c-4-5.4-3-13.1,2.2-17.3
					c2.2-1.7,4.8-2.5,7.3-2.5c3.6,0,7.2,1.7,9.5,4.8C29.2,48.3,28.2,56,22.9,60.1z M26.5,41.7c-2.7-3.6-6.8-5.5-11-5.5
					c-2.9,0-5.9,1-8.4,2.9C1.1,43.9,0,52.8,4.6,59c2.7,3.6,6.8,5.5,11,5.5c2.9,0,5.9-0.9,8.4-2.9C30,56.8,31.2,48,26.5,41.7z"/>
			</g>
		</g>
		<g id="group1552-5_1_" transform="translate(4.95554,-4.39536)">
			<g id="group1553-6_1_" transform="translate(0.341805,-0.176482)">
				<g id="group1554-7_1_" transform="translate(0.437248,3.2685E-13)">
					<g id="shape1555-8_1_">
						<path class="st0" d="M3.6,57.5c-0.8-0.8-1.4-1.6-2-2.3C0.5,57.6,0.1,60.1,0,62c0.1,0.2,0.1,0.3,0.2,0.4c0.6,0.8,1.3,1.5,2,2
							C2.1,62.9,2.3,60.3,3.6,57.5z"/>
					</g>
				</g>
				<g id="shape1556-10_1_" transform="translate(3.29213,-8.97695)">
					<path class="st0" d="M4.9,57c-1.1,0.8-2.2,1.8-3.3,3C1,60.7,0.5,61.4,0,62.1c0.5,0.8,1.1,1.6,1.9,2.5c0.6-0.9,1.3-1.7,2.2-2.6
						c1.1-1.1,2.2-1.9,3.1-2.6C6.4,58.6,5.7,57.8,4.9,57z"/>
				</g>
				<g id="group1557-12_1_" transform="translate(9.93516,-15.1958)">
					<g id="shape1558-13_1_">
						<path class="st0" d="M9.8,62.5c-0.5-0.7-1.1-1.3-1.7-1.8c-1.9-0.3-4.7-0.3-8,1.5c0.8,0.8,1.5,1.6,2.2,2.4
							C6.6,62.1,9.8,62.5,9.8,62.5z"/>
					</g>
				</g>
				<g id="group1559-15_1_" transform="translate(1.10162E-13,-9.38012)">
					<g id="shape1560-16_1_">
						<path class="st0" d="M2.1,64.5c0.3-0.7,0.7-1.4,1.2-2.1c-1.9-3.1-1.8-5.6-1.6-6.8c-0.5,0.5-0.9,1-1.3,1.6
							C0,58.9,0,61.4,2.1,64.5z"/>
					</g>
				</g>
				<g id="group1561-18_1_" transform="translate(4.05148,-0.740211)">
					<g id="shape1562-19_1_">
						<path class="st0" d="M3.4,58.4c-0.9-0.7-1.6-1.4-2.3-2.1c-0.5,0.7-0.8,1.3-1.1,2c0.6,0.6,1.3,1.3,2.1,1.9
							c4.9,4,9.8,4.4,12.6,4.4c0.2,0,1-1.2,1.5-1.9C15,62.8,9.7,63.5,3.4,58.4z"/>
					</g>
				</g>
				<g id="group1563-21_1_" transform="translate(2.10339,-7.03041)">
					<g id="shape1564-22_1_">
						<path class="st0" d="M0,62.2c0.5,0.8,1.1,1.5,2,2.4c0.3-0.6,0.7-1.3,1.1-2c-0.8-0.8-1.4-1.7-1.9-2.5C0.7,60.8,0.3,61.5,0,62.2
							z"/>
					</g>
				</g>
				<g id="group1565-24_1_" transform="translate(10.5195,-5.3233)">
					<g id="shape1566-25_1_">
						<path class="st0" d="M0,55.7c4.5,4.3,9.8,7.9,11.1,8.8c0.1-0.3,0.2-0.7,0.3-1c-1.4-1.1-5.3-4.2-9.8-8.8
							C1.1,55,0.6,55.3,0,55.7z"/>
					</g>
				</g>
				<g id="group1567-27_1_" transform="translate(4.98729,-16.4714)">
					<g id="shape1568-28_1_">
						<path class="st0" d="M4.9,63.4c-1.1-1.2-2.2-2.4-3.4-3.8C1,59.8,0.5,60,0,60.3c0.8,1.4,2,2.8,3.2,4.2
							C3.8,64.1,4.4,63.7,4.9,63.4z"/>
					</g>
				</g>
				<g id="shape1569-30_1_" transform="translate(8.13763,-14.0503)">
					<path class="st0" d="M1.9,61c-0.6,0.3-1.3,0.8-1.9,1.2c0.7,0.8,1.5,1.6,2.3,2.4c0.6-0.4,1.3-0.9,1.9-1.2
						C3.4,62.6,2.6,61.8,1.9,61z"/>
				</g>
				<g id="shape1570-32_1_" transform="translate(8.1369,-14.0039)">
					<path class="st0" d="M1.7,60.8C1.1,61.1,0.6,61.5,0,62c0.7,0.8,1.7,1.8,2.5,2.6c0.6-0.4,1-0.8,1.6-1.1
						C3.4,62.7,2.4,61.7,1.7,60.8z"/>
				</g>
			</g>
			<g id="group1571-34_1_" transform="translate(14.8617,-6.23662)">
				<g id="shape1572-35_1_">
					<path class="st0" d="M1.3,59.4C0.2,60.3,0,62,0.9,63.1c0.9,1.2,2.5,1.4,3.6,0.5c1.1-0.9,1.3-2.5,0.5-3.7
						C4.1,58.8,2.5,58.5,1.3,59.4z"/>
				</g>
			</g>
			<g id="group1573-37_1_" transform="translate(9.65099,-2.13163E-13)">
				<g id="shape1574-38_1_">
					<path class="st0" d="M1.2,59.8c-1,0.8-1.2,2.4-0.4,3.4c0.8,1.1,2.3,1.3,3.4,0.5c1-0.8,1.2-2.4,0.4-3.4
						C3.8,59.2,2.3,59,1.2,59.8z"/>
				</g>
			</g>
			<g id="group1575-40_1_" transform="translate(0,-5.36433)">
				<g id="shape1576-41_1_">
					<path class="st0" d="M1.9,57.4c-1.6,1.3-1.9,3.6-0.7,5.2c1.2,1.6,3.5,2,5.1,0.7S8.2,59.7,7,58C5.8,56.4,3.5,56.1,1.9,57.4z"/>
				</g>
			</g>
		</g>
		<g id="shape1549-43_1_">
			<g class="st1">
				<path d="M6,70.5l-2,7H3l-1.4-5.1c-0.1-0.2-0.1-0.5-0.1-0.7h0c0,0.2-0.1,0.5-0.1,0.7l-1.5,5.1h-1l-2.1-7h0.9l1.5,5.4
					c0.1,0.2,0.1,0.5,0.1,0.7h0c0-0.2,0.1-0.4,0.2-0.7l1.5-5.4h0.8l1.5,5.4c0.1,0.2,0.1,0.4,0.1,0.7h0c0-0.2,0.1-0.4,0.1-0.7
					l1.4-5.4H6z"/>
				<path d="M10.6,75.2H7c0,0.6,0.2,1,0.4,1.3S8.2,77,8.7,77c0.6,0,1.1-0.2,1.6-0.6v0.8c-0.4,0.3-1,0.5-1.7,0.5
					c-0.7,0-1.3-0.2-1.7-0.7S6.2,75.9,6.2,75c0-0.8,0.2-1.4,0.7-1.9c0.4-0.5,1-0.7,1.6-0.7S9.7,72.6,10,73s0.5,1,0.5,1.8V75.2z
					 M9.7,74.6c0-0.5-0.1-0.8-0.3-1.1s-0.5-0.4-0.9-0.4c-0.4,0-0.7,0.1-1,0.4S7.1,74.1,7,74.6H9.7z"/>
				<path d="M12.6,76.8L12.6,76.8l0,0.7h-0.8v-7.4h0.8v3.3h0c0.4-0.7,1-1,1.7-1c0.6,0,1.1,0.2,1.5,0.7c0.4,0.4,0.5,1,0.5,1.8
					c0,0.8-0.2,1.5-0.6,2s-1,0.8-1.7,0.8C13.4,77.6,12.9,77.4,12.6,76.8z M12.6,74.8v0.7c0,0.4,0.1,0.8,0.4,1.1s0.6,0.4,1,0.4
					c0.5,0,0.9-0.2,1.1-0.6s0.4-0.9,0.4-1.5c0-0.6-0.1-1-0.4-1.3s-0.6-0.5-1-0.5c-0.5,0-0.8,0.2-1.1,0.5
					C12.7,73.9,12.6,74.3,12.6,74.8z"/>
				<path d="M19.7,70.1h6.5c-0.1,0.9-0.3,1.6-0.6,2.2c-0.3,0.6-0.7,1.1-1.2,1.5l-0.6-0.5c0.4-0.4,0.8-0.8,1.1-1.3
					c0.2-0.4,0.4-0.9,0.4-1.3h-5.6V70.1z M20,77.3c0.9-0.4,1.5-0.9,1.8-1.5c0.4-0.6,0.5-1.5,0.5-2.6v-1.6h0.8v1.6
					c0,1.4-0.3,2.4-0.8,3.2c-0.4,0.6-1,1.1-1.8,1.5L20,77.3z"/>
				<path d="M32.2,70.9c-0.1,1.8-0.4,3.2-1,4.2c-0.7,1.3-1.9,2.2-3.7,2.8l-0.4-0.6c1.5-0.5,2.6-1.3,3.3-2.3c0.6-1,1-2.4,1-4.1h-4.7
					v-0.7h4.8c0-0.1-0.1-0.2-0.1-0.4c0-0.3,0.1-0.6,0.4-0.8c0.2-0.2,0.5-0.3,0.8-0.3c0.3,0,0.6,0.1,0.8,0.4c0.2,0.2,0.3,0.5,0.3,0.8
					c0,0.3-0.1,0.6-0.4,0.8c-0.2,0.2-0.5,0.3-0.8,0.3C32.5,71,32.3,71,32.2,70.9z M32.6,69.2c-0.2,0-0.4,0.1-0.5,0.2
					c-0.1,0.1-0.2,0.3-0.2,0.5c0,0.2,0.1,0.4,0.2,0.5c0.1,0.1,0.3,0.2,0.5,0.2c0.2,0,0.4-0.1,0.5-0.2c0.1-0.1,0.2-0.3,0.2-0.5
					c0-0.2-0.1-0.4-0.2-0.5C32.9,69.2,32.8,69.2,32.6,69.2z"/>
				<path d="M35.1,69.8v4.9h-0.8v-4.9H35.1z M34.9,77.3c1.2-0.3,2-0.7,2.5-1.3c0.4-0.6,0.6-1.4,0.6-2.6v-3.6h0.8v3.8
					c0,1.4-0.3,2.5-1,3.2c-0.5,0.6-1.4,1-2.6,1.2L34.9,77.3z"/>
				<v:paragraph  v:horizAlign="1"></v:paragraph>
				<v:tabList></v:tabList>
			</g>
		</g>
	</g>
	<path class="st0" d="M236.4,17.6h-20.5c-0.6,0-1.1,0.5-1.1,1.1v16.7c0,0.6,0.5,1.1,1.1,1.1h5.3c0.4,1.4,1.7,2.3,3.2,2.3
		c1.8,0,3.3-1.5,3.3-3.4s-1.5-3.4-3.3-3.4c-1.5,0-2.8,0.9-3.2,2.3H217v-12h18.3v12h-3.5c-0.5-3.7-3.7-6.6-7.5-6.6
		c-1.3,0-2.6,0.4-3.6,0.9l1,2c0.7-0.4,1.7-0.7,2.6-0.7c2.9,0,5.4,2.4,5.4,5.5c0,3-2.4,5.5-5.4,5.5c-0.9,0-1.8-0.3-2.6-0.7l-1,2
		c1.1,0.6,2.4,0.9,3.6,0.9c3.8,0,7-2.9,7.5-6.6h4.6c0.6,0,1.1-0.5,1.1-1.1V18.7C237.5,18.1,237,17.6,236.4,17.6z"/>
	<g class="st1">
		<path d="M214.5,56.1h-0.9l-0.7-2h-3l-0.7,2h-0.9l2.7-7h0.8L214.5,56.1z M212.5,53.4l-1.1-3c0-0.1-0.1-0.3-0.1-0.5h0
			c0,0.2-0.1,0.4-0.1,0.5l-1.1,3H212.5z"/>
		<path d="M216.3,53.5v2.6h-0.8v-7h1.9c0.7,0,1.3,0.2,1.7,0.5c0.4,0.4,0.6,0.9,0.6,1.5s-0.2,1.2-0.7,1.6c-0.5,0.4-1.1,0.6-1.9,0.6
			H216.3z M216.3,49.8v2.9h0.9c0.6,0,1-0.1,1.3-0.4c0.3-0.3,0.4-0.6,0.4-1.1c0-0.9-0.5-1.4-1.6-1.4H216.3z"/>
		<path d="M221.9,56.1h-0.8v-7h0.8V56.1z"/>
		<path d="M225.7,48.7h6.5c-0.1,0.9-0.3,1.6-0.6,2.2c-0.3,0.6-0.7,1.1-1.2,1.5l-0.6-0.5c0.4-0.4,0.8-0.8,1.1-1.3
			c0.2-0.4,0.4-0.9,0.4-1.3h-5.6V48.7z M226,55.9c0.9-0.4,1.5-0.9,1.8-1.5c0.4-0.6,0.5-1.5,0.5-2.6v-1.6h0.8v1.6
			c0,1.4-0.3,2.4-0.8,3.2c-0.4,0.6-1,1.1-1.8,1.5L226,55.9z"/>
		<path d="M238.2,49.5c-0.1,1.8-0.4,3.2-1,4.2c-0.7,1.3-1.9,2.2-3.7,2.8l-0.4-0.6c1.5-0.5,2.6-1.3,3.3-2.3c0.6-1,1-2.4,1-4.1h-4.7
			v-0.7h4.8c0-0.1-0.1-0.2-0.1-0.4c0-0.3,0.1-0.6,0.4-0.8c0.2-0.2,0.5-0.3,0.8-0.3c0.3,0,0.6,0.1,0.8,0.4c0.2,0.2,0.3,0.5,0.3,0.8
			c0,0.3-0.1,0.6-0.4,0.8c-0.2,0.2-0.5,0.3-0.8,0.3C238.5,49.6,238.3,49.5,238.2,49.5z M238.6,47.8c-0.2,0-0.4,0.1-0.5,0.2
			c-0.1,0.1-0.2,0.3-0.2,0.5c0,0.2,0.1,0.4,0.2,0.5c0.1,0.1,0.3,0.2,0.5,0.2c0.2,0,0.4-0.1,0.5-0.2c0.1-0.1,0.2-0.3,0.2-0.5
			c0-0.2-0.1-0.4-0.2-0.5C238.9,47.8,238.8,47.8,238.6,47.8z"/>
		<path d="M241.1,48.4v4.9h-0.8v-4.9H241.1z M240.8,55.9c1.2-0.3,2-0.7,2.5-1.3c0.4-0.6,0.6-1.4,0.6-2.6v-3.6h0.8v3.8
			c0,1.4-0.3,2.5-1,3.2c-0.5,0.6-1.4,1-2.6,1.2L240.8,55.9z"/>
		<v:paragraph  v:horizAlign="1"></v:paragraph>
		<v:tabList></v:tabList>
	</g>
	<g id="group1580-58_1_" transform="translate(0.375,-25.6729)">
		<g id="group1581-59_1_">
			<g id="group1582-60_1_">
				<g id="group1583-61_1_" transform="translate(3.8518,-6.4617)">
					<g id="shape1584-62_1_">
						<path class="st0" d="M3.6,54.6c-2.3,0.6-3.6,3.1-3,5.7c0.7,2.6,3,4.2,5.3,3.7c2.3-0.6,3.6-3.1,3-5.7C8.3,55.6,5.9,54,3.6,54.6
							z"/>
					</g>
				</g>
				<g id="group1585-64_1_">
					<g id="shape1586-65_1_">
						<path class="st0" d="M12.4,58.2c-0.4,0-0.9,0.8-1.5,1.1c-0.7,0.3-1.3,0.9-3.2,0c-1.9-0.9-2.1-1.7-3.6-1.7
							c-1.5,0-4.1,2.8-4.1,6.9h15.6c0,0-0.2-2.8-1.1-4.2C13.4,58.2,12.9,58.2,12.4,58.2z"/>
					</g>
				</g>
			</g>
		</g>
		<g id="group1587-67_1_" transform="translate(9.0485,-0.85947)">
			<g id="shape1588-68_1_">
				<path class="st2" d="M4.8,54.1H0.7c-0.3,0-0.6,0.3-0.6,0.7v2.8c0,0.3,0.3,0.7,0.8,0.7h0.8v5.2c0,0.6,0.4,1.1,1,1.1s1-0.4,1-1
					c0.1,0,0.2,0,0.2,0s0-0.5,0-0.7c0-0.2,0.3-0.3,0.3-0.3v-0.3c-0.3-0.1-0.5-0.3-0.5-0.4v-0.3c0.1-0.1,0.2-0.2,0.2-0.2
					C3.8,61.1,4,60.7,4,60.7s-0.3-0.4-0.3-0.5c-0.1-0.1-0.1-0.3-0.2-0.4v-0.2c0.1-0.5,0.8-1.1,0.8-1.1h0.5c0.3,0,0.7-0.3,0.7-0.7v-3
					C5.4,54.4,5.2,54.1,4.8,54.1z M2.4,63.7c0,0.2,0,0.3-0.2,0.3C2,64,2,63.8,2,63.7v-4.8c0-0.2,0.1-0.3,0.2-0.3
					c0.2,0,0.2,0.2,0.2,0.3V63.7z M2.7,55.9c-0.3,0-0.7-0.3-0.7-0.7c0-0.3,0.3-0.7,0.7-0.7c0.3,0,0.6,0.3,0.6,0.7
					C3.4,55.5,3.1,55.9,2.7,55.9z"/>
			</g>
			<g id="shape1589-70_1_" transform="translate(1.92482,-0.570755)">
				<path class="st3" d="M0.2,64.5c-0.1,0-0.2-0.1-0.2-0.2v-5c0-0.1,0.1-0.2,0.2-0.2s0.2,0.1,0.2,0.2v5.1
					C0.4,64.5,0.3,64.5,0.2,64.5z"/>
			</g>
			<g id="shape1590-72_1_" transform="translate(2.05993,-8.66317)">
				<ellipse class="st3" cx="0.7" cy="63.9" rx="0.7" ry="0.7"/>
			</g>
		</g>
	</g>
</g>
<g id="txt" xmlns:ev="http://www.w3.org/2001/xml-events" xmlns:v="http://schemas.microsoft.com/visio/2003/SVGExtensions/">
	<g>
		<rect x="137.4" y="1.9" class="st4" width="73.6" height="21.6"/>
		<path class="st5" d="M167.7,4.2c0,0,0,0.1-0.1,0.1c-0.1,0-0.1,0.1-0.2,0.2c-0.4,1.8-1.2,3.2-2.3,4.3C165.1,9,165,9.1,165,9.1
			c0,0-0.1,0-0.1-0.1c-0.1-0.1-0.2-0.2-0.3-0.3c1.1-1,1.9-2.4,2.4-4.2h-1l-0.9,0c-0.1,0-0.1,0-0.1-0.1V4c0-0.1,0-0.1,0.1-0.1l0.9,0
			h1c0.1,0,0.2,0,0.2,0c0.1,0,0.1,0,0.1,0c0.1,0,0.1,0.1,0.3,0.2C167.6,4.1,167.7,4.2,167.7,4.2z M172.1,2.1c0,0.1,0,0.1-0.1,0.1
			c-0.1,0-0.2,0.1-0.4,0.2c-0.7,0.5-1.4,1-2.1,1.3v0.8h0.2l0.9,0c0,0,0.1,0,0.1,0.1V5c0,0.1,0,0.1-0.1,0.1l-0.9,0h-0.2v0.9h0.3l1,0
			c0.1,0,0.1,0,0.1,0.1v0.4c0,0.1,0,0.1-0.1,0.1l-1,0h-0.3v0.9h0.7l1.2,0c0.1,0,0.1,0,0.1,0.1v0.4c0,0.1,0,0.1-0.1,0.1l-1.2,0h-0.7
			l0,1.1c0,0.3-0.1,0.5-0.2,0.6c-0.2,0.1-0.5,0.2-1.1,0.2c-0.1,0-0.2,0-0.3,0c-0.1,0-0.2,0-0.2,0c0,0,0-0.1-0.1-0.2
			c0-0.2-0.1-0.3-0.2-0.4c0.3,0,0.6,0.1,1,0.1c0.2,0,0.3,0,0.4-0.1s0.1-0.1,0.1-0.3v-1h-0.7l-1.2,0c-0.1,0-0.1,0-0.1-0.1V7.4
			c0-0.1,0-0.1,0.1-0.1l1.2,0h0.7V6.4h-0.3l-1,0c-0.1,0-0.1,0-0.1-0.1V6c0-0.1,0-0.1,0.1-0.1l1,0h0.3V5h-0.2l-0.9,0
			c0,0-0.1,0-0.1-0.1V4.6c0-0.1,0-0.1,0.1-0.1l0.9,0h0.2V4.3c0-0.5,0-0.9-0.1-1.1l0.4,0.1c0.5-0.3,1.1-0.7,1.8-1.2h-3.4l-1.4,0
			c-0.1,0-0.1,0-0.1-0.1V1.6c0-0.1,0-0.1,0.1-0.1l1.4,0h3.5c0.1,0,0.2,0,0.3,0c0,0,0.1,0,0.1,0c0.1,0,0.1,0.1,0.3,0.2
			C172,1.9,172.1,2,172.1,2.1z M173.9,8.6c-0.1,0.1-0.3,0.2-0.4,0.3C173.5,9,173.4,9,173.4,9s-0.1,0-0.1-0.1
			c-0.7-0.7-1.2-1.5-1.6-2.4c-0.4-0.8-0.6-1.7-0.8-2.8c0,0,0,0,0,0c0,0,0-0.1,0.1-0.1l0.3-0.1c0,0,0.1,0,0.1,0c0,0,0,0,0,0.1
			c0.1,0.6,0.2,1.1,0.3,1.5c0.5-0.4,0.9-0.9,1.2-1.3c0.1-0.2,0.2-0.3,0.3-0.5c0.2,0.1,0.3,0.2,0.5,0.4c0.1,0.1,0.1,0.1,0.1,0.1
			c0,0,0,0.1-0.1,0.1c-0.1,0-0.2,0.2-0.4,0.4c-0.4,0.4-0.8,0.9-1.3,1.3C172.3,6.8,173,7.8,173.9,8.6z"/>
		<path class="st5" d="M178.2,3.3C178.2,3.4,178.1,3.4,178.2,3.3l-1.1,0.1h-1.2l-1,0c0,0-0.1,0-0.1-0.1V2.9c0-0.1,0-0.1,0.1-0.1l1,0
			h1.2l1,0c0.1,0,0.1,0,0.1,0.1V3.3z M177.9,1.9C177.9,2,177.8,2,177.9,1.9l-1,0.1h-0.8l-0.9,0c-0.1,0-0.1,0-0.1-0.1V1.5
			c0-0.1,0-0.1,0.1-0.1l0.9,0h0.8l0.9,0c0.1,0,0.1,0,0.1,0.1V1.9z M177.8,9.7C177.8,9.7,177.8,9.8,177.8,9.7l-0.5,0.1
			c-0.1,0-0.1,0-0.1-0.1V9.4h-1.5v0.5c0,0.1,0,0.1-0.1,0.1h-0.4c-0.1,0-0.1,0-0.1-0.1l0-1.5V7.8l0-0.9c0,0,0-0.1,0.1-0.1l0.9,0h0.7
			l0.9,0c0.1,0,0.1,0,0.1,0.1l0,0.7v0.6L177.8,9.7z M177.7,4.6C177.7,4.7,177.7,4.7,177.7,4.6l-0.9,0.1h-0.6l-0.8,0
			c-0.1,0-0.1,0-0.1-0.1V4.2c0-0.1,0-0.1,0.1-0.1l0.8,0h0.6l0.8,0c0.1,0,0.1,0,0.1,0.1V4.6z M177.7,6C177.7,6,177.7,6.1,177.7,6
			L176.8,6h-0.6l-0.8,0c-0.1,0-0.1,0-0.1-0.1V5.6c0-0.1,0-0.1,0.1-0.1l0.8,0h0.6l0.8,0c0.1,0,0.1,0,0.1,0.1V6z M177.3,8.9V7.4h-1.5
			v1.5H177.3z M183.3,1.6c0,0.1,0,0.3,0,0.6c-0.1,1.4-0.2,2.3-0.3,2.7c-0.1,0.4-0.4,0.6-0.9,0.6c-0.3,0-0.5,0-0.7,0
			c-0.1,0-0.1,0-0.1,0s0-0.1,0-0.2c0-0.1-0.1-0.3-0.1-0.4c0.3,0.1,0.6,0.1,0.9,0.1c0.3,0,0.4-0.1,0.5-0.3c0.2-0.4,0.2-1.3,0.3-2.7
			h-1.8c0,0.5-0.1,1-0.3,1.5c0.4,0.2,0.7,0.3,0.9,0.5c0,0,0,0,0,0c0,0,0,0,0,0.1l-0.1,0.3c0,0.1-0.1,0.1-0.1,0.1c0,0,0,0-0.1,0
			c-0.2-0.1-0.5-0.3-0.8-0.5c-0.4,0.8-1,1.4-1.8,1.8c-0.1,0-0.1,0.1-0.2,0.1c0,0-0.1,0-0.1-0.1c-0.1-0.1-0.2-0.2-0.3-0.3
			c0.9-0.4,1.5-1,1.9-1.7c-0.4-0.2-0.8-0.3-1.2-0.5c0,0,0,0,0,0c0,0,0,0,0-0.1l0.1-0.3c0,0,0.1-0.1,0.1-0.1c0,0,0,0,0.1,0
			c0.5,0.2,0.8,0.3,1.1,0.4c0.1-0.3,0.2-0.8,0.2-1.2h-0.4l-1.3,0c-0.1,0-0.1,0-0.1-0.1V1.6c0-0.1,0-0.1,0.1-0.1l1.3,0h2L183.3,1.6
			C183.3,1.5,183.3,1.5,183.3,1.6z M179.1,7.1c-0.1,0.8-0.3,1.4-0.6,1.9c0,0,0,0.1-0.1,0.1c0,0-0.1,0-0.1,0l-0.2-0.1
			c-0.1,0-0.1-0.1-0.1-0.1c0,0,0,0,0,0c0.3-0.5,0.5-1.1,0.5-1.8c0,0,0-0.1,0.1-0.1c0,0,0.1,0,0.1,0L179,7
			C179.1,7,179.1,7.1,179.1,7.1C179.1,7.1,179.1,7.1,179.1,7.1z M182.5,8.6c0,0.3-0.1,0.6-0.2,0.7c-0.1,0.1-0.2,0.3-0.3,0.3
			c-0.2,0.1-0.5,0.2-1,0.2c-0.4,0-0.8,0-0.9-0.1c-0.2-0.1-0.4-0.3-0.4-0.7V7.3c0-0.3,0-0.5,0-0.8c0.2,0,0.4,0,0.6,0.1
			c0.1,0,0.1,0,0.1,0.1c0,0,0,0.1,0,0.1c0,0.1,0,0.2,0,0.5v1.5c0,0.1,0,0.2,0,0.3c0,0,0.1,0.1,0.2,0.1c0.1,0,0.3,0.1,0.6,0.1
			c0.4,0,0.6,0,0.7-0.1c0.2-0.1,0.3-0.5,0.3-1.1c0.1,0.1,0.2,0.2,0.4,0.2C182.4,8.4,182.5,8.4,182.5,8.6
			C182.5,8.5,182.5,8.5,182.5,8.6z M181.7,6.5C181.8,6.6,181.8,6.6,181.7,6.5c0,0.1,0,0.1,0,0.2l-0.2,0.2C181.4,7,181.4,7,181.4,7
			s0,0-0.1,0c-0.3-0.4-0.7-0.8-1.2-1c0,0,0,0,0,0s0,0,0.1-0.1l0.2-0.2c0,0,0.1-0.1,0.1-0.1s0,0,0.1,0C180.9,5.8,181.3,6.1,181.7,6.5
			z M183.8,8.5C183.8,8.5,183.8,8.5,183.8,8.5c0,0.1,0,0.1-0.1,0.1l-0.2,0.1c-0.1,0-0.1,0-0.1,0c0,0,0,0,0-0.1
			c-0.2-0.6-0.5-1.2-0.9-1.7c0,0,0,0,0,0c0,0,0,0,0.1-0.1l0.2-0.1c0.1,0,0.1,0,0.1,0c0,0,0,0,0.1,0.1C183.2,7.3,183.5,7.8,183.8,8.5
			z"/>
		<path class="st5" d="M160.4,21.2h-5v-0.7h4.2v-5.7h-4.2v-0.7h5V21.2z"/>
		<path class="st5" d="M161.4,17.2h5.4v0.7h-5.4V17.2z"/>
		<path class="st5" d="M168.5,16.9v4.8h-0.8v-8.4h0.8v2.9c1.6,0.5,2.8,1,3.8,1.6l-0.4,0.7C171.1,17.9,169.9,17.4,168.5,16.9z
			 M170.5,13.1l0.5-0.2c0.2,0.3,0.4,0.9,0.7,1.7l-0.5,0.2C171,14.1,170.7,13.5,170.5,13.1z M171.6,12.8l0.5-0.2
			c0.3,0.4,0.5,1,0.7,1.6l-0.5,0.2C172.1,13.8,171.9,13.2,171.6,12.8z"/>
		<path class="st5" d="M175,14h5.5c0,2.4-0.4,4.2-1.3,5.4c-0.7,1-1.8,1.8-3.4,2.3l-0.4-0.6c1.5-0.5,2.6-1.3,3.3-2.3
			c0.6-1,1-2.4,1-4.1H175V14z"/>
		<path class="st5" d="M181.5,21.2v-7.2h5.2v7.2H181.5z M186,20.6v-5.8h-3.7v5.8H186z"/>
		<path class="st5" d="M187.7,17.2h5.4v0.7h-5.4V17.2z"/>
	</g>
</g>
<g id="source" xmlns:ev="http://www.w3.org/2001/xml-events" xmlns:v="http://schemas.microsoft.com/visio/2003/SVGExtensions/">
	<g id="group1550-2">
		<g id="shape1551-3">
			<path class="st0" d="M66,40.1c-2.2,1.7-4.8,2.5-7.3,2.5c-3.6,0-7.2-1.7-9.5-4.8c-4-5.4-3-13.1,2.2-17.3c2.2-1.7,4.8-2.5,7.3-2.5
				c3.6,0,7.2,1.7,9.5,4.8C72.3,28.3,71.3,36,66,40.1z M69.7,21.7c-2.7-3.6-6.8-5.5-11-5.5c-2.9,0-5.9,1-8.4,2.9
				c-6,4.8-7.2,13.7-2.5,19.9c2.7,3.6,6.8,5.5,11,5.5c2.9,0,5.9-0.9,8.4-2.9C73.2,36.8,74.3,27.9,69.7,21.7z"/>
		</g>
	</g>
	<g id="group1552-5" transform="translate(4.95554,-4.39536)">
		<g id="group1553-6" transform="translate(0.341805,-0.176482)">
			<g id="group1554-7" transform="translate(0.437248,3.2685E-13)">
				<g id="shape1555-8">
					<path class="st0" d="M46.8,37.5c-0.8-0.8-1.4-1.6-2-2.3c-1.2,2.4-1.6,4.9-1.7,6.9c0.1,0.2,0.1,0.3,0.2,0.4c0.6,0.8,1.3,1.5,2,2
						C45.3,42.9,45.4,40.2,46.8,37.5z"/>
				</g>
			</g>
			<g id="shape1556-10" transform="translate(3.29213,-8.97695)">
				<path class="st0" d="M48.1,37c-1.1,0.8-2.2,1.8-3.3,3c-0.6,0.7-1.2,1.4-1.6,2.1c0.5,0.8,1.1,1.6,1.9,2.5
					c0.6-0.9,1.3-1.7,2.2-2.6c1.1-1.1,2.2-1.9,3.1-2.6C49.6,38.6,48.8,37.8,48.1,37z"/>
			</g>
			<g id="group1557-12" transform="translate(9.93516,-15.1958)">
				<g id="shape1558-13">
					<path class="st0" d="M52.9,42.4c-0.5-0.7-1.1-1.3-1.7-1.8c-1.9-0.3-4.7-0.3-8,1.5c0.8,0.8,1.5,1.6,2.2,2.4
						C49.8,42.1,52.9,42.4,52.9,42.4z"/>
				</g>
			</g>
			<g id="group1559-15" transform="translate(1.10162E-13,-9.38012)">
				<g id="shape1560-16">
					<path class="st0" d="M45.2,44.5c0.3-0.7,0.7-1.4,1.2-2.1c-1.9-3.1-1.8-5.6-1.6-6.8c-0.5,0.5-0.9,1-1.3,1.6
						C43.2,38.9,43.1,41.4,45.2,44.5z"/>
				</g>
			</g>
			<g id="group1561-18" transform="translate(4.05148,-0.740211)">
				<g id="shape1562-19">
					<path class="st0" d="M46.6,38.4c-0.9-0.7-1.6-1.4-2.3-2.1c-0.5,0.7-0.8,1.3-1.1,2c0.6,0.6,1.3,1.3,2.1,1.9
						c4.9,4,9.8,4.4,12.6,4.4c0.2,0,1-1.2,1.5-1.9C58.1,42.8,52.8,43.5,46.6,38.4z"/>
				</g>
			</g>
			<g id="group1563-21" transform="translate(2.10339,-7.03041)">
				<g id="shape1564-22">
					<path class="st0" d="M43.1,42.2c0.5,0.8,1.2,1.5,2,2.3c0.3-0.6,0.7-1.3,1.1-1.9c-0.8-0.8-1.4-1.7-1.9-2.5
						C43.9,40.8,43.5,41.5,43.1,42.2z"/>
				</g>
			</g>
			<g id="group1565-24" transform="translate(10.5195,-5.3233)">
				<g id="shape1566-25">
					<path class="st0" d="M43.1,35.7c4.5,4.3,9.8,7.9,11.1,8.8c0.1-0.3,0.2-0.7,0.3-1c-1.5-1.1-5.3-4.2-9.8-8.8
						C44.3,34.9,43.7,35.3,43.1,35.7z"/>
				</g>
			</g>
			<g id="group1567-27" transform="translate(4.98729,-16.4714)">
				<g id="shape1568-28">
					<path class="st0" d="M48.1,43.4c-1.1-1.2-2.2-2.4-3.4-3.8c-0.5,0.2-1.1,0.4-1.6,0.7c0.8,1.4,2,2.8,3.2,4.2
						C47,44.1,47.5,43.7,48.1,43.4z"/>
				</g>
			</g>
			<g id="shape1569-30" transform="translate(8.13763,-14.0503)">
				<path class="st0" d="M45,41c-0.6,0.3-1.3,0.8-1.9,1.2c0.7,0.8,1.5,1.6,2.3,2.3c0.6-0.4,1.3-0.9,1.9-1.2
					C46.5,42.6,45.8,41.8,45,41z"/>
			</g>
			<g id="shape1570-32" transform="translate(8.1369,-14.0039)">
				<path class="st0" d="M44.8,40.8c-0.6,0.3-1.1,0.7-1.7,1.1c0.7,0.8,1.7,1.8,2.5,2.6c0.6-0.4,1-0.8,1.6-1.1
					C46.5,42.7,45.6,41.7,44.8,40.8z"/>
			</g>
		</g>
		<g id="group1571-34" transform="translate(14.8617,-6.23662)">
			<g id="shape1572-35">
				<path class="st0" d="M44.5,39.4c-1.1,0.9-1.3,2.6-0.5,3.7c0.9,1.2,2.5,1.4,3.6,0.5c1.1-0.9,1.3-2.5,0.5-3.7
					C47.2,38.8,45.6,38.5,44.5,39.4z"/>
			</g>
		</g>
		<g id="group1573-37" transform="translate(9.65099,-2.13163E-13)">
			<g id="shape1574-38">
				<path class="st0" d="M44.4,39.8c-1,0.8-1.2,2.4-0.5,3.4c0.8,1.1,2.3,1.3,3.4,0.5c1-0.8,1.2-2.4,0.4-3.4
					C46.9,39.2,45.4,39,44.4,39.8z"/>
			</g>
		</g>
		<g id="group1575-40" transform="translate(0,-5.36433)">
			<g id="shape1576-41">
				<path class="st0" d="M45,37.4c-1.6,1.3-1.9,3.6-0.7,5.2c1.2,1.6,3.5,1.9,5.1,0.7c1.6-1.3,1.9-3.6,0.7-5.2
					C48.9,36.4,46.6,36.1,45,37.4z"/>
			</g>
		</g>
	</g>
	<g id="group1580-58" transform="translate(0.375,-25.6729)">
		<g id="group1581-59">
			<g id="group1582-60">
				<g id="group1583-61" transform="translate(3.8518,-6.4617)">
					<g id="shape1584-62">
						<path class="st0" d="M3.6,54.6c-2.3,0.6-3.6,3.1-3,5.7c0.7,2.6,3,4.2,5.3,3.7c2.3-0.6,3.6-3.1,3-5.7C8.3,55.6,5.9,54,3.6,54.6
							z"/>
					</g>
				</g>
				<g id="group1585-64">
					<g id="shape1586-65">
						<path class="st0" d="M12.4,58.2c-0.4,0-0.9,0.8-1.5,1.1c-0.7,0.3-1.3,0.9-3.2,0c-1.9-0.9-2.1-1.7-3.6-1.7
							c-1.5,0-4.1,2.8-4.1,6.9h15.6c0,0-0.2-2.8-1.1-4.2C13.4,58.2,12.9,58.2,12.4,58.2z"/>
					</g>
				</g>
			</g>
		</g>
		<g id="group1587-67" transform="translate(9.0485,-0.85947)">
			<g id="shape1588-68">
				<path class="st2" d="M4.8,54.1H0.7c-0.3,0-0.6,0.3-0.6,0.7v2.8c0,0.3,0.3,0.7,0.8,0.7h0.8v5.2c0,0.6,0.4,1.1,1,1.1s1-0.4,1-1
					c0.1,0,0.2,0,0.2,0s0-0.5,0-0.7c0-0.2,0.3-0.3,0.3-0.3v-0.3c-0.3-0.1-0.5-0.3-0.5-0.4v-0.3c0.1-0.1,0.2-0.2,0.2-0.2
					C3.8,61.1,4,60.7,4,60.7s-0.3-0.4-0.3-0.5c-0.1-0.1-0.1-0.3-0.2-0.4v-0.2c0.1-0.5,0.8-1.1,0.8-1.1h0.5c0.3,0,0.7-0.3,0.7-0.7v-3
					C5.4,54.4,5.2,54.1,4.8,54.1z M2.4,63.7c0,0.2,0,0.3-0.2,0.3C2,64,2,63.8,2,63.7v-4.8c0-0.2,0.1-0.3,0.2-0.3
					c0.2,0,0.2,0.2,0.2,0.3V63.7z M2.7,55.9c-0.3,0-0.7-0.3-0.7-0.7c0-0.3,0.3-0.7,0.7-0.7c0.3,0,0.6,0.3,0.6,0.7
					C3.4,55.5,3.1,55.9,2.7,55.9z"/>
			</g>
			<g id="shape1589-70" transform="translate(1.92482,-0.570755)">
				<path class="st3" d="M0.2,64.5c-0.1,0-0.2-0.1-0.2-0.2v-5c0-0.1,0.1-0.2,0.2-0.2s0.2,0.1,0.2,0.2v5.1
					C0.4,64.5,0.3,64.5,0.2,64.5z"/>
			</g>
			<g id="shape1590-72" transform="translate(2.05993,-8.66317)">
				<ellipse class="st3" cx="0.7" cy="63.9" rx="0.7" ry="0.7"/>
			</g>
		</g>
	</g>
	<g id="Arrow">
		<g id="shape1579-52_2_" transform="translate(73.5133,-41.2635)">
			<g transform="scale(-2.68,-2.68) ">
				<g id="lend5_2_">
					<path class="st6" d="M133,67.9l8,4l-8,4C134.3,73.4,134.3,70.5,133,67.9"/>
				</g>
			</g>
		</g>
		<path class="st7" d="M209.9,31.5c-6.8,0-15,0-21.4,0c-6.5,0-13.4,0-19.9,0c-6.4,0-11.3,0-19.1,0c-6.5,0-13.1,0-19.6,0
			c-6.4,0-12.5,0-18.9,0c-6.5,0-13.4,0-19.9,0c-6.2,0-8.8,0-15.6,0c-0.2,0-1.5-0.2-1.5-0.8c0-0.6,1.4-0.8,1.7-0.8
			c3,0,88.4,0,133.9,0"/>
	</g>
	<g>
		<path class="st7" d="M207.8,30.8c0-2-0.8-3.1-1.4-4.3c2.8,1.5,5.5,2.9,8.2,4.3c-2.7,1.4-5.4,2.8-8.2,4.3
			C207,33.6,207.8,32.6,207.8,30.8z"/>
	</g>
</g>
</svg>
