<svg xmlns="http://www.w3.org/2000/svg" viewBox="0 0 205.55 55.68"><defs><style>.cls-1,.cls-4{fill:#fff;}.cls-1{stroke:#000;stroke-width:0.24px;}.cls-1,.cls-3{stroke-linecap:round;stroke-linejoin:round;}.cls-2,.cls-3{fill:#008bfd;}.cls-3{stroke:gray;stroke-width:0.75px;}.cls-5{fill:#505050;}.cls-6{fill:#00b0f0;}</style></defs><title>OJ104546506</title><g id="shapes"><g id="shape1000-1"><path class="cls-1" d="M16,9.82.12,21.25,6.2,39.73H25.86l6.08-18.48Z"/></g><g id="group1216-3"><g id="group1217-4"><g id="group1218-5"><g id="group1219-6"><g id="shape1220-7"><path class="cls-2" d="M15.7,16.94a4.49,4.49,0,0,0-3,5.66c.66,2.55,3,4.22,5.27,3.67a4.5,4.5,0,0,0,3-5.67C20.42,17.94,18,16.27,15.7,16.94Z"/></g></g><g id="group1221-9"><g id="shape1222-10"><path class="cls-2" d="M20.64,27c-.44,0-.88.78-1.54,1.11s-1.32.89-3.18,0-2.09-1.66-3.63-1.66-4.06,2.77-4.06,6.88H23.82a12.09,12.09,0,0,0-1.1-4.22C21.62,27,21.08,27,20.64,27Z"/></g></g></g></g><g id="group1223-12"><g id="shape1224-13"><path class="cls-3" d="M22.05,22H17.93a.71.71,0,0,0-.65.66v2.85a.72.72,0,0,0,.76.65h.76v5.15a1,1,0,0,0,1,1.1,1,1,0,0,0,1-1H21v-.65c0-.22.33-.33.33-.33v-.33c-.33-.11-.54-.33-.54-.44v-.33l.21-.22a3.55,3.55,0,0,0,.33-.54A2.4,2.4,0,0,1,21,28c-.1-.11-.1-.33-.21-.44v-.22a2.51,2.51,0,0,1,.76-1.1h.54a.7.7,0,0,0,.65-.65v-3A.63.63,0,0,0,22.05,22Zm-2.39,9.53c0,.22,0,.33-.21.33s-.22-.22-.22-.33V26.72c0-.22.11-.33.22-.33s.21.22.21.33ZM20,23.76a.69.69,0,0,1-.65-.65.7.7,0,0,1,.65-.66.71.71,0,0,1,.65.66A.62.62,0,0,1,20,23.76Z"/></g><g id="shape1225-15"><path class="cls-4" d="M19.43,31.85a.24.24,0,0,1-.22-.22v-5a.22.22,0,0,1,.44,0v5.11C19.65,31.85,19.54,31.85,19.43,31.85Z"/></g><g id="shape1226-17"><ellipse class="cls-4" cx="20" cy="23.09" rx="0.66" ry="0.67"/></g></g></g><g id="shape1229-25"><path class="cls-2" d="M77.23,9.3H56.73a1.09,1.09,0,0,0-1.09,1.1V27.14a1.1,1.1,0,0,0,1.09,1.11H62a3.29,3.29,0,0,0,3.21,2.27,3.38,3.38,0,0,0,0-6.75A3.29,3.29,0,0,0,62,26H57.82v-12H76.13V26H72.68a7.61,7.61,0,0,0-7.46-6.56,8.25,8.25,0,0,0-3.64.92l1,2a5.27,5.27,0,0,1,2.55-.67,5.46,5.46,0,0,1,0,10.91,5.27,5.27,0,0,1-2.55-.67l-1,2a7.51,7.51,0,0,0,3.64.92,7.61,7.61,0,0,0,7.46-6.56h4.55a1.1,1.1,0,0,0,1.09-1.11V10.4A1.14,1.14,0,0,0,77.23,9.3Z"/></g><g id="shape1227-19"><path class="cls-2" d="M192.6,8.81H172.1A1.09,1.09,0,0,0,171,9.91V26.65a1.1,1.1,0,0,0,1.09,1.11h5.28A3.29,3.29,0,0,0,180.59,30a3.38,3.38,0,0,0,0-6.75,3.29,3.29,0,0,0-3.21,2.27h-4.19v-12H191.5v12h-3.45A7.61,7.61,0,0,0,180.59,19a8.25,8.25,0,0,0-3.64.92l1,2a5.27,5.27,0,0,1,2.55-.67,5.46,5.46,0,0,1,0,10.91,5.27,5.27,0,0,1-2.55-.67l-1,2a7.51,7.51,0,0,0,3.64.92,7.61,7.61,0,0,0,7.46-6.56h4.55a1.1,1.1,0,0,0,1.09-1.11V9.91A1.14,1.14,0,0,0,192.6,8.81Z"/></g><g id="shape1230-28"><g id="lend5"><path class="cls-5" d="M162.52,17.59l8.06,4-7.94,4a9,9,0,0,0-.06-8"/></g></g></g><g id="text"><path d="M170.17,47.32h-.91l-.74-2h-3l-.7,2h-.91l2.68-7h.85Zm-1.92-2.7-1.1-3a4.26,4.26,0,0,1-.11-.47h0a2.53,2.53,0,0,1-.11.47l-1.09,3Z"/><path d="M172,44.67v2.65h-.82v-7h1.92a2.56,2.56,0,0,1,1.74.55,2,2,0,0,1,.62,1.54,2.1,2.1,0,0,1-.69,1.63,2.57,2.57,0,0,1-1.85.64Zm0-3.61v2.87h.86a1.89,1.89,0,0,0,1.29-.39,1.38,1.38,0,0,0,.45-1.1c0-.92-.55-1.38-1.64-1.38Z"/><path d="M177.62,47.32h-.82v-7h.82Z"/><path d="M181.42,39.87h6.51a7.1,7.1,0,0,1-.61,2.22,5,5,0,0,1-1.21,1.5l-.59-.48a4.21,4.21,0,0,0,1-1.26,3.49,3.49,0,0,0,.43-1.3h-5.58Zm.3,7.23a3.93,3.93,0,0,0,1.79-1.51,5.27,5.27,0,0,0,.55-2.64V41.36h.77V43a5.57,5.57,0,0,1-.8,3.2,5.06,5.06,0,0,1-1.83,1.5Z"/><path d="M193.93,40.71A9.56,9.56,0,0,1,193,45a6.39,6.39,0,0,1-3.65,2.79l-.42-.61a6.05,6.05,0,0,0,3.25-2.31,7.62,7.62,0,0,0,1-4.11h-4.67v-.66h4.79a1,1,0,0,1-.07-.4,1.13,1.13,0,0,1,2-.75,1.12,1.12,0,0,1,.29.75,1.12,1.12,0,0,1-1.12,1.13A.84.84,0,0,1,193.93,40.71Zm.35-1.74a.67.67,0,0,0-.52.22.69.69,0,0,0-.17.46.67.67,0,0,0,.23.52.63.63,0,0,0,.46.18.68.68,0,0,0,.52-.23.7.7,0,0,0,.17-.47.66.66,0,0,0-.23-.51A.63.63,0,0,0,194.28,39Z"/><path d="M196.83,39.63v4.9h-.77v-4.9Zm-.29,7.5a4,4,0,0,0,2.49-1.3,4.43,4.43,0,0,0,.64-2.62V39.57h.77v3.75a4.51,4.51,0,0,1-1,3.18,5,5,0,0,1-2.56,1.23Z"/><path d="M54.79,47.81h-.9l-.75-2h-3l-.7,2h-.92l2.69-7h.85Zm-1.91-2.7-1.1-3a2.53,2.53,0,0,1-.11-.47h0a2.53,2.53,0,0,1-.11.47l-1.09,3Z"/><path d="M56.65,45.16v2.65h-.83v-7h1.93a2.56,2.56,0,0,1,1.74.55,2,2,0,0,1,.62,1.54,2.14,2.14,0,0,1-.69,1.64,2.63,2.63,0,0,1-1.85.63Zm0-3.61v2.87h.85A1.92,1.92,0,0,0,58.8,44a1.37,1.37,0,0,0,.45-1.1c0-.92-.55-1.38-1.64-1.38Z"/><path d="M62.25,47.81h-.82v-7h.82Z"/><path d="M66,40.37h6.51a6.85,6.85,0,0,1-.61,2.21,5.13,5.13,0,0,1-1.2,1.51l-.59-.49a4.53,4.53,0,0,0,1-1.26,3.49,3.49,0,0,0,.43-1.3H66Zm.3,7.22a4,4,0,0,0,1.8-1.51,5.35,5.35,0,0,0,.55-2.64V41.85h.76v1.61a5.47,5.47,0,0,1-.8,3.2,5,5,0,0,1-1.82,1.5Z"/><path d="M78.55,41.21a9.39,9.39,0,0,1-1,4.23,6.42,6.42,0,0,1-3.65,2.79l-.42-.6a6.15,6.15,0,0,0,3.25-2.32,7.52,7.52,0,0,0,1-4.1H73.07v-.67h4.79a.94.94,0,0,1-.07-.39,1.07,1.07,0,0,1,.36-.83,1.08,1.08,0,0,1,.76-.29,1.1,1.1,0,0,1,.83.36,1.12,1.12,0,0,1,.28.76,1.08,1.08,0,0,1-.36.83,1.12,1.12,0,0,1-.75.29A1.09,1.09,0,0,1,78.55,41.21Zm.36-1.75a.67.67,0,0,0-.69.69.68.68,0,0,0,.69.69.66.66,0,0,0,.51-.23.64.64,0,0,0,.17-.46.67.67,0,0,0-.22-.52A.69.69,0,0,0,78.91,39.46Z"/><path d="M81.45,40.12V45h-.77v-4.9Zm-.28,7.5a4,4,0,0,0,2.48-1.3,4.35,4.35,0,0,0,.64-2.61V40.06h.77v3.75a4.51,4.51,0,0,1-1,3.18,5,5,0,0,1-2.57,1.23Z"/><path class="cls-6" d="M86.8,13.49a3,3,0,0,1-2.38-1,3.61,3.61,0,0,1-.9-2.55,3.9,3.9,0,0,1,.91-2.7,3.2,3.2,0,0,1,2.49-1,3,3,0,0,1,2.34,1,3.67,3.67,0,0,1,.88,2.56,3.86,3.86,0,0,1-.91,2.71A3.12,3.12,0,0,1,86.8,13.49ZM86.86,7a2.26,2.26,0,0,0-1.79.79,3.08,3.08,0,0,0-.69,2.09A3.1,3.1,0,0,0,85.05,12a2.21,2.21,0,0,0,1.75.79A2.31,2.31,0,0,0,88.62,12a3.07,3.07,0,0,0,.66-2.1,3.18,3.18,0,0,0-.64-2.14A2.2,2.2,0,0,0,86.86,7Z"/><path class="cls-6" d="M95.56,13.38h-.8V10.52c0-1.06-.39-1.59-1.16-1.59a1.25,1.25,0,0,0-1,.45,1.64,1.64,0,0,0-.4,1.14v2.86h-.8v-5h.8v.83h0a1.8,1.8,0,0,1,1.64-1,1.52,1.52,0,0,1,1.26.53,2.34,2.34,0,0,1,.43,1.53Z"/><path class="cls-6" d="M99.92,13.38v-7h2a2.14,2.14,0,0,1,1.44.45A1.4,1.4,0,0,1,103.88,8a1.74,1.74,0,0,1-.32,1,1.7,1.7,0,0,1-.89.62v0a1.8,1.8,0,0,1,1.13.54,1.61,1.61,0,0,1,.43,1.17,1.84,1.84,0,0,1-.65,1.46,2.4,2.4,0,0,1-1.62.56Zm.82-6.26V9.38h.84a1.58,1.58,0,0,0,1.06-.33,1.13,1.13,0,0,0,.38-.91c0-.68-.44-1-1.34-1Zm0,3v2.52h1.11a1.65,1.65,0,0,0,1.12-.34,1.16,1.16,0,0,0,.4-.94c0-.82-.56-1.24-1.69-1.24Z"/><path class="cls-6" d="M109.56,11.08H106a1.82,1.82,0,0,0,.45,1.28,1.53,1.53,0,0,0,1.18.46,2.46,2.46,0,0,0,1.55-.56V13a2.89,2.89,0,0,1-1.74.48,2.07,2.07,0,0,1-1.66-.68,2.75,2.75,0,0,1-.61-1.92,2.75,2.75,0,0,1,.66-1.9,2.12,2.12,0,0,1,1.64-.73,1.87,1.87,0,0,1,1.52.63,2.66,2.66,0,0,1,.54,1.77Zm-.82-.68a1.59,1.59,0,0,0-.33-1.08,1.14,1.14,0,0,0-.92-.39,1.28,1.28,0,0,0-1,.41A1.78,1.78,0,0,0,106,10.4Z"/><path class="cls-6" d="M114.92,13.38h-.8V10.49c0-1-.39-1.56-1.16-1.56a1.28,1.28,0,0,0-1,.45,1.72,1.72,0,0,0-.4,1.16v2.84h-.8V6h.8V9.21h0a1.81,1.81,0,0,1,1.64-1c1.13,0,1.69.68,1.69,2Z"/><path class="cls-6" d="M120,13.38h-.8v-.79h0a1.68,1.68,0,0,1-1.54.9,1.65,1.65,0,0,1-1.17-.39,1.39,1.39,0,0,1-.42-1c0-.94.55-1.48,1.65-1.63l1.5-.21c0-.85-.34-1.28-1-1.28a2.46,2.46,0,0,0-1.63.62V8.73a3,3,0,0,1,1.7-.47c1.17,0,1.76.62,1.76,1.86Zm-.8-2.53L118,11a2,2,0,0,0-.84.28.78.78,0,0,0-.28.7.79.79,0,0,0,.26.6,1.05,1.05,0,0,0,.7.23,1.29,1.29,0,0,0,1-.42,1.49,1.49,0,0,0,.39-1.06Z"/><path class="cls-6" d="M122.32,13.38h-.8V6h.8Z"/><path class="cls-6" d="M126.41,6.68a1,1,0,0,0-.53-.14c-.56,0-.84.36-.84,1.06v.78h1.17v.68H125v4.32h-.8V9.06h-.85V8.38h.85V7.56a1.67,1.67,0,0,1,.46-1.24,1.54,1.54,0,0,1,1.13-.45,1.56,1.56,0,0,1,.58.08Z"/><path class="cls-6" d="M131.9,13.49a2.31,2.31,0,0,1-1.77-.7,2.6,2.6,0,0,1-.66-1.86,2.68,2.68,0,0,1,.69-2A2.45,2.45,0,0,1,132,8.26a2.24,2.24,0,0,1,1.74.69,2.72,2.72,0,0,1,.63,1.91,2.69,2.69,0,0,1-.68,1.91A2.36,2.36,0,0,1,131.9,13.49ZM132,8.93a1.52,1.52,0,0,0-1.22.53,2.14,2.14,0,0,0-.45,1.44,2.08,2.08,0,0,0,.45,1.41,1.55,1.55,0,0,0,1.22.51,1.47,1.47,0,0,0,1.19-.5,2.21,2.21,0,0,0,.42-1.44,2.21,2.21,0,0,0-.42-1.44A1.45,1.45,0,0,0,132,8.93Z"/><path class="cls-6" d="M138.14,6.68a1,1,0,0,0-.53-.14c-.56,0-.84.36-.84,1.06v.78h1.17v.68h-1.17v4.32H136V9.06h-.85V8.38H136V7.56a1.67,1.67,0,0,1,.46-1.24,1.54,1.54,0,0,1,1.13-.45,1.56,1.56,0,0,1,.58.08Z"/><path class="cls-6" d="M140.62,6.1h5.51a9.48,9.48,0,0,1-1.29,5.37,6.94,6.94,0,0,1-3.36,2.33l-.42-.61a6.05,6.05,0,0,0,3.25-2.31,7.53,7.53,0,0,0,1-4.11h-4.67Z"/><path class="cls-6" d="M147.22,13.32V6.16h5.22v7.16Zm4.45-.68V6.84H148v5.8Z"/><path class="cls-6" d="M153.34,9.27h5.44V10h-5.44Z"/><rect class="cls-5" x="78.32" y="20.68" width="85.23" height="1.75"/></g></svg>