<svg xmlns="http://www.w3.org/2000/svg" width="204.71" height="64.78" viewBox="0 0 204.71 64.78"><title>OJ104440671</title><path d="M66,40.4a11.81,11.81,0,0,1-16.84-2.29,12.56,12.56,0,0,1,2.24-17.29,11.82,11.82,0,0,1,16.84,2.3A12.54,12.54,0,0,1,66,40.4ZM69.69,22a13.57,13.57,0,0,0-19.36-2.63,14.43,14.43,0,0,0-2.55,19.87,13.62,13.62,0,0,0,11,5.55,13.45,13.45,0,0,0,8.39-2.92A14.44,14.44,0,0,0,69.69,22Z" fill="#008bfd" fill-rule="evenodd"/><path d="M52.06,33.18a17,17,0,0,1-2-2.35,18.28,18.28,0,0,0-1.66,6.88c.11.16.11.29.23.44a12.55,12.55,0,0,0,2,2.05A14.13,14.13,0,0,1,52.06,33.18Z" fill="#008bfd" fill-rule="evenodd"/><path d="M56.67,23.74a21,21,0,0,0-3.33,3,15.71,15.71,0,0,0-1.61,2.05,15.42,15.42,0,0,0,1.9,2.46,16.32,16.32,0,0,1,2.2-2.56A26.47,26.47,0,0,1,59,26.06C58.16,25.3,57.38,24.53,56.67,23.74Z" fill="#008bfd" fill-rule="evenodd"/><path d="M68.14,22.94a12,12,0,0,0-1.73-1.82,12.53,12.53,0,0,0-8,1.53c.76.84,1.51,1.63,2.24,2.36C65,22.58,68.14,22.94,68.14,22.94Z" fill="#008bfd" fill-rule="evenodd"/><path d="M50.54,30.58a19.82,19.82,0,0,1,1.19-2.06,9.84,9.84,0,0,1-1.6-6.79,13.09,13.09,0,0,0-1.29,1.6C48.46,24.94,48.44,27.5,50.54,30.58Z" fill="#008bfd" fill-rule="evenodd"/><path d="M55.9,33.36a21.6,21.6,0,0,1-2.27-2.14,14.25,14.25,0,0,0-1.14,2,23.54,23.54,0,0,0,2.09,1.91,19.12,19.12,0,0,0,12.56,4.38,9,9,0,0,0,1.54-1.94C67.45,37.78,62.19,38.47,55.9,33.36Z" fill="#008bfd" fill-rule="evenodd"/><path d="M50.54,30.82a15.72,15.72,0,0,0,2,2.35,15.36,15.36,0,0,1,1.14-2,15.42,15.42,0,0,1-1.9-2.46A15.58,15.58,0,0,0,50.54,30.82Z" fill="#008bfd" fill-rule="evenodd"/><path d="M59,26.06a97,97,0,0,0,11.15,8.82,9.82,9.82,0,0,0,.33-1.05A95.51,95.51,0,0,1,60.61,25Q59.82,25.46,59,26.06Z" fill="#008bfd" fill-rule="evenodd"/><path d="M58.38,22.65q-1.65-1.77-3.36-3.8a10.05,10.05,0,0,0-1.59.66,26.3,26.3,0,0,0,3.24,4.22A17.22,17.22,0,0,1,58.38,22.65Z" fill="#008bfd" fill-rule="evenodd"/><path d="M58.45,22.61a18.74,18.74,0,0,0-1.87,1.19c.72.78,1.45,1.59,2.25,2.35.57-.4,1.34-.88,1.87-1.18C60,24.24,59.21,23.45,58.45,22.61Z" fill="#008bfd" fill-rule="evenodd"/><path d="M58.25,22.51a16.24,16.24,0,0,0-1.67,1.12c.72.79,1.74,1.81,2.54,2.57.57-.4,1.05-.8,1.58-1.11C60,24.37,59,23.34,58.25,22.51Z" fill="#008bfd" fill-rule="evenodd"/><path d="M64.3,29.06a2.7,2.7,0,0,0-.48,3.7,2.56,2.56,0,0,0,3.63.51,2.72,2.72,0,0,0,.48-3.72A2.55,2.55,0,0,0,64.3,29.06Z" fill="#008bfd" fill-rule="evenodd"/><path d="M49.34,35.67a2.52,2.52,0,0,0-.45,3.44,2.37,2.37,0,0,0,3.36.45,2.49,2.49,0,0,0,.44-3.43A2.36,2.36,0,0,0,49.34,35.67Z" fill="#008bfd" fill-rule="evenodd"/><path d="M50,27.86a3.79,3.79,0,0,0-.68,5.21,3.58,3.58,0,0,0,5.1.7,3.8,3.8,0,0,0,.67-5.23A3.59,3.59,0,0,0,50,27.86Z" fill="#008bfd" fill-rule="evenodd"/><path d="M191.76,17.85h-20.5A1.1,1.1,0,0,0,170.17,19V35.7a1.09,1.09,0,0,0,1.09,1.1h5.28a3.29,3.29,0,0,0,3.21,2.27,3.37,3.37,0,0,0,0-6.74,3.29,3.29,0,0,0-3.21,2.26h-4.19v-12h18.31v12h-3.45A7.61,7.61,0,0,0,179.75,28a8.25,8.25,0,0,0-3.64.92l1,2a5.39,5.39,0,0,1,2.55-.67,5.46,5.46,0,0,1,0,10.92,5.28,5.28,0,0,1-2.55-.68l-1,2a7.4,7.4,0,0,0,3.64.92,7.61,7.61,0,0,0,7.46-6.56h4.55a1.09,1.09,0,0,0,1.09-1.1V19A1.14,1.14,0,0,0,191.76,17.85Z" fill="#008bfd" fill-rule="evenodd"/><path d="M161.7,26.59l8,4-8,4a9,9,0,0,0,0-8" fill="#505050" fill-rule="evenodd"/><path d="M7.85,22.77a4.5,4.5,0,0,0-3,5.67c.66,2.55,3,4.21,5.27,3.66a4.49,4.49,0,0,0,3-5.66C12.57,23.77,10.16,22.11,7.85,22.77Z" fill="#008bfd" fill-rule="evenodd"/><path d="M12.79,32.79c-.44,0-.88.77-1.54,1.11s-1.32.88-3.18,0S6,32.23,4.44,32.23.38,35,.38,39.11H16a12.05,12.05,0,0,0-1.1-4.21C13.77,32.79,13.23,32.79,12.79,32.79Z" fill="#008bfd" fill-rule="evenodd"/><path d="M14.19,27.84H10.07a.71.71,0,0,0-.65.66v2.85a.73.73,0,0,0,.76.66h.76v5.15a1,1,0,0,0,1,1.09,1,1,0,0,0,1-1h.21v-.66c0-.22.33-.33.33-.33V36c-.33-.11-.54-.33-.54-.44v-.32L13.1,35a3.53,3.53,0,0,0,.33-.55,2.4,2.4,0,0,1-.33-.55c-.1-.11-.1-.33-.21-.44v-.22a2.52,2.52,0,0,1,.76-1.09h.54a.71.71,0,0,0,.65-.66v-3A.63.63,0,0,0,14.19,27.84ZM11.8,37.38c0,.22,0,.33-.21.33s-.22-.22-.22-.33V32.56c0-.22.11-.33.22-.33s.21.22.21.33Zm.33-7.78a.66.66,0,0,1,0-1.32.71.71,0,0,1,.65.66A.63.63,0,0,1,12.13,29.6Z" fill="#008bfd" stroke="gray" stroke-linecap="round" stroke-linejoin="round" stroke-width="0.75" fill-rule="evenodd"/><path d="M11.57,37.68a.24.24,0,0,1-.22-.22v-5a.22.22,0,1,1,.44,0v5.1C11.79,37.68,11.68,37.68,11.57,37.68Z" fill="#fff" fill-rule="evenodd"/><ellipse cx="12.14" cy="28.92" rx="0.66" ry="0.67" fill="#fff"/><rect x="72.98" y="29.74" width="91.04" height="1.75" rx="0.76" ry="0.76" fill="#505050"/><rect x="65.1" y="0.38" width="114.21" height="20" fill="none"/><path d="M45,50.78l-2,7H42l-1.44-5.12a3.19,3.19,0,0,1-.11-.71h0a4.11,4.11,0,0,1-.13.7l-1.45,5.13h-1l-2-7h.9l1.49,5.38a3.78,3.78,0,0,1,.12.7h0a5,5,0,0,1,.15-.7l1.55-5.38h.79l1.48,5.41a4.92,4.92,0,0,1,.12.66h0a3.4,3.4,0,0,1,.13-.68l1.43-5.39Z"/><path d="M49.7,55.49H46.17a1.87,1.87,0,0,0,.45,1.29,1.56,1.56,0,0,0,1.18.45,2.44,2.44,0,0,0,1.55-.56v.75a2.87,2.87,0,0,1-1.74.48A2.09,2.09,0,0,1,46,57.22a3.19,3.19,0,0,1,0-3.82,2.12,2.12,0,0,1,1.65-.73,1.86,1.86,0,0,1,1.51.63,2.66,2.66,0,0,1,.54,1.77Zm-.82-.68a1.62,1.62,0,0,0-.33-1.08,1.14,1.14,0,0,0-.92-.39,1.28,1.28,0,0,0-1,.41,1.84,1.84,0,0,0-.49,1.06Z"/><path d="M51.82,57.06h0v.73H51V50.38h.8v3.29h0a1.88,1.88,0,0,1,1.73-1,1.81,1.81,0,0,1,1.5.67,2.74,2.74,0,0,1,.55,1.8,3.07,3.07,0,0,1-.61,2,2,2,0,0,1-1.67.75A1.65,1.65,0,0,1,51.82,57.06Zm0-2v.7a1.48,1.48,0,0,0,.4,1,1.37,1.37,0,0,0,1,.43,1.36,1.36,0,0,0,1.14-.56,2.56,2.56,0,0,0,.41-1.54,2,2,0,0,0-.39-1.31,1.25,1.25,0,0,0-1-.48,1.42,1.42,0,0,0-1.13.49A1.79,1.79,0,0,0,51.8,55.05Z"/><path d="M59.5,50.34H66a6.84,6.84,0,0,1-.61,2.22,5.13,5.13,0,0,1-1.2,1.51l-.59-.49a4.53,4.53,0,0,0,1-1.26,3.44,3.44,0,0,0,.43-1.3H59.5Zm.3,7.23a4,4,0,0,0,1.8-1.51,5.35,5.35,0,0,0,.55-2.64V51.83h.76v1.61a5.47,5.47,0,0,1-.8,3.2,5,5,0,0,1-1.82,1.5Z"/><path d="M72.62,51.18a9.39,9.39,0,0,1-1,4.24A6.39,6.39,0,0,1,68,58.21l-.42-.6a6.11,6.11,0,0,0,3.25-2.32,7.53,7.53,0,0,0,1-4.11H67.13v-.66h4.79a1.18,1.18,0,0,1-.07-.39A1.11,1.11,0,0,1,73,49a1.11,1.11,0,0,1,1.12,1.12,1.06,1.06,0,0,1-.37.83,1.08,1.08,0,0,1-.75.29A.84.84,0,0,1,72.62,51.18ZM73,49.44a.64.64,0,0,0-.51.22.67.67,0,0,0-.18.47.66.66,0,0,0,.23.51.65.65,0,0,0,.46.18.68.68,0,0,0,.69-.69.67.67,0,0,0-.22-.52A.7.7,0,0,0,73,49.44Z"/><path d="M76.1,50.1V55h-.77V50.1Zm-.29,7.5a4,4,0,0,0,2.48-1.3,4.36,4.36,0,0,0,.64-2.62V50h.78v3.75a4.51,4.51,0,0,1-1,3.18,5,5,0,0,1-2.57,1.23Z"/><path d="M168.06,56.37h-.91l-.74-2h-3l-.7,2h-.91l2.68-7h.85Zm-1.92-2.7-1.1-3a3,3,0,0,1-.11-.47h0a2.74,2.74,0,0,1-.11.47l-1.09,3Z"/><path d="M169.93,53.72v2.65h-.82v-7H171a2.55,2.55,0,0,1,1.74.54,2,2,0,0,1,.62,1.55,2.12,2.12,0,0,1-.69,1.63,2.63,2.63,0,0,1-1.85.63Zm0-3.61V53h.86a1.92,1.92,0,0,0,1.3-.39,1.36,1.36,0,0,0,.45-1.09c0-.93-.55-1.39-1.64-1.39Z"/><path d="M175.43,56.37h-.82v-7h.82Z"/><path d="M179.79,48.93h6.51a7,7,0,0,1-.61,2.21,5,5,0,0,1-1.21,1.51l-.59-.49a4.21,4.21,0,0,0,1.05-1.26,3.44,3.44,0,0,0,.43-1.3h-5.58Zm.3,7.22a3.92,3.92,0,0,0,1.79-1.5,5.31,5.31,0,0,0,.55-2.65V50.42h.77V52a5.6,5.6,0,0,1-.8,3.21,5,5,0,0,1-1.83,1.49Z"/><path d="M192.9,49.77a9.36,9.36,0,0,1-1,4.23,6.41,6.41,0,0,1-3.66,2.79l-.42-.6a6.14,6.14,0,0,0,3.26-2.32,7.58,7.58,0,0,0,1-4.1h-4.66V49.1h4.79a.94.94,0,0,1-.07-.39,1.08,1.08,0,0,1,.36-.83,1.12,1.12,0,0,1,.75-.29,1.12,1.12,0,0,1,1.12,1.12,1.11,1.11,0,0,1-1.12,1.12A1,1,0,0,1,192.9,49.77Zm.35-1.75a.65.65,0,0,0-.51.22.67.67,0,0,0-.17.47.67.67,0,0,0,.22.52.69.69,0,0,0,.46.17.67.67,0,0,0,.69-.69.64.64,0,0,0-.22-.51A.66.66,0,0,0,193.25,48Z"/><path d="M196.38,48.68v4.9h-.77v-4.9Zm-.28,7.5a4,4,0,0,0,2.48-1.3,4.4,4.4,0,0,0,.64-2.61V48.62H200v3.75a4.47,4.47,0,0,1-1,3.18,4.8,4.8,0,0,1-2.56,1.23Z"/><path d="M95,7.38c0,.06,0,.08-.08.08l-1,0H92.71l-1,0s-.07,0-.07-.08V7s0-.08.07-.08l1,0h1.16l1,0A.07.07,0,0,1,95,7ZM94.69,6a.07.07,0,0,1-.08.08l-.87,0H93l-.87,0A.07.07,0,0,1,92,6v-.4a.07.07,0,0,1,.08-.08l.87,0h.78l.87,0a.07.07,0,0,1,.08.08Zm0,7.75c0,.05,0,.08-.08.08h-.4a.07.07,0,0,1-.08-.08v-.32H92.6V14s0,.08-.08.08h-.4c-.06,0-.09,0-.09-.08l0-1.46v-.6L92,11s0-.07.09-.07L93,11h.74l.86,0c.06,0,.08,0,.08.07l0,.72v.61Zm-.12-5.06a.07.07,0,0,1-.08.08l-.81,0H93l-.81,0a.07.07,0,0,1-.08-.08V8.32a.07.07,0,0,1,.08-.08l.81,0h.63l.81,0a.07.07,0,0,1,.08.08Zm0,1.34a.07.07,0,0,1-.08.08l-.81,0H93l-.81,0a.07.07,0,0,1-.08-.08V9.66a.07.07,0,0,1,.08-.08l.81,0h.63l.81,0a.07.07,0,0,1,.08.08ZM94.09,13v-1.5H92.6V13Zm6-7.32c0,.08,0,.29,0,.64A10.66,10.66,0,0,1,99.77,9a.85.85,0,0,1-.9.56,6.45,6.45,0,0,1-.67,0c-.08,0-.13,0-.14-.05a.34.34,0,0,1,0-.17,1.17,1.17,0,0,0-.14-.41,4.58,4.58,0,0,0,.86.09.47.47,0,0,0,.49-.27,9,9,0,0,0,.27-2.65H97.73a5.64,5.64,0,0,1-.3,1.47l.92.48s.05,0,.05,0l-.05.11-.13.27c0,.07-.07.11-.1.11l-.06,0c-.22-.13-.5-.29-.84-.47A4.13,4.13,0,0,1,95.4,9.9a.46.46,0,0,1-.16.06s-.09,0-.14-.13a.92.92,0,0,0-.3-.29,3.69,3.69,0,0,0,1.92-1.71,11.9,11.9,0,0,0-1.17-.47s0,0,0,0a.27.27,0,0,1,0-.1L95.66,7s0-.07.08-.07h.06c.45.16.83.3,1.12.43a4.65,4.65,0,0,0,.23-1.24h-.42l-1.26,0A.07.07,0,0,1,95.39,6v-.4a.07.07,0,0,1,.08-.08l1.26,0h2l1.28,0A.08.08,0,0,1,100.12,5.64ZM96,11.21a6.35,6.35,0,0,1-.56,1.88s0,.06-.06.06l-.11,0L95,13c-.08,0-.12-.08-.12-.1l0-.05a5.11,5.11,0,0,0,.54-1.77c0-.05,0-.07.06-.07l.1,0,.27.08c.07,0,.11.05.11.08S96,11.2,96,11.21Zm3.34,1.44a2.79,2.79,0,0,1-.17.74.66.66,0,0,1-.32.34,2.15,2.15,0,0,1-1,.17,2.44,2.44,0,0,1-.92-.11q-.36-.13-.36-.66V11.39a5.88,5.88,0,0,0,0-.77,3.84,3.84,0,0,1,.56.06c.08,0,.12.05.12.08a.48.48,0,0,1,0,.12,1.55,1.55,0,0,0,0,.47v1.54a.66.66,0,0,0,0,.29.37.37,0,0,0,.15.11,1.67,1.67,0,0,0,.56.06,1.4,1.4,0,0,0,.7-.1q.25-.18.27-1.05a1.2,1.2,0,0,0,.37.2c.11,0,.17.09.17.17A.54.54,0,0,0,99.3,12.65Zm-.74-2.05s0,.05,0,.07,0,.06-.08.11l-.19.19c-.06.06-.1.1-.12.1l0,0A5.14,5.14,0,0,0,97,10s0,0,0-.05L97,9.84l.19-.18c0-.05.08-.07.09-.07l.07,0A8.31,8.31,0,0,1,98.56,10.6Zm2.07,2a.08.08,0,0,1,0,0s0,.06-.12.1l-.24.12a.34.34,0,0,1-.12.05s0,0,0-.05a6.07,6.07,0,0,0-.89-1.71l0,0s0,0,.12-.08l.22-.1a.24.24,0,0,1,.11,0s0,0,.06,0A7.56,7.56,0,0,1,100.63,12.59Z" fill="#00b0f0"/><path d="M105,7.42c0,.06,0,.09-.08.09l-1,0h-1.28l-1,0s-.08,0-.08-.09V7a.07.07,0,0,1,.08-.08l1,0h1.28l1,0A.07.07,0,0,1,105,7Zm-.36,6.42c0,.06,0,.08-.08.08h-.41s-.08,0-.08-.08v-.33h-1.59V14c0,.06,0,.08-.08.08H102s-.08,0-.08-.08l0-1.47v-.61l0-.87A.07.07,0,0,1,102,11l.88,0h.8l.9,0s.07,0,.07.08l0,.71v.65Zm.05-7.8s0,.08-.08.08l-.88,0h-.84l-.88,0a.07.07,0,0,1-.08-.08v-.4a.07.07,0,0,1,.08-.08l.88,0h.84l.88,0c.06,0,.08,0,.08.08Zm-.14,2.74c0,.05,0,.08-.09.08l-.82,0h-.73l-.83,0a.07.07,0,0,1-.08-.08V8.39a.07.07,0,0,1,.08-.08l.83,0h.73l.82,0c.06,0,.09,0,.09.08Zm0,1.33c0,.06,0,.08-.09.08l-.82,0h-.73l-.83,0s-.08,0-.08-.08V9.72a.07.07,0,0,1,.08-.08l.83,0h.73l.82,0c.06,0,.09,0,.09.08ZM104.06,13V11.5h-1.59V13Zm6.3.52c0,.05,0,.08-.07.08l-1.36,0h-2.55l-1.35,0a.07.07,0,0,1-.08-.08v-.43A.07.07,0,0,1,105,13l.72,0V9.75a8.36,8.36,0,0,0-.07-1.36,4.66,4.66,0,0,1,.65.06c.08,0,.12,0,.12.08a.62.62,0,0,1-.06.19,5.69,5.69,0,0,0,0,1v3.3h1.21V6.32h-.91l-1.28,0s-.08,0-.08-.08V5.83a.07.07,0,0,1,.08-.08l1.28,0h2.16l1.29,0a.07.07,0,0,1,.08.08v.43c0,.06,0,.08-.08.08l-1.29,0h-.65V9.13h1l.76,0a.07.07,0,0,1,.08.08v.44s0,.07-.08.07l-.76,0h-1v3.37h.78l1.36,0s.07,0,.07.08Z" fill="#00b0f0"/><path d="M116.62,13.25h-5v-.67h4.2V6.88h-4.2V6.21h5Z" fill="#00b0f0"/><path d="M118,9.27h5.44V10H118Z" fill="#00b0f0"/><path d="M126,9v4.75h-.77V5.38H126v2.9a15.71,15.71,0,0,1,3.81,1.59l-.38.72A12.6,12.6,0,0,0,126,9ZM128,5.17l.51-.2a13.76,13.76,0,0,1,.74,1.69l-.54.22A11.53,11.53,0,0,0,128,5.17Zm1.14-.34.5-.18a7.79,7.79,0,0,1,.71,1.64l-.52.21A9.26,9.26,0,0,0,129.12,4.83Z" fill="#00b0f0"/><path d="M133.87,6.1h5.51a9.44,9.44,0,0,1-1.29,5.36,6.88,6.88,0,0,1-3.36,2.33l-.42-.6a6.06,6.06,0,0,0,3.25-2.32,7.55,7.55,0,0,0,1-4.1h-4.67Z" fill="#00b0f0"/><path d="M140.8,13.31V6.16H146v7.15Zm4.45-.67V6.83h-3.68v5.81Z" fill="#00b0f0"/><path d="M147.44,9.27h5.44V10h-5.44Z" fill="#00b0f0"/></svg>