<svg id="svg95" xmlns="http://www.w3.org/2000/svg" viewBox="0 0 205.55 55.68">
  <defs>
    <style>
      .cls-1, .cls-4, .cls-5 {
        fill: #fff;
      }

      .cls-1 {
        stroke: #000;
        stroke-width: 0.24px;
      }

      .cls-1, .cls-3 {
        stroke-linecap: round;
        stroke-linejoin: round;
      }

      .cls-1, .cls-2, .cls-3, .cls-4, .cls-7 {
        fill-rule: evenodd;
      }

      .cls-10, .cls-2, .cls-3 {
        fill: #008bfd;
      }

      .cls-3 {
        stroke: gray;
        stroke-width: 0.75px;
      }

      .cls-6, .cls-7 {
        fill: #505050;
      }

      .cls-8 {
        isolation: isolate;
      }

      .cls-9 {
        fill: #00b0f0;
      }
    </style>
  </defs>
  <title>OJ104546506</title>
  <g>
    <g id="shape1000-1">
      <path id="path15" class="cls-1" d="M16,9.82.12,21.25,6.2,39.73H25.86l6.08-18.48Z"/>
    </g>
    <g id="group1216-3">
      <g id="group1217-4">
        <g id="group1218-5">
          <g id="group1219-6">
            <g id="shape1220-7">
              <path id="path28" class="cls-2" d="M15.7,16.94a4.49,4.49,0,0,0-3,5.66c.66,2.55,3,4.22,5.27,3.67a4.5,4.5,0,0,0,3-5.67C20.42,17.94,18,16.27,15.7,16.94Z"/>
            </g>
          </g>
          <g id="group1221-9">
            <g id="shape1222-10">
              <path id="path36" class="cls-2" d="M20.64,27c-.44,0-.88.78-1.54,1.11s-1.32.89-3.18,0-2.09-1.66-3.63-1.66-4.06,2.77-4.06,6.88H23.82a12.09,12.09,0,0,0-1.1-4.22C21.62,27,21.08,27,20.64,27Z"/>
            </g>
          </g>
        </g>
      </g>
      <g id="group1223-12">
        <g id="shape1224-13">
          <path id="path46" class="cls-3" d="M22.05,22H17.93a.71.71,0,0,0-.65.66v2.85a.72.72,0,0,0,.76.65h.76v5.15a1,1,0,0,0,1,1.1,1,1,0,0,0,1-1H21v-.65c0-.22.33-.33.33-.33v-.33c-.33-.11-.54-.33-.54-.44v-.33l.21-.22a3.55,3.55,0,0,0,.33-.54A2.4,2.4,0,0,1,21,28c-.1-.11-.1-.33-.21-.44v-.22a2.51,2.51,0,0,1,.76-1.1h.54a.7.7,0,0,0,.65-.65v-3A.63.63,0,0,0,22.05,22Zm-2.39,9.53c0,.22,0,.33-.21.33s-.22-.22-.22-.33V26.72c0-.22.11-.33.22-.33s.21.22.21.33ZM20,23.76a.69.69,0,0,1-.65-.65.7.7,0,0,1,.65-.66.71.71,0,0,1,.65.66A.62.62,0,0,1,20,23.76Z"/>
        </g>
        <g id="shape1225-15">
          <path id="path51" class="cls-4" d="M19.43,31.85a.24.24,0,0,1-.22-.22v-5a.22.22,0,0,1,.44,0v5.11C19.65,31.85,19.54,31.85,19.43,31.85Z"/>
        </g>
        <g id="shape1226-17">
          <ellipse id="ellipse56" class="cls-5" cx="20" cy="23.09" rx="0.66" ry="0.67"/>
        </g>
      </g>
    </g>
  </g>
  <path id="path65" class="cls-2" d="M192.6,8.81H172.1A1.09,1.09,0,0,0,171,9.91V26.65a1.1,1.1,0,0,0,1.09,1.11h5.28A3.29,3.29,0,0,0,180.59,30a3.38,3.38,0,0,0,0-6.75,3.29,3.29,0,0,0-3.21,2.27h-4.19v-12H191.5v12h-3.45A7.61,7.61,0,0,0,180.59,19a8.25,8.25,0,0,0-3.64.92l1,2a5.27,5.27,0,0,1,2.55-.67,5.46,5.46,0,0,1,0,10.91,5.27,5.27,0,0,1-2.55-.67l-1,2a7.51,7.51,0,0,0,3.64.92,7.61,7.61,0,0,0,7.46-6.56h4.55a1.1,1.1,0,0,0,1.09-1.11V9.91A1.14,1.14,0,0,0,192.6,8.81Z"/>
  <path id="path83" class="cls-2" d="M77.23,9.3H56.73a1.09,1.09,0,0,0-1.09,1.1V27.14a1.1,1.1,0,0,0,1.09,1.11H62a3.29,3.29,0,0,0,3.21,2.27,3.38,3.38,0,0,0,0-6.75A3.29,3.29,0,0,0,62,26H57.82v-12H76.13V26H72.68a7.61,7.61,0,0,0-7.46-6.56,8.25,8.25,0,0,0-3.64.92l1,2a5.27,5.27,0,0,1,2.55-.67,5.46,5.46,0,0,1,0,10.91,5.27,5.27,0,0,1-2.55-.67l-1,2a7.51,7.51,0,0,0,3.64.92,7.61,7.61,0,0,0,7.46-6.56h4.55a1.1,1.1,0,0,0,1.09-1.11V10.4A1.14,1.14,0,0,0,77.23,9.3Z"/>
  <g>
    <rect class="cls-6" x="78.32" y="21.08" width="85.85" height="0.96" rx="0.42"/>
    <g id="shape1230-28">
      <g id="use7">
        <g id="lend5">
          <path id="path4" class="cls-7" d="M162.52,17.59l8.06,4-7.94,4a9,9,0,0,0-.06-8"/>
        </g>
      </g>
    </g>
  </g>
  <g id="text76" class="cls-8">
    <path class="cls-9" d="M89.48,13.49a3.07,3.07,0,0,1-2.39-1A3.67,3.67,0,0,1,86.2,10a3.85,3.85,0,0,1,.91-2.7,3.2,3.2,0,0,1,2.49-1,3,3,0,0,1,2.33,1,3.66,3.66,0,0,1,.89,2.56,3.86,3.86,0,0,1-.91,2.71A3.12,3.12,0,0,1,89.48,13.49ZM89.54,7a2.25,2.25,0,0,0-1.79.79,3.08,3.08,0,0,0-.69,2.09A3.1,3.1,0,0,0,87.73,12a2.2,2.2,0,0,0,1.75.78A2.32,2.32,0,0,0,91.3,12,3.07,3.07,0,0,0,92,9.9a3.23,3.23,0,0,0-.64-2.15A2.23,2.23,0,0,0,89.54,7Z"/>
    <path class="cls-9" d="M98.33,13.38h-.8V10.52q0-1.59-1.17-1.59a1.25,1.25,0,0,0-1,.45A1.68,1.68,0,0,0,95,10.52v2.86h-.8v-5H95v.83h0a1.78,1.78,0,0,1,1.64-1,1.51,1.51,0,0,1,1.25.53,2.35,2.35,0,0,1,.44,1.53Z"/>
    <path class="cls-9" d="M102.68,13.38v-7h2a2.14,2.14,0,0,1,1.44.45A1.41,1.41,0,0,1,106.65,8a1.68,1.68,0,0,1-.33,1,1.71,1.71,0,0,1-.88.62v0a1.8,1.8,0,0,1,1.13.54,1.65,1.65,0,0,1,.42,1.17,1.83,1.83,0,0,1-.64,1.46,2.41,2.41,0,0,1-1.63.56Zm.82-6.26V9.38h.84a1.58,1.58,0,0,0,1.06-.33,1.12,1.12,0,0,0,.39-.91q0-1-1.35-1Zm0,3v2.52h1.12a1.67,1.67,0,0,0,1.12-.34,1.19,1.19,0,0,0,.39-.94c0-.82-.56-1.24-1.69-1.24Z"/>
    <path class="cls-9" d="M112.4,11.08h-3.53a1.82,1.82,0,0,0,.45,1.28,1.53,1.53,0,0,0,1.18.46,2.49,2.49,0,0,0,1.56-.56V13a2.9,2.9,0,0,1-1.75.48,2.12,2.12,0,0,1-1.66-.68,2.75,2.75,0,0,1-.61-1.92A2.75,2.75,0,0,1,108.7,9a2.12,2.12,0,0,1,1.65-.73,1.9,1.9,0,0,1,1.52.63,2.71,2.71,0,0,1,.53,1.77Zm-.82-.68a1.59,1.59,0,0,0-.33-1.08,1.14,1.14,0,0,0-.92-.39,1.28,1.28,0,0,0-1,.41,1.84,1.84,0,0,0-.49,1.06Z"/>
    <path class="cls-9" d="M117.85,13.38h-.8V10.49c0-1-.39-1.56-1.16-1.56a1.28,1.28,0,0,0-1,.45,1.67,1.67,0,0,0-.4,1.16v2.84h-.8V6h.8V9.21h0a1.8,1.8,0,0,1,1.64-1c1.13,0,1.69.68,1.69,2Z"/>
    <path class="cls-9" d="M123,13.38h-.8v-.79h0a1.83,1.83,0,0,1-2.71.51,1.39,1.39,0,0,1-.42-1c0-.94.55-1.48,1.65-1.63l1.5-.21c0-.85-.34-1.28-1-1.28a2.46,2.46,0,0,0-1.63.62V8.73a3,3,0,0,1,1.7-.47c1.17,0,1.76.62,1.76,1.86Zm-.8-2.53L121,11a1.87,1.87,0,0,0-.83.28.9.9,0,0,0,0,1.3,1.05,1.05,0,0,0,.7.23,1.27,1.27,0,0,0,1-.42,1.49,1.49,0,0,0,.39-1.06Z"/>
    <path class="cls-9" d="M125.31,13.38h-.8V6h.8Z"/>
    <path class="cls-9" d="M129.43,6.68a1,1,0,0,0-.53-.14c-.56,0-.84.36-.84,1.06v.78h1.17v.68h-1.17v4.32h-.8V9.06h-.85V8.38h.85V7.56a1.67,1.67,0,0,1,.46-1.24,1.54,1.54,0,0,1,1.13-.45,1.56,1.56,0,0,1,.58.08Z"/>
    <path class="cls-9" d="M134.92,13.49a2.31,2.31,0,0,1-1.77-.7,2.6,2.6,0,0,1-.66-1.86,2.68,2.68,0,0,1,.69-2A2.42,2.42,0,0,1,135,8.26a2.24,2.24,0,0,1,1.74.69,2.72,2.72,0,0,1,.63,1.91,2.69,2.69,0,0,1-.68,1.91A2.36,2.36,0,0,1,134.92,13.49ZM135,8.93a1.52,1.52,0,0,0-1.22.53,2.14,2.14,0,0,0-.45,1.44,2.08,2.08,0,0,0,.45,1.41,1.55,1.55,0,0,0,1.22.51,1.47,1.47,0,0,0,1.19-.5,2.21,2.21,0,0,0,.42-1.44,2.21,2.21,0,0,0-.42-1.44A1.45,1.45,0,0,0,135,8.93Z"/>
    <path class="cls-9" d="M141.13,6.68a1,1,0,0,0-.53-.14c-.56,0-.84.36-.84,1.06v.78h1.17v.68h-1.17v4.32H139V9.06h-.85V8.38H139V7.56a1.67,1.67,0,0,1,.46-1.24,1.54,1.54,0,0,1,1.13-.45,1.56,1.56,0,0,1,.58.08Z"/>
    <path class="cls-9" d="M144.32,6.1h5.51a9.48,9.48,0,0,1-1.29,5.37,6.86,6.86,0,0,1-3.36,2.32l-.42-.6A6.05,6.05,0,0,0,148,10.88a7.62,7.62,0,0,0,1-4.11h-4.67Z"/>
    <path class="cls-9" d="M151.26,13.32V6.16h5.22v7.16Zm4.44-.68V6.84H152v5.8Z"/>
    <path class="cls-9" d="M157.89,9.27h5.44V10h-5.44Z"/>
  </g>
  <g id="text67" class="cls-8">
    <path class="cls-10" d="M168.9,47.32H168l-.74-2h-3l-.7,2h-.91l2.68-7h.85ZM167,44.62l-1.1-3a2.75,2.75,0,0,1-.11-.47h0a2.53,2.53,0,0,1-.11.47l-1.09,3Z"/>
    <path class="cls-10" d="M170.78,44.67v2.65H170v-7h1.92a2.56,2.56,0,0,1,1.74.55,2,2,0,0,1,.62,1.54,2.1,2.1,0,0,1-.69,1.63,2.59,2.59,0,0,1-1.85.64Zm0-3.61v2.87h.85a1.92,1.92,0,0,0,1.3-.39,1.38,1.38,0,0,0,.45-1.1c0-.92-.55-1.38-1.64-1.38Z"/>
    <path class="cls-10" d="M176.27,47.32h-.82v-7h.82Z"/>
    <path class="cls-10" d="M180.63,39.87h6.51a7.1,7.1,0,0,1-.61,2.22,4.85,4.85,0,0,1-1.21,1.5l-.59-.48a4.4,4.4,0,0,0,1.06-1.26,3.47,3.47,0,0,0,.42-1.3h-5.58Zm.3,7.23a3.93,3.93,0,0,0,1.79-1.51,5.24,5.24,0,0,0,.55-2.64V41.36H184V43a5.6,5.6,0,0,1-.8,3.21,5.06,5.06,0,0,1-1.83,1.5Z"/>
    <path class="cls-10" d="M193.75,40.71a9.56,9.56,0,0,1-1,4.24,6.39,6.39,0,0,1-3.65,2.79l-.42-.61A6.09,6.09,0,0,0,192,44.82a7.53,7.53,0,0,0,1-4.11h-4.66V40h4.79a.94.94,0,0,1-.07-.39,1.1,1.1,0,0,1,.36-.83,1.12,1.12,0,0,1,.76-.28,1.08,1.08,0,0,1,.83.36,1.12,1.12,0,0,1-.83,1.88A.81.81,0,0,1,193.75,40.71ZM194.1,39a.67.67,0,0,0-.52.22.69.69,0,1,0,1.21.46.68.68,0,0,0-.23-.51A.64.64,0,0,0,194.1,39Z"/>
    <path class="cls-10" d="M197.22,39.63v4.9h-.77v-4.9Zm-.28,7.5a4,4,0,0,0,2.48-1.3,4.45,4.45,0,0,0,.64-2.62V39.57h.77v3.75a4.47,4.47,0,0,1-1,3.18,5,5,0,0,1-2.56,1.23Z"/>
  </g>
  <g id="text85" class="cls-8">
    <path class="cls-10" d="M53.52,47.81h-.91l-.74-2h-3l-.69,2h-.92l2.69-7h.85Zm-1.92-2.7-1.09-3a1.91,1.91,0,0,1-.11-.47h0a2.53,2.53,0,0,1-.11.47l-1.09,3Z"/>
    <path class="cls-10" d="M55.4,45.16v2.65h-.82v-7H56.5a2.6,2.6,0,0,1,1.75.55,2,2,0,0,1,.61,1.54,2.16,2.16,0,0,1-.68,1.64,2.65,2.65,0,0,1-1.86.63Zm0-3.61v2.87h.86a1.92,1.92,0,0,0,1.3-.39,1.39,1.39,0,0,0,.44-1.1c0-.92-.54-1.38-1.64-1.38Z"/>
    <path class="cls-10" d="M60.9,47.81h-.83v-7h.83Z"/>
    <path class="cls-10" d="M65.26,40.37h6.5a6.85,6.85,0,0,1-.61,2.21A5.13,5.13,0,0,1,70,44.09l-.59-.49a4.53,4.53,0,0,0,1-1.26,3.44,3.44,0,0,0,.43-1.3H65.26Zm.29,7.22a4,4,0,0,0,1.8-1.51,5.35,5.35,0,0,0,.55-2.64V41.85h.76v1.61a5.47,5.47,0,0,1-.8,3.2A4.93,4.93,0,0,1,66,48.16Z"/>
    <path class="cls-10" d="M78.37,41.21a9.38,9.38,0,0,1-1,4.23,6.39,6.39,0,0,1-3.65,2.79l-.42-.6a6.11,6.11,0,0,0,3.25-2.32,7.51,7.51,0,0,0,1-4.1H72.88v-.67h4.79a1.18,1.18,0,0,1-.07-.39,1.13,1.13,0,0,1,2-.76,1.13,1.13,0,0,1,.29.76,1.06,1.06,0,0,1-.37.83,1.08,1.08,0,0,1-.75.29A1,1,0,0,1,78.37,41.21Zm.35-1.75a.64.64,0,0,0-.51.22.67.67,0,0,0-.18.47.66.66,0,0,0,.23.51.65.65,0,0,0,.46.18.68.68,0,0,0,.69-.69.67.67,0,0,0-.22-.52A.71.71,0,0,0,78.72,39.46Z"/>
    <path class="cls-10" d="M81.85,40.12V45h-.77v-4.9Zm-.29,7.5A4,4,0,0,0,84,46.32a4.35,4.35,0,0,0,.64-2.61V40.06h.78v3.75a4.51,4.51,0,0,1-1,3.18,5,5,0,0,1-2.56,1.23Z"/>
  </g>
</svg>
