<svg id="svg198" xmlns="http://www.w3.org/2000/svg" viewBox="0 0 204.71 64.78">
  <defs>
    <style>
      .cls-1, .cls-6 {
        fill: #008bfd;
      }

      .cls-2 {
        isolation: isolate;
      }

      .cls-3, .cls-8 {
        fill: none;
      }

      .cls-4 {
        fill: #00b0f0;
      }

      .cls-5 {
        fill: #505050;
      }

      .cls-6 {
        stroke: gray;
        stroke-linecap: round;
        stroke-linejoin: round;
        stroke-width: 0.75px;
      }

      .cls-7 {
        fill: #fff;
      }

      .cls-8 {
        stroke: #505050;
        stroke-miterlimit: 10;
      }
    </style>
  </defs>
  <title>OJ104440671</title>
  <g id="group1113-2">
    <g id="shape1114-3">
      <path id="path21" class="cls-1" d="M66,40.4a11.81,11.81,0,0,1-16.84-2.29,12.56,12.56,0,0,1,2.24-17.29,11.82,11.82,0,0,1,16.84,2.3A12.54,12.54,0,0,1,66,40.4ZM69.69,22a13.57,13.57,0,0,0-19.36-2.63,14.43,14.43,0,0,0-2.55,19.87,13.62,13.62,0,0,0,11,5.55,13.45,13.45,0,0,0,8.39-2.92A14.44,14.44,0,0,0,69.69,22Z"/>
    </g>
  </g>
  <g id="group1115-5">
    <g id="group1116-6">
      <g id="group1117-7">
        <g id="shape1118-8">
          <path id="path33" class="cls-1" d="M52.06,33.18a17,17,0,0,1-2-2.35,18.28,18.28,0,0,0-1.66,6.88c.11.16.11.29.23.44a12.55,12.55,0,0,0,2,2.05A14.13,14.13,0,0,1,52.06,33.18Z"/>
        </g>
      </g>
      <g id="shape1119-10">
        <path id="path39" class="cls-1" d="M56.67,23.74a21,21,0,0,0-3.33,3,15.71,15.71,0,0,0-1.61,2.05,15.42,15.42,0,0,0,1.9,2.46,16.32,16.32,0,0,1,2.2-2.56A26.47,26.47,0,0,1,59,26.06C58.16,25.3,57.38,24.53,56.67,23.74Z"/>
      </g>
      <g id="group1120-12">
        <g id="shape1121-13">
          <path id="path46" class="cls-1" d="M68.14,22.94a12,12,0,0,0-1.73-1.82,12.53,12.53,0,0,0-8,1.53c.76.84,1.51,1.63,2.24,2.36C65,22.58,68.14,22.94,68.14,22.94Z"/>
        </g>
      </g>
      <g id="group1122-15">
        <g id="shape1123-16">
          <path id="path54" class="cls-1" d="M50.34,31a19.82,19.82,0,0,1,1.19-2.06,9.84,9.84,0,0,1-1.6-6.79,13.09,13.09,0,0,0-1.29,1.6C48.26,25.33,48.24,27.89,50.34,31Z"/>
        </g>
      </g>
      <g id="group1124-18">
        <g id="shape1125-19">
          <path id="path62" class="cls-1" d="M55.9,33.36a21.6,21.6,0,0,1-2.27-2.14,14.25,14.25,0,0,0-1.14,2,23.54,23.54,0,0,0,2.09,1.91,19.12,19.12,0,0,0,12.56,4.38,9,9,0,0,0,1.54-1.94C67.45,37.78,62.19,38.47,55.9,33.36Z"/>
        </g>
      </g>
      <g id="group1126-21">
        <g id="shape1127-22">
          <path id="path70" class="cls-1" d="M50.54,30.82a15.72,15.72,0,0,0,2,2.35,15.36,15.36,0,0,1,1.14-2,15.42,15.42,0,0,1-1.9-2.46A15.58,15.58,0,0,0,50.54,30.82Z"/>
        </g>
      </g>
      <g id="group1128-24">
        <g id="shape1129-25">
          <path id="path78" class="cls-1" d="M59,26.06a97,97,0,0,0,11.15,8.82,9.82,9.82,0,0,0,.33-1.05A95.51,95.51,0,0,1,60.61,25Q59.82,25.46,59,26.06Z"/>
        </g>
      </g>
      <g id="group1130-27">
        <g id="shape1131-28">
          <path id="path86" class="cls-1" d="M58.38,22.65q-1.65-1.77-3.36-3.8a10.05,10.05,0,0,0-1.59.66,26.3,26.3,0,0,0,3.24,4.22A17.22,17.22,0,0,1,58.38,22.65Z"/>
        </g>
      </g>
      <g id="shape1132-30">
        <path id="path92" class="cls-1" d="M58.45,22.61a18.74,18.74,0,0,0-1.87,1.19c.72.78,1.45,1.59,2.25,2.35.57-.4,1.34-.88,1.87-1.18C60,24.24,59.21,23.45,58.45,22.61Z"/>
      </g>
      <g id="shape1133-32">
        <path id="path97" class="cls-1" d="M58.25,22.51a16.24,16.24,0,0,0-1.67,1.12c.72.79,1.74,1.81,2.54,2.57.57-.4,1.05-.8,1.58-1.11C60,24.37,59,23.34,58.25,22.51Z"/>
      </g>
    </g>
    <g id="group1134-34">
      <g id="shape1135-35">
        <path id="path105" class="cls-1" d="M64.3,29.06a2.7,2.7,0,0,0-.48,3.7,2.56,2.56,0,0,0,3.63.51,2.72,2.72,0,0,0,.48-3.72A2.55,2.55,0,0,0,64.3,29.06Z"/>
      </g>
    </g>
    <g id="group1136-37">
      <g id="shape1137-38">
        <path id="path113" class="cls-1" d="M59.13,35.19a2.52,2.52,0,0,0-.45,3.44,2.37,2.37,0,0,0,3.36.45,2.49,2.49,0,0,0,.44-3.43A2.36,2.36,0,0,0,59.13,35.19Z"/>
      </g>
    </g>
    <g id="group1138-40">
      <g id="shape1139-41">
        <path id="path121" class="cls-1" d="M50,27.86a3.79,3.79,0,0,0-.68,5.21,3.58,3.58,0,0,0,5.1.7,3.8,3.8,0,0,0,.67-5.23A3.59,3.59,0,0,0,50,27.86Z"/>
      </g>
    </g>
  </g>
  <g id="shape1112-43">
    <g id="text126" class="cls-2">
      <path class="cls-1" d="M45.21,50.78l-2,7h-1l-1.44-5.12a3.19,3.19,0,0,1-.11-.71h0a3.32,3.32,0,0,1-.13.7l-1.45,5.13h-.95l-2.05-7H37l1.49,5.38a3.78,3.78,0,0,1,.12.7h0a5,5,0,0,1,.15-.7l1.55-5.38h.79l1.48,5.41a4.92,4.92,0,0,1,.12.66h0a3.2,3.2,0,0,1,.13-.67l1.43-5.4Z"/>
      <path class="cls-1" d="M50,55.49H46.43a2,2,0,0,0,.45,1.29,1.56,1.56,0,0,0,1.18.45,2.49,2.49,0,0,0,1.56-.56v.76a3,3,0,0,1-1.75.47,2.09,2.09,0,0,1-1.66-.68,3.19,3.19,0,0,1,0-3.82,2.14,2.14,0,0,1,1.65-.73,1.9,1.9,0,0,1,1.52.63A2.73,2.73,0,0,1,50,55.07Zm-.82-.68a1.62,1.62,0,0,0-.33-1.08,1.14,1.14,0,0,0-.92-.39,1.3,1.3,0,0,0-1,.41,1.84,1.84,0,0,0-.49,1.06Z"/>
      <path class="cls-1" d="M52.08,57.06h0v.73h-.8V50.38h.8v3.29h0a1.89,1.89,0,0,1,1.73-1,1.84,1.84,0,0,1,1.51.67,2.8,2.8,0,0,1,.54,1.8,3.07,3.07,0,0,1-.61,2,2,2,0,0,1-1.67.75A1.65,1.65,0,0,1,52.08,57.06Zm0-2v.7a1.53,1.53,0,0,0,.4,1,1.34,1.34,0,0,0,1,.43,1.36,1.36,0,0,0,1.14-.56A2.56,2.56,0,0,0,55,55.13a2,2,0,0,0-.39-1.31,1.25,1.25,0,0,0-1-.48,1.42,1.42,0,0,0-1.12.49A1.75,1.75,0,0,0,52.06,55.05Z"/>
      <path class="cls-1" d="M59.77,50.35h6.51a7.11,7.11,0,0,1-.61,2.21,5.16,5.16,0,0,1-1.21,1.51l-.59-.49a4.36,4.36,0,0,0,1.05-1.26,3.44,3.44,0,0,0,.43-1.3H59.77Zm.29,7.22a3.91,3.91,0,0,0,1.8-1.51,5.24,5.24,0,0,0,.55-2.64V51.83h.77v1.61a5.47,5.47,0,0,1-.81,3.2,4.93,4.93,0,0,1-1.82,1.5Z"/>
      <path class="cls-1" d="M72.88,51.19a9.53,9.53,0,0,1-1,4.23,6.41,6.41,0,0,1-3.66,2.79l-.42-.6a6.18,6.18,0,0,0,3.26-2.32,7.61,7.61,0,0,0,1-4.1H67.39v-.67h4.79a1.18,1.18,0,0,1-.06-.39,1.12,1.12,0,0,1,1.94-.76A1.14,1.14,0,0,1,74,51a1.13,1.13,0,0,1-.76.29A1,1,0,0,1,72.88,51.19Zm.35-1.75a.65.65,0,0,0-.51.22.67.67,0,0,0-.17.47.68.68,0,0,0,.68.69.68.68,0,0,0,.52-.23.64.64,0,0,0,.17-.46.67.67,0,0,0-.22-.52A.7.7,0,0,0,73.23,49.44Z"/>
      <path class="cls-1" d="M76.36,50.1V55h-.77V50.1Zm-.28,7.5a4,4,0,0,0,2.48-1.3,4.42,4.42,0,0,0,.64-2.61V50H80v3.75A4.47,4.47,0,0,1,79,57a5,5,0,0,1-2.56,1.23Z"/>
    </g>
  </g>
  <rect id="rect134" class="cls-3" x="65.1" y="0.37" width="114.21" height="20"/>
  <g id="text136" class="cls-2">
    <path class="cls-4" d="M91.71,7.38c0,.06,0,.08-.08.08l-1,0H89.43l-1,0s-.07,0-.07-.08V7s0-.08.07-.08l1,0h1.16l1,0a.07.07,0,0,1,.08.08ZM91.41,6a.07.07,0,0,1-.08.08l-.87,0h-.78l-.87,0c-.06,0-.08,0-.08-.08v-.4s0-.08.08-.08l.87,0h.78l.87,0a.07.07,0,0,1,.08.08Zm0,7.75a.07.07,0,0,1-.08.08h-.4c-.06,0-.08,0-.08-.08v-.32H89.32V14a.07.07,0,0,1-.08.08h-.4c-.06,0-.09,0-.09-.08l0-1.46v-.6l0-.89a.07.07,0,0,1,.08-.07l.86,0h.74l.86,0a.07.07,0,0,1,.08.07l0,.72v.61Zm-.12-5.06a.07.07,0,0,1-.08.08l-.81,0h-.63l-.81,0c-.06,0-.09,0-.09-.08V8.32c0-.05,0-.08.09-.08l.81,0h.63l.81,0a.07.07,0,0,1,.08.08Zm0,1.34a.07.07,0,0,1-.08.08l-.81,0h-.63l-.81,0c-.06,0-.09,0-.09-.08V9.66c0-.05,0-.08.09-.08l.81,0h.63l.81,0a.07.07,0,0,1,.08.08ZM90.81,13v-1.5H89.32V13Zm6-7.32c0,.08,0,.29,0,.64A11.16,11.16,0,0,1,96.49,9a.85.85,0,0,1-.9.56,6.45,6.45,0,0,1-.67,0c-.08,0-.13,0-.15-.05a.58.58,0,0,1,0-.17,1.17,1.17,0,0,0-.14-.41,4.49,4.49,0,0,0,.86.09.48.48,0,0,0,.49-.27,9,9,0,0,0,.27-2.65H94.45a5.64,5.64,0,0,1-.3,1.47l.92.48s0,0,0,0a.36.36,0,0,1,0,.11l-.13.27c0,.07-.07.11-.1.11a.09.09,0,0,1-.06,0l-.84-.47A4.18,4.18,0,0,1,92.12,9.9.54.54,0,0,1,92,10s-.09,0-.14-.13a.92.92,0,0,0-.3-.29,3.69,3.69,0,0,0,1.92-1.71,11.9,11.9,0,0,0-1.17-.47s0,0,0,0a.27.27,0,0,1,0-.1L92.38,7s.05-.07.08-.07h.06c.45.16.82.3,1.12.43a4.65,4.65,0,0,0,.23-1.24h-.42l-1.26,0c-.06,0-.08,0-.08-.08v-.4s0-.08.08-.08l1.26,0h2l1.28,0A.08.08,0,0,1,96.84,5.64Zm-4.16,5.57a6.66,6.66,0,0,1-.56,1.88s0,.06-.06.06l-.11,0L91.71,13c-.08,0-.12-.08-.12-.1a.11.11,0,0,1,0-.05,4.91,4.91,0,0,0,.55-1.77c0-.05,0-.07,0-.07l.11,0,.27.08c.07,0,.1.05.1.08ZM96,12.65a2.79,2.79,0,0,1-.17.74.77.77,0,0,1-.33.34,2.07,2.07,0,0,1-1,.17,2.41,2.41,0,0,1-.92-.11.62.62,0,0,1-.37-.66V11.39c0-.29,0-.55,0-.77a3.69,3.69,0,0,1,.55.06c.08,0,.12.05.12.08a.9.9,0,0,1,0,.12,1.25,1.25,0,0,0,0,.47v1.54a.66.66,0,0,0,0,.29.27.27,0,0,0,.15.11,1.67,1.67,0,0,0,.56.06,1.43,1.43,0,0,0,.7-.1q.25-.18.27-1.05a1.2,1.2,0,0,0,.37.2c.11,0,.16.09.16.17Zm-.74-2.05s0,.05,0,.07,0,.06-.08.11l-.19.19-.12.1a.07.07,0,0,1-.05,0,5.2,5.2,0,0,0-1.22-1s0,0,0-.05l.08-.09.19-.18A.18.18,0,0,1,94,9.59l.07,0A9.49,9.49,0,0,1,95.28,10.6Zm2.07,2s0,0,0,0,0,.06-.12.1l-.24.12a.34.34,0,0,1-.12.05s0,0,0-.05a5.85,5.85,0,0,0-.9-1.71.08.08,0,0,1,0,0s0,0,.12-.08l.22-.1.1,0s0,0,.07,0A8,8,0,0,1,97.35,12.59Z"/>
    <path class="cls-4" d="M101.71,7.42c0,.06,0,.09-.08.09l-1,0H99.29l-1.05,0s-.07,0-.07-.09V7s0-.08.07-.08l1.05,0h1.29l1,0a.07.07,0,0,1,.08.08Zm-.36,6.42c0,.06,0,.08-.08.08h-.41c-.06,0-.08,0-.08-.08v-.33H99.19V14c0,.06,0,.08-.08.08H98.7c-.06,0-.08,0-.08-.08l0-1.47v-.61l0-.87c0-.05,0-.08.07-.08l.89,0h.8l.89,0a.07.07,0,0,1,.08.08l0,.71v.65ZM101.4,6a.07.07,0,0,1-.08.08l-.88,0H99.6l-.88,0c-.06,0-.08,0-.08-.08v-.4s0-.08.08-.08l.88,0h.84l.88,0a.07.07,0,0,1,.08.08Zm-.14,2.74c0,.05,0,.08-.1.08l-.82,0h-.72l-.83,0c-.06,0-.08,0-.08-.08V8.39c0-.05,0-.08.08-.08l.83,0h.72l.82,0c.07,0,.1,0,.1.08Zm0,1.33c0,.05,0,.08-.1.08l-.82,0h-.72l-.83,0c-.06,0-.08,0-.08-.08V9.72c0-.05,0-.08.08-.08l.83,0h.72l.82,0c.07,0,.1,0,.1.08ZM100.78,13V11.5H99.19V13Zm6.3.52a.07.07,0,0,1-.08.08l-1.35,0H103.1l-1.35,0a.07.07,0,0,1-.08-.08v-.43a.07.07,0,0,1,.08-.08l.72,0V9.75a8.36,8.36,0,0,0-.07-1.36,4.82,4.82,0,0,1,.65.06c.08,0,.12,0,.12.08a.62.62,0,0,1-.06.19,5.69,5.69,0,0,0,0,1v3.3h1.21V6.32h-.91l-1.28,0s-.08,0-.08-.08V5.83a.07.07,0,0,1,.08-.08l1.28,0h2.16l1.28,0c.06,0,.09,0,.09.08v.43c0,.06,0,.08-.09.08l-1.28,0h-.65V9.13h1l.76,0a.07.07,0,0,1,.08.08v.44s0,.07-.08.07l-.76,0h-1v3.37h.78L107,13a.07.07,0,0,1,.08.08Z"/>
    <path class="cls-4" d="M113.33,13.25h-5v-.67h4.2V6.88h-4.2V6.21h5Z"/>
    <path class="cls-4" d="M114.73,9.27h5.44V10h-5.44Z"/>
    <path class="cls-4" d="M122.76,9v4.75H122V5.38h.77v2.9a15.88,15.88,0,0,1,3.81,1.59l-.38.72A12.6,12.6,0,0,0,122.76,9Zm1.94-3.85.51-.2A13.76,13.76,0,0,1,126,6.66l-.54.22A11.53,11.53,0,0,0,124.7,5.17Zm1.13-.34.51-.18a8.35,8.35,0,0,1,.71,1.64l-.52.21A8.57,8.57,0,0,0,125.83,4.83Z"/>
    <path class="cls-4" d="M130.59,6.1h5.5a9.44,9.44,0,0,1-1.29,5.36,6.8,6.8,0,0,1-3.35,2.33l-.42-.6a6.1,6.1,0,0,0,3.25-2.32,7.49,7.49,0,0,0,1-4.1h-4.66Z"/>
    <path class="cls-4" d="M137.52,13.31V6.16h5.22v7.15Zm4.45-.67V6.83h-3.69v5.81Z"/>
    <path class="cls-4" d="M144.16,9.27h5.44V10h-5.44Z"/>
  </g>
  <path id="path143" class="cls-1" d="M191.76,17.85h-20.5A1.1,1.1,0,0,0,170.17,19V35.7a1.09,1.09,0,0,0,1.09,1.1h5.28a3.29,3.29,0,0,0,3.21,2.27,3.37,3.37,0,0,0,0-6.74,3.29,3.29,0,0,0-3.21,2.26h-4.19v-12h18.31v12h-3.45A7.61,7.61,0,0,0,179.75,28a8.25,8.25,0,0,0-3.64.92l1,2a5.39,5.39,0,0,1,2.55-.67,5.46,5.46,0,0,1,0,10.92,5.28,5.28,0,0,1-2.55-.68l-1,2a7.4,7.4,0,0,0,3.64.92,7.61,7.61,0,0,0,7.46-6.56h4.55a1.09,1.09,0,0,0,1.09-1.1V19A1.14,1.14,0,0,0,191.76,17.85Z"/>
  <g id="text145" class="cls-2">
    <path class="cls-1" d="M168.6,56.37h-.91l-.74-2h-3l-.7,2h-.91l2.69-7h.85Zm-1.92-2.7-1.1-3a3.27,3.27,0,0,1-.1-.47h0a2.88,2.88,0,0,1-.12.47l-1.08,3Z"/>
    <path class="cls-1" d="M170.48,53.72v2.65h-.82v-7h1.92a2.55,2.55,0,0,1,1.74.54,1.94,1.94,0,0,1,.62,1.55,2.16,2.16,0,0,1-.68,1.63,2.65,2.65,0,0,1-1.86.63Zm0-3.61V53h.86a1.88,1.88,0,0,0,1.29-.39,1.36,1.36,0,0,0,.45-1.09c0-.93-.54-1.39-1.64-1.39Z"/>
    <path class="cls-1" d="M176,56.37h-.82v-7H176Z"/>
    <path class="cls-1" d="M180.33,48.93h6.51a7,7,0,0,1-.61,2.21,5,5,0,0,1-1.2,1.51l-.59-.49a4.53,4.53,0,0,0,1.05-1.26,3.25,3.25,0,0,0,.42-1.3h-5.58Zm.3,7.22a4,4,0,0,0,1.8-1.5A5.43,5.43,0,0,0,183,52V50.42h.77V52a5.6,5.6,0,0,1-.8,3.21,5,5,0,0,1-1.82,1.49Z"/>
    <path class="cls-1" d="M193.45,49.77a9.48,9.48,0,0,1-1,4.23,6.39,6.39,0,0,1-3.65,2.79l-.42-.6a6.11,6.11,0,0,0,3.25-2.32,7.49,7.49,0,0,0,1-4.1H188V49.1h4.79a1.13,1.13,0,0,1-.07-.39,1.06,1.06,0,0,1,.37-.83,1.08,1.08,0,0,1,.75-.29,1.06,1.06,0,0,1,.83.37,1.08,1.08,0,0,1,.29.75,1.06,1.06,0,0,1-.37.83,1.08,1.08,0,0,1-.75.29A1,1,0,0,1,193.45,49.77ZM193.8,48a.67.67,0,0,0-.52.22.71.71,0,0,0-.17.47.68.68,0,0,0,.23.52.72.72,0,0,0,1,0,.71.71,0,0,0,.17-.47.68.68,0,0,0-.23-.52A.67.67,0,0,0,193.8,48Z"/>
    <path class="cls-1" d="M196.93,48.68v4.9h-.78v-4.9Zm-.29,7.5a4,4,0,0,0,2.48-1.3,4.33,4.33,0,0,0,.64-2.61V48.62h.77v3.75a4.51,4.51,0,0,1-1,3.18A4.91,4.91,0,0,1,197,56.78Z"/>
  </g>
  <g id="shape1142-51">
    <g id="use7">
      <g id="lend5">
        <path id="path4" class="cls-5" d="M161.7,26.59l8,4-8,4a9,9,0,0,0,0-8"/>
      </g>
    </g>
  </g>
  <g id="group1143-57">
    <g id="group1144-58">
      <g id="group1145-59">
        <g id="group1146-60">
          <g id="shape1147-61">
            <path id="path163" class="cls-1" d="M7.85,22.77a4.5,4.5,0,0,0-3,5.67c.66,2.55,3,4.21,5.27,3.66a4.49,4.49,0,0,0,3-5.66C12.57,23.77,10.16,22.11,7.85,22.77Z"/>
          </g>
        </g>
        <g id="group1148-63">
          <g id="shape1149-64">
            <path id="path171" class="cls-1" d="M12.79,32.79c-.44,0-.88.77-1.54,1.11s-1.32.88-3.18,0S6,32.23,4.44,32.23.38,35,.38,39.11H16a12.05,12.05,0,0,0-1.1-4.21C13.77,32.79,13.23,32.79,12.79,32.79Z"/>
          </g>
        </g>
      </g>
    </g>
    <g id="group1150-66">
      <g id="shape1151-67">
        <path id="path181" class="cls-6" d="M14.19,27.84H10.07a.71.71,0,0,0-.65.66v2.85a.73.73,0,0,0,.76.66h.76v5.15a1,1,0,0,0,1,1.09,1,1,0,0,0,1-1h.21v-.66c0-.22.33-.33.33-.33V36c-.33-.11-.54-.33-.54-.44v-.32L13.1,35a3.53,3.53,0,0,0,.33-.55,2.4,2.4,0,0,1-.33-.55c-.1-.11-.1-.33-.21-.44v-.22a2.52,2.52,0,0,1,.76-1.09h.54a.71.71,0,0,0,.65-.66v-3A.63.63,0,0,0,14.19,27.84ZM11.8,37.38c0,.22,0,.33-.21.33s-.22-.22-.22-.33V32.56c0-.22.11-.33.22-.33s.21.22.21.33Zm.33-7.78a.66.66,0,0,1,0-1.32.71.71,0,0,1,.65.66A.63.63,0,0,1,12.13,29.6Z"/>
      </g>
      <g id="shape1152-69">
        <path id="path186" class="cls-7" d="M11.57,37.68a.24.24,0,0,1-.22-.22v-5a.22.22,0,1,1,.44,0v5.1C11.79,37.68,11.68,37.68,11.57,37.68Z"/>
      </g>
      <g id="shape1153-71">
        <ellipse id="ellipse191" class="cls-7" cx="12.14" cy="28.92" rx="0.66" ry="0.67"/>
      </g>
    </g>
  </g>
  <line class="cls-8" x1="162.7" y1="30.61" x2="72.52" y2="30.61"/>
</svg>
