<?xml version="1.0" encoding="utf-8"?>
<!-- Generator: Adobe Illustrator 23.0.1, SVG Export Plug-In . SVG Version: 6.00 Build 0)  -->
<svg version="1.1" xmlns="http://www.w3.org/2000/svg" xmlns:xlink="http://www.w3.org/1999/xlink" x="0px" y="0px"
	 viewBox="0 0 475.7 150.2" style="enable-background:new 0 0 475.7 150.2;" xml:space="preserve">
<style type="text/css">
	.st0{fill:#505050;}
	.st1{fill:#FFFFFF;}
	.st2{display:none;}
	.st3{display:inline;}
	.st4{fill:#EBEBEB;}
	.st5{fill:#0072C6;}
	.st6{fill:#D2D2D2;}
	.st7{fill:none;stroke:#000000;stroke-miterlimit:10;}
	.st8{fill:#1A1A1F;}
	.st9{fill:#0078D4;}
	.st10{fill:#EBEBEB;stroke:#000000;stroke-width:0.75;stroke-miterlimit:10;}
	.st11{fill:#1E1E1E;}
	.st12{fill:none;}
	.st13{stroke:#000000;stroke-width:5.000000e-02;stroke-miterlimit:10;}
	.st14{fill:#1E1E1E;stroke:#1E1E1E;stroke-width:6.000000e-02;stroke-miterlimit:10;}
	.st15{fill:#FFFFFF;stroke:#FFFFFF;stroke-width:5.000000e-02;stroke-miterlimit:10;}
	.st16{fill:#0072C6;stroke:#0072C6;stroke-width:5.000000e-02;stroke-miterlimit:10;}
</style>
<symbol  id="New_Symbol_41" viewBox="-10 -10 20 20">
	<circle class="st0" cx="0" cy="0" r="10"/>
	<path class="st1" d="M1.2-4.2v8.6h-1.4v-6.9C-0.4-2.3-0.7-2.1-1-2c-0.3,0.1-0.7,0.2-1,0.3v-1.2l0.6-0.2l0.6-0.3l0.6-0.3
		C0.1-3.9,0.4-4,0.6-4.2H1.2z"/>
</symbol>
<symbol  id="New_Symbol_42" viewBox="-10 -10 20 20">
	<circle class="st0" cx="0" cy="0" r="10"/>
	<path class="st1" d="M2.5,4.4h-5.3V3.8c0-0.3,0-0.5,0.1-0.8c0.1-0.2,0.2-0.4,0.3-0.7c0.1-0.2,0.3-0.4,0.4-0.6
		c0.2-0.2,0.4-0.4,0.5-0.5l0.6-0.5c0.2-0.1,0.4-0.3,0.6-0.5S0.1,0,0.3-0.2c0.1-0.1,0.3-0.3,0.4-0.4C0.8-0.8,0.9-1,0.9-1.1
		C1-1.3,1-1.5,1-1.7c0-0.2,0-0.4-0.1-0.6C0.8-2.4,0.7-2.6,0.6-2.7C0.5-2.8,0.3-2.9,0.2-2.9C0-3-0.2-3-0.4-3c-0.4,0-0.7,0.1-1.1,0.2
		c-0.4,0.2-0.7,0.4-1,0.7v-1.3c0.2-0.1,0.3-0.2,0.5-0.3c0.2-0.1,0.4-0.2,0.6-0.2C-1.2-4-1-4-0.8-4.1c0.2,0,0.4,0,0.7,0
		c0.3,0,0.7,0,1,0.1c0.3,0.1,0.6,0.2,0.8,0.4C1.9-3.3,2.1-3,2.2-2.8c0.1,0.3,0.2,0.7,0.2,1c0,0.3,0,0.6-0.1,0.9
		C2.2-0.6,2-0.3,1.9-0.1C1.7,0.2,1.5,0.4,1.3,0.6C1.1,0.8,0.9,1,0.6,1.2l-0.7,0.5c-0.2,0.2-0.4,0.4-0.6,0.5C-0.8,2.4-1,2.6-1.1,2.8
		c-0.1,0.1-0.2,0.3-0.2,0.5l0,0h3.8V4.4z"/>
</symbol>
<symbol  id="New_Symbol_43" viewBox="-10 -10 20 20">
	<circle class="st0" cx="0" cy="0" r="10"/>
	<path class="st1" d="M-2.6,4.1V2.8c0.5,0.4,1.2,0.7,1.8,0.6c0.5,0,0.9-0.1,1.3-0.4c0.3-0.2,0.5-0.6,0.5-1c0-0.9-0.7-1.4-2.2-1.4
		h-0.7v-1.1h0.6c1.3,0,1.9-0.4,1.9-1.4S0.3-3-0.7-3c-0.6,0-1.1,0.2-1.6,0.6v-1.2C-1.7-4-1-4.1-0.3-4.1c0.6,0,1.3,0.2,1.8,0.6
		c0.4,0.3,0.7,0.9,0.7,1.4c0.1,1-0.7,1.9-1.7,2.1l0,0c0.5,0,1,0.3,1.4,0.6C2.3,1,2.5,1.5,2.5,2.1c0,0.7-0.3,1.4-0.9,1.8
		C1,4.4,0.2,4.6-0.6,4.6C-1.3,4.6-2,4.5-2.6,4.1z"/>
</symbol>
<symbol  id="New_Symbol_44" viewBox="-10 -10 20 20">
	<circle class="st0" cx="0" cy="0" r="10"/>
	<path class="st1" d="M2-4v5.4h1.3v1.1H2v1.9H0.6V2.6h-3.8V1.4c0.3-0.4,0.7-0.8,1-1.3c0.4-0.4,0.7-0.9,1-1.4s0.6-0.9,0.9-1.4
		S0.4-3.5,0.6-4L2-4z M0.7,1.4v-3.5c-0.4,0.7-0.8,1.4-1.3,2C-1,0.5-1.4,1-1.8,1.4L0.7,1.4z"/>
</symbol>
<g id="src" class="st2">
	<g id="Shapes" class="st3">
		<rect class="st1" width="475.7" height="150.2"/>
		<rect y="0.2" class="st4" width="105" height="150"/>
		<rect x="371" y="0.2" class="st5" width="104.7" height="90"/>
		<rect x="371" y="95.2" class="st6" width="104.7" height="55"/>
		<g>
			<line class="st7" x1="105" y1="15.2" x2="365.6" y2="15.2"/>
			<polygon points="364.5,18.9 371,15.2 364.5,11.5 			"/>
		</g>
		<g>
			<line class="st7" x1="110.4" y1="45.1" x2="371" y2="45.1"/>
			<polygon points="111.5,48.8 105,45.1 111.5,41.3 			"/>
		</g>
		<g>
			<line class="st7" x1="105" y1="105.4" x2="365.6" y2="105.4"/>
			<polygon points="364.5,109.1 371,105.4 364.5,101.6 			"/>
		</g>
		<g>
			<line class="st7" x1="110.4" y1="140.7" x2="371" y2="140.7"/>
			<polygon points="111.5,144.4 105.1,140.7 111.5,136.9 			"/>
		</g>
		
			<use xlink:href="#New_Symbol_44"  width="20" height="20" x="-10" y="-10" transform="matrix(1 0 0 1 168.88 140.2)" style="overflow:visible;"/>
		
			<use xlink:href="#New_Symbol_43"  width="20" height="20" x="-10" y="-10" transform="matrix(1 0 0 1 168.88 105.36)" style="overflow:visible;"/>
		
			<use xlink:href="#New_Symbol_42"  width="20" height="20" x="-10" y="-10" transform="matrix(1 0 0 1 168.88 45.08)" style="overflow:visible;"/>
		
			<use xlink:href="#New_Symbol_41"  width="20" height="20" x="-10" y="-10" transform="matrix(1 0 0 1 168.88 15.2)" style="overflow:visible;"/>
		<g>
			<g>
				<path class="st8" d="M19.5,28.7c0-0.8,0.7-1.5,1.5-1.5c0,0,0,0,0,0h62.9c0.8,0,1.5,0.7,1.5,1.5c0,0,0,0,0,0v37.2
					c0,0.8-0.7,1.5-1.5,1.5c0,0,0,0,0,0H21.1c-0.8,0-1.5-0.7-1.5-1.5c0,0,0,0,0,0L19.5,28.7z M16.1,26.9v40.7c0,1.8,1.5,3.3,3.3,3.3
					l0,0h66.3c1.8,0,3.3-1.4,3.3-3.2c0,0,0,0,0-0.1V26.9c0-1.8-1.5-3.3-3.3-3.3c0,0,0,0,0,0H19.3C17.5,23.6,16,25.1,16.1,26.9
					C16,26.9,16,26.9,16.1,26.9z"/>
				<path class="st8" d="M13.4,74.4h78.3c0.5,0,0.9,0.4,0.9,0.9c0,0,0,0,0,0v2.6c0,0.5-0.4,0.9-0.9,0.9h0H13.4
					c-0.5,0-0.9-0.4-0.9-0.9l0,0v-2.6C12.5,74.8,12.9,74.4,13.4,74.4C13.4,74.4,13.4,74.4,13.4,74.4z"/>
				<path class="st1" d="M43.6,75.9h17.9c0.1,0,0.3,0.1,0.3,0.3v0.7c0,0.1-0.1,0.3-0.3,0.3H43.6c-0.1,0-0.3-0.1-0.3-0.3v-0.7
					C43.3,76,43.4,75.9,43.6,75.9z"/>
			</g>
			<path class="st9" d="M37,36.3l12.7-1.7v12.2L37,46.8V36.3z M49.7,48.2v12.2L37,58.6V48.1L49.7,48.2z M51.2,34.3L68,31.9v14.7
				l-16.8,0.1V34.3z M68,48.3v14.6l-16.8-2.4V48.2L68,48.3z"/>
		</g>
		<polygon class="st10" points="192.6,26.2 185,31.6 187.9,40.5 197.2,40.5 200.1,31.6 		"/>
	</g>
	<g id="Text" class="st3">
		<g>
			<path class="st11" d="M38.3,90.3l-2.2,8.4H34l-1.4-5.4c-0.1-0.3-0.1-0.6-0.1-0.9l0,0c0,0.3-0.1,0.6-0.2,0.9l-1.4,5.4h-2.2
				l-2.2-8.4h2.1l1.2,5.6c0.1,0.3,0.1,0.7,0.1,1l0,0c0-0.3,0.1-0.7,0.2-1l1.5-5.6h2l1.5,5.6c0.1,0.3,0.1,0.6,0.1,0.9l0,0
				c0-0.3,0.1-0.6,0.1-0.9l1.2-5.6H38.3z"/>
			<path class="st11" d="M40.2,91.8c-0.3,0-0.6-0.1-0.8-0.3c-0.2-0.2-0.3-0.4-0.3-0.7c0-0.3,0.1-0.5,0.3-0.7
				c0.2-0.2,0.5-0.3,0.8-0.3c0.3,0,0.6,0.1,0.8,0.3c0.2,0.2,0.3,0.4,0.3,0.7c0,0.3-0.1,0.5-0.3,0.7C40.7,91.7,40.5,91.8,40.2,91.8z
				 M41.1,98.8h-1.8v-6h1.8V98.8z"/>
			<path class="st11" d="M48.4,98.7h-1.8v-3.3c0-0.9-0.3-1.4-1-1.4c-0.3,0-0.6,0.1-0.8,0.4c-0.2,0.3-0.3,0.6-0.3,0.9v3.4h-1.8v-6
				h1.8v1l0,0c0.4-0.7,1.1-1.1,1.9-1.1c1.3,0,2,0.8,2,2.5L48.4,98.7z"/>
			<path class="st11" d="M55.8,98.7H54v-0.8l0,0c-0.4,0.6-1.1,1-1.9,1c-0.7,0-1.4-0.3-1.8-0.8c-0.5-0.6-0.7-1.4-0.7-2.2
				c0-0.9,0.2-1.7,0.8-2.4c0.5-0.6,1.2-0.9,2-0.9c0.7-0.1,1.3,0.3,1.6,0.8l0,0v-3.6h1.8V98.7z M54,95.8v-0.4c0-0.4-0.1-0.7-0.3-1
				c-0.2-0.3-0.5-0.4-0.9-0.4c-0.4,0-0.8,0.2-1,0.5c-0.2,0.4-0.4,0.9-0.3,1.3c0,0.4,0.1,0.9,0.4,1.3c0.2,0.3,0.6,0.4,0.9,0.4
				c0.4,0,0.7-0.2,0.9-0.4C53.9,96.6,54,96.2,54,95.8z"/>
			<path class="st11" d="M60.2,98.8c-0.9,0-1.7-0.3-2.4-0.8c-1.2-1.3-1.2-3.3,0-4.6c0.7-0.6,1.5-0.9,2.4-0.8
				c0.9-0.1,1.7,0.3,2.3,0.8c0.6,0.6,0.9,1.4,0.8,2.2c0.1,0.9-0.2,1.7-0.8,2.4C62,98.6,61.1,98.9,60.2,98.8z M60.2,94
				c-0.4,0-0.8,0.2-1,0.4c-0.3,0.4-0.4,0.8-0.4,1.3c0,1.2,0.5,1.7,1.4,1.7s1.3-0.6,1.3-1.8S61.2,94,60.2,94L60.2,94z"/>
			<path class="st11" d="M73.3,92.7l-1.7,6h-2l-0.9-3.5c-0.1-0.3-0.1-0.5-0.1-0.8l0,0c0,0.2-0.1,0.5-0.1,0.7l-0.9,3.5h-1.9l-1.7-6
				h1.9l0.8,3.9c0,0.2,0.1,0.4,0.1,0.7l0,0c0-0.2,0-0.5,0.1-0.7l1-3.9h1.8l0.9,3.9c0,0.2,0.1,0.5,0.1,0.7l0,0c0-0.2,0-0.5,0.1-0.7
				l0.8-3.9H73.3z"/>
			<path class="st11" d="M73.7,98.5V97c0.3,0.2,0.6,0.3,0.9,0.4c0.3,0.1,0.6,0.1,0.9,0.1c0.3,0,0.5,0,0.8-0.1
				c0.2-0.1,0.3-0.2,0.3-0.4c0-0.1,0-0.2-0.1-0.3c-0.1-0.1-0.2-0.2-0.3-0.2c-0.1-0.1-0.3-0.1-0.4-0.2c-0.2,0-0.3-0.1-0.5-0.2
				c-0.2-0.1-0.4-0.2-0.6-0.3c-0.2-0.1-0.3-0.2-0.5-0.4c-0.1-0.1-0.2-0.3-0.3-0.5c-0.1-0.2-0.1-0.4-0.1-0.6c0-0.3,0.1-0.6,0.3-0.8
				c0.1-0.2,0.4-0.4,0.6-0.6c0.3-0.2,0.5-0.3,0.8-0.3c0.3-0.1,0.7-0.1,1-0.1c0.3,0,0.5,0,0.8,0.1c0.3,0,0.5,0.1,0.8,0.2v1.4
				c-0.2-0.1-0.5-0.2-0.8-0.3c-0.3-0.1-0.5-0.1-0.8-0.1c-0.1,0-0.2,0-0.3,0c-0.1,0-0.2,0-0.3,0.1c-0.1,0-0.1,0.1-0.2,0.2
				c-0.1,0.1-0.1,0.4,0,0.5c0.1,0.1,0.2,0.2,0.3,0.2l0.4,0.2l0.4,0.1c0.2,0.1,0.5,0.2,0.7,0.3c0.2,0.1,0.4,0.2,0.5,0.4
				c0.1,0.1,0.3,0.3,0.3,0.5c0.1,0.2,0.1,0.4,0.1,0.7c0,0.3-0.1,0.6-0.2,0.9c-0.2,0.3-0.4,0.5-0.6,0.6c-0.3,0.2-0.6,0.3-0.9,0.3
				c-0.3,0.1-0.7,0.1-1,0.1C75,98.8,74.3,98.8,73.7,98.5z"/>
			<path class="st11" d="M16.5,113.1v-8.4h3c3,0,4.5,1.4,4.5,4.1c0.1,1.2-0.4,2.3-1.2,3.1c-0.9,0.8-2.1,1.2-3.3,1.2L16.5,113.1z
				 M18.4,106.2v5.3h0.9c0.7,0,1.4-0.2,1.9-0.7c0.5-0.5,0.7-1.3,0.7-2c0-0.7-0.2-1.4-0.7-1.9c-0.5-0.5-1.2-0.7-2-0.7L18.4,106.2z"/>
			<path class="st11" d="M30.6,110.6h-3.9c0.1,0.9,0.6,1.3,1.6,1.3c0.6,0,1.2-0.2,1.7-0.5v1.3c-0.7,0.3-1.4,0.5-2.2,0.4
				c-0.8,0.1-1.7-0.2-2.3-0.8c-0.6-0.6-0.9-1.4-0.8-2.2c0-0.9,0.3-1.7,0.9-2.4c0.6-0.6,1.3-0.9,2.1-0.9c0.7,0,1.5,0.2,2,0.8
				c0.5,0.6,0.8,1.3,0.7,2.1L30.6,110.6z M28.9,109.5c0-0.9-0.4-1.3-1-1.3c-0.3,0-0.6,0.1-0.8,0.4c-0.2,0.3-0.4,0.6-0.4,0.9H28.9z"
				/>
			<path class="st11" d="M31.4,112.9v-1.5c0.3,0.2,0.6,0.3,0.9,0.4c0.3,0.1,0.6,0.1,0.9,0.1c0.3,0,0.5,0,0.8-0.1
				c0.2-0.1,0.3-0.2,0.3-0.4c0-0.1,0-0.2-0.1-0.3c-0.1-0.1-0.2-0.2-0.3-0.2c-0.1-0.1-0.3-0.1-0.4-0.2c-0.2-0.1-0.3-0.1-0.5-0.2
				c-0.2-0.1-0.4-0.2-0.6-0.3c-0.2-0.1-0.3-0.2-0.5-0.4c-0.1-0.1-0.2-0.3-0.3-0.5c-0.1-0.2-0.1-0.4-0.1-0.6c0-0.3,0.1-0.6,0.2-0.9
				c0.1-0.2,0.4-0.4,0.6-0.6c0.3-0.2,0.5-0.3,0.8-0.3c0.3-0.1,0.7-0.1,1-0.1c0.3,0,0.5,0,0.8,0.1c0.3,0,0.5,0.1,0.8,0.2v1.4
				c-0.2-0.1-0.5-0.2-0.8-0.3c-0.3-0.1-0.5-0.1-0.8-0.1c-0.1,0-0.2,0-0.3,0c-0.1,0-0.2,0-0.3,0.1c-0.1,0-0.1,0.1-0.2,0.2
				c0,0.1-0.1,0.1-0.1,0.2c0,0.1,0,0.2,0.1,0.3c0.1,0.1,0.2,0.2,0.3,0.2l0.4,0.2l0.4,0.1c0.2,0.1,0.5,0.2,0.7,0.3
				c0.2,0.1,0.4,0.2,0.5,0.4c0.1,0.1,0.3,0.3,0.3,0.5c0.2,0.5,0.2,1.1-0.1,1.6c-0.1,0.3-0.4,0.5-0.6,0.6c-0.3,0.2-0.6,0.3-0.9,0.3
				c-0.3,0.1-0.7,0.1-1,0.1C32.7,113.2,32,113.1,31.4,112.9z"/>
			<path class="st11" d="M43.2,113.1H41l-1.9-3l0,0v3h-1.9v-8.9H39v5.7l0,0l1.8-2.8H43l-2.2,2.8L43.2,113.1z"/>
			<path class="st11" d="M47.8,113c-0.4,0.2-0.8,0.2-1.2,0.2c-1,0.1-1.9-0.5-2-1.5c0-0.2,0-0.3,0-0.5v-2.8h-1v-1.4h1v-1.3l1.8-0.5
				v1.8h1.3v1.4h-1.3v2.4c0,0.6,0.3,0.9,0.7,0.9c0.2,0,0.4-0.1,0.6-0.2V113z"/>
			<path class="st11" d="M51.7,113.3c-0.9,0-1.7-0.3-2.4-0.8c-1.2-1.3-1.2-3.3,0-4.6c0.7-0.6,1.5-0.9,2.4-0.8
				c0.9-0.1,1.7,0.3,2.3,0.8c0.6,0.6,0.9,1.4,0.8,2.2c0,0.9-0.3,1.7-0.9,2.4C53.4,113,52.5,113.3,51.7,113.3z M51.7,108.4
				c-0.4,0-0.8,0.2-1,0.5c-0.3,0.4-0.4,0.8-0.4,1.3c0,1.2,0.5,1.7,1.4,1.7s1.3-0.6,1.3-1.8S52.6,108.4,51.7,108.4z"/>
			<path class="st11" d="M58,112.4L58,112.4v3.4h-1.9v-8.8H58v0.9l0,0c0.4-0.7,1.2-1,1.9-1c0.7,0,1.4,0.3,1.8,0.8
				c0.5,0.6,0.7,1.4,0.6,2.2c0,0.9-0.2,1.7-0.7,2.4c-0.5,0.6-1.2,0.9-2,0.9C59,113.3,58.3,113,58,112.4z M58,109.9v0.5
				c0,0.4,0.1,0.7,0.3,1c0.2,0.3,0.5,0.4,0.9,0.4c0.4,0,0.8-0.2,1-0.5c0.3-0.4,0.4-0.9,0.3-1.4c0-1.1-0.4-1.6-1.2-1.6
				c-0.4,0-0.7,0.2-0.9,0.4C58.1,109.1,58,109.5,58,109.9z"/>
			<path class="st11" d="M74.4,113.1h-2.1l-0.6-1.9h-3l-0.6,1.9h-2l3.1-8.4h2.2L74.4,113.1z M71.4,109.8l-0.9-2.8
				c-0.1-0.2-0.1-0.5-0.1-0.8l0,0c0,0.2-0.1,0.5-0.2,0.7l-0.9,2.8L71.4,109.8z"/>
			<path class="st11" d="M77.2,112.4L77.2,112.4v3.4h-1.9v-8.8h1.8v0.9l0,0c0.4-0.7,1.2-1,1.9-1c0.7,0,1.4,0.3,1.8,0.8
				c0.5,0.6,0.7,1.4,0.6,2.2c0,0.9-0.2,1.7-0.7,2.4c-0.5,0.6-1.2,0.9-2,0.9C78.1,113.3,77.5,113,77.2,112.4z M77.2,109.9v0.5
				c0,0.4,0.1,0.7,0.3,1c0.2,0.3,0.5,0.4,0.9,0.4c0.4,0,0.8-0.2,1-0.5c0.3-0.4,0.4-0.9,0.3-1.4c0-1.1-0.4-1.6-1.2-1.6
				c-0.4,0-0.7,0.2-0.9,0.4C77.3,109.1,77.1,109.5,77.2,109.9L77.2,109.9z"/>
			<path class="st11" d="M84.7,112.4L84.7,112.4v3.4h-1.9v-8.8h1.8v0.9l0,0c0.7-1.1,2.2-1.4,3.3-0.6c0.2,0.1,0.3,0.2,0.5,0.4
				c0.5,0.6,0.7,1.4,0.6,2.2c0,0.9-0.2,1.7-0.7,2.4c-0.5,0.6-1.2,0.9-2,0.9C85.6,113.3,85,112.9,84.7,112.4z M84.6,109.9v0.5
				c0,0.4,0.1,0.7,0.3,1c0.2,0.3,0.5,0.4,0.9,0.4c0.4,0,0.8-0.2,1-0.5c0.3-0.4,0.4-0.9,0.3-1.4c0-1.1-0.4-1.6-1.2-1.6
				c-0.4,0-0.7,0.2-0.9,0.4C84.7,109.1,84.6,109.5,84.6,109.9z"/>
		</g>
		<g>
			<path class="st11" d="M192.2,10.2h-1.1l-0.9-2.3h-3.6l-0.8,2.3h-1.1l3.2-8.4h1L192.2,10.2z M189.9,7l-1.3-3.6
				c-0.1-0.2-0.1-0.4-0.1-0.6l0,0c0,0.2-0.1,0.4-0.1,0.6L186.9,7H189.9z"/>
			<path class="st11" d="M197.2,9.9c-0.5,0.3-1.1,0.4-1.6,0.4c-0.8,0-1.5-0.3-2.1-0.8c-0.5-0.6-0.8-1.4-0.8-2.2
				c0-0.9,0.3-1.7,0.9-2.3c0.6-0.6,1.4-0.9,2.3-0.9c0.5,0,1,0.1,1.4,0.3v1c-0.4-0.3-0.9-0.5-1.4-0.5c-0.6,0-1.1,0.2-1.5,0.7
				c-0.4,0.5-0.6,1.1-0.6,1.7c0,0.6,0.2,1.2,0.6,1.7c0.4,0.4,0.9,0.6,1.5,0.6c0.5,0,1.1-0.2,1.5-0.6V9.9z"/>
			<path class="st11" d="M203.7,13h-1V9.2l0,0c-0.4,0.8-1.2,1.2-2.1,1.2c-0.7,0-1.4-0.3-1.8-0.8c-0.5-0.6-0.7-1.4-0.7-2.2
				c0-0.8,0.2-1.7,0.8-2.3c0.5-0.6,1.2-0.9,2-0.9c0.7,0,1.4,0.3,1.8,1l0,0V4.2h1V13z M202.7,7.5V6.6c0-0.5-0.2-0.9-0.5-1.3
				c-0.7-0.7-1.8-0.7-2.5,0c0,0-0.1,0.1-0.1,0.1c-0.4,0.5-0.5,1.2-0.5,1.8c0,0.6,0.1,1.2,0.5,1.6c0.3,0.4,0.8,0.6,1.3,0.6
				c0.5,0,1-0.1,1.4-0.5C202.6,8.6,202.8,8,202.7,7.5L202.7,7.5z"/>
			<path class="st11" d="M210.4,10.2h-1V9.3l0,0c-0.4,0.7-1.1,1.1-1.9,1.1c-1.4,0-2.1-0.9-2.1-2.6V4.2h0.9v3.4
				c0,1.3,0.5,1.9,1.5,1.9c0.5,0,0.9-0.2,1.2-0.5c0.3-0.4,0.5-0.9,0.4-1.3V4.2h1L210.4,10.2z"/>
			<path class="st11" d="M212.7,2.7c-0.2,0-0.3-0.1-0.4-0.2c-0.1-0.1-0.2-0.3-0.2-0.4c0-0.2,0.1-0.3,0.2-0.5
				c0.1-0.1,0.3-0.2,0.4-0.2c0.2,0,0.3,0.1,0.4,0.2c0.1,0.1,0.2,0.3,0.2,0.5c0,0.2-0.1,0.3-0.2,0.4C213.1,2.6,212.9,2.7,212.7,2.7z
				 M213.2,10.2h-1v-6h1V10.2z"/>
			<path class="st11" d="M218.1,5.2C217.9,5,217.7,5,217.4,5c-0.4,0-0.8,0.2-1,0.6c-0.3,0.5-0.4,1-0.4,1.6v3.1h-1v-6h1v1.2l0,0
				c0.1-0.4,0.3-0.7,0.6-1c0.3-0.2,0.6-0.4,1-0.3c0.2,0,0.4,0,0.6,0.1L218.1,5.2z"/>
			<path class="st11" d="M224,7.4h-4.2c0,0.6,0.2,1.1,0.6,1.6c0.4,0.4,0.9,0.6,1.4,0.5c0.7,0,1.3-0.2,1.9-0.7v0.9
				c-0.6,0.4-1.4,0.6-2.1,0.6c-0.8,0-1.5-0.3-2-0.8c-0.5-0.7-0.8-1.5-0.7-2.3c0-0.8,0.2-1.6,0.8-2.3c0.5-0.6,1.2-0.9,2-0.9
				c0.7,0,1.4,0.2,1.8,0.8c0.4,0.6,0.6,1.4,0.6,2.1V7.4z M223,6.6c0-0.5-0.1-0.9-0.4-1.3c-0.3-0.3-0.7-0.5-1.1-0.5
				c-0.4,0-0.9,0.2-1.1,0.5c-0.3,0.3-0.5,0.8-0.6,1.3L223,6.6z"/>
			<path class="st11" d="M231.6,10.1c-0.3,0.1-0.6,0.2-0.9,0.2c-1.1,0-1.6-0.6-1.6-1.8V5h-1V4.2h1V2.7l1-0.3v1.8h1.5V5H230v3.4
				c0,0.3,0,0.6,0.2,0.9c0.2,0.2,0.4,0.3,0.7,0.3c0.2,0,0.4-0.1,0.6-0.2L231.6,10.1z"/>
			<path class="st11" d="M235.2,10.3c-0.8,0-1.6-0.3-2.1-0.8c-0.6-0.6-0.8-1.4-0.8-2.2c0-0.9,0.2-1.7,0.8-2.4
				c0.6-0.6,1.4-0.9,2.2-0.8c0.8,0,1.6,0.3,2.1,0.8c0.5,0.6,0.8,1.5,0.8,2.3c0,0.8-0.3,1.7-0.8,2.3C236.8,10.1,236,10.4,235.2,10.3z
				 M235.3,4.9c-0.6,0-1.1,0.2-1.5,0.6c-0.4,0.5-0.6,1.1-0.5,1.7c0,0.6,0.2,1.2,0.5,1.7c0.4,0.4,0.9,0.6,1.5,0.6
				c0.5,0,1.1-0.2,1.4-0.6c0.4-0.5,0.5-1.1,0.5-1.7c0-0.6-0.1-1.2-0.5-1.7C236.4,5.1,235.8,4.8,235.3,4.9L235.3,4.9z"/>
			<path class="st11" d="M244.7,10.2h-1.4l-2.6-2.9l0,0v2.9h-1V1.3h1V7l0,0l2.5-2.8h1.3l-2.8,2.9L244.7,10.2z"/>
			<path class="st11" d="M250.2,7.4h-4.2c0,0.6,0.2,1.1,0.5,1.6c0.4,0.4,0.9,0.6,1.4,0.5c0.7,0,1.3-0.2,1.9-0.7v0.9
				c-0.6,0.4-1.4,0.6-2.1,0.6c-0.8,0-1.5-0.3-2-0.8c-0.5-0.7-0.8-1.5-0.7-2.3c0-0.8,0.2-1.6,0.8-2.3c0.5-0.6,1.2-0.9,2-0.9
				c0.7,0,1.4,0.2,1.8,0.8c0.5,0.6,0.7,1.4,0.6,2.1L250.2,7.4z M249.2,6.6c0-0.5-0.1-0.9-0.4-1.3c-0.3-0.3-0.7-0.5-1.1-0.5
				c-0.4,0-0.9,0.2-1.1,0.5c-0.3,0.4-0.5,0.8-0.5,1.3H249.2z"/>
			<path class="st11" d="M256.6,10.2h-1V6.8c0-1.3-0.5-1.9-1.4-1.9c-0.5,0-0.9,0.2-1.2,0.5c-0.3,0.4-0.5,0.9-0.5,1.4v3.4h-1v-6h1v1
				l0,0c0.4-0.7,1.2-1.2,2-1.1c0.6,0,1.1,0.2,1.5,0.6c0.4,0.5,0.6,1.2,0.5,1.8L256.6,10.2z"/>
		</g>
		<g>
			<path class="st11" d="M211.4,38.9h-1.1l-0.9-2.4h-3.6l-0.8,2.4h-1.1l3.2-8.4h1L211.4,38.9z M209.1,35.7l-1.3-3.6
				c-0.1-0.2-0.1-0.4-0.1-0.6l0,0c0,0.2-0.1,0.4-0.1,0.6l-1.3,3.6H209.1z"/>
			<path class="st11" d="M216.4,38.7c-0.5,0.3-1.1,0.4-1.6,0.4c-0.8,0-1.5-0.3-2.1-0.8c-0.5-0.6-0.8-1.4-0.8-2.2
				c0-0.9,0.3-1.7,0.9-2.4c0.6-0.6,1.4-0.9,2.3-0.9c0.5,0,1,0.1,1.4,0.3v1c-0.4-0.3-0.9-0.5-1.4-0.5c-0.6,0-1.1,0.2-1.5,0.7
				c-0.4,0.5-0.6,1.1-0.6,1.7c0,0.6,0.2,1.2,0.6,1.7c0.4,0.4,0.9,0.6,1.5,0.6c0.5,0,1.1-0.2,1.5-0.5L216.4,38.7z"/>
			<path class="st11" d="M221.8,38.7c-0.5,0.3-1.1,0.4-1.6,0.4c-0.8,0-1.5-0.3-2.1-0.8c-0.5-0.6-0.8-1.4-0.8-2.2
				c0-0.9,0.3-1.7,0.9-2.4c0.6-0.6,1.4-0.9,2.3-0.9c0.5,0,1,0.1,1.4,0.3v1c-0.4-0.3-0.9-0.5-1.4-0.5c-0.6,0-1.1,0.2-1.5,0.7
				c-0.4,0.5-0.6,1.1-0.6,1.7c0,0.6,0.2,1.2,0.6,1.7c0.4,0.4,0.9,0.6,1.5,0.6c0.5,0,1.1-0.2,1.5-0.5L221.8,38.7z"/>
			<path class="st11" d="M228,36.2h-4.2c0,0.6,0.2,1.1,0.5,1.5c0.4,0.4,0.9,0.6,1.4,0.5c0.7,0,1.3-0.2,1.9-0.7v0.9
				c-0.6,0.4-1.4,0.6-2.1,0.6c-0.8,0-1.5-0.3-2-0.8c-0.5-0.6-0.8-1.5-0.7-2.3c0-0.8,0.3-1.6,0.8-2.3c0.5-0.6,1.2-0.9,2-0.9
				c0.7,0,1.4,0.2,1.8,0.8c0.5,0.6,0.7,1.4,0.6,2.1L228,36.2z M227,35.4c0-0.5-0.1-0.9-0.4-1.3c-0.3-0.3-0.7-0.5-1.1-0.5
				c-0.4,0-0.9,0.2-1.1,0.5c-0.3,0.4-0.5,0.8-0.6,1.3H227z"/>
			<path class="st11" d="M229.1,38.7v-1c0.5,0.4,1.1,0.6,1.7,0.6c0.8,0,1.3-0.3,1.3-0.8c0-0.2,0-0.3-0.1-0.5
				c-0.1-0.1-0.2-0.2-0.3-0.3c-0.1-0.1-0.3-0.2-0.4-0.2l-0.5-0.2c-0.3-0.1-0.5-0.2-0.7-0.3c-0.2-0.1-0.4-0.2-0.5-0.4
				c-0.1-0.1-0.2-0.3-0.3-0.5c-0.1-0.2-0.1-0.4-0.1-0.6c0-0.3,0.1-0.5,0.2-0.7c0.1-0.2,0.3-0.4,0.5-0.5c0.2-0.1,0.5-0.3,0.7-0.3
				c0.7-0.2,1.5-0.1,2.2,0.2v1c-0.5-0.3-1-0.4-1.5-0.4c-0.2,0-0.3,0-0.5,0.1c-0.1,0-0.3,0.1-0.4,0.2c-0.1,0.1-0.2,0.2-0.2,0.3
				c-0.1,0.1-0.1,0.2-0.1,0.3c0,0.1,0,0.3,0.1,0.4c0.1,0.1,0.1,0.2,0.3,0.3c0.1,0.1,0.3,0.2,0.4,0.2l0.5,0.2
				c0.3,0.1,0.5,0.2,0.7,0.3c0.2,0.1,0.4,0.2,0.5,0.4c0.1,0.1,0.3,0.3,0.3,0.5c0.1,0.2,0.1,0.4,0.1,0.6c0,0.3-0.1,0.5-0.2,0.8
				c-0.1,0.2-0.3,0.4-0.5,0.5c-0.2,0.2-0.5,0.3-0.8,0.3c-0.3,0.1-0.6,0.1-0.9,0.1C230.1,39.1,229.6,39,229.1,38.7z"/>
			<path class="st11" d="M234.2,38.7v-1c0.5,0.4,1.1,0.6,1.7,0.6c0.8,0,1.3-0.3,1.3-0.8c0-0.1,0-0.3-0.1-0.4
				c-0.1-0.1-0.2-0.2-0.3-0.3c-0.1-0.1-0.3-0.2-0.4-0.2l-0.5-0.2c-0.3-0.1-0.5-0.2-0.7-0.3c-0.2-0.1-0.3-0.2-0.5-0.4
				c-0.1-0.1-0.2-0.3-0.3-0.5c-0.1-0.2-0.1-0.4-0.1-0.6c0-0.3,0.1-0.5,0.2-0.7c0.1-0.2,0.3-0.4,0.5-0.5c0.2-0.1,0.5-0.3,0.7-0.3
				c0.3-0.1,0.6-0.1,0.9-0.1c0.5,0,1,0.1,1.4,0.3v1c-0.5-0.3-1-0.4-1.5-0.4c-0.2,0-0.3,0-0.5,0.1c-0.1,0-0.3,0.1-0.4,0.2
				c-0.1,0.1-0.2,0.2-0.2,0.3c-0.1,0.1-0.1,0.2-0.1,0.3c0,0.1,0,0.3,0.1,0.4c0.1,0.1,0.1,0.2,0.3,0.3c0.1,0.1,0.3,0.2,0.4,0.2
				l0.5,0.2c0.3,0.1,0.5,0.2,0.7,0.3c0.2,0.1,0.4,0.2,0.5,0.4c0.1,0.1,0.3,0.3,0.3,0.5c0.1,0.2,0.1,0.4,0.1,0.6
				c0,0.3-0.1,0.5-0.2,0.8c-0.1,0.2-0.3,0.4-0.5,0.5c-0.2,0.2-0.5,0.3-0.8,0.3c-0.3,0.1-0.6,0.1-0.9,0.1
				C235.2,39.1,234.7,39,234.2,38.7z"/>
			<path class="st11" d="M245.7,38.9c-0.3,0.1-0.6,0.2-0.9,0.2c-1,0-1.6-0.6-1.6-1.8v-3.6h-1v-0.8h1v-1.5l1-0.3v1.8h1.5v0.8h-1.5
				v3.4c0,0.3,0,0.6,0.2,0.9c0.2,0.2,0.4,0.3,0.7,0.3c0.2,0,0.4-0.1,0.6-0.2L245.7,38.9z"/>
			<path class="st11" d="M249.4,39.1c-0.8,0-1.6-0.3-2.1-0.8c-0.5-0.6-0.8-1.4-0.8-2.2c-0.1-0.9,0.2-1.7,0.8-2.4
				c0.6-0.6,1.4-0.9,2.2-0.8c0.8,0,1.6,0.3,2.1,0.8c1,1.4,1,3.2-0.1,4.6C251,38.8,250.2,39.1,249.4,39.1z M249.4,33.6
				c-0.6,0-1.1,0.2-1.5,0.6c-0.4,0.5-0.6,1.1-0.5,1.7c0,0.6,0.2,1.2,0.6,1.7c0.4,0.4,0.9,0.6,1.5,0.6c0.5,0,1.1-0.2,1.4-0.6
				c0.7-1.1,0.7-2.4,0-3.5C250.5,33.8,250,33.6,249.4,33.6L249.4,33.6z"/>
			<path class="st11" d="M258.8,38.9h-1.4l-2.6-2.9l0,0v2.9h-1v-8.9h1v5.6l0,0l2.5-2.8h1.3l-2.8,2.9L258.8,38.9z"/>
			<path class="st11" d="M264.3,36.2h-4.2c0,0.6,0.2,1.1,0.5,1.5c0.4,0.4,0.9,0.6,1.4,0.5c0.7,0,1.3-0.2,1.9-0.7v0.9
				c-0.6,0.4-1.4,0.6-2.1,0.6c-0.8,0-1.5-0.3-2-0.8c-1-1.4-1-3.2,0.1-4.6c0.5-0.6,1.2-0.9,2-0.9c0.7,0,1.4,0.2,1.8,0.8
				c0.5,0.6,0.7,1.4,0.6,2.1L264.3,36.2z M263.3,35.4c0-0.5-0.1-0.9-0.4-1.3c-0.3-0.3-0.7-0.5-1.1-0.5c-0.4,0-0.9,0.2-1.2,0.5
				c-0.3,0.4-0.5,0.8-0.6,1.3H263.3z"/>
			<path class="st11" d="M270.8,38.9h-1v-3.4c0-1.3-0.5-1.9-1.4-1.9c-0.5,0-0.9,0.2-1.2,0.5c-0.3,0.4-0.5,0.9-0.5,1.4v3.4h-1v-6h1v1
				l0,0c0.4-0.7,1.2-1.2,2-1.1c0.6,0,1.1,0.2,1.5,0.6c0.4,0.5,0.6,1.2,0.5,1.8L270.8,38.9z"/>
		</g>
		<g>
			<path class="st1" d="M406.2,33.5h-1.9v-5c0-0.5,0-1.1,0.1-1.8h0c-0.1,0.4-0.2,0.7-0.3,1.1l-2,5.7h-1.5l-2-5.6
				c-0.1-0.4-0.2-0.8-0.3-1.2h-0.1c0,0.8,0.1,1.5,0.1,2.2v4.6h-1.7v-8.4h2.8l1.7,5c0.1,0.4,0.2,0.8,0.3,1.2l0,0
				c0.1-0.4,0.2-0.8,0.3-1.2l1.7-5h2.7L406.2,33.5z"/>
			<path class="st1" d="M408.8,26.5c-0.3,0-0.6-0.1-0.8-0.3c-0.2-0.2-0.3-0.4-0.3-0.7c0-0.3,0.1-0.5,0.3-0.7
				c0.2-0.2,0.5-0.3,0.8-0.3c0.3,0,0.6,0.1,0.8,0.3c0.2,0.2,0.3,0.4,0.3,0.7c0,0.3-0.1,0.5-0.3,0.7
				C409.3,26.4,409.1,26.5,408.8,26.5z M409.7,33.5h-1.9v-6h1.9V33.5z"/>
			<path class="st1" d="M415.8,33.3c-0.6,0.3-1.2,0.4-1.8,0.4c-0.8,0-1.6-0.3-2.2-0.8c-0.6-0.6-0.9-1.4-0.9-2.2
				c0-0.9,0.3-1.8,0.9-2.4c0.7-0.6,1.5-0.9,2.5-0.9c0.5,0,1.1,0.1,1.5,0.3v1.6c-0.4-0.3-0.8-0.4-1.3-0.4c-0.5,0-0.9,0.1-1.3,0.5
				c-0.3,0.3-0.5,0.8-0.5,1.3c0,0.5,0.1,0.9,0.5,1.3c0.3,0.3,0.8,0.5,1.2,0.5c0.5,0,1-0.2,1.4-0.4L415.8,33.3z"/>
			<path class="st1" d="M421,29.1c-0.2-0.1-0.5-0.2-0.8-0.2c-0.4,0-0.7,0.2-0.9,0.4c-0.2,0.4-0.4,0.8-0.3,1.2v2.9h-1.9v-6h1.9v1.1
				l0,0c0.2-0.7,0.8-1.2,1.6-1.2c0.2,0,0.3,0,0.5,0.1L421,29.1z"/>
			<path class="st1" d="M424.8,33.6c-0.9,0-1.7-0.3-2.4-0.8c-0.6-0.6-0.9-1.4-0.9-2.3c-0.1-0.9,0.3-1.7,0.9-2.3
				c0.7-0.6,1.5-0.9,2.4-0.8c0.9,0,1.7,0.3,2.3,0.8c0.6,0.6,0.9,1.4,0.9,2.2c0.1,0.9-0.3,1.7-0.9,2.4
				C426.6,33.4,425.7,33.7,424.8,33.6z M424.8,28.8c-0.4,0-0.8,0.2-1,0.5c-0.3,0.4-0.4,0.8-0.4,1.3c0,1.2,0.5,1.7,1.4,1.7
				s1.3-0.6,1.3-1.8S425.8,28.8,424.8,28.8L424.8,28.8z"/>
			<path class="st1" d="M428.9,33.3v-1.5c0.3,0.2,0.6,0.3,0.9,0.4c0.3,0.1,0.6,0.1,0.9,0.1c0.3,0,0.5,0,0.8-0.1
				c0.2-0.1,0.3-0.2,0.3-0.4c0-0.1,0-0.2-0.1-0.3c-0.1-0.1-0.2-0.1-0.3-0.2c-0.1-0.1-0.3-0.1-0.5-0.2l-0.5-0.2
				c-0.2-0.1-0.4-0.2-0.6-0.3c-0.2-0.1-0.3-0.2-0.5-0.4c-0.1-0.1-0.2-0.3-0.3-0.5c-0.1-0.2-0.1-0.4-0.1-0.6c0-0.3,0.1-0.6,0.2-0.9
				c0.1-0.2,0.3-0.4,0.6-0.6c0.3-0.2,0.5-0.3,0.8-0.3c0.3-0.1,0.7-0.1,1-0.1c0.3,0,0.5,0,0.8,0.1c0.3,0,0.5,0.1,0.8,0.2V29
				c-0.2-0.1-0.5-0.2-0.8-0.3c-0.3-0.1-0.5-0.1-0.8-0.1c-0.1,0-0.2,0-0.4,0c-0.1,0-0.2,0-0.3,0.1c-0.1,0-0.1,0.1-0.2,0.2
				c0,0.1-0.1,0.1-0.1,0.2c0,0.1,0,0.2,0.1,0.3c0.1,0.1,0.2,0.2,0.3,0.2c0.1,0.1,0.2,0.1,0.4,0.2l0.4,0.1c0.2,0.1,0.5,0.2,0.7,0.3
				c0.2,0.1,0.4,0.2,0.5,0.4c0.1,0.1,0.3,0.3,0.3,0.5c0.1,0.2,0.1,0.4,0.1,0.7c0,0.3-0.1,0.6-0.2,0.9c-0.2,0.3-0.4,0.5-0.6,0.6
				c-0.3,0.2-0.6,0.3-0.9,0.3c-0.3,0.1-0.7,0.1-1,0.1C430.2,33.6,429.5,33.5,428.9,33.3z"/>
			<path class="st1" d="M437.5,33.6c-0.9,0-1.7-0.3-2.4-0.8c-0.6-0.6-0.9-1.4-0.9-2.3c0-0.9,0.3-1.7,0.9-2.3
				c0.7-0.6,1.5-0.9,2.4-0.8c0.9-0.1,1.7,0.3,2.3,0.8c0.6,0.6,0.9,1.4,0.9,2.2c0,0.9-0.3,1.7-0.9,2.4
				C439.3,33.4,438.4,33.7,437.5,33.6z M437.5,28.8c-0.4,0-0.8,0.2-1,0.5c-0.3,0.4-0.4,0.8-0.4,1.3c0,1.2,0.5,1.7,1.4,1.7
				s1.3-0.6,1.3-1.8S438.5,28.8,437.5,28.8L437.5,28.8z"/>
			<path class="st1" d="M445.9,26c-0.2-0.1-0.4-0.1-0.7-0.1c-0.6,0-0.9,0.3-0.9,1v0.6h1.4v1.4h-1.4v4.6h-1.9v-4.7h-1v-1.4h1v-0.7
				c0-0.6,0.2-1.2,0.7-1.6c0.5-0.4,1.1-0.7,1.8-0.6c0.3,0,0.6,0,0.9,0.1V26z"/>
			<path class="st1" d="M450.4,33.4c-0.4,0.2-0.8,0.2-1.2,0.2c-1.3,0-2-0.7-2-2v-2.8h-1v-1.4h1v-1.3l1.8-0.5v1.8h1.4v1.4h-1.4v2.4
				c0,0.6,0.2,0.9,0.8,0.9c0.2,0,0.4-0.1,0.6-0.2V33.4z"/>
			<path class="st1" d="M402.8,40.9c-0.3,0-0.6-0.1-0.8-0.3c-0.2-0.2-0.3-0.4-0.3-0.7c0-0.3,0.1-0.5,0.3-0.7
				c0.2-0.2,0.5-0.3,0.8-0.3c0.3,0,0.6,0.1,0.8,0.3c0.2,0.2,0.3,0.4,0.3,0.7c0,0.3-0.1,0.5-0.3,0.7
				C403.4,40.8,403.1,40.9,402.8,40.9z M403.8,47.9h-1.9v-6h1.9V47.9z"/>
			<path class="st1" d="M411.2,47.9h-1.9V47l0,0c-0.4,0.6-1.1,1-1.9,1c-0.7,0-1.4-0.3-1.8-0.8c-0.5-0.6-0.7-1.5-0.7-2.3
				c0-0.9,0.2-1.7,0.8-2.4c0.5-0.6,1.2-0.9,2-0.9c0.7-0.1,1.3,0.3,1.6,0.8l0,0V39h1.9L411.2,47.9z M409.4,45v-0.5
				c0-0.4-0.1-0.7-0.3-1c-0.5-0.5-1.2-0.5-1.7-0.1c-0.1,0-0.1,0.1-0.1,0.2c-0.2,0.4-0.4,0.9-0.3,1.3c0,0.4,0.1,0.9,0.3,1.2
				c0.4,0.5,1.2,0.6,1.7,0.2c0.1-0.1,0.1-0.1,0.2-0.2C409.2,45.8,409.4,45.4,409.4,45z"/>
			<path class="st1" d="M418.1,45.4h-3.9c0.1,0.9,0.6,1.3,1.6,1.3c0.6,0,1.2-0.2,1.7-0.5v1.3c-0.7,0.3-1.4,0.5-2.2,0.4
				c-1.5,0.1-2.9-1-3-2.5c0-0.2,0-0.3,0-0.5c0-0.9,0.3-1.7,0.9-2.4c0.6-0.6,1.3-0.9,2.1-0.9c0.7,0,1.5,0.2,2,0.8
				c0.5,0.6,0.8,1.3,0.7,2.1L418.1,45.4z M416.4,44.3c0-0.8-0.4-1.3-1-1.3c-0.3,0-0.6,0.1-0.8,0.4c-0.2,0.3-0.4,0.6-0.4,0.9H416.4z"
				/>
			<path class="st1" d="M425.1,47.9h-1.9v-3.3c0-0.9-0.3-1.4-1-1.4c-0.3,0-0.6,0.1-0.8,0.4c-0.2,0.3-0.3,0.6-0.3,0.9v3.4h-1.8v-6
				h1.9v1l0,0c0.4-0.7,1.1-1.1,1.9-1.1c1.3,0,2,0.8,2,2.5L425.1,47.9z"/>
			<path class="st1" d="M430.1,47.8c-0.4,0.2-0.8,0.2-1.2,0.2c-1.3,0-2-0.7-2-2v-2.8h-1v-1.4h1v-1.3l1.8-0.5v1.8h1.4v1.4h-1.4v2.4
				c0,0.6,0.3,0.9,0.8,0.9c0.2,0,0.4-0.1,0.6-0.2V47.8z"/>
			<path class="st1" d="M432.2,40.9c-0.3,0-0.6-0.1-0.8-0.3c-0.2-0.2-0.3-0.4-0.3-0.7c0-0.3,0.1-0.5,0.3-0.7c0.5-0.3,1.1-0.3,1.5,0
				c0.2,0.2,0.3,0.4,0.3,0.7c0,0.3-0.1,0.5-0.3,0.7C432.7,40.8,432.4,40.9,432.2,40.9z M433.1,47.9h-1.9v-6h1.9V47.9z"/>
			<path class="st1" d="M438.2,47.8c-0.4,0.2-0.8,0.2-1.2,0.2c-1.3,0-2-0.7-2-2v-2.8h-1v-1.4h1v-1.3l1.8-0.5v1.8h1.4v1.4h-1.4v2.4
				c0,0.6,0.3,0.9,0.8,0.9c0.2,0,0.4-0.1,0.6-0.2V47.8z"/>
			<path class="st1" d="M445.2,41.9l-2.4,6.5c-0.6,1.6-1.5,2.3-2.6,2.3c-0.4,0-0.8,0-1.1-0.2v-1.5c0.2,0.1,0.5,0.2,0.8,0.2
				c0.4,0,0.9-0.2,1-0.7l0.3-0.8l-2.4-6h2l1.1,3.7c0.1,0.3,0.1,0.5,0.2,0.8l0,0c0-0.3,0.1-0.5,0.2-0.8l1.1-3.7L445.2,41.9z"/>
			<path class="st1" d="M400.9,61.6L400.9,61.6V65H399v-8.7h1.9v0.9l0,0c0.7-1.1,2.2-1.4,3.3-0.6c0.2,0.1,0.3,0.2,0.5,0.4
				c0.4,0.6,0.7,1.4,0.6,2.2c0,0.9-0.2,1.7-0.7,2.4c-0.5,0.6-1.2,0.9-2,0.9C401.8,62.4,401.2,62.1,400.9,61.6z M400.8,59.1v0.5
				c0,0.4,0.1,0.7,0.3,1c0.2,0.3,0.5,0.4,0.8,0.4c0.4,0,0.8-0.2,1-0.5c0.3-0.4,0.4-0.9,0.4-1.4c0-1.1-0.4-1.6-1.2-1.6
				c-0.4,0-0.7,0.1-0.9,0.4C400.9,58.3,400.8,58.7,400.8,59.1z"/>
			<path class="st1" d="M408.4,62.3h-1.9v-8.9h1.9V62.3z"/>
			<path class="st1" d="M414.9,62.3h-1.8v-0.9l0,0c-0.4,0.6-1,1-1.8,1c-0.5,0-1-0.1-1.4-0.5c-0.3-0.4-0.5-0.8-0.5-1.3
				c0-1.2,0.7-1.8,2.1-2l1.6-0.2c0-0.7-0.4-1-1.1-1c-0.7,0-1.4,0.2-2,0.6v-1.4c0.3-0.2,0.7-0.3,1.1-0.3c0.4-0.1,0.8-0.1,1.2-0.2
				c1.2-0.2,2.4,0.7,2.6,1.9c0,0.2,0,0.4,0,0.6L414.9,62.3z M413.2,59.8v-0.4l-1.1,0.1c-0.6,0.1-0.9,0.3-0.9,0.8
				c0,0.2,0.1,0.4,0.2,0.5c0.2,0.1,0.4,0.2,0.6,0.2c0.3,0,0.6-0.1,0.9-0.4C413.1,60.5,413.2,60.2,413.2,59.8z"/>
			<path class="st1" d="M419.9,62.2c-0.4,0.2-0.8,0.2-1.2,0.2c-1,0.1-1.9-0.5-2-1.5c0-0.2,0-0.3,0-0.5v-2.8h-1v-1.4h1V55l1.9-0.5
				v1.8h1.3v1.4h-1.3v2.4c0,0.6,0.2,0.9,0.7,0.9c0.2,0,0.4-0.1,0.6-0.2L419.9,62.2z"/>
			<path class="st1" d="M425,54.8c-0.2-0.1-0.4-0.1-0.7-0.1c-0.6,0-0.9,0.3-0.9,1v0.6h1.4v1.4h-1.4v4.6h-1.9v-4.7h-1v-1.4h1v-0.7
				c0-0.6,0.2-1.2,0.7-1.7c0.5-0.4,1.2-0.7,1.8-0.6c0.3,0,0.6,0,0.9,0.1V54.8z"/>
			<path class="st1" d="M428.6,62.4c-0.9,0-1.7-0.3-2.4-0.8c-1.2-1.3-1.2-3.3,0-4.6c0.7-0.6,1.5-0.9,2.4-0.8c0.9,0,1.7,0.3,2.3,0.9
				c0.6,0.6,0.9,1.4,0.9,2.2c0,0.9-0.3,1.7-0.9,2.4C430.3,62.2,429.5,62.5,428.6,62.4z M428.7,57.5c-0.4,0-0.8,0.2-1,0.5
				c-0.3,0.4-0.4,0.8-0.4,1.3c0,1.2,0.5,1.7,1.4,1.7s1.3-0.6,1.3-1.8S429.6,57.5,428.7,57.5L428.7,57.5z"/>
			<path class="st1" d="M437,57.9c-0.2-0.1-0.5-0.2-0.8-0.2c-0.4,0-0.7,0.1-0.9,0.4c-0.2,0.4-0.4,0.8-0.3,1.2v2.9h-1.9v-6h1.9v1.1
				l0,0c0.2-0.7,0.8-1.2,1.6-1.2c0.2,0,0.3,0,0.5,0.1L437,57.9z"/>
			<path class="st1" d="M447.4,62.3h-1.9v-3.4c0-0.9-0.3-1.3-1-1.3c-0.3,0-0.6,0.1-0.7,0.4c-0.2,0.3-0.3,0.6-0.3,1v3.3h-1.8v-3.5
				c0-0.8-0.3-1.3-0.9-1.3c-0.3,0-0.6,0.1-0.8,0.4c-0.2,0.3-0.3,0.6-0.3,1v3.3h-1.9v-6h1.9v0.9l0,0c0.2-0.3,0.5-0.6,0.8-0.8
				c0.3-0.2,0.7-0.3,1.1-0.3c0.8,0,1.5,0.4,1.7,1.1c0.4-0.7,1.2-1.2,2-1.1c1.3,0,2,0.8,2,2.4L447.4,62.3z"/>
		</g>
		<g>
			<path class="st11" d="M192,135.2h-1v-3.8h-4.3v3.8h-1v-8.4h1v3.7h4.3v-3.7h1V135.2z"/>
			<path class="st11" d="M199,127.6h-2.4v7.5h-1v-7.5h-2.4v-0.9h5.8V127.6z"/>
			<path class="st11" d="M205.6,127.6h-2.4v7.5h-1v-7.5h-2.4v-0.9h5.8L205.6,127.6z"/>
			<path class="st11" d="M207.8,132v3.2h-1v-8.4h2.3c0.8-0.1,1.5,0.2,2.1,0.7c0.5,0.5,0.8,1.2,0.7,1.9c0,0.8-0.3,1.5-0.8,2
				c-0.6,0.5-1.4,0.8-2.2,0.8L207.8,132z M207.8,127.7v3.4h1c0.6,0,1.1-0.1,1.6-0.5c0.4-0.3,0.6-0.8,0.5-1.3c0-1.1-0.7-1.7-2-1.7
				H207.8z"/>
			<path class="st11" d="M219.8,130.1c-0.2-0.1-0.5-0.2-0.7-0.2c-0.4,0-0.8,0.2-1,0.6c-0.3,0.5-0.4,1-0.4,1.6v3.1h-1v-6h1v1.2l0,0
				c0.1-0.4,0.3-0.7,0.6-1c0.3-0.2,0.6-0.3,0.9-0.4c0.2,0,0.4,0,0.6,0.1L219.8,130.1z"/>
			<path class="st11" d="M225.7,132.4h-4.2c0,0.6,0.2,1.1,0.5,1.5c0.4,0.4,0.9,0.6,1.4,0.6c0.7,0,1.3-0.2,1.9-0.7v0.9
				c-0.6,0.4-1.3,0.6-2.1,0.6c-0.8,0-1.5-0.3-2-0.8c-0.5-0.6-0.8-1.5-0.7-2.3c0-0.8,0.3-1.7,0.8-2.3c0.5-0.6,1.2-0.9,2-0.9
				c0.7,0,1.4,0.2,1.8,0.8c0.5,0.6,0.7,1.4,0.6,2.1L225.7,132.4z M224.7,131.6c0-0.5-0.1-0.9-0.4-1.3c-0.3-0.3-0.7-0.5-1.1-0.5
				c-0.4,0-0.9,0.2-1.1,0.5c-0.3,0.3-0.5,0.8-0.6,1.3L224.7,131.6z"/>
			<path class="st11" d="M226.8,134.9v-1c0.5,0.4,1.1,0.6,1.7,0.6c0.8,0,1.3-0.3,1.3-0.9c0-0.1,0-0.3-0.1-0.4
				c-0.1-0.1-0.2-0.2-0.3-0.3c-0.1-0.1-0.3-0.2-0.4-0.2l-0.5-0.2l-0.7-0.3c-0.2-0.1-0.4-0.2-0.5-0.4c-0.1-0.1-0.2-0.3-0.3-0.5
				c-0.1-0.2-0.1-0.4-0.1-0.6c0-0.3,0.1-0.5,0.2-0.8c0.1-0.2,0.3-0.4,0.5-0.5c0.2-0.2,0.5-0.3,0.7-0.3c0.3-0.1,0.6-0.1,0.9-0.1
				c0.5,0,0.9,0.1,1.4,0.3v1c-0.5-0.3-1-0.4-1.5-0.4c-0.2,0-0.3,0-0.5,0.1c-0.1,0-0.3,0.1-0.4,0.2c-0.1,0.1-0.2,0.2-0.2,0.3
				c-0.1,0.1-0.1,0.2-0.1,0.4c0,0.1,0,0.3,0.1,0.4c0.1,0.1,0.1,0.2,0.3,0.3c0.1,0.1,0.3,0.2,0.4,0.2l0.5,0.2
				c0.3,0.1,0.5,0.2,0.7,0.3c0.2,0.1,0.4,0.2,0.5,0.4c0.1,0.1,0.3,0.3,0.4,0.5c0.1,0.2,0.1,0.4,0.1,0.6c0,0.3-0.1,0.5-0.2,0.8
				c-0.1,0.2-0.3,0.4-0.5,0.6c-0.2,0.1-0.5,0.3-0.8,0.3c-0.3,0.1-0.6,0.1-0.9,0.1C227.8,135.3,227.3,135.2,226.8,134.9z"/>
			<path class="st11" d="M233.1,134.3L233.1,134.3v3.6h-1v-8.8h1v1.1l0,0c0.4-0.8,1.2-1.2,2.1-1.2c0.7,0,1.4,0.3,1.8,0.8
				c0.5,0.6,0.7,1.4,0.6,2.2c0,0.9-0.2,1.7-0.7,2.4c-0.5,0.6-1.2,0.9-2,0.9C234.2,135.3,233.5,134.9,233.1,134.3z M233.1,131.9v0.8
				c0,0.5,0.2,0.9,0.5,1.3c0.3,0.3,0.8,0.5,1.2,0.5c0.5,0,1.1-0.2,1.4-0.7c0.4-0.6,0.5-1.2,0.5-1.9c0-0.6-0.1-1.1-0.5-1.6
				c-0.3-0.4-0.8-0.6-1.3-0.6c-0.5,0-1,0.2-1.3,0.6C233.3,130.8,233.1,131.3,233.1,131.9L233.1,131.9z"/>
			<path class="st11" d="M241.7,135.3c-0.8,0-1.6-0.3-2.1-0.8c-0.5-0.6-0.8-1.4-0.8-2.2c0-0.9,0.2-1.7,0.8-2.4
				c0.6-0.6,1.4-0.9,2.2-0.8c0.8,0,1.5,0.3,2.1,0.8c0.5,0.6,0.8,1.5,0.8,2.3c0,0.8-0.2,1.7-0.8,2.3
				C243.3,135,242.5,135.3,241.7,135.3z M241.8,129.8c-0.6,0-1.1,0.2-1.5,0.6c-0.4,0.5-0.6,1.1-0.5,1.7c0,0.6,0.2,1.2,0.6,1.7
				c0.4,0.4,0.9,0.6,1.5,0.6c0.5,0,1.1-0.2,1.4-0.6c0.4-0.5,0.5-1.1,0.5-1.7c0-0.6-0.1-1.2-0.5-1.7
				C242.8,130,242.3,129.8,241.8,129.8L241.8,129.8z"/>
			<path class="st11" d="M251.1,135.2h-1v-3.4c0-1.3-0.5-1.9-1.4-1.9c-0.5,0-0.9,0.2-1.2,0.6c-0.3,0.4-0.5,0.9-0.5,1.4v3.4h-1v-6h1
				v1l0,0c0.4-0.7,1.2-1.2,2-1.1c0.6,0,1.1,0.2,1.5,0.6c0.4,0.5,0.6,1.2,0.5,1.8L251.1,135.2z"/>
			<path class="st11" d="M252.6,134.9v-1c0.5,0.4,1.1,0.6,1.7,0.6c0.8,0,1.3-0.3,1.3-0.9c0-0.1,0-0.3-0.1-0.4
				c-0.1-0.1-0.2-0.2-0.3-0.3c-0.1-0.1-0.3-0.2-0.4-0.2l-0.5-0.2l-0.7-0.3c-0.2-0.1-0.4-0.2-0.5-0.4c-0.1-0.1-0.2-0.3-0.3-0.5
				c-0.1-0.2-0.1-0.4-0.1-0.6c0-0.3,0.1-0.5,0.2-0.8c0.1-0.2,0.3-0.4,0.5-0.5c0.2-0.2,0.5-0.3,0.7-0.3c0.3-0.1,0.6-0.1,0.9-0.1
				c0.5,0,0.9,0.1,1.4,0.3v1c-0.5-0.3-1-0.4-1.5-0.4c-0.2,0-0.3,0-0.5,0.1c-0.1,0-0.3,0.1-0.4,0.2c-0.1,0.1-0.2,0.2-0.2,0.3
				c-0.1,0.1-0.1,0.2-0.1,0.4c0,0.1,0,0.3,0.1,0.4c0.1,0.1,0.1,0.2,0.3,0.3c0.1,0.1,0.3,0.2,0.4,0.2l0.5,0.2
				c0.3,0.1,0.5,0.2,0.7,0.3c0.2,0.1,0.4,0.2,0.5,0.4c0.3,0.3,0.5,0.7,0.5,1.1c0,0.3-0.1,0.5-0.2,0.8c-0.1,0.2-0.3,0.4-0.5,0.6
				c-0.2,0.1-0.5,0.3-0.8,0.3c-0.3,0.1-0.6,0.1-0.9,0.1C253.6,135.3,253.1,135.2,252.6,134.9z"/>
			<path class="st11" d="M262.8,132.4h-4.2c0,0.6,0.2,1.1,0.5,1.5c0.4,0.4,0.9,0.6,1.4,0.6c0.7,0,1.3-0.2,1.9-0.7v0.9
				c-0.6,0.4-1.4,0.6-2.1,0.6c-0.8,0-1.5-0.3-2-0.8c-0.5-0.6-0.8-1.5-0.7-2.3c0-0.8,0.2-1.6,0.8-2.3c0.5-0.6,1.2-0.9,2-0.9
				c0.7,0,1.4,0.2,1.8,0.8c0.5,0.6,0.7,1.4,0.6,2.1L262.8,132.4z M261.8,131.6c0-0.5-0.1-0.9-0.4-1.3c-0.3-0.3-0.7-0.5-1.1-0.5
				c-0.4,0-0.9,0.2-1.2,0.5c-0.3,0.3-0.5,0.8-0.6,1.3L261.8,131.6z"/>
		</g>
		<g>
			<path class="st5" d="M406.1,119h-1.9v-5c0-0.5,0-1.1,0.1-1.8h0c-0.1,0.4-0.2,0.7-0.3,1.1l-2,5.7h-1.5l-2-5.7
				c-0.1-0.4-0.2-0.8-0.3-1.2h0c0,0.8,0.1,1.6,0.1,2.2v4.6h-1.7v-8.4h2.8l1.7,5c0.1,0.4,0.2,0.8,0.3,1.2l0,0
				c0.1-0.5,0.2-0.9,0.3-1.2l1.7-5h2.7L406.1,119z"/>
			<path class="st5" d="M408.8,112c-0.3,0-0.6-0.1-0.8-0.3c-0.2-0.2-0.3-0.4-0.3-0.7c0-0.3,0.1-0.5,0.3-0.7c0.4-0.4,1.1-0.4,1.5,0
				c0.2,0.2,0.3,0.4,0.3,0.7c0,0.3-0.1,0.5-0.3,0.7C409.3,111.9,409,112,408.8,112z M409.7,119h-1.9v-6h1.9V119z"/>
			<path class="st5" d="M415.8,118.8c-0.6,0.3-1.2,0.4-1.8,0.4c-0.8,0-1.6-0.3-2.2-0.8c-0.6-0.6-0.9-1.4-0.9-2.2
				c0-0.9,0.3-1.8,0.9-2.4c0.7-0.6,1.5-0.9,2.5-0.9c0.5,0,1.1,0.1,1.5,0.3v1.6c-0.4-0.3-0.8-0.4-1.3-0.4c-0.5,0-0.9,0.1-1.3,0.5
				c-0.3,0.3-0.5,0.8-0.5,1.3c0,0.5,0.1,0.9,0.5,1.3c0.3,0.3,0.8,0.5,1.2,0.5c0.5,0,1-0.2,1.4-0.4L415.8,118.8z"/>
			<path class="st5" d="M421,114.6c-0.2-0.1-0.5-0.2-0.8-0.2c-0.4,0-0.7,0.1-0.9,0.4c-0.2,0.3-0.4,0.8-0.3,1.2v2.9h-1.9v-6h1.9v1.1
				l0,0c0.2-0.7,0.8-1.2,1.6-1.2c0.2,0,0.3,0,0.5,0.1L421,114.6z"/>
			<path class="st5" d="M424.8,119.1c-0.9,0-1.7-0.3-2.4-0.8c-1.2-1.3-1.2-3.3,0-4.6c0.7-0.6,1.5-0.9,2.4-0.8c0.9,0,1.7,0.3,2.4,0.8
				c0.6,0.6,0.9,1.4,0.9,2.2c0,0.9-0.3,1.7-0.9,2.4C426.5,118.8,425.7,119.2,424.8,119.1z M424.8,114.2c-0.4,0-0.8,0.2-1,0.4
				c-0.3,0.4-0.4,0.8-0.4,1.3c0,1.2,0.5,1.7,1.4,1.7s1.3-0.6,1.3-1.8S425.7,114.2,424.8,114.2z"/>
			<path class="st5" d="M428.9,118.8v-1.5c0.3,0.2,0.6,0.3,0.9,0.4c0.3,0.1,0.6,0.1,0.9,0.1c0.3,0,0.5,0,0.8-0.1
				c0.2-0.1,0.3-0.2,0.3-0.4c0-0.1,0-0.2-0.1-0.3c-0.1-0.1-0.2-0.2-0.3-0.2c-0.1-0.1-0.3-0.1-0.4-0.2c-0.2,0-0.3-0.1-0.5-0.2
				c-0.2-0.1-0.4-0.2-0.6-0.3c-0.2-0.1-0.3-0.2-0.5-0.4c-0.1-0.1-0.2-0.3-0.3-0.5c-0.3-0.8,0-1.7,0.7-2.1c0.3-0.2,0.5-0.3,0.8-0.3
				c0.3-0.1,0.7-0.1,1-0.1c0.3,0,0.5,0,0.8,0.1c0.3,0,0.5,0.1,0.8,0.2v1.4c-0.2-0.1-0.5-0.2-0.8-0.3c-0.3-0.1-0.5-0.1-0.8-0.1
				c-0.1,0-0.2,0-0.3,0c-0.1,0-0.2,0.1-0.3,0.1c-0.1,0-0.1,0.1-0.2,0.2c0,0.1-0.1,0.1-0.1,0.2c0,0.1,0,0.2,0.1,0.3
				c0.1,0.1,0.2,0.1,0.3,0.2c0.1,0.1,0.2,0.1,0.4,0.2l0.4,0.1c0.2,0.1,0.5,0.2,0.7,0.3c0.2,0.1,0.4,0.2,0.5,0.4
				c0.1,0.1,0.3,0.3,0.3,0.5c0.1,0.2,0.1,0.4,0.1,0.7c0,0.3-0.1,0.6-0.2,0.9c-0.2,0.3-0.4,0.5-0.6,0.6c-0.3,0.2-0.6,0.3-0.9,0.3
				c-0.3,0.1-0.7,0.1-1,0.1C430.2,119.1,429.5,119,428.9,118.8z"/>
			<path class="st5" d="M437.5,119.1c-0.9,0-1.7-0.3-2.4-0.8c-1.2-1.3-1.2-3.3,0-4.6c0.7-0.6,1.5-0.9,2.4-0.8c0.9,0,1.7,0.3,2.3,0.8
				c0.6,0.6,0.9,1.4,0.9,2.2c0,0.9-0.3,1.7-0.9,2.4C439.2,118.8,438.4,119.2,437.5,119.1z M437.5,114.2c-0.4,0-0.8,0.2-1,0.4
				c-0.3,0.4-0.4,0.8-0.4,1.3c0,1.2,0.5,1.7,1.4,1.7s1.3-0.6,1.3-1.8S438.4,114.2,437.5,114.2L437.5,114.2z"/>
			<path class="st5" d="M445.8,111.5c-0.2-0.1-0.5-0.1-0.7-0.1c-0.6,0-0.9,0.3-0.9,1v0.6h1.4v1.4h-1.4v4.6h-1.8v-4.6h-1V113h1v-0.8
				c0-0.6,0.2-1.2,0.7-1.7c0.5-0.4,1.2-0.7,1.8-0.6c0.3,0,0.6,0,0.9,0.1V111.5z"/>
			<path class="st5" d="M450.4,118.9c-0.4,0.2-0.8,0.2-1.2,0.2c-1,0.1-1.9-0.5-2-1.5c0-0.2,0-0.3,0-0.5v-2.8h-1V113h1v-1.3l1.9-0.5
				v1.8h1.4v1.4H449v2.4c0,0.6,0.3,0.9,0.7,0.9c0.2,0,0.4-0.1,0.6-0.2L450.4,118.9z"/>
			<path class="st5" d="M402.4,132.8c-0.9,0.5-2,0.7-3.1,0.7c-1.2,0.1-2.3-0.3-3.2-1.1c-0.8-0.8-1.2-1.9-1.2-3.1
				c0-1.2,0.4-2.4,1.3-3.2c0.9-0.9,2.1-1.3,3.4-1.3c0.8,0,1.6,0.1,2.4,0.4v1.8c-0.7-0.4-1.6-0.6-2.4-0.6c-0.7,0-1.4,0.2-1.9,0.8
				c-0.5,0.5-0.8,1.3-0.7,2c0,0.7,0.2,1.4,0.7,2c0.5,0.5,1.1,0.7,1.8,0.7c0.4,0,0.7-0.1,1.1-0.2v-1.6h-1.7v-1.5h3.6L402.4,132.8z"/>
			<path class="st5" d="M407.9,129c-0.2-0.1-0.5-0.2-0.8-0.2c-0.4,0-0.7,0.1-0.9,0.4c-0.2,0.3-0.4,0.8-0.3,1.2v2.9H404v-6h1.9v1.1
				l0,0c0.2-0.7,0.8-1.2,1.6-1.2c0.2,0,0.3,0,0.5,0.1L407.9,129z"/>
			<path class="st5" d="M413.6,133.4h-1.8v-0.9l0,0c-0.4,0.6-1.1,1-1.8,1c-0.5,0-1-0.1-1.4-0.5c-0.3-0.4-0.5-0.8-0.5-1.3
				c0-1.2,0.7-1.8,2.1-2l1.6-0.2c0-0.7-0.4-1-1.1-1c-0.7,0-1.4,0.2-2,0.6v-1.4c0.3-0.2,0.7-0.3,1.1-0.4c0.4-0.1,0.8-0.1,1.2-0.2
				c1.2-0.2,2.4,0.7,2.6,1.9c0,0.2,0,0.4,0,0.6L413.6,133.4z M411.9,130.9v-0.4l-1.1,0.1c-0.6,0.1-0.9,0.4-0.9,0.8
				c0,0.2,0.1,0.4,0.2,0.5c0.2,0.1,0.4,0.2,0.6,0.2c0.3,0,0.6-0.1,0.9-0.4C411.8,131.6,411.9,131.3,411.9,130.9L411.9,130.9z"/>
			<path class="st5" d="M417,132.7L417,132.7v3.5h-1.9v-8.8h1.9v0.9l0,0c0.7-1.1,2.2-1.4,3.3-0.6c0.2,0.1,0.3,0.2,0.5,0.4
				c0.5,0.6,0.7,1.4,0.6,2.2c0,0.9-0.2,1.7-0.7,2.4c-0.5,0.6-1.2,0.9-2,0.9C418,133.5,417.4,133.2,417,132.7z M417,130.2v0.5
				c0,0.4,0.1,0.7,0.3,1c0.2,0.3,0.5,0.4,0.9,0.4c0.4,0,0.8-0.2,1-0.5c0.3-0.4,0.4-0.9,0.4-1.4c0-1.1-0.4-1.6-1.2-1.6
				c-0.4,0-0.7,0.1-0.9,0.4C417.1,129.4,416.9,129.8,417,130.2L417,130.2z"/>
			<path class="st5" d="M428.3,133.4h-1.8V130c0-0.9-0.3-1.3-1-1.3c-0.3,0-0.6,0.1-0.8,0.4c-0.2,0.3-0.3,0.6-0.3,0.9v3.4h-1.9v-8.9
				h1.9v3.8l0,0c0.4-0.6,1.1-1,1.8-1c1.3,0,2,0.8,2,2.5L428.3,133.4z"/>
			<path class="st5" d="M440.7,133.4h-2.1l-0.6-1.9h-3l-0.6,1.9h-2l3.1-8.4h2.2L440.7,133.4z M437.6,130l-0.9-2.8
				c-0.1-0.2-0.1-0.5-0.1-0.8l0,0c0,0.2-0.1,0.5-0.1,0.7l-0.9,2.8H437.6z"/>
			<path class="st5" d="M443.5,130.5v2.9h-1.9V125h3c2.1,0,3.2,0.9,3.2,2.7c0,0.8-0.3,1.5-0.9,2c-0.7,0.5-1.6,0.8-2.4,0.8
				L443.5,130.5z M443.5,126.5v2.5h0.7c1,0,1.5-0.4,1.5-1.3s-0.5-1.3-1.5-1.3L443.5,126.5z"/>
			<path class="st5" d="M450.7,133.4h-1.9V125h1.9V133.4z"/>
		</g>
		<g>
			<polygon class="st10" points="192.6,86.5 185,91.9 187.9,100.7 197.2,100.7 200.1,91.9 			"/>
			<g>
				<g>
					<path class="st11" d="M212.9,99.9h-1.1l-0.9-2.4h-3.6l-0.8,2.4h-1.1l3.2-8.4h1L212.9,99.9z M210.6,96.7l-1.3-3.6
						c-0.1-0.2-0.1-0.4-0.1-0.6l0,0c0,0.2-0.1,0.4-0.1,0.6l-1.3,3.6H210.6z"/>
					<path class="st11" d="M218,99.6c-0.5,0.3-1.1,0.4-1.6,0.4c-0.8,0-1.5-0.3-2.1-0.8c-0.5-0.6-0.8-1.4-0.8-2.2
						c0-0.9,0.3-1.7,0.9-2.4c0.6-0.6,1.4-0.9,2.3-0.9c0.5,0,1,0.1,1.4,0.3v1c-0.4-0.3-0.9-0.5-1.4-0.5c-0.6,0-1.1,0.2-1.5,0.7
						c-0.4,0.5-0.6,1.1-0.6,1.8c0,0.6,0.2,1.2,0.6,1.7c0.4,0.4,0.9,0.6,1.5,0.6c0.5,0,1.1-0.2,1.5-0.5L218,99.6z"/>
					<path class="st11" d="M223.4,99.6c-0.5,0.3-1.1,0.4-1.6,0.4c-0.8,0-1.5-0.3-2.1-0.8c-0.5-0.6-0.8-1.4-0.8-2.2
						c0-0.9,0.3-1.7,0.9-2.4c0.6-0.6,1.4-0.9,2.3-0.9c0.5,0,1,0.1,1.4,0.3v1c-0.4-0.3-0.9-0.5-1.4-0.5c-0.6,0-1.1,0.2-1.5,0.7
						c-0.4,0.5-0.6,1.1-0.6,1.8c0,0.6,0.2,1.2,0.6,1.7c0.4,0.4,0.9,0.6,1.5,0.6c0.5,0,1.1-0.2,1.5-0.5V99.6z"/>
					<path class="st11" d="M229.6,97.1h-4.2c0,0.6,0.2,1.1,0.5,1.6c0.4,0.4,0.9,0.6,1.4,0.5c0.7,0,1.3-0.2,1.9-0.7v0.9
						c-0.6,0.4-1.4,0.6-2.1,0.6c-0.8,0-1.5-0.3-2-0.8c-1-1.4-1-3.2,0.1-4.6c0.5-0.6,1.2-0.9,2-0.9c0.7,0,1.4,0.2,1.8,0.8
						c0.5,0.6,0.7,1.4,0.6,2.1L229.6,97.1z M228.6,96.3c0-0.5-0.1-0.9-0.4-1.3c-0.3-0.3-0.7-0.5-1.1-0.5c-0.4,0-0.9,0.2-1.2,0.5
						c-0.3,0.4-0.5,0.8-0.6,1.3H228.6z"/>
					<path class="st11" d="M230.6,99.7v-1c0.5,0.4,1.1,0.6,1.7,0.6c0.8,0,1.3-0.3,1.3-0.8c0-0.1,0-0.3-0.1-0.4
						c-0.1-0.1-0.2-0.2-0.3-0.3c-0.1-0.1-0.3-0.2-0.4-0.2l-0.5-0.2c-0.2-0.1-0.5-0.2-0.7-0.3c-0.2-0.1-0.4-0.2-0.5-0.4
						c-0.1-0.1-0.2-0.3-0.3-0.5c-0.1-0.2-0.1-0.4-0.1-0.6c0-0.3,0.1-0.5,0.2-0.7c0.1-0.2,0.3-0.4,0.5-0.6c0.2-0.1,0.5-0.3,0.7-0.3
						c0.3-0.1,0.6-0.1,0.9-0.1c0.5,0,1,0.1,1.4,0.3v1c-0.5-0.3-1-0.4-1.5-0.4c-0.2,0-0.3,0-0.5,0.1c-0.1,0-0.3,0.1-0.4,0.2
						c-0.1,0.1-0.2,0.2-0.2,0.3c-0.1,0.1-0.1,0.2-0.1,0.3c0,0.1,0,0.3,0.1,0.4c0.1,0.1,0.1,0.2,0.3,0.3c0.1,0.1,0.3,0.2,0.4,0.2
						l0.5,0.2c0.2,0.1,0.5,0.2,0.7,0.3c0.2,0.1,0.4,0.2,0.5,0.4c0.1,0.1,0.3,0.3,0.3,0.5c0.1,0.2,0.1,0.4,0.1,0.6
						c0,0.3-0.1,0.5-0.2,0.8c-0.1,0.2-0.3,0.4-0.5,0.5c-0.2,0.2-0.5,0.3-0.8,0.3c-0.3,0.1-0.6,0.1-0.9,0.1
						C231.7,100.1,231.1,100,230.6,99.7z"/>
					<path class="st11" d="M235.7,99.7v-1c0.5,0.4,1.1,0.6,1.7,0.6c0.8,0,1.3-0.3,1.3-0.8c0-0.1,0-0.3-0.1-0.4
						c-0.1-0.1-0.2-0.2-0.3-0.3c-0.1-0.1-0.3-0.2-0.4-0.2l-0.5-0.2c-0.3-0.1-0.5-0.2-0.7-0.3c-0.2-0.1-0.4-0.2-0.5-0.4
						c-0.1-0.1-0.2-0.3-0.3-0.5c-0.1-0.2-0.1-0.4-0.1-0.6c0-0.3,0.1-0.5,0.2-0.7c0.1-0.2,0.3-0.4,0.5-0.6c0.2-0.1,0.5-0.3,0.7-0.3
						c0.3-0.1,0.6-0.1,0.9-0.1c0.5,0,1,0.1,1.4,0.3v1c-0.5-0.3-1-0.4-1.5-0.4c-0.2,0-0.3,0-0.5,0.1c-0.1,0-0.3,0.1-0.4,0.2
						c-0.1,0.1-0.2,0.2-0.2,0.3c-0.1,0.1-0.1,0.2-0.1,0.3c0,0.1,0,0.3,0.1,0.4c0.1,0.1,0.1,0.2,0.3,0.3c0.1,0.1,0.3,0.2,0.4,0.2
						l0.5,0.2c0.2,0.1,0.5,0.2,0.7,0.3c0.2,0.1,0.4,0.2,0.5,0.4c0.3,0.3,0.5,0.7,0.5,1.1c0,0.3-0.1,0.5-0.2,0.8
						c-0.1,0.2-0.3,0.4-0.5,0.5c-0.2,0.2-0.5,0.3-0.8,0.3c-0.3,0.1-0.6,0.1-0.9,0.1C236.8,100.1,236.2,100,235.7,99.7z"/>
					<path class="st11" d="M247.3,99.8c-0.3,0.1-0.6,0.2-0.9,0.2c-1.1,0-1.6-0.6-1.6-1.8v-3.5h-1v-0.8h1v-1.5l1-0.3v1.8h1.5v0.8
						h-1.5v3.4c0,0.3,0,0.6,0.2,0.9c0.2,0.2,0.4,0.3,0.7,0.3c0.2,0,0.4-0.1,0.6-0.2L247.3,99.8z"/>
					<path class="st11" d="M250.9,100c-0.8,0-1.6-0.3-2.1-0.8c-0.5-0.6-0.8-1.4-0.8-2.2c0-0.9,0.2-1.7,0.8-2.4
						c0.6-0.6,1.4-0.9,2.2-0.8c0.8,0,1.6,0.3,2.1,0.8c1,1.4,1,3.2-0.1,4.6C252.5,99.8,251.7,100.1,250.9,100z M251,94.5
						c-0.6,0-1.1,0.2-1.5,0.6c-0.4,0.5-0.6,1.1-0.5,1.7c0,0.6,0.2,1.2,0.5,1.7c0.4,0.4,0.9,0.6,1.5,0.6c0.5,0,1.1-0.2,1.4-0.6
						c0.7-1,0.7-2.4,0-3.4C252.1,94.7,251.5,94.5,251,94.5L251,94.5z"/>
					<path class="st11" d="M260.4,99.9H259l-2.6-2.9l0,0v2.9h-1V91h1v5.6l0,0l2.5-2.8h1.3l-2.8,2.9L260.4,99.9z"/>
					<path class="st11" d="M265.9,97.1h-4.2c0,0.6,0.2,1.1,0.5,1.6c0.4,0.4,0.9,0.6,1.4,0.5c0.7,0,1.3-0.2,1.9-0.7v0.9
						c-0.6,0.4-1.4,0.6-2.1,0.6c-0.8,0-1.5-0.3-2-0.8c-0.5-0.7-0.8-1.5-0.7-2.3c0-0.8,0.2-1.6,0.8-2.3c0.5-0.6,1.2-0.9,2-0.9
						c0.7,0,1.4,0.2,1.8,0.8c0.5,0.6,0.7,1.4,0.6,2.1L265.9,97.1z M264.9,96.3c0-0.5-0.1-0.9-0.4-1.3c-0.3-0.3-0.7-0.5-1.1-0.5
						c-0.4,0-0.9,0.2-1.2,0.5c-0.3,0.4-0.5,0.8-0.6,1.3H264.9z"/>
					<path class="st11" d="M272.3,99.9h-1v-3.4c0-1.3-0.5-1.9-1.4-1.9c-0.5,0-0.9,0.2-1.2,0.5c-0.3,0.4-0.5,0.9-0.5,1.4v3.4h-1v-6h1
						v1l0,0c0.4-0.7,1.2-1.2,2-1.1c0.6,0,1.1,0.2,1.5,0.6c0.4,0.5,0.6,1.2,0.5,1.8L272.3,99.9z"/>
				</g>
				<g>
					<path class="st11" d="M212.8,85.7h-1v-3.8h-4.4v3.8h-1v-8.4h1V81h4.4v-3.7h1V85.7z"/>
					<path class="st11" d="M219.8,78.2h-2.4v7.5h-1v-7.5H214v-0.9h5.8L219.8,78.2z"/>
					<path class="st11" d="M226.4,78.2H224v7.5h-1v-7.5h-2.4v-0.9h5.8L226.4,78.2z"/>
					<path class="st11" d="M228.6,82.5v3.2h-1v-8.4h2.3c0.8,0,1.5,0.2,2.1,0.7c0.5,0.5,0.8,1.2,0.7,1.8c0,0.8-0.3,1.5-0.8,2
						c-0.6,0.5-1.4,0.8-2.2,0.8L228.6,82.5z M228.6,78.2v3.4h1c0.6,0,1.1-0.1,1.6-0.5c0.4-0.3,0.6-0.8,0.5-1.3c0-1.1-0.6-1.7-2-1.7
						H228.6z"/>
					<path class="st11" d="M243.9,85.1c-0.9,0.5-1.8,0.7-2.8,0.7c-1.1,0-2.1-0.4-2.9-1.2c-0.8-0.8-1.2-1.9-1.1-3.1
						c0-1.2,0.4-2.3,1.2-3.2c0.8-0.8,2-1.3,3.1-1.3c0.8,0,1.6,0.1,2.3,0.4v1.1c-0.7-0.4-1.6-0.7-2.4-0.7c-0.9,0-1.7,0.3-2.3,1
						c-0.6,0.7-1,1.6-0.9,2.5c-0.1,0.9,0.2,1.8,0.8,2.5c0.6,0.6,1.4,1,2.3,0.9c0.6,0,1.2-0.1,1.7-0.4v-2.3h-1.8v-0.9h2.8L243.9,85.1
						z"/>
					<path class="st11" d="M250.2,85.7h-4.5v-8.4h4.3v0.9h-3.3V81h3v0.9h-3v2.9h3.5V85.7z"/>
					<path class="st11" d="M256.9,78.2h-2.4v7.5h-1v-7.5h-2.4v-0.9h5.8L256.9,78.2z"/>
					<path class="st11" d="M267.3,82.6h-2.4V85h-0.8v-2.4h-2.4v-0.8h2.4v-2.4h0.8v2.4h2.4L267.3,82.6z"/>
				</g>
			</g>
		</g>
	</g>
</g>
<g id="bg">
	<g id="Shapes_1_">
		<rect x="1" class="st1" width="475.7" height="150.2"/>
		<rect x="1" y="0.2" class="st4" width="105" height="150"/>
		<rect x="372" y="0.2" class="st5" width="104.7" height="90"/>
		<rect x="372" y="95.2" class="st6" width="104.7" height="55"/>
		<g>
			<line class="st7" x1="106" y1="15.2" x2="366.6" y2="15.2"/>
			<polygon points="365.5,18.9 372,15.2 365.5,11.5 			"/>
		</g>
		<g>
			<line class="st7" x1="111.4" y1="45.1" x2="372" y2="45.1"/>
			<polygon points="112.5,48.8 106,45.1 112.5,41.3 			"/>
		</g>
		<g>
			<line class="st7" x1="106" y1="105.4" x2="366.6" y2="105.4"/>
			<polygon points="365.5,109.1 372,105.4 365.5,101.6 			"/>
		</g>
		<g>
			<line class="st7" x1="111.4" y1="140.7" x2="372" y2="140.7"/>
			<polygon points="112.5,144.4 106.1,140.7 112.5,136.9 			"/>
		</g>
		
			<use xlink:href="#New_Symbol_44"  width="20" height="20" x="-10" y="-10" transform="matrix(1 0 0 1 169.88 140.2)" style="overflow:visible;"/>
		
			<use xlink:href="#New_Symbol_43"  width="20" height="20" x="-10" y="-10" transform="matrix(1 0 0 1 169.88 105.36)" style="overflow:visible;"/>
		
			<use xlink:href="#New_Symbol_42"  width="20" height="20" x="-10" y="-10" transform="matrix(1 0 0 1 169.88 45.08)" style="overflow:visible;"/>
		
			<use xlink:href="#New_Symbol_41"  width="20" height="20" x="-10" y="-10" transform="matrix(1 0 0 1 169.88 15.2)" style="overflow:visible;"/>
		<g>
			<g>
				<path class="st8" d="M20.5,28.7c0-0.8,0.7-1.5,1.5-1.5c0,0,0,0,0,0h62.9c0.8,0,1.5,0.7,1.5,1.5c0,0,0,0,0,0v37.2
					c0,0.8-0.7,1.5-1.5,1.5c0,0,0,0,0,0H22.1c-0.8,0-1.5-0.7-1.5-1.5c0,0,0,0,0,0L20.5,28.7z M17.1,26.9v40.7c0,1.8,1.5,3.3,3.3,3.3
					l0,0h66.3c1.8,0,3.3-1.4,3.3-3.2c0,0,0,0,0-0.1V26.9c0-1.8-1.5-3.3-3.3-3.3c0,0,0,0,0,0H20.3C18.5,23.6,17,25.1,17.1,26.9
					C17,26.9,17,26.9,17.1,26.9z"/>
				<path class="st8" d="M14.4,74.4h78.3c0.5,0,0.9,0.4,0.9,0.9c0,0,0,0,0,0v2.6c0,0.5-0.4,0.9-0.9,0.9h0H14.4
					c-0.5,0-0.9-0.4-0.9-0.9l0,0v-2.6C13.5,74.8,13.9,74.4,14.4,74.4C14.4,74.4,14.4,74.4,14.4,74.4z"/>
				<path class="st1" d="M44.6,75.9h17.9c0.1,0,0.3,0.1,0.3,0.3v0.7c0,0.1-0.1,0.3-0.3,0.3H44.6c-0.1,0-0.3-0.1-0.3-0.3v-0.7
					C44.3,76,44.4,75.9,44.6,75.9z"/>
			</g>
			<path class="st9" d="M38,36.3l12.7-1.7v12.2L38,46.8V36.3z M50.7,48.2v12.2L38,58.6V48.1L50.7,48.2z M52.2,34.3L69,31.9v14.7
				l-16.8,0.1V34.3z M69,48.3v14.6l-16.8-2.4V48.2L69,48.3z"/>
		</g>
		<polygon class="st10" points="193.6,26.2 186,31.6 188.9,40.5 198.2,40.5 201.1,31.6 		"/>
	</g>
	<g id="Text_1_">
		<g>
			<polygon class="st10" points="193.6,86.5 186,91.9 188.9,100.7 198.2,100.7 201.1,91.9 			"/>
		</g>
	</g>
</g>
<g id="txt">
	<g>
		<rect x="13.5" y="90.1" class="st12" width="80" height="40.6"/>
		<path class="st13" d="M28.6,90.6L26.3,99h-1.6l-1.6-5.9c-0.1-0.3-0.1-0.5-0.1-0.8h0c0,0.3-0.1,0.5-0.1,0.8L21.2,99h-1.6l-2.3-8.4
			h1.5l1.5,6.2c0.1,0.3,0.1,0.5,0.1,0.8h0c0-0.2,0.1-0.5,0.2-0.8l1.7-6.2h1.4l1.6,6.2c0.1,0.2,0.1,0.5,0.1,0.8h0
			c0-0.2,0.1-0.5,0.1-0.8l1.5-6.2H28.6z"/>
		<path class="st13" d="M30.3,91.7c-0.2,0-0.4-0.1-0.6-0.2s-0.2-0.3-0.2-0.6s0.1-0.4,0.2-0.6s0.3-0.2,0.6-0.2c0.2,0,0.4,0.1,0.6,0.2
			s0.2,0.3,0.2,0.6c0,0.2-0.1,0.4-0.2,0.5S30.5,91.7,30.3,91.7z M31,99h-1.4v-6H31V99z"/>
		<path class="st13" d="M38.1,99h-1.4v-3.4c0-1.1-0.4-1.7-1.2-1.7c-0.4,0-0.8,0.2-1,0.5s-0.4,0.7-0.4,1.2V99h-1.4v-6h1.4v1h0
			c0.4-0.8,1.1-1.1,1.9-1.1c0.7,0,1.2,0.2,1.5,0.6s0.5,1,0.5,1.8V99z"/>
		<path class="st13" d="M45.2,99h-1.4v-1h0c-0.4,0.8-1.1,1.2-2,1.2c-0.7,0-1.3-0.3-1.8-0.8s-0.7-1.3-0.7-2.2c0-1,0.2-1.8,0.7-2.4
			s1.1-0.9,2-0.9c0.8,0,1.4,0.3,1.8,1h0v-3.7h1.4V99z M43.9,96.2v-0.8c0-0.4-0.1-0.8-0.4-1.1s-0.6-0.4-1.1-0.4
			c-0.5,0-0.9,0.2-1.2,0.6s-0.4,0.9-0.4,1.6c0,0.6,0.1,1.1,0.4,1.4s0.7,0.5,1.1,0.5c0.5,0,0.8-0.2,1.1-0.5S43.9,96.8,43.9,96.2z"/>
		<path class="st13" d="M49.6,99.1c-0.9,0-1.7-0.3-2.2-0.8s-0.8-1.3-0.8-2.2c0-1,0.3-1.8,0.9-2.4s1.4-0.8,2.3-0.8
			c0.9,0,1.7,0.3,2.2,0.8s0.8,1.3,0.8,2.3c0,1-0.3,1.7-0.8,2.3S50.6,99.1,49.6,99.1z M49.7,93.9c-0.5,0-1,0.2-1.3,0.6S48,95.4,48,96
			c0,0.6,0.2,1.1,0.5,1.5s0.7,0.5,1.3,0.5c0.5,0,0.9-0.2,1.2-0.5s0.4-0.9,0.4-1.5c0-0.7-0.1-1.2-0.4-1.5S50.2,93.9,49.7,93.9z"/>
		<path class="st13" d="M62.2,93l-1.8,6H59l-1.1-4.1c0-0.2-0.1-0.3-0.1-0.5h0c0,0.1,0,0.3-0.1,0.5L56.5,99h-1.4l-1.8-6h1.4l1.1,4.3
			c0,0.1,0.1,0.3,0.1,0.5h0c0-0.2,0-0.3,0.1-0.5l1.2-4.3h1.3l1.1,4.3c0,0.1,0.1,0.3,0.1,0.5h0c0-0.1,0-0.3,0.1-0.5l1.1-4.3H62.2z"/>
		<path class="st13" d="M62.9,98.8v-1.3c0.5,0.4,1.1,0.6,1.7,0.6c0.8,0,1.2-0.2,1.2-0.7c0-0.1,0-0.3-0.1-0.3s-0.2-0.2-0.3-0.3
			s-0.3-0.1-0.4-0.2s-0.3-0.1-0.5-0.2c-0.2-0.1-0.5-0.2-0.7-0.3s-0.4-0.2-0.5-0.4S63,95.4,63,95.2s-0.1-0.4-0.1-0.6
			c0-0.3,0.1-0.5,0.2-0.8s0.3-0.4,0.6-0.6s0.5-0.3,0.8-0.3s0.6-0.1,0.9-0.1c0.6,0,1.1,0.1,1.5,0.3v1.2c-0.4-0.3-0.9-0.4-1.5-0.4
			c-0.2,0-0.3,0-0.5,0.1s-0.3,0.1-0.4,0.1s-0.2,0.1-0.2,0.2s-0.1,0.2-0.1,0.3c0,0.1,0,0.2,0.1,0.3s0.1,0.2,0.2,0.2s0.2,0.1,0.4,0.2
			s0.3,0.1,0.5,0.2c0.3,0.1,0.5,0.2,0.7,0.3s0.4,0.2,0.5,0.4s0.3,0.3,0.3,0.5s0.1,0.4,0.1,0.6c0,0.3-0.1,0.6-0.2,0.8
			s-0.3,0.4-0.6,0.6S65.8,99,65.5,99s-0.6,0.1-1,0.1C63.9,99.1,63.3,99,62.9,98.8z"/>
		<path class="st13" d="M75.1,93.7h-3.6v-1.1h8v1.1h-3c0,1.1-0.1,1.9-0.2,2.5c-0.1,0.4-0.3,0.9-0.5,1.3c-0.3,0.5-0.7,0.9-1.1,1.3
			c-0.4,0.3-0.9,0.6-1.5,0.9l-0.9-1c1.2-0.4,2-1.1,2.4-1.9c0.2-0.4,0.3-0.8,0.4-1.2C75,95.1,75.1,94.5,75.1,93.7z M72.2,90h5.1V91
			h-5.1V90z M77.4,89.1l0.8-0.2c0.3,0.5,0.6,1.2,0.9,2l-0.8,0.3C78,90.4,77.8,89.7,77.4,89.1z M78.8,88.8l0.8-0.2
			c0.3,0.6,0.6,1.2,0.8,1.9l-0.8,0.3C79.4,90,79.1,89.3,78.8,88.8z"/>
		<path class="st13" d="M86.7,94.8c0.9,1.1,1.8,2.4,2.8,3.9l-1.3,0.8c-0.6-1.3-1.4-2.5-2.2-3.6c-1,1.4-2.5,2.6-4.3,3.6l-0.8-1
			c1.6-0.8,2.9-1.8,3.9-3.2c0.8-1.2,1.4-2.5,1.7-3.9h-4.9v-1.1h6.2l0.3,0.5C87.8,92.2,87.3,93.6,86.7,94.8z"/>
		<path class="st13" d="M24.3,106c-0.6,1.3-1.4,2.4-2.3,3.4l-1-0.7c1.4-1.4,2.3-3.1,2.8-4.9l1.4,0.2c-0.2,0.5-0.3,0.9-0.4,1h3.7
			l0.3,0.4c-0.4,2.6-1.2,4.6-2.4,6c-0.9,1.1-2.2,2-3.9,2.6l-0.8-1c1.7-0.7,3-1.6,3.9-2.8c0.8-1.1,1.4-2.5,1.7-4.2H24.3z"/>
		<path class="st13" d="M32.9,107.3c1.7,0.5,3.2,1.1,4.6,1.9l-0.7,1.3c-1.1-0.8-2.4-1.4-3.9-1.8v5.3h-1.3v-10.1h1.3V107.3z"/>
		<path class="st13" d="M38.8,106.8l1.1-0.4c0.4,0.8,0.7,1.7,1,2.8l-1.1,0.4C39.4,108.5,39.1,107.6,38.8,106.8z M40.1,113.2
			c1.5-0.6,2.6-1.4,3.2-2.5c0.6-1,0.9-2.5,1-4.5l1.3,0.3c-0.1,1.2-0.3,2.2-0.5,2.9c-0.2,0.7-0.5,1.4-0.8,1.9
			c-0.4,0.7-0.9,1.3-1.5,1.7c-0.5,0.4-1.2,0.7-2,1.1L40.1,113.2z M41.1,106.3l1.1-0.3c0.3,0.7,0.6,1.6,0.8,2.7l-1.1,0.4
			C41.6,107.9,41.4,107,41.1,106.3z"/>
		<path class="st13" d="M53.1,104.7c0-0.1-0.1-0.3-0.1-0.4c0-0.4,0.2-0.7,0.5-1c0.3-0.2,0.6-0.4,0.9-0.4c0.4,0,0.7,0.2,1,0.5
			c0.2,0.3,0.4,0.6,0.4,0.9c0,0.4-0.2,0.7-0.5,1c-0.3,0.2-0.6,0.4-0.9,0.4c-0.1,0-0.2,0-0.3,0c-0.1,2.5-0.7,4.5-1.7,5.8
			c-0.9,1.1-2.2,2-4,2.7l-0.7-1.1c1.8-0.6,3.1-1.5,3.9-2.7c0.7-1.1,1.1-2.6,1.2-4.5h-5.5v-1.1H53.1z M54.4,103.4
			c-0.2,0-0.4,0.1-0.6,0.3c-0.1,0.1-0.2,0.3-0.2,0.5c0,0.2,0.1,0.4,0.3,0.6c0.1,0.1,0.3,0.2,0.5,0.2c0.2,0,0.4-0.1,0.6-0.3
			c0.1-0.1,0.2-0.3,0.2-0.5c0-0.2-0.1-0.4-0.3-0.6C54.8,103.5,54.6,103.4,54.4,103.4z"/>
		<path class="st13" d="M59.9,104.4h7.9l0.3,0.4c-0.1,1-0.4,1.9-0.8,2.5c-0.3,0.6-0.8,1.2-1.4,1.7l-1-0.8c0.5-0.4,0.9-0.8,1.2-1.4
			c0.2-0.4,0.4-0.8,0.4-1.3h-6.7V104.4z M60.2,113c1.1-0.4,1.8-1,2.3-1.7c0.4-0.7,0.6-1.6,0.6-2.7v-2h1.4v1.8c0,1.6-0.3,2.9-0.9,3.8
			c-0.5,0.7-1.3,1.3-2.3,1.9L60.2,113z"/>
		<path class="st13" d="M75.3,104.7c0-0.1-0.1-0.3-0.1-0.4c0-0.4,0.2-0.7,0.5-1c0.3-0.2,0.6-0.4,0.9-0.4c0.4,0,0.7,0.2,1,0.5
			c0.2,0.3,0.4,0.6,0.4,0.9c0,0.4-0.2,0.7-0.5,1c-0.3,0.2-0.6,0.4-0.9,0.4c-0.1,0-0.2,0-0.3,0c-0.1,2.5-0.7,4.5-1.7,5.8
			c-0.9,1.1-2.2,2-4,2.7l-0.7-1.1c1.8-0.6,3.1-1.5,3.9-2.7c0.7-1.1,1.1-2.6,1.2-4.5h-5.5v-1.1H75.3z M76.6,103.4
			c-0.2,0-0.4,0.1-0.6,0.3c-0.1,0.1-0.2,0.3-0.2,0.5c0,0.2,0.1,0.4,0.3,0.6c0.1,0.1,0.3,0.2,0.5,0.2c0.2,0,0.4-0.1,0.6-0.3
			c0.1-0.1,0.2-0.3,0.2-0.5c0-0.2-0.1-0.4-0.3-0.6C77,103.5,76.8,103.4,76.6,103.4z"/>
		<path class="st13" d="M80.8,104.2v5.9h-1.3v-5.9H80.8z M80.1,112.9c0.9-0.2,1.7-0.4,2.2-0.7c0.6-0.3,1-0.8,1.2-1.3
			c0.2-0.6,0.4-1.3,0.4-2.3v-4.4h1.3v4.5c0,1.8-0.4,3.1-1.2,3.9c-0.7,0.7-1.7,1.2-3.2,1.5L80.1,112.9z"/>
	</g>
	<g>
		<g>
			<path class="st14" d="M213.4,86.3h-1v-3.8h-4.3v3.8h-1v-8.4h1v3.7h4.3v-3.7h1V86.3z"/>
			<path class="st14" d="M220.5,78.8h-2.4v7.5h-1v-7.5h-2.4v-0.9h5.8V78.8z"/>
			<path class="st14" d="M226.7,78.8h-2.4v7.5h-1v-7.5h-2.4v-0.9h5.8V78.8z"/>
			<path class="st14" d="M229,83.1v3.2h-1v-8.4h2.3c0.9,0,1.6,0.2,2.1,0.7s0.7,1.1,0.7,1.9s-0.3,1.4-0.8,2s-1.3,0.8-2.2,0.8H229z
				 M229,78.8v3.4h1c0.7,0,1.2-0.2,1.6-0.5s0.5-0.7,0.5-1.3c0-1.1-0.7-1.7-2-1.7H229z"/>
			<path class="st14" d="M244.1,85.7c-0.8,0.5-1.8,0.7-2.8,0.7c-1.2,0-2.2-0.4-2.9-1.2s-1.1-1.8-1.1-3.1c0-1.3,0.4-2.4,1.2-3.2
				s1.9-1.3,3.1-1.3c0.9,0,1.7,0.1,2.3,0.4v1.1c-0.7-0.4-1.5-0.6-2.4-0.6c-0.9,0-1.7,0.3-2.3,1s-0.9,1.5-0.9,2.5
				c0,1.1,0.3,1.9,0.8,2.5s1.3,0.9,2.3,0.9c0.7,0,1.2-0.1,1.7-0.4v-2.4h-1.8v-0.9h2.8V85.7z"/>
			<path class="st14" d="M250.5,86.3H246v-8.4h4.3v0.9H247v2.8h3v0.9h-3v2.9h3.5V86.3z"/>
			<path class="st14" d="M257,78.8h-2.4v7.5h-1v-7.5h-2.4v-0.9h5.8V78.8z"/>
			<path class="st14" d="M267.2,83.2h-2.4v2.4h-0.8v-2.4h-2.4v-0.8h2.4V80h0.8v2.4h2.4V83.2z"/>
			<path class="st14" d="M272.5,77.4h7.8c-0.1,1.1-0.4,2-0.7,2.7c-0.3,0.7-0.8,1.3-1.4,1.8l-0.7-0.6c0.5-0.4,0.9-0.9,1.3-1.5
				c0.3-0.5,0.5-1,0.5-1.6h-6.7V77.4z M272.9,86c1-0.5,1.8-1.1,2.2-1.8c0.4-0.8,0.7-1.8,0.7-3.2v-1.9h0.9v1.9c0,1.6-0.3,2.9-1,3.8
				c-0.5,0.7-1.2,1.3-2.2,1.8L272.9,86z"/>
			<path class="st14" d="M284.5,78.7c-0.6,1.3-1.3,2.5-2.2,3.5l-0.7-0.5c1.3-1.4,2.1-3,2.6-5l0.9,0.1c-0.1,0.3-0.2,0.7-0.3,1.1h4.2
				c-0.4,2.8-1.1,4.9-2.3,6.3c-0.9,1.1-2.2,2-3.8,2.7l-0.5-0.6c1.7-0.7,3-1.6,3.8-2.8c0.8-1.2,1.4-2.7,1.7-4.7H284.5z"/>
			<path class="st14" d="M292.8,79.5v-2.8h0.9v2.6l4.6-1l0.5,0.6c-0.6,1.8-1.5,3.3-2.5,4.5l-0.8-0.5c1.1-1.3,1.8-2.5,2.2-3.7l-4,0.9
				v4.3c0,0.5,0.1,0.9,0.4,1c0.2,0.1,0.7,0.2,1.5,0.2c0.9,0,1.8,0,2.8-0.1v0.9c-0.9,0.1-1.8,0.1-3,0.1c-1.1,0-1.8-0.2-2.2-0.5
				c-0.3-0.3-0.4-0.8-0.4-1.5v-4.1l-2,0.5l-0.2-0.8L292.8,79.5z"/>
			<path class="st14" d="M304.9,82.9c-1,1.6-2.5,2.9-4.3,3.8l-0.5-0.7c1.7-0.9,3-2,3.9-3.4c0.8-1.2,1.4-2.6,1.8-4.3h-5v-0.8h6.2
				c-0.4,1.8-0.9,3.3-1.6,4.6c1.1,1.3,2,2.6,2.8,4l-0.9,0.6C306.6,85.3,305.8,84.1,304.9,82.9z"/>
			<path class="st14" d="M209.1,95.3v5.7h-0.9V90.9h0.9v3.5c1.9,0.5,3.4,1.2,4.6,1.9l-0.5,0.9C212.1,96.4,210.7,95.8,209.1,95.3z"/>
			<path class="st14" d="M214.8,95.6h6.5v0.9h-6.5V95.6z"/>
			<path class="st14" d="M225.5,92.9c-0.6,1.3-1.3,2.5-2.2,3.5l-0.7-0.5c1.3-1.4,2.1-3,2.6-5l0.9,0.1c-0.1,0.3-0.2,0.7-0.3,1.1h4.2
				c-0.4,2.8-1.1,4.9-2.3,6.3c-0.9,1.1-2.2,2-3.8,2.7l-0.5-0.6c1.7-0.7,3-1.6,3.8-2.8c0.8-1.2,1.4-2.7,1.7-4.7H225.5z"/>
			<path class="st14" d="M232.1,91.9c1.1,0.6,2.1,1.2,2.8,1.8l-0.6,0.8c-0.7-0.6-1.6-1.2-2.8-1.9L232.1,91.9z M238.2,92.5l0.9,0.4
				c-0.4,2.1-1.1,3.7-2.2,5c-1.2,1.3-2.8,2.2-4.8,2.8l-0.4-0.8C235.4,99,237.6,96.5,238.2,92.5z"/>
		</g>
	</g>
	<g>
		<rect x="384.6" y="31.3" class="st12" width="79.7" height="24.5"/>
		<path class="st15" d="M400.7,40.2h-1.4v-5.4c0-0.4,0-1,0.1-1.6h0c-0.1,0.4-0.2,0.6-0.2,0.8l-2.5,6.3h-1l-2.5-6.2
			c-0.1-0.2-0.1-0.5-0.2-0.8h0c0,0.3,0,0.9,0,1.6v5.4h-1.3v-8.4h2l2.2,5.6c0.2,0.4,0.3,0.8,0.3,1h0c0.1-0.4,0.3-0.8,0.4-1l2.3-5.6
			h1.9V40.2z"/>
		<path class="st15" d="M403.3,33c-0.2,0-0.4-0.1-0.6-0.2s-0.2-0.3-0.2-0.6s0.1-0.4,0.2-0.6s0.3-0.2,0.6-0.2c0.2,0,0.4,0.1,0.6,0.2
			s0.2,0.3,0.2,0.6c0,0.2-0.1,0.4-0.2,0.5S403.5,33,403.3,33z M404,40.2h-1.4v-6h1.4V40.2z"/>
		<path class="st15" d="M410,39.9c-0.5,0.3-1,0.4-1.7,0.4c-0.9,0-1.6-0.3-2.2-0.8s-0.8-1.3-0.8-2.2c0-1,0.3-1.8,0.9-2.4
			s1.4-0.9,2.4-0.9c0.5,0,1,0.1,1.4,0.3v1.3c-0.4-0.3-0.9-0.5-1.3-0.5c-0.6,0-1,0.2-1.4,0.6s-0.6,0.9-0.6,1.5c0,0.6,0.2,1.1,0.5,1.5
			s0.8,0.5,1.4,0.5c0.5,0,0.9-0.2,1.4-0.5V39.9z"/>
		<path class="st15" d="M414.8,35.5c-0.2-0.1-0.4-0.2-0.7-0.2c-0.4,0-0.7,0.2-1,0.5s-0.4,0.9-0.4,1.5v2.9h-1.4v-6h1.4v1.2h0
			c0.1-0.4,0.3-0.8,0.6-1s0.6-0.4,0.9-0.4c0.2,0,0.4,0,0.6,0.1V35.5z"/>
		<path class="st15" d="M418.5,40.4c-0.9,0-1.7-0.3-2.2-0.8s-0.8-1.3-0.8-2.2c0-1,0.3-1.8,0.9-2.4s1.4-0.8,2.3-0.8
			c0.9,0,1.7,0.3,2.2,0.8s0.8,1.3,0.8,2.3c0,1-0.3,1.7-0.8,2.3S419.4,40.4,418.5,40.4z M418.5,35.2c-0.5,0-1,0.2-1.3,0.6
			s-0.5,0.9-0.5,1.5c0,0.6,0.2,1.1,0.5,1.5s0.7,0.5,1.3,0.5c0.5,0,0.9-0.2,1.2-0.5s0.4-0.9,0.4-1.5c0-0.7-0.1-1.2-0.4-1.5
			S419.1,35.2,418.5,35.2z"/>
		<path class="st15" d="M422.6,40v-1.3c0.5,0.4,1.1,0.6,1.7,0.6c0.8,0,1.2-0.2,1.2-0.7c0-0.1,0-0.3-0.1-0.3s-0.2-0.2-0.3-0.3
			s-0.3-0.1-0.4-0.2s-0.3-0.1-0.5-0.2c-0.2-0.1-0.5-0.2-0.7-0.3s-0.4-0.2-0.5-0.4s-0.2-0.3-0.3-0.5s-0.1-0.4-0.1-0.6
			c0-0.3,0.1-0.5,0.2-0.8s0.3-0.4,0.6-0.6s0.5-0.3,0.8-0.3s0.6-0.1,0.9-0.1c0.6,0,1.1,0.1,1.5,0.3v1.2c-0.4-0.3-0.9-0.4-1.5-0.4
			c-0.2,0-0.3,0-0.5,0.1s-0.3,0.1-0.4,0.1s-0.2,0.1-0.2,0.2s-0.1,0.2-0.1,0.3c0,0.1,0,0.2,0.1,0.3s0.1,0.2,0.2,0.2s0.2,0.1,0.4,0.2
			s0.3,0.1,0.5,0.2c0.3,0.1,0.5,0.2,0.7,0.3s0.4,0.2,0.5,0.4s0.3,0.3,0.3,0.5s0.1,0.4,0.1,0.6c0,0.3-0.1,0.6-0.2,0.8
			s-0.3,0.4-0.6,0.6s-0.5,0.3-0.8,0.3s-0.6,0.1-1,0.1C423.7,40.4,423.1,40.2,422.6,40z"/>
		<path class="st15" d="M430.8,40.4c-0.9,0-1.7-0.3-2.2-0.8s-0.8-1.3-0.8-2.2c0-1,0.3-1.8,0.9-2.4s1.4-0.8,2.3-0.8
			c0.9,0,1.7,0.3,2.2,0.8s0.8,1.3,0.8,2.3c0,1-0.3,1.7-0.8,2.3S431.8,40.4,430.8,40.4z M430.9,35.2c-0.5,0-1,0.2-1.3,0.6
			s-0.5,0.9-0.5,1.5c0,0.6,0.2,1.1,0.5,1.5s0.7,0.5,1.3,0.5c0.5,0,0.9-0.2,1.2-0.5s0.4-0.9,0.4-1.5c0-0.7-0.1-1.2-0.4-1.5
			S431.4,35.2,430.9,35.2z"/>
		<path class="st15" d="M438.7,32.4c-0.2-0.1-0.4-0.2-0.6-0.2c-0.7,0-1,0.4-1,1.1v0.8h1.4v1.1h-1.4v4.9h-1.4v-4.9h-1v-1.1h1v-1
			c0-0.6,0.2-1.1,0.6-1.5s0.9-0.5,1.6-0.5c0.3,0,0.6,0,0.8,0.1V32.4z"/>
		<path class="st15" d="M442.6,40.1c-0.3,0.1-0.6,0.2-1,0.2c-1.2,0-1.7-0.6-1.7-1.7v-3.4h-1v-1.1h1v-1.4l1.4-0.4v1.8h1.4v1.1h-1.4v3
			c0,0.4,0.1,0.6,0.2,0.8s0.3,0.2,0.6,0.2c0.2,0,0.4-0.1,0.6-0.2V40.1z"/>
		<path class="st15" d="M448.7,40.2h-1.4v-8.4h1.4V40.2z"/>
		<path class="st15" d="M450.7,40.2v-8.4h2.4c3.1,0,4.6,1.4,4.6,4.1c0,1.3-0.4,2.3-1.3,3.1s-2,1.2-3.5,1.2H450.7z M452.1,33v6h1.1
			c1,0,1.7-0.3,2.3-0.8s0.8-1.3,0.8-2.3c0-2-1-2.9-3.1-2.9H452.1z"/>
		<path class="st15" d="M396.6,45.9c0-0.1-0.1-0.3-0.1-0.4c0-0.4,0.2-0.7,0.5-1c0.3-0.2,0.6-0.4,0.9-0.4c0.4,0,0.7,0.2,1,0.5
			c0.2,0.3,0.4,0.6,0.4,0.9c0,0.4-0.2,0.7-0.5,1c-0.3,0.2-0.6,0.4-0.9,0.4c-0.1,0-0.2,0-0.3,0c-0.1,2.5-0.7,4.5-1.7,5.8
			c-0.9,1.1-2.2,2-4,2.7l-0.7-1.1c1.8-0.6,3.1-1.5,3.9-2.7c0.7-1.1,1.1-2.6,1.2-4.5h-5.5v-1.1H396.6z M397.9,44.6
			c-0.2,0-0.4,0.1-0.6,0.3c-0.1,0.1-0.2,0.3-0.2,0.5c0,0.2,0.1,0.4,0.3,0.6c0.1,0.1,0.3,0.2,0.5,0.2c0.2,0,0.4-0.1,0.6-0.3
			c0.1-0.1,0.2-0.3,0.2-0.5c0-0.2-0.1-0.4-0.3-0.6C398.3,44.7,398.1,44.6,397.9,44.6z"/>
		<path class="st15" d="M400,48h7.1c-0.1,2.4-0.7,4.2-1.7,5.3c-0.8,0.9-2.1,1.5-3.8,2l-0.6-1c1.7-0.4,2.9-1.1,3.6-2
			c0.7-0.8,1-1.8,1.1-3.2H400V48z M400.8,45.5h5.7v1.1h-5.7V45.5z"/>
		<path class="st15" d="M408.5,48l1.1-0.4c0.4,0.8,0.7,1.7,1,2.8l-1.1,0.4C409.2,49.7,408.9,48.8,408.5,48z M409.8,54.4
			c1.5-0.6,2.6-1.4,3.2-2.5c0.6-1,0.9-2.5,1-4.5l1.3,0.3c-0.1,1.2-0.3,2.2-0.5,2.9c-0.2,0.7-0.5,1.4-0.8,1.9
			c-0.4,0.7-0.9,1.3-1.5,1.7c-0.5,0.4-1.2,0.7-2,1.1L409.8,54.4z M410.8,47.5l1.1-0.3c0.3,0.7,0.6,1.6,0.8,2.7l-1.1,0.4
			C411.4,49.1,411.1,48.2,410.8,47.5z"/>
		<path class="st15" d="M419.6,48.5c1.7,0.5,3.2,1.1,4.6,1.9l-0.7,1.3c-1.1-0.8-2.4-1.4-3.9-1.8v5.3h-1.3V45h1.3V48.5z"/>
		<path class="st15" d="M425.4,45.8h6.9c0,1.9-0.2,3.5-0.6,4.7c-0.4,1.2-1,2.2-1.9,2.9c-0.8,0.7-1.9,1.3-3.3,1.8l-0.7-1.1
			c1.8-0.6,3.1-1.5,3.9-2.7c0.7-1.1,1.1-2.6,1.2-4.5h-5.5V45.8z"/>
		<path class="st15" d="M437.9,50.2l-0.5,0.9c-0.7,1.2-1.7,2.3-3.1,3.3l-0.8-1c0.8-0.5,1.5-1.1,2.2-1.9c0.6-0.7,1-1.4,1.4-2.1H434
			v-1.1h3.7l-0.1-1.6h1.2l0.1,1.6h1.8v1.1H439l0.2,5.6H438l-0.1-3.8L437.9,50.2z"/>
		<path class="st15" d="M442.1,49.4h6.8v1.3h-6.8V49.4z"/>
		<path class="st15" d="M456.4,52.8c-0.4-1-0.9-2-1.4-3l1.1-0.4c0.9,1.5,1.7,3.2,2.4,5.2l-1.3,0.6c-0.1-0.5-0.3-0.9-0.4-1.3
			c-1.7,0.3-4,0.6-6.6,0.9l-0.3-1.3c0.4,0,0.7-0.1,0.8-0.1c0.9-2.5,1.7-5.2,2.4-8.2l1.3,0.4c-0.7,2.5-1.5,5.1-2.4,7.7
			C453.7,53.1,455.1,53,456.4,52.8z"/>
	</g>
	<g>
		<rect x="391.6" y="110.4" class="st12" width="64.5" height="30.5"/>
		<path class="st16" d="M407.8,119.2h-1.4v-5.4c0-0.4,0-1,0.1-1.6h0c-0.1,0.4-0.2,0.6-0.2,0.8l-2.5,6.3h-1l-2.5-6.2
			c-0.1-0.2-0.1-0.5-0.2-0.8h0c0,0.3,0,0.9,0,1.6v5.4h-1.3v-8.4h2l2.2,5.6c0.2,0.4,0.3,0.8,0.3,1h0c0.1-0.4,0.3-0.8,0.4-1l2.3-5.6
			h1.9V119.2z"/>
		<path class="st16" d="M410.4,112c-0.2,0-0.4-0.1-0.6-0.2s-0.2-0.3-0.2-0.6s0.1-0.4,0.2-0.6s0.3-0.2,0.6-0.2c0.2,0,0.4,0.1,0.6,0.2
			s0.2,0.3,0.2,0.6c0,0.2-0.1,0.4-0.2,0.5S410.6,112,410.4,112z M411,119.2h-1.4v-6h1.4V119.2z"/>
		<path class="st16" d="M417.1,119c-0.5,0.3-1,0.4-1.7,0.4c-0.9,0-1.6-0.3-2.2-0.8s-0.8-1.3-0.8-2.2c0-1,0.3-1.8,0.9-2.4
			s1.4-0.9,2.4-0.9c0.5,0,1,0.1,1.4,0.3v1.3c-0.4-0.3-0.9-0.5-1.3-0.5c-0.6,0-1,0.2-1.4,0.6s-0.6,0.9-0.6,1.5c0,0.6,0.2,1.1,0.5,1.5
			s0.8,0.5,1.4,0.5c0.5,0,0.9-0.2,1.4-0.5V119z"/>
		<path class="st16" d="M421.9,114.5c-0.2-0.1-0.4-0.2-0.7-0.2c-0.4,0-0.7,0.2-1,0.5s-0.4,0.9-0.4,1.5v2.9h-1.4v-6h1.4v1.2h0
			c0.1-0.4,0.3-0.8,0.6-1s0.6-0.4,0.9-0.4c0.2,0,0.4,0,0.6,0.1V114.5z"/>
		<path class="st16" d="M425.6,119.4c-0.9,0-1.7-0.3-2.2-0.8s-0.8-1.3-0.8-2.2c0-1,0.3-1.8,0.9-2.4s1.4-0.8,2.3-0.8
			c0.9,0,1.7,0.3,2.2,0.8s0.8,1.3,0.8,2.3c0,1-0.3,1.7-0.8,2.3S426.5,119.4,425.6,119.4z M425.6,114.2c-0.5,0-1,0.2-1.3,0.6
			s-0.5,0.9-0.5,1.5c0,0.6,0.2,1.1,0.5,1.5s0.7,0.5,1.3,0.5c0.5,0,0.9-0.2,1.2-0.5s0.4-0.9,0.4-1.5c0-0.7-0.1-1.2-0.4-1.5
			S426.2,114.2,425.6,114.2z"/>
		<path class="st16" d="M429.7,119v-1.3c0.5,0.4,1.1,0.6,1.7,0.6c0.8,0,1.2-0.2,1.2-0.7c0-0.1,0-0.3-0.1-0.3s-0.2-0.2-0.3-0.3
			s-0.3-0.1-0.4-0.2s-0.3-0.1-0.5-0.2c-0.2-0.1-0.5-0.2-0.7-0.3s-0.4-0.2-0.5-0.4s-0.2-0.3-0.3-0.5s-0.1-0.4-0.1-0.6
			c0-0.3,0.1-0.5,0.2-0.8s0.3-0.4,0.6-0.6s0.5-0.3,0.8-0.3s0.6-0.1,0.9-0.1c0.6,0,1.1,0.1,1.5,0.3v1.2c-0.4-0.3-0.9-0.4-1.5-0.4
			c-0.2,0-0.3,0-0.5,0.1s-0.3,0.1-0.4,0.1s-0.2,0.1-0.2,0.2s-0.1,0.2-0.1,0.3c0,0.1,0,0.2,0.1,0.3s0.1,0.2,0.2,0.2s0.2,0.1,0.4,0.2
			s0.3,0.1,0.5,0.2c0.3,0.1,0.5,0.2,0.7,0.3s0.4,0.2,0.5,0.4s0.3,0.3,0.3,0.5s0.1,0.4,0.1,0.6c0,0.3-0.1,0.6-0.2,0.8
			s-0.3,0.4-0.6,0.6s-0.5,0.3-0.8,0.3s-0.6,0.1-1,0.1C430.7,119.4,430.2,119.3,429.7,119z"/>
		<path class="st16" d="M437.9,119.4c-0.9,0-1.7-0.3-2.2-0.8s-0.8-1.3-0.8-2.2c0-1,0.3-1.8,0.9-2.4s1.4-0.8,2.3-0.8
			c0.9,0,1.7,0.3,2.2,0.8s0.8,1.3,0.8,2.3c0,1-0.3,1.7-0.8,2.3S438.8,119.4,437.9,119.4z M438,114.2c-0.5,0-1,0.2-1.3,0.6
			s-0.5,0.9-0.5,1.5c0,0.6,0.2,1.1,0.5,1.5s0.7,0.5,1.3,0.5c0.5,0,0.9-0.2,1.2-0.5s0.4-0.9,0.4-1.5c0-0.7-0.1-1.2-0.4-1.5
			S438.5,114.2,438,114.2z"/>
		<path class="st16" d="M445.8,111.5c-0.2-0.1-0.4-0.2-0.6-0.2c-0.7,0-1,0.4-1,1.1v0.8h1.4v1.1h-1.4v4.9h-1.4v-4.9h-1v-1.1h1v-1
			c0-0.6,0.2-1.1,0.6-1.5s0.9-0.5,1.6-0.5c0.3,0,0.6,0,0.8,0.1V111.5z"/>
		<path class="st16" d="M449.7,119.2c-0.3,0.1-0.6,0.2-1,0.2c-1.2,0-1.7-0.6-1.7-1.7v-3.4h-1v-1.1h1v-1.4l1.4-0.4v1.8h1.4v1.1h-1.4
			v3c0,0.4,0.1,0.6,0.2,0.8s0.3,0.2,0.6,0.2c0.2,0,0.4-0.1,0.6-0.2V119.2z"/>
		<path class="st16" d="M403.9,133.1c-0.9,0.5-1.8,0.7-2.9,0.7c-1.2,0-2.2-0.4-3-1.2s-1.2-1.8-1.2-3.1c0-1.3,0.4-2.4,1.3-3.2
			s1.9-1.3,3.2-1.3c0.9,0,1.7,0.1,2.4,0.4v1.4c-0.6-0.4-1.4-0.6-2.3-0.6c-0.9,0-1.6,0.3-2.2,0.9s-0.9,1.4-0.9,2.3
			c0,1,0.2,1.7,0.7,2.3s1.2,0.8,2,0.8c0.6,0,1.1-0.1,1.5-0.3v-2h-1.8v-1.2h3.2V133.1z"/>
		<path class="st16" d="M409,128.9c-0.2-0.1-0.4-0.2-0.7-0.2c-0.4,0-0.7,0.2-1,0.5s-0.4,0.9-0.4,1.5v2.9h-1.4v-6h1.4v1.2h0
			c0.1-0.4,0.3-0.8,0.6-1s0.6-0.4,0.9-0.4c0.2,0,0.4,0,0.6,0.1V128.9z"/>
		<path class="st16" d="M414.6,133.6h-1.3v-0.9h0c-0.4,0.7-1,1.1-1.8,1.1c-0.6,0-1.1-0.2-1.4-0.5s-0.5-0.7-0.5-1.3
			c0-1.1,0.7-1.8,2-2l1.8-0.3c0-0.9-0.4-1.3-1.2-1.3c-0.7,0-1.4,0.2-1.9,0.7v-1.2c0.6-0.4,1.4-0.6,2.2-0.6c1.5,0,2.3,0.7,2.3,2.2
			V133.6z M413.2,130.7l-1.3,0.2c-0.4,0.1-0.7,0.1-0.9,0.3s-0.3,0.4-0.3,0.7c0,0.3,0.1,0.5,0.3,0.6s0.4,0.2,0.7,0.2
			c0.4,0,0.8-0.1,1-0.4s0.4-0.7,0.4-1.1V130.7z"/>
		<path class="st16" d="M417.6,132.7L417.6,132.7l0,3.6h-1.4v-8.8h1.4v1.1h0c0.5-0.8,1.1-1.2,2-1.2c0.8,0,1.4,0.3,1.8,0.8
			s0.6,1.3,0.6,2.2c0,1-0.2,1.8-0.7,2.4s-1.1,0.9-2,0.9C418.6,133.8,418,133.4,417.6,132.7z M417.6,130.4v0.7c0,0.4,0.1,0.8,0.4,1.1
			s0.6,0.5,1.1,0.5c0.5,0,0.9-0.2,1.2-0.6s0.4-0.9,0.4-1.6c0-0.6-0.1-1.1-0.4-1.4s-0.6-0.5-1.1-0.5c-0.5,0-0.9,0.2-1.2,0.5
			S417.6,129.9,417.6,130.4z"/>
		<path class="st16" d="M428.8,133.6h-1.4v-3.3c0-1.2-0.4-1.8-1.2-1.8c-0.4,0-0.7,0.2-1,0.5s-0.4,0.8-0.4,1.3v3.2h-1.4v-8.9h1.4v3.9
			h0c0.5-0.8,1.1-1.1,1.9-1.1c1.3,0,2,0.8,2,2.4V133.6z"/>
		<path class="st16" d="M440.8,133.6h-1.5l-0.8-2.1h-3.3l-0.7,2.1h-1.5l3.1-8.4h1.6L440.8,133.6z M438.1,130.4L437,127
			c0-0.1-0.1-0.3-0.1-0.5h0c0,0.2-0.1,0.4-0.1,0.5l-1.2,3.4H438.1z"/>
		<path class="st16" d="M443.3,130.6v3h-1.4v-8.4h2.5c1,0,1.7,0.2,2.2,0.7s0.8,1.1,0.8,1.9s-0.3,1.5-0.8,2s-1.3,0.8-2.3,0.8H443.3z
			 M443.3,126.4v3.1h0.9c0.6,0,1.1-0.1,1.4-0.4s0.5-0.7,0.5-1.2c0-1-0.6-1.5-1.7-1.5H443.3z"/>
		<path class="st16" d="M450.4,133.6H449v-8.4h1.4V133.6z"/>
	</g>
	<g>
		<path class="st14" d="M189,5.3v5.7h-0.9V1h0.9v3.5c1.9,0.5,3.4,1.2,4.6,1.9l-0.5,0.9C192,6.5,190.6,5.9,189,5.3z"/>
		<path class="st14" d="M194.7,5.6h6.5v0.9h-6.5V5.6z"/>
		<path class="st14" d="M205.3,3c-0.6,1.3-1.3,2.5-2.2,3.5l-0.7-0.5c1.3-1.4,2.1-3,2.6-5l0.9,0.1c-0.1,0.3-0.2,0.7-0.3,1.1h4.2
			c-0.4,2.8-1.1,4.9-2.3,6.3c-0.9,1.1-2.2,2-3.8,2.7l-0.5-0.6c1.7-0.7,3-1.6,3.8-2.8c0.8-1.2,1.4-2.7,1.7-4.7H205.3z"/>
		<path class="st14" d="M212,2c1.1,0.6,2.1,1.2,2.8,1.8l-0.6,0.8c-0.7-0.6-1.6-1.2-2.8-1.9L212,2z M218,2.6l0.9,0.4
			c-0.4,2.1-1.1,3.7-2.2,5c-1.2,1.3-2.8,2.2-4.8,2.8l-0.4-0.8C215.2,9.1,217.4,6.6,218,2.6z"/>
		<path class="st14" d="M225,2.7c-0.2,2.7-0.6,4.8-1.3,6.3c-0.4,0.8-0.9,1.3-1.6,1.3c-0.6,0-1.1-0.3-1.4-0.9
			c-0.3-0.6-0.5-1.4-0.5-2.4c0-0.8,0.1-1.6,0.4-2.2c0.2-0.6,0.5-1.1,0.9-1.5c0.4-0.4,0.9-0.7,1.5-1c0.5-0.2,1.1-0.3,1.7-0.3
			c1.4,0,2.4,0.4,3,1.3c0.6,0.8,0.8,1.8,0.8,3.3c0,1.2-0.3,2.1-1,2.9c-0.6,0.8-1.6,1.3-2.8,1.5l-0.4-0.7c2.2-0.4,3.3-1.7,3.3-3.9
			c0-1.3-0.3-2.2-0.9-2.8C226.3,3,225.7,2.7,225,2.7z M224,2.8c-0.4,0-0.8,0.2-1.1,0.3c-0.3,0.2-0.6,0.4-0.9,0.8
			c-0.7,0.8-1,1.8-1,3.1c0,0.8,0.1,1.4,0.4,1.8c0.2,0.4,0.4,0.5,0.6,0.5c0.2,0,0.4-0.1,0.5-0.2c0.1-0.1,0.3-0.3,0.4-0.7
			C223.6,7.1,223.9,5.2,224,2.8z"/>
		<path class="st14" d="M235.5,1.8C235.5,1.9,235.5,1.9,235.5,1.8c-0.1,0.1-0.1,0.1-0.2,0.1c-0.3,0-0.5,0-0.8,0V10l0,1.3
			c0,0.1,0,0.1-0.1,0.1h-0.6c-0.1,0-0.1,0-0.1-0.1l0-1.3V8.8c-1,0.4-2.1,0.7-3.2,1c-0.3,0.1-0.4,0.1-0.5,0.2c0,0-0.1,0.1-0.2,0.1
			c0,0-0.1,0-0.1-0.1c-0.1-0.2-0.1-0.5-0.2-0.7c0.3,0,0.7-0.1,1-0.2l0.2,0V1.9c-0.3,0-0.5,0-0.7,0c-0.1,0-0.2,0-0.2,0
			c-0.1,0-0.1,0-0.1-0.1V1.3c0-0.1,0-0.1,0.1-0.1l1.5,0h2.4l1.5,0c0.1,0,0.1,0,0.1,0.1V1.8z M233.8,3.6V1.9h-2.2v1.8H233.8z
			 M233.8,6V4.3h-2.2V6H233.8z M233.8,8.1V6.6h-2.2v2.2C232.5,8.6,233.2,8.4,233.8,8.1z M240.9,10.6c-0.2,0.1-0.3,0.3-0.4,0.4
			c-0.1,0.1-0.1,0.1-0.1,0.1c0,0-0.1,0-0.2-0.1c-0.9-0.7-1.6-1.5-2.2-2.3c-0.7,0.9-1.5,1.6-2.6,2.4c-0.1,0.1-0.2,0.1-0.2,0.1
			s-0.1-0.1-0.2-0.2c-0.1-0.1-0.2-0.3-0.3-0.4c1.2-0.7,2.1-1.5,2.8-2.6c-0.8-1.4-1.4-3-1.6-4.9c-0.2,0-0.4,0-0.6,0
			c-0.1,0-0.2,0-0.2,0c-0.1,0-0.1,0-0.1-0.1V2.6c0-0.1,0-0.1,0.1-0.1l1.4,0h2.8c0.1,0,0.2,0,0.3,0c0,0,0.1,0,0.1,0
			c0.1,0,0.2,0.1,0.4,0.3c0.1,0.1,0.2,0.3,0.2,0.3c0,0,0,0.1-0.1,0.2c-0.1,0.1-0.1,0.2-0.1,0.5c-0.3,1.7-0.9,3.2-1.7,4.5
			C239,9,239.9,9.8,240.9,10.6z M239.4,3.2h-2.7c0.2,1.7,0.7,3.2,1.3,4.3C238.7,6.3,239.2,4.8,239.4,3.2z"/>
		<path class="st14" d="M244.9,3.7c0,0.1,0,0.1-0.1,0.1c-0.1,0.1-0.2,0.2-0.3,0.4c-0.1,0.3-0.3,0.6-0.6,0.9v4.6l0,1.6
			c0,0.1,0,0.1-0.1,0.1h-0.6c-0.1,0-0.1,0-0.1-0.1l0-1.6V7.6c0-0.1,0-0.6,0-1.5c-0.4,0.4-0.7,0.8-1.1,1.1c-0.1,0.1-0.1,0.1-0.2,0.1
			c0,0-0.1,0-0.1-0.1c-0.1-0.2-0.2-0.3-0.3-0.4c1-0.9,1.8-1.8,2.4-3c0.1-0.2,0.2-0.4,0.2-0.6c0.2,0.1,0.4,0.2,0.6,0.3
			C244.8,3.6,244.9,3.7,244.9,3.7z M244.8,1.2c0,0,0,0.1-0.1,0.1c-0.1,0.1-0.2,0.2-0.3,0.3c-0.6,0.8-1.3,1.6-2.1,2.2
			C242.1,3.9,242.1,4,242,4c0,0-0.1-0.1-0.2-0.2c-0.1-0.1-0.2-0.3-0.3-0.4c0.9-0.5,1.6-1.3,2.2-2.2c0.1-0.2,0.2-0.4,0.3-0.6
			c0.2,0.1,0.4,0.2,0.6,0.3C244.7,1.1,244.8,1.2,244.8,1.2z M252.2,7.9C252.2,8,252.2,8,252.2,7.9L250.5,8v0.8l0,1.5
			c0,0.4-0.1,0.6-0.3,0.8c-0.2,0.1-0.7,0.2-1.5,0.2c-0.1,0-0.2,0-0.2,0c0,0,0-0.1-0.1-0.2c-0.1-0.2-0.2-0.4-0.2-0.5
			c0.4,0,0.8,0.1,1.1,0.1c0.1,0,0.1,0,0.2,0c0.3,0,0.4-0.2,0.4-0.4V8h-3.4l-1.7,0c-0.1,0-0.1,0-0.1-0.1V7.4c0-0.1,0-0.1,0.1-0.1
			l1.7,0h3.4v-1h-3.3l-1.7,0c-0.1,0-0.1,0-0.1-0.1V5.8c0-0.1,0-0.1,0.1-0.1l1.7,0h3.9l1.7,0c0.1,0,0.1,0,0.1,0.1v0.5
			c0,0.1,0,0.1-0.1,0.1l-1.6,0v1l1.6,0c0.1,0,0.1,0,0.1,0.1V7.9z M251.1,4.8C251.1,4.9,251,4.9,251.1,4.8l-1.5,0.1h-2.1l-1.4,0
			c-0.1,0-0.1,0-0.1-0.1l0-1.1V2.3l0-1.1c0-0.1,0-0.1,0.1-0.1l1.4,0h2.1l1.4,0c0.1,0,0.1,0,0.1,0.1l0,1.1v1.4L251.1,4.8z M247.8,9.8
			C247.8,9.8,247.9,9.8,247.8,9.8c0,0.1,0,0.1-0.1,0.2l-0.3,0.2c-0.1,0.1-0.1,0.1-0.1,0.1s0,0-0.1-0.1c-0.3-0.5-0.7-0.9-1.2-1.3
			c0,0,0-0.1,0-0.1c0,0,0-0.1,0.1-0.1l0.3-0.2c0,0,0.1,0,0.1,0s0,0,0.1,0C247.1,8.9,247.5,9.3,247.8,9.8z M250.4,2.7v-1h-3.7v1
			H250.4z M250.4,4.3v-1h-3.7v1H250.4z"/>
	</g>
	<g>
		<path class="st14" d="M205.2,30.5h7.8c-0.1,1.1-0.4,2-0.7,2.7c-0.3,0.7-0.8,1.3-1.4,1.8l-0.7-0.6c0.5-0.4,0.9-0.9,1.3-1.5
			c0.3-0.5,0.5-1,0.5-1.6h-6.7V30.5z M205.6,39.2c1-0.5,1.8-1.1,2.2-1.8c0.4-0.8,0.7-1.8,0.7-3.2v-1.9h0.9v1.9c0,1.6-0.3,2.9-1,3.8
			c-0.5,0.7-1.2,1.3-2.2,1.8L205.6,39.2z"/>
		<path class="st14" d="M217.3,31.9c-0.6,1.3-1.3,2.5-2.2,3.5l-0.7-0.5c1.3-1.4,2.1-3,2.6-5l0.9,0.1c-0.1,0.3-0.2,0.7-0.3,1.1h4.2
			c-0.4,2.8-1.1,4.9-2.3,6.3c-0.9,1.1-2.2,2-3.8,2.7l-0.5-0.6c1.7-0.7,3-1.6,3.8-2.8c0.8-1.2,1.4-2.7,1.7-4.7H217.3z"/>
		<path class="st14" d="M225.5,32.7v-2.8h0.9v2.6l4.6-1l0.5,0.6c-0.6,1.8-1.5,3.3-2.5,4.5l-0.8-0.5c1.1-1.3,1.8-2.5,2.2-3.7l-4,0.9
			v4.3c0,0.5,0.1,0.9,0.4,1c0.2,0.1,0.7,0.2,1.5,0.2c0.9,0,1.8,0,2.8-0.1v0.9c-0.9,0.1-1.8,0.1-3,0.1c-1.1,0-1.8-0.2-2.2-0.5
			c-0.3-0.3-0.4-0.8-0.4-1.5v-4.1l-2,0.5l-0.2-0.8L225.5,32.7z"/>
		<path class="st14" d="M237.6,36c-1,1.6-2.5,2.9-4.3,3.8l-0.5-0.7c1.7-0.9,3-2,3.9-3.4c0.8-1.2,1.4-2.6,1.8-4.3h-5v-0.8h6.2
			c-0.4,1.8-0.9,3.3-1.6,4.6c1.1,1.3,2,2.6,2.8,4l-0.9,0.6C239.3,38.5,238.5,37.3,237.6,36z"/>
		<path class="st14" d="M247.6,34.2v5.7h-0.9V29.9h0.9v3.5c1.9,0.5,3.4,1.2,4.6,1.9l-0.5,0.9C250.7,35.4,249.3,34.8,247.6,34.2z"/>
		<path class="st14" d="M253.3,34.5h6.5v0.9h-6.5V34.5z"/>
		<path class="st14" d="M264,31.9c-0.6,1.3-1.3,2.5-2.2,3.5l-0.7-0.5c1.3-1.4,2.1-3,2.6-5l0.9,0.1c-0.1,0.3-0.2,0.7-0.3,1.1h4.2
			c-0.4,2.8-1.1,4.9-2.3,6.3c-0.9,1.1-2.2,2-3.8,2.7l-0.5-0.6c1.7-0.7,3-1.6,3.8-2.8c0.8-1.2,1.4-2.7,1.7-4.7H264z"/>
		<path class="st14" d="M270.7,30.9c1.1,0.6,2.1,1.2,2.8,1.8l-0.6,0.8c-0.7-0.6-1.6-1.2-2.8-1.9L270.7,30.9z M276.7,31.5l0.9,0.4
			c-0.4,2.1-1.1,3.7-2.2,5c-1.2,1.3-2.8,2.2-4.8,2.8l-0.4-0.8C274,37.9,276.1,35.5,276.7,31.5z"/>
	</g>
	<g>
		<path class="st14" d="M193.3,135.4h-1v-3.8H188v3.8h-1V127h1v3.7h4.3V127h1V135.4z"/>
		<path class="st14" d="M200.5,127.9H198v7.5h-1v-7.5h-2.4V127h5.8V127.9z"/>
		<path class="st14" d="M206.7,127.9h-2.4v7.5h-1v-7.5h-2.4V127h5.8V127.9z"/>
		<path class="st14" d="M209,132.3v3.2h-1V127h2.3c0.9,0,1.6,0.2,2.1,0.7s0.7,1.1,0.7,1.9s-0.3,1.4-0.8,2s-1.3,0.8-2.2,0.8H209z
			 M209,127.9v3.4h1c0.7,0,1.2-0.2,1.6-0.5s0.5-0.7,0.5-1.3c0-1.1-0.7-1.7-2-1.7H209z"/>
		<path class="st14" d="M227.9,127.7C227.9,127.7,227.8,127.8,227.9,127.7l-1.8,0.1h-6.8v1.6c0,1.3-0.1,2.5-0.2,3.4
			c-0.2,1.1-0.5,2.2-1,3.1c0,0.1-0.1,0.1-0.1,0.1c0,0-0.1,0-0.2-0.1c-0.1-0.1-0.3-0.3-0.5-0.4c0.5-0.8,0.9-1.8,1-3
			c0.1-0.8,0.2-1.8,0.2-3.3l0-2.1c0-0.1,0-0.1,0.1-0.1l1.7,0h2.4v-0.8c0-0.4,0-0.7-0.1-1c0.3,0,0.6,0,0.8,0.1c0.1,0,0.1,0,0.1,0.1
			c0,0,0,0.1-0.1,0.2c0,0.1-0.1,0.3-0.1,0.6v0.8h2.6l1.7,0c0.1,0,0.1,0,0.1,0.1V127.7z M221.2,131.5c-0.2,1.2-0.6,2.3-1.1,3.2
			c0,0,0,0.1-0.1,0.1c0,0-0.1,0-0.1-0.1l-0.4-0.2c-0.1,0-0.1-0.1-0.1-0.1c0,0,0,0,0-0.1c0.5-0.9,0.8-1.9,1-3c0-0.1,0-0.1,0.1-0.1
			c0,0,0.1,0,0.1,0l0.3,0.1C221.2,131.4,221.2,131.4,221.2,131.5C221.2,131.4,221.2,131.5,221.2,131.5z M226.3,134
			c0,0.6-0.1,1-0.2,1.2c-0.1,0.2-0.2,0.3-0.4,0.5c-0.3,0.2-0.8,0.3-1.6,0.3c-0.9,0-1.4-0.1-1.7-0.3c-0.2-0.2-0.3-0.5-0.3-1V132
			c0-0.7,0-1.2-0.1-1.5c0.3,0,0.6,0,0.8,0.1c0.1,0,0.2,0.1,0.2,0.1c0,0,0,0.1-0.1,0.2c0,0.1-0.1,0.5-0.1,1.1v2.3c0,0.4,0,0.6,0,0.6
			c0,0.1,0.1,0.2,0.2,0.3c0.1,0.1,0.5,0.2,1.1,0.2c0.6,0,1-0.1,1.2-0.2c0.1-0.1,0.2-0.3,0.3-0.6c0-0.2,0.1-0.6,0.1-1.1
			c0.1,0.1,0.3,0.2,0.5,0.2c0.1,0,0.2,0.1,0.2,0.2C226.3,133.9,226.3,134,226.3,134z M225.1,129.9
			C225.1,129.9,225.1,129.9,225.1,129.9c0.1,0.1,0,0.1,0,0.2l-0.3,0.3c-0.1,0.1-0.1,0.1-0.1,0.1c0,0,0,0-0.1,0
			c-0.7-0.6-1.4-1.2-2.3-1.6c0,0,0,0,0,0c0,0,0-0.1,0.1-0.1l0.2-0.3c0.1-0.1,0.1-0.1,0.1-0.1c0,0,0,0,0.1,0
			C223.6,128.8,224.4,129.3,225.1,129.9z M228.1,134.2C228.1,134.2,228.1,134.2,228.1,134.2c0,0.1,0,0.1-0.2,0.2l-0.3,0.2
			c-0.1,0-0.1,0.1-0.2,0.1c0,0,0,0-0.1-0.1c-0.3-1.1-0.7-2.2-1.2-3.1c0,0,0,0,0-0.1c0,0,0-0.1,0.1-0.1l0.3-0.1
			c0.1,0,0.1-0.1,0.1-0.1s0,0,0.1,0.1C227.3,132.1,227.8,133.1,228.1,134.2z"/>
		<path class="st14" d="M240.4,131.4c-0.1,0.1-0.3,0.3-0.4,0.5c-0.1,0.1-0.1,0.2-0.2,0.2c0,0-0.1,0-0.2,0c-1.1-0.3-2.1-0.7-3-1.3
			c-0.8-0.5-1.5-1-2-1.5c-1.2,1.2-2.8,2.2-4.8,2.9c-0.1,0-0.2,0.1-0.2,0.1c0,0-0.1-0.1-0.2-0.2c-0.1-0.2-0.2-0.3-0.3-0.4
			c2.1-0.6,3.7-1.5,4.8-2.6c0.2-0.2,0.3-0.4,0.4-0.5c0.3,0,0.5,0.1,0.7,0.2c0.1,0,0.2,0.1,0.2,0.1c0,0.1,0,0.1-0.1,0.1l-0.1,0
			c0.6,0.6,1.4,1.2,2.4,1.6C238.4,130.9,239.4,131.2,240.4,131.4z M234.6,127.2c0,0.1,0,0.1-0.1,0.1l-1.2,0h-0.5
			c0.3,0.5,0.5,0.9,0.7,1.4c0,0,0,0,0,0c0,0,0,0.1-0.1,0.1l-0.4,0.1c-0.1,0-0.1,0-0.1,0c0,0-0.1,0-0.1-0.1c-0.2-0.6-0.4-1.1-0.7-1.6
			h-0.8c-0.3,0.5-0.7,0.9-1.1,1.3c-0.1,0.1-0.2,0.1-0.2,0.1c0,0-0.1,0-0.2-0.1c-0.1-0.1-0.2-0.2-0.4-0.3c0.7-0.6,1.3-1.4,1.8-2.4
			c0.1-0.2,0.1-0.3,0.2-0.6c0.3,0.1,0.5,0.1,0.7,0.2c0.1,0,0.1,0.1,0.1,0.1c0,0,0,0.1-0.1,0.2c0,0-0.1,0.1-0.2,0.3
			c0,0-0.1,0.1-0.2,0.3c-0.1,0.1-0.1,0.2-0.1,0.2h1.7l1.2,0c0.1,0,0.1,0,0.1,0.1V127.2z M238.2,136.1
			C238.2,136.1,238.2,136.2,238.2,136.1l-0.7,0.1c-0.1,0-0.1,0-0.1-0.1v-0.4h-5.3v0.5c0,0.1,0,0.1-0.1,0.1h-0.6
			c-0.1,0-0.1,0-0.1-0.1l0-1.7v-0.7l0-1c0-0.1,0-0.1,0.1-0.1l1.6,0h3.3l1.6,0c0.1,0,0.1,0,0.1,0.1l0,0.9v0.8L238.2,136.1z
			 M237.4,135v-1.7h-5.3v1.7H237.4z M237,131.7C237,131.7,237,131.7,237,131.7l-1.4,0.1h-1.6l-1.3,0c-0.1,0-0.1,0-0.1-0.1v-0.5
			c0-0.1,0-0.1,0.1-0.1l1.3,0h1.6l1.3,0c0.1,0,0.1,0,0.1,0.1V131.7z M240,127.2c0,0.1,0,0.1-0.1,0.1l-1.5,0h-1
			c0.2,0.4,0.4,0.9,0.6,1.3c0,0,0,0,0,0c0,0,0,0.1-0.1,0.1l-0.4,0.1c-0.1,0-0.1,0-0.1,0c0,0-0.1,0-0.1-0.1c-0.2-0.6-0.4-1.1-0.7-1.6
			h-1c-0.2,0.3-0.4,0.6-0.6,0.9c-0.1,0.1-0.1,0.1-0.2,0.1c0,0-0.1,0-0.2-0.1c-0.1-0.1-0.2-0.2-0.4-0.2c0.5-0.5,0.9-1.2,1.2-1.9
			c0.1-0.2,0.1-0.4,0.1-0.5c0.3,0.1,0.5,0.1,0.7,0.2c0.1,0,0.1,0.1,0.1,0.1c0,0.1,0,0.1-0.1,0.2c0,0-0.1,0.1-0.2,0.3
			c-0.1,0.2-0.1,0.3-0.2,0.4h2.4l1.5,0c0.1,0,0.1,0,0.1,0.1V127.2z"/>
	</g>
</g>
</svg>
