<svg id="Capa_1" data-name="Capa 1" xmlns="http://www.w3.org/2000/svg" width="167" height="34" viewBox="0 0 167 34"><defs><style>.cls-1{fill:#0078d4;}.cls-2{fill:#fff;}</style></defs><rect class="cls-1" width="167" height="34" rx="4"/><path class="cls-2" d="M13.11,27H33.94L22.72,7.48,19.3,16.91l6.57,7.83ZM21.83,6l-8,6.75L6.94,24.69h6.19Z"/><path class="cls-2" d="M44.65,13.72V3.91h2.83c3.62,0,5.42,1.6,5.42,4.78a4.73,4.73,0,0,1-1.5,3.65,5.73,5.73,0,0,1-4,1.38Zm1.62-8.43v7.05h1.3a3.62,3.62,0,0,0,2.67-.94,3.57,3.57,0,0,0,.95-2.67c0-2.29-1.18-3.44-3.56-3.44Z"/><path class="cls-2" d="M60.44,10.65H55.67a2,2,0,0,0,.6,1.49,2.23,2.23,0,0,0,1.57.53A3.45,3.45,0,0,0,59.9,12v1.28a4.71,4.71,0,0,1-2.53.6,3.17,3.17,0,0,1-2.43-1,3.85,3.85,0,0,1-.87-2.69,3.75,3.75,0,0,1,1-2.66,3.17,3.17,0,0,1,2.41-1,2.79,2.79,0,0,1,2.22.92A3.87,3.87,0,0,1,60.44,10ZM58.91,9.53a2,2,0,0,0-.4-1.33,1.35,1.35,0,0,0-1.09-.48,1.54,1.54,0,0,0-1.16.5,2.24,2.24,0,0,0-.59,1.31Z"/><path class="cls-2" d="M63.57,12.68h0v4.26H62V6.72h1.59V8h0A2.6,2.6,0,0,1,66,6.55,2.48,2.48,0,0,1,68,7.49,3.89,3.89,0,0,1,68.77,10a4.39,4.39,0,0,1-.84,2.81,2.79,2.79,0,0,1-2.3,1A2.28,2.28,0,0,1,63.57,12.68Zm0-2.76v.87a1.85,1.85,0,0,0,.49,1.3,1.72,1.72,0,0,0,2.62-.16,3.12,3.12,0,0,0,.5-1.91,2.48,2.48,0,0,0-.47-1.62,1.52,1.52,0,0,0-1.26-.58,1.72,1.72,0,0,0-1.37.6A2.24,2.24,0,0,0,63.53,9.92Z"/><path class="cls-2" d="M72,13.72H70.39V3.35H72Z"/><path class="cls-2" d="M77.15,13.88a3.5,3.5,0,0,1-2.59-1,3.55,3.55,0,0,1-1-2.6,3.7,3.7,0,0,1,1-2.76,3.73,3.73,0,0,1,2.72-1,3.33,3.33,0,0,1,2.56,1,3.71,3.71,0,0,1,.91,2.67,3.7,3.7,0,0,1-1,2.68A3.57,3.57,0,0,1,77.15,13.88Zm.08-6.06a1.79,1.79,0,0,0-1.47.65,2.71,2.71,0,0,0-.54,1.79A2.58,2.58,0,0,0,75.76,12a1.85,1.85,0,0,0,1.47.63A1.74,1.74,0,0,0,78.67,12a2.78,2.78,0,0,0,.5-1.77,2.79,2.79,0,0,0-.5-1.78A1.75,1.75,0,0,0,77.23,7.82Z"/><path class="cls-2" d="M88.47,6.72l-3.16,8.12C84.66,16.29,83.74,17,82.55,17a3.23,3.23,0,0,1-.83-.09V15.6a2.31,2.31,0,0,0,.68.13,1.44,1.44,0,0,0,1.33-.88l.47-1.15-2.78-7h1.75l1.67,5.08c0,.07.06.23.12.51h0c0-.11.06-.27.12-.49l1.75-5.1Z"/><path class="cls-2" d="M97.06,13.64a2.65,2.65,0,0,1-1.22.23q-2,0-2-1.95V8H92.63V6.72H93.8V5.1l1.59-.46V6.72h1.67V8H95.39v3.5a1.38,1.38,0,0,0,.22.89,1,1,0,0,0,.76.27,1.05,1.05,0,0,0,.69-.24Z"/><path class="cls-2" d="M101.53,13.88a3.46,3.46,0,0,1-2.58-1,3.52,3.52,0,0,1-1-2.6,3.7,3.7,0,0,1,1-2.76,3.71,3.71,0,0,1,2.72-1,3.32,3.32,0,0,1,2.55,1,3.72,3.72,0,0,1,.92,2.67,3.66,3.66,0,0,1-1,2.68A3.56,3.56,0,0,1,101.53,13.88Zm.08-6.06a1.79,1.79,0,0,0-1.47.65,2.71,2.71,0,0,0-.54,1.79,2.53,2.53,0,0,0,.55,1.73,1.83,1.83,0,0,0,1.46.63,1.74,1.74,0,0,0,1.44-.62,2.78,2.78,0,0,0,.5-1.77,2.79,2.79,0,0,0-.5-1.78A1.75,1.75,0,0,0,101.61,7.82Z"/><path class="cls-2" d="M118.87,13.72h-1.78l-.89-2.5h-3.85l-.85,2.5h-1.78l3.67-9.81h1.84Zm-3.1-3.83L114.41,6a5.31,5.31,0,0,1-.13-.61h0a5.22,5.22,0,0,1-.14.61l-1.35,3.91Z"/><path class="cls-2" d="M125.21,7.38l-3.78,5.1h3.76v1.24h-6v-.6L123.07,8h-3.5V6.72h5.64Z"/><path class="cls-2" d="M132.64,13.72h-1.58V12.61h0a2.27,2.27,0,0,1-2.15,1.27c-1.65,0-2.48-1-2.48-3V6.72H128v4c0,1.25.48,1.88,1.46,1.88a1.44,1.44,0,0,0,1.15-.52,2,2,0,0,0,.46-1.36v-4h1.58Z"/><path class="cls-2" d="M138.77,8.23a1.32,1.32,0,0,0-.83-.23,1.39,1.39,0,0,0-1.17.64,2.8,2.8,0,0,0-.48,1.73v3.35h-1.58v-7h1.58V8.16h0A2.47,2.47,0,0,1,137,7a1.59,1.59,0,0,1,1.07-.42,1.42,1.42,0,0,1,.66.13Z"/><path class="cls-2" d="M145.82,10.65h-4.77a2,2,0,0,0,.59,1.49,2.24,2.24,0,0,0,1.57.53,3.43,3.43,0,0,0,2.06-.67v1.28a4.71,4.71,0,0,1-2.53.6,3.13,3.13,0,0,1-2.42-1,3.81,3.81,0,0,1-.88-2.69,3.71,3.71,0,0,1,1-2.66,3.13,3.13,0,0,1,2.4-1,2.76,2.76,0,0,1,2.22.92,3.82,3.82,0,0,1,.79,2.57Zm-1.53-1.12a2,2,0,0,0-.41-1.33,1.33,1.33,0,0,0-1.09-.48,1.55,1.55,0,0,0-1.16.5,2.24,2.24,0,0,0-.58,1.31Z"/><path class="cls-2" d="M48,31.94H46.61a8.62,8.62,0,0,1-2.16-6,9,9,0,0,1,2.16-6.07H48A9.3,9.3,0,0,0,45.84,26,9.12,9.12,0,0,0,48,31.94Z"/><path class="cls-2" d="M57.35,29.72H55.57l-.88-2.5H50.83L50,29.72H48.21l3.67-9.81h1.83Zm-3.09-3.83L52.9,22a3.76,3.76,0,0,1-.13-.61h0a3.75,3.75,0,0,1-.14.61l-1.34,3.91Z"/><path class="cls-2" d="M63.69,23.38l-3.78,5.1h3.77v1.24h-6v-.6L61.55,24H58.06V22.72h5.63Z"/><path class="cls-2" d="M71.13,29.72H69.54V28.61h0a2.27,2.27,0,0,1-2.14,1.27c-1.66,0-2.48-1-2.48-3V22.72h1.58v4c0,1.25.49,1.88,1.46,1.88a1.47,1.47,0,0,0,1.16-.52,2,2,0,0,0,.45-1.36v-4h1.59Z"/><path class="cls-2" d="M77.25,24.23a1.29,1.29,0,0,0-.82-.23,1.41,1.41,0,0,0-1.18.64,2.87,2.87,0,0,0-.47,1.73v3.35H73.19v-7h1.59v1.44h0A2.38,2.38,0,0,1,75.52,23a1.6,1.6,0,0,1,1.08-.42,1.41,1.41,0,0,1,.65.13Z"/><path class="cls-2" d="M84.3,26.65H79.53a2,2,0,0,0,.6,1.49,2.23,2.23,0,0,0,1.57.53,3.42,3.42,0,0,0,2-.67v1.28a4.69,4.69,0,0,1-2.53.6,3.15,3.15,0,0,1-2.42-.95,3.85,3.85,0,0,1-.88-2.69,3.75,3.75,0,0,1,1-2.66,3.16,3.16,0,0,1,2.4-1,2.76,2.76,0,0,1,2.22.92A3.82,3.82,0,0,1,84.3,26Zm-1.53-1.12a2.09,2.09,0,0,0-.4-1.33,1.35,1.35,0,0,0-1.1-.48,1.57,1.57,0,0,0-1.16.5,2.3,2.3,0,0,0-.58,1.31Z"/><path class="cls-2" d="M90.36,27.31l-1.24-1A60.38,60.38,0,0,0,92,20.66a1.18,1.18,0,0,1,1.15-.75,1.24,1.24,0,0,1,1.09.63C95.6,22.63,96.51,24,97,24.71A33.15,33.15,0,0,0,99.8,28l-1.1,1.46c-1.34-1.73-2.23-2.92-2.69-3.57q-1.22-1.74-2.4-3.75c-.14-.25-.27-.37-.37-.37s-.26.13-.37.38C92.15,23.84,91.32,25.55,90.36,27.31Z"/><path class="cls-2" d="M106.8,20.62a21.08,21.08,0,0,1-1.36,7.09,3.27,3.27,0,0,1-1.06,1.45,2,2,0,0,1-1.16.33,2,2,0,0,1-1.76-1.13,5.6,5.6,0,0,1-.6-2.8A6.35,6.35,0,0,1,102.45,21a4.67,4.67,0,0,1,1.78-1.18,5.6,5.6,0,0,1,2-.37Q111,19.48,111,25q0,4.29-4.56,5.31l-.73-1.19a4.78,4.78,0,0,0,3-1.64,4.48,4.48,0,0,0,.71-2.68,5.06,5.06,0,0,0-.89-3.28A2.38,2.38,0,0,0,106.8,20.62Zm-1.45.09a3.11,3.11,0,0,0-2.09,1.34,5.68,5.68,0,0,0-1,3.56,4.18,4.18,0,0,0,.35,1.92.77.77,0,0,0,.66.5.72.72,0,0,0,.54-.22,2.17,2.17,0,0,0,.39-.74A18.8,18.8,0,0,0,105,24,24,24,0,0,0,105.35,20.71Z"/><path class="cls-2" d="M116.33,23.5h-4.22V22.22h9.28V23.5h-3.5a15.21,15.21,0,0,1-.26,2.9,5.21,5.21,0,0,1-.59,1.47,5.49,5.49,0,0,1-1.29,1.46A8.81,8.81,0,0,1,114,30.39l-1.06-1.15a5,5,0,0,0,2.82-2.2,4.34,4.34,0,0,0,.48-1.36A14.2,14.2,0,0,0,116.33,23.5Zm-3.39-4.33h6v1.28h-6Zm6.13-1,.91-.26a14.29,14.29,0,0,1,1,2.32l-.94.33A12.7,12.7,0,0,0,119.07,18.19Zm1.65-.4.9-.28a13.6,13.6,0,0,1,1,2.23l-.92.33A13.81,13.81,0,0,0,120.72,17.79Z"/><path class="cls-2" d="M130.35,19.52a1.63,1.63,0,0,1,.44-1.7,1.56,1.56,0,0,1,1.07-.41,1.59,1.59,0,0,1,1.06,2.78,1.49,1.49,0,0,1-1.06.41,1.61,1.61,0,0,1-.39,0q-.19,4.46-2,6.73a10.29,10.29,0,0,1-4.71,3.1l-.87-1.23a8.43,8.43,0,0,0,4.53-3.11,9.72,9.72,0,0,0,1.36-5.19h-6.4V19.52Zm1.51-1.43A.88.88,0,0,0,131,19a.87.87,0,0,0,.91.91.86.86,0,0,0,.68-.29.9.9,0,0,0,.23-.62.92.92,0,0,0-.91-.91Z"/><path class="cls-2" d="M134.57,29.7V19.58h7.71V29.7Zm6.14-1.32V20.9h-4.59v7.48Z"/><path class="cls-2" d="M147.1,23.39a32.89,32.89,0,0,1-3.59,2.27l-.89-1.22a23.06,23.06,0,0,0,4.5-2.91A14.42,14.42,0,0,0,150,18.36l1.44.88a23,23,0,0,1-2.77,2.87v8.22H147.1Z"/><path class="cls-2" d="M152.39,31.94h-1.34a9,9,0,0,0,2.12-6,9.3,9.3,0,0,0-2.12-6.05h1.35A9,9,0,0,1,154.57,26,8.59,8.59,0,0,1,152.39,31.94Z"/></svg>