<svg id="Capa_1" data-name="Capa 1" xmlns="http://www.w3.org/2000/svg" viewBox="0 0 167 34"><defs><style>.cls-1{fill:#0078d4;}.cls-2{fill:#fff;}</style></defs><title>OJ105266021</title><rect class="cls-1" width="167" height="34" rx="4"/><path class="cls-2" d="M13.11,27H33.94L22.72,7.48,19.3,16.91l6.57,7.83ZM21.83,6l-8,6.75L6.94,24.69h6.19Z"/><path class="cls-2" d="M42.3,13.72V3.21h3q5.81,0,5.81,5.12a5.06,5.06,0,0,1-1.61,3.91,6.2,6.2,0,0,1-4.33,1.48Zm1.73-9v7.55h1.39a3.86,3.86,0,0,0,2.86-1,3.83,3.83,0,0,0,1-2.85c0-2.46-1.28-3.69-3.82-3.69Z"/><path class="cls-2" d="M59.22,10.43H54.1a2.18,2.18,0,0,0,.64,1.6,2.37,2.37,0,0,0,1.68.56,3.69,3.69,0,0,0,2.21-.71v1.37a5,5,0,0,1-2.71.64,3.37,3.37,0,0,1-2.6-1A4.12,4.12,0,0,1,52.38,10a4,4,0,0,1,1-2.86A3.4,3.4,0,0,1,56,6a3,3,0,0,1,2.38,1,4.11,4.11,0,0,1,.85,2.75Zm-1.65-1.2a2.14,2.14,0,0,0-.43-1.43A1.43,1.43,0,0,0,56,7.29a1.64,1.64,0,0,0-1.24.54,2.43,2.43,0,0,0-.63,1.4Z"/><path class="cls-2" d="M62.56,12.61h0v4.56h-1.7v-11h1.7V7.53h0A2.79,2.79,0,0,1,65.11,6a2.71,2.71,0,0,1,2.23,1,4.23,4.23,0,0,1,.8,2.7,4.66,4.66,0,0,1-.9,3,3,3,0,0,1-2.47,1.13A2.46,2.46,0,0,1,62.56,12.61Zm0-3v.93A2,2,0,0,0,63,12a1.85,1.85,0,0,0,2.81-.16,3.43,3.43,0,0,0,.54-2.06A2.68,2.68,0,0,0,65.89,8a1.64,1.64,0,0,0-1.36-.62A1.83,1.83,0,0,0,63.07,8,2.38,2.38,0,0,0,62.52,9.65Z"/><path class="cls-2" d="M71.58,13.72H69.87V2.61h1.71Z"/><path class="cls-2" d="M77.12,13.89a3.73,3.73,0,0,1-2.78-1.05,3.8,3.8,0,0,1-1-2.79,4,4,0,0,1,1.08-3A4,4,0,0,1,77.3,6a3.6,3.6,0,0,1,2.74,1,4,4,0,0,1,1,2.87A3.91,3.91,0,0,1,80,12.81,3.78,3.78,0,0,1,77.12,13.89ZM77.2,7.4a2,2,0,0,0-1.58.69A2.93,2.93,0,0,0,75,10a2.75,2.75,0,0,0,.59,1.86,2,2,0,0,0,1.57.67,1.87,1.87,0,0,0,1.54-.66,3,3,0,0,0,.54-1.9,3,3,0,0,0-.54-1.91A1.85,1.85,0,0,0,77.2,7.4Z"/><path class="cls-2" d="M89.25,6.22l-3.39,8.7c-.7,1.55-1.69,2.33-3,2.33a3.7,3.7,0,0,1-.89-.1V15.74a2.3,2.3,0,0,0,.73.13,1.5,1.5,0,0,0,1.42-.94l.51-1.23-3-7.48h1.88l1.79,5.45c0,.06.06.24.13.54h0c0-.12.07-.29.14-.53l1.87-5.46Z"/><path class="cls-2" d="M98.45,13.64a3,3,0,0,1-1.31.24c-1.45,0-2.18-.69-2.18-2.09V7.55H93.71V6.22H95V4.48L96.66,4V6.22h1.79V7.55H96.66V11.3a1.49,1.49,0,0,0,.24.95,1,1,0,0,0,.81.29,1.2,1.2,0,0,0,.74-.25Z"/><path class="cls-2" d="M103.24,13.89a3.71,3.71,0,0,1-2.77-1.05,3.8,3.8,0,0,1-1-2.79,4,4,0,0,1,1.08-3A4,4,0,0,1,103.42,6a3.57,3.57,0,0,1,2.74,1,4,4,0,0,1,1,2.87,4,4,0,0,1-1.06,2.87A3.82,3.82,0,0,1,103.24,13.89Zm.08-6.49a1.94,1.94,0,0,0-1.57.69,2.88,2.88,0,0,0-.58,1.92,2.74,2.74,0,0,0,.58,1.86,2,2,0,0,0,1.57.67,1.87,1.87,0,0,0,1.54-.66,3,3,0,0,0,.54-1.9,3,3,0,0,0-.54-1.91A1.85,1.85,0,0,0,103.32,7.4Z"/><path class="cls-2" d="M121.81,13.72H119.9L119,11h-4.13l-.91,2.68H112L116,3.21h2Zm-3.31-4.1L117,5.43a5.29,5.29,0,0,1-.14-.66h0a3.27,3.27,0,0,1-.15.66l-1.44,4.19Z"/><path class="cls-2" d="M128.6,6.93l-4,5.46h4v1.33h-6.42v-.64l4.14-5.54h-3.74V6.22h6Z"/><path class="cls-2" d="M136.57,13.72h-1.69V12.53h0a2.45,2.45,0,0,1-2.3,1.36c-1.78,0-2.66-1.06-2.66-3.19V6.22h1.7v4.3c0,1.35.52,2,1.56,2a1.58,1.58,0,0,0,1.24-.55,2.16,2.16,0,0,0,.49-1.46V6.22h1.69Z"/><path class="cls-2" d="M143.14,7.83a1.43,1.43,0,0,0-.89-.24,1.53,1.53,0,0,0-1.26.68,3.06,3.06,0,0,0-.51,1.86v3.59h-1.69V6.22h1.69V7.76h0a2.63,2.63,0,0,1,.77-1.23,1.7,1.7,0,0,1,1.15-.45,1.51,1.51,0,0,1,.71.14Z"/><path class="cls-2" d="M150.69,10.43h-5.11a2.1,2.1,0,0,0,.64,1.6,2.34,2.34,0,0,0,1.68.56,3.68,3.68,0,0,0,2.2-.71v1.37a5,5,0,0,1-2.71.64,3.37,3.37,0,0,1-2.6-1,4.12,4.12,0,0,1-.94-2.87,4,4,0,0,1,1-2.86A3.4,3.4,0,0,1,147.46,6a3,3,0,0,1,2.38,1,4.06,4.06,0,0,1,.85,2.75Zm-1.64-1.2a2.2,2.2,0,0,0-.44-1.43,1.43,1.43,0,0,0-1.17-.51,1.64,1.64,0,0,0-1.24.54,2.36,2.36,0,0,0-.62,1.4Z"/><path class="cls-2" d="M45.83,32.1H44.4a9.25,9.25,0,0,1-2.32-6.39,9.64,9.64,0,0,1,2.32-6.5h1.44a10,10,0,0,0-2.27,6.48A9.78,9.78,0,0,0,45.83,32.1Z"/><path class="cls-2" d="M55.9,29.72H54L53.05,27H48.92L48,29.72H46.1L50,19.21h2Zm-3.31-4.1-1.46-4.19a5.29,5.29,0,0,1-.14-.66h0a3.27,3.27,0,0,1-.15.66l-1.44,4.19Z"/><path class="cls-2" d="M62.69,22.93l-4,5.46h4v1.33H56.26v-.64l4.14-5.54H56.66V22.22h6Z"/><path class="cls-2" d="M70.66,29.72H69V28.53h0a2.44,2.44,0,0,1-2.3,1.36c-1.77,0-2.65-1.06-2.65-3.19V22.22h1.7v4.3c0,1.35.52,2,1.56,2A1.58,1.58,0,0,0,68.48,28,2.16,2.16,0,0,0,69,26.53V22.22h1.7Z"/><path class="cls-2" d="M77.23,23.83a1.45,1.45,0,0,0-.89-.24,1.53,1.53,0,0,0-1.26.68,3.06,3.06,0,0,0-.51,1.86v3.59H72.88v-7.5h1.69v1.54h0a2.63,2.63,0,0,1,.77-1.23,1.7,1.7,0,0,1,1.15-.45,1.51,1.51,0,0,1,.71.14Z"/><path class="cls-2" d="M84.78,26.43H79.66A2.18,2.18,0,0,0,80.3,28a2.38,2.38,0,0,0,1.69.56,3.68,3.68,0,0,0,2.2-.71v1.37a5,5,0,0,1-2.71.64,3.37,3.37,0,0,1-2.6-1A4.12,4.12,0,0,1,77.94,26a4,4,0,0,1,1-2.86A3.4,3.4,0,0,1,81.55,22a3,3,0,0,1,2.38,1,4.06,4.06,0,0,1,.85,2.75Zm-1.64-1.2a2.2,2.2,0,0,0-.44-1.43,1.43,1.43,0,0,0-1.17-.51,1.64,1.64,0,0,0-1.24.54,2.43,2.43,0,0,0-.63,1.4Z"/><path class="cls-2" d="M91.27,27.14l-1.33-1A63,63,0,0,0,93.05,20a1.26,1.26,0,0,1,1.23-.8,1.35,1.35,0,0,1,1.17.67q2.14,3.36,3,4.47a34.27,34.27,0,0,0,3,3.55l-1.19,1.56q-2.15-2.78-2.88-3.82c-.87-1.24-1.72-2.58-2.57-4-.15-.26-.28-.39-.4-.39s-.27.13-.39.4C93.19,23.42,92.29,25.25,91.27,27.14Z"/><path class="cls-2" d="M108.89,20a22.57,22.57,0,0,1-1.47,7.6,3.55,3.55,0,0,1-1.12,1.55,2.16,2.16,0,0,1-1.25.35,2.11,2.11,0,0,1-1.89-1.2,6,6,0,0,1-.64-3,6.78,6.78,0,0,1,1.7-4.85,5.14,5.14,0,0,1,1.91-1.26,5.8,5.8,0,0,1,2.16-.4q5.11,0,5.12,5.88,0,4.59-4.9,5.69L107.74,29A5,5,0,0,0,111,27.28a4.78,4.78,0,0,0,.77-2.86,5.41,5.41,0,0,0-1-3.51A2.55,2.55,0,0,0,108.89,20Zm-1.56.1a3.33,3.33,0,0,0-2.24,1.43,6.11,6.11,0,0,0-1.1,3.82,4.44,4.44,0,0,0,.37,2.05.83.83,0,0,0,.71.54.75.75,0,0,0,.57-.24,2.26,2.26,0,0,0,.43-.79,19.64,19.64,0,0,0,.87-3.35A24.28,24.28,0,0,0,107.33,20.07Z"/><path class="cls-2" d="M119.1,23.06h-4.53V21.69h10v1.37h-3.75a16.91,16.91,0,0,1-.28,3.1,5.2,5.2,0,0,1-.64,1.58,5.78,5.78,0,0,1-1.38,1.57,9.36,9.36,0,0,1-1.92,1.12l-1.14-1.23a5.31,5.31,0,0,0,3-2.35,5,5,0,0,0,.51-1.46A15.74,15.74,0,0,0,119.1,23.06Zm-3.64-4.64h6.43v1.36h-6.43ZM122,17.37l1-.28a14,14,0,0,1,1.09,2.49l-1,.34A12.84,12.84,0,0,0,122,17.37Zm1.77-.44,1-.3A15.09,15.09,0,0,1,125.82,19l-1,.36A13.9,13.9,0,0,0,123.8,16.93Z"/><path class="cls-2" d="M134.11,18.8a1.77,1.77,0,0,1-.08-.56,1.62,1.62,0,0,1,.56-1.27,1.71,1.71,0,1,1,2.28,2.54,1.6,1.6,0,0,1-1.14.44,1.93,1.93,0,0,1-.42,0c-.13,3.18-.84,5.58-2.11,7.21a11.11,11.11,0,0,1-5.06,3.31l-.93-1.31a9.11,9.11,0,0,0,4.86-3.33,10.5,10.5,0,0,0,1.46-5.57h-6.86V18.8Zm1.62-1.54a.94.94,0,0,0-.73.32,1,1,0,0,0-.24.66.93.93,0,0,0,.31.73,1,1,0,0,0,.66.24.93.93,0,0,0,.73-.31.92.92,0,0,0,.25-.66.94.94,0,0,0-.32-.73A1,1,0,0,0,135.73,17.26Z"/><path class="cls-2" d="M138.63,29.7V18.85h8.26V29.7Zm6.59-1.41v-8h-4.93v8Z"/><path class="cls-2" d="M152.06,22.93a32.9,32.9,0,0,1-3.85,2.44l-.94-1.31a25,25,0,0,0,4.82-3.12,15.67,15.67,0,0,0,3.08-3.39l1.54.95a25.57,25.57,0,0,1-3,3.07v8.81h-1.69Z"/><path class="cls-2" d="M157.73,32.1H156.3a9.74,9.74,0,0,0,2.27-6.41,9.94,9.94,0,0,0-2.28-6.48h1.45a9.59,9.59,0,0,1,2.32,6.5A9.17,9.17,0,0,1,157.73,32.1Z"/></svg>