<svg xmlns="http://www.w3.org/2000/svg" xmlns:xlink="http://www.w3.org/1999/xlink" viewBox="0 0 316 315.2"><defs><style>.cls-1,.cls-3{fill:#fff;}.cls-15,.cls-2,.cls-5{fill:#3c3c41;}.cls-2{opacity:0.05;}.cls-2,.cls-3,.cls-4,.cls-5{isolation:isolate;}.cls-3{opacity:0.6;}.cls-14,.cls-16,.cls-17,.cls-30,.cls-4{fill:none;}.cls-4{stroke:#75757a;stroke-width:0.5px;opacity:0.5;}.cls-14,.cls-16,.cls-17,.cls-4{stroke-miterlimit:10;}.cls-5{opacity:0.2;}.cls-6{fill:#ccc;fill-opacity:0.3;}.cls-7{fill:url(#Degradado_sin_nombre);}.cls-8{fill:#50e6ff;}.cls-9{fill:#c3f1ff;}.cls-10{fill:#9cebff;}.cls-11{fill:url(#Degradado_sin_nombre_2);}.cls-12{fill:url(#Degradado_sin_nombre_3);}.cls-13{fill:url(#Degradado_sin_nombre_4);}.cls-14,.cls-16,.cls-17{stroke:#3c3c41;}.cls-16{stroke-dasharray:1.46 2.43;}.cls-17{stroke-dasharray:1.31 2.19;}.cls-18{fill:url(#Degradado_sin_nombre_5);}.cls-19{fill:url(#Degradado_sin_nombre_6);}.cls-20{fill:url(#Degradado_sin_nombre_7);}.cls-21{fill:#1490df;}.cls-22{fill:url(#Degradado_sin_nombre_8);}.cls-23{fill:url(#Degradado_sin_nombre_9);}.cls-24{fill:url(#Degradado_sin_nombre_10);}.cls-25{fill:url(#Degradado_sin_nombre_11);}.cls-26{fill:url(#Degradado_sin_nombre_12);}.cls-27{fill:url(#Degradado_sin_nombre_13);}.cls-28{fill:url(#Degradado_sin_nombre_14);}.cls-29{fill:url(#Degradado_sin_nombre_15);}.cls-31{fill:#6ebcdb;}.cls-32{fill:#5db4d7;}.cls-33{fill:#e6e6e6;}.cls-34{fill:#86d633;}.cls-35{fill:#1e1e1e;}</style><linearGradient id="Degradado_sin_nombre" x1="39.57" y1="240.22" x2="39.57" y2="221.46" gradientTransform="translate(0 -74.26)" gradientUnits="userSpaceOnUse"><stop offset="0" stop-color="#0078d4"/><stop offset="0.82" stop-color="#5ea0ef"/></linearGradient><linearGradient id="Degradado_sin_nombre_2" x1="39.57" y1="247.46" x2="39.57" y2="240.22" gradientTransform="translate(0 -74.26)" gradientUnits="userSpaceOnUse"><stop offset="0.15" stop-color="#ccc"/><stop offset="1" stop-color="#707070"/></linearGradient><linearGradient id="Degradado_sin_nombre_3" x1="76.43" y1="240.22" x2="76.43" y2="221.46" xlink:href="#Degradado_sin_nombre"/><linearGradient id="Degradado_sin_nombre_4" x1="76.43" y1="247.46" x2="76.43" y2="240.22" xlink:href="#Degradado_sin_nombre_2"/><linearGradient id="Degradado_sin_nombre_5" x1="24.5" y1="301.79" x2="26.87" y2="304.15" gradientTransform="translate(3.03 -74.68)" gradientUnits="userSpaceOnUse"><stop offset="0" stop-color="#86d633"/><stop offset="0.24" stop-color="#83d232"/><stop offset="0.5" stop-color="#7cc52f"/><stop offset="0.76" stop-color="#6fb02a"/><stop offset="1" stop-color="#5e9624"/></linearGradient><linearGradient id="Degradado_sin_nombre_6" x1="19.15" y1="301.79" x2="21.51" y2="304.15" xlink:href="#Degradado_sin_nombre_5"/><linearGradient id="Degradado_sin_nombre_7" x1="13.81" y1="301.78" x2="16.17" y2="304.15" xlink:href="#Degradado_sin_nombre_5"/><linearGradient id="Degradado_sin_nombre_8" x1="139.57" y1="240.22" x2="139.57" y2="221.46" xlink:href="#Degradado_sin_nombre"/><linearGradient id="Degradado_sin_nombre_9" x1="139.57" y1="247.46" x2="139.57" y2="240.22" xlink:href="#Degradado_sin_nombre_2"/><linearGradient id="Degradado_sin_nombre_10" x1="176.43" y1="240.22" x2="176.43" y2="221.46" xlink:href="#Degradado_sin_nombre"/><linearGradient id="Degradado_sin_nombre_11" x1="176.43" y1="247.46" x2="176.43" y2="240.22" xlink:href="#Degradado_sin_nombre_2"/><linearGradient id="Degradado_sin_nombre_12" x1="239.57" y1="240.22" x2="239.57" y2="221.46" xlink:href="#Degradado_sin_nombre"/><linearGradient id="Degradado_sin_nombre_13" x1="239.57" y1="247.46" x2="239.57" y2="240.22" xlink:href="#Degradado_sin_nombre_2"/><linearGradient id="Degradado_sin_nombre_14" x1="276.43" y1="240.22" x2="276.43" y2="221.46" xlink:href="#Degradado_sin_nombre"/><linearGradient id="Degradado_sin_nombre_15" x1="276.43" y1="247.46" x2="276.43" y2="240.22" xlink:href="#Degradado_sin_nombre_2"/></defs><title>OJ104903206</title><g id="Target"><g id="Shapes"><rect class="cls-1" width="316" height="315.2"/><rect class="cls-1" x="0.5" y="75.2" width="315" height="151.85" rx="5"/><rect class="cls-2" x="0.5" y="75.2" width="315" height="151.85" rx="5"/><rect class="cls-3" x="10.5" y="15.2" width="95" height="200"/><rect class="cls-4" x="10.5" y="15.2" width="95" height="200"/><rect class="cls-1" x="15.99" y="120.2" width="84.51" height="90" rx="0.3"/><rect class="cls-5" x="15.99" y="120.2" width="84.51" height="90" rx="0.3"/><rect class="cls-6" x="160.5" y="240.2" width="155" height="35"/><rect class="cls-6" x="160.5" y="280.2" width="155" height="35"/><rect class="cls-7" x="25.5" y="147.2" width="28.14" height="18.76" rx="0.94"/><polygon class="cls-8" points="44.26 153.85 44.26 159.3 39.57 162.05 39.57 156.58 44.26 153.85"/><polygon class="cls-9" points="44.26 153.85 39.57 156.6 34.88 153.85 39.57 151.11 44.26 153.85"/><polygon class="cls-10" points="39.57 156.6 39.57 162.05 34.88 159.3 34.88 153.85 39.57 156.6"/><polygon class="cls-9" points="34.88 159.3 39.57 156.58 39.57 162.05 34.88 159.3"/><polygon class="cls-10" points="44.26 159.3 39.57 156.58 39.57 162.05 44.26 159.3"/><path class="cls-11" d="M45.21,171.64c-2.78-.44-2.89-2.44-2.89-5.68H36.8c0,3.24-.09,5.24-2.87,5.68a1.55,1.55,0,0,0-1.39,1.56H46.61A1.57,1.57,0,0,0,45.21,171.64Z"/><rect class="cls-12" x="62.36" y="147.2" width="28.14" height="18.76" rx="0.94"/><polygon class="cls-8" points="81.12 153.85 81.12 159.3 76.43 162.05 76.43 156.58 81.12 153.85"/><polygon class="cls-9" points="81.12 153.85 76.43 156.6 71.74 153.85 76.43 151.11 81.12 153.85"/><polygon class="cls-10" points="76.43 156.6 76.43 162.05 71.74 159.3 71.74 153.85 76.43 156.6"/><polygon class="cls-9" points="71.74 159.3 76.43 156.58 76.43 162.05 71.74 159.3"/><polygon class="cls-10" points="81.12 159.3 76.43 156.58 76.43 162.05 81.12 159.3"/><path class="cls-13" d="M82.07,171.64c-2.78-.44-2.89-2.44-2.89-5.68H73.66c0,3.24-.09,5.24-2.87,5.68a1.57,1.57,0,0,0-1.4,1.56H83.46A1.55,1.55,0,0,0,82.07,171.64Z"/><line class="cls-14" x1="58.25" y1="120.2" x2="58.25" y2="55.2"/><line class="cls-14" x1="50.72" y1="112.67" x2="50.72" y2="100.98"/><polygon class="cls-15" points="53.71 101.85 50.72 96.67 47.73 101.85 53.71 101.85"/><line class="cls-14" x1="65.77" y1="108.37" x2="65.77" y2="107.62"/><line class="cls-16" x1="65.77" y1="105.19" x2="65.77" y2="98.64"/><line class="cls-14" x1="65.77" y1="97.42" x2="65.77" y2="96.67"/><polygon class="cls-15" points="68.76 107.49 65.77 112.67 62.78 107.49 68.76 107.49"/><line class="cls-14" x1="169.81" y1="250.2" x2="180.93" y2="250.2"/><polygon class="cls-15" points="170.68 253.19 165.5 250.2 170.68 247.21 170.68 253.19"/><line class="cls-14" x1="176.19" y1="290.2" x2="175.44" y2="290.2"/><line class="cls-17" x1="173.25" y1="290.2" x2="167.34" y2="290.2"/><line class="cls-14" x1="166.25" y1="290.2" x2="165.5" y2="290.2"/><polygon class="cls-15" points="175.32 287.21 180.5 290.2 175.32 293.19 175.32 287.21"/><circle class="cls-18" cx="28.4" cy="227.97" r="1.67"/><circle class="cls-19" cx="23.06" cy="227.99" r="1.67"/><circle class="cls-20" cx="17.72" cy="227.99" r="1.67"/><path class="cls-8" d="M18.93,234.68l-1,1a.43.43,0,0,1-.61,0h0l-7.09-7.08a.88.88,0,0,1,0-1.22h0l1-1h0l7.71,7.69a.43.43,0,0,1,0,.61h0Z"/><path class="cls-21" d="M17.83,220.35l1,1a.43.43,0,0,1,0,.61h0l-7.57,7.6h0l-1-1a.89.89,0,0,1,0-1.23h0l7-7A.43.43,0,0,1,17.83,220.35Z"/><path class="cls-8" d="M34.78,226.37l1,1a.87.87,0,0,1,0,1.23h0l-7.1,7.07a.43.43,0,0,1-.61,0h0l-1-1a.43.43,0,0,1,0-.61h0Z"/><path class="cls-21" d="M35.74,228.55l-1,1h0L27.17,222a.43.43,0,0,1,0-.61h0l1-1a.43.43,0,0,1,.61,0h0l7,7a.89.89,0,0,1,0,1.23h0Z"/><rect class="cls-1" x="40.75" y="20.2" width="35" height="35"/><rect class="cls-5" x="40.75" y="20.2" width="35" height="35"/><rect class="cls-3" x="110.5" y="15.2" width="95" height="200"/><rect class="cls-4" x="110.5" y="15.2" width="95" height="200"/><rect class="cls-1" x="115.99" y="120.2" width="84.51" height="90" rx="0.3"/><rect class="cls-5" x="115.99" y="120.2" width="84.51" height="90" rx="0.3"/><rect class="cls-22" x="125.5" y="147.2" width="28.14" height="18.76" rx="0.94"/><polygon class="cls-8" points="144.26 153.85 144.26 159.3 139.57 162.05 139.57 156.58 144.26 153.85"/><polygon class="cls-9" points="144.26 153.85 139.57 156.6 134.88 153.85 139.57 151.11 144.26 153.85"/><polygon class="cls-10" points="139.57 156.6 139.57 162.05 134.88 159.3 134.88 153.85 139.57 156.6"/><polygon class="cls-9" points="134.88 159.3 139.57 156.58 139.57 162.05 134.88 159.3"/><polygon class="cls-10" points="144.26 159.3 139.57 156.58 139.57 162.05 144.26 159.3"/><path class="cls-23" d="M145.21,171.64c-2.78-.44-2.89-2.44-2.89-5.68H136.8c0,3.24-.09,5.24-2.87,5.68a1.55,1.55,0,0,0-1.39,1.56h14.07A1.57,1.57,0,0,0,145.21,171.64Z"/><rect class="cls-24" x="162.36" y="147.2" width="28.14" height="18.76" rx="0.94"/><polygon class="cls-8" points="181.12 153.85 181.12 159.3 176.43 162.05 176.43 156.58 181.12 153.85"/><polygon class="cls-9" points="181.12 153.85 176.43 156.6 171.74 153.85 176.43 151.11 181.12 153.85"/><polygon class="cls-10" points="176.43 156.6 176.43 162.05 171.74 159.3 171.74 153.85 176.43 156.6"/><polygon class="cls-9" points="171.74 159.3 176.43 156.58 176.43 162.05 171.74 159.3"/><polygon class="cls-10" points="181.12 159.3 176.43 156.58 176.43 162.05 181.12 159.3"/><path class="cls-25" d="M182.07,171.64c-2.78-.44-2.89-2.44-2.89-5.68h-5.52c0,3.24-.09,5.24-2.87,5.68a1.57,1.57,0,0,0-1.4,1.56h14.07A1.55,1.55,0,0,0,182.07,171.64Z"/><line class="cls-14" x1="158.25" y1="120.2" x2="158.25" y2="55.2"/><line class="cls-14" x1="150.72" y1="112.67" x2="150.72" y2="100.98"/><polygon class="cls-15" points="153.71 101.85 150.72 96.67 147.73 101.85 153.71 101.85"/><line class="cls-14" x1="165.77" y1="108.37" x2="165.77" y2="107.62"/><line class="cls-16" x1="165.77" y1="105.19" x2="165.77" y2="98.64"/><line class="cls-14" x1="165.77" y1="97.42" x2="165.77" y2="96.67"/><polygon class="cls-15" points="168.76 107.49 165.77 112.67 162.78 107.49 168.76 107.49"/><rect class="cls-1" x="140.75" y="20.2" width="35" height="35"/><rect class="cls-5" x="140.75" y="20.2" width="35" height="35"/><rect class="cls-3" x="210.5" y="15.2" width="95" height="200"/><rect class="cls-4" x="210.5" y="15.2" width="95" height="200"/><rect class="cls-1" x="215.99" y="120.2" width="84.51" height="90" rx="0.3"/><rect class="cls-5" x="215.99" y="120.2" width="84.51" height="90" rx="0.3"/><rect class="cls-26" x="225.5" y="147.2" width="28.14" height="18.76" rx="0.94"/><polygon class="cls-8" points="244.26 153.85 244.26 159.3 239.57 162.05 239.57 156.58 244.26 153.85"/><polygon class="cls-9" points="244.26 153.85 239.57 156.6 234.88 153.85 239.57 151.11 244.26 153.85"/><polygon class="cls-10" points="239.57 156.6 239.57 162.05 234.88 159.3 234.88 153.85 239.57 156.6"/><polygon class="cls-9" points="234.88 159.3 239.57 156.58 239.57 162.05 234.88 159.3"/><polygon class="cls-10" points="244.26 159.3 239.57 156.58 239.57 162.05 244.26 159.3"/><path class="cls-27" d="M245.21,171.64c-2.78-.44-2.89-2.44-2.89-5.68H236.8c0,3.24-.09,5.24-2.87,5.68a1.55,1.55,0,0,0-1.39,1.56h14.07A1.57,1.57,0,0,0,245.21,171.64Z"/><rect class="cls-28" x="262.36" y="147.2" width="28.14" height="18.76" rx="0.94"/><polygon class="cls-8" points="281.12 153.85 281.12 159.3 276.43 162.05 276.43 156.58 281.12 153.85"/><polygon class="cls-9" points="281.12 153.85 276.43 156.6 271.74 153.85 276.43 151.11 281.12 153.85"/><polygon class="cls-10" points="276.43 156.6 276.43 162.05 271.74 159.3 271.74 153.85 276.43 156.6"/><polygon class="cls-9" points="271.74 159.3 276.43 156.58 276.43 162.05 271.74 159.3"/><polygon class="cls-10" points="281.12 159.3 276.43 156.58 276.43 162.05 281.12 159.3"/><path class="cls-29" d="M282.07,171.64c-2.78-.44-2.89-2.44-2.89-5.68h-5.52c0,3.24-.09,5.24-2.87,5.68a1.57,1.57,0,0,0-1.4,1.56h14.07A1.55,1.55,0,0,0,282.07,171.64Z"/><line class="cls-14" x1="258.25" y1="120.2" x2="258.25" y2="55.2"/><line class="cls-14" x1="250.72" y1="112.67" x2="250.72" y2="100.98"/><polygon class="cls-15" points="253.71 101.85 250.72 96.67 247.73 101.85 253.71 101.85"/><line class="cls-14" x1="265.77" y1="108.37" x2="265.77" y2="107.62"/><line class="cls-16" x1="265.77" y1="105.19" x2="265.77" y2="98.64"/><line class="cls-14" x1="265.77" y1="97.42" x2="265.77" y2="96.67"/><polygon class="cls-15" points="268.76 107.49 265.77 112.67 262.78 107.49 268.76 107.49"/><rect class="cls-1" x="240.75" y="20.2" width="35" height="35"/><rect class="cls-5" x="240.75" y="20.2" width="35" height="35"/><rect class="cls-30" x="0.5" y="75.2" width="315" height="151.85" rx="5"/><path class="cls-15" d="M309.34,227.55h-1v-1h1Zm-3,0h-1v-1h1Zm-3,0h-1v-1h1Zm-3,0h-1v-1h1Zm-3,0h-1v-1h1Zm-3,0h-1v-1h1Zm-3,0h-1v-1h1Zm-3,0h-1v-1h1Zm-3,0h-1v-1h1Zm-3,0h-1v-1h1Zm-3,0h-1v-1h1Zm-3,0h-1v-1h1Zm-3,0h-1v-1h1Zm-3,0h-1v-1h1Zm-3,0h-1v-1h1Zm-3,0h-1v-1h1Zm-3,0h-1v-1h1Zm-3,0h-1v-1h1Zm-3,0h-1v-1h1Zm-3,0h-1v-1h1Zm-3,0h-1v-1h1Zm-3,0h-1v-1h1Zm-3,0h-1v-1h1Zm-3,0h-1v-1h1Zm-3,0h-1v-1h1Zm-3,0h-1v-1h1Zm-3,0h-1v-1h1Zm-3,0h-1v-1h1Zm-3,0h-1v-1h1Zm-3,0h-1v-1h1Zm-3,0h-1v-1h1Zm-3,0h-1v-1h1Zm-3,0h-1v-1h1Zm-3,0h-1v-1h1Zm-3,0h-1v-1h1Zm-3,0h-1v-1h1Zm-3,0h-1v-1h1Zm-3,0h-1v-1h1Zm-3,0h-1v-1h1Zm-3,0h-1v-1h1Zm-3,0h-1v-1h1Zm-3,0h-1v-1h1Zm-3,0h-1v-1h1Zm-3,0h-1v-1h1Zm-3,0h-1v-1h1Zm-3,0h-1v-1h1Zm-3,0h-1v-1h1Zm-3,0h-1v-1h1Zm-3,0h-1v-1h1Zm-3,0h-1v-1h1Zm-3,0h-1v-1h1Zm-3,0h-1v-1h1Zm-3,0h-1v-1h1Zm-3,0h-1v-1h1Zm-3,0h-1v-1h1Zm-3,0h-1v-1h1Zm-3,0h-1v-1h1Zm-3,0h-1v-1h1Zm-3,0h-1v-1h1Zm-3,0h-1v-1h1Zm-3,0h-1v-1h1Zm-3,0h-1v-1h1Zm-3,0h-1v-1h1Zm-3,0h-1v-1h1Zm-3,0h-1v-1h1Zm-3,0h-1v-1h1Zm-3,0h-1v-1h1Zm-3,0h-1v-1h1Zm-3,0h-1v-1h1Zm-3,0h-1v-1h1Zm-3,0h-1v-1h1Zm-3,0h-1v-1h1Zm-3,0h-1v-1h1Zm-3,0h-1v-1h1Zm-3,0h-1v-1h1Zm-3,0h-1v-1h1Zm-3,0h-1v-1h1Zm-3,0h-1v-1h1Zm-3,0h-1v-1h1Zm-3,0h-1v-1h1Zm-3,0h-1v-1h1Zm-3,0h-1v-1h1Zm-3,0h-1v-1h1Zm-3,0h-1v-1h1Zm-3,0h-1v-1h1Zm-3,0h-1v-1h1Zm-3,0h-1v-1h1Zm-3,0H47v-1h1Zm-3,0H44v-1h1Zm-3,0H41v-1h1Zm-3,0H38v-1h1Zm-33,0H5l.1-1H6Zm305.42-.08-.16-1a4.4,4.4,0,0,0,.86-.24l.37.93a5.64,5.64,0,0,1-1.41.31ZM3.2,226.87a6.34,6.34,0,0,1-.91-.62l.65-.77a4.7,4.7,0,0,0,.74.52ZM314.32,226l-.69-.72a4.82,4.82,0,0,0,.58-.69l.82.57A5.18,5.18,0,0,1,314.32,226ZM.6,224.54a5.09,5.09,0,0,1-.4-1l1-.27a4.31,4.31,0,0,0,.33.84Zm315.29-1.39-1-.2a4.58,4.58,0,0,0,.09-.9l1-.06v.06A5.06,5.06,0,0,1,315.89,223.15ZM1,221.39H0v-1H1ZM316,220h-1v-1h1ZM1,218.39H0v-1H1ZM316,217h-1v-1h1ZM1,215.38H0v-1H1ZM316,214h-1v-1h1ZM1,212.38H0v-1H1ZM316,211h-1v-1h1ZM1,209.38H0v-1H1ZM316,208h-1v-1h1ZM1,206.37H0v-1H1ZM316,205h-1v-1h1ZM1,203.37H0v-1H1ZM316,202h-1v-1h1ZM1,200.37H0v-1H1ZM316,199h-1v-1h1ZM1,197.36H0v-1H1ZM316,196h-1v-1h1ZM1,194.36H0v-1H1ZM316,193h-1v-1h1ZM1,191.36H0v-1H1ZM316,190h-1v-1h1ZM1,188.35H0v-1H1ZM316,187h-1v-1h1ZM1,185.35H0v-1H1ZM316,184h-1v-1h1ZM1,182.35H0v-1H1ZM316,181h-1v-1h1ZM1,179.34H0v-1H1Zm315-1.4h-1v-1h1ZM1,176.34H0v-1H1Zm315-1.4h-1v-1h1ZM1,173.34H0v-1H1Zm315-1.4h-1v-1h1ZM1,170.33H0v-1H1Zm315-1.4h-1v-1h1ZM1,167.33H0v-1H1Zm315-1.4h-1v-1h1ZM1,164.33H0v-1H1Zm315-1.4h-1v-1h1ZM1,161.32H0v-1H1Zm315-1.4h-1v-1h1ZM1,158.32H0v-1H1Zm315-1.4h-1v-1h1ZM1,155.32H0v-1H1Zm315-1.4h-1v-1h1ZM1,152.31H0v-1H1Zm315-1.4h-1v-1h1ZM1,149.31H0v-1H1Zm315-1.4h-1v-1h1ZM1,146.3H0v-1H1Zm315-1.39h-1v-1h1ZM1,143.3H0v-1H1Zm315-1.4h-1v-1h1ZM1,140.3H0v-1H1Zm315-1.4h-1v-1h1ZM1,137.29H0v-1H1Zm315-1.39h-1v-1h1ZM1,134.29H0v-1H1Zm315-1.4h-1v-1h1ZM1,131.29H0v-1H1Zm315-1.4h-1v-1h1ZM1,128.28H0v-1H1Zm315-1.39h-1v-1h1ZM1,125.28H0v-1H1Zm315-1.4h-1v-1h1ZM1,122.28H0v-1H1Zm315-1.4h-1v-1h1ZM1,119.27H0v-1H1Zm315-1.39h-1v-1h1ZM1,116.27H0v-1H1Zm315-1.4h-1v-1h1ZM1,113.27H0v-1H1Zm315-1.4h-1v-1h1ZM1,110.26H0v-1H1Zm315-1.39h-1v-1h1ZM1,107.26H0v-1H1Zm315-1.4h-1v-1h1ZM1,104.26H0v-1H1Zm315-1.4h-1v-1h1ZM1,101.25H0v-1H1Zm315-1.39h-1v-1h1ZM1,98.25H0v-1H1Zm315-1.4h-1v-1h1ZM1,95.25H0v-1H1Zm315-1.4h-1v-1h1ZM1,92.24H0v-1H1Zm315-1.4h-1v-1h1ZM1,89.24H0v-1H1Zm315-1.4h-1v-1h1ZM1,86.24H0v-1H1Zm315-1.4h-1v-1h1ZM1,83.23H0v-1H1Zm315-1.4h-1v-1h1ZM0,80.23H0a6.24,6.24,0,0,1,.1-1.06l1,.19a4.81,4.81,0,0,0-.1.84ZM314.83,79a4,4,0,0,0-.33-.83l.89-.46a5.09,5.09,0,0,1,.4,1Zm-313-1.3L1,77.12a6.24,6.24,0,0,1,.7-.84l.7.71a5.09,5.09,0,0,0-.62.69Zm311.6-.93a4.58,4.58,0,0,0-.74-.5l.48-.88a5.48,5.48,0,0,1,.9.61ZM3.85,76l-.36-.93a5,5,0,0,1,1-.29l.18,1A4.73,4.73,0,0,0,3.85,76Zm307.08-.29H310v-1h1.05Zm-3,0h-1v-1h1Zm-3,0h-1v-1h1Zm-3,0h-1v-1h1Zm-3,0h-1v-1h1Zm-3,0h-1v-1h1Zm-3,0h-1v-1h1Zm-3,0h-1v-1h1Zm-3,0h-1v-1h1Zm-3,0h-1v-1h1Zm-3,0h-1v-1h1Zm-3,0h-1v-1h1Zm-3,0h-1v-1h1Zm-3,0h-1v-1h1Zm-3,0h-1v-1h1Zm-3,0h-1v-1h1Zm-3,0h-1v-1h1Zm-3,0h-1v-1h1Zm-3,0h-1v-1h1Zm-3,0h-1v-1h1Zm-3,0h-1v-1h1Zm-3,0h-1v-1h1Zm-3,0h-1v-1h1Zm-3,0h-1v-1h1Zm-3,0h-1v-1h1Zm-3,0h-1v-1h1Zm-3,0h-1v-1h1Zm-3,0h-1v-1h1Zm-3,0h-1v-1h1Zm-3,0h-1v-1h1Zm-3,0h-1v-1h1Zm-3,0h-1v-1h1Zm-3,0h-1v-1h1Zm-3,0h-1v-1h1Zm-3,0h-1v-1h1Zm-3,0h-1v-1h1Zm-3,0h-1v-1h1Zm-3,0h-1v-1h1Zm-3,0h-1v-1h1Zm-3,0h-1v-1h1Zm-3,0h-1v-1h1Zm-3,0h-1v-1h1Zm-3,0h-1v-1h1Zm-3,0h-1v-1h1Zm-3,0h-1v-1h1Zm-3,0h-1v-1h1Zm-3,0h-1v-1h1Zm-3,0h-1v-1h1Zm-3,0h-1v-1h1Zm-3,0h-1v-1h1Zm-3,0h-1v-1h1Zm-3,0h-1v-1h1Zm-3,0h-1v-1h1Zm-3,0h-1v-1h1Zm-3,0h-1v-1h1Zm-3,0h-1v-1h1Zm-3,0h-1v-1h1Zm-3,0h-1v-1h1Zm-3,0h-1v-1h1Zm-3,0h-1v-1h1Zm-3,0h-1v-1h1Zm-3,0h-1v-1h1Zm-3,0h-1v-1h1Zm-3,0h-1v-1h1Zm-3,0h-1v-1h1Zm-3,0h-1v-1h1Zm-3,0h-1v-1h1Zm-3,0h-1v-1h1Zm-3,0h-1v-1h1Zm-3,0h-1v-1h1Zm-3,0h-1v-1h1Zm-3,0h-1v-1h1Zm-3,0h-1v-1h1Zm-3,0h-1v-1h1Zm-3,0h-1v-1h1Zm-3,0h-1v-1h1Zm-3,0h-1v-1h1Zm-3,0h-1v-1h1Zm-3,0h-1v-1h1Zm-3,0h-1v-1h1Zm-3,0h-1v-1h1Zm-3,0h-1v-1h1Zm-3,0h-1v-1h1Zm-3,0h-1v-1h1Zm-3,0h-1v-1h1Zm-3,0h-1v-1h1Zm-3,0h-1v-1h1Zm-3,0h-1v-1h1Zm-3,0h-1v-1h1Zm-3,0h-1v-1h1Zm-3,0h-1v-1h1Zm-3,0h-1v-1h1Zm-3,0h-1v-1h1Zm-3,0h-1v-1h1Zm-3,0h-1v-1h1Zm-3,0h-1v-1h1Zm-3,0h-1v-1h1Zm-3,0h-1v-1h1Zm-3,0h-1v-1h1Zm-3,0h-1v-1h1Zm-3,0h-1v-1h1Zm-3,0h-1v-1h1Z"/><g id="ad94e297-0e86-4eaf-aac0-d146ee9aea65"><path class="cls-31" d="M54.12,83.24,49.43,78.4a2.28,2.28,0,0,1-.77.14,2.43,2.43,0,1,1,2.24-3.33h4.61v1.62H51a3.64,3.64,0,0,1-.25.57L55,81.86l2.34-3.56V67.12H54.22l4-4,4,4H59v8.73l5.93-9-6-6a1,1,0,0,0-1.41-.05l-.05.05h0L43,75.28a1,1,0,0,0,0,1.41l0,0h0l14.48,14.5-5.17-5.17Z"/><path class="cls-32" d="M57.37,83.45V78.28L55,81.86l1.72,1.85A1.68,1.68,0,0,1,57.37,83.45Z"/><path class="cls-32" d="M73.4,75.28l-8.48-8.47-5.93,9v7.62a1.57,1.57,0,0,1,.54.29l6.22-6.29a2.53,2.53,0,0,1-.31-.64H60.77V75.21h4.74a2.41,2.41,0,1,1,2.24,3.33,3.1,3.1,0,0,1-.68-.1L60.46,85.1a2.59,2.59,0,0,1,.1.62,2.43,2.43,0,1,1-4.84.44,2.18,2.18,0,0,1,0-.25,2.24,2.24,0,0,1,.13-.89l-1.72-1.73-1.85,2.76,5.17,5.17a1,1,0,0,0,1.41,0l0,0L73.36,76.75a1,1,0,0,0,0-1.41s0,0,0,0Z"/><path class="cls-33" d="M65.51,75.21H60.77v1.62h4.67A2.21,2.21,0,0,1,65.51,75.21Z"/><path class="cls-33" d="M51,76.83h4.55V75.21H50.9a2.54,2.54,0,0,1,.19.9A2.19,2.19,0,0,1,51,76.83Z"/><path class="cls-33" d="M60.46,85.1l6.61-6.66a2.44,2.44,0,0,1-1.32-1l-6.22,6.29A2.33,2.33,0,0,1,60.46,85.1Z"/><path class="cls-33" d="M56.81,83.71l-1.73-1.85L50.71,77.4a2.45,2.45,0,0,1-1.28,1l4.69,4.84L55.84,85A2.32,2.32,0,0,1,56.81,83.71Z"/><path class="cls-1" d="M62.13,67.12l-3.93-4-4,4h3.15V83.45a1.68,1.68,0,0,0-.56.26,2.38,2.38,0,0,0-1,1.31,2.41,2.41,0,0,0,4.62,1.39,2.3,2.3,0,0,0,.1-.69,2.59,2.59,0,0,0-.1-.62,2.36,2.36,0,0,0-.93-1.34,1.57,1.57,0,0,0-.54-.29V67.12ZM58.2,87.07a1.35,1.35,0,1,1,1.34-1.36h0a1.34,1.34,0,0,1-1.33,1.35Z"/><path class="cls-1" d="M50.71,77.4a3.64,3.64,0,0,0,.25-.57,2.48,2.48,0,0,0,.13-.72,2.54,2.54,0,0,0-.19-.9,2.42,2.42,0,1,0-2.24,3.33,2.28,2.28,0,0,0,.77-.14A2.45,2.45,0,0,0,50.71,77.4Zm-2.05,0A1.35,1.35,0,1,1,50,76v0h0a1.34,1.34,0,0,1-1.29,1.39h-.05Z"/><path class="cls-1" d="M67.07,78.44a3.1,3.1,0,0,0,.68.1,2.43,2.43,0,1,0-2.24-3.33,2.21,2.21,0,0,0-.07,1.62,2.53,2.53,0,0,0,.31.64A2.39,2.39,0,0,0,67.07,78.44Zm.68-3.66a1.33,1.33,0,1,1-.31,0A1.61,1.61,0,0,1,67.75,74.78Z"/><path class="cls-34" d="M58.2,84.38a1.35,1.35,0,1,0,1.34,1.36v0h0A1.34,1.34,0,0,0,58.2,84.38Z"/><circle class="cls-34" cx="48.66" cy="76.11" r="1.34"/><path class="cls-34" d="M67.75,77.45a1.34,1.34,0,1,0-1.35-1.34h0a1.34,1.34,0,0,0,1.34,1.34Z"/></g><g id="ad94e297-0e86-4eaf-aac0-d146ee9aea65-2"><path class="cls-31" d="M154.18,83.24l-4.69-4.84a2.28,2.28,0,0,1-.77.14A2.43,2.43,0,1,1,151,75.21h4.61v1.62H151a3.64,3.64,0,0,1-.25.57l4.32,4.46,2.34-3.56V67.12h-3.15l4-4,4,4H159.1v8.73l5.93-9-6-6a1,1,0,0,0-1.41-.05l-.05.05h0L143.06,75.28a1,1,0,0,0-.05,1.41l.05,0h0l14.48,14.48-5.17-5.17Z"/><path class="cls-32" d="M157.43,83.45V78.28l-2.34,3.58,1.72,1.85A1.61,1.61,0,0,1,157.43,83.45Z"/><path class="cls-32" d="M173.46,75.28,165,66.81l-5.93,9v7.62a2.16,2.16,0,0,1,.54.29l6.22-6.29a2.53,2.53,0,0,1-.31-.64h-4.67V75.21h4.74a2.41,2.41,0,1,1,2.23,3.33,3,3,0,0,1-.67-.1l-6.61,6.66a2.59,2.59,0,0,1,.1.62,2.43,2.43,0,1,1-4.84.44,2.18,2.18,0,0,1,0-.25,2.24,2.24,0,0,1,.13-.89l-1.72-1.73-1.85,2.76,5.17,5.17a1,1,0,0,0,1.41,0l0,0,14.47-14.47a1,1,0,0,0,.05-1.41s0,0-.05,0Z"/><path class="cls-33" d="M165.57,75.21h-4.74v1.62h4.67A2.21,2.21,0,0,1,165.57,75.21Z"/><path class="cls-33" d="M151,76.83h4.55V75.21H151a2.33,2.33,0,0,1,.18.9A2.24,2.24,0,0,1,151,76.83Z"/><path class="cls-33" d="M160.52,85.1l6.61-6.66a2.41,2.41,0,0,1-1.32-1l-6.22,6.29A2.33,2.33,0,0,1,160.52,85.1Z"/><path class="cls-33" d="M156.86,83.71l-1.72-1.85-4.37-4.46a2.45,2.45,0,0,1-1.28,1l4.69,4.84L155.9,85A2.39,2.39,0,0,1,156.86,83.71Z"/><path class="cls-1" d="M162.19,67.12l-3.93-4-4,4h3.15V83.45a1.73,1.73,0,0,0-.57.26,2.41,2.41,0,1,0,2.71,4,2.35,2.35,0,0,0,.95-1.28,2.25,2.25,0,0,0,0-1.31,2.36,2.36,0,0,0-.93-1.34,2.16,2.16,0,0,0-.54-.29V67.12Zm-3.93,19.95a1.35,1.35,0,1,1,1.34-1.36h0a1.34,1.34,0,0,1-1.33,1.35Z"/><path class="cls-1" d="M150.77,77.4a3.64,3.64,0,0,0,.25-.57,2.18,2.18,0,0,0,.12-.72,2.33,2.33,0,0,0-.18-.9,2.42,2.42,0,1,0-2.24,3.33,2.28,2.28,0,0,0,.77-.14A2.45,2.45,0,0,0,150.77,77.4Zm-2.05,0A1.35,1.35,0,1,1,150.06,76v0h0a1.34,1.34,0,0,1-1.29,1.39h-.05Z"/><path class="cls-1" d="M167.13,78.44a3,3,0,0,0,.67.1,2.43,2.43,0,1,0-2.23-3.33,2.21,2.21,0,0,0-.07,1.62,2.53,2.53,0,0,0,.31.64A2.39,2.39,0,0,0,167.13,78.44Zm.67-3.66a1.35,1.35,0,0,1,1.2,1.48h0a1.34,1.34,0,1,1-1.49-1.49A1.41,1.41,0,0,1,167.8,74.78Z"/><path class="cls-34" d="M158.26,84.38a1.35,1.35,0,1,0,1.34,1.36v0h0A1.34,1.34,0,0,0,158.26,84.38Z"/><circle class="cls-34" cx="148.72" cy="76.11" r="1.34"/><path class="cls-34" d="M167.8,77.45a1.34,1.34,0,1,0-1.34-1.34h0A1.34,1.34,0,0,0,167.8,77.45Z"/></g><g id="ad94e297-0e86-4eaf-aac0-d146ee9aea65-3"><path class="cls-31" d="M254.21,83.24l-4.68-4.84a2.29,2.29,0,0,1-.78.14A2.43,2.43,0,1,1,251,75.21h4.62v1.62h-4.55a3.68,3.68,0,0,1-.26.57l4.33,4.46,2.34-3.56V67.12h-3.15l4-4,3.94,4h-3.15v8.73l5.93-9-6-6a1,1,0,0,0-1.41-.05l-.05.05h0L243.1,75.28a1,1,0,0,0,0,1.41l0,0h0l14.47,14.48-5.17-5.17Z"/><path class="cls-32" d="M257.47,83.45V78.28l-2.34,3.58,1.72,1.85A1.61,1.61,0,0,1,257.47,83.45Z"/><path class="cls-32" d="M273.49,75.28,265,66.81l-5.93,9v7.62a1.83,1.83,0,0,1,.53.29l6.22-6.29a2.91,2.91,0,0,1-.31-.64h-4.67V75.21h4.74a2.42,2.42,0,1,1,2.24,3.33,3,3,0,0,1-.67-.1l-6.62,6.66a2.18,2.18,0,0,1,.11.62,2.43,2.43,0,0,1-4.86.21,2.55,2.55,0,0,1,.14-.91l-1.73-1.73-1.84,2.76,5.17,5.17a1,1,0,0,0,1.41,0l0,0,14.47-14.47a1,1,0,0,0,.05-1.41l-.05,0Z"/><path class="cls-33" d="M265.6,75.21h-4.74v1.62h4.67a2.93,2.93,0,0,1-.12-.72A2.3,2.3,0,0,1,265.6,75.21Z"/><path class="cls-33" d="M251.06,76.83h4.55V75.21H251a2.21,2.21,0,0,1,.07,1.62Z"/><path class="cls-33" d="M260.55,85.1l6.62-6.66a2.43,2.43,0,0,1-1.33-1l-6.22,6.29A2.27,2.27,0,0,1,260.55,85.1Z"/><path class="cls-33" d="M256.9,83.71l-1.72-1.85L250.8,77.4a2.46,2.46,0,0,1-1.27,1l4.68,4.84L255.94,85A2.35,2.35,0,0,1,256.9,83.71Z"/><path class="cls-1" d="M262.23,67.12l-3.93-4-4,4h3.15V83.45a1.73,1.73,0,0,0-.57.26,2.34,2.34,0,0,0-1,1.31,2.41,2.41,0,0,0,4.55,1.6l.06-.21a2.31,2.31,0,0,0,.11-.69,2.18,2.18,0,0,0-.11-.62,2.24,2.24,0,0,0-.93-1.34,1.83,1.83,0,0,0-.53-.29V67.12ZM258.3,87.07a1.35,1.35,0,1,1,1.34-1.36h0a1.34,1.34,0,0,1-1.33,1.35Z"/><path class="cls-1" d="M250.8,77.4a3.68,3.68,0,0,0,.26-.57,2.21,2.21,0,0,0-.07-1.62,2.41,2.41,0,1,0-2.24,3.33,2.29,2.29,0,0,0,.78-.14A2.46,2.46,0,0,0,250.8,77.4Zm-2.05,0a1.35,1.35,0,0,1,0-2.69,1.37,1.37,0,0,1,1.35,1.35h0a1.36,1.36,0,0,1-1.3,1.39h-.05Z"/><path class="cls-1" d="M267.17,78.44a3,3,0,0,0,.67.1,2.43,2.43,0,1,0-2.24-3.33,2.3,2.3,0,0,0-.19.9,2.53,2.53,0,0,0,.43,1.36A2.45,2.45,0,0,0,267.17,78.44Zm.67-3.66a1.34,1.34,0,1,1-1.49,1.5h0a1.35,1.35,0,0,1,1.19-1.49,1.5,1.5,0,0,1,.3,0Z"/><path class="cls-34" d="M258.3,84.38a1.35,1.35,0,1,0,1.34,1.36v0h0A1.34,1.34,0,0,0,258.3,84.38Z"/><circle class="cls-34" cx="248.75" cy="76.11" r="1.34"/><path class="cls-34" d="M267.84,77.45a1.34,1.34,0,1,0-1.34-1.34h0A1.34,1.34,0,0,0,267.84,77.45Z"/></g></g></g><g id="Text"><path class="cls-35" d="M52.21,31.92v3.17h-1v-8.4h2.3a3,3,0,0,1,2.09.66,2.31,2.31,0,0,1,.74,1.85,2.54,2.54,0,0,1-.82,2,3.18,3.18,0,0,1-2.22.76Zm0-4.34V31h1a2.33,2.33,0,0,0,1.56-.47,1.67,1.67,0,0,0,.53-1.31c0-1.11-.65-1.67-2-1.67Z"/><path class="cls-35" d="M58.93,35.09H58v-8.4h1Z"/><path class="cls-35" d="M62.12,31.92v3.17h-1v-8.4h2.31a3,3,0,0,1,2.09.66,2.34,2.34,0,0,1,.74,1.85,2.58,2.58,0,0,1-.82,2,3.19,3.19,0,0,1-2.23.76Zm0-4.34V31h1a2.3,2.3,0,0,0,1.55-.47,1.64,1.64,0,0,0,.54-1.31c0-1.11-.66-1.67-2-1.67Z"/><path class="cls-35" d="M55.17,48.25H54.08l-.89-2.36H49.63l-.84,2.36H47.7l3.22-8.41h1ZM52.87,45l-1.32-3.58a3.55,3.55,0,0,1-.13-.57h0a3.38,3.38,0,0,1-.14.57L50,45Z"/><path class="cls-35" d="M62.24,40.08l-4.92,7.28h4.81v.89H55.85V48l4.88-7.24H56.24v-.89h6Z"/><path class="cls-35" d="M66.74,48.25h-1V41a2,2,0,0,1-.32.25,5.06,5.06,0,0,1-.48.29l-.56.26a3.56,3.56,0,0,1-.58.19V41a6.12,6.12,0,0,0,.67-.24c.24-.1.47-.21.7-.33a6.82,6.82,0,0,0,.64-.39,5.23,5.23,0,0,0,.53-.39h.36Z"/><path class="cls-35" d="M152.13,31.92v3.17h-1v-8.4h2.31a3,3,0,0,1,2.09.66,2.34,2.34,0,0,1,.74,1.85,2.54,2.54,0,0,1-.82,2,3.19,3.19,0,0,1-2.23.76Zm0-4.34V31h1a2.28,2.28,0,0,0,1.55-.47,1.64,1.64,0,0,0,.54-1.31c0-1.11-.66-1.67-2-1.67Z"/><path class="cls-35" d="M158.85,35.09h-1v-8.4h1Z"/><path class="cls-35" d="M162,31.92v3.17h-1v-8.4h2.3a3,3,0,0,1,2.09.66,2.31,2.31,0,0,1,.74,1.85,2.54,2.54,0,0,1-.82,2,3.18,3.18,0,0,1-2.22.76Zm0-4.34V31h1a2.33,2.33,0,0,0,1.56-.47,1.67,1.67,0,0,0,.53-1.31c0-1.11-.65-1.67-2-1.67Z"/><path class="cls-35" d="M155.09,48.25H154l-.89-2.36h-3.57l-.83,2.36h-1.1l3.22-8.41h1ZM152.78,45l-1.31-3.58a2.71,2.71,0,0,1-.13-.57h0a3.51,3.51,0,0,1-.13.57L149.87,45Z"/><path class="cls-35" d="M162.16,40.08l-4.92,7.28H162v.89h-6.27V48l4.88-7.24h-4.49v-.89h6Z"/><path class="cls-35" d="M166.94,42.05a1.76,1.76,0,0,0-.12-.68,1.25,1.25,0,0,0-.33-.47,1.28,1.28,0,0,0-.49-.29,2,2,0,0,0-.61-.09,2.08,2.08,0,0,0-.55.07,2.57,2.57,0,0,0-.52.21,3,3,0,0,0-.49.33,3.47,3.47,0,0,0-.45.41v-1a3,3,0,0,1,.91-.6,3.14,3.14,0,0,1,1.22-.21,3,3,0,0,1,1,.15,2.3,2.3,0,0,1,.76.44,2.19,2.19,0,0,1,.51.71,2.42,2.42,0,0,1,.18,1,3.6,3.6,0,0,1-.11.91,3.08,3.08,0,0,1-.35.76,3.33,3.33,0,0,1-.58.68,7.54,7.54,0,0,1-.83.67c-.39.28-.72.52-1,.72a4.34,4.34,0,0,0-.61.56,1.75,1.75,0,0,0-.32.52,1.89,1.89,0,0,0-.09.6h4.18v.87h-5.18v-.42a3.82,3.82,0,0,1,.11-.95,2.59,2.59,0,0,1,.39-.78,4.83,4.83,0,0,1,.71-.74c.29-.24.64-.52,1.07-.83a6.69,6.69,0,0,0,.76-.63,3.27,3.27,0,0,0,.5-.59,2.16,2.16,0,0,0,.26-.61A2.32,2.32,0,0,0,166.94,42.05Z"/><path class="cls-35" d="M18.13,10.16H17l-.89-2.35H12.58l-.83,2.35h-1.1l3.22-8.4h1ZM15.82,6.92,14.51,3.34a2.59,2.59,0,0,1-.13-.56h0a3.36,3.36,0,0,1-.13.56L12.91,6.92Z"/><path class="cls-35" d="M25.2,2,20.28,9.27h4.8v.89H18.81V9.89l4.88-7.24H19.2V1.76h6Z"/><path class="cls-35" d="M29.7,10.16h-1V2.9a2.11,2.11,0,0,1-.33.26,5.1,5.1,0,0,1-.48.28c-.18.09-.36.18-.56.26a3.63,3.63,0,0,1-.58.2v-1a5.46,5.46,0,0,0,.67-.24,6.44,6.44,0,0,0,.7-.34c.23-.12.44-.25.65-.38a6.62,6.62,0,0,0,.53-.4h.36Z"/><path class="cls-35" d="M118.17,10.16h-1.09l-.89-2.35h-3.56l-.84,2.35h-1.1l3.22-8.4h1Zm-2.3-3.24-1.32-3.58a2.59,2.59,0,0,1-.13-.56h0a3.23,3.23,0,0,1-.14.56L113,6.92Z"/><path class="cls-35" d="M125.24,2l-4.92,7.28h4.8v.89h-6.27V9.89l4.88-7.24h-4.49V1.76h6Z"/><path class="cls-35" d="M130,4a1.71,1.71,0,0,0-.12-.67,1.37,1.37,0,0,0-.33-.48,1.19,1.19,0,0,0-.49-.28,1.68,1.68,0,0,0-.6-.1,2.1,2.1,0,0,0-.56.08,2.57,2.57,0,0,0-.52.21,3.74,3.74,0,0,0-.49.32,3.51,3.51,0,0,0-.44.42v-1a2.84,2.84,0,0,1,.9-.6,3.14,3.14,0,0,1,1.22-.21,3,3,0,0,1,1,.15,2.27,2.27,0,0,1,.76.43,2.3,2.3,0,0,1,.51.71,2.47,2.47,0,0,1,.18,1,3.58,3.58,0,0,1-.11.9,2.92,2.92,0,0,1-.35.76,3.67,3.67,0,0,1-.58.69,8.92,8.92,0,0,1-.83.67c-.39.28-.72.52-1,.72a3.81,3.81,0,0,0-.61.56,1.63,1.63,0,0,0-.32.52,1.8,1.8,0,0,0-.09.6h4.18v.86h-5.18V9.75a3.82,3.82,0,0,1,.11-.95,2.38,2.38,0,0,1,.39-.78,4.07,4.07,0,0,1,.71-.74c.29-.25.64-.52,1.07-.83a6.69,6.69,0,0,0,.76-.63,3.31,3.31,0,0,0,.5-.6,2.23,2.23,0,0,0,.26-.6A2.39,2.39,0,0,0,130,4Z"/><path class="cls-35" d="M252.17,31.92v3.17h-1v-8.4h2.31a3,3,0,0,1,2.09.66,2.31,2.31,0,0,1,.74,1.85,2.54,2.54,0,0,1-.82,2,3.18,3.18,0,0,1-2.22.76Zm0-4.34V31h1a2.33,2.33,0,0,0,1.56-.47,1.67,1.67,0,0,0,.53-1.31c0-1.11-.65-1.67-2-1.67Z"/><path class="cls-35" d="M258.89,35.09h-1v-8.4h1Z"/><path class="cls-35" d="M262.08,31.92v3.17h-1v-8.4h2.31a3,3,0,0,1,2.09.66,2.34,2.34,0,0,1,.74,1.85,2.55,2.55,0,0,1-.83,2,3.16,3.16,0,0,1-2.22.76Zm0-4.34V31h1a2.33,2.33,0,0,0,1.56-.47,1.64,1.64,0,0,0,.54-1.31c0-1.11-.66-1.67-2-1.67Z"/><path class="cls-35" d="M255.13,48.25H254l-.89-2.36h-3.56l-.84,2.36h-1.1l3.23-8.41h1ZM252.83,45l-1.32-3.58a3.55,3.55,0,0,1-.13-.57h0a3.38,3.38,0,0,1-.14.57L249.92,45Z"/><path class="cls-35" d="M262.2,40.08l-4.92,7.28h4.8v.89h-6.27V48l4.88-7.24H256.2v-.89h6Z"/><path class="cls-35" d="M268,45.87a2.46,2.46,0,0,1-.21,1,2.25,2.25,0,0,1-.6.8,2.74,2.74,0,0,1-.94.51,3.78,3.78,0,0,1-1.2.18,3.53,3.53,0,0,1-1.91-.45v-1a3.06,3.06,0,0,0,1.95.67,2.79,2.79,0,0,0,.79-.11,1.69,1.69,0,0,0,.61-.32,1.39,1.39,0,0,0,.39-.51,1.65,1.65,0,0,0,.14-.68c0-1.09-.78-1.64-2.34-1.64H264v-.82h.66c1.38,0,2.07-.51,2.07-1.54s-.52-1.43-1.58-1.43a2.7,2.7,0,0,0-1.67.6v-.94a3.66,3.66,0,0,1,1.91-.48,2.93,2.93,0,0,1,1,.15,2.16,2.16,0,0,1,.73.41,1.93,1.93,0,0,1,.47.63,2,2,0,0,1,.17.82,2.06,2.06,0,0,1-1.68,2.13v0a2.49,2.49,0,0,1,.79.21,2,2,0,0,1,.63.42,1.73,1.73,0,0,1,.41.61A1.92,1.92,0,0,1,268,45.87Z"/><path class="cls-35" d="M83.26,90.26H82.17l-.89-2.35H77.72l-.84,2.35h-1.1L79,81.86h1ZM81,87l-1.32-3.58a3.38,3.38,0,0,1-.13-.56h0a3.23,3.23,0,0,1-.14.56L78.05,87Z"/><path class="cls-35" d="M90.33,82.09l-4.92,7.28h4.81v.89H83.94V90l4.88-7.24H84.33v-.89h6Z"/><path class="cls-35" d="M94.83,90.26h-1V83a2,2,0,0,1-.32.26l-.48.28c-.18.09-.37.18-.57.26a3.54,3.54,0,0,1-.57.2V83a6.12,6.12,0,0,0,.67-.24,7.48,7.48,0,0,0,.7-.34c.22-.12.44-.25.64-.38a5.2,5.2,0,0,0,.53-.4h.36Z"/><path class="cls-35" d="M36.59,203.28H35.5l-.89-2.35H31l-.83,2.35h-1.1l3.22-8.4h1ZM34.28,200,33,196.46a2.44,2.44,0,0,1-.13-.56h0a3.13,3.13,0,0,1-.13.56L31.37,200Z"/><path class="cls-35" d="M43.66,195.11l-4.92,7.28h4.8v.89H37.27V203l4.88-7.24H37.66v-.89h6Z"/><path class="cls-35" d="M48.16,203.28h-1V196a2.11,2.11,0,0,1-.33.26,5.1,5.1,0,0,1-.48.28,5.85,5.85,0,0,1-.56.27,4.89,4.89,0,0,1-.58.19v-1a5.46,5.46,0,0,0,.67-.24,6.44,6.44,0,0,0,.7-.34c.23-.12.45-.25.65-.38a6.62,6.62,0,0,0,.53-.4h.36Z"/><path class="cls-35" d="M183.18,90.26h-1.09l-.89-2.35h-3.57l-.83,2.35h-1.1l3.22-8.4h1ZM180.87,87l-1.31-3.58a2.59,2.59,0,0,1-.13-.56h0a3.36,3.36,0,0,1-.13.56L178,87Z"/><path class="cls-35" d="M190.25,82.09l-4.92,7.28h4.8v.89h-6.27V90l4.88-7.24h-4.49v-.89h6Z"/><path class="cls-35" d="M195,84.06a1.71,1.71,0,0,0-.12-.67,1.37,1.37,0,0,0-.33-.48,1.26,1.26,0,0,0-.49-.28,1.7,1.7,0,0,0-.61-.1,2.09,2.09,0,0,0-.55.08,2.57,2.57,0,0,0-.52.21,3.17,3.17,0,0,0-.49.32,4.47,4.47,0,0,0-.45.42v-1a2.88,2.88,0,0,1,.91-.6,3.14,3.14,0,0,1,1.22-.21,3,3,0,0,1,1,.15,2.27,2.27,0,0,1,.76.43,2.12,2.12,0,0,1,.5.71,2.3,2.3,0,0,1,.19,1,3.16,3.16,0,0,1-.12.9,2.6,2.6,0,0,1-.34.76,4.09,4.09,0,0,1-.58.69,8.92,8.92,0,0,1-.83.67l-1,.72a4.94,4.94,0,0,0-.61.56,1.59,1.59,0,0,0-.31.52,1.8,1.8,0,0,0-.09.6h4.18v.86h-5.18v-.41a3.4,3.4,0,0,1,.11-.95,2.38,2.38,0,0,1,.39-.78,3.75,3.75,0,0,1,.71-.74c.29-.25.64-.52,1.06-.83a6.87,6.87,0,0,0,.77-.63,3.23,3.23,0,0,0,.49-.6,2,2,0,0,0,.27-.6A2.84,2.84,0,0,0,195,84.06Z"/><path class="cls-35" d="M283.22,90.26h-1.09l-.89-2.35h-3.56l-.84,2.35h-1.1l3.22-8.4h1ZM280.92,87l-1.32-3.58a2.59,2.59,0,0,1-.13-.56h0a3.23,3.23,0,0,1-.14.56L278,87Z"/><path class="cls-35" d="M290.29,82.09l-4.92,7.28h4.8v.89H283.9V90l4.88-7.24h-4.49v-.89h6Z"/><path class="cls-35" d="M296.13,87.88a2.51,2.51,0,0,1-.21,1,2.22,2.22,0,0,1-.6.79,2.85,2.85,0,0,1-.94.52,3.78,3.78,0,0,1-1.2.18,3.44,3.44,0,0,1-1.91-.46v-1a3,3,0,0,0,1.94.67,2.81,2.81,0,0,0,.8-.11,1.88,1.88,0,0,0,.61-.33,1.39,1.39,0,0,0,.39-.51,1.57,1.57,0,0,0,.14-.67c0-1.1-.78-1.65-2.35-1.65h-.69v-.81h.66c1.38,0,2.07-.52,2.07-1.55s-.52-1.43-1.58-1.43a2.7,2.7,0,0,0-1.67.6V82.2a3.66,3.66,0,0,1,1.91-.48,2.93,2.93,0,0,1,1,.15,2,2,0,0,1,.73.41,1.74,1.74,0,0,1,.47.63,2,2,0,0,1,.17.81,2.06,2.06,0,0,1-1.68,2.14v0a2.49,2.49,0,0,1,.79.21,1.83,1.83,0,0,1,.63.42,1.78,1.78,0,0,1,.41.6A1.92,1.92,0,0,1,296.13,87.88Z"/><path class="cls-35" d="M218.21,10.16h-1.09l-.89-2.35h-3.56l-.84,2.35h-1.1L214,1.76h1Zm-2.3-3.24-1.32-3.58a3.38,3.38,0,0,1-.13-.56h0a3.23,3.23,0,0,1-.14.56L213,6.92Z"/><path class="cls-35" d="M225.28,2l-4.92,7.28h4.81v.89h-6.28V9.89l4.88-7.24h-4.49V1.76h6Z"/><path class="cls-35" d="M231.13,7.78a2.51,2.51,0,0,1-.22,1,2.22,2.22,0,0,1-.6.79,2.76,2.76,0,0,1-.94.52,3.78,3.78,0,0,1-1.2.18,3.44,3.44,0,0,1-1.91-.46v-1a3.12,3.12,0,0,0,2,.67,2.79,2.79,0,0,0,.79-.11,1.88,1.88,0,0,0,.61-.33,1.39,1.39,0,0,0,.39-.51,1.57,1.57,0,0,0,.14-.67q0-1.65-2.34-1.65h-.7V5.41h.66c1.38,0,2.08-.52,2.08-1.55s-.53-1.43-1.59-1.43a2.7,2.7,0,0,0-1.67.6V2.1a3.69,3.69,0,0,1,1.91-.48,3.18,3.18,0,0,1,1,.14,2.18,2.18,0,0,1,.73.42,1.74,1.74,0,0,1,.47.63,2,2,0,0,1,.17.81,2.06,2.06,0,0,1-1.68,2.14v0a2.62,2.62,0,0,1,.8.21,2,2,0,0,1,1,1A1.92,1.92,0,0,1,231.13,7.78Z"/><path class="cls-35" d="M138.85,127.67h2v.84h-2v.93a5.3,5.3,0,0,1-4.63,6.2l-.5-.71a5.37,5.37,0,0,0,3.29-1.74,6,6,0,0,0,.92-3.64v-1h-3.08v3.29h-.93v-3.29h-1.87v-.84h1.87v-2.46h.93v2.46h3.08v-2.49h.92Z"/><path class="cls-35" d="M147.91,126.18a11.93,11.93,0,0,0-.65-1.47l.63-.25a16.64,16.64,0,0,1,.9,2.1l-.4.17.16.37a10.27,10.27,0,0,1-1.72,5.88,8.81,8.81,0,0,1-4,2.64l-.51-.75a7.57,7.57,0,0,0,4-2.84,9.12,9.12,0,0,0,1.2-5h-5.73v-.83Zm.76-1.77.62-.22a10,10,0,0,1,.87,2l-.64.26A11.91,11.91,0,0,0,148.67,124.41Z"/><path class="cls-35" d="M155.48,126.76h2.78l.27.6a19.22,19.22,0,0,1-3,3v5.22h-.95v-4.5a20.81,20.81,0,0,1-3.71,2l-.5-.71a16.75,16.75,0,0,0,6.78-4.82h-6v-.84h3.42V125h.95Zm.82,4,.56-.63a21.88,21.88,0,0,1,2.75,2.16l-.6.8A18.12,18.12,0,0,0,156.3,130.8Z"/><path class="cls-35" d="M159.84,128.35l.78-.34a16,16,0,0,1,1,2.71l-.81.32A15,15,0,0,0,159.84,128.35Zm1.36,6.75a6.33,6.33,0,0,0,3.29-2.74,10.6,10.6,0,0,0,1.07-4.59l.9.2a12,12,0,0,1-1.23,4.85,5.86,5.86,0,0,1-1.47,1.73,8.91,8.91,0,0,1-2,1.18Zm1-7.28.77-.32a15.48,15.48,0,0,1,.9,2.66l-.8.34A13.18,13.18,0,0,0,162.16,127.82Z"/><path class="cls-35" d="M169.44,129.68v5.91h-.95V125.16h.95v3.61a18.85,18.85,0,0,1,4.68,2l-.47.9A15.72,15.72,0,0,0,169.44,129.68Z"/><path class="cls-35" d="M179.18,135.1v-8.71h2.45a2.66,2.66,0,0,1,1.77.55,1.81,1.81,0,0,1,.65,1.44,2.19,2.19,0,0,1-.39,1.29,2.16,2.16,0,0,1-1.09.77v0a2.2,2.2,0,0,1,1.39.66,2.1,2.1,0,0,1,.52,1.46,2.3,2.3,0,0,1-.79,1.81,3,3,0,0,1-2,.7Zm1-7.79v2.81h1a1.93,1.93,0,0,0,1.3-.4,1.41,1.41,0,0,0,.48-1.14c0-.85-.55-1.27-1.65-1.27Zm0,3.73v3.13h1.37a2,2,0,0,0,1.37-.42,1.46,1.46,0,0,0,.49-1.17c0-1-.69-1.54-2.07-1.54Z"/><path class="cls-35" d="M38.36,127.86h2v.84h-2v.92a6.54,6.54,0,0,1-1.29,4.49,6.49,6.49,0,0,1-3.35,1.72l-.5-.71a5.34,5.34,0,0,0,3.29-1.74,6,6,0,0,0,.92-3.64v-1H34.35V132h-.92V128.7H31.55v-.84h1.88V125.4h.92v2.46h3.08v-2.49h.93Z"/><path class="cls-35" d="M47.41,126.37a9.61,9.61,0,0,0-.65-1.47l.63-.25a16.33,16.33,0,0,1,.91,2.1l-.41.17.16.37a10.27,10.27,0,0,1-1.72,5.88,8.81,8.81,0,0,1-4,2.64l-.51-.75a7.53,7.53,0,0,0,4-2.84,9.12,9.12,0,0,0,1.2-5H41.31v-.83Zm.77-1.77.61-.22a10,10,0,0,1,.87,2l-.64.26A12.79,12.79,0,0,0,48.18,124.6Z"/><path class="cls-35" d="M55,127h2.78l.27.6a19.22,19.22,0,0,1-3,3v5.22h-.95v-4.5a20.47,20.47,0,0,1-3.71,2l-.5-.71a16.68,16.68,0,0,0,6.78-4.83h-6V127H54v-1.79H55Zm.83,4,.55-.63a21.88,21.88,0,0,1,2.75,2.16l-.6.8A18.55,18.55,0,0,0,55.81,131Z"/><path class="cls-35" d="M59.34,128.54l.78-.34a15.62,15.62,0,0,1,1,2.71l-.81.32A15,15,0,0,0,59.34,128.54Zm1.36,6.74A6.26,6.26,0,0,0,64,132.55,10.46,10.46,0,0,0,65.06,128l.9.2A12,12,0,0,1,64.73,133a5.71,5.71,0,0,1-1.47,1.73,8.91,8.91,0,0,1-2,1.18Zm1-7.27.77-.32a15.48,15.48,0,0,1,.9,2.66l-.8.34A12.59,12.59,0,0,0,61.66,128Z"/><path class="cls-35" d="M68.94,129.87v5.91H68V125.35h1V129a18.85,18.85,0,0,1,4.68,2l-.47.9A15.72,15.72,0,0,0,68.94,129.87Z"/><path class="cls-35" d="M85.34,135.28H84.23l-.92-2.44H79.67l-.86,2.44H77.69l3.3-8.7h1ZM83,131.93l-1.35-3.71a5.8,5.8,0,0,1-.13-.59h0a3.69,3.69,0,0,1-.14.59L80,131.93Z"/><path class="cls-35" d="M238.58,127.67h2v.84h-2v.93a6.53,6.53,0,0,1-1.29,4.48,6.41,6.41,0,0,1-3.34,1.72l-.5-.71a5.4,5.4,0,0,0,3.29-1.74,6,6,0,0,0,.92-3.64v-1h-3.08v3.29h-.93v-3.29h-1.88v-.84h1.88v-2.46h.93v2.46h3.08v-2.49h.92Z"/><path class="cls-35" d="M247.64,126.18a11.93,11.93,0,0,0-.65-1.47l.63-.25a18.29,18.29,0,0,1,.9,2.1l-.4.17.16.37a10.19,10.19,0,0,1-1.73,5.88,8.77,8.77,0,0,1-4,2.64l-.52-.75a7.55,7.55,0,0,0,4-2.84,9.2,9.2,0,0,0,1.2-5h-5.74v-.83Zm.76-1.77.61-.22a9.48,9.48,0,0,1,.88,2l-.64.26A11.91,11.91,0,0,0,248.4,124.41Z"/><path class="cls-35" d="M255.21,126.76H258l.27.6a18.85,18.85,0,0,1-3,3v5.22h-.94v-4.5a20.81,20.81,0,0,1-3.71,2l-.5-.71a16.65,16.65,0,0,0,6.77-4.82h-6v-.84h3.42V125h1Zm.82,4,.55-.63a22,22,0,0,1,2.76,2.16l-.6.8A18.12,18.12,0,0,0,256,130.8Z"/><path class="cls-35" d="M259.56,128.35l.79-.34a17.86,17.86,0,0,1,1,2.71l-.81.32A15.06,15.06,0,0,0,259.56,128.35Zm1.37,6.75a6.33,6.33,0,0,0,3.29-2.74,10.6,10.6,0,0,0,1.07-4.59l.9.2a12,12,0,0,1-1.23,4.85,6,6,0,0,1-1.47,1.73,8.78,8.78,0,0,1-2,1.18Zm1-7.28.77-.32a15.48,15.48,0,0,1,.9,2.66l-.81.34A13.21,13.21,0,0,0,261.89,127.82Z"/><path class="cls-35" d="M269.16,129.68v5.91h-.94V125.16h.94v3.61a18.53,18.53,0,0,1,4.68,2l-.46.9A15.65,15.65,0,0,0,269.16,129.68Z"/><path class="cls-35" d="M284.76,134.73a5,5,0,0,1-2.37.51,3.81,3.81,0,0,1-2.94-1.2,4.4,4.4,0,0,1-1.1-3.13,4.65,4.65,0,0,1,1.24-3.38,4.19,4.19,0,0,1,3.15-1.29,4.94,4.94,0,0,1,2,.36v1.09a4,4,0,0,0-2-.53,3.13,3.13,0,0,0-2.41,1,3.8,3.8,0,0,0-.92,2.67,3.63,3.63,0,0,0,.86,2.54,2.92,2.92,0,0,0,2.26.94,4.15,4.15,0,0,0,2.24-.58Z"/><path class="cls-35" d="M37.87,181.6l-3.13,8.54H33.66L30.6,181.6h1.1L34,188.37a3.72,3.72,0,0,1,.17.76h0a3.59,3.59,0,0,1,.19-.77l2.38-6.76Z"/><path class="cls-35" d="M47.64,190.14h-1v-5.73c0-.45,0-1,.08-1.66h0a7,7,0,0,1-.25.83l-2.89,6.56H43.1l-2.87-6.51a4.6,4.6,0,0,1-.26-.88h0c0,.34,0,.9,0,1.68v5.71H39V181.6h1.31l2.59,6a7.91,7.91,0,0,1,.39,1h0c.17-.47.3-.82.41-1.05l2.64-5.93h1.23Z"/><path class="cls-35" d="M73.25,203.28H72.16l-.89-2.35H67.71l-.84,2.35h-1.1l3.23-8.4h1ZM71,200l-1.32-3.58a3.14,3.14,0,0,1-.13-.56h0a3,3,0,0,1-.14.56L68,200Z"/><path class="cls-35" d="M80.32,195.11l-4.92,7.28h4.81v.89H73.93V203l4.88-7.24H74.32v-.89h6Z"/><path class="cls-35" d="M84.82,203.28h-1V196a2,2,0,0,1-.32.26l-.48.28c-.18.1-.37.18-.57.27a4.76,4.76,0,0,1-.57.19v-1a6.12,6.12,0,0,0,.67-.24,6.3,6.3,0,0,0,.69-.34c.23-.12.45-.25.65-.38a5.2,5.2,0,0,0,.53-.4h.36Z"/><path class="cls-35" d="M74.53,181.6l-3.12,8.54H70.32l-3.06-8.54h1.1l2.34,6.77a4.53,4.53,0,0,1,.17.76h0a4.31,4.31,0,0,1,.19-.77l2.39-6.76Z"/><path class="cls-35" d="M84.31,190.14h-1v-5.73c0-.45,0-1,.09-1.66h0a5.46,5.46,0,0,1-.25.83l-2.88,6.56h-.49l-2.87-6.51a4.74,4.74,0,0,1-.25-.88h0c0,.34,0,.9,0,1.68v5.71h-1V181.6H77l2.59,6a7.91,7.91,0,0,1,.39,1h0c.17-.47.31-.82.41-1.05l2.64-5.93h1.24Z"/><path class="cls-35" d="M136.53,203.28h-1.09l-.89-2.35H131l-.84,2.35h-1.09l3.22-8.4h1Zm-2.3-3.24-1.32-3.58a4.39,4.39,0,0,1-.13-.56h0a3.13,3.13,0,0,1-.13.56L131.32,200Z"/><path class="cls-35" d="M143.61,195.11l-4.92,7.28h4.8v.89h-6.28V203l4.89-7.24h-4.49v-.89h6Z"/><path class="cls-35" d="M148.39,197.08a1.74,1.74,0,0,0-.12-.67,1.37,1.37,0,0,0-.33-.48,1.26,1.26,0,0,0-.49-.28,2,2,0,0,0-.61-.1,2,2,0,0,0-.55.08,2.57,2.57,0,0,0-.52.21,3.84,3.84,0,0,0-.5.32,5.77,5.77,0,0,0-.44.42v-1a2.88,2.88,0,0,1,.91-.6,3.14,3.14,0,0,1,1.22-.21,2.91,2.91,0,0,1,.95.15,2.1,2.1,0,0,1,.77.44,2,2,0,0,1,.5.7,2.33,2.33,0,0,1,.19,1,3.16,3.16,0,0,1-.12.9,2.78,2.78,0,0,1-.34.77,4,4,0,0,1-.59.68,8.71,8.71,0,0,1-.82.67c-.4.28-.72.52-1,.72a5,5,0,0,0-.61.56,1.59,1.59,0,0,0-.31.52,1.8,1.8,0,0,0-.09.6h4.18v.86H144.5v-.41a3.38,3.38,0,0,1,.12-1,2.38,2.38,0,0,1,.39-.78,4.33,4.33,0,0,1,.7-.74c.29-.25.65-.52,1.07-.83a6.87,6.87,0,0,0,.77-.63,3.23,3.23,0,0,0,.49-.6,2,2,0,0,0,.27-.6A2.84,2.84,0,0,0,148.39,197.08Z"/><path class="cls-35" d="M137.81,181.6l-3.12,8.54H133.6l-3-8.54h1.1l2.33,6.77a4.53,4.53,0,0,1,.17.76h0a4.39,4.39,0,0,1,.2-.77l2.38-6.76Z"/><path class="cls-35" d="M147.59,190.14h-1v-5.73c0-.45,0-1,.08-1.66h0a5.22,5.22,0,0,1-.26.83l-2.88,6.56h-.48l-2.88-6.51a5.68,5.68,0,0,1-.25-.88h0c0,.34,0,.9,0,1.68v5.71H139V181.6h1.31l2.58,6a7.91,7.91,0,0,1,.39,1h0c.17-.47.3-.82.4-1.05l2.64-5.93h1.24Z"/><path class="cls-35" d="M173.39,203.28H172.3l-.89-2.35h-3.57l-.83,2.35h-1.1l3.22-8.4h1ZM171.08,200l-1.31-3.58a2.44,2.44,0,0,1-.13-.56h0a2.45,2.45,0,0,1-.13.56L168.17,200Z"/><path class="cls-35" d="M180.46,195.11l-4.92,7.28h4.8v.89h-6.27V203l4.88-7.24h-4.49v-.89h6Z"/><path class="cls-35" d="M185.24,197.08a1.74,1.74,0,0,0-.12-.67,1.37,1.37,0,0,0-.33-.48,1.26,1.26,0,0,0-.49-.28,2,2,0,0,0-.61-.1,2.09,2.09,0,0,0-.55.08,2.57,2.57,0,0,0-.52.21,3.74,3.74,0,0,0-.49.32,4.47,4.47,0,0,0-.45.42v-1a3,3,0,0,1,.91-.6,3.14,3.14,0,0,1,1.22-.21,3,3,0,0,1,1,.15A2.11,2.11,0,0,1,186,196a2.5,2.5,0,0,1,.18,1,3.58,3.58,0,0,1-.11.9,3.15,3.15,0,0,1-.35.77,4,4,0,0,1-.58.68,8.92,8.92,0,0,1-.83.67c-.39.28-.72.52-1,.72a4.34,4.34,0,0,0-.61.56,1.63,1.63,0,0,0-.32.52,1.8,1.8,0,0,0-.09.6h4.18v.86h-5.18v-.41a3.82,3.82,0,0,1,.11-1,2.38,2.38,0,0,1,.39-.78,4.42,4.42,0,0,1,.71-.74c.29-.25.64-.52,1.07-.83a6.69,6.69,0,0,0,.76-.63,3.31,3.31,0,0,0,.5-.6,2.23,2.23,0,0,0,.26-.6A2.84,2.84,0,0,0,185.24,197.08Z"/><path class="cls-35" d="M174.67,181.6l-3.13,8.54h-1.08l-3.06-8.54h1.1l2.33,6.77a3.72,3.72,0,0,1,.17.76h0a3.59,3.59,0,0,1,.19-.77l2.38-6.76Z"/><path class="cls-35" d="M184.44,190.14h-1v-5.73c0-.45,0-1,.08-1.66h0a7,7,0,0,1-.25.83l-2.89,6.56h-.48L177,183.63a4.6,4.6,0,0,1-.26-.88h0c0,.34.05.9.05,1.68v5.71h-1V181.6h1.31l2.59,6a7.91,7.91,0,0,1,.39,1h0c.17-.47.3-.82.41-1.05l2.64-5.93h1.23Z"/><path class="cls-35" d="M236.67,203.28h-1.09l-.89-2.35h-3.56l-.84,2.35H229.2l3.22-8.4h1Zm-2.3-3.24-1.32-3.58a3.14,3.14,0,0,1-.13-.56h0a3,3,0,0,1-.14.56l-1.3,3.58Z"/><path class="cls-35" d="M243.74,195.11l-4.92,7.28h4.81v.89h-6.28V203l4.88-7.24h-4.49v-.89h6Z"/><path class="cls-35" d="M249.59,200.9a2.51,2.51,0,0,1-.22,1,2.22,2.22,0,0,1-.6.79,2.6,2.6,0,0,1-.94.52,3.78,3.78,0,0,1-1.2.18,3.46,3.46,0,0,1-1.91-.46v-1a3.06,3.06,0,0,0,1.95.67,2.74,2.74,0,0,0,.79-.11,1.86,1.86,0,0,0,.61-.32,1.58,1.58,0,0,0,.39-.51,1.51,1.51,0,0,0,.14-.68c0-1.1-.78-1.64-2.34-1.64h-.7v-.82h.66c1.39,0,2.08-.52,2.08-1.55s-.53-1.43-1.59-1.43a2.7,2.7,0,0,0-1.67.6v-.93a3.7,3.7,0,0,1,1.92-.48,2.83,2.83,0,0,1,.95.15,1.93,1.93,0,0,1,.73.41,1.63,1.63,0,0,1,.47.63,1.84,1.84,0,0,1,.17.81,2.06,2.06,0,0,1-1.67,2.14v0a2.64,2.64,0,0,1,.79.21,1.94,1.94,0,0,1,.62.42,1.81,1.81,0,0,1,.42.6A2,2,0,0,1,249.59,200.9Z"/><path class="cls-35" d="M238,181.6l-3.12,8.54h-1.09l-3.06-8.54h1.1l2.34,6.77a4.53,4.53,0,0,1,.17.76h0a4.31,4.31,0,0,1,.19-.77l2.39-6.76Z"/><path class="cls-35" d="M247.73,190.14h-1v-5.73c0-.45,0-1,.09-1.66h0a5.46,5.46,0,0,1-.25.83l-2.88,6.56h-.48l-2.88-6.51a4.74,4.74,0,0,1-.25-.88h0c0,.34.05.9.05,1.68v5.71h-1V181.6h1.3l2.59,6a7.91,7.91,0,0,1,.39,1h0c.17-.47.31-.82.41-1.05l2.64-5.93h1.24Z"/><path class="cls-35" d="M273.43,203.28h-1.09l-.89-2.35h-3.56l-.84,2.35H266l3.23-8.4h1Zm-2.3-3.24-1.32-3.58a3.14,3.14,0,0,1-.13-.56h0a3,3,0,0,1-.14.56L268.21,200Z"/><path class="cls-35" d="M280.5,195.11l-4.92,7.28h4.8v.89h-6.27V203l4.88-7.24H274.5v-.89h6Z"/><path class="cls-35" d="M286.34,200.9a2.51,2.51,0,0,1-.21,1,2.22,2.22,0,0,1-.6.79,2.6,2.6,0,0,1-.94.52,3.78,3.78,0,0,1-1.2.18,3.44,3.44,0,0,1-1.91-.46v-1a3.06,3.06,0,0,0,1.95.67,2.79,2.79,0,0,0,.79-.11,1.86,1.86,0,0,0,.61-.32,1.58,1.58,0,0,0,.39-.51,1.65,1.65,0,0,0,.14-.68c0-1.1-.78-1.64-2.34-1.64h-.7v-.82H283c1.38,0,2.07-.52,2.07-1.55s-.52-1.43-1.58-1.43a2.7,2.7,0,0,0-1.67.6v-.93a3.66,3.66,0,0,1,1.91-.48,2.93,2.93,0,0,1,1,.15,2,2,0,0,1,.73.41,1.74,1.74,0,0,1,.47.63,2,2,0,0,1,.17.81,2.06,2.06,0,0,1-1.68,2.14v0a2.49,2.49,0,0,1,.79.21,1.88,1.88,0,0,1,.63.42,1.78,1.78,0,0,1,.41.6A2,2,0,0,1,286.34,200.9Z"/><path class="cls-35" d="M274.71,181.6l-3.12,8.54H270.5l-3.06-8.54h1.1l2.34,6.77a4.53,4.53,0,0,1,.17.76h0a4.31,4.31,0,0,1,.19-.77l2.39-6.76Z"/><path class="cls-35" d="M284.48,190.14h-1v-5.73c0-.45,0-1,.08-1.66h0a5.46,5.46,0,0,1-.25.83l-2.88,6.56h-.49l-2.87-6.51a5.48,5.48,0,0,1-.26-.88h0c0,.34,0,.9,0,1.68v5.71h-.95V181.6h1.3l2.59,6a7.91,7.91,0,0,1,.39,1h0c.17-.47.31-.82.41-1.05l2.64-5.93h1.23Z"/><path class="cls-35" d="M13.6,240c0,.05,0,.11-.12.17a1.2,1.2,0,0,0-.25.45,17.17,17.17,0,0,1-.84,1.84v6.07l0,1.92c0,.06,0,.09-.1.09h-.57c-.06,0-.1,0-.1-.09l0-1.92v-3.16c0-.75,0-1.32,0-1.72a15.72,15.72,0,0,1-1.13,1.52.54.54,0,0,1-.14.13s-.07,0-.11-.1a1.4,1.4,0,0,0-.32-.52,12.69,12.69,0,0,0,2.53-4.27,3.07,3.07,0,0,0,.21-.83,5,5,0,0,1,.72.27Q13.6,239.9,13.6,240Zm7.75,9.68a1.92,1.92,0,0,0-.34.48c-.06.12-.11.18-.14.18l-.2-.08a11.9,11.9,0,0,1-2.78-2,9.32,9.32,0,0,1-2.72,2.11.44.44,0,0,1-.19.07s-.08-.06-.17-.17a1.59,1.59,0,0,0-.37-.4,9.13,9.13,0,0,0,3-2.14A8.31,8.31,0,0,1,15.67,244h-.55a16.93,16.93,0,0,1-.25,2.88,7.86,7.86,0,0,1-1.46,3.37c-.08.11-.14.16-.17.16s-.08,0-.14-.15a1.53,1.53,0,0,0-.39-.38,6.64,6.64,0,0,0,1.46-3.21,20.93,20.93,0,0,0,.23-3.62l0-2.55a.09.09,0,0,1,.1-.1l1.66,0h3.18l1.64,0c.05,0,.08,0,.08.1v.54c0,.06,0,.1-.08.1l-1.64,0H15.12v2.24h4.11a.78.78,0,0,0,.27,0,.29.29,0,0,1,.16-.05c.05,0,.16.08.34.23s.24.26.24.33a.24.24,0,0,1-.1.16,1.34,1.34,0,0,0-.27.49,11.78,11.78,0,0,1-1.55,3.18A11.23,11.23,0,0,0,21.35,249.68ZM19.28,244h-3a7.49,7.49,0,0,0,1.51,3.13A9.45,9.45,0,0,0,19.28,244Z"/><path class="cls-35" d="M27.25,244.21a1.9,1.9,0,0,0-.29.37c-.06.11-.11.16-.14.16s-.09,0-.16-.12a6.27,6.27,0,0,1-1.26-1.78c0,2.15.06,3.34.06,3.55s0,.1-.1.1h-.53a.09.09,0,0,1-.1-.1s0-.43,0-1.18,0-1.55,0-2.22a7,7,0,0,1-1.92,2.45.29.29,0,0,1-.16.08s-.09-.05-.16-.16a1.33,1.33,0,0,0-.35-.36,7.76,7.76,0,0,0,2.46-2.84H24l-1.36,0c-.07,0-.1,0-.1-.1v-.47c0-.07,0-.1.1-.1l1.36,0h.75v-.77a7.19,7.19,0,0,0-.07-1.14c.2,0,.45,0,.73.07.09,0,.13,0,.13.09a.57.57,0,0,1-.05.19,2.85,2.85,0,0,0-.06.77v.79h.34l1.34,0c.07,0,.11,0,.11.1v.47c0,.07,0,.1-.11.1l-1.34,0h-.3A6.79,6.79,0,0,0,27.25,244.21Zm-2.91,3.3a7.33,7.33,0,0,1-1.17,2.23s-.05,0-.08,0l-.12,0-.33-.21c-.09-.05-.13-.09-.13-.13a.18.18,0,0,1,0-.07,5.73,5.73,0,0,0,1.1-2.08c0-.06.05-.08.08-.08l.15,0,.3.13c.1,0,.16.09.16.12A.43.43,0,0,0,24.34,247.51Zm6.28,1.23A1.61,1.61,0,0,1,30,250a2.32,2.32,0,0,1-.91.27c-.28,0-.71.05-1.28.05a4.76,4.76,0,0,1-1.86-.21.88.88,0,0,1-.36-.36,1.58,1.58,0,0,1-.1-.65v-1.31a4.89,4.89,0,0,0-.07-.93,5.59,5.59,0,0,1,.74.08c.11,0,.16.06.16.12a1.36,1.36,0,0,1-.06.16,2,2,0,0,0-.06.6v1c0,.33.07.53.21.61a3.27,3.27,0,0,0,1.4.18,3.71,3.71,0,0,0,1.73-.25c.25-.16.4-.56.44-1.21a2.43,2.43,0,0,0,.49.24q.18.08.18.18S30.63,248.67,30.62,248.74Zm-1.68-.82a.29.29,0,0,1,0,.1s0,.07-.11.12l-.29.2a.44.44,0,0,1-.16.08s-.05,0-.08-.07a7.18,7.18,0,0,0-1.3-1.52s-.05-.05-.05-.07,0-.06.11-.11l.29-.19a.13.13,0,0,1,.19,0A8.18,8.18,0,0,1,28.94,247.92Zm3.22-1.67c0,.06,0,.09-.1.09l-1.32,0H29.2l-1.3,0c-.07,0-.11,0-.11-.09l0-1.44v-3.08l0-1.45c0-.07,0-.1.11-.1l1.3,0h1.54l1.32,0a.09.09,0,0,1,.1.1l0,1.45v3.08ZM31.44,242v-1.18h-3V242Zm0,1.81v-1.22h-3v1.22Zm0,1.9v-1.3h-3v1.3Zm1.5,3.41,0,0s-.05.08-.13.13l-.35.22-.16.08a.1.1,0,0,1-.07-.06,9.43,9.43,0,0,0-1.32-2.15s0,0,0-.07,0-.06.12-.11l.31-.17.12-.06s.07,0,.1.07A11.18,11.18,0,0,1,32.94,249.12Z"/><path class="cls-35" d="M15.2,254.72h2.73l.26.58a19,19,0,0,1-3,3v5.11H14.3V259a19.44,19.44,0,0,1-3.64,2l-.49-.69a16.35,16.35,0,0,0,6.64-4.73H10.92v-.82h3.35V253h.93Zm.81,4,.54-.62a20.24,20.24,0,0,1,2.7,2.12l-.59.78A17.91,17.91,0,0,0,16,258.68Z"/><path class="cls-35" d="M19.51,256.28l.77-.34a16.6,16.6,0,0,1,1,2.66l-.79.31A15.5,15.5,0,0,0,19.51,256.28Zm1.33,6.61a6.09,6.09,0,0,0,3.23-2.68,10.26,10.26,0,0,0,1.05-4.5l.88.19a11.65,11.65,0,0,1-1.2,4.76,5.79,5.79,0,0,1-1.44,1.7,8.86,8.86,0,0,1-2,1.15Zm.95-7.13.75-.32a15.15,15.15,0,0,1,.89,2.61l-.79.34A12.71,12.71,0,0,0,21.79,255.76Z"/><path class="cls-35" d="M29,257.59v5.79H28V253.15H29v3.54a18.51,18.51,0,0,1,4.59,1.93l-.46.88A15.13,15.13,0,0,0,29,257.59Z"/><path class="cls-35" d="M35.8,254.7v3.55h-.93v-4.37H41.7a18.55,18.55,0,0,1-.66,5.73A5.86,5.86,0,0,1,39.43,262a7.18,7.18,0,0,1-2.4,1.41l-.59-.68a5.39,5.39,0,0,0,3.7-3.34,15,15,0,0,0,.6-4.71Z"/><path class="cls-35" d="M42.94,257.89h6.55v.9H42.94Z"/><path class="cls-35" d="M53.6,255.17a11.35,11.35,0,0,1-2.21,3.51l-.69-.53a10.86,10.86,0,0,0,2.6-5.08l1,.15c-.08.31-.2.7-.35,1.14h4.18a13.1,13.1,0,0,1-2.3,6.41,9,9,0,0,1-3.81,2.7l-.53-.65a8.32,8.32,0,0,0,3.86-2.89,11.07,11.07,0,0,0,1.7-4.76Z"/><path class="cls-35" d="M201.3,249.26a1.9,1.9,0,0,0-.31.45c-.07.14-.13.2-.17.2a.62.62,0,0,1-.19-.06,12.41,12.41,0,0,1-3.16-1.93,8.35,8.35,0,0,1-1.91-2.42,11,11,0,0,1-4.88,4.36.7.7,0,0,1-.2.08s-.1-.07-.18-.2a1.44,1.44,0,0,0-.32-.38,11.86,11.86,0,0,0,2.76-1.61,9.64,9.64,0,0,0-1.45-1.28s-.06,0-.06-.06,0,0,.07-.1l.3-.27a.16.16,0,0,1,.1-.07l.08,0a10,10,0,0,1,1.5,1.3,8.06,8.06,0,0,0,1.58-2h-1.8l-1.28,0c-.08,0-.12,0-.12-.1v-.49q0-.09.12-.09l1.28,0h1.7l1,0a.18.18,0,0,1,.17.12,4.82,4.82,0,0,0,.61,1.13,4.93,4.93,0,0,0,.44.58,7.84,7.84,0,0,0,1-1.08,2.31,2.31,0,0,0,.32-.49,2.8,2.8,0,0,1,.61.4.18.18,0,0,1,.09.15.16.16,0,0,1-.11.13,1,1,0,0,0-.39.31,12,12,0,0,1-1.1,1,7,7,0,0,0,.91.77,10.86,10.86,0,0,0,1.24-1.18,2.41,2.41,0,0,0,.33-.5,4.62,4.62,0,0,1,.61.39.22.22,0,0,1,.09.16c0,.06,0,.1-.14.14a1.2,1.2,0,0,0-.37.3,11.34,11.34,0,0,1-1.2,1.06A11.58,11.58,0,0,0,201.3,249.26Zm-.43,4.22a4.83,4.83,0,0,1-.23,1,1.19,1.19,0,0,1-.4.46,6.45,6.45,0,0,1-3.45,0,.64.64,0,0,1-.33-.36,1.71,1.71,0,0,1-.08-.58V251.7h-1.91a4.1,4.1,0,0,1-1.19,2.35,6.14,6.14,0,0,1-2.21,1.2.41.41,0,0,1-.19.05s-.12-.06-.2-.19a1.7,1.7,0,0,0-.39-.42,5.87,5.87,0,0,0,2.46-1.16,3.43,3.43,0,0,0,1-1.83h-1.14l-1.73,0a.1.1,0,0,1-.11-.1v-.5c0-.07,0-.1.11-.1l1.73,0h1.24a12.5,12.5,0,0,0,.07-1.44v-.33l-.79,0h-.25c-.06,0-.09,0-.09-.1v-.48c0-.07,0-.1.09-.1l1.52,0h2.32l1.57,0a.09.09,0,0,1,.1.1v.48a.09.09,0,0,1-.1.1h-.15l-1,0v1.77h1.48l1.73,0c.07,0,.11,0,.11.1v.5a.1.1,0,0,1-.11.1l-1.73,0h-1.48v2.11c0,.3.06.49.17.56a2.87,2.87,0,0,0,1.22.15,2.61,2.61,0,0,0,1.29-.2c.21-.15.34-.62.39-1.39a2.69,2.69,0,0,0,.48.24c.15.05.22.11.22.18A1.05,1.05,0,0,1,200.87,253.48Zm-4.49-2.43v-1.77h-1.75v.33q0,.73-.06,1.44Z"/><path class="cls-35" d="M205.75,244.5a.27.27,0,0,1-.1.19,1.43,1.43,0,0,0-.24.49c-.25.72-.49,1.32-.71,1.8v6.39l0,2c0,.06,0,.1-.09.1H204c-.06,0-.08,0-.08-.1l0-2V250.2c0-.8,0-1.41,0-1.84a12.84,12.84,0,0,1-1.11,1.63c-.08.09-.13.14-.16.14s-.06,0-.1-.14a1.46,1.46,0,0,0-.31-.49,13.37,13.37,0,0,0,2.41-4.5,3.6,3.6,0,0,0,.16-.85,5.53,5.53,0,0,1,.74.21C205.7,244.41,205.75,244.45,205.75,244.5Zm8,2.75c0,.06,0,.09-.11.09l-1.75,0h-4.41l-1.75,0c-.07,0-.1,0-.1-.09v-.54c0-.06,0-.09.1-.09l1.75,0h4.41l1.75,0c.08,0,.11,0,.11.09Zm-1.18,8c0,.06,0,.08-.09.08h-.59c-.06,0-.1,0-.1-.08v-.53h-4.5v.56c0,.07,0,.11-.1.11h-.57c-.06,0-.09,0-.09-.11l0-1.53v-.93l0-1a.08.08,0,0,1,.09-.09l1.63,0h2.62l1.61,0a.08.08,0,0,1,.09.09l0,.91v1Zm-.27-6.36c0,.07,0,.1-.1.1l-1.51,0h-2.27l-1.53,0c-.07,0-.1,0-.1-.1v-.48c0-.07,0-.1.1-.1l1.53,0h2.27l1.51,0c.07,0,.1,0,.1.1Zm0,1.69c0,.07,0,.1-.1.1l-1.51,0h-2.27l-1.53,0c-.07,0-.1,0-.1-.1v-.48c0-.07,0-.1.1-.1l1.53,0h2.27l1.51,0c.07,0,.1,0,.1.1Zm.12-5.07c0,.05,0,.08-.12.08l-1.52,0h-2.34l-1.53,0c-.07,0-.11,0-.11-.08V245c0-.06,0-.09.11-.09l1.53,0h2.34l1.52,0q.12,0,.12.09Zm-.63,8.58v-1.73h-4.5v1.73Z"/><path class="cls-35" d="M226.38,252.85a2.6,2.6,0,0,1-.6,1.8,1.59,1.59,0,0,1-.77.32,6,6,0,0,1-1.08.07,4.43,4.43,0,0,1-1.63-.2.87.87,0,0,1-.44-.4,2,2,0,0,1-.12-.8V249.1h-2.07a7.54,7.54,0,0,1-.91,4.08,6.12,6.12,0,0,1-2.69,2,.91.91,0,0,1-.22.06s-.1-.06-.18-.17a2.25,2.25,0,0,0-.42-.48,7,7,0,0,0,2.16-1.08,3.52,3.52,0,0,0,1.12-1.68,9.69,9.69,0,0,0,.34-2.69h-1.74l-1.65,0a.09.09,0,0,1-.1-.1v-.58c0-.07,0-.1.1-.1l1.65,0h7.3l1.65,0a.09.09,0,0,1,.1.1V249a.09.09,0,0,1-.1.1l-1.65,0h-1.88v4.3a2,2,0,0,0,.06.62.34.34,0,0,0,.23.2,4.51,4.51,0,0,0,1.11.09,4.06,4.06,0,0,0,.83-.06,1,1,0,0,0,.46-.22,3.16,3.16,0,0,0,.39-1.78,2.73,2.73,0,0,0,.56.3c.14.06.2.12.2.18A.68.68,0,0,1,226.38,252.85Zm-1.42-7c0,.07,0,.1-.09.1l-1.78,0h-4.55l-1.77,0c-.07,0-.11,0-.11-.1v-.59c0-.07,0-.1.11-.1l1.77,0h4.55l1.78,0c.06,0,.09,0,.09.1Z"/><path class="cls-35" d="M232.79,246.39a19.63,19.63,0,0,1-1.32,6.57,1.88,1.88,0,0,1-1.69,1.33,1.56,1.56,0,0,1-1.44-.95,5.3,5.3,0,0,1-.47-2.49,6.65,6.65,0,0,1,.4-2.34,4.81,4.81,0,0,1,.93-1.53,4.22,4.22,0,0,1,1.53-1,4.86,4.86,0,0,1,1.76-.33,3.72,3.72,0,0,1,3.18,1.34,5.7,5.7,0,0,1,.86,3.4,4.61,4.61,0,0,1-1,3A5,5,0,0,1,232.6,255l-.43-.75a3.78,3.78,0,0,0,3.42-4.11,4.16,4.16,0,0,0-.92-2.95A2.5,2.5,0,0,0,232.79,246.39Zm-.94.1a2.73,2.73,0,0,0-1.15.36,3.89,3.89,0,0,0-.95.83,4.71,4.71,0,0,0-1,3.2,4.2,4.2,0,0,0,.36,1.9c.2.36.42.54.67.54a.72.72,0,0,0,.56-.23,2.38,2.38,0,0,0,.4-.67A17.83,17.83,0,0,0,231.85,246.49Z"/><path class="cls-35" d="M237.18,245.48h6.89c0,3-.56,5.21-1.61,6.7a8.67,8.67,0,0,1-4.2,2.91l-.53-.75a7.68,7.68,0,0,0,4.07-2.9,9.49,9.49,0,0,0,1.22-5.13h-5.84Z"/><path class="cls-35" d="M245.51,254.49v-8.94H252v8.94Zm5.57-.84v-7.26h-4.61v7.26Z"/><path class="cls-35" d="M253.26,249.44h6.8v.92h-6.8Z"/><path class="cls-35" d="M266.08,246.39a19.63,19.63,0,0,1-1.32,6.57,1.88,1.88,0,0,1-1.69,1.33,1.57,1.57,0,0,1-1.44-.95,5.43,5.43,0,0,1-.47-2.49,6.43,6.43,0,0,1,.41-2.34,4.62,4.62,0,0,1,.92-1.53,4.17,4.17,0,0,1,1.54-1,4.77,4.77,0,0,1,1.75-.33A3.71,3.71,0,0,1,269,247a5.7,5.7,0,0,1,.86,3.4,4.61,4.61,0,0,1-1,3,5,5,0,0,1-2.93,1.59l-.43-.75a3.78,3.78,0,0,0,3.42-4.11,4.16,4.16,0,0,0-.92-2.95A2.5,2.5,0,0,0,266.08,246.39Zm-.94.1a2.73,2.73,0,0,0-1.15.36,3.89,3.89,0,0,0-.95.83,4.71,4.71,0,0,0-1,3.2,4.2,4.2,0,0,0,.36,1.9c.2.36.42.54.67.54a.72.72,0,0,0,.56-.23,2.38,2.38,0,0,0,.4-.67A17.83,17.83,0,0,0,265.14,246.49Z"/><path class="cls-35" d="M282.36,247.17c0,.06,0,.09-.11.09l-1.62,0h-4.45c0,.68-.08,1.32-.15,1.91h3.15l1.46,0c.08,0,.12,0,.12.1v0l-.07.87a25.8,25.8,0,0,1-.45,3.77,1.69,1.69,0,0,1-.58,1,1.56,1.56,0,0,1-1,.25c-.33,0-.73,0-1.2-.07a.46.46,0,0,1-.22-.07.54.54,0,0,1,0-.22,1.37,1.37,0,0,0-.18-.59,9.42,9.42,0,0,0,1.59.15c.42,0,.7-.26.83-.76a21.71,21.71,0,0,0,.42-3.75h-4a7.42,7.42,0,0,1-1.35,3.29,8,8,0,0,1-2.49,2,.44.44,0,0,1-.19.07s-.11-.06-.19-.2a1.71,1.71,0,0,0-.46-.4,6.74,6.74,0,0,0,3.28-3,10.7,10.7,0,0,0,.82-4.49h-2.2l-1.62,0c-.07,0-.1,0-.1-.09v-.58c0-.07,0-.1.1-.1l1.62,0h3.23v-1a6.17,6.17,0,0,0-.09-1.29,4.79,4.79,0,0,1,.87.07c.09,0,.14,0,.14.1a.66.66,0,0,1-.07.23,3.61,3.61,0,0,0-.06.88v1h3.46l1.62,0c.07,0,.11,0,.11.1Z"/><path class="cls-35" d="M294.3,246.6l0,2v5.51a1,1,0,0,1-.3.82,3.18,3.18,0,0,1-1.59.23c-.13,0-.2,0-.22,0a.5.5,0,0,1-.08-.2,1.85,1.85,0,0,0-.25-.55c.44,0,.79.05,1,.05a.8.8,0,0,0,.48-.11.42.42,0,0,0,.13-.35v-6.72H285.4v6.08l0,1.84a.09.09,0,0,1-.1.1h-.63a.09.09,0,0,1-.1-.1l0-1.9v-4.7l0-1.94a.09.09,0,0,1,.1-.1l1.76,0h1.3a13.5,13.5,0,0,0,.79-1.56,3.16,3.16,0,0,0,.22-.71,7.15,7.15,0,0,1,.8.2c.08,0,.12.09.12.14a.19.19,0,0,1-.1.16.72.72,0,0,0-.19.25,16.72,16.72,0,0,1-.79,1.52h3.83l1.75,0C294.27,246.5,294.3,246.53,294.3,246.6Zm-2.73,6.46c0,.07,0,.1-.11.1h-.52c-.07,0-.11,0-.11-.1v-.54h-2.89v.63c0,.07,0,.1-.1.1h-.52c-.07,0-.1,0-.1-.1l0-2v-.94l0-1.27a.08.08,0,0,1,.09-.09l1.32,0h1.52l1.32,0c.07,0,.1,0,.1.09l0,1.11v1Zm-.74-1.2v-2.34h-2.89v2.34Z"/><path class="cls-35" d="M193,269.75h-.89a7.79,7.79,0,0,1-1.89-5.32A8.1,8.1,0,0,1,192.1,259h.9a8.22,8.22,0,0,0-1.91,5.4A8.07,8.07,0,0,0,193,269.75Z"/><path class="cls-35" d="M195.09,259v2.73h-.88V259Zm2,0v2.73h-.89V259Z"/><path class="cls-35" d="M210,264.63c0,.07,0,.1-.1.1l-1.6,0h-1.38a6.8,6.8,0,0,1-1.3,1.86c.85.29,1.94.73,3.27,1.33,0,0,.07.05.07.07a.35.35,0,0,1-.07.14l-.25.34c-.08.11-.14.17-.16.17l-.06,0a23.23,23.23,0,0,0-3.38-1.52,10.27,10.27,0,0,1-5.17,1.57h-.1a.23.23,0,0,1-.16,0,1.68,1.68,0,0,1-.1-.18,1.13,1.13,0,0,0-.3-.42,11,11,0,0,0,4.95-1.21q-1.17-.32-2.19-.51l-.29.35a.25.25,0,0,1-.17.08h-.11l-.42-.11c-.06,0-.09,0-.09-.08s0-.08.12-.17.37-.43.58-.69.43-.57.69-.94h-1.67l-1.61,0c-.07,0-.1,0-.1-.1v-.52c0-.06,0-.09.1-.09l1.61,0h2.1l.15-.27a4.29,4.29,0,0,0,.46-1,4.11,4.11,0,0,1,.75.21c.09,0,.13.07.13.13s0,.1-.12.17a1.8,1.8,0,0,0-.42.53l-.14.24h4.78l1.6,0c.07,0,.1,0,.1.09Zm-.16-6.05a.09.09,0,0,1-.1.1l-1.65,0H206v1.23h.85l1.8,0c.06,0,.09,0,.09.1l0,.92v.86l0,.91a.08.08,0,0,1-.09.09l-1.8,0H202l-1.8,0c-.07,0-.1,0-.1-.09l0-.91v-.86l0-.92a.09.09,0,0,1,.1-.1l1.8,0h.69v-1.23h-1.87l-1.65,0a.1.1,0,0,1-.11-.1v-.53c0-.07,0-.1.11-.1l1.65,0h7.23l1.65,0c.07,0,.1,0,.1.1Zm-7.11,3.54v-1.66h-1.84v1.66Zm3.34,2.59h-3c-.29.45-.52.79-.7,1,.9.18,1.71.38,2.43.59A5.31,5.31,0,0,0,206.07,264.71Zm-.76-4.83v-1.23h-1.88v1.23Zm0,2.24v-1.66h-1.88v1.66Zm2.69,0v-1.66h-2v1.66Z"/><path class="cls-35" d="M222.59,267a2,2,0,0,0-.44.49c-.07.11-.13.16-.16.16l-.17-.08a10.14,10.14,0,0,1-4.49-5.83c.06,3.17.09,5.08.09,5.72a1,1,0,0,1-.44.94,4,4,0,0,1-1.52.2.48.48,0,0,1-.22,0,1.4,1.4,0,0,1-.08-.22,1.6,1.6,0,0,0-.28-.57c.39,0,.69.05.9.05a1.2,1.2,0,0,0,.69-.13.55.55,0,0,0,.16-.47v-6.57h-3.15l-1.65,0c-.07,0-.1,0-.1-.1V260c0-.07,0-.1.1-.1l1.65,0h3.15v-1a8.05,8.05,0,0,0-.09-1.49,6.45,6.45,0,0,1,.83.07c.1,0,.14,0,.14.1a.69.69,0,0,1-.06.26,5.13,5.13,0,0,0-.06,1.05v1h3.21l1.66,0c.07,0,.11,0,.11.1v.55c0,.07,0,.1-.11.1l-1.66,0h-3.11a11.66,11.66,0,0,0,1.25,2.82,10.94,10.94,0,0,0,1.61-1.66,1.93,1.93,0,0,0,.34-.58,3.91,3.91,0,0,1,.63.45.26.26,0,0,1,.11.18c0,.05-.05.1-.14.16a2.64,2.64,0,0,0-.58.51,14.6,14.6,0,0,1-1.6,1.52A10.12,10.12,0,0,0,222.59,267ZM216,264.64a1.05,1.05,0,0,1,0,.18c0,.06-.06.13-.17.22a27.36,27.36,0,0,1-2.89,1.77,1.6,1.6,0,0,0-.43.27c-.07.07-.12.1-.16.1s-.1,0-.15-.12a6.15,6.15,0,0,1-.34-.68,6.59,6.59,0,0,0,.91-.38,22.29,22.29,0,0,0,3.15-1.87A2.76,2.76,0,0,0,216,264.64Zm-.87-1.6,0,.07s0,.07-.08.12l-.33.31q-.12.12-.15.12s0,0-.06-.05a6.6,6.6,0,0,0-1.52-1.72s-.06-.05-.06-.07,0-.06.12-.13l.28-.26a.19.19,0,0,1,.12-.07.08.08,0,0,1,.06,0A7.58,7.58,0,0,1,215.08,263Zm5.92-4.1s0,0,0,.06,0,.09-.13.15l-.23.22a.4.4,0,0,1-.18.1s0,0-.07,0a5.85,5.85,0,0,0-1.48-1.25s-.06-.06-.06-.08,0-.06.1-.13l.26-.22c.05,0,.08-.06.1-.06l.09,0A7.84,7.84,0,0,1,221,258.94Z"/><path class="cls-35" d="M225.25,259v2.73h-.88V259Zm2,0v2.73h-.88V259Z"/><path class="cls-35" d="M229.4,269.75h-.89a8.08,8.08,0,0,0,1.91-5.34,8.23,8.23,0,0,0-1.92-5.4h.9a8.06,8.06,0,0,1,1.91,5.42A7.75,7.75,0,0,1,229.4,269.75Z"/><path class="cls-35" d="M201.59,294.9a1.27,1.27,0,0,0-.24.58.23.23,0,0,1-.29.27c-1.62.1-3.1.15-4.43.15a7.78,7.78,0,0,1-3.08-.42,2.35,2.35,0,0,1-1.17-1.23,11.94,11.94,0,0,1-1.35,1.23,1.53,1.53,0,0,0-.26.26c-.05.07-.1.11-.14.11a.19.19,0,0,1-.16-.1,6.32,6.32,0,0,1-.36-.67,5.8,5.8,0,0,0,.77-.46,9.27,9.27,0,0,0,1.16-1v-3.1h-.93l-.86,0c-.08,0-.11,0-.11-.12v-.53c0-.07,0-.1.11-.1l.86,0h.68l.9,0a.09.09,0,0,1,.1.1l0,1.17v2.57a2.12,2.12,0,0,0,1.08,1.22,6.9,6.9,0,0,0,2.5.32Q198.88,295.17,201.59,294.9Zm-8.7-7.59a.2.2,0,0,1,0,.08s0,.07-.11.12l-.3.24a.31.31,0,0,1-.15.09s-.05,0-.09-.06a12.94,12.94,0,0,0-1.57-1.88.15.15,0,0,1,0-.08s0-.06.11-.12l.29-.21a.33.33,0,0,1,.13-.08s0,0,.08,0A13.91,13.91,0,0,1,192.89,287.31Zm8.5,6.29a1.7,1.7,0,0,0-.33.51c-.06.14-.11.2-.16.2l-.17-.06a11.12,11.12,0,0,1-2.76-1.74,9.26,9.26,0,0,1-2.57,1.77l-.17.06s-.11-.06-.19-.17a1.43,1.43,0,0,0-.4-.38,8.74,8.74,0,0,0,2.83-1.79,7.49,7.49,0,0,1-1.68-3.05h-.53a19,19,0,0,1-.15,2,7.07,7.07,0,0,1-1.15,3.12c-.06.1-.1.15-.14.15s-.08,0-.15-.14a2.46,2.46,0,0,0-.44-.34,6.43,6.43,0,0,0,1.19-3.06,26,26,0,0,0,.14-3.17l0-1.72c0-.07,0-.1.1-.1l1.67,0h3l1.65,0a.08.08,0,0,1,.09.09v.55a.08.08,0,0,1-.09.09l-1.65,0h-4.05v1.91h4.11a.54.54,0,0,0,.25,0l.13,0c.08,0,.2.08.36.25s.22.25.22.32,0,.09-.1.14a1.46,1.46,0,0,0-.25.43,9.81,9.81,0,0,1-1.53,2.6A9.54,9.54,0,0,0,201.39,293.6Zm-2-4.65h-2.92a6.82,6.82,0,0,0,1.51,2.52A9,9,0,0,0,199.37,289Z"/><path class="cls-35" d="M205.84,285.24a.3.3,0,0,1-.09.19,1.36,1.36,0,0,0-.24.48q-.39,1.08-.72,1.8v6.4l0,2c0,.06,0,.09-.1.09h-.6a.08.08,0,0,1-.09-.09l0-2v-3.17c0-.8,0-1.41,0-1.84a14.2,14.2,0,0,1-1.11,1.62c-.08.1-.14.14-.17.14s-.06,0-.1-.14a1.37,1.37,0,0,0-.31-.48,13.46,13.46,0,0,0,2.41-4.5,3.65,3.65,0,0,0,.17-.85,5.36,5.36,0,0,1,.73.21C205.79,285.15,205.84,285.19,205.84,285.24Zm8,2.74c0,.07,0,.1-.11.1l-1.75,0h-4.42l-1.75,0a.09.09,0,0,1-.1-.1v-.53a.09.09,0,0,1,.1-.1l1.75,0H212l1.75,0a.1.1,0,0,1,.11.1Zm-1.19,8c0,.06,0,.09-.08.09H212c-.07,0-.1,0-.1-.09v-.52h-4.51v.56c0,.07,0,.11-.09.11h-.57c-.07,0-.1,0-.1-.11l0-1.53v-.93l0-1c0-.05,0-.08.1-.08l1.63,0H211l1.62,0c.06,0,.08,0,.08.08l0,.91v1Zm-.26-6.35a.09.09,0,0,1-.1.1l-1.52,0h-2.27l-1.52,0c-.07,0-.11,0-.11-.1v-.49c0-.06,0-.09.11-.09l1.52,0h2.27l1.52,0c.06,0,.1,0,.1.09Zm0,1.69a.09.09,0,0,1-.1.1l-1.52,0h-2.27l-1.52,0c-.07,0-.11,0-.11-.1v-.49c0-.06,0-.09.11-.09l1.52,0h2.27l1.52,0c.06,0,.1,0,.1.09Zm.11-5.08c0,.06,0,.09-.11.09l-1.53,0h-2.33l-1.54,0c-.07,0-.1,0-.1-.09v-.51a.09.09,0,0,1,.1-.1l1.54,0h2.33l1.53,0a.1.1,0,0,1,.11.1Zm-.62,8.59v-1.73h-4.51v1.73Z"/><path class="cls-35" d="M225.61,285.73l0,2v5.55l0,1.68a1,1,0,0,1-.37.86,3.09,3.09,0,0,1-1.55.25.51.51,0,0,1-.24,0,.53.53,0,0,1-.07-.21,1.54,1.54,0,0,0-.23-.58,12,12,0,0,0,1.24.05c.29,0,.44-.16.44-.5v-2.63h-3.5v1.48l0,2.07a.1.1,0,0,1-.11.11h-.59c-.07,0-.1,0-.1-.11l0-2.07v-1.48h-3.35a8.41,8.41,0,0,1-.49,2.28,6.89,6.89,0,0,1-.78,1.44q-.12.15-.15.15s-.09,0-.18-.13a2.47,2.47,0,0,0-.52-.31,6,6,0,0,0,1.15-2.36,16.37,16.37,0,0,0,.31-3.63v-1.87l0-2c0-.07,0-.1.1-.1l1.77,0h5.31l1.78,0C225.57,285.63,225.61,285.66,225.61,285.73Zm-5,5.71v-2.21h-3.24v.33c0,.55,0,1.17-.06,1.88Zm0-2.89v-2.21h-3.24v2.21Zm4.25,0v-2.21h-3.5v2.21Zm0,2.89v-2.21h-3.5v2.21Z"/><path class="cls-35" d="M232.89,287.13a19.91,19.91,0,0,1-1.33,6.57,1.87,1.87,0,0,1-1.69,1.33,1.56,1.56,0,0,1-1.43-.95,5.29,5.29,0,0,1-.48-2.49,6.61,6.61,0,0,1,.41-2.34,4.63,4.63,0,0,1,.93-1.54,4.15,4.15,0,0,1,1.53-1,4.82,4.82,0,0,1,1.76-.33,3.69,3.69,0,0,1,3.17,1.33,5.75,5.75,0,0,1,.86,3.4,4.56,4.56,0,0,1-1,3,5,5,0,0,1-2.92,1.59l-.44-.75a3.79,3.79,0,0,0,3.43-4.11,4.19,4.19,0,0,0-.92-2.95A2.51,2.51,0,0,0,232.89,287.13Zm-.94.1a2.73,2.73,0,0,0-1.16.36,3.86,3.86,0,0,0-.94.83,4.64,4.64,0,0,0-1,3.19,4,4,0,0,0,.37,1.9c.19.37.42.55.67.55a.73.73,0,0,0,.55-.23,2.12,2.12,0,0,0,.4-.68A17.69,17.69,0,0,0,232,287.23Z"/><path class="cls-35" d="M237.28,286.21h6.88q0,4.49-1.61,6.7a8.52,8.52,0,0,1-4.2,2.92l-.52-.75a7.65,7.65,0,0,0,4.06-2.9,9.4,9.4,0,0,0,1.22-5.13h-5.83Z"/><path class="cls-35" d="M245.61,295.23v-8.94h6.52v8.94Zm5.56-.84v-7.26h-4.61v7.26Z"/><path class="cls-35" d="M253.35,290.17h6.8v.93h-6.8Z"/><path class="cls-35" d="M266.18,287.13a19.65,19.65,0,0,1-1.33,6.57,1.86,1.86,0,0,1-1.69,1.33,1.56,1.56,0,0,1-1.43-.95,5.29,5.29,0,0,1-.48-2.49,6.61,6.61,0,0,1,.41-2.34,4.63,4.63,0,0,1,.93-1.54,4.15,4.15,0,0,1,1.53-1,4.86,4.86,0,0,1,1.76-.33,3.69,3.69,0,0,1,3.17,1.33,5.67,5.67,0,0,1,.86,3.4,4.56,4.56,0,0,1-1,3,5,5,0,0,1-2.92,1.59l-.44-.75a3.79,3.79,0,0,0,3.43-4.11,4.19,4.19,0,0,0-.92-2.95A2.51,2.51,0,0,0,266.18,287.13Zm-.94.1a2.77,2.77,0,0,0-1.16.36,3.86,3.86,0,0,0-.94.83,4.64,4.64,0,0,0-1,3.19,4,4,0,0,0,.37,1.9c.19.37.42.55.67.55a.77.77,0,0,0,.56-.23,2.34,2.34,0,0,0,.39-.68A17.69,17.69,0,0,0,265.24,287.23Z"/><path class="cls-35" d="M282.45,287.9c0,.07,0,.1-.1.1l-1.63,0h-4.45a18.29,18.29,0,0,1-.15,1.91h3.15l1.47,0a.1.1,0,0,1,.11.11v0l-.07.88a25,25,0,0,1-.44,3.77,1.77,1.77,0,0,1-.58,1,1.65,1.65,0,0,1-1,.25,11.45,11.45,0,0,1-1.2-.08c-.13,0-.2,0-.22-.06a.78.78,0,0,1-.05-.22,1.34,1.34,0,0,0-.17-.59,9.22,9.22,0,0,0,1.58.15c.43,0,.7-.26.83-.77a21.56,21.56,0,0,0,.42-3.74h-4a7.42,7.42,0,0,1-1.35,3.29,8,8,0,0,1-2.49,2.05.53.53,0,0,1-.18.07c-.05,0-.12-.07-.2-.2a1.39,1.39,0,0,0-.45-.4,6.8,6.8,0,0,0,3.28-3,10.78,10.78,0,0,0,.82-4.48h-2.2l-1.63,0c-.06,0-.09,0-.09-.1v-.58a.08.08,0,0,1,.09-.09l1.63,0h3.22v-1a6,6,0,0,0-.09-1.29,4.65,4.65,0,0,1,.87.07q.15,0,.15.09a.9.9,0,0,1-.08.24,3.57,3.57,0,0,0-.06.87v1h3.46l1.63,0c.07,0,.1,0,.1.09Z"/><path class="cls-35" d="M294.4,287.34l0,2v5.51a1.05,1.05,0,0,1-.3.83,3.15,3.15,0,0,1-1.58.23.43.43,0,0,1-.23,0,.56.56,0,0,1-.07-.2,2.14,2.14,0,0,0-.25-.55c.44,0,.78.05,1,.05a.82.82,0,0,0,.49-.11.45.45,0,0,0,.12-.35V288H285.5V294l0,1.84a.09.09,0,0,1-.1.1h-.62a.09.09,0,0,1-.1-.1l0-1.9v-4.7l0-1.94c0-.07,0-.1.1-.1l1.76,0h1.3c.32-.56.58-1.08.79-1.55a3.22,3.22,0,0,0,.21-.71,6.63,6.63,0,0,1,.8.2c.08,0,.12.08.12.14a.19.19,0,0,1-.1.16.72.72,0,0,0-.18.25c-.25.53-.51,1-.79,1.51h3.83l1.75,0C294.36,287.24,294.4,287.27,294.4,287.34Zm-2.74,6.46a.09.09,0,0,1-.1.1H291a.1.1,0,0,1-.11-.1v-.54H288v.63a.09.09,0,0,1-.1.1h-.53a.09.09,0,0,1-.1-.1l0-2v-.93l0-1.27a.09.09,0,0,1,.1-.1l1.32,0h1.52l1.31,0a.09.09,0,0,1,.1.1l0,1.11v1Zm-.74-1.2v-2.35H288v2.35Z"/><path class="cls-35" d="M193.08,310.49h-.89a7.81,7.81,0,0,1-1.89-5.33,8.09,8.09,0,0,1,1.89-5.41h.91a8.23,8.23,0,0,0-1.92,5.4A8.12,8.12,0,0,0,193.08,310.49Z"/><path class="cls-35" d="M195.19,299.75v2.73h-.89v-2.73Zm2,0v2.73h-.88v-2.73Z"/><path class="cls-35" d="M210.43,308.1a1.39,1.39,0,0,0-.23.58.39.39,0,0,1-.08.22.43.43,0,0,1-.21.05q-2.43.15-4.44.15a7.75,7.75,0,0,1-3.07-.42,2.35,2.35,0,0,1-1.17-1.23,11.94,11.94,0,0,1-1.35,1.23,1.22,1.22,0,0,0-.26.26c-.05.07-.1.11-.15.11a.19.19,0,0,1-.15-.1,6.32,6.32,0,0,1-.36-.67,5.11,5.11,0,0,0,.76-.46,8,8,0,0,0,1.16-1v-3.1H200l-.87,0c-.07,0-.11,0-.11-.12v-.53c0-.07,0-.1.11-.1l.87,0h.67l.91,0c.06,0,.09,0,.09.1l0,1.17v2.57a2.14,2.14,0,0,0,1.07,1.22,7,7,0,0,0,2.51.32C206.88,308.37,208.62,308.28,210.43,308.1Zm-8.69-7.59a.2.2,0,0,1,0,.08s0,.07-.11.12l-.3.24a.31.31,0,0,1-.15.09.12.12,0,0,1-.09-.06,12.94,12.94,0,0,0-1.57-1.88.1.1,0,0,1-.05-.08s0-.06.11-.12l.29-.21c.06-.05.1-.08.13-.08l.08.05A13.91,13.91,0,0,1,201.74,300.51Zm8.49,6.29a1.79,1.79,0,0,0-.32.51c-.06.14-.11.2-.16.2l-.18-.06a11.23,11.23,0,0,1-2.75-1.74,9.41,9.41,0,0,1-2.57,1.77l-.17.06c-.05,0-.11-.06-.19-.17a1.43,1.43,0,0,0-.4-.38,8.85,8.85,0,0,0,2.83-1.79,7.49,7.49,0,0,1-1.68-3.05h-.53c0,.79-.08,1.46-.15,2a7.19,7.19,0,0,1-1.15,3.12c-.06.1-.11.15-.14.15s-.08-.05-.16-.14a1.91,1.91,0,0,0-.44-.34,6.33,6.33,0,0,0,1.19-3.06,23.65,23.65,0,0,0,.15-3.17l0-1.72c0-.07,0-.1.09-.1l1.68,0h3l1.64,0c.07,0,.1,0,.1.09v.55c0,.06,0,.09-.1.09l-1.64,0h-4.06v1.91h4.12a.54.54,0,0,0,.25,0,.34.34,0,0,1,.13,0c.08,0,.2.08.36.25s.22.25.22.32,0,.09-.1.15a1.09,1.09,0,0,0-.25.42,9.81,9.81,0,0,1-1.53,2.6A9.6,9.6,0,0,0,210.23,306.8Zm-2-4.65H205.3a6.68,6.68,0,0,0,1.51,2.52A8.73,8.73,0,0,0,208.21,302.15Z"/><path class="cls-35" d="M214.69,298.44a.27.27,0,0,1-.1.19,1.39,1.39,0,0,0-.23.48q-.39,1.08-.72,1.8v6.4l0,2c0,.06,0,.09-.1.09H213c-.05,0-.08,0-.08-.09l0-2v-3.17c0-.8,0-1.41,0-1.84a13,13,0,0,1-1.12,1.62c-.08.1-.13.14-.16.14s-.06,0-.1-.14a1.37,1.37,0,0,0-.31-.48,13.46,13.46,0,0,0,2.41-4.5,3.65,3.65,0,0,0,.17-.85,5.82,5.82,0,0,1,.73.21C214.64,298.35,214.69,298.39,214.69,298.44Zm8,2.74c0,.07,0,.1-.11.1l-1.76,0h-4.41l-1.75,0c-.07,0-.1,0-.1-.1v-.53a.09.09,0,0,1,.1-.1l1.75,0h4.41l1.76,0a.1.1,0,0,1,.11.1Zm-1.19,8a.07.07,0,0,1-.08.08h-.6c-.06,0-.09,0-.09-.08v-.53h-4.51v.56c0,.07,0,.11-.1.11h-.56c-.07,0-.1,0-.1-.11l0-1.53v-.93l0-1c0-.06,0-.09.1-.09l1.63,0h2.61l1.62,0c.05,0,.08,0,.08.09l0,.9v1Zm-.27-6.36c0,.07,0,.1-.09.1l-1.52,0h-2.27l-1.53,0a.09.09,0,0,1-.1-.1v-.49c0-.06,0-.09.1-.09l1.53,0h2.27l1.52,0a.08.08,0,0,1,.09.09Zm0,1.69c0,.07,0,.1-.09.1l-1.52,0h-2.27l-1.53,0a.09.09,0,0,1-.1-.1v-.49c0-.06,0-.09.1-.09l1.53,0h2.27l1.52,0a.08.08,0,0,1,.09.09Zm.12-5.08q0,.09-.12.09l-1.52,0H217.4l-1.54,0c-.07,0-.11,0-.11-.09V299a.1.1,0,0,1,.11-.1l1.54,0h2.33l1.52,0c.08,0,.12,0,.12.1Zm-.62,8.59v-1.73h-4.51v1.73Z"/><path class="cls-35" d="M225.35,299.75v2.73h-.89v-2.73Zm2,0v2.73h-.89v-2.73Z"/><path class="cls-35" d="M229.5,310.49h-.89a8.07,8.07,0,0,0,1.9-5.34,8.23,8.23,0,0,0-1.92-5.4h.91a8,8,0,0,1,1.9,5.41A7.77,7.77,0,0,1,229.5,310.49Z"/></g></svg>