<svg xmlns="http://www.w3.org/2000/svg" xmlns:xlink="http://www.w3.org/1999/xlink" viewBox="0 0 316 315.2"><defs><style>.cls-1,.cls-4{fill:#fff;}.cls-16,.cls-2,.cls-6{fill:#3c3c41;}.cls-2{opacity:0.05;}.cls-2,.cls-4,.cls-5,.cls-6{isolation:isolate;}.cls-15,.cls-17,.cls-18,.cls-3,.cls-5{fill:none;}.cls-4{opacity:0.6;}.cls-5{stroke:#75757a;stroke-width:0.5px;opacity:0.5;}.cls-15,.cls-17,.cls-18,.cls-5{stroke-miterlimit:10;}.cls-6{opacity:0.2;}.cls-7{fill:#ccc;fill-opacity:0.3;}.cls-8{fill:url(#Degradado_sin_nombre);}.cls-9{fill:#50e6ff;}.cls-10{fill:#c3f1ff;}.cls-11{fill:#9cebff;}.cls-12{fill:url(#Degradado_sin_nombre_2);}.cls-13{fill:url(#Degradado_sin_nombre_3);}.cls-14{fill:url(#Degradado_sin_nombre_4);}.cls-15,.cls-17,.cls-18{stroke:#3c3c41;}.cls-17{stroke-dasharray:1.46 2.43;}.cls-18{stroke-dasharray:1.31 2.19;}.cls-19{fill:url(#Degradado_sin_nombre_5);}.cls-20{fill:url(#Degradado_sin_nombre_6);}.cls-21{fill:url(#Degradado_sin_nombre_7);}.cls-22{fill:#1490df;}.cls-23{fill:url(#Degradado_sin_nombre_8);}.cls-24{fill:url(#Degradado_sin_nombre_9);}.cls-25{fill:url(#Degradado_sin_nombre_10);}.cls-26{fill:url(#Degradado_sin_nombre_11);}.cls-27{fill:url(#Degradado_sin_nombre_12);}.cls-28{fill:url(#Degradado_sin_nombre_13);}.cls-29{fill:url(#Degradado_sin_nombre_14);}.cls-30{fill:url(#Degradado_sin_nombre_15);}.cls-31{fill:#e81122;}.cls-32{fill:#6ebcdb;}.cls-33{fill:#5db4d7;}.cls-34{fill:#e6e6e6;}.cls-35{fill:#86d633;}.cls-36{fill:#1e1e1e;}</style><linearGradient id="Degradado_sin_nombre" x1="39.57" y1="450.22" x2="39.57" y2="431.46" gradientTransform="translate(0 -284.26)" gradientUnits="userSpaceOnUse"><stop offset="0" stop-color="#0078d4"/><stop offset="0.82" stop-color="#5ea0ef"/></linearGradient><linearGradient id="Degradado_sin_nombre_2" x1="39.57" y1="457.46" x2="39.57" y2="450.22" gradientTransform="translate(0 -284.26)" gradientUnits="userSpaceOnUse"><stop offset="0.15" stop-color="#ccc"/><stop offset="1" stop-color="#707070"/></linearGradient><linearGradient id="Degradado_sin_nombre_3" x1="76.43" y1="450.22" x2="76.43" y2="431.46" xlink:href="#Degradado_sin_nombre"/><linearGradient id="Degradado_sin_nombre_4" x1="76.43" y1="457.46" x2="76.43" y2="450.22" xlink:href="#Degradado_sin_nombre_2"/><linearGradient id="Degradado_sin_nombre_5" x1="24" y1="511.25" x2="26.37" y2="513.62" gradientTransform="translate(2.88 -284.87)" gradientUnits="userSpaceOnUse"><stop offset="0" stop-color="#86d633"/><stop offset="0.24" stop-color="#83d232"/><stop offset="0.5" stop-color="#7cc52f"/><stop offset="0.76" stop-color="#6fb02a"/><stop offset="1" stop-color="#5e9624"/></linearGradient><linearGradient id="Degradado_sin_nombre_6" x1="18.65" y1="511.26" x2="21.01" y2="513.63" xlink:href="#Degradado_sin_nombre_5"/><linearGradient id="Degradado_sin_nombre_7" x1="13.31" y1="511.26" x2="15.67" y2="513.63" xlink:href="#Degradado_sin_nombre_5"/><linearGradient id="Degradado_sin_nombre_8" x1="139.57" y1="450.22" x2="139.57" y2="431.46" xlink:href="#Degradado_sin_nombre"/><linearGradient id="Degradado_sin_nombre_9" x1="139.57" y1="457.46" x2="139.57" y2="450.22" xlink:href="#Degradado_sin_nombre_2"/><linearGradient id="Degradado_sin_nombre_10" x1="176.43" y1="450.22" x2="176.43" y2="431.46" xlink:href="#Degradado_sin_nombre"/><linearGradient id="Degradado_sin_nombre_11" x1="176.43" y1="457.46" x2="176.43" y2="450.22" xlink:href="#Degradado_sin_nombre_2"/><linearGradient id="Degradado_sin_nombre_12" x1="239.57" y1="450.22" x2="239.57" y2="431.46" xlink:href="#Degradado_sin_nombre"/><linearGradient id="Degradado_sin_nombre_13" x1="239.57" y1="457.46" x2="239.57" y2="450.22" xlink:href="#Degradado_sin_nombre_2"/><linearGradient id="Degradado_sin_nombre_14" x1="276.43" y1="450.22" x2="276.43" y2="431.46" xlink:href="#Degradado_sin_nombre"/><linearGradient id="Degradado_sin_nombre_15" x1="276.43" y1="457.46" x2="276.43" y2="450.22" xlink:href="#Degradado_sin_nombre_2"/></defs><title>OJ104903205</title><g id="Target"><g id="Shapes"><rect class="cls-1" width="316" height="315.2"/><rect class="cls-1" x="0.5" y="75.2" width="315" height="151.85" rx="5"/><rect class="cls-2" x="0.5" y="75.2" width="315" height="151.85" rx="5"/><rect class="cls-3" x="0.5" y="75.2" width="315" height="151.85" rx="5"/><rect class="cls-4" x="110.5" y="15.2" width="95" height="200"/><rect class="cls-5" x="110.5" y="15.2" width="95" height="200"/><rect class="cls-4" x="210.5" y="15.2" width="95" height="200"/><rect class="cls-5" x="210.5" y="15.2" width="95" height="200"/><rect class="cls-4" x="10.5" y="15.2" width="95" height="200"/><rect class="cls-5" x="10.5" y="15.2" width="95" height="200"/><rect class="cls-1" x="15.99" y="120.2" width="284.01" height="90" rx="0.3"/><rect class="cls-6" x="15.99" y="120.2" width="284.01" height="90" rx="0.3"/><rect class="cls-7" x="160.5" y="240.2" width="155" height="35"/><rect class="cls-7" x="160.5" y="280.2" width="155" height="35"/><rect class="cls-8" x="25.5" y="147.2" width="28.14" height="18.76" rx="0.94"/><polygon class="cls-9" points="44.26 153.85 44.26 159.3 39.57 162.05 39.57 156.58 44.26 153.85"/><polygon class="cls-10" points="44.26 153.85 39.57 156.6 34.88 153.85 39.57 151.11 44.26 153.85"/><polygon class="cls-11" points="39.57 156.6 39.57 162.05 34.88 159.3 34.88 153.85 39.57 156.6"/><polygon class="cls-10" points="34.88 159.3 39.57 156.58 39.57 162.05 34.88 159.3"/><polygon class="cls-11" points="44.26 159.3 39.57 156.58 39.57 162.05 44.26 159.3"/><path class="cls-12" d="M45.21,171.64c-2.78-.44-2.89-2.44-2.89-5.68H36.8c0,3.24-.09,5.24-2.87,5.68a1.55,1.55,0,0,0-1.39,1.56H46.61A1.57,1.57,0,0,0,45.21,171.64Z"/><rect class="cls-13" x="62.36" y="147.2" width="28.14" height="18.76" rx="0.94"/><polygon class="cls-9" points="81.12 153.85 81.12 159.3 76.43 162.05 76.43 156.58 81.12 153.85"/><polygon class="cls-10" points="81.12 153.85 76.43 156.6 71.74 153.85 76.43 151.11 81.12 153.85"/><polygon class="cls-11" points="76.43 156.6 76.43 162.05 71.74 159.3 71.74 153.85 76.43 156.6"/><polygon class="cls-10" points="71.74 159.3 76.43 156.58 76.43 162.05 71.74 159.3"/><polygon class="cls-11" points="81.12 159.3 76.43 156.58 76.43 162.05 81.12 159.3"/><path class="cls-14" d="M82.07,171.64c-2.78-.44-2.89-2.44-2.89-5.68H73.66c0,3.24-.09,5.24-2.87,5.68a1.57,1.57,0,0,0-1.4,1.56H83.46A1.55,1.55,0,0,0,82.07,171.64Z"/><line class="cls-15" x1="58.25" y1="120.2" x2="58.25" y2="55.2"/><line class="cls-15" x1="50.72" y1="112.67" x2="50.72" y2="100.98"/><polygon class="cls-16" points="53.71 101.85 50.72 96.67 47.73 101.85 53.71 101.85"/><line class="cls-15" x1="65.77" y1="108.37" x2="65.77" y2="107.62"/><line class="cls-17" x1="65.77" y1="105.19" x2="65.77" y2="98.64"/><line class="cls-15" x1="65.77" y1="97.42" x2="65.77" y2="96.67"/><polygon class="cls-16" points="68.76 107.49 65.77 112.67 62.78 107.49 68.76 107.49"/><line class="cls-15" x1="169.81" y1="250.2" x2="180.93" y2="250.2"/><polygon class="cls-16" points="170.68 253.19 165.5 250.2 170.68 247.21 170.68 253.19"/><line class="cls-15" x1="176.19" y1="290.2" x2="175.44" y2="290.2"/><line class="cls-18" x1="173.25" y1="290.2" x2="167.34" y2="290.2"/><line class="cls-15" x1="166.25" y1="290.2" x2="165.5" y2="290.2"/><polygon class="cls-16" points="175.32 287.21 180.5 290.2 175.32 293.19 175.32 287.21"/><circle class="cls-19" cx="27.9" cy="227.4" r="1.67"/><circle class="cls-20" cx="22.56" cy="227.42" r="1.67"/><circle class="cls-21" cx="17.22" cy="227.42" r="1.67"/><path class="cls-9" d="M18.43,234.11l-1,1a.43.43,0,0,1-.61,0h0l-7-7.11a.89.89,0,0,1,0-1.23h0l1-1h0l7.71,7.69a.43.43,0,0,1,0,.61h0Z"/><path class="cls-22" d="M17.33,219.78l1,.95a.44.44,0,0,1,0,.62l-7.57,7.59h0l-1-1a.88.88,0,0,1,0-1.22h0l7-7A.43.43,0,0,1,17.33,219.78Z"/><path class="cls-9" d="M34.28,225.8l1,1a.87.87,0,0,1,0,1.23h0l-7.1,7.07a.43.43,0,0,1-.61,0h0l-1-1a.43.43,0,0,1,0-.61h0Z"/><path class="cls-22" d="M35.24,228l-1,1h0l-7.57-7.59a.44.44,0,0,1,0-.62h0l1-1a.43.43,0,0,1,.61,0h0l7,7a.88.88,0,0,1,0,1.22h0Z"/><rect class="cls-1" x="40.75" y="20.2" width="35" height="35"/><rect class="cls-6" x="40.75" y="20.2" width="35" height="35"/><rect class="cls-23" x="125.5" y="147.2" width="28.14" height="18.76" rx="0.94"/><polygon class="cls-9" points="144.26 153.85 144.26 159.3 139.57 162.05 139.57 156.58 144.26 153.85"/><polygon class="cls-10" points="144.26 153.85 139.57 156.6 134.88 153.85 139.57 151.11 144.26 153.85"/><polygon class="cls-11" points="139.57 156.6 139.57 162.05 134.88 159.3 134.88 153.85 139.57 156.6"/><polygon class="cls-10" points="134.88 159.3 139.57 156.58 139.57 162.05 134.88 159.3"/><polygon class="cls-11" points="144.26 159.3 139.57 156.58 139.57 162.05 144.26 159.3"/><path class="cls-24" d="M145.21,171.64c-2.78-.44-2.89-2.44-2.89-5.68H136.8c0,3.24-.09,5.24-2.87,5.68a1.55,1.55,0,0,0-1.39,1.56h14.07A1.57,1.57,0,0,0,145.21,171.64Z"/><rect class="cls-25" x="162.36" y="147.2" width="28.14" height="18.76" rx="0.94"/><polygon class="cls-9" points="181.12 153.85 181.12 159.3 176.43 162.05 176.43 156.58 181.12 153.85"/><polygon class="cls-10" points="181.12 153.85 176.43 156.6 171.74 153.85 176.43 151.11 181.12 153.85"/><polygon class="cls-11" points="176.43 156.6 176.43 162.05 171.74 159.3 171.74 153.85 176.43 156.6"/><polygon class="cls-10" points="171.74 159.3 176.43 156.58 176.43 162.05 171.74 159.3"/><polygon class="cls-11" points="181.12 159.3 176.43 156.58 176.43 162.05 181.12 159.3"/><path class="cls-26" d="M182.07,171.64c-2.78-.44-2.89-2.44-2.89-5.68h-5.52c0,3.24-.09,5.24-2.87,5.68a1.57,1.57,0,0,0-1.4,1.56h14.07A1.55,1.55,0,0,0,182.07,171.64Z"/><line class="cls-15" x1="158.25" y1="120.2" x2="158.25" y2="55.2"/><line class="cls-15" x1="150.72" y1="112.67" x2="150.72" y2="100.98"/><polygon class="cls-16" points="153.71 101.85 150.72 96.67 147.73 101.85 153.71 101.85"/><line class="cls-15" x1="165.77" y1="108.37" x2="165.77" y2="107.62"/><line class="cls-17" x1="165.77" y1="105.19" x2="165.77" y2="98.64"/><line class="cls-15" x1="165.77" y1="97.42" x2="165.77" y2="96.67"/><polygon class="cls-16" points="168.76 107.49 165.77 112.67 162.78 107.49 168.76 107.49"/><rect class="cls-1" x="140.75" y="20.2" width="35" height="35"/><rect class="cls-6" x="140.75" y="20.2" width="35" height="35"/><rect class="cls-27" x="225.5" y="147.2" width="28.14" height="18.76" rx="0.94"/><polygon class="cls-9" points="244.26 153.85 244.26 159.3 239.57 162.05 239.57 156.58 244.26 153.85"/><polygon class="cls-10" points="244.26 153.85 239.57 156.6 234.88 153.85 239.57 151.11 244.26 153.85"/><polygon class="cls-11" points="239.57 156.6 239.57 162.05 234.88 159.3 234.88 153.85 239.57 156.6"/><polygon class="cls-10" points="234.88 159.3 239.57 156.58 239.57 162.05 234.88 159.3"/><polygon class="cls-11" points="244.26 159.3 239.57 156.58 239.57 162.05 244.26 159.3"/><path class="cls-28" d="M245.21,171.64c-2.78-.44-2.89-2.44-2.89-5.68H236.8c0,3.24-.09,5.24-2.87,5.68a1.55,1.55,0,0,0-1.39,1.56h14.07A1.57,1.57,0,0,0,245.21,171.64Z"/><rect class="cls-29" x="262.36" y="147.2" width="28.14" height="18.76" rx="0.94"/><polygon class="cls-9" points="281.12 153.85 281.12 159.3 276.43 162.05 276.43 156.58 281.12 153.85"/><polygon class="cls-10" points="281.12 153.85 276.43 156.6 271.74 153.85 276.43 151.11 281.12 153.85"/><polygon class="cls-11" points="276.43 156.6 276.43 162.05 271.74 159.3 271.74 153.85 276.43 156.6"/><polygon class="cls-10" points="271.74 159.3 276.43 156.58 276.43 162.05 271.74 159.3"/><polygon class="cls-11" points="281.12 159.3 276.43 156.58 276.43 162.05 281.12 159.3"/><path class="cls-30" d="M282.07,171.64c-2.78-.44-2.89-2.44-2.89-5.68h-5.52c0,3.24-.09,5.24-2.87,5.68a1.57,1.57,0,0,0-1.4,1.56h14.07A1.55,1.55,0,0,0,282.07,171.64Z"/><line class="cls-15" x1="258.25" y1="120.2" x2="258.25" y2="55.2"/><line class="cls-15" x1="250.72" y1="112.67" x2="250.72" y2="100.98"/><polygon class="cls-16" points="253.71 101.85 250.72 96.67 247.73 101.85 253.71 101.85"/><line class="cls-15" x1="265.77" y1="108.37" x2="265.77" y2="107.62"/><line class="cls-17" x1="265.77" y1="105.19" x2="265.77" y2="98.64"/><line class="cls-15" x1="265.77" y1="97.42" x2="265.77" y2="96.67"/><polygon class="cls-16" points="268.76 107.49 265.77 112.67 262.78 107.49 268.76 107.49"/><rect class="cls-1" x="240.75" y="20.2" width="35" height="35"/><rect class="cls-6" x="240.75" y="20.2" width="35" height="35"/><path class="cls-16" d="M309.34,227.55h-1v-1h1Zm-3,0h-1v-1h1Zm-3,0h-1v-1h1Zm-3,0h-1v-1h1Zm-3,0h-1v-1h1Zm-3,0h-1v-1h1Zm-3,0h-1v-1h1Zm-3,0h-1v-1h1Zm-3,0h-1v-1h1Zm-3,0h-1v-1h1Zm-3,0h-1v-1h1Zm-3,0h-1v-1h1Zm-3,0h-1v-1h1Zm-3,0h-1v-1h1Zm-3,0h-1v-1h1Zm-3,0h-1v-1h1Zm-3,0h-1v-1h1Zm-3,0h-1v-1h1Zm-3,0h-1v-1h1Zm-3,0h-1v-1h1Zm-3,0h-1v-1h1Zm-3,0h-1v-1h1Zm-3,0h-1v-1h1Zm-3,0h-1v-1h1Zm-3,0h-1v-1h1Zm-3,0h-1v-1h1Zm-3,0h-1v-1h1Zm-3,0h-1v-1h1Zm-3,0h-1v-1h1Zm-3,0h-1v-1h1Zm-3,0h-1v-1h1Zm-3,0h-1v-1h1Zm-3,0h-1v-1h1Zm-3,0h-1v-1h1Zm-3,0h-1v-1h1Zm-3,0h-1v-1h1Zm-3,0h-1v-1h1Zm-3,0h-1v-1h1Zm-3,0h-1v-1h1Zm-3,0h-1v-1h1Zm-3,0h-1v-1h1Zm-3,0h-1v-1h1Zm-3,0h-1v-1h1Zm-3,0h-1v-1h1Zm-3,0h-1v-1h1Zm-3,0h-1v-1h1Zm-3,0h-1v-1h1Zm-3,0h-1v-1h1Zm-3,0h-1v-1h1Zm-3,0h-1v-1h1Zm-3,0h-1v-1h1Zm-3,0h-1v-1h1Zm-3,0h-1v-1h1Zm-3,0h-1v-1h1Zm-3,0h-1v-1h1Zm-3,0h-1v-1h1Zm-3,0h-1v-1h1Zm-3,0h-1v-1h1Zm-3,0h-1v-1h1Zm-3,0h-1v-1h1Zm-3,0h-1v-1h1Zm-3,0h-1v-1h1Zm-3,0h-1v-1h1Zm-3,0h-1v-1h1Zm-3,0h-1v-1h1Zm-3,0h-1v-1h1Zm-3,0h-1v-1h1Zm-3,0h-1v-1h1Zm-3,0h-1v-1h1Zm-3,0h-1v-1h1Zm-3,0h-1v-1h1Zm-3,0h-1v-1h1Zm-3,0h-1v-1h1Zm-3,0h-1v-1h1Zm-3,0h-1v-1h1Zm-3,0h-1v-1h1Zm-3,0h-1v-1h1Zm-3,0h-1v-1h1Zm-3,0h-1v-1h1Zm-3,0h-1v-1h1Zm-3,0h-1v-1h1Zm-3,0h-1v-1h1Zm-3,0h-1v-1h1Zm-3,0h-1v-1h1Zm-3,0h-1v-1h1Zm-3,0h-1v-1h1Zm-3,0h-1v-1h1Zm-3,0H47v-1h1Zm-3,0H44v-1h1Zm-3,0H41v-1h1Zm-3,0H38v-1h1Zm-33,0H5l.1-1H6Zm305.42-.08-.16-1a4.4,4.4,0,0,0,.86-.24l.37.93a5.64,5.64,0,0,1-1.41.31ZM3.2,226.87a6.34,6.34,0,0,1-.91-.62l.65-.77a4.7,4.7,0,0,0,.74.52ZM314.32,226l-.69-.72a4.82,4.82,0,0,0,.58-.69l.82.57A5.18,5.18,0,0,1,314.32,226ZM.6,224.54a5.09,5.09,0,0,1-.4-1l1-.27a4.31,4.31,0,0,0,.33.84Zm315.29-1.39-1-.2a4.58,4.58,0,0,0,.09-.9l1-.06v.06A5.06,5.06,0,0,1,315.89,223.15ZM1,221.39H0v-1H1ZM316,220h-1v-1h1ZM1,218.39H0v-1H1ZM316,217h-1v-1h1ZM1,215.38H0v-1H1ZM316,214h-1v-1h1ZM1,212.38H0v-1H1ZM316,211h-1v-1h1ZM1,209.38H0v-1H1ZM316,208h-1v-1h1ZM1,206.37H0v-1H1ZM316,205h-1v-1h1ZM1,203.37H0v-1H1ZM316,202h-1v-1h1ZM1,200.37H0v-1H1ZM316,199h-1v-1h1ZM1,197.36H0v-1H1ZM316,196h-1v-1h1ZM1,194.36H0v-1H1ZM316,193h-1v-1h1ZM1,191.36H0v-1H1ZM316,190h-1v-1h1ZM1,188.35H0v-1H1ZM316,187h-1v-1h1ZM1,185.35H0v-1H1ZM316,184h-1v-1h1ZM1,182.35H0v-1H1ZM316,181h-1v-1h1ZM1,179.34H0v-1H1Zm315-1.4h-1v-1h1ZM1,176.34H0v-1H1Zm315-1.4h-1v-1h1ZM1,173.34H0v-1H1Zm315-1.4h-1v-1h1ZM1,170.33H0v-1H1Zm315-1.4h-1v-1h1ZM1,167.33H0v-1H1Zm315-1.4h-1v-1h1ZM1,164.33H0v-1H1Zm315-1.4h-1v-1h1ZM1,161.32H0v-1H1Zm315-1.4h-1v-1h1ZM1,158.32H0v-1H1Zm315-1.4h-1v-1h1ZM1,155.32H0v-1H1Zm315-1.4h-1v-1h1ZM1,152.31H0v-1H1Zm315-1.4h-1v-1h1ZM1,149.31H0v-1H1Zm315-1.4h-1v-1h1ZM1,146.3H0v-1H1Zm315-1.39h-1v-1h1ZM1,143.3H0v-1H1Zm315-1.4h-1v-1h1ZM1,140.3H0v-1H1Zm315-1.4h-1v-1h1ZM1,137.3H0v-1H1Zm315-1.4h-1v-1h1ZM1,134.29H0v-1H1Zm315-1.4h-1v-1h1ZM1,131.29H0v-1H1Zm315-1.4h-1v-1h1ZM1,128.28H0v-1H1Zm315-1.39h-1v-1h1ZM1,125.28H0v-1H1Zm315-1.4h-1v-1h1ZM1,122.28H0v-1H1Zm315-1.4h-1v-1h1ZM1,119.27H0v-1H1Zm315-1.39h-1v-1h1ZM1,116.27H0v-1H1Zm315-1.4h-1v-1h1ZM1,113.27H0v-1H1Zm315-1.4h-1v-1h1ZM1,110.26H0v-1H1Zm315-1.39h-1v-1h1ZM1,107.26H0v-1H1Zm315-1.4h-1v-1h1ZM1,104.26H0v-1H1Zm315-1.4h-1v-1h1ZM1,101.25H0v-1H1Zm315-1.39h-1v-1h1ZM1,98.25H0v-1H1Zm315-1.4h-1v-1h1ZM1,95.25H0v-1H1Zm315-1.4h-1v-1h1ZM1,92.24H0v-1H1Zm315-1.4h-1v-1h1ZM1,89.24H0v-1H1Zm315-1.4h-1v-1h1ZM1,86.24H0v-1H1Zm315-1.4h-1v-1h1ZM1,83.23H0v-1H1Zm315-1.39h-1v-1h1ZM0,80.23H0a6.24,6.24,0,0,1,.1-1.06l1,.19a4.81,4.81,0,0,0-.1.84ZM314.83,79a4,4,0,0,0-.33-.83l.89-.46a5.09,5.09,0,0,1,.4,1Zm-313-1.3L1,77.12a6.24,6.24,0,0,1,.7-.84l.7.71a5.09,5.09,0,0,0-.62.69Zm311.6-.93a4.58,4.58,0,0,0-.74-.5l.48-.88a5.48,5.48,0,0,1,.9.61ZM3.85,76l-.36-.92a4.43,4.43,0,0,1,1-.3l.18,1A4.73,4.73,0,0,0,3.85,76Zm307.08-.29H310v-1h1.05Zm-3,0h-1v-1h1Zm-3,0h-1v-1h1Zm-3,0h-1v-1h1Zm-3,0h-1v-1h1Zm-3,0h-1v-1h1Zm-3,0h-1v-1h1Zm-3,0h-1v-1h1Zm-3,0h-1v-1h1Zm-3,0h-1v-1h1Zm-3,0h-1v-1h1Zm-3,0h-1v-1h1Zm-3,0h-1v-1h1Zm-3,0h-1v-1h1Zm-3,0h-1v-1h1Zm-3,0h-1v-1h1Zm-3,0h-1v-1h1Zm-3,0h-1v-1h1Zm-3,0h-1v-1h1Zm-3,0h-1v-1h1Zm-3,0h-1v-1h1Zm-3,0h-1v-1h1Zm-3,0h-1v-1h1Zm-3,0h-1v-1h1Zm-3,0h-1v-1h1Zm-3,0h-1v-1h1Zm-3,0h-1v-1h1Zm-3,0h-1v-1h1Zm-3,0h-1v-1h1Zm-3,0h-1v-1h1Zm-3,0h-1v-1h1Zm-3,0h-1v-1h1Zm-3,0h-1v-1h1Zm-3,0h-1v-1h1Zm-3,0h-1v-1h1Zm-3,0h-1v-1h1Zm-3,0h-1v-1h1Zm-3,0h-1v-1h1Zm-3,0h-1v-1h1Zm-3,0h-1v-1h1Zm-3,0h-1v-1h1Zm-3,0h-1v-1h1Zm-3,0h-1v-1h1Zm-3,0h-1v-1h1Zm-3,0h-1v-1h1Zm-3,0h-1v-1h1Zm-3,0h-1v-1h1Zm-3,0h-1v-1h1Zm-3,0h-1v-1h1Zm-3,0h-1v-1h1Zm-3,0h-1v-1h1Zm-3,0h-1v-1h1Zm-3,0h-1v-1h1Zm-3,0h-1v-1h1Zm-3,0h-1v-1h1Zm-3,0h-1v-1h1Zm-3,0h-1v-1h1Zm-3,0h-1v-1h1Zm-3,0h-1v-1h1Zm-3,0h-1v-1h1Zm-3,0h-1v-1h1Zm-3,0h-1v-1h1Zm-3,0h-1v-1h1Zm-3,0h-1v-1h1Zm-3,0h-1v-1h1Zm-3,0h-1v-1h1Zm-3,0h-1v-1h1Zm-3,0h-1v-1h1Zm-3,0h-1v-1h1Zm-3,0h-1v-1h1Zm-3,0h-1v-1h1Zm-3,0h-1v-1h1Zm-3,0h-1v-1h1Zm-3,0h-1v-1h1Zm-3,0h-1v-1h1Zm-3,0h-1v-1h1Zm-3,0h-1v-1h1Zm-3,0h-1v-1h1Zm-3,0h-1v-1h1Zm-3,0h-1v-1h1Zm-3,0h-1v-1h1Zm-3,0h-1v-1h1Zm-3,0h-1v-1h1Zm-3,0h-1v-1h1Zm-3,0h-1v-1h1Zm-3,0h-1v-1h1Zm-3,0h-1v-1h1Zm-3,0h-1v-1h1Zm-3,0h-1v-1h1Zm-3,0h-1v-1h1Zm-3,0h-1v-1h1Zm-3,0h-1v-1h1Zm-3,0h-1v-1h1Zm-3,0h-1v-1h1Zm-3,0h-1v-1h1Zm-3,0h-1v-1h1Zm-3,0h-1v-1h1Zm-3,0h-1v-1h1Zm-3,0h-1v-1h1Zm-3,0h-1v-1h1Zm-3,0h-1v-1h1Zm-3,0h-1v-1h1Z"/><polygon class="cls-31" points="266.98 102.88 263.82 99.7 258 105.52 252.18 99.7 249 102.88 254.81 108.7 249 114.51 252.18 117.69 257.98 111.88 263.81 117.7 266.98 114.52 261.16 108.7 266.98 102.88"/><polygon class="cls-31" points="167.5 102.88 164.34 99.7 158.52 105.52 152.69 99.7 149.52 102.88 155.32 108.7 149.52 114.51 152.69 117.69 158.5 111.88 164.32 117.7 167.5 114.52 161.68 108.7 167.5 102.88"/><g id="ad94e297-0e86-4eaf-aac0-d146ee9aea65"><path class="cls-32" d="M54.08,82.59,49.4,77.75a2.29,2.29,0,0,1-.78.14,2.43,2.43,0,1,1,2.24-3.32h4.62v1.61H50.93a3.68,3.68,0,0,1-.26.57L55,81.22l2.34-3.57V66.47H54.19l4-4,3.94,4H59V75.2l5.93-9-6-6a1,1,0,0,0-1.41-.06l-.06.06h0L43,74.63A1,1,0,0,0,42.94,76l.06.06h0L57.44,90.59l-5.17-5.17Z"/><path class="cls-33" d="M57.34,82.8V77.63L55,81.22l1.72,1.84A1.78,1.78,0,0,1,57.34,82.8Z"/><path class="cls-33" d="M73.36,74.63l-8.47-8.47L59,75.2v7.62a2.1,2.1,0,0,1,.53.29l6.22-6.29a2.91,2.91,0,0,1-.31-.64H60.73V74.57h4.74a2.41,2.41,0,1,1,2.24,3.32,3,3,0,0,1-.67-.1l-6.62,6.66a2.18,2.18,0,0,1,.11.62,2.43,2.43,0,0,1-4.86.19,2.25,2.25,0,0,1,.14-.89l-1.73-1.72L52.24,85.4l5.17,5.17a1,1,0,0,0,1.41,0l0,0L73.33,76.1a1,1,0,0,0,0-1.41l0,0Z"/><path class="cls-34" d="M65.47,74.57H60.73v1.61H65.4a2.22,2.22,0,0,1-.12-.72A2.26,2.26,0,0,1,65.47,74.57Z"/><path class="cls-34" d="M50.93,76.18h4.55V74.57H50.86a2.26,2.26,0,0,1,.19.89A2.18,2.18,0,0,1,50.93,76.18Z"/><path class="cls-34" d="M60.42,84.45,67,77.79a2.43,2.43,0,0,1-1.33-1l-6.22,6.29A2.29,2.29,0,0,1,60.42,84.45Z"/><path class="cls-34" d="M56.77,83.06l-1.72-1.84-4.38-4.47a2.46,2.46,0,0,1-1.27,1l4.68,4.84,1.73,1.73A2.28,2.28,0,0,1,56.77,83.06Z"/><path class="cls-1" d="M62.09,66.47l-3.92-4-4,4h3.15V82.8a1.73,1.73,0,0,0-.57.26,2.34,2.34,0,0,0-1,1.31,2.41,2.41,0,0,0,4.57,1.54s0-.09,0-.14a2.38,2.38,0,0,0,.11-.7,2.66,2.66,0,0,0-1-2,2.1,2.1,0,0,0-.53-.29V66.47Zm-3.92,20a1.35,1.35,0,1,1,1.34-1.36h0a1.35,1.35,0,0,1-1.34,1.3Z"/><path class="cls-1" d="M50.67,76.75a3.68,3.68,0,0,0,.26-.57,2.18,2.18,0,0,0,.12-.72,2.26,2.26,0,0,0-.19-.89,2.41,2.41,0,1,0-2.24,3.32,2.29,2.29,0,0,0,.78-.14A2.46,2.46,0,0,0,50.67,76.75Zm-2.05,0A1.34,1.34,0,1,1,50,75.41h0a1.33,1.33,0,0,1-1.27,1.39h-.07Z"/><path class="cls-1" d="M67,77.79a3,3,0,0,0,.67.1,2.43,2.43,0,1,0-2.24-3.32,2.26,2.26,0,0,0-.19.89,2.22,2.22,0,0,0,.12.72,2.91,2.91,0,0,0,.31.64A2.45,2.45,0,0,0,67,77.79Zm.67-3.66a1.34,1.34,0,0,1,1.18,1.48h0a1.34,1.34,0,1,1-1.48-1.49Z"/><path class="cls-35" d="M58.17,83.73a1.35,1.35,0,1,0,1.34,1.36v0h0A1.34,1.34,0,0,0,58.17,83.73Z"/><circle class="cls-35" cx="48.62" cy="75.46" r="1.34"/><path class="cls-35" d="M67.71,76.81a1.35,1.35,0,1,0-1.34-1.36h0A1.36,1.36,0,0,0,67.71,76.81Z"/></g><g id="ad94e297-0e86-4eaf-aac0-d146ee9aea65-2"><path class="cls-32" d="M154.14,82.59l-4.68-4.84a2.29,2.29,0,0,1-.78.14,2.43,2.43,0,1,1,2.24-3.32h4.62v1.61H151a3.68,3.68,0,0,1-.26.57l4.33,4.47,2.34-3.57V66.47h-3.15l4-4,3.94,4H159V75.2l5.92-9-6-6a1,1,0,0,0-1.41-.06l-.06.06h0L143,74.63a1,1,0,0,0-.06,1.41l.06.06h0l14.5,14.49-5.17-5.17Z"/><path class="cls-33" d="M157.4,82.8V77.63l-2.34,3.59,1.72,1.84A1.78,1.78,0,0,1,157.4,82.8Z"/><path class="cls-33" d="M173.42,74.63l-8.48-8.47-5.92,9v7.62a2.1,2.1,0,0,1,.53.29l6.22-6.29a2.91,2.91,0,0,1-.31-.64h-4.67V74.57h4.74a2.41,2.41,0,1,1,2.24,3.32,3,3,0,0,1-.67-.1l-6.62,6.66a2.6,2.6,0,0,1,.11.62,2.43,2.43,0,0,1-4.86.16,2.53,2.53,0,0,1,.13-.86l-1.72-1.72L152.3,85.4l5.17,5.17a1,1,0,0,0,1.41,0l0,0L173.39,76.1a1,1,0,0,0,.05-1.41s0,0-.05,0Z"/><path class="cls-34" d="M165.53,74.57h-4.74v1.61h4.67a2.18,2.18,0,0,1-.12-.72A2.26,2.26,0,0,1,165.53,74.57Z"/><path class="cls-34" d="M151,76.18h4.55V74.57h-4.62a2.26,2.26,0,0,1,.19.89A2.18,2.18,0,0,1,151,76.18Z"/><path class="cls-34" d="M160.48,84.45l6.62-6.66a2.43,2.43,0,0,1-1.33-1l-6.22,6.29A2.27,2.27,0,0,1,160.48,84.45Z"/><path class="cls-34" d="M156.83,83.06l-1.72-1.84-4.38-4.47a2.46,2.46,0,0,1-1.27,1l4.68,4.84,1.72,1.73A2.38,2.38,0,0,1,156.83,83.06Z"/><path class="cls-1" d="M162.15,66.47l-3.92-4-4,4h3.15V82.8a1.73,1.73,0,0,0-.57.26,2.38,2.38,0,0,0-1,1.31,2.41,2.41,0,1,0,4.62,1.4h0a2.76,2.76,0,0,0,.11-.7,2.6,2.6,0,0,0-.11-.62,2.24,2.24,0,0,0-.93-1.34,2.1,2.1,0,0,0-.53-.29V66.47Zm-3.92,20a1.35,1.35,0,1,1,1.34-1.36h0a1.35,1.35,0,0,1-1.34,1.3Z"/><path class="cls-1" d="M150.73,76.75a3.68,3.68,0,0,0,.26-.57,2.18,2.18,0,0,0,.12-.72,2.26,2.26,0,0,0-.19-.89,2.41,2.41,0,1,0-2.24,3.32,2.29,2.29,0,0,0,.78-.14A2.46,2.46,0,0,0,150.73,76.75Zm-2,0A1.34,1.34,0,1,1,150,75.34v.07h0a1.33,1.33,0,0,1-1.27,1.39h0Z"/><path class="cls-1" d="M167.1,77.79a3,3,0,0,0,.67.1,2.43,2.43,0,1,0-2.24-3.32,2.26,2.26,0,0,0-.19.89,2.18,2.18,0,0,0,.12.72,2.91,2.91,0,0,0,.31.64A2.45,2.45,0,0,0,167.1,77.79Zm.67-3.66A1.35,1.35,0,0,1,169,75.57v.05a1.34,1.34,0,1,1-1.48-1.49Z"/><path class="cls-35" d="M158.23,83.73a1.35,1.35,0,1,0,1.34,1.36v0h0A1.34,1.34,0,0,0,158.23,83.73Z"/><circle class="cls-35" cx="148.68" cy="75.46" r="1.34"/><path class="cls-35" d="M167.77,76.81a1.35,1.35,0,1,0-1.34-1.36h0A1.36,1.36,0,0,0,167.77,76.81Z"/></g><g id="ad94e297-0e86-4eaf-aac0-d146ee9aea65-3"><path class="cls-32" d="M254.18,82.59l-4.69-4.84a2.28,2.28,0,0,1-.77.14A2.43,2.43,0,1,1,251,74.57h4.61v1.61H251a3.68,3.68,0,0,1-.26.57l4.32,4.47,2.35-3.57V66.47h-3.16l4-4,3.95,4H259V75.2l5.93-9-6-6a1,1,0,0,0-1.41-.05l-.05.05h0L243.07,74.63A1,1,0,0,0,243,76l.06.06h0l14.47,14.47-5.17-5.17Z"/><path class="cls-33" d="M257.44,82.8V77.63l-2.35,3.59,1.72,1.84A1.59,1.59,0,0,1,257.44,82.8Z"/><path class="cls-33" d="M273.46,74.63,265,66.16l-5.93,9v7.62a2.16,2.16,0,0,1,.54.29l6.22-6.29a2.53,2.53,0,0,1-.31-.64h-4.67V74.57h4.74a2.41,2.41,0,1,1,2.24,3.32,3.1,3.1,0,0,1-.68-.1l-6.61,6.66a2.17,2.17,0,0,1,.1.62,2.43,2.43,0,1,1-4.84.44,2.18,2.18,0,0,1,0-.25,2.47,2.47,0,0,1,.13-.89l-1.72-1.72-1.84,2.75,5.16,5.17a1,1,0,0,0,1.41,0l0,0L273.42,76.1a1,1,0,0,0,.05-1.41l-.05,0Z"/><path class="cls-34" d="M265.57,74.57h-4.74v1.61h4.67a2.18,2.18,0,0,1-.12-.72A2.09,2.09,0,0,1,265.57,74.57Z"/><path class="cls-34" d="M251,76.18h4.54V74.57H251a2.26,2.26,0,0,1,.19.89A2.94,2.94,0,0,1,251,76.18Z"/><path class="cls-34" d="M260.52,84.45l6.61-6.66a2.44,2.44,0,0,1-1.32-1l-6.22,6.29A2.3,2.3,0,0,1,260.52,84.45Z"/><path class="cls-34" d="M256.87,83.06l-1.73-1.84-4.37-4.47a2.45,2.45,0,0,1-1.28,1l4.69,4.84,1.72,1.73A2.38,2.38,0,0,1,256.87,83.06Z"/><path class="cls-1" d="M262.19,66.47l-3.93-4-4,4h3.16V82.8a1.73,1.73,0,0,0-.57.26,2.38,2.38,0,0,0-1,1.31,2.41,2.41,0,0,0,4.62,1.4h0a2.37,2.37,0,0,0,.1-.7,2.17,2.17,0,0,0-.1-.62,2.36,2.36,0,0,0-.93-1.34,2.16,2.16,0,0,0-.54-.29V66.47Zm-3.93,20a1.35,1.35,0,1,1,1.35-1.35h0a1.35,1.35,0,0,1-1.35,1.3Z"/><path class="cls-1" d="M250.77,76.75a3.68,3.68,0,0,0,.26-.57,2.93,2.93,0,0,0,.12-.72,2.26,2.26,0,0,0-.19-.89,2.41,2.41,0,1,0-2.24,3.32,2.28,2.28,0,0,0,.77-.14A2.45,2.45,0,0,0,250.77,76.75Zm-2.05,0a1.34,1.34,0,1,1,1.34-1.34h0a1.33,1.33,0,0,1-1.27,1.39h-.07Z"/><path class="cls-1" d="M267.13,77.79a3.1,3.1,0,0,0,.68.1,2.43,2.43,0,1,0-2.24-3.32,2.09,2.09,0,0,0-.19.89,2.18,2.18,0,0,0,.12.72,2.53,2.53,0,0,0,.31.64A2.39,2.39,0,0,0,267.13,77.79Zm.68-3.66a1.34,1.34,0,1,1-.31,0Z"/><path class="cls-35" d="M258.26,83.73a1.35,1.35,0,1,0,1.35,1.35h0A1.36,1.36,0,0,0,258.26,83.73Z"/><circle class="cls-35" cx="248.72" cy="75.46" r="1.34"/><path class="cls-35" d="M267.81,76.81a1.35,1.35,0,1,0-1.35-1.35h0a1.34,1.34,0,0,0,1.35,1.35Z"/></g></g></g><g id="Text"><path class="cls-36" d="M52.14,32V35.2h-1V26.8h2.31a3,3,0,0,1,2.09.65,2.37,2.37,0,0,1,.74,1.85,2.54,2.54,0,0,1-.82,2,3.14,3.14,0,0,1-2.23.76Zm0-4.33v3.44h1a2.28,2.28,0,0,0,1.55-.46,1.65,1.65,0,0,0,.54-1.32c0-1.11-.66-1.66-2-1.66Z"/><path class="cls-36" d="M58.86,35.2h-1V26.8h1Z"/><path class="cls-36" d="M62.05,32V35.2h-1V26.8h2.31a3,3,0,0,1,2.08.65,2.34,2.34,0,0,1,.75,1.85,2.55,2.55,0,0,1-.83,2,3.13,3.13,0,0,1-2.22.76Zm0-4.33v3.44h1a2.32,2.32,0,0,0,1.56-.46,1.64,1.64,0,0,0,.53-1.32c0-1.11-.65-1.66-2-1.66Z"/><path class="cls-36" d="M55.1,48.35H54L53.12,46H49.56l-.84,2.35h-1.1L50.84,40h1Zm-2.3-3.24-1.32-3.58a2.59,2.59,0,0,1-.13-.56h0a2.59,2.59,0,0,1-.13.56l-1.31,3.58Z"/><path class="cls-36" d="M62.17,40.18l-4.92,7.28h4.8v.89H55.78v-.27l4.88-7.24H56.17V40h6Z"/><path class="cls-36" d="M66.67,48.35h-1V41.09a1.72,1.72,0,0,1-.33.26,5.1,5.1,0,0,1-.48.28,5.85,5.85,0,0,1-.56.26,3.63,3.63,0,0,1-.58.2v-1a4.2,4.2,0,0,0,.68-.23,7.33,7.33,0,0,0,.69-.34c.23-.12.45-.25.65-.38a6.62,6.62,0,0,0,.53-.4h.36Z"/><path class="cls-36" d="M152.05,32V35.2h-1V26.8h2.31a3,3,0,0,1,2.09.65,2.37,2.37,0,0,1,.74,1.85,2.55,2.55,0,0,1-.83,2,3.13,3.13,0,0,1-2.22.76Zm0-4.33v3.44h1a2.32,2.32,0,0,0,1.56-.46,1.65,1.65,0,0,0,.54-1.32c0-1.11-.66-1.66-2-1.66Z"/><path class="cls-36" d="M158.77,35.2h-1V26.8h1Z"/><path class="cls-36" d="M162,32V35.2h-1V26.8h2.31a3,3,0,0,1,2.09.65,2.37,2.37,0,0,1,.74,1.85,2.54,2.54,0,0,1-.82,2,3.14,3.14,0,0,1-2.23.76Zm0-4.33v3.44h1a2.28,2.28,0,0,0,1.55-.46,1.65,1.65,0,0,0,.54-1.32c0-1.11-.66-1.66-2-1.66Z"/><path class="cls-36" d="M155,48.35h-1.09L153,46h-3.56l-.84,2.35h-1.09l3.22-8.4h1Zm-2.3-3.24-1.32-3.58a4.87,4.87,0,0,1-.13-.56h0a3.36,3.36,0,0,1-.13.56l-1.31,3.58Z"/><path class="cls-36" d="M162.09,40.18l-4.93,7.28H162v.89h-6.28v-.27l4.88-7.24h-4.48V40h6Z"/><path class="cls-36" d="M166.87,42.15a1.71,1.71,0,0,0-.12-.67,1.37,1.37,0,0,0-.33-.48,1.26,1.26,0,0,0-.49-.28,1.74,1.74,0,0,0-.61-.1,2,2,0,0,0-.55.08,2.57,2.57,0,0,0-.52.21,3.84,3.84,0,0,0-.5.32,4.37,4.37,0,0,0-.44.42v-1a2.58,2.58,0,0,1,.91-.6,3.14,3.14,0,0,1,1.22-.21,2.91,2.91,0,0,1,.95.15,2.09,2.09,0,0,1,.76.43,2,2,0,0,1,.51.71,2.47,2.47,0,0,1,.19,1,3.16,3.16,0,0,1-.12.9,2.6,2.6,0,0,1-.34.76,3.73,3.73,0,0,1-.59.69,8.71,8.71,0,0,1-.82.67c-.4.28-.72.52-1,.72a4.3,4.3,0,0,0-.61.56,1.59,1.59,0,0,0-.31.52,1.57,1.57,0,0,0-.1.6h4.19v.86H163v-.42a3.35,3.35,0,0,1,.12-.94,2.38,2.38,0,0,1,.39-.78,4,4,0,0,1,.7-.74c.29-.25.65-.53,1.07-.83A6.87,6.87,0,0,0,166,44a3.23,3.23,0,0,0,.49-.6,1.93,1.93,0,0,0,.27-.61A2.69,2.69,0,0,0,166.87,42.15Z"/><path class="cls-36" d="M18.05,10.27H17l-.89-2.36H12.51l-.84,2.36H10.58L13.8,1.86h1ZM15.75,7,14.43,3.45a5.16,5.16,0,0,1-.13-.57h0a2.62,2.62,0,0,1-.14.57L12.84,7Z"/><path class="cls-36" d="M25.13,2.1,20.2,9.38H25v.89H18.73V10l4.88-7.23H19.13v-.9h6Z"/><path class="cls-36" d="M29.63,10.27h-1V3a2,2,0,0,1-.32.25,5.06,5.06,0,0,1-.48.29l-.56.26a3.56,3.56,0,0,1-.58.19V3a6.12,6.12,0,0,0,.67-.24c.24-.1.47-.21.7-.33a5.73,5.73,0,0,0,.64-.39,4.05,4.05,0,0,0,.53-.39h.37Z"/><path class="cls-36" d="M118.09,10.27H117l-.89-2.36h-3.56l-.84,2.36h-1.09l3.22-8.41h1ZM115.79,7l-1.32-3.58a5.16,5.16,0,0,1-.13-.57h0a3.51,3.51,0,0,1-.13.57L112.88,7Z"/><path class="cls-36" d="M125.17,2.1l-4.92,7.28h4.8v.89h-6.28V10l4.89-7.23h-4.49v-.9h6Z"/><path class="cls-36" d="M130,4.07a1.79,1.79,0,0,0-.12-.68,1.25,1.25,0,0,0-.33-.47,1.28,1.28,0,0,0-.49-.29,2,2,0,0,0-.61-.09,2,2,0,0,0-.55.07,3.38,3.38,0,0,0-.52.22,3,3,0,0,0-.5.32,4.2,4.2,0,0,0-.44.41v-1a2.88,2.88,0,0,1,.91-.6,3.14,3.14,0,0,1,1.22-.21,2.91,2.91,0,0,1,.95.15,2.25,2.25,0,0,1,.77.44,2,2,0,0,1,.5.71,2.27,2.27,0,0,1,.19,1,3.16,3.16,0,0,1-.12.9,2.73,2.73,0,0,1-.34.76,3.73,3.73,0,0,1-.59.69,8.7,8.7,0,0,1-.82.66c-.4.28-.72.52-1,.72a5,5,0,0,0-.61.56,1.7,1.7,0,0,0-.31.52,1.91,1.91,0,0,0-.09.61h4.18v.86h-5.19V9.85a3.43,3.43,0,0,1,.12-.95,2.59,2.59,0,0,1,.39-.78,4.73,4.73,0,0,1,.7-.74c.29-.24.65-.52,1.07-.83a8.24,8.24,0,0,0,.77-.62,3.23,3.23,0,0,0,.49-.6,1.93,1.93,0,0,0,.27-.61A2.69,2.69,0,0,0,130,4.07Z"/><path class="cls-36" d="M252.09,32V35.2h-1V26.8h2.31a3,3,0,0,1,2.09.65,2.37,2.37,0,0,1,.74,1.85,2.58,2.58,0,0,1-.82,2,3.14,3.14,0,0,1-2.23.76Zm0-4.33v3.44h1a2.3,2.3,0,0,0,1.55-.46,1.65,1.65,0,0,0,.54-1.32c0-1.11-.66-1.66-2-1.66Z"/><path class="cls-36" d="M258.82,35.2h-1V26.8h1Z"/><path class="cls-36" d="M262,32V35.2h-1V26.8h2.31a3,3,0,0,1,2.09.65,2.33,2.33,0,0,1,.74,1.85,2.54,2.54,0,0,1-.82,2,3.13,3.13,0,0,1-2.22.76Zm0-4.33v3.44h1a2.32,2.32,0,0,0,1.56-.46,1.67,1.67,0,0,0,.53-1.32c0-1.11-.65-1.66-2-1.66Z"/><path class="cls-36" d="M255.06,48.35H254L253.08,46h-3.57l-.84,2.35h-1.09L250.8,40h1Zm-2.31-3.24-1.32-3.58a3.61,3.61,0,0,1-.12-.56h0a3.36,3.36,0,0,1-.13.56l-1.31,3.58Z"/><path class="cls-36" d="M262.13,40.18l-4.92,7.28H262v.89h-6.27v-.27l4.88-7.24h-4.49V40h6Z"/><path class="cls-36" d="M268,46a2.51,2.51,0,0,1-.21,1,2.36,2.36,0,0,1-.61.79,3,3,0,0,1-.93.52,3.87,3.87,0,0,1-1.2.18,3.44,3.44,0,0,1-1.91-.46V47a3.07,3.07,0,0,0,1.94.67,2.86,2.86,0,0,0,.8-.11,2,2,0,0,0,.61-.33,1.39,1.39,0,0,0,.39-.51,1.6,1.6,0,0,0,.14-.67c0-1.1-.79-1.65-2.35-1.65h-.7V43.6h.67c1.38,0,2.07-.52,2.07-1.55s-.53-1.43-1.58-1.43a2.68,2.68,0,0,0-1.67.6v-.93a3.64,3.64,0,0,1,1.91-.48,3.11,3.11,0,0,1,1,.14,2.4,2.4,0,0,1,.74.41,1.87,1.87,0,0,1,.47.64,1.92,1.92,0,0,1,.17.81A2,2,0,0,1,266,43.94v0a2.56,2.56,0,0,1,.79.21A1.9,1.9,0,0,1,268,46Z"/><path class="cls-36" d="M83.19,90.37H82.1L81.21,88H77.64l-.83,2.36h-1.1L78.93,82h1Zm-2.31-3.24-1.31-3.58a2.71,2.71,0,0,1-.13-.57h0a2.7,2.7,0,0,1-.13.57L78,87.13Z"/><path class="cls-36" d="M90.26,82.2l-4.92,7.28h4.8v.89H83.87v-.28l4.88-7.23H84.26V82h6Z"/><path class="cls-36" d="M94.76,90.37h-1V83.11a2.14,2.14,0,0,1-.33.25,5.06,5.06,0,0,1-.48.29,5.85,5.85,0,0,1-.56.26,3.56,3.56,0,0,1-.58.19v-1a5.46,5.46,0,0,0,.67-.24c.24-.1.47-.21.7-.33a5.88,5.88,0,0,0,.65-.39,4.87,4.87,0,0,0,.53-.39h.36Z"/><path class="cls-36" d="M36.51,203.39H35.42L34.53,201H31l-.84,2.36H29l3.22-8.4h1Zm-2.3-3.24-1.32-3.58a5.45,5.45,0,0,1-.13-.56h0a3.62,3.62,0,0,1-.13.56l-1.31,3.58Z"/><path class="cls-36" d="M43.59,195.22l-4.93,7.28h4.81v.89H37.19v-.28l4.88-7.23H37.59V195h6Z"/><path class="cls-36" d="M48.09,203.39h-1v-7.26a2.79,2.79,0,0,1-.33.25,5.06,5.06,0,0,1-.48.29l-.56.26a3.56,3.56,0,0,1-.58.19v-1a6.12,6.12,0,0,0,.67-.24c.24-.1.47-.21.7-.33a7,7,0,0,0,.65-.39,4.69,4.69,0,0,0,.52-.39h.37Z"/><path class="cls-36" d="M183.1,90.37H182L181.12,88h-3.56l-.84,2.36h-1.09L178.85,82h1Zm-2.3-3.24-1.32-3.58a5.16,5.16,0,0,1-.13-.57h0a3.51,3.51,0,0,1-.13.57l-1.31,3.58Z"/><path class="cls-36" d="M190.18,82.2l-4.93,7.28h4.81v.89h-6.28v-.28l4.88-7.23h-4.48V82h6Z"/><path class="cls-36" d="M195,84.17a1.79,1.79,0,0,0-.12-.68,1.25,1.25,0,0,0-.33-.47,1.28,1.28,0,0,0-.49-.29,2,2,0,0,0-.61-.09,2,2,0,0,0-.55.07,3.49,3.49,0,0,0-.53.22,3.46,3.46,0,0,0-.93.73v-1a2.88,2.88,0,0,1,.91-.6,3.14,3.14,0,0,1,1.22-.21,2.91,2.91,0,0,1,.95.15,2.11,2.11,0,0,1,.76.44,1.93,1.93,0,0,1,.51.71,2.43,2.43,0,0,1,.19,1,3.16,3.16,0,0,1-.12.9,2.73,2.73,0,0,1-.34.76,3.73,3.73,0,0,1-.59.69,8.7,8.7,0,0,1-.82.66c-.4.28-.72.52-1,.72a4.34,4.34,0,0,0-.61.56,1.63,1.63,0,0,0-.31.53,1.57,1.57,0,0,0-.1.6h4.19v.86h-5.19V90a3.43,3.43,0,0,1,.12-1,2.59,2.59,0,0,1,.39-.78,4.73,4.73,0,0,1,.7-.74c.29-.24.65-.52,1.07-.83a8.24,8.24,0,0,0,.77-.62,3.23,3.23,0,0,0,.49-.6,1.93,1.93,0,0,0,.27-.61A2.69,2.69,0,0,0,195,84.17Z"/><path class="cls-36" d="M283.15,90.37h-1.09L281.17,88H277.6l-.84,2.36h-1.09L278.89,82h1Zm-2.31-3.24-1.32-3.58a3.81,3.81,0,0,1-.12-.57h0a3.51,3.51,0,0,1-.13.57l-1.31,3.58Z"/><path class="cls-36" d="M290.22,82.2l-4.92,7.28h4.8v.89h-6.27v-.28l4.88-7.23h-4.49V82h6Z"/><path class="cls-36" d="M296.06,88a2.46,2.46,0,0,1-.21,1,2.4,2.4,0,0,1-.61.8,2.79,2.79,0,0,1-.93.51,3.87,3.87,0,0,1-1.2.18,3.53,3.53,0,0,1-1.91-.45V89a3.06,3.06,0,0,0,1.94.66,2.54,2.54,0,0,0,.8-.11,1.64,1.64,0,0,0,.6-.32,1.42,1.42,0,0,0,.4-.51,1.6,1.6,0,0,0,.14-.67c0-1.1-.79-1.65-2.35-1.65H292v-.81h.67c1.38,0,2.07-.52,2.07-1.55s-.53-1.43-1.58-1.43a2.68,2.68,0,0,0-1.67.6V82.3a3.64,3.64,0,0,1,1.91-.48,2.83,2.83,0,0,1,.95.15,2.21,2.21,0,0,1,.74.41,1.93,1.93,0,0,1,.47.63,2,2,0,0,1,.16.82A2,2,0,0,1,294.08,86v0a2.87,2.87,0,0,1,.79.21,2.31,2.31,0,0,1,.63.42,2,2,0,0,1,.41.61A1.92,1.92,0,0,1,296.06,88Z"/><path class="cls-36" d="M218.14,10.27h-1.09l-.89-2.36h-3.57l-.83,2.36h-1.1l3.22-8.41h1ZM215.83,7l-1.31-3.58a2.71,2.71,0,0,1-.13-.57h0a3.51,3.51,0,0,1-.13.57L212.92,7Z"/><path class="cls-36" d="M225.21,2.1l-4.92,7.28h4.8v.89h-6.27V10l4.88-7.23h-4.49v-.9h6Z"/><path class="cls-36" d="M231.05,7.89a2.46,2.46,0,0,1-.21,1,2.4,2.4,0,0,1-.61.8,2.79,2.79,0,0,1-.93.51,3.78,3.78,0,0,1-1.2.18,3.53,3.53,0,0,1-1.91-.45v-1a3.06,3.06,0,0,0,1.94.66,2.5,2.5,0,0,0,.8-.11,1.78,1.78,0,0,0,.61-.32,1.39,1.39,0,0,0,.39-.51,1.6,1.6,0,0,0,.14-.67c0-1.1-.78-1.65-2.35-1.65H227V5.51h.66c1.38,0,2.07-.51,2.07-1.54s-.53-1.43-1.58-1.43a2.7,2.7,0,0,0-1.67.6V2.2a3.64,3.64,0,0,1,1.91-.48,2.93,2.93,0,0,1,1,.15,2.26,2.26,0,0,1,.73.41,1.93,1.93,0,0,1,.47.63,2,2,0,0,1,.17.82,2.06,2.06,0,0,1-1.68,2.13v0a2.78,2.78,0,0,1,.79.21,2.31,2.31,0,0,1,.63.42,2,2,0,0,1,.41.61A1.92,1.92,0,0,1,231.05,7.89Z"/><path class="cls-36" d="M140.09,127.77h2v.84h-2v.93a5.32,5.32,0,0,1-4.64,6.21L135,135a5.36,5.36,0,0,0,3.3-1.75,6,6,0,0,0,.91-3.63v-1h-3.08v3.29h-.92v-3.29h-1.88v-.84h1.88v-2.46h.92v2.46h3.08v-2.48h.93Z"/><path class="cls-36" d="M148.88,126.29a10.7,10.7,0,0,0-.65-1.47l.63-.25a16.81,16.81,0,0,1,.9,2.1l-.4.16.16.37a10.22,10.22,0,0,1-1.73,5.88,8.61,8.61,0,0,1-4,2.64l-.52-.74a7.57,7.57,0,0,0,4-2.85,9.28,9.28,0,0,0,1.2-5h-5.74v-.83Zm.76-1.77.61-.23a9.94,9.94,0,0,1,.88,2l-.64.27A11.3,11.3,0,0,0,149.64,124.52Z"/><path class="cls-36" d="M156.9,126.87h2.78l.27.59a19.35,19.35,0,0,1-3,3v5.21H156v-4.5a20.2,20.2,0,0,1-3.71,2l-.5-.7a16.77,16.77,0,0,0,6.77-4.83h-6v-.83H156v-1.79h1Zm.82,4,.55-.63a20.3,20.3,0,0,1,2.76,2.16l-.6.79A18.07,18.07,0,0,0,157.72,130.91Z"/><path class="cls-36" d="M160.52,128.46l.78-.35a16.28,16.28,0,0,1,1,2.71l-.81.32A14.93,14.93,0,0,0,160.52,128.46Zm1.36,6.74a6.24,6.24,0,0,0,3.29-2.74,10.41,10.41,0,0,0,1.07-4.58l.9.19a12,12,0,0,1-1.23,4.85,5.64,5.64,0,0,1-1.47,1.74,8.55,8.55,0,0,1-2,1.17Zm1-7.27.77-.33a16.1,16.1,0,0,1,.9,2.66l-.8.35A12.41,12.41,0,0,0,162.84,127.93Z"/><path class="cls-36" d="M168.59,129.79v5.91h-1V125.27h1v3.6a19.22,19.22,0,0,1,4.68,2l-.47.9A15.28,15.28,0,0,0,168.59,129.79Z"/><path class="cls-36" d="M183.48,135.2h-1.11l-.91-2.44h-3.65L177,135.2h-1.12l3.3-8.71h1Zm-2.35-3.36-1.35-3.71a3.27,3.27,0,0,1-.14-.58h0a3.29,3.29,0,0,1-.14.58l-1.34,3.71Z"/><path class="cls-36" d="M37.79,181.71l-3.12,8.54H33.58l-3.06-8.54h1.1L34,188.48a4.63,4.63,0,0,1,.17.75h0a3.58,3.58,0,0,1,.2-.76l2.38-6.76Z"/><path class="cls-36" d="M47.57,190.25h-1v-5.73c0-.45,0-1,.08-1.66h0a5.6,5.6,0,0,1-.26.83l-2.88,6.56H43l-2.88-6.52a4.83,4.83,0,0,1-.25-.87h0c0,.34,0,.9,0,1.67v5.72H39v-8.54h1.31l2.58,5.95a7.92,7.92,0,0,1,.39,1h0c.17-.47.3-.82.4-1.05l2.64-5.93h1.24Z"/><path class="cls-36" d="M73.18,203.39H72.09L71.2,201H67.63l-.83,2.36H65.7l3.22-8.4h1Zm-2.31-3.24-1.31-3.58a2.75,2.75,0,0,1-.13-.56h0a3.62,3.62,0,0,1-.13.56L68,200.15Z"/><path class="cls-36" d="M80.25,195.22l-4.92,7.28h4.8v.89H73.86v-.28l4.88-7.23H74.25V195h6Z"/><path class="cls-36" d="M84.75,203.39h-1v-7.26a2.14,2.14,0,0,1-.33.25,5.06,5.06,0,0,1-.48.29c-.18.09-.36.18-.56.26a3.56,3.56,0,0,1-.58.19v-1a5.46,5.46,0,0,0,.67-.24c.24-.1.47-.21.7-.33a5.88,5.88,0,0,0,.65-.39,4.87,4.87,0,0,0,.53-.39h.36Z"/><path class="cls-36" d="M74.46,181.71l-3.13,8.54H70.25l-3.06-8.54h1.1l2.33,6.77a3.77,3.77,0,0,1,.17.75h0a3.52,3.52,0,0,1,.19-.76l2.38-6.76Z"/><path class="cls-36" d="M84.23,190.25h-1v-5.73c0-.45,0-1,.08-1.66h0a7.61,7.61,0,0,1-.25.83l-2.89,6.56h-.48l-2.88-6.52a5.84,5.84,0,0,1-.25-.87h0c0,.34,0,.9,0,1.67v5.72h-1v-8.54h1.31l2.59,5.95a6.37,6.37,0,0,1,.38,1h0c.17-.47.3-.82.41-1.05L83,181.71h1.23Z"/><path class="cls-36" d="M136.46,203.39h-1.09l-.89-2.36h-3.56l-.84,2.36H129l3.23-8.4h1Zm-2.3-3.24-1.32-3.58a3.65,3.65,0,0,1-.13-.56h0a3.49,3.49,0,0,1-.14.56l-1.3,3.58Z"/><path class="cls-36" d="M143.53,195.22l-4.92,7.28h4.81v.89h-6.28v-.28l4.88-7.23h-4.49V195h6Z"/><path class="cls-36" d="M148.31,197.19a1.79,1.79,0,0,0-.12-.68,1.23,1.23,0,0,0-.32-.47,1.51,1.51,0,0,0-.49-.29,2,2,0,0,0-.61-.09,1.7,1.7,0,0,0-.55.08,2.66,2.66,0,0,0-.53.21,2.94,2.94,0,0,0-.49.32,3.39,3.39,0,0,0-.44.41v-1a3,3,0,0,1,.9-.6,3.2,3.2,0,0,1,1.23-.2,2.91,2.91,0,0,1,1,.14,2.2,2.2,0,0,1,.76.44,1.93,1.93,0,0,1,.51.71,2.43,2.43,0,0,1,.18,1,3.17,3.17,0,0,1-.11.9,2.75,2.75,0,0,1-.35.76,3.67,3.67,0,0,1-.58.69,6.69,6.69,0,0,1-.83.66c-.39.29-.72.53-1,.73a3.81,3.81,0,0,0-.61.55,1.67,1.67,0,0,0-.32.53,1.8,1.8,0,0,0-.09.6h4.19v.86h-5.19V203a3.43,3.43,0,0,1,.12-.95,2.56,2.56,0,0,1,.38-.78,4.38,4.38,0,0,1,.71-.73c.29-.25.65-.53,1.07-.84a6.7,6.7,0,0,0,.76-.62,3.31,3.31,0,0,0,.5-.6,2.53,2.53,0,0,0,.27-.61A2.7,2.7,0,0,0,148.31,197.19Z"/><path class="cls-36" d="M137.74,181.71l-3.12,8.54h-1.09l-3.06-8.54h1.1l2.34,6.77a4.63,4.63,0,0,1,.17.75h0a4.22,4.22,0,0,1,.19-.76l2.39-6.76Z"/><path class="cls-36" d="M147.52,190.25h-1v-5.73c0-.45,0-1,.09-1.66h0a5.86,5.86,0,0,1-.25.83l-2.88,6.56H143l-2.88-6.52a4.83,4.83,0,0,1-.25-.87h0c0,.34.05.9.05,1.67v5.72h-1v-8.54h1.3l2.59,5.95a7.92,7.92,0,0,1,.39,1h0c.17-.47.31-.82.41-1.05l2.64-5.93h1.24Z"/><path class="cls-36" d="M173.31,203.39h-1.09l-.89-2.36h-3.56l-.84,2.36h-1.09l3.22-8.4h1Zm-2.3-3.24-1.32-3.58a5.45,5.45,0,0,1-.13-.56h0a3.62,3.62,0,0,1-.13.56l-1.31,3.58Z"/><path class="cls-36" d="M180.39,195.22l-4.93,7.28h4.81v.89H174v-.28l4.88-7.23h-4.48V195h6Z"/><path class="cls-36" d="M185.17,197.19a1.79,1.79,0,0,0-.12-.68,1.25,1.25,0,0,0-.33-.47,1.42,1.42,0,0,0-.49-.29,2,2,0,0,0-.61-.09,1.7,1.7,0,0,0-.55.08,2.66,2.66,0,0,0-.53.21,3.46,3.46,0,0,0-.93.73v-1a2.88,2.88,0,0,1,.91-.6,3.15,3.15,0,0,1,1.22-.2,2.91,2.91,0,0,1,.95.14,2.11,2.11,0,0,1,.76.44,1.93,1.93,0,0,1,.51.71,2.43,2.43,0,0,1,.19,1,3.16,3.16,0,0,1-.12.9,2.73,2.73,0,0,1-.34.76,3.73,3.73,0,0,1-.59.69,7.36,7.36,0,0,1-.82.66l-1,.73a3.81,3.81,0,0,0-.61.55,1.63,1.63,0,0,0-.31.53,1.57,1.57,0,0,0-.1.6h4.19v.86h-5.19V203a3.43,3.43,0,0,1,.12-.95,2.59,2.59,0,0,1,.39-.78,4.3,4.3,0,0,1,.7-.73c.29-.25.65-.53,1.07-.84a6.89,6.89,0,0,0,.77-.62,3.23,3.23,0,0,0,.49-.6,1.93,1.93,0,0,0,.27-.61A2.69,2.69,0,0,0,185.17,197.19Z"/><path class="cls-36" d="M174.59,181.71l-3.12,8.54h-1.09l-3.06-8.54h1.1l2.34,6.77a4.63,4.63,0,0,1,.17.75h0a3.58,3.58,0,0,1,.2-.76l2.38-6.76Z"/><path class="cls-36" d="M184.37,190.25h-1v-5.73c0-.45,0-1,.08-1.66h0a5.6,5.6,0,0,1-.26.83l-2.88,6.56h-.48L177,183.73a5.84,5.84,0,0,1-.25-.87h0c0,.34,0,.9,0,1.67v5.72h-.95v-8.54h1.31l2.58,5.95a7.92,7.92,0,0,1,.39,1h0c.16-.47.3-.82.4-1.05l2.64-5.93h1.24Z"/><path class="cls-36" d="M236.6,203.39h-1.09l-.89-2.36h-3.57l-.83,2.36h-1.1l3.22-8.4h1Zm-2.31-3.24L233,196.57a2.75,2.75,0,0,1-.13-.56h0a2.74,2.74,0,0,1-.13.56l-1.31,3.58Z"/><path class="cls-36" d="M243.67,195.22l-4.92,7.28h4.8v.89h-6.27v-.28l4.88-7.23h-4.49V195h6Z"/><path class="cls-36" d="M249.51,201a2.46,2.46,0,0,1-.21,1,2.28,2.28,0,0,1-.61.8,2.79,2.79,0,0,1-.93.51,3.78,3.78,0,0,1-1.2.18,3.53,3.53,0,0,1-1.91-.45v-1a3.06,3.06,0,0,0,1.94.66,2.5,2.5,0,0,0,.8-.11,1.78,1.78,0,0,0,.61-.32,1.39,1.39,0,0,0,.39-.51,1.6,1.6,0,0,0,.14-.67c0-1.1-.78-1.65-2.35-1.65h-.69v-.81h.66c1.38,0,2.07-.52,2.07-1.55s-.52-1.43-1.58-1.43a2.7,2.7,0,0,0-1.67.6v-.93a3.66,3.66,0,0,1,1.91-.48,2.93,2.93,0,0,1,1,.14,2.35,2.35,0,0,1,.73.41,1.93,1.93,0,0,1,.47.63,2,2,0,0,1,.17.82,2,2,0,0,1-1.68,2.13v0a2.78,2.78,0,0,1,.79.2,2.31,2.31,0,0,1,.63.42,1.82,1.82,0,0,1,.41.61A1.92,1.92,0,0,1,249.51,201Z"/><path class="cls-36" d="M237.88,181.71l-3.13,8.54h-1.08l-3.06-8.54h1.1l2.33,6.77a3.77,3.77,0,0,1,.17.75h0a3.52,3.52,0,0,1,.19-.76l2.38-6.76Z"/><path class="cls-36" d="M247.65,190.25h-1v-5.73c0-.45,0-1,.08-1.66h0a7.61,7.61,0,0,1-.25.83l-2.89,6.56h-.48l-2.87-6.52a4.69,4.69,0,0,1-.26-.87h0c0,.34,0,.9,0,1.67v5.72h-1v-8.54h1.31l2.59,5.95a7.92,7.92,0,0,1,.39,1h0c.17-.47.3-.82.41-1.05l2.64-5.93h1.23Z"/><path class="cls-36" d="M273.36,203.39h-1.09l-.89-2.36h-3.57l-.84,2.36h-1.09l3.22-8.4h1Zm-2.31-3.24-1.32-3.58a3.91,3.91,0,0,1-.12-.56h0a3.62,3.62,0,0,1-.13.56l-1.31,3.58Z"/><path class="cls-36" d="M280.43,195.22l-4.92,7.28h4.8v.89H274v-.28l4.88-7.23h-4.49V195h6Z"/><path class="cls-36" d="M286.27,201a2.46,2.46,0,0,1-.21,1,2.4,2.4,0,0,1-.61.8,2.79,2.79,0,0,1-.93.51,3.87,3.87,0,0,1-1.2.18,3.53,3.53,0,0,1-1.91-.45v-1a3.06,3.06,0,0,0,1.94.66,2.54,2.54,0,0,0,.8-.11,1.73,1.73,0,0,0,.6-.32,1.42,1.42,0,0,0,.4-.51,1.6,1.6,0,0,0,.14-.67c0-1.1-.79-1.65-2.35-1.65h-.7v-.81h.67c1.38,0,2.07-.52,2.07-1.55s-.53-1.43-1.58-1.43a2.68,2.68,0,0,0-1.67.6v-.93a3.64,3.64,0,0,1,1.91-.48,2.83,2.83,0,0,1,.95.14,2.4,2.4,0,0,1,.74.41,1.93,1.93,0,0,1,.47.63,2,2,0,0,1,.16.82,2,2,0,0,1-1.67,2.13v0a2.86,2.86,0,0,1,.79.2,2.31,2.31,0,0,1,.63.42,2,2,0,0,1,.41.61A1.92,1.92,0,0,1,286.27,201Z"/><path class="cls-36" d="M274.64,181.71l-3.13,8.54h-1.09l-3.05-8.54h1.1l2.33,6.77a3.77,3.77,0,0,1,.17.75h0a3.52,3.52,0,0,1,.19-.76l2.38-6.76Z"/><path class="cls-36" d="M284.41,190.25h-1v-5.73c0-.45,0-1,.08-1.66h0a5.6,5.6,0,0,1-.26.83l-2.88,6.56h-.48L277,183.73a5.84,5.84,0,0,1-.25-.87h0c0,.34,0,.9,0,1.67v5.72h-.95v-8.54h1.31l2.59,5.95a7.52,7.52,0,0,1,.38,1h0c.17-.47.3-.82.4-1.05l2.64-5.93h1.24Z"/><path class="cls-36" d="M13.52,240.1a.23.23,0,0,1-.11.17,1.24,1.24,0,0,0-.25.45c-.26.65-.54,1.26-.84,1.85v6.06l0,1.92a.09.09,0,0,1-.1.1h-.58c-.06,0-.09,0-.09-.1l0-1.92v-3.15c0-.76,0-1.33,0-1.72a15.73,15.73,0,0,1-1.14,1.51c-.07.09-.12.14-.14.14s-.06,0-.1-.11a1.64,1.64,0,0,0-.32-.52,12.86,12.86,0,0,0,2.53-4.27,2.65,2.65,0,0,0,.2-.83l.73.27C13.47,240,13.52,240,13.52,240.1Zm7.76,9.68a2.43,2.43,0,0,0-.35.48c-.05.12-.1.18-.14.18a.6.6,0,0,1-.19-.08,11.67,11.67,0,0,1-2.78-2,9.34,9.34,0,0,1-2.73,2.1.42.42,0,0,1-.18.08s-.09-.06-.17-.18a1.78,1.78,0,0,0-.37-.4,8.94,8.94,0,0,0,3-2.14,8.24,8.24,0,0,1-1.72-3.69h-.55a15.77,15.77,0,0,1-.26,2.88,7.78,7.78,0,0,1-1.46,3.38c-.07.1-.13.16-.17.16s-.08-.05-.14-.15a1.44,1.44,0,0,0-.39-.39,6.47,6.47,0,0,0,1.46-3.2,20,20,0,0,0,.23-3.63l0-2.55a.08.08,0,0,1,.09-.09l1.67,0h3.17l1.65,0c.05,0,.08,0,.08.09v.55c0,.06,0,.09-.08.09l-1.65,0H15.05v2.24h4.1a.78.78,0,0,0,.28,0,.37.37,0,0,1,.16-.05c.05,0,.16.08.33.23s.24.26.24.33a.19.19,0,0,1-.1.16,1.55,1.55,0,0,0-.26.49,12.08,12.08,0,0,1-1.55,3.18A10.78,10.78,0,0,0,21.28,249.78Zm-2.07-5.67h-3a7.52,7.52,0,0,0,1.5,3.14A9.51,9.51,0,0,0,19.21,244.11Z"/><path class="cls-36" d="M27.18,244.32a1.59,1.59,0,0,0-.29.37c-.06.1-.11.16-.15.16s-.08,0-.15-.13a6.35,6.35,0,0,1-1.27-1.78c0,2.16.06,3.34.06,3.55s0,.11-.09.11h-.53c-.07,0-.1,0-.1-.11s0-.42,0-1.18,0-1.54,0-2.22a7.05,7.05,0,0,1-1.93,2.45.29.29,0,0,1-.16.09s-.08-.06-.15-.16a1.55,1.55,0,0,0-.35-.37,7.73,7.73,0,0,0,2.46-2.83h-.64l-1.36,0c-.07,0-.1,0-.1-.09v-.48c0-.06,0-.09.1-.09l1.36,0h.74v-.77a6.14,6.14,0,0,0-.07-1.14l.74.07c.08,0,.13,0,.13.1a1.37,1.37,0,0,1-.05.18,2.89,2.89,0,0,0-.06.78v.78h.34l1.34,0c.07,0,.1,0,.1.09v.48c0,.06,0,.09-.1.09l-1.34,0h-.3A6.91,6.91,0,0,0,27.18,244.32Zm-2.91,3.29a7.8,7.8,0,0,1-1.17,2.23s-.06.06-.08.06l-.12-.06-.33-.21c-.09,0-.13-.09-.13-.12s0,0,0-.08a5.53,5.53,0,0,0,1.11-2.08s0-.08.08-.08l.15,0,.3.12q.15.08.15.12Zm6.28,1.23a1.69,1.69,0,0,1-.64,1.25,2.45,2.45,0,0,1-.9.26,10.47,10.47,0,0,1-1.28.05,4.73,4.73,0,0,1-1.86-.21.78.78,0,0,1-.36-.36,1.56,1.56,0,0,1-.1-.64v-1.31a6.13,6.13,0,0,0-.07-.94,6,6,0,0,1,.74.09c.1,0,.16.06.16.11a1.16,1.16,0,0,1-.06.17,2,2,0,0,0-.06.6V249c0,.32.07.53.2.61a3.61,3.61,0,0,0,1.41.17,3.84,3.84,0,0,0,1.72-.24c.26-.16.41-.57.45-1.22a2.22,2.22,0,0,0,.48.25q.18.06.18.18A.85.85,0,0,1,30.55,248.84ZM28.86,248a.14.14,0,0,1,.05.09s0,.07-.1.13l-.3.19a.27.27,0,0,1-.15.08s-.05,0-.08-.06a7.29,7.29,0,0,0-1.3-1.53s-.05,0-.05-.06,0-.07.11-.11l.28-.2a.19.19,0,0,1,.1,0,.16.16,0,0,1,.1,0A7.54,7.54,0,0,1,28.86,248Zm3.22-1.68c0,.07,0,.1-.09.1l-1.32,0H29.13l-1.31,0c-.07,0-.1,0-.1-.1l0-1.43v-3.09l0-1.45c0-.06,0-.09.1-.09l1.31,0h1.54l1.32,0a.08.08,0,0,1,.09.09l0,1.45v3.09Zm-.71-4.25v-1.17H28.42v1.17Zm0,1.82V242.7H28.42v1.22Zm0,1.9v-1.31H28.42v1.31Zm1.49,3.4a.07.07,0,0,1,0,.06s0,.07-.13.12l-.34.22a.54.54,0,0,1-.16.09s0,0-.07-.07a9.31,9.31,0,0,0-1.33-2.15.15.15,0,0,1,0-.06s0-.07.12-.11l.31-.18a.19.19,0,0,1,.12,0,.12.12,0,0,1,.09.06A10.71,10.71,0,0,1,32.86,249.22Z"/><path class="cls-36" d="M15.13,254.83h2.72l.27.58a19.46,19.46,0,0,1-3,3v5.11h-.93v-4.42a19.63,19.63,0,0,1-3.63,2l-.5-.69a16.5,16.5,0,0,0,6.65-4.74h-5.9v-.81H14.2v-1.76h.93Zm.8,4,.55-.62a20.24,20.24,0,0,1,2.7,2.12l-.59.78A16.88,16.88,0,0,0,15.93,258.79Z"/><path class="cls-36" d="M19.44,256.39l.77-.34a17.44,17.44,0,0,1,1,2.65l-.8.32A14.85,14.85,0,0,0,19.44,256.39ZM20.77,263A6.14,6.14,0,0,0,24,260.31a10.4,10.4,0,0,0,1.05-4.5l.88.2a11.7,11.7,0,0,1-1.21,4.75,5.66,5.66,0,0,1-1.44,1.71,8.93,8.93,0,0,1-2,1.14Zm.94-7.14.76-.31a15.37,15.37,0,0,1,.88,2.6l-.79.34A12.13,12.13,0,0,0,21.71,255.86Z"/><path class="cls-36" d="M28.89,257.69v5.79H28V253.25h.93v3.54a18.83,18.83,0,0,1,4.59,1.94l-.46.88A15,15,0,0,0,28.89,257.69Z"/><path class="cls-36" d="M35.73,254.8v3.55H34.8V254h6.83a18.44,18.44,0,0,1-.66,5.72,5.86,5.86,0,0,1-1.61,2.41,6.86,6.86,0,0,1-2.4,1.41l-.6-.67a5.39,5.39,0,0,0,3.7-3.34,15,15,0,0,0,.6-4.72Z"/><path class="cls-36" d="M42.86,258h6.56v.91H42.86Z"/><path class="cls-36" d="M53.53,255.28a11.61,11.61,0,0,1-2.22,3.51l-.69-.54a10.6,10.6,0,0,0,2.6-5.07l1,.15c-.09.31-.2.69-.35,1.14H58a13.14,13.14,0,0,1-2.29,6.41,9.09,9.09,0,0,1-3.81,2.7l-.53-.66A8.35,8.35,0,0,0,55.23,260a11.07,11.07,0,0,0,1.69-4.76Z"/><path class="cls-36" d="M201.22,249.37a2.26,2.26,0,0,0-.31.45c-.06.13-.12.2-.17.2l-.19-.06A12.81,12.81,0,0,1,197.4,248a8.35,8.35,0,0,1-1.91-2.42A11.05,11.05,0,0,1,190.6,250a.57.57,0,0,1-.2.07s-.09-.06-.17-.2a1.67,1.67,0,0,0-.33-.38,11.93,11.93,0,0,0,2.77-1.61,9.63,9.63,0,0,0-1.46-1.27s-.05-.05-.05-.07,0,0,.07-.09l.3-.28s.07-.06.1-.06l.07,0a9.43,9.43,0,0,1,1.5,1.3,7.92,7.92,0,0,0,1.59-2H193l-1.29,0a.1.1,0,0,1-.11-.1v-.49c0-.07,0-.1.11-.1l1.29,0h1.7l1,0a.19.19,0,0,1,.17.13,4.65,4.65,0,0,0,.61,1.13,4,4,0,0,0,.44.58,9.21,9.21,0,0,0,1-1.08,2.06,2.06,0,0,0,.31-.5,3.91,3.91,0,0,1,.62.4.22.22,0,0,1,.08.15c0,.06,0,.1-.11.14a1.06,1.06,0,0,0-.39.31,10.87,10.87,0,0,1-1.1,1.05,7.74,7.74,0,0,0,.91.76,10.86,10.86,0,0,0,1.24-1.17,4,4,0,0,0,.34-.5,4.87,4.87,0,0,1,.6.38.24.24,0,0,1,.1.17c0,.05,0,.1-.14.14a1.09,1.09,0,0,0-.37.3,15.88,15.88,0,0,1-1.2,1.06A12.32,12.32,0,0,0,201.22,249.37Zm-.42,4.21a4,4,0,0,1-.24,1,1.05,1.05,0,0,1-.4.46,3.82,3.82,0,0,1-1.73.25,4.27,4.27,0,0,1-1.72-.21.81.81,0,0,1-.33-.36,1.82,1.82,0,0,1-.07-.59v-2.32H194.4a4.19,4.19,0,0,1-1.19,2.35,6.38,6.38,0,0,1-2.21,1.2.59.59,0,0,1-.19,0c-.05,0-.12-.06-.2-.19a1.62,1.62,0,0,0-.4-.43,5.87,5.87,0,0,0,2.46-1.15,3.37,3.37,0,0,0,1-1.83H192.5l-1.74,0c-.07,0-.1,0-.1-.1v-.5c0-.06,0-.09.1-.09l1.74,0h1.23a12.53,12.53,0,0,0,.08-1.45v-.32l-.8,0h-.24c-.06,0-.1,0-.1-.09v-.48a.1.1,0,0,1,.1-.11l1.51,0h2.33l1.56,0a.1.1,0,0,1,.11.11v.48c0,.06,0,.09-.11.09H198l-1,0v1.77h1.48l1.73,0c.07,0,.1,0,.1.09v.5c0,.07,0,.1-.1.1l-1.73,0h-1.48v2.11c0,.3,0,.49.16.56a2.94,2.94,0,0,0,1.22.15,2.61,2.61,0,0,0,1.29-.2c.22-.16.35-.62.39-1.4a2.23,2.23,0,0,0,.49.24q.21.07.21.18A.66.66,0,0,1,200.8,253.58Zm-4.49-2.42v-1.77h-1.75v.32c0,.49,0,1-.06,1.45Z"/><path class="cls-36" d="M205.67,244.6a.26.26,0,0,1-.09.19,1.54,1.54,0,0,0-.24.49c-.26.72-.5,1.32-.71,1.8v6.4l0,2c0,.07,0,.1-.1.1H204c-.06,0-.09,0-.09-.1l0-2V250.3c0-.79,0-1.4,0-1.83a14.2,14.2,0,0,1-1.11,1.62c-.08.09-.14.14-.17.14s-.06,0-.09-.14a1.35,1.35,0,0,0-.32-.48,13.43,13.43,0,0,0,2.42-4.51,4,4,0,0,0,.16-.84,4.23,4.23,0,0,1,.73.21C205.62,244.51,205.67,244.56,205.67,244.6Zm8,2.75c0,.07,0,.1-.11.1l-1.75,0h-4.42l-1.75,0c-.06,0-.09,0-.09-.1v-.53c0-.06,0-.1.09-.1l1.75,0h4.42l1.75,0a.1.1,0,0,1,.11.1Zm-1.19,8c0,.06,0,.09-.08.09h-.59c-.07,0-.1,0-.1-.09v-.52h-4.5v.56a.09.09,0,0,1-.1.1h-.57a.09.09,0,0,1-.1-.1l0-1.53V253l0-1s0-.08.1-.08l1.63,0h2.61l1.62,0c.06,0,.08,0,.08.08l0,.91v1Zm-.26-6.35a.09.09,0,0,1-.1.1l-1.51,0h-2.28l-1.52,0c-.07,0-.11,0-.11-.1v-.49a.1.1,0,0,1,.11-.1l1.52,0h2.28l1.51,0a.09.09,0,0,1,.1.1Zm0,1.69a.09.09,0,0,1-.1.1l-1.51,0h-2.28l-1.52,0c-.07,0-.11,0-.11-.1v-.49a.1.1,0,0,1,.11-.1l1.52,0h2.28l1.51,0a.09.09,0,0,1,.1.1Zm.11-5.08c0,.06,0,.09-.11.09l-1.52,0h-2.34l-1.54,0c-.07,0-.1,0-.1-.09v-.51c0-.07,0-.1.1-.1l1.54,0h2.34l1.52,0c.07,0,.11,0,.11.1Zm-.62,8.58V252.5h-4.5v1.72Z"/><path class="cls-36" d="M226.31,253a2.63,2.63,0,0,1-.61,1.81,1.51,1.51,0,0,1-.76.32,7.11,7.11,0,0,1-1.09.07,4.14,4.14,0,0,1-1.62-.21.9.9,0,0,1-.45-.4,2.24,2.24,0,0,1-.11-.8v-4.53h-2.08a7.5,7.5,0,0,1-.91,4.08,6.05,6.05,0,0,1-2.69,2l-.21.06s-.1-.05-.18-.17a2.21,2.21,0,0,0-.42-.47,6.78,6.78,0,0,0,2.15-1.09,3.42,3.42,0,0,0,1.12-1.67,9,9,0,0,0,.34-2.69h-1.74l-1.64,0c-.07,0-.11,0-.11-.1v-.58c0-.06,0-.09.11-.09l1.64,0h7.3l1.65,0c.07,0,.11,0,.11.09v.58c0,.07,0,.1-.11.1l-1.65,0h-1.87v4.3a2,2,0,0,0,.06.62.32.32,0,0,0,.23.19,4,4,0,0,0,1.11.1,4.06,4.06,0,0,0,.83-.06,1.05,1.05,0,0,0,.46-.23,3.15,3.15,0,0,0,.39-1.77,4.24,4.24,0,0,0,.56.3c.13.05.2.11.2.17A.68.68,0,0,1,226.31,253ZM224.89,246c0,.06,0,.09-.1.09l-1.77,0h-4.56l-1.77,0c-.06,0-.1,0-.1-.09v-.6c0-.06,0-.09.1-.09l1.77,0H223l1.77,0c.07,0,.1,0,.1.09Z"/><path class="cls-36" d="M232.72,246.5a19.71,19.71,0,0,1-1.33,6.57,1.86,1.86,0,0,1-1.69,1.32,1.55,1.55,0,0,1-1.43-.94,5.35,5.35,0,0,1-.48-2.49,6.61,6.61,0,0,1,.41-2.34,4.53,4.53,0,0,1,.93-1.54,4.15,4.15,0,0,1,1.53-1,4.86,4.86,0,0,1,1.76-.33,3.69,3.69,0,0,1,3.17,1.33,5.65,5.65,0,0,1,.86,3.4,4.56,4.56,0,0,1-1,3,5,5,0,0,1-2.92,1.59l-.44-.75a3.79,3.79,0,0,0,3.43-4.12,4.16,4.16,0,0,0-.92-2.94A2.51,2.51,0,0,0,232.72,246.5Zm-.94.09a3.09,3.09,0,0,0-1.16.36,4.3,4.3,0,0,0-.94.83,4.73,4.73,0,0,0-1,3.2,4,4,0,0,0,.37,1.9c.19.37.42.55.67.55a.77.77,0,0,0,.56-.23,2.25,2.25,0,0,0,.39-.68A17.51,17.51,0,0,0,231.78,246.59Z"/><path class="cls-36" d="M237.11,245.58H244c0,3-.56,5.22-1.61,6.7a8.45,8.45,0,0,1-4.2,2.91l-.52-.75a7.55,7.55,0,0,0,4.06-2.9,9.34,9.34,0,0,0,1.22-5.12h-5.83Z"/><path class="cls-36" d="M245.44,254.6v-8.95H252v8.95Zm5.56-.85V246.5h-4.61v7.25Z"/><path class="cls-36" d="M253.18,249.54H260v.93h-6.8Z"/><path class="cls-36" d="M266,246.5a19.46,19.46,0,0,1-1.33,6.57,1.86,1.86,0,0,1-1.69,1.32,1.55,1.55,0,0,1-1.43-.94,5.35,5.35,0,0,1-.48-2.49,6.61,6.61,0,0,1,.41-2.34,4.53,4.53,0,0,1,.93-1.54,4.15,4.15,0,0,1,1.53-1,4.86,4.86,0,0,1,1.76-.33,3.69,3.69,0,0,1,3.17,1.33,5.65,5.65,0,0,1,.86,3.4,4.56,4.56,0,0,1-1,3,5,5,0,0,1-2.92,1.59l-.43-.75a3.79,3.79,0,0,0,3.42-4.12,4.16,4.16,0,0,0-.92-2.94A2.51,2.51,0,0,0,266,246.5Zm-.94.09a3,3,0,0,0-1.15.36,4.11,4.11,0,0,0-.95.83,4.73,4.73,0,0,0-1,3.2,4.16,4.16,0,0,0,.37,1.9c.19.37.42.55.67.55a.75.75,0,0,0,.56-.23,2.25,2.25,0,0,0,.39-.68A17.51,17.51,0,0,0,265.07,246.59Z"/><path class="cls-36" d="M282.28,247.27c0,.07,0,.1-.1.1l-1.63,0h-4.44c0,.68-.08,1.32-.16,1.91h3.15l1.47,0a.1.1,0,0,1,.11.11v0l-.06.87a26,26,0,0,1-.45,3.78,1.81,1.81,0,0,1-.58,1,1.65,1.65,0,0,1-1,.24,11.16,11.16,0,0,1-1.2-.07c-.12,0-.2,0-.22-.06a.61.61,0,0,1,0-.23,1.32,1.32,0,0,0-.18-.58,9.26,9.26,0,0,0,1.59.14c.42,0,.7-.25.83-.76a24,24,0,0,0,.42-3.75h-4a7.46,7.46,0,0,1-1.35,3.3,8.12,8.12,0,0,1-2.49,2,.51.51,0,0,1-.19.08c-.05,0-.11-.07-.2-.2a1.39,1.39,0,0,0-.45-.4,6.81,6.81,0,0,0,3.28-3,10.81,10.81,0,0,0,.82-4.48h-2.2l-1.62,0c-.07,0-.1,0-.1-.1v-.58a.09.09,0,0,1,.1-.1l1.62,0h3.23v-1a6,6,0,0,0-.09-1.28,5.71,5.71,0,0,1,.86.06c.1,0,.15,0,.15.1a1.21,1.21,0,0,1-.07.24,3.36,3.36,0,0,0-.07.87v1h3.46l1.63,0a.09.09,0,0,1,.1.1Z"/><path class="cls-36" d="M294.23,246.7l0,2v3.52l0,2a1.05,1.05,0,0,1-.3.83,3.25,3.25,0,0,1-1.59.22.5.5,0,0,1-.23,0,.67.67,0,0,1-.07-.2,1.74,1.74,0,0,0-.25-.55c.44,0,.78,0,1,0a.74.74,0,0,0,.48-.11.41.41,0,0,0,.13-.34v-6.73h-8.09v6.09l0,1.83c0,.07,0,.11-.09.11h-.63c-.07,0-.1,0-.1-.11l0-1.89v-4.71l0-1.94c0-.06,0-.09.1-.09l1.76,0h1.3a15.24,15.24,0,0,0,.79-1.55,3.22,3.22,0,0,0,.21-.71,4.89,4.89,0,0,1,.8.2c.08,0,.12.08.12.14a.22.22,0,0,1-.09.16.58.58,0,0,0-.19.25c-.25.53-.51,1-.79,1.51h3.83l1.75,0C294.19,246.61,294.23,246.64,294.23,246.7Zm-2.74,6.47c0,.06,0,.09-.1.09h-.52c-.08,0-.11,0-.11-.09v-.54h-2.89v.62c0,.07,0,.11-.1.11h-.52a.1.1,0,0,1-.11-.11l0-2v-.94l0-1.26c0-.07,0-.1.1-.1l1.32,0h1.52l1.32,0c.06,0,.09,0,.09.1l0,1.1v1.05Zm-.73-1.2v-2.35h-2.89V252Z"/><path class="cls-36" d="M192.92,269.86H192a7.77,7.77,0,0,1-1.9-5.33,8,8,0,0,1,1.9-5.41h.9a8.19,8.19,0,0,0-1.92,5.4A8.08,8.08,0,0,0,192.92,269.86Z"/><path class="cls-36" d="M195,259.12v2.73h-.89v-2.73Zm2,0v2.73h-.88v-2.73Z"/><path class="cls-36" d="M209.93,264.74a.09.09,0,0,1-.1.1l-1.6,0h-1.39a6.14,6.14,0,0,1-1.3,1.86c.85.29,1.94.74,3.27,1.34.05,0,.07,0,.07.07a.23.23,0,0,1-.07.13l-.25.35c-.08.11-.13.16-.15.16a.11.11,0,0,1-.07,0,21.83,21.83,0,0,0-3.37-1.53,10.3,10.3,0,0,1-5.18,1.58h-.09a.22.22,0,0,1-.16,0,1,1,0,0,1-.1-.19,1.33,1.33,0,0,0-.3-.42,10.86,10.86,0,0,0,5-1.2c-.78-.21-1.51-.38-2.2-.51l-.28.34a.23.23,0,0,1-.18.08h-.1l-.43-.1a.09.09,0,0,1-.08-.09.42.42,0,0,1,.12-.16c.18-.2.37-.43.57-.7a10.08,10.08,0,0,0,.69-.94h-1.67l-1.6,0a.09.09,0,0,1-.1-.1v-.52c0-.07,0-.1.1-.1l1.6,0h2.1l.16-.28a4.39,4.39,0,0,0,.45-1,3.71,3.71,0,0,1,.75.2c.09,0,.14.08.14.14s0,.1-.13.16a1.88,1.88,0,0,0-.41.54l-.15.24h4.79l1.6,0c.07,0,.1,0,.1.1Zm-.16-6.06a.09.09,0,0,1-.1.1l-1.66,0h-2.07V260h.85l1.79,0c.07,0,.1,0,.1.1l0,.91v.86l0,.91c0,.07,0,.1-.1.1l-1.79,0H202l-1.8,0c-.07,0-.1,0-.1-.1l0-.91V261l0-.91c0-.07,0-.1.1-.1l1.8,0h.69v-1.22h-1.88l-1.65,0c-.07,0-.1,0-.1-.1v-.53a.09.09,0,0,1,.1-.1l1.65,0H208l1.66,0a.09.09,0,0,1,.1.1Zm-7.11,3.55v-1.66h-1.84v1.66Zm3.33,2.58h-3c-.29.45-.53.79-.71,1,.9.18,1.71.37,2.43.58A5,5,0,0,0,206,264.81Zm-.75-4.83v-1.22h-1.88V260Zm0,2.25v-1.66h-1.88v1.66Zm2.69,0v-1.66h-2v1.66Z"/><path class="cls-36" d="M222.52,267.07a1.85,1.85,0,0,0-.44.49c-.07.1-.13.16-.16.16l-.18-.09a10.11,10.11,0,0,1-4.48-5.82c.05,3.17.08,5.07.08,5.71a1,1,0,0,1-.44,1,4.13,4.13,0,0,1-1.51.2c-.12,0-.19,0-.22,0a.58.58,0,0,1-.08-.21,1.4,1.4,0,0,0-.29-.57c.4,0,.7,0,.91,0a1.31,1.31,0,0,0,.69-.12.6.6,0,0,0,.16-.47v-6.58h-3.15l-1.66,0c-.06,0-.09,0-.09-.1v-.56a.08.08,0,0,1,.09-.09l1.66,0h3.15v-.95a7.14,7.14,0,0,0-.1-1.5c.32,0,.6,0,.84.08.09,0,.14,0,.14.09a.74.74,0,0,1-.06.27,5,5,0,0,0-.06,1.05v1h3.21l1.66,0c.07,0,.1,0,.1.09v.56a.09.09,0,0,1-.1.1l-1.66,0h-3.11a11.74,11.74,0,0,0,1.25,2.83,11,11,0,0,0,1.61-1.67,2,2,0,0,0,.34-.57,3,3,0,0,1,.63.45.24.24,0,0,1,.1.18s0,.09-.14.16a2.35,2.35,0,0,0-.57.51,15.5,15.5,0,0,1-1.6,1.51A10.15,10.15,0,0,0,222.52,267.07Zm-6.64-2.33a1.29,1.29,0,0,1,0,.19c0,.05-.06.13-.18.22a26.19,26.19,0,0,1-2.88,1.76,1.63,1.63,0,0,0-.43.28.31.31,0,0,1-.17.09s-.09,0-.14-.12a5.52,5.52,0,0,1-.35-.68,6.55,6.55,0,0,0,.92-.37,23.57,23.57,0,0,0,3.15-1.88A2.59,2.59,0,0,0,215.88,264.74Zm-.87-1.6a.2.2,0,0,1,0,.08.16.16,0,0,1-.07.11l-.33.32c-.08.07-.13.11-.15.11s0,0-.06-.05a6.94,6.94,0,0,0-1.52-1.71s-.06-.06-.06-.08,0-.06.12-.12l.27-.27a.26.26,0,0,1,.12-.07l.07,0A7.8,7.8,0,0,1,215,263.14Zm5.92-4.1a.09.09,0,0,1,0,.06s0,.09-.12.16l-.24.21a.4.4,0,0,1-.17.11.15.15,0,0,1-.08-.05,5.81,5.81,0,0,0-1.47-1.25s-.06,0-.06-.07,0-.07.1-.13l.26-.22s.08-.06.1-.06l.08,0A7.57,7.57,0,0,1,220.93,259Z"/><path class="cls-36" d="M225.18,259.12v2.73h-.88v-2.73Zm2,0v2.73h-.89v-2.73Z"/><path class="cls-36" d="M229.33,269.86h-.89a8.07,8.07,0,0,0,1.9-5.34,8.23,8.23,0,0,0-1.91-5.4h.9a8,8,0,0,1,1.9,5.41A7.77,7.77,0,0,1,229.33,269.86Z"/><path class="cls-36" d="M201.51,295a1.44,1.44,0,0,0-.23.58.56.56,0,0,1-.08.23.48.48,0,0,1-.21,0q-2.43.15-4.44.15a7.76,7.76,0,0,1-3.07-.41,2.43,2.43,0,0,1-1.17-1.23,11,11,0,0,1-1.35,1.22,1.21,1.21,0,0,0-.26.27.19.19,0,0,1-.15.1.19.19,0,0,1-.15-.09,6.43,6.43,0,0,1-.36-.68,6.1,6.1,0,0,0,.76-.45,8.13,8.13,0,0,0,1.16-1v-3.1H191l-.86,0a.1.1,0,0,1-.11-.11V290a.1.1,0,0,1,.11-.1l.86,0h.68l.91,0c.06,0,.09,0,.09.1l0,1.18v2.56a2.08,2.08,0,0,0,1.07,1.22,6.67,6.67,0,0,0,2.5.33A50.27,50.27,0,0,0,201.51,295Zm-8.69-7.58a.16.16,0,0,1,0,.08s0,.06-.11.12l-.3.24a.36.36,0,0,1-.15.08.12.12,0,0,1-.09-.06,12.8,12.8,0,0,0-1.57-1.87s0-.06,0-.08,0-.07.11-.13l.29-.21a.23.23,0,0,1,.13-.07.15.15,0,0,1,.08.05A14,14,0,0,1,192.82,287.42Zm8.49,6.28a1.53,1.53,0,0,0-.32.52c-.06.13-.11.2-.16.2l-.18-.06a11.23,11.23,0,0,1-2.75-1.74,9.39,9.39,0,0,1-2.57,1.76l-.18.06s-.1-.05-.19-.16a1.32,1.32,0,0,0-.39-.39,8.85,8.85,0,0,0,2.83-1.79,7.49,7.49,0,0,1-1.68-3.05h-.53c0,.8-.08,1.46-.15,2a7.15,7.15,0,0,1-1.15,3.12c-.06.1-.11.15-.14.15s-.08,0-.16-.14a1.81,1.81,0,0,0-.44-.33,6.33,6.33,0,0,0,1.19-3.06,23.72,23.72,0,0,0,.15-3.18l0-1.72a.09.09,0,0,1,.1-.1l1.68,0h3l1.64,0c.07,0,.1,0,.1.1v.54c0,.07,0,.1-.1.1l-1.64,0H195.2v1.91h4.12a.81.81,0,0,0,.25,0l.13-.05c.08,0,.2.08.36.25s.21.26.21.32a.2.2,0,0,1-.09.15,1.16,1.16,0,0,0-.25.43,10,10,0,0,1-1.53,2.6A9.59,9.59,0,0,0,201.31,293.7Zm-2-4.65h-2.91a6.65,6.65,0,0,0,1.51,2.53A8.79,8.79,0,0,0,199.29,289.05Z"/><path class="cls-36" d="M205.77,285.34a.26.26,0,0,1-.1.19,1.43,1.43,0,0,0-.24.49c-.25.72-.49,1.32-.71,1.8v6.4l0,2c0,.07,0,.1-.09.1H204s-.08,0-.08-.1l0-2V291c0-.8,0-1.41,0-1.84a12.84,12.84,0,0,1-1.11,1.63c-.08.09-.13.14-.16.14s-.06-.05-.1-.14a1.33,1.33,0,0,0-.31-.48,13.42,13.42,0,0,0,2.41-4.51,3.51,3.51,0,0,0,.16-.85,4.33,4.33,0,0,1,.74.22C205.72,285.25,205.77,285.3,205.77,285.34Zm8,2.75c0,.06,0,.09-.11.09l-1.75,0h-4.41l-1.75,0c-.07,0-.1,0-.1-.09v-.53c0-.07,0-.1.1-.1l1.75,0h4.41l1.75,0c.08,0,.11,0,.11.1Zm-1.18,8a.08.08,0,0,1-.09.09h-.59c-.06,0-.1,0-.1-.09v-.52h-4.5v.56c0,.07,0,.1-.1.1h-.57c-.06,0-.09,0-.09-.1l0-1.54v-.92l0-1a.08.08,0,0,1,.09-.09l1.63,0h2.62l1.61,0a.08.08,0,0,1,.09.09l0,.91v1Zm-.27-6.35c0,.06,0,.09-.1.09l-1.51,0h-2.27l-1.53,0c-.07,0-.1,0-.1-.09v-.49c0-.07,0-.1.1-.1l1.53,0h2.27l1.51,0c.07,0,.1,0,.1.1Zm0,1.69c0,.06,0,.09-.1.09l-1.51,0h-2.27l-1.53,0c-.07,0-.1,0-.1-.09V291c0-.07,0-.1.1-.1l1.53,0h2.27l1.51,0c.07,0,.1,0,.1.1Zm.12-5.08c0,.06,0,.08-.12.08l-1.52,0h-2.34l-1.53,0c-.07,0-.11,0-.11-.08v-.51c0-.07,0-.1.11-.1l1.53,0h2.34l1.52,0c.08,0,.12,0,.12.1Zm-.63,8.58v-1.73h-4.5V295Z"/><path class="cls-36" d="M225.54,285.84l0,2V295a1,1,0,0,1-.36.86,3,3,0,0,1-1.55.25.5.5,0,0,1-.24,0,.56.56,0,0,1-.08-.22,1.41,1.41,0,0,0-.22-.57c.38,0,.79.05,1.24.05.29,0,.44-.17.44-.5v-2.64h-3.5v1.49l0,2.07c0,.07,0,.1-.11.1h-.6c-.06,0-.09,0-.09-.1l0-2.07v-1.49h-3.35a8.62,8.62,0,0,1-.49,2.28,6.5,6.5,0,0,1-.79,1.44c-.07.1-.12.16-.14.16s-.1-.05-.18-.13a2.31,2.31,0,0,0-.52-.31,6.15,6.15,0,0,0,1.15-2.37,16.27,16.27,0,0,0,.31-3.62v-1.88l0-2a.1.1,0,0,1,.1-.11l1.78,0h5.31l1.78,0A.1.1,0,0,1,225.54,285.84Zm-5,5.7v-2.21h-3.25v.34c0,.54,0,1.17-.05,1.87Zm0-2.88v-2.21h-3.25v2.21Zm4.25,0v-2.21h-3.5v2.21Zm0,2.88v-2.21h-3.5v2.21Z"/><path class="cls-36" d="M232.81,287.23a19.75,19.75,0,0,1-1.32,6.58,1.88,1.88,0,0,1-1.69,1.32,1.56,1.56,0,0,1-1.44-.95,5.43,5.43,0,0,1-.47-2.49,6.38,6.38,0,0,1,.41-2.33,4.57,4.57,0,0,1,.92-1.54,4.3,4.3,0,0,1,1.54-1,4.81,4.81,0,0,1,1.75-.33,3.71,3.71,0,0,1,3.18,1.34,5.7,5.7,0,0,1,.86,3.4,4.61,4.61,0,0,1-1,3,5,5,0,0,1-2.93,1.6l-.43-.76a3.78,3.78,0,0,0,3.42-4.11,4.16,4.16,0,0,0-.92-3A2.53,2.53,0,0,0,232.81,287.23Zm-.94.1a2.73,2.73,0,0,0-1.15.36,3.89,3.89,0,0,0-.95.83,4.71,4.71,0,0,0-1,3.2,4.2,4.2,0,0,0,.36,1.9c.2.36.42.55.68.55a.72.72,0,0,0,.55-.24,2.38,2.38,0,0,0,.4-.67A17.83,17.83,0,0,0,231.87,287.33Z"/><path class="cls-36" d="M237.2,286.32h6.89c0,3-.56,5.21-1.61,6.7a8.67,8.67,0,0,1-4.2,2.91l-.53-.75a7.63,7.63,0,0,0,4.07-2.9,9.4,9.4,0,0,0,1.22-5.13H237.2Z"/><path class="cls-36" d="M245.54,295.33v-8.94h6.52v8.94Zm5.56-.84v-7.26h-4.61v7.26Z"/><path class="cls-36" d="M253.28,290.28h6.8v.93h-6.8Z"/><path class="cls-36" d="M266.1,287.23a19.75,19.75,0,0,1-1.32,6.58,1.87,1.87,0,0,1-1.69,1.32,1.57,1.57,0,0,1-1.44-.95,5.43,5.43,0,0,1-.47-2.49,6.38,6.38,0,0,1,.41-2.33,4.57,4.57,0,0,1,.92-1.54,4.3,4.3,0,0,1,1.54-1,4.81,4.81,0,0,1,1.75-.33,3.7,3.7,0,0,1,3.18,1.34,5.7,5.7,0,0,1,.86,3.4,4.61,4.61,0,0,1-1,3,5,5,0,0,1-2.93,1.6l-.43-.76a3.79,3.79,0,0,0,3.43-4.11,4.16,4.16,0,0,0-.93-3A2.53,2.53,0,0,0,266.1,287.23Zm-.94.1a2.73,2.73,0,0,0-1.15.36,4.08,4.08,0,0,0-.95.83,4.71,4.71,0,0,0-1,3.2,4.2,4.2,0,0,0,.36,1.9c.2.36.42.55.68.55a.71.71,0,0,0,.55-.24,2.38,2.38,0,0,0,.4-.67A17.83,17.83,0,0,0,265.16,287.33Z"/><path class="cls-36" d="M282.38,288a.1.1,0,0,1-.11.1l-1.62,0H276.2a18.29,18.29,0,0,1-.15,1.91h3.15l1.46,0c.08,0,.12,0,.12.1v0l-.07.87a27.71,27.71,0,0,1-.44,3.77,1.81,1.81,0,0,1-.58,1.05,1.69,1.69,0,0,1-1,.24,11.45,11.45,0,0,1-1.2-.07.68.68,0,0,1-.22-.06,1.09,1.09,0,0,1,0-.23,1.37,1.37,0,0,0-.18-.59,9.42,9.42,0,0,0,1.59.15c.42,0,.7-.25.83-.76a21.71,21.71,0,0,0,.42-3.75h-4a7.51,7.51,0,0,1-1.35,3.3,8.16,8.16,0,0,1-2.49,2,.4.4,0,0,1-.19.07s-.11-.06-.19-.2a1.7,1.7,0,0,0-.46-.39,6.81,6.81,0,0,0,3.28-3,10.81,10.81,0,0,0,.83-4.49h-2.21l-1.62,0a.09.09,0,0,1-.1-.1v-.58c0-.07,0-.1.1-.1l1.62,0h3.23v-1a6.17,6.17,0,0,0-.09-1.29,5.9,5.9,0,0,1,.87.07c.09,0,.14.05.14.1a.76.76,0,0,1-.07.24,3.45,3.45,0,0,0-.06.87v1h3.46l1.62,0c.07,0,.11,0,.11.1Z"/><path class="cls-36" d="M294.32,287.44l0,2v5.51a1,1,0,0,1-.3.82,3.18,3.18,0,0,1-1.59.23c-.13,0-.2,0-.22,0s-.05-.08-.07-.2a2.54,2.54,0,0,0-.25-.55c.44,0,.78.05,1,.05a.8.8,0,0,0,.48-.11.41.41,0,0,0,.13-.35v-6.72h-8.09v6.08l0,1.84c0,.07,0,.1-.1.1h-.63c-.06,0-.09,0-.09-.1l0-1.9v-4.7l0-1.94c0-.06,0-.1.09-.1l1.77,0h1.3a15,15,0,0,0,.78-1.55,2.94,2.94,0,0,0,.22-.72,7.15,7.15,0,0,1,.8.2c.08,0,.12.09.12.14a.19.19,0,0,1-.1.16.87.87,0,0,0-.19.25,14.52,14.52,0,0,1-.79,1.52h3.83l1.75,0C294.29,287.34,294.32,287.38,294.32,287.44Zm-2.73,6.46a.09.09,0,0,1-.1.1H291c-.07,0-.11,0-.11-.1v-.53H288V294c0,.07,0,.1-.09.1h-.53c-.07,0-.1,0-.1-.1l0-2V291l0-1.26c0-.07,0-.1.09-.1l1.32,0h1.52l1.32,0c.07,0,.1,0,.1.1l0,1.1v1Zm-.74-1.2v-2.34H288v2.34Z"/><path class="cls-36" d="M193,310.6h-.89a7.83,7.83,0,0,1-1.89-5.33,8.12,8.12,0,0,1,1.89-5.42h.9a8.28,8.28,0,0,0-1.91,5.41A8.11,8.11,0,0,0,193,310.6Z"/><path class="cls-36" d="M195.11,299.85v2.73h-.88v-2.73Zm2,0v2.73h-.89v-2.73Z"/><path class="cls-36" d="M210.36,308.2a1.32,1.32,0,0,0-.24.58.46.46,0,0,1-.07.23.52.52,0,0,1-.21,0q-2.44.15-4.44.15a7.86,7.86,0,0,1-3.08-.41,2.45,2.45,0,0,1-1.16-1.23,12.76,12.76,0,0,1-1.35,1.22,1,1,0,0,0-.26.27.19.19,0,0,1-.15.1.18.18,0,0,1-.15-.09,6.43,6.43,0,0,1-.36-.68,6.92,6.92,0,0,0,.76-.45,8.72,8.72,0,0,0,1.16-1v-3.1h-.93l-.86,0c-.07,0-.11,0-.11-.12v-.54a.1.1,0,0,1,.11-.1l.86,0h.68l.9,0a.09.09,0,0,1,.1.1l0,1.18v2.56a2,2,0,0,0,1.07,1.22,6.67,6.67,0,0,0,2.5.33A50.27,50.27,0,0,0,210.36,308.2Zm-8.7-7.58a.16.16,0,0,1,0,.08s0,.06-.11.12l-.29.24a.33.33,0,0,1-.16.08s0,0-.08-.06a12.8,12.8,0,0,0-1.58-1.87s-.05-.06-.05-.08,0-.07.11-.12l.3-.22a.23.23,0,0,1,.13-.07.11.11,0,0,1,.07,0A12.68,12.68,0,0,1,201.66,300.62Zm8.5,6.28a1.53,1.53,0,0,0-.32.52c-.06.13-.12.2-.16.2l-.18-.06a11.23,11.23,0,0,1-2.75-1.74,9.29,9.29,0,0,1-2.58,1.76l-.17.06s-.1-.05-.19-.16a1.44,1.44,0,0,0-.39-.39,9,9,0,0,0,2.83-1.79,7.63,7.63,0,0,1-1.69-3.05H204c0,.8-.08,1.46-.15,2a7.1,7.1,0,0,1-1.15,3.12c-.06.1-.11.15-.14.15s-.08,0-.16-.14A1.81,1.81,0,0,0,202,307a6.33,6.33,0,0,0,1.19-3.06,23.72,23.72,0,0,0,.15-3.18l0-1.72c0-.07,0-.1.1-.1l1.68,0h3l1.65,0c.07,0,.1,0,.1.1v.54c0,.07,0,.1-.1.1l-1.65,0h-4v1.91h4.11a.73.73,0,0,0,.25,0,.47.47,0,0,1,.14-.05c.08,0,.2.08.36.25s.21.26.21.32a.19.19,0,0,1-.1.15,1.32,1.32,0,0,0-.25.43,10.24,10.24,0,0,1-1.52,2.6A9.59,9.59,0,0,0,210.16,306.9Zm-2-4.65h-2.92a6.67,6.67,0,0,0,1.52,2.53A9,9,0,0,0,208.14,302.25Z"/><path class="cls-36" d="M214.62,298.54a.26.26,0,0,1-.1.19,1.43,1.43,0,0,0-.24.49c-.25.72-.49,1.32-.71,1.8v6.4l0,2c0,.07,0,.1-.09.1h-.61c-.06,0-.08,0-.08-.1l0-2v-3.18c0-.8,0-1.41,0-1.84a12.84,12.84,0,0,1-1.11,1.63c-.08.09-.14.14-.16.14s-.07-.05-.1-.14a1.33,1.33,0,0,0-.31-.48,13.42,13.42,0,0,0,2.41-4.51,3.51,3.51,0,0,0,.16-.85,4.33,4.33,0,0,1,.74.22C214.57,298.45,214.62,298.5,214.62,298.54Zm8,2.75c0,.06,0,.1-.11.1l-1.75,0h-4.41l-1.75,0a.09.09,0,0,1-.1-.1v-.53c0-.07,0-.1.1-.1l1.75,0h4.41l1.75,0c.08,0,.11,0,.11.1Zm-1.18,8a.08.08,0,0,1-.09.09h-.59c-.06,0-.1,0-.1-.09v-.52h-4.5v.56c0,.07,0,.1-.1.1h-.57c-.06,0-.09,0-.09-.1l0-1.54v-.92l0-1a.08.08,0,0,1,.09-.09l1.63,0h2.62l1.61,0a.08.08,0,0,1,.09.09l0,.91v1Zm-.27-6.35c0,.06,0,.09-.1.09l-1.51,0H217.3l-1.53,0c-.07,0-.1,0-.1-.09v-.49c0-.07,0-.1.1-.1l1.53,0h2.27l1.51,0c.07,0,.1,0,.1.1Zm0,1.69c0,.06,0,.09-.1.09l-1.51,0H217.3l-1.53,0c-.07,0-.1,0-.1-.09v-.49c0-.07,0-.1.1-.1l1.53,0h2.27l1.51,0c.07,0,.1,0,.1.1Zm.12-5.08c0,.06,0,.08-.12.08l-1.52,0h-2.34l-1.54,0c-.07,0-.1,0-.1-.08v-.51c0-.07,0-.1.1-.1l1.54,0h2.34l1.52,0c.08,0,.12,0,.12.1Zm-.63,8.58v-1.73h-4.5v1.73Z"/><path class="cls-36" d="M225.28,299.85v2.73h-.89v-2.73Zm2,0v2.73h-.88v-2.73Z"/><path class="cls-36" d="M229.42,310.6h-.89a8.11,8.11,0,0,0,1.91-5.34,8.24,8.24,0,0,0-1.92-5.41h.9a8.08,8.08,0,0,1,1.91,5.42A7.8,7.8,0,0,1,229.42,310.6Z"/></g></svg>