<svg xmlns="http://www.w3.org/2000/svg" xmlns:xlink="http://www.w3.org/1999/xlink" viewBox="0 0 221 285.86"><defs><style>.cls-1{fill:#fff;}.cls-2,.cls-3{fill:#3c3c41;}.cls-3{opacity:0.2;}.cls-25,.cls-29,.cls-3{isolation:isolate;}.cls-4{fill:#ccc;fill-opacity:0.3;}.cls-5{fill:url(#Degradado_sin_nombre);}.cls-6{fill:#50e6ff;}.cls-7{fill:#c3f1ff;}.cls-8{fill:#9cebff;}.cls-9{fill:url(#Degradado_sin_nombre_2);}.cls-10{fill:url(#Degradado_sin_nombre_3);}.cls-11{fill:url(#Degradado_sin_nombre_4);}.cls-12{fill:#005ba1;}.cls-13{fill:#0078d4;}.cls-14{fill:url(#Degradado_sin_nombre_5);}.cls-15{fill:url(#Degradado_sin_nombre_6);}.cls-16{fill:url(#Degradado_sin_nombre_7);}.cls-17{fill:url(#Degradado_sin_nombre_8);}.cls-18,.cls-19,.cls-20,.cls-26,.cls-28{fill:none;stroke-miterlimit:10;}.cls-18,.cls-19,.cls-20{stroke:#3c3c41;}.cls-19,.cls-28{stroke-dasharray:1.46 2.43;}.cls-20{stroke-dasharray:1.31 2.19;}.cls-21{fill:url(#Degradado_sin_nombre_9);}.cls-22{fill:url(#Degradado_sin_nombre_10);}.cls-23{fill:url(#Degradado_sin_nombre_11);}.cls-24{fill:#1490df;}.cls-25{fill:#83b9f9;}.cls-25,.cls-29{opacity:0.4;}.cls-26,.cls-28{stroke:#003067;}.cls-27{fill:#003067;}.cls-29,.cls-30{fill:#6ebcdb;}.cls-31{fill:#5db4d7;}.cls-32{fill:#e6e6e6;}.cls-33{fill:#86d633;}.cls-34{fill:#1e1e1e;}.cls-35{fill:#767676;}</style><linearGradient id="Degradado_sin_nombre" x1="37.07" y1="418.22" x2="37.07" y2="399.46" gradientTransform="translate(0 -276.6)" gradientUnits="userSpaceOnUse"><stop offset="0" stop-color="#0078d4"/><stop offset="0.82" stop-color="#5ea0ef"/></linearGradient><linearGradient id="Degradado_sin_nombre_2" x1="37.05" y1="425.46" x2="37.05" y2="418.22" gradientTransform="translate(0 -276.6)" gradientUnits="userSpaceOnUse"><stop offset="0.15" stop-color="#ccc"/><stop offset="1" stop-color="#707070"/></linearGradient><linearGradient id="Degradado_sin_nombre_3" x1="77.43" y1="418.22" x2="77.43" y2="399.46" xlink:href="#Degradado_sin_nombre"/><linearGradient id="Degradado_sin_nombre_4" x1="77.43" y1="425.46" x2="77.43" y2="418.22" xlink:href="#Degradado_sin_nombre_2"/><linearGradient id="Degradado_sin_nombre_5" x1="188.87" y1="421.46" x2="188.87" y2="411.12" xlink:href="#Degradado_sin_nombre"/><linearGradient id="Degradado_sin_nombre_6" x1="188.94" y1="425.46" x2="188.94" y2="421.46" xlink:href="#Degradado_sin_nombre_2"/><linearGradient id="Degradado_sin_nombre_7" x1="141.17" y1="418.22" x2="141.17" y2="399.46" xlink:href="#Degradado_sin_nombre"/><linearGradient id="Degradado_sin_nombre_8" x1="141.17" y1="425.46" x2="141.17" y2="418.22" xlink:href="#Degradado_sin_nombre_2"/><linearGradient id="Degradado_sin_nombre_9" x1="23.52" y1="477.64" x2="25.89" y2="480.01" gradientTransform="translate(2.88 -278.01)" gradientUnits="userSpaceOnUse"><stop offset="0" stop-color="#86d633"/><stop offset="0.24" stop-color="#83d232"/><stop offset="0.5" stop-color="#7cc52f"/><stop offset="0.76" stop-color="#6fb02a"/><stop offset="1" stop-color="#5e9624"/></linearGradient><linearGradient id="Degradado_sin_nombre_10" x1="18.18" y1="477.64" x2="20.53" y2="480.01" xlink:href="#Degradado_sin_nombre_9"/><linearGradient id="Degradado_sin_nombre_11" x1="12.83" y1="477.64" x2="15.19" y2="480.01" xlink:href="#Degradado_sin_nombre_9"/></defs><title>OJ104903192</title><g id="Target"><g id="Shapes"><rect class="cls-1" width="221" height="285.86"/><path class="cls-2" d="M214.34,201.17h-1v-1h1Zm-3,0h-1v-1h1Zm-3,0h-1v-1h1Zm-3,0h-1v-1h1Zm-3,0h-1v-1h1Zm-3,0h-1v-1h1Zm-3,0h-1v-1h1Zm-3,0h-1v-1h1Zm-3,0h-1v-1h1Zm-3,0h-1v-1h1Zm-3,0h-1v-1h1Zm-3,0h-1v-1h1Zm-3,0h-1v-1h1Zm-3,0h-1v-1h1Zm-3,0h-1v-1h1Zm-3,0h-1v-1h1Zm-3,0h-1v-1h1Zm-3,0h-1v-1h1Zm-3,0h-1v-1h1Zm-3,0h-1v-1h1Zm-3,0h-1v-1h1Zm-3,0h-1v-1h1Zm-3,0h-1v-1h1Zm-3,0h-1v-1h1Zm-3,0h-1v-1h1Zm-3,0h-1v-1h1Zm-3,0h-1v-1h1Zm-3,0h-1v-1h1Zm-3,0h-1v-1h1Zm-3,0h-1v-1h1Zm-3,0h-1v-1h1Zm-3,0h-1v-1h1Zm-3,0h-1v-1h1Zm-3,0h-1v-1h1Zm-3,0h-1v-1h1Zm-3,0h-1v-1h1Zm-3,0h-1v-1h1Zm-3,0h-1v-1h1Zm-3,0h-1v-1h1Zm-3,0h-1v-1h1Zm-3,0h-1v-1h1Zm-3,0h-1v-1h1Zm-3,0h-1v-1h1Zm-3,0h-1v-1h1Zm-3,0h-1v-1h1Zm-3,0h-1v-1h1Zm-3,0h-1v-1h1Zm-3,0h-1v-1h1Zm-3,0h-1v-1h1Zm-3,0h-1v-1h1Zm-3,0h-1v-1h1Zm-3,0h-1v-1h1Zm-3,0h-1v-1h1Zm-3,0H54v-1h1Zm-3,0H51v-1h1Zm-3,0H48v-1h1Zm-3,0H45v-1h1Zm-3,0H42v-1h1Zm-3,0H39v-1h1Zm-3,0H36v-1h1Zm-30,0H6v-1H7Zm209.46-.08-.17-1a4.29,4.29,0,0,0,.87-.23l.36.93a5.86,5.86,0,0,1-1.44.3Zm-213-.19a5.91,5.91,0,0,1-1-.43l.49-.88a4,4,0,0,0,.82.36Zm215.5-1.29-.69-.71a4.82,4.82,0,0,0,.58-.69l.82.57A5.65,5.65,0,0,1,219.32,199.61ZM1.16,199a5.71,5.71,0,0,1-.59-.94l.9-.44a3.75,3.75,0,0,0,.48.76Zm219.73-2.28-1-.2a4.41,4.41,0,0,0,.09-.89l1-.06v.06a5.33,5.33,0,0,1-.09,1.13ZM0,196v-1H1v1Zm221-2.38h-1v-1h1ZM1,193H0v-1H1Zm220-2.35h-1v-1h1ZM1,190H0v-1H1Zm220-2.36h-1v-1h1Zm-220-.7H0v-1H1Zm220-2.35h-1v-1h1ZM1,183.94H0v-1H1Zm220-2.36h-1v-1h1ZM1,180.93H0v-1H1Zm220-2.35h-1v-1h1ZM1,177.93H0v-1H1Zm220-2.36h-1v-1h1ZM1,174.92H0v-1H1Zm220-2.35h-1v-1h1ZM1,171.92H0v-1H1Zm220-2.36h-1v-1h1ZM1,168.91H0v-1H1Zm220-2.35h-1v-1h1ZM1,165.9H0v-1H1Zm220-2.35h-1v-1h1ZM1,162.9H0v-1H1Zm220-2.35h-1v-1h1ZM1,159.89H0v-1H1Zm220-2.35h-1v-1h1ZM1,156.89H0v-1H1Zm220-2.36h-1v-1h1ZM1,153.88H0v-1H1Zm220-2.35h-1v-1h1ZM1,150.88H0v-1H1Zm220-2.36h-1v-1h1ZM1,147.87H0v-1H1Zm220-2.35h-1v-1h1ZM1,144.87H0v-1H1Zm220-2.36h-1v-1h1ZM1,141.86H0v-1H1Zm220-2.35h-1v-1h1ZM1,138.86H0v-1H1Zm220-2.36h-1v-1h1ZM1,135.85H0v-1H1Zm220-2.35h-1v-1h1ZM1,132.85H0v-1H1Zm220-2.36h-1v-1h1ZM1,129.84H0v-1H1Zm220-2.36h-1v-1h1ZM1,126.83H0v-1H1Zm220-2.35h-1v-1h1ZM1,123.83H0v-1H1Zm220-2.36h-1v-1h1ZM1,120.82H0v-1H1Zm220-2.35h-1v-1h1ZM1,117.82H0v-1H1Zm220-2.36h-1v-1h1ZM1,114.81H0v-1H1Zm220-2.35h-1v-1h1ZM1,111.81H0v-1H1Zm220-2.36h-1v-1h1ZM1,108.8H0v-1H1Zm220-2.35h-1v-1h1ZM1,105.8H0v-1H1Zm220-2.36h-1v-1h1ZM1,102.79H0v-1H1Zm220-2.35h-1v-1h1ZM1,99.78H0v-1H1Zm220-2.35h-1v-1h1ZM1,96.78H0v-1H1Zm220-2.36h-1v-1h1ZM1,93.77H0v-1H1Zm220-2.35h-1v-1h1ZM1,90.77H0v-1H1Zm220-2.36h-1v-1h1ZM1,87.76H0v-1H1Zm220-2.35h-1v-1h1ZM1,84.76H0v-1H1ZM221,82.4h-1v-1h1ZM1,81.75H0v-1H1ZM221,79.4h-1v-1h1ZM1,78.75H0v-1H1Zm220-2.36h-1v-1h1ZM1,75.74H0v-1H1Zm220-2.35h-1v-1h1ZM1,72.73H0v-1H1Zm220-2.35h-1v-1h1ZM1,69.73H0v-1H1Zm220-2.35h-1v-1h1ZM1,66.72H0v-1H1Zm220-2.35h-1v-1h1ZM1,63.72H0v-1H1Zm220-2.36h-1v-1h1ZM1,60.71H0v-1H1Zm220-2.35h-1v-1h1ZM1,57.71H0v-1H1Zm220-2.36h-1v-1h1ZM1,54.7H0v-1H1Zm220-2.35h-1v-.68a1.41,1.41,0,0,0,0-.29l1-.07v1ZM0,51.7H0a5.77,5.77,0,0,1,.1-1.1l1,.2a5.12,5.12,0,0,0-.08.87Zm219.52-2.05a5.41,5.41,0,0,0-.48-.76l.78-.62a5,5,0,0,1,.59.93ZM1.78,49.15,1,48.59a5.25,5.25,0,0,1,.71-.85l.7.72A4.57,4.57,0,0,0,1.78,49.15Zm215.89-1.42a4.09,4.09,0,0,0-.83-.36l.31-.95a5.91,5.91,0,0,1,1,.43ZM3.86,47.48l-.37-.93a4.92,4.92,0,0,1,1.06-.3l.17,1A5.2,5.2,0,0,0,3.86,47.48ZM215,47.17h-1v-1h1Zm-3,0h-1v-1h1Zm-3,0h-1v-1h1Zm-3,0h-1v-1h1Zm-3,0h-1v-1h1Zm-3,0h-1v-1h1Zm-3,0h-1v-1h1Zm-3,0h-1v-1h1Zm-3,0h-1v-1h1Zm-3,0h-1v-1h1Zm-3,0h-1v-1h1Zm-3,0h-1v-1h1Zm-3,0h-1v-1h1Zm-3,0h-1v-1h1Zm-3,0h-1v-1h1Zm-3,0h-1v-1h1Zm-3,0h-1v-1h1Zm-3,0h-1v-1h1Zm-3,0h-1v-1h1Zm-3,0h-1v-1h1Zm-3,0h-1v-1h1Zm-27,0h-1v-1h1Zm-3,0h-1v-1h1Zm-3,0h-1v-1h1Zm-3,0h-1v-1h1Zm-3,0h-1v-1h1Zm-3,0h-1v-1h1Zm-3,0h-1v-1h1Zm-3,0h-1v-1h1Zm-3,0h-1v-1h1Zm-3,0h-1v-1h1Zm-3,0H97v-1h1Zm-3,0H94v-1h1Zm-3,0H91v-1h1Zm-3,0H88v-1h1Zm-3,0H85v-1h1Zm-3,0H82v-1h1Zm-3,0H79v-1h1Zm-3,0H76v-1h1Zm-3,0H73v-1h1Zm-3,0H70v-1h1Zm-3,0H67v-1h1Zm-3,0H64v-1h1Zm-3,0H61v-1h1Zm-3,0H58v-1h1Zm-3,0H55v-1h1Zm-3,0H52v-1h1Zm-3,0H49v-1h1Zm-3,0H46v-1h1Zm-3,0H43v-1h1Zm-3,0H40v-1h1Zm-3,0H37v-1h1Zm-3,0H34v-1h1Zm-3,0H31v-1h1Zm-3,0H28v-1h1Zm-3,0H25v-1h1Zm-3,0H22v-1h1Zm-3,0H19v-1h1Zm-3,0H16v-1h1Zm-3,0H13v-1h1Zm-3,0H10v-1h1Zm-3,0H7v-1H8Z"/><rect class="cls-1" x="10" y="90.86" width="95" height="95" rx="0.3"/><rect class="cls-3" x="10" y="90.86" width="95" height="95" rx="0.3"/><rect class="cls-4" x="65" y="210.86" width="155" height="35"/><rect class="cls-4" x="65" y="250.86" width="155" height="35"/><rect class="cls-5" x="23" y="122.86" width="28.14" height="18.76" rx="0.94"/><polygon class="cls-6" points="41.76 129.5 41.76 134.96 37.07 137.71 37.07 132.24 41.76 129.5"/><polygon class="cls-7" points="41.76 129.5 37.07 132.25 32.38 129.5 37.07 126.76 41.76 129.5"/><polygon class="cls-8" points="37.07 132.25 37.07 137.71 32.38 134.96 32.38 129.5 37.07 132.25"/><polygon class="cls-7" points="32.38 134.96 37.07 132.24 37.07 137.71 32.38 134.96"/><polygon class="cls-8" points="41.76 134.96 37.07 132.24 37.07 137.71 41.76 134.96"/><path class="cls-9" d="M42.71,147.29c-2.78-.44-2.89-2.44-2.89-5.67H34.3c0,3.23-.09,5.23-2.87,5.67A1.56,1.56,0,0,0,30,148.86H44.11A1.58,1.58,0,0,0,42.71,147.29Z"/><rect class="cls-10" x="63.36" y="122.86" width="28.14" height="18.76" rx="0.94"/><polygon class="cls-6" points="82.12 129.5 82.12 134.96 77.43 137.71 77.43 132.24 82.12 129.5"/><polygon class="cls-7" points="82.12 129.5 77.43 132.25 72.74 129.5 77.43 126.76 82.12 129.5"/><polygon class="cls-8" points="77.43 132.25 77.43 137.71 72.74 134.96 72.74 129.5 77.43 132.25"/><polygon class="cls-7" points="72.74 134.96 77.43 132.24 77.43 137.71 72.74 134.96"/><polygon class="cls-8" points="82.12 134.96 77.43 132.24 77.43 137.71 82.12 134.96"/><path class="cls-11" d="M83.07,147.29c-2.78-.44-2.89-2.44-2.89-5.67H74.66c0,3.23-.09,5.23-2.88,5.67a1.56,1.56,0,0,0-1.39,1.57H84.46A1.56,1.56,0,0,0,83.07,147.29Z"/><rect class="cls-1" x="115" y="90.86" width="95" height="95"/><rect class="cls-3" x="115" y="90.86" width="95" height="95"/><rect class="cls-12" x="170.6" y="122.86" width="15.46" height="10.32" rx="0.52"/><polygon class="cls-6" points="180.91 126.51 180.91 129.52 178.34 131.02 178.34 128.03 180.91 126.51"/><polygon class="cls-7" points="180.91 126.51 178.34 128.03 175.75 126.51 178.34 125 180.91 126.51"/><polygon class="cls-8" points="178.34 128.03 178.34 131.02 175.75 129.52 175.75 126.51 178.34 128.03"/><rect class="cls-13" x="176.67" y="128.77" width="15.46" height="10.32" rx="0.52"/><polygon class="cls-6" points="186.98 132.44 186.98 135.44 184.41 136.96 184.41 133.94 186.98 132.44"/><polygon class="cls-7" points="186.98 132.44 184.41 133.94 181.82 132.44 184.41 130.93 186.98 132.44"/><polygon class="cls-8" points="184.41 133.94 184.41 136.96 181.82 135.44 181.82 132.44 184.41 133.94"/><rect class="cls-14" x="181.14" y="134.52" width="15.46" height="10.32" rx="0.52"/><polygon class="cls-6" points="191.44 138.19 191.44 141.19 188.88 142.71 188.88 139.69 191.44 138.19"/><polygon class="cls-7" points="191.44 138.19 188.88 139.71 186.29 138.19 188.88 136.68 191.44 138.19"/><polygon class="cls-8" points="188.88 139.71 188.88 142.71 186.29 141.19 186.29 138.19 188.88 139.71"/><polygon class="cls-7" points="186.29 141.19 188.88 139.69 188.88 142.71 186.29 141.19"/><polygon class="cls-8" points="191.44 141.19 188.88 139.69 188.88 142.71 191.44 141.19"/><path class="cls-15" d="M192,148c-1.52-.24-1.52-1.34-1.52-3.06h-3.06c0,1.78,0,2.88-1.53,3.06a.91.91,0,0,0-.77.88h7.65A.91.91,0,0,0,192,148Z"/><rect class="cls-16" x="127.1" y="122.86" width="28.14" height="18.76" rx="0.94"/><polygon class="cls-6" points="145.86 129.5 145.86 134.96 141.17 137.71 141.17 132.24 145.86 129.5"/><polygon class="cls-7" points="145.86 129.5 141.17 132.25 136.48 129.5 141.17 126.76 145.86 129.5"/><polygon class="cls-8" points="141.17 132.25 141.17 137.71 136.48 134.96 136.48 129.5 141.17 132.25"/><polygon class="cls-7" points="136.48 134.96 141.17 132.24 141.17 137.71 136.48 134.96"/><polygon class="cls-8" points="145.86 134.96 141.17 132.24 141.17 137.71 145.86 134.96"/><path class="cls-17" d="M146.81,147.29c-2.78-.44-2.89-2.44-2.89-5.67H138.4c0,3.23-.09,5.23-2.87,5.67a1.58,1.58,0,0,0-1.4,1.57h14.08A1.58,1.58,0,0,0,146.81,147.29Z"/><line class="cls-18" x1="90.37" y1="90.71" x2="90.37" y2="63.64"/><line class="cls-18" x1="82.84" y1="85.18" x2="82.84" y2="73.48"/><polygon class="cls-2" points="85.83 74.36 82.84 69.18 79.85 74.36 85.83 74.36"/><line class="cls-18" x1="97.89" y1="80.87" x2="97.89" y2="80.12"/><line class="cls-19" x1="97.89" y1="77.69" x2="97.89" y2="71.14"/><line class="cls-18" x1="97.89" y1="69.93" x2="97.89" y2="69.18"/><polygon class="cls-2" points="100.88 80 97.89 85.18 94.9 80 100.88 80"/><line class="cls-18" x1="129.52" y1="90.71" x2="129.52" y2="63.64"/><line class="cls-18" x1="122" y1="85.18" x2="122" y2="73.48"/><polygon class="cls-2" points="124.99 74.36 122 69.18 119.01 74.36 124.99 74.36"/><line class="cls-18" x1="137.05" y1="80.87" x2="137.05" y2="80.12"/><line class="cls-19" x1="137.05" y1="77.69" x2="137.05" y2="71.14"/><line class="cls-18" x1="137.05" y1="69.93" x2="137.05" y2="69.18"/><polygon class="cls-2" points="140.04 80 137.05 85.18 134.06 80 140.04 80"/><line class="cls-18" x1="109.7" y1="38.29" x2="109.7" y2="18.79"/><line class="cls-18" x1="74.31" y1="220.86" x2="85.43" y2="220.86"/><polygon class="cls-2" points="75.18 223.85 70 220.85 75.18 217.86 75.18 223.85"/><line class="cls-18" x1="80.69" y1="260.86" x2="79.94" y2="260.86"/><line class="cls-20" x1="77.75" y1="260.86" x2="71.84" y2="260.86"/><line class="cls-18" x1="70.75" y1="260.86" x2="70" y2="260.86"/><polygon class="cls-2" points="79.82 257.86 85 260.86 79.82 263.85 79.82 257.86"/><path class="cls-18" d="M105.83,41,65.74,29.61a4.21,4.21,0,0,1-2.89-3.82v-7"/><path class="cls-18" d="M114,41l43.3-11.45a4.1,4.1,0,0,0,2.9-3.76v-7"/><circle class="cls-21" cx="27.4" cy="200.63" r="1.67"/><circle class="cls-22" cx="22.06" cy="200.64" r="1.67"/><circle class="cls-23" cx="16.72" cy="200.64" r="1.67"/><path class="cls-6" d="M17.93,207.34l-1,1a.43.43,0,0,1-.61,0h0l-7.09-7.08a.88.88,0,0,1,0-1.22h0l1-1h0l7.71,7.69a.43.43,0,0,1,0,.61h0Z"/><path class="cls-24" d="M16.83,193l1,1a.43.43,0,0,1,0,.61h0l-7.57,7.6h0l-1-1a.88.88,0,0,1,0-1.22h0l7-7A.43.43,0,0,1,16.83,193Z"/><path class="cls-6" d="M33.78,199l1,1a.86.86,0,0,1,0,1.22h0l-7.1,7.08a.43.43,0,0,1-.61,0h0l-1-1a.44.44,0,0,1,0-.62h0Z"/><path class="cls-24" d="M34.74,201.2l-1,1h0l-7.57-7.6a.43.43,0,0,1,0-.61h0l1-1a.43.43,0,0,1,.61,0h0l7,7a.88.88,0,0,1,0,1.22h0Z"/><rect class="cls-1" x="45.35" width="35" height="20.86"/><rect class="cls-3" x="45.35" width="35" height="20.86"/><rect class="cls-1" x="92.7" width="35" height="20.86"/><rect class="cls-3" x="92.7" width="35" height="20.86"/><rect class="cls-1" x="137.7" width="63.64" height="20.86"/><rect class="cls-3" x="137.7" width="63.64" height="20.86"/><rect class="cls-1" x="13.69" width="23.5" height="20.86"/><rect class="cls-25" x="13.69" width="23.5" height="20.86"/><line class="cls-26" x1="24.92" y1="90.71" x2="24.92" y2="21.02"/><line class="cls-26" x1="18.04" y1="80.44" x2="18.04" y2="68.74"/><polygon class="cls-27" points="21.03 79.56 18.04 84.75 15.05 79.56 21.03 79.56"/><line class="cls-26" x1="31.8" y1="84.74" x2="31.8" y2="83.99"/><line class="cls-28" x1="31.8" y1="81.57" x2="31.8" y2="75.01"/><line class="cls-26" x1="31.8" y1="73.8" x2="31.8" y2="73.05"/><polygon class="cls-27" points="34.79 73.93 31.8 68.75 28.8 73.93 34.79 73.93"/><rect class="cls-1" x="74.82" y="53.67" width="70" height="10"/><rect class="cls-29" x="74.82" y="53.67" width="70" height="10"/><g id="ad94e297-0e86-4eaf-aac0-d146ee9aea65"><path class="cls-30" d="M105.75,54l-4.68-4.84a2.28,2.28,0,0,1-.78.13A2.43,2.43,0,1,1,102.53,46h4.62v1.62H102.6a3.68,3.68,0,0,1-.26.57l4.33,4.46L109,49.07V37.89h-3.15l4-4,3.94,4h-3.15v8.74l5.93-9.05-6-6a1,1,0,0,0-1.41,0l0,0h0L94.64,46.06a1,1,0,0,0,0,1.41l0,.05h0L109.11,62l-5.17-5.17Z"/><path class="cls-31" d="M109,54.22V49.05l-2.34,3.59,1.72,1.84A2,2,0,0,1,109,54.22Z"/><path class="cls-31" d="M125,46.06l-8.47-8.48-5.93,9.05v7.61a2.1,2.1,0,0,1,.53.29l6.22-6.28a3.15,3.15,0,0,1-.31-.64H112.4V46h4.74a2.41,2.41,0,1,1,2.24,3.32,2.53,2.53,0,0,1-.67-.1l-6.62,6.67a2.18,2.18,0,0,1,.11.62,2.43,2.43,0,0,1-4.86.19,2.5,2.5,0,0,1,.14-.9l-1.73-1.72-1.84,2.76L109.08,62a1,1,0,0,0,1.41,0l0,0L125,47.52a1,1,0,0,0,0-1.41Z"/><path class="cls-32" d="M117.14,46H112.4v1.62h4.67a3,3,0,0,1-.12-.73A2.26,2.26,0,0,1,117.14,46Z"/><path class="cls-32" d="M102.6,47.61h4.55V46h-4.62a2.09,2.09,0,0,1,.19.89A2.22,2.22,0,0,1,102.6,47.61Z"/><path class="cls-32" d="M112.09,55.88l6.62-6.67a2.43,2.43,0,0,1-1.33-1l-6.22,6.28A2.24,2.24,0,0,1,112.09,55.88Z"/><path class="cls-32" d="M108.44,54.48l-1.72-1.84-4.38-4.46a2.51,2.51,0,0,1-1.27,1L105.75,54l1.73,1.72A2.37,2.37,0,0,1,108.44,54.48Z"/><path class="cls-1" d="M113.76,37.89l-3.92-4-4,4H109V54.22a1.73,1.73,0,0,0-.57.26,2.41,2.41,0,1,0,3.65,2.71,2.31,2.31,0,0,0,.11-.69,2.18,2.18,0,0,0-.11-.62,2.26,2.26,0,0,0-.93-1.35,2.1,2.1,0,0,0-.53-.29V37.89Zm-3.92,20a1.35,1.35,0,1,1,1.34-1.36v0h0a1.34,1.34,0,0,1-1.34,1.29Z"/><path class="cls-1" d="M102.34,48.18a3.68,3.68,0,0,0,.26-.57,2.28,2.28,0,0,0,.12-.73,2.09,2.09,0,0,0-.19-.89,2.41,2.41,0,1,0-2.24,3.32,2.28,2.28,0,0,0,.78-.13A2.51,2.51,0,0,0,102.34,48.18Zm-2,0a1.35,1.35,0,1,1,1.35-1.35h0a1.36,1.36,0,0,1-1.3,1.4h0Z"/><path class="cls-1" d="M118.71,49.21a2.53,2.53,0,0,0,.67.1A2.43,2.43,0,1,0,117.14,46a2.26,2.26,0,0,0-.19.89,3,3,0,0,0,.12.73,3.15,3.15,0,0,0,.31.64A2.46,2.46,0,0,0,118.71,49.21Zm.67-3.65a1.34,1.34,0,0,1,0,2.67,1.34,1.34,0,1,1-.3-2.67A1.5,1.5,0,0,1,119.38,45.56Z"/><path class="cls-33" d="M109.84,55.15a1.35,1.35,0,1,0,1.34,1.36h0A1.36,1.36,0,0,0,109.84,55.15Z"/><circle class="cls-33" cx="100.29" cy="46.88" r="1.34"/><path class="cls-33" d="M119.38,48.23A1.35,1.35,0,1,0,118,46.88h0a1.34,1.34,0,0,0,1.33,1.35Z"/></g></g></g><g id="Text"><path class="cls-34" d="M139.5,157.36l-3.12,8.54h-1.09l-3.06-8.54h1.1l2.34,6.77a4.53,4.53,0,0,1,.17.76h0a3.51,3.51,0,0,1,.2-.77l2.38-6.76Z"/><path class="cls-34" d="M149.28,165.9h-1v-5.73c0-.45,0-1,.08-1.66h0a5.22,5.22,0,0,1-.26.83l-2.88,6.56h-.48l-2.88-6.51a6,6,0,0,1-.25-.88h0c0,.34,0,.9,0,1.67v5.72h-.95v-8.54H142l2.58,6a7.39,7.39,0,0,1,.39,1h0c.17-.47.3-.82.4-1.05l2.64-5.93h1.24Z"/><path class="cls-34" d="M75.59,157.36l-3.12,8.54H71.38l-3.06-8.54h1.1l2.33,6.77a3.72,3.72,0,0,1,.17.76h0a3.45,3.45,0,0,1,.19-.77l2.38-6.76Z"/><path class="cls-34" d="M85.36,165.9h-1v-5.73c0-.45,0-1,.08-1.66h0a5.46,5.46,0,0,1-.25.83L81.3,165.9h-.48L78,159.39a4.84,4.84,0,0,1-.26-.88h0c0,.34,0,.9,0,1.67v5.72h-1v-8.54h1.31l2.59,6a7.39,7.39,0,0,1,.39,1h0c.17-.47.3-.82.41-1.05l2.64-5.93h1.23Z"/><path class="cls-34" d="M33.78,157.36l-3.13,8.54H29.57l-3.06-8.54h1.1l2.33,6.77a3.72,3.72,0,0,1,.17.76h0a3.45,3.45,0,0,1,.19-.77l2.38-6.76Z"/><path class="cls-34" d="M43.55,165.9h-1v-5.73c0-.45,0-1,.08-1.66h0a7,7,0,0,1-.25.83l-2.89,6.56H39l-2.87-6.51a4.84,4.84,0,0,1-.26-.88h0c0,.34,0,.9,0,1.67v5.72H35v-8.54h1.31l2.59,6a7.39,7.39,0,0,1,.39,1h0c.17-.47.3-.82.41-1.05l2.64-5.93h1.23Z"/><path class="cls-34" d="M175.58,157.36l-3.12,8.54h-1.09l-3.06-8.54h1.1l2.34,6.77a4.53,4.53,0,0,1,.17.76h0a3.51,3.51,0,0,1,.2-.77l2.38-6.76Z"/><path class="cls-34" d="M185.36,165.9h-1v-5.73c0-.45,0-1,.08-1.66h0a4.5,4.5,0,0,1-.25.83l-2.88,6.56h-.48l-2.88-6.51a5,5,0,0,1-.25-.88h0c0,.34,0,.9,0,1.67v5.72h-1v-8.54h1.31l2.58,6a7.39,7.39,0,0,1,.39,1h0c.17-.47.3-.82.4-1.05l2.64-5.93h1.24Z"/><path class="cls-34" d="M187.14,165.55v-1.17a3.64,3.64,0,0,0,.48.32,6.07,6.07,0,0,0,.59.24l.62.15a3,3,0,0,0,.58,0,2.22,2.22,0,0,0,1.36-.34,1.17,1.17,0,0,0,.45-1,1.23,1.23,0,0,0-.15-.61,1.76,1.76,0,0,0-.41-.46,4.58,4.58,0,0,0-.63-.41l-.78-.41c-.29-.15-.57-.3-.82-.45a3.61,3.61,0,0,1-.67-.52,2,2,0,0,1-.44-.63,2,2,0,0,1-.16-.83,2,2,0,0,1,.25-1,2.35,2.35,0,0,1,.66-.71,3.19,3.19,0,0,1,.94-.41,3.9,3.9,0,0,1,1.08-.14,4.08,4.08,0,0,1,1.81.3v1.13a3.22,3.22,0,0,0-1.91-.53,3.5,3.5,0,0,0-.65.07,1.76,1.76,0,0,0-.58.23,1.27,1.27,0,0,0-.41.39,1.17,1.17,0,0,0-.16.6,1.19,1.19,0,0,0,.12.56,1.34,1.34,0,0,0,.36.44,3.76,3.76,0,0,0,.57.38l.78.41c.3.15.59.31.86.47a3.66,3.66,0,0,1,.71.56,2.46,2.46,0,0,1,.49.67,1.89,1.89,0,0,1,.18.84,2.17,2.17,0,0,1-.25,1.07,2,2,0,0,1-.66.71,2.62,2.62,0,0,1-.95.4,5.24,5.24,0,0,1-1.14.12l-.5,0a4.69,4.69,0,0,1-.6-.1,5.47,5.47,0,0,1-.58-.15A1.64,1.64,0,0,1,187.14,165.55Z"/><path class="cls-34" d="M193.51,165.55v-1.17a2.67,2.67,0,0,0,.48.32,4.54,4.54,0,0,0,.59.24,6.23,6.23,0,0,0,.62.15,2.93,2.93,0,0,0,.57,0,2.22,2.22,0,0,0,1.36-.34,1.17,1.17,0,0,0,.45-1,1.23,1.23,0,0,0-.15-.61,1.6,1.6,0,0,0-.41-.46,4.58,4.58,0,0,0-.63-.41l-.78-.41c-.29-.15-.57-.3-.82-.45a3.53,3.53,0,0,1-.66-.52,2,2,0,0,1-.45-.63,2,2,0,0,1-.16-.83,2,2,0,0,1,.25-1,2.27,2.27,0,0,1,.67-.71,3,3,0,0,1,.94-.41,3.83,3.83,0,0,1,1.07-.14,4.13,4.13,0,0,1,1.82.3v1.13a3.27,3.27,0,0,0-1.92-.53,3.59,3.59,0,0,0-.65.07,1.71,1.71,0,0,0-.57.23,1.31,1.31,0,0,0-.42.39,1.16,1.16,0,0,0-.15.6,1.19,1.19,0,0,0,.12.56,1.45,1.45,0,0,0,.35.44,3.43,3.43,0,0,0,.58.38l.77.41c.31.15.59.31.86.47a4.07,4.07,0,0,1,.72.56,2.42,2.42,0,0,1,.48.67,1.89,1.89,0,0,1,.18.84,2.17,2.17,0,0,1-.24,1.07,2.14,2.14,0,0,1-.66.71,2.75,2.75,0,0,1-1,.4,5.24,5.24,0,0,1-1.14.12l-.49,0a4.17,4.17,0,0,1-.6-.1,4.45,4.45,0,0,1-.58-.15A1.5,1.5,0,0,1,193.51,165.55Z"/><path class="cls-34" d="M149.44,6.23a11.22,11.22,0,0,1-1.17,5.08,7.64,7.64,0,0,1-4.38,3.35l-.51-.72a7.38,7.38,0,0,0,3.91-2.78,9.19,9.19,0,0,0,1.17-4.93h-5.6v-.8h5.74a1.32,1.32,0,0,1-.08-.47A1.28,1.28,0,0,1,149,4a1.35,1.35,0,0,1,2.25,1,1.35,1.35,0,0,1-1.35,1.35A1.16,1.16,0,0,1,149.44,6.23Zm.42-2.09a.81.81,0,0,0-.62.27A.83.83,0,0,0,149,5a.8.8,0,0,0,.27.62.77.77,0,0,0,.55.21.82.82,0,0,0,.62-.26.84.84,0,0,0,.21-.57.78.78,0,0,0-.27-.61A.79.79,0,0,0,149.86,4.14Z"/><path class="cls-34" d="M153.52,13.55a7.3,7.3,0,0,0,3-1.9,8.7,8.7,0,0,0,1.86-2.83l.69.65a9.35,9.35,0,0,1-2.56,3.4,10.92,10.92,0,0,1-3.42,1.84l-.55-.4V5h.93Z"/><path class="cls-34" d="M158.84,5.43h6.61c0,2.86-.54,5-1.54,6.44a8.3,8.3,0,0,1-4,2.79l-.51-.72a7.32,7.32,0,0,0,3.9-2.78,9.1,9.1,0,0,0,1.18-4.93h-5.61Z"/><path class="cls-34" d="M169.52,9.66a26.39,26.39,0,0,1-2.81,1.68l-.5-.69a15.36,15.36,0,0,0,5.49-4.26l.74.55a14,14,0,0,1-2,2v5.67h-.88Z"/><path class="cls-34" d="M173.4,7.65l.76-.33a16.17,16.17,0,0,1,1,2.61l-.79.31A15.05,15.05,0,0,0,173.4,7.65Zm1.33,6.51a6.07,6.07,0,0,0,3.21-2.65A10,10,0,0,0,179,7.09l.88.19A11.42,11.42,0,0,1,178.66,12a5.5,5.5,0,0,1-1.43,1.67,8.93,8.93,0,0,1-2,1.14Zm.93-7,.76-.31a15.73,15.73,0,0,1,.88,2.56l-.79.34A11.74,11.74,0,0,0,175.66,7.14Z"/><path class="cls-34" d="M183.93,6.56a11,11,0,0,1-2.2,3.45L181,9.49a10.57,10.57,0,0,0,2.59-5l1,.15c-.08.31-.2.68-.35,1.13h4.16a12.8,12.8,0,0,1-2.29,6.3,9,9,0,0,1-3.79,2.66l-.53-.64a8.39,8.39,0,0,0,3.85-2.85,10.88,10.88,0,0,0,1.69-4.68Z"/><path class="cls-34" d="M194.13,10.72a10.65,10.65,0,0,1-4.28,3.79l-.53-.69a10.41,10.41,0,0,0,3.92-3.37A12.1,12.1,0,0,0,195,6.13h-5v-.8h6.23a16.17,16.17,0,0,1-1.59,4.59,26.78,26.78,0,0,1,2.8,4l-.89.56A21.13,21.13,0,0,0,194.13,10.72Z"/><path class="cls-34" d="M104,11v3.18h-1V5.75h2.31a3,3,0,0,1,2.09.66,2.32,2.32,0,0,1,.74,1.85,2.54,2.54,0,0,1-.82,2,3.13,3.13,0,0,1-2.22.76Zm0-4.34v3.45h1a2.33,2.33,0,0,0,1.56-.47,1.67,1.67,0,0,0,.53-1.31c0-1.11-.65-1.67-2-1.67Z"/><path class="cls-34" d="M110.7,14.16h-1V5.75h1Z"/><path class="cls-34" d="M113.89,11v3.18h-1V5.75h2.31a3,3,0,0,1,2.09.66,2.35,2.35,0,0,1,.74,1.85,2.55,2.55,0,0,1-.83,2A3.12,3.12,0,0,1,115,11Zm0-4.34v3.45h1a2.33,2.33,0,0,0,1.56-.47A1.64,1.64,0,0,0,117,8.31c0-1.11-.66-1.67-2-1.67Z"/><path class="cls-34" d="M56.61,11v3.18h-1V5.75h2.31A3,3,0,0,1,60,6.41a2.33,2.33,0,0,1,.75,1.85,2.55,2.55,0,0,1-.83,2,3.13,3.13,0,0,1-2.22.76Zm0-4.34v3.45h1a2.33,2.33,0,0,0,1.56-.47,1.63,1.63,0,0,0,.53-1.31c0-1.11-.65-1.67-2-1.67Z"/><path class="cls-34" d="M63.33,14.16h-1V5.75h1Z"/><path class="cls-34" d="M66.52,11v3.18h-1V5.75h2.31a3,3,0,0,1,2.09.66,2.35,2.35,0,0,1,.74,1.85,2.58,2.58,0,0,1-.82,2,3.14,3.14,0,0,1-2.23.76Zm0-4.34v3.45h1a2.3,2.3,0,0,0,1.55-.47,1.64,1.64,0,0,0,.54-1.31c0-1.11-.66-1.67-2-1.67Z"/><path class="cls-34" d="M19.54,11v3.18h-1V5.75h2.31A3,3,0,0,1,23,6.41a2.35,2.35,0,0,1,.74,1.85,2.54,2.54,0,0,1-.82,2,3.14,3.14,0,0,1-2.23.76Zm0-4.34v3.45h1a2.28,2.28,0,0,0,1.55-.47,1.64,1.64,0,0,0,.54-1.31c0-1.11-.66-1.67-2-1.67Z"/><path class="cls-34" d="M26.26,14.16h-1V5.75h1Z"/><path class="cls-34" d="M29.45,11v3.18h-1V5.75h2.31a3,3,0,0,1,2.08.66,2.33,2.33,0,0,1,.75,1.85,2.55,2.55,0,0,1-.83,2,3.13,3.13,0,0,1-2.22.76Zm0-4.34v3.45h1A2.33,2.33,0,0,0,32,9.62a1.63,1.63,0,0,0,.53-1.31c0-1.11-.65-1.67-2-1.67Z"/><path class="cls-35" d="M5.09,14.16h-1V5.75h1Z"/><path class="cls-35" d="M11.65,14.16H7.29V5.75h1v7.52h3.37Z"/><path class="cls-34" d="M138.86,50h-1.21l-4.32-6.7a2.65,2.65,0,0,1-.27-.53h0a8.79,8.79,0,0,1,0,1.16V50h-1v-8.4h1.28l4.21,6.59c.17.27.29.46.34.56h0a8.65,8.65,0,0,1-.06-1.24V41.59h1Z"/><path class="cls-34" d="M147.56,50h-1.09l-.89-2.36H142L141.18,50h-1.09l3.22-8.4h1Zm-2.3-3.24-1.32-3.58a5.16,5.16,0,0,1-.13-.57h0a3.51,3.51,0,0,1-.13.57l-1.31,3.58Z"/><path class="cls-34" d="M152.91,42.48h-2.43V50h-1V42.48h-2.42v-.89h5.83Z"/><path class="cls-34" d="M40.21,98.54h2v.84h-2v.93a6.56,6.56,0,0,1-1.29,4.49,6.48,6.48,0,0,1-3.34,1.72l-.5-.72a5.35,5.35,0,0,0,3.29-1.74,6,6,0,0,0,.92-3.64v-1H36.21v3.29h-.93V99.38H33.41v-.84h1.87V96.08h.93v2.46h3.08V96.06h.92Z"/><path class="cls-34" d="M49.27,97.05a11.93,11.93,0,0,0-.65-1.47l.63-.24a15.4,15.4,0,0,1,.9,2.1l-.4.16.16.37a10.22,10.22,0,0,1-1.72,5.88,8.7,8.7,0,0,1-4,2.64l-.52-.75a7.55,7.55,0,0,0,4-2.84,9.1,9.1,0,0,0,1.2-5H43.16v-.84ZM50,95.29l.62-.23a10.56,10.56,0,0,1,.87,2l-.64.26A11.47,11.47,0,0,0,50,95.29Z"/><path class="cls-34" d="M56.84,97.64h2.78l.27.59a19.35,19.35,0,0,1-3,3v5.21h-.94V102a20.2,20.2,0,0,1-3.71,2l-.5-.7a16.77,16.77,0,0,0,6.77-4.83h-6v-.83h3.42V95.85h1Zm.82,4,.55-.64A21.17,21.17,0,0,1,61,103.21l-.6.79A17.51,17.51,0,0,0,57.66,101.68Z"/><path class="cls-34" d="M61.19,99.23l.79-.35a18.28,18.28,0,0,1,1,2.71l-.81.32A15,15,0,0,0,61.19,99.23ZM62.56,106a6.24,6.24,0,0,0,3.29-2.74,10.6,10.6,0,0,0,1.07-4.59l.9.2a12,12,0,0,1-1.23,4.85,6.05,6.05,0,0,1-1.47,1.74,9.15,9.15,0,0,1-2,1.17Zm1-7.28.77-.32a15.78,15.78,0,0,1,.9,2.66l-.8.35A14,14,0,0,0,63.52,98.69Z"/><path class="cls-34" d="M70.79,100.56v5.91h-.94V96h.94v3.61a19.29,19.29,0,0,1,4.68,2l-.46.9A15.35,15.35,0,0,0,70.79,100.56Z"/><path class="cls-34" d="M87.2,106H86.08l-.91-2.44H81.52L80.67,106H79.54l3.3-8.71h1Zm-2.36-3.36L83.49,98.9a3.74,3.74,0,0,1-.13-.58h0a3.53,3.53,0,0,1-.14.58l-1.34,3.71Z"/><path class="cls-34" d="M144.46,98.6h1.92v.81h-1.92v.89a6.23,6.23,0,0,1-1.26,4.32,6.36,6.36,0,0,1-3.27,1.66l-.49-.69a5.27,5.27,0,0,0,3.22-1.67,5.72,5.72,0,0,0,.89-3.5v-1h-3v3.17h-.9V99.41h-1.83V98.6h1.83V96.24h.9V98.6h3V96.21h.91Z"/><path class="cls-34" d="M153.3,97.17a8.66,8.66,0,0,0-.64-1.41l.62-.24a15.55,15.55,0,0,1,.88,2l-.39.16.15.35a9.73,9.73,0,0,1-1.68,5.66,8.37,8.37,0,0,1-3.87,2.54l-.5-.72a7.36,7.36,0,0,0,3.9-2.73A8.76,8.76,0,0,0,152.94,98h-5.6v-.8Zm.75-1.7.59-.21a9.67,9.67,0,0,1,.86,2l-.63.25A11.77,11.77,0,0,0,154.05,95.47Z"/><path class="cls-34" d="M160.7,97.73h2.71l.26.58a19.3,19.3,0,0,1-2.95,2.92v5h-.93v-4.33a19.44,19.44,0,0,1-3.62,2l-.49-.68a16.38,16.38,0,0,0,6.62-4.65h-5.87v-.8h3.34V96h.93Zm.8,3.89L162,101a20.67,20.67,0,0,1,2.68,2.08l-.58.77A17.52,17.52,0,0,0,161.5,101.62Z"/><path class="cls-34" d="M165,99.26l.76-.33a16.17,16.17,0,0,1,1,2.61l-.79.31A15.05,15.05,0,0,0,165,99.26Zm1.33,6.49a6.08,6.08,0,0,0,3.21-2.63,10,10,0,0,0,1-4.42l.87.19a11.23,11.23,0,0,1-1.2,4.67,5.5,5.5,0,0,1-1.43,1.67,8.55,8.55,0,0,1-2,1.13Zm.93-7,.76-.31a15.73,15.73,0,0,1,.88,2.56l-.79.33A11.82,11.82,0,0,0,167.21,98.75Z"/><path class="cls-34" d="M174.32,100.54v5.69h-.92v-10h.92v3.47a18.77,18.77,0,0,1,4.57,1.9l-.45.87A15.36,15.36,0,0,0,174.32,100.54Z"/><path class="cls-34" d="M183.84,105.75V97.37h2.39a2.65,2.65,0,0,1,1.73.53,1.74,1.74,0,0,1,.63,1.39,2,2,0,0,1-1.45,2v0a2.1,2.1,0,0,1,1.36.64,2,2,0,0,1,.51,1.4,2.22,2.22,0,0,1-.77,1.75,2.91,2.91,0,0,1-2,.66Zm1-7.49V101h1a1.91,1.91,0,0,0,1.27-.39,1.36,1.36,0,0,0,.46-1.1c0-.81-.53-1.22-1.61-1.22Zm0,3.59v3h1.34a2,2,0,0,0,1.34-.41,1.38,1.38,0,0,0,.48-1.12c0-1-.68-1.48-2-1.48Z"/><path class="cls-34" d="M12.94,213.78a.23.23,0,0,1-.11.17,1.09,1.09,0,0,0-.25.44c-.26.65-.54,1.27-.84,1.85v6.07l0,1.91c0,.07,0,.1-.1.1h-.57c-.07,0-.1,0-.1-.1l0-1.91v-3.16c0-.75,0-1.33,0-1.72a14.58,14.58,0,0,1-1.14,1.51c-.07.1-.12.14-.14.14s-.06,0-.1-.11a1.44,1.44,0,0,0-.32-.51,13,13,0,0,0,2.53-4.27,2.72,2.72,0,0,0,.2-.83,5.1,5.1,0,0,1,.73.27C12.9,213.66,12.94,213.71,12.94,213.78Zm7.76,9.68a2.12,2.12,0,0,0-.35.47c-.05.13-.1.19-.14.19L20,224a11.67,11.67,0,0,1-2.78-2,9.37,9.37,0,0,1-2.73,2.11.38.38,0,0,1-.18.07s-.09-.06-.17-.17a1.43,1.43,0,0,0-.37-.4,9,9,0,0,0,2.95-2.15A8.21,8.21,0,0,1,15,217.79h-.55a15.73,15.73,0,0,1-.26,2.87A7.72,7.72,0,0,1,12.76,224c-.08.11-.14.16-.17.16s-.09,0-.15-.15a1.37,1.37,0,0,0-.38-.38,6.55,6.55,0,0,0,1.45-3.21,20,20,0,0,0,.23-3.62l0-2.55c0-.07,0-.1.09-.1l1.67,0h3.17l1.65,0c.05,0,.08,0,.08.1v.54c0,.06,0,.1-.08.1l-1.65,0H14.47v2.24h4.1a.61.61,0,0,0,.28,0,.34.34,0,0,1,.16,0s.16.07.33.23.24.26.24.33a.22.22,0,0,1-.1.16,1.47,1.47,0,0,0-.26.48,12.08,12.08,0,0,1-1.55,3.18A11,11,0,0,0,20.7,223.46Zm-2.07-5.67h-3a7.6,7.6,0,0,0,1.5,3.13A9.46,9.46,0,0,0,18.63,217.79Z"/><path class="cls-34" d="M26.6,218a1.9,1.9,0,0,0-.29.37c-.06.11-.11.16-.15.16s-.08,0-.15-.12a6.27,6.27,0,0,1-1.26-1.78c0,2.15.05,3.33.05,3.54s0,.11-.09.11h-.53c-.07,0-.1,0-.1-.11s0-.42,0-1.17,0-1.55,0-2.23a6.88,6.88,0,0,1-1.93,2.46.36.36,0,0,1-.15.08s-.09-.05-.16-.16a1.34,1.34,0,0,0-.35-.36A7.76,7.76,0,0,0,24,215.94h-.64L22,216a.09.09,0,0,1-.1-.1v-.48c0-.06,0-.09.1-.09l1.36,0h.74v-.77a6,6,0,0,0-.07-1.13l.74.06c.08,0,.13.05.13.1a.85.85,0,0,1,0,.18,3,3,0,0,0-.06.78v.78h.34l1.34,0c.07,0,.1,0,.1.09v.48a.09.09,0,0,1-.1.1l-1.34,0h-.3A6.79,6.79,0,0,0,26.6,218Zm-2.91,3.29a7.85,7.85,0,0,1-1.17,2.24.15.15,0,0,1-.08,0l-.12,0-.33-.21c-.09-.05-.13-.09-.13-.13a.13.13,0,0,1,0-.07A5.61,5.61,0,0,0,23,221c0-.06,0-.09.08-.09l.15.05.3.13q.15.06.15.12ZM30,222.52a1.63,1.63,0,0,1-.64,1.24,2.45,2.45,0,0,1-.9.27c-.29,0-.71.05-1.28.05a4.73,4.73,0,0,1-1.86-.21.88.88,0,0,1-.36-.36,1.61,1.61,0,0,1-.1-.65v-1.31a5.89,5.89,0,0,0-.07-.93,5.78,5.78,0,0,1,.74.08c.1,0,.16.06.16.11a.85.85,0,0,1-.06.17,2,2,0,0,0-.06.6v1c0,.33.07.53.21.61a3.27,3.27,0,0,0,1.4.18,3.8,3.8,0,0,0,1.72-.25c.26-.16.41-.56.45-1.21a2.15,2.15,0,0,0,.48.24c.12.05.19.11.19.18S30,222.45,30,222.52Zm-1.68-.82a.19.19,0,0,1,0,.1s0,.07-.1.12l-.3.2a.31.31,0,0,1-.15.07s-.05,0-.08-.06a7.55,7.55,0,0,0-1.3-1.53s0,0,0-.06,0-.06.11-.11l.28-.19.1-.05a.19.19,0,0,1,.1.05A7.85,7.85,0,0,1,28.29,221.7ZM31.5,220a.08.08,0,0,1-.09.09l-1.32,0H28.55l-1.31,0c-.07,0-.1,0-.1-.09l0-1.44v-3.08l0-1.46c0-.06,0-.09.1-.09l1.31,0h1.54l1.32,0a.08.08,0,0,1,.09.09l0,1.46v3.08Zm-.71-4.25V214.6H27.84v1.18Zm0,1.81v-1.22H27.84v1.22Zm0,1.9v-1.3H27.84v1.3Zm1.5,3.41a.09.09,0,0,1,0,0s0,.07-.13.13l-.34.22-.16.08s-.05,0-.07-.07a9.53,9.53,0,0,0-1.33-2.15.09.09,0,0,1,0-.06s0-.06.12-.11l.31-.18a.28.28,0,0,1,.12-.05s.06,0,.1.07A11.18,11.18,0,0,1,32.29,222.9Z"/><path class="cls-34" d="M14.55,228.5h2.72l.27.58a19,19,0,0,1-3,3v5.11h-.93v-4.41a19,19,0,0,1-3.63,2l-.49-.69a16.51,16.51,0,0,0,6.64-4.73h-5.9v-.82h3.36v-1.76h.93Zm.81,4,.54-.62A20.24,20.24,0,0,1,18.6,234l-.59.78A17.26,17.26,0,0,0,15.36,232.46Z"/><path class="cls-34" d="M18.86,230.06l.77-.34a17.62,17.62,0,0,1,1,2.66l-.8.31A15.14,15.14,0,0,0,18.86,230.06Zm1.33,6.61A6.14,6.14,0,0,0,23.42,234a10.32,10.32,0,0,0,1-4.49l.88.19a11.64,11.64,0,0,1-1.21,4.76,5.51,5.51,0,0,1-1.44,1.7,8.56,8.56,0,0,1-2,1.15Zm.94-7.13.76-.32a15.21,15.21,0,0,1,.88,2.61l-.78.34A12.68,12.68,0,0,0,21.13,229.54Z"/><path class="cls-34" d="M28.31,231.36v5.8h-.93V226.93h.93v3.54a18.84,18.84,0,0,1,4.59,1.93l-.46.88A15.43,15.43,0,0,0,28.31,231.36Z"/><path class="cls-34" d="M35.15,228.48V232h-.93v-4.36h6.83a18.55,18.55,0,0,1-.66,5.73,5.83,5.83,0,0,1-1.61,2.4,7,7,0,0,1-2.4,1.42l-.6-.68a5.35,5.35,0,0,0,3.7-3.34,15,15,0,0,0,.6-4.71Z"/><path class="cls-34" d="M42.28,231.67h6.56v.9H42.28Z"/><path class="cls-34" d="M53,229a11.19,11.19,0,0,1-2.22,3.51l-.69-.54a10.6,10.6,0,0,0,2.6-5.07l1,.15c-.09.31-.2.69-.35,1.14h4.18a13.2,13.2,0,0,1-2.3,6.41,9,9,0,0,1-3.81,2.7l-.53-.65a8.37,8.37,0,0,0,3.86-2.89A11.07,11.07,0,0,0,56.34,229Z"/><path class="cls-34" d="M105.91,219.72a2.19,2.19,0,0,0-.31.46c-.07.13-.13.2-.17.2a.62.62,0,0,1-.19-.06,12.7,12.7,0,0,1-3.16-1.93,8.4,8.4,0,0,1-1.91-2.43,11.1,11.1,0,0,1-4.88,4.37.57.57,0,0,1-.2.07s-.1-.07-.18-.2a1.44,1.44,0,0,0-.32-.38,11.86,11.86,0,0,0,2.76-1.61,10.23,10.23,0,0,0-1.45-1.28s-.06,0-.06-.06,0-.05.07-.09l.3-.28a.22.22,0,0,1,.1-.07l.08,0a10.57,10.57,0,0,1,1.5,1.3,7.87,7.87,0,0,0,1.58-2h-1.8l-1.28,0q-.12,0-.12-.09v-.49c0-.07,0-.1.12-.1l1.28,0h1.7l1,0c.08,0,.13,0,.17.13a5,5,0,0,0,.61,1.13,4.93,4.93,0,0,0,.44.58,8.45,8.45,0,0,0,1-1.08,2.71,2.71,0,0,0,.32-.5,3.22,3.22,0,0,1,.61.4.2.2,0,0,1,.09.15c0,.05,0,.1-.11.14a.92.92,0,0,0-.39.31,12,12,0,0,1-1.1,1,7,7,0,0,0,.91.76,11.76,11.76,0,0,0,1.24-1.17,3.08,3.08,0,0,0,.33-.5,6,6,0,0,1,.61.38.24.24,0,0,1,.09.17s0,.1-.14.14a1.2,1.2,0,0,0-.37.3,14.14,14.14,0,0,1-1.2,1.06A12.1,12.1,0,0,0,105.91,219.72Zm-.43,4.22a4.67,4.67,0,0,1-.23,1,1.12,1.12,0,0,1-.4.46,3.85,3.85,0,0,1-1.73.25,4.24,4.24,0,0,1-1.72-.21.71.71,0,0,1-.33-.36,1.78,1.78,0,0,1-.08-.59v-2.32H99.08a4.1,4.1,0,0,1-1.19,2.34,6.14,6.14,0,0,1-2.21,1.21.62.62,0,0,1-.18.05c-.06,0-.12-.07-.21-.19a1.57,1.57,0,0,0-.39-.43A6,6,0,0,0,97.36,224a3.43,3.43,0,0,0,1-1.83H97.18l-1.73,0c-.07,0-.11,0-.11-.1v-.5a.1.1,0,0,1,.11-.1l1.73,0h1.24a12.69,12.69,0,0,0,.07-1.45v-.32l-.79,0h-.25a.08.08,0,0,1-.09-.09v-.48c0-.07,0-.11.09-.11l1.52,0h2.32l1.57,0a.1.1,0,0,1,.1.11v.48c0,.06,0,.09-.1.09h-.15l-1,0v1.77h1.48l1.73,0a.1.1,0,0,1,.11.1v.5c0,.07,0,.1-.11.1l-1.73,0h-1.48v2.11c0,.3.06.48.17.56a2.94,2.94,0,0,0,1.22.14,2.49,2.49,0,0,0,1.29-.2c.21-.15.34-.61.39-1.39a2,2,0,0,0,.49.24q.21.08.21.18A1.05,1.05,0,0,1,105.48,223.94ZM101,221.52v-1.77H99.24v.32c0,.49,0,1-.06,1.45Z"/><path class="cls-34" d="M110.36,215a.26.26,0,0,1-.1.19,1.43,1.43,0,0,0-.24.49c-.25.72-.49,1.32-.71,1.8v6.4l0,2c0,.07,0,.1-.09.1h-.61c-.06,0-.08,0-.08-.1l0-2v-3.18c0-.79,0-1.41,0-1.83a12.69,12.69,0,0,1-1.11,1.62c-.08.09-.13.14-.16.14s-.06-.05-.1-.14a1.33,1.33,0,0,0-.31-.48,13.42,13.42,0,0,0,2.41-4.51,3.43,3.43,0,0,0,.16-.84,3.6,3.6,0,0,1,.74.21C110.31,214.87,110.36,214.92,110.36,215Zm8,2.75c0,.06,0,.1-.11.1l-1.75,0H112.1l-1.75,0a.09.09,0,0,1-.1-.1v-.53c0-.07,0-.1.1-.1l1.75,0h4.41l1.75,0c.08,0,.11,0,.11.1Zm-1.18,8a.08.08,0,0,1-.09.09h-.59c-.06,0-.1,0-.1-.09v-.52h-4.5v.56c0,.07,0,.1-.1.1h-.57c-.06,0-.09,0-.09-.1l0-1.53v-.93l0-1c0-.06,0-.08.09-.08l1.63,0h2.62l1.61,0c.06,0,.09,0,.09.08l0,.91v1Zm-.27-6.35a.09.09,0,0,1-.1.1l-1.51,0H113l-1.53,0a.09.09,0,0,1-.1-.1v-.49c0-.07,0-.1.1-.1l1.53,0h2.27l1.51,0c.07,0,.1,0,.1.1Zm0,1.69a.09.09,0,0,1-.1.1l-1.51,0H113l-1.53,0a.09.09,0,0,1-.1-.1v-.49a.09.09,0,0,1,.1-.1l1.53,0h2.27l1.51,0a.09.09,0,0,1,.1.1ZM117,216q0,.09-.12.09l-1.52,0h-2.34l-1.53,0c-.07,0-.11,0-.11-.09v-.51c0-.07,0-.1.11-.1l1.53,0h2.34l1.52,0c.08,0,.12,0,.12.1Zm-.63,8.58v-1.73h-4.5v1.73Z"/><path class="cls-34" d="M131,223.31q-.12,1.44-.6,1.8a1.56,1.56,0,0,1-.77.33,7.32,7.32,0,0,1-1.08.06,4.22,4.22,0,0,1-1.63-.2.83.83,0,0,1-.44-.4,2,2,0,0,1-.12-.8v-4.54h-2.07a7.61,7.61,0,0,1-.91,4.09,6.19,6.19,0,0,1-2.69,1.95.81.81,0,0,1-.22.06s-.1,0-.18-.17a2,2,0,0,0-.42-.47,7.19,7.19,0,0,0,2.16-1.09,3.54,3.54,0,0,0,1.12-1.67,9.83,9.83,0,0,0,.34-2.7h-1.74l-1.65,0c-.07,0-.1,0-.1-.1v-.58a.09.09,0,0,1,.1-.1l1.65,0H129l1.65,0a.09.09,0,0,1,.1.1v.58a.09.09,0,0,1-.1.1l-1.65,0h-1.88v4.31a1.91,1.91,0,0,0,.06.61.34.34,0,0,0,.23.2,4.37,4.37,0,0,0,1.11.1,4.06,4.06,0,0,0,.83-.06,1.05,1.05,0,0,0,.46-.23,3.16,3.16,0,0,0,.39-1.78,3,3,0,0,0,.56.3c.14.06.2.12.2.18A.68.68,0,0,1,131,223.31Zm-1.41-7a.09.09,0,0,1-.1.1l-1.78,0h-4.55l-1.77,0c-.07,0-.11,0-.11-.1v-.59a.1.1,0,0,1,.11-.1l1.77,0h4.55l1.78,0a.09.09,0,0,1,.1.1Z"/><path class="cls-34" d="M137.4,216.85a19.75,19.75,0,0,1-1.32,6.58,1.88,1.88,0,0,1-1.69,1.32,1.56,1.56,0,0,1-1.44-.94,5.36,5.36,0,0,1-.47-2.49,6.61,6.61,0,0,1,.4-2.34,4.76,4.76,0,0,1,.93-1.54,4.35,4.35,0,0,1,1.53-1,4.86,4.86,0,0,1,1.76-.33,3.72,3.72,0,0,1,3.18,1.34,5.73,5.73,0,0,1,.86,3.4,4.57,4.57,0,0,1-1,3,5.06,5.06,0,0,1-2.93,1.6l-.43-.75a3.79,3.79,0,0,0,3.42-4.12,4.16,4.16,0,0,0-.92-2.95A2.53,2.53,0,0,0,137.4,216.85Zm-.94.1a2.73,2.73,0,0,0-1.15.36,4.11,4.11,0,0,0-.95.83,4.71,4.71,0,0,0-1,3.2,4.17,4.17,0,0,0,.36,1.9c.2.37.42.55.67.55a.75.75,0,0,0,.56-.23,2.47,2.47,0,0,0,.4-.68A17.78,17.78,0,0,0,136.46,217Z"/><path class="cls-34" d="M141.79,215.94h6.89c0,3-.56,5.22-1.61,6.7a8.67,8.67,0,0,1-4.2,2.91l-.53-.75a7.63,7.63,0,0,0,4.07-2.9,9.46,9.46,0,0,0,1.22-5.12h-5.84Z"/><path class="cls-34" d="M150.13,225V216h6.52V225Zm5.56-.84v-7.26h-4.61v7.26Z"/><path class="cls-34" d="M157.87,219.9h6.8v.93h-6.8Z"/><path class="cls-34" d="M170.69,216.85a19.75,19.75,0,0,1-1.32,6.58,1.88,1.88,0,0,1-1.69,1.32,1.56,1.56,0,0,1-1.44-.94,5.49,5.49,0,0,1-.47-2.49,6.4,6.4,0,0,1,.41-2.34,4.57,4.57,0,0,1,.92-1.54,4.3,4.3,0,0,1,1.54-1,4.81,4.81,0,0,1,1.75-.33,3.71,3.71,0,0,1,3.18,1.34,5.73,5.73,0,0,1,.86,3.4,4.57,4.57,0,0,1-1,3,5.06,5.06,0,0,1-2.93,1.6l-.43-.75a3.79,3.79,0,0,0,3.42-4.12,4.16,4.16,0,0,0-.92-2.95A2.53,2.53,0,0,0,170.69,216.85Zm-.94.1a2.73,2.73,0,0,0-1.15.36,4.11,4.11,0,0,0-.95.83,4.71,4.71,0,0,0-1,3.2,4.17,4.17,0,0,0,.36,1.9c.2.37.42.55.68.55a.75.75,0,0,0,.55-.23,2.47,2.47,0,0,0,.4-.68A17.78,17.78,0,0,0,169.75,217Z"/><path class="cls-34" d="M187,217.63c0,.07,0,.1-.11.1l-1.62,0h-4.45c0,.69-.08,1.32-.15,1.91h3.15l1.46,0c.08,0,.12,0,.12.1v0l-.07.87a25.8,25.8,0,0,1-.45,3.77,1.7,1.7,0,0,1-.58,1,1.63,1.63,0,0,1-1,.24,11.45,11.45,0,0,1-1.2-.07.38.38,0,0,1-.22-.06,1.09,1.09,0,0,1,0-.23,1.32,1.32,0,0,0-.18-.58,10.49,10.49,0,0,0,1.59.14c.42,0,.7-.25.83-.76a21.71,21.71,0,0,0,.42-3.75h-4a7.46,7.46,0,0,1-1.35,3.3,8,8,0,0,1-2.49,2,.51.51,0,0,1-.19.08s-.11-.07-.19-.21a1.7,1.7,0,0,0-.46-.39,6.81,6.81,0,0,0,3.28-3,10.67,10.67,0,0,0,.82-4.49h-2.2l-1.62,0c-.07,0-.1,0-.1-.1v-.58a.09.09,0,0,1,.1-.1l1.62,0H181v-1a6.17,6.17,0,0,0-.09-1.29,5.9,5.9,0,0,1,.87.07c.09,0,.14.05.14.1a.76.76,0,0,1-.07.24,3.45,3.45,0,0,0-.06.87v1h3.46l1.62,0a.1.1,0,0,1,.11.1Z"/><path class="cls-34" d="M198.91,217.06l0,2v5.51a1.05,1.05,0,0,1-.3.83,3.22,3.22,0,0,1-1.59.22c-.13,0-.2,0-.22,0a.43.43,0,0,1-.08-.2,2,2,0,0,0-.25-.55c.44,0,.79.05,1,.05a.74.74,0,0,0,.48-.11.41.41,0,0,0,.13-.35v-6.72H190v6.08l0,1.84a.1.1,0,0,1-.1.11h-.63a.1.1,0,0,1-.1-.11l0-1.9V219l0-1.94c0-.06,0-.09.1-.09l1.77,0h1.3a15,15,0,0,0,.78-1.55,3.27,3.27,0,0,0,.22-.72,7,7,0,0,1,.8.21c.08,0,.12.08.12.14a.18.18,0,0,1-.1.15.67.67,0,0,0-.19.26c-.24.52-.51,1-.79,1.51h3.83l1.75,0C198.88,217,198.91,217,198.91,217.06Zm-2.73,6.47c0,.06,0,.09-.11.09h-.52c-.07,0-.11,0-.11-.09V223h-2.89v.62c0,.07,0,.11-.1.11h-.52c-.07,0-.1,0-.1-.11l0-2v-.94l0-1.26c0-.07,0-.1.09-.1l1.32,0h1.52l1.32,0c.07,0,.1,0,.1.1l0,1.1v1Zm-.74-1.21V220h-2.89v2.34Z"/><path class="cls-34" d="M97.6,240.22h-.89a7.81,7.81,0,0,1-1.89-5.33,8.07,8.07,0,0,1,1.89-5.41h.9a8.18,8.18,0,0,0-1.91,5.4A8.07,8.07,0,0,0,97.6,240.22Z"/><path class="cls-34" d="M99.7,229.48v2.72h-.88v-2.72Zm2,0v2.72h-.89v-2.72Z"/><path class="cls-34" d="M114.62,235.1c0,.06,0,.09-.11.09l-1.6,0h-1.38a6.51,6.51,0,0,1-1.3,1.86c.85.29,1.94.74,3.27,1.34,0,0,.07,0,.07.06a.35.35,0,0,1-.07.14l-.25.35c-.08.11-.13.16-.16.16l-.06,0a22.33,22.33,0,0,0-3.38-1.53,10.26,10.26,0,0,1-5.17,1.58h-.1a.19.19,0,0,1-.16-.05,1,1,0,0,1-.1-.18,1.33,1.33,0,0,0-.3-.42,10.86,10.86,0,0,0,5-1.2c-.78-.21-1.51-.38-2.19-.52-.08.1-.17.22-.29.35a.21.21,0,0,1-.17.08H106l-.42-.1q-.09,0-.09-.09a.42.42,0,0,1,.12-.16c.18-.2.37-.43.58-.7s.43-.57.69-.94h-1.67l-1.61,0c-.07,0-.1,0-.1-.09v-.52c0-.07,0-.1.1-.1l1.61,0h2.09l.16-.28a4.25,4.25,0,0,0,.46-1,3.44,3.44,0,0,1,.75.2c.09,0,.13.08.13.13s0,.11-.12.17a1.74,1.74,0,0,0-.42.54l-.14.24h4.78l1.6,0c.07,0,.11,0,.11.1Zm-.17-6.06c0,.07,0,.1-.1.1l-1.65,0h-2.08v1.22h.85l1.8,0c.06,0,.09,0,.09.1l0,.91v.86l0,.91c0,.07,0,.1-.09.1l-1.8,0h-4.82l-1.8,0c-.07,0-.1,0-.1-.1l0-.91v-.86l0-.91c0-.07,0-.1.1-.1l1.8,0h.69v-1.22h-1.87l-1.65,0c-.07,0-.11,0-.11-.1v-.53a.1.1,0,0,1,.11-.1l1.65,0h7.23l1.65,0a.09.09,0,0,1,.1.1Zm-7.11,3.55v-1.66H105.5v1.66Zm3.34,2.58h-3c-.29.45-.52.79-.7,1,.9.17,1.71.37,2.43.58A5.31,5.31,0,0,0,110.68,235.17Zm-.76-4.83v-1.22H108v1.22Zm0,2.25v-1.66H108v1.66Zm2.69,0v-1.66h-2v1.66Z"/><path class="cls-34" d="M127.2,237.43a1.71,1.71,0,0,0-.44.49c-.07.1-.13.16-.16.16l-.17-.09a10.08,10.08,0,0,1-4.49-5.82c.06,3.17.09,5.07.09,5.71a1,1,0,0,1-.44,1,4.24,4.24,0,0,1-1.52.2.44.44,0,0,1-.22,0,1.15,1.15,0,0,1-.08-.21,1.65,1.65,0,0,0-.28-.58,8.84,8.84,0,0,0,.9.05,1.18,1.18,0,0,0,.69-.13.54.54,0,0,0,.16-.47v-6.57h-3.15l-1.65,0c-.07,0-.1,0-.1-.09v-.56a.09.09,0,0,1,.1-.1l1.65,0h3.15v-.95a8.18,8.18,0,0,0-.09-1.5c.31,0,.59,0,.83.07s.15.05.15.1a.68.68,0,0,1-.07.26,5.13,5.13,0,0,0-.06,1v1h3.21l1.66,0a.1.1,0,0,1,.11.1V231c0,.06,0,.09-.11.09l-1.66,0H122.1a11.91,11.91,0,0,0,1.25,2.83,11.48,11.48,0,0,0,1.61-1.67,2,2,0,0,0,.34-.57,3,3,0,0,1,.63.45.24.24,0,0,1,.11.18s-.05.09-.14.15a2.48,2.48,0,0,0-.58.52,14.54,14.54,0,0,1-1.6,1.51A10.24,10.24,0,0,0,127.2,237.43Zm-6.64-2.33a1.29,1.29,0,0,1,0,.19c0,.05-.06.13-.17.22a30.12,30.12,0,0,1-2.88,1.76,2.21,2.21,0,0,0-.44.27c-.07.07-.12.1-.16.1s-.1,0-.15-.12a6.15,6.15,0,0,1-.34-.68,5.55,5.55,0,0,0,.91-.38,21.38,21.38,0,0,0,3.15-1.87A2.59,2.59,0,0,0,120.56,235.1Zm-.87-1.6s0,.06,0,.08,0,.06-.08.11l-.33.31q-.12.12-.15.12s0,0,0-.05a6.61,6.61,0,0,0-1.53-1.71s0-.06,0-.08,0-.06.11-.13l.28-.26a.19.19,0,0,1,.12-.07l.06,0A7.8,7.8,0,0,1,119.69,233.5Zm5.92-4.1s0,0,0,.06,0,.09-.13.16l-.23.21a.58.58,0,0,1-.17.11s-.05,0-.08-.05a6.06,6.06,0,0,0-1.48-1.25s-.06,0-.06-.07,0-.07.1-.13l.26-.22s.08-.06.1-.06l.09,0A7.78,7.78,0,0,1,125.61,229.4Z"/><path class="cls-34" d="M129.87,229.48v2.72H129v-2.72Zm2,0v2.72H131v-2.72Z"/><path class="cls-34" d="M134,240.22h-.89a8.08,8.08,0,0,0,1.91-5.34,8.19,8.19,0,0,0-1.92-5.4h.9a8,8,0,0,1,1.91,5.41A7.78,7.78,0,0,1,134,240.22Z"/><path class="cls-34" d="M106,265.49a1.27,1.27,0,0,0-.24.58c0,.12,0,.2-.07.22a.53.53,0,0,1-.22,0c-1.62.1-3.1.15-4.43.15a7.78,7.78,0,0,1-3.08-.42,2.35,2.35,0,0,1-1.17-1.23,12.7,12.7,0,0,1-1.34,1.23,1.35,1.35,0,0,0-.27.26c0,.07-.1.11-.14.11a.19.19,0,0,1-.16-.1c-.13-.23-.25-.45-.36-.68a4.86,4.86,0,0,0,.77-.45,9.27,9.27,0,0,0,1.16-1V261.1h-.93l-.86,0c-.08,0-.11,0-.11-.12v-.53c0-.07,0-.1.11-.1l.86,0h.68l.9,0a.09.09,0,0,1,.1.1l0,1.17v2.57a2.15,2.15,0,0,0,1.08,1.22,6.94,6.94,0,0,0,2.5.32Q103.3,265.76,106,265.49Zm-8.7-7.59a.2.2,0,0,1,0,.08s0,.07-.11.12l-.3.24a.31.31,0,0,1-.15.09s0,0-.09-.07a13.36,13.36,0,0,0-1.57-1.87.15.15,0,0,1-.05-.08s0-.06.11-.12l.29-.21a.33.33,0,0,1,.13-.08s0,0,.08.05A13.23,13.23,0,0,1,97.31,257.9Zm8.5,6.29a1.59,1.59,0,0,0-.33.51c-.06.13-.11.2-.16.2l-.17-.06a11.12,11.12,0,0,1-2.76-1.74,8.89,8.89,0,0,1-2.57,1.76.51.51,0,0,1-.17.07s-.11-.06-.19-.17a1.3,1.3,0,0,0-.4-.38,8.92,8.92,0,0,0,2.83-1.79,7.68,7.68,0,0,1-1.68-3h-.53a16.59,16.59,0,0,1-.15,2,6.87,6.87,0,0,1-1.15,3.11c-.06.11-.1.16-.14.16s-.08-.05-.15-.14a2.46,2.46,0,0,0-.44-.34,6.43,6.43,0,0,0,1.19-3.06,26,26,0,0,0,.14-3.17l0-1.72c0-.07,0-.11.1-.11l1.67,0h3l1.65,0a.09.09,0,0,1,.1.1v.55c0,.06,0,.09-.1.09l-1.65,0h-4v1.91h4.11a.54.54,0,0,0,.25,0,.47.47,0,0,1,.14-.05c.07,0,.19.09.36.25s.21.26.21.33,0,.09-.1.14a1.46,1.46,0,0,0-.25.43,10.24,10.24,0,0,1-1.52,2.6A9.36,9.36,0,0,0,105.81,264.19Zm-2-4.65h-2.92a6.82,6.82,0,0,0,1.51,2.52A9,9,0,0,0,103.79,259.54Z"/><path class="cls-34" d="M110.26,255.83a.26.26,0,0,1-.09.18,1.54,1.54,0,0,0-.24.49q-.39,1.08-.72,1.8v6.4l0,2c0,.06,0,.09-.1.09h-.6a.08.08,0,0,1-.09-.09l0-2v-3.17c0-.8,0-1.41,0-1.84a14.2,14.2,0,0,1-1.11,1.62c-.08.1-.14.14-.17.14s-.06,0-.1-.14a1.28,1.28,0,0,0-.31-.48,13.46,13.46,0,0,0,2.41-4.5,3.65,3.65,0,0,0,.17-.85,4.23,4.23,0,0,1,.73.21C110.21,255.74,110.26,255.78,110.26,255.83Zm8,2.74c0,.07,0,.1-.11.1l-1.75,0H112l-1.75,0a.09.09,0,0,1-.1-.1V258a.09.09,0,0,1,.1-.1l1.75,0h4.42l1.75,0a.1.1,0,0,1,.11.1Zm-1.19,8c0,.06,0,.09-.08.09h-.59c-.07,0-.1,0-.1-.09v-.52h-4.51v.56c0,.07,0,.1-.09.1h-.57c-.07,0-.1,0-.1-.1l0-1.53v-.93l0-1c0-.05,0-.08.1-.08l1.63,0h2.61l1.62,0c.06,0,.08,0,.08.08l0,.91v1Zm-.26-6.35a.09.09,0,0,1-.1.1l-1.52,0h-2.27l-1.52,0c-.07,0-.11,0-.11-.1v-.49a.1.1,0,0,1,.11-.1l1.52,0h2.27l1.52,0a.09.09,0,0,1,.1.1Zm0,1.69a.09.09,0,0,1-.1.1l-1.52,0h-2.27l-1.52,0c-.07,0-.11,0-.11-.1v-.49a.1.1,0,0,1,.11-.1l1.52,0h2.27l1.52,0a.09.09,0,0,1,.1.1Zm.11-5.08c0,.06,0,.09-.11.09l-1.52,0H113l-1.54,0c-.07,0-.1,0-.1-.09v-.51a.09.09,0,0,1,.1-.1l1.54,0h2.34l1.52,0a.1.1,0,0,1,.11.1Zm-.62,8.58v-1.72h-4.51v1.72Z"/><path class="cls-34" d="M130,256.32l0,2v5.55l0,1.68a1,1,0,0,1-.37.86,3.09,3.09,0,0,1-1.55.25.51.51,0,0,1-.24,0,.61.61,0,0,1-.07-.21,1.54,1.54,0,0,0-.23-.58c.38,0,.79,0,1.24,0,.3,0,.44-.17.44-.5V262.7h-3.5v1.49l0,2.07a.1.1,0,0,1-.1.11h-.6c-.07,0-.1,0-.1-.11l0-2.07V262.7h-3.35a8.41,8.41,0,0,1-.49,2.29,6.89,6.89,0,0,1-.78,1.44c-.08.1-.12.15-.15.15s-.09,0-.18-.13a2.47,2.47,0,0,0-.52-.31,6,6,0,0,0,1.15-2.36,16.43,16.43,0,0,0,.31-3.63v-1.87l0-2c0-.07,0-.1.1-.1l1.77,0h5.31l1.79,0C130,256.22,130,256.25,130,256.32ZM125,262v-2.21h-3.24v.33c0,.55,0,1.17-.06,1.88Zm0-2.89v-2.21h-3.24v2.21Zm4.25,0v-2.21h-3.5v2.21Zm0,2.89v-2.21h-3.5V262Z"/><path class="cls-34" d="M137.31,257.72a19.71,19.71,0,0,1-1.33,6.57,1.88,1.88,0,0,1-1.69,1.33,1.56,1.56,0,0,1-1.43-.95,5.29,5.29,0,0,1-.48-2.49,6.61,6.61,0,0,1,.41-2.34,4.53,4.53,0,0,1,.93-1.54,4.15,4.15,0,0,1,1.53-1A4.86,4.86,0,0,1,137,257a3.69,3.69,0,0,1,3.17,1.33,5.73,5.73,0,0,1,.86,3.4,4.56,4.56,0,0,1-1,3,5,5,0,0,1-2.92,1.59l-.44-.75a3.79,3.79,0,0,0,3.43-4.11,4.17,4.17,0,0,0-.92-3A2.51,2.51,0,0,0,137.31,257.72Zm-.94.09a2.93,2.93,0,0,0-1.16.37,3.86,3.86,0,0,0-.94.83,4.64,4.64,0,0,0-1,3.19,4,4,0,0,0,.37,1.9c.19.37.42.55.67.55a.73.73,0,0,0,.55-.23,2.24,2.24,0,0,0,.4-.68A17.75,17.75,0,0,0,136.37,257.81Z"/><path class="cls-34" d="M141.7,256.8h6.88c0,3-.56,5.22-1.61,6.7a8.52,8.52,0,0,1-4.2,2.92l-.52-.76a7.55,7.55,0,0,0,4.06-2.9,9.34,9.34,0,0,0,1.22-5.12H141.7Z"/><path class="cls-34" d="M150,265.82v-8.94h6.52v8.94Zm5.56-.85v-7.25H151V265Z"/><path class="cls-34" d="M157.77,260.76h6.8v.93h-6.8Z"/><path class="cls-34" d="M170.6,257.72a19.71,19.71,0,0,1-1.33,6.57,1.88,1.88,0,0,1-1.69,1.33,1.56,1.56,0,0,1-1.43-.95,5.29,5.29,0,0,1-.48-2.49,6.61,6.61,0,0,1,.41-2.34,4.53,4.53,0,0,1,.93-1.54,4.15,4.15,0,0,1,1.53-1,4.86,4.86,0,0,1,1.76-.33,3.69,3.69,0,0,1,3.17,1.33,5.65,5.65,0,0,1,.86,3.4,4.56,4.56,0,0,1-1,3,5,5,0,0,1-2.92,1.59l-.44-.75a3.79,3.79,0,0,0,3.43-4.11,4.17,4.17,0,0,0-.92-3A2.51,2.51,0,0,0,170.6,257.72Zm-.94.09a2.93,2.93,0,0,0-1.16.37,4.05,4.05,0,0,0-.94.83,4.69,4.69,0,0,0-1,3.19,4,4,0,0,0,.37,1.9c.19.37.42.55.67.55a.77.77,0,0,0,.56-.23,2.25,2.25,0,0,0,.39-.68A17.51,17.51,0,0,0,169.66,257.81Z"/><path class="cls-34" d="M186.87,258.49c0,.07,0,.1-.1.1l-1.63,0h-4.45a18.29,18.29,0,0,1-.15,1.91h3.15l1.47,0a.1.1,0,0,1,.11.11v0l-.06.88a26,26,0,0,1-.45,3.77,1.77,1.77,0,0,1-.58,1,1.65,1.65,0,0,1-1,.24,11.16,11.16,0,0,1-1.2-.07c-.13,0-.2,0-.22-.06a.79.79,0,0,1,0-.23,1.21,1.21,0,0,0-.17-.58,9.23,9.23,0,0,0,1.58.14c.43,0,.7-.25.83-.76a22.51,22.51,0,0,0,.43-3.75h-4a7.52,7.52,0,0,1-1.34,3.3,8.12,8.12,0,0,1-2.49,2,.51.51,0,0,1-.19.08s-.11-.07-.2-.2a1.39,1.39,0,0,0-.45-.4,6.8,6.8,0,0,0,3.28-3,10.81,10.81,0,0,0,.82-4.48h-2.2l-1.63,0c-.06,0-.09,0-.09-.1v-.58c0-.06,0-.1.09-.1l1.63,0h3.23v-1a5.27,5.27,0,0,0-.1-1.29,5.75,5.75,0,0,1,.87.06c.1,0,.15,0,.15.1a.9.9,0,0,1-.08.24,3.57,3.57,0,0,0-.06.87v1h3.46l1.63,0a.09.09,0,0,1,.1.1Z"/><path class="cls-34" d="M198.82,257.93l0,2v5.51a1,1,0,0,1-.29.83,3.28,3.28,0,0,1-1.59.22.47.47,0,0,1-.23,0,.67.67,0,0,1-.07-.2,1.85,1.85,0,0,0-.25-.55c.44,0,.78,0,1,0a.82.82,0,0,0,.48-.1.45.45,0,0,0,.13-.35v-6.73h-8.09v6.09l0,1.83c0,.07,0,.11-.09.11h-.63c-.07,0-.1,0-.1-.11l0-1.89v-4.7l0-1.94c0-.07,0-.1.1-.1l1.76,0h1.3c.32-.56.58-1.08.79-1.55a3.22,3.22,0,0,0,.21-.71,6.18,6.18,0,0,1,.8.2c.08,0,.12.08.12.14a.21.21,0,0,1-.09.16.58.58,0,0,0-.19.25c-.25.53-.51,1-.79,1.51H197l1.75,0C198.78,257.83,198.82,257.86,198.82,257.93Zm-2.74,6.46a.09.09,0,0,1-.1.1h-.53a.1.1,0,0,1-.11-.1v-.54h-2.88v.62a.1.1,0,0,1-.1.11h-.53a.1.1,0,0,1-.1-.11l0-2v-.94l0-1.26c0-.07,0-.1.1-.1l1.32,0h1.52l1.32,0c.06,0,.09,0,.09.1l0,1.1v1Zm-.74-1.2v-2.35h-2.88v2.35Z"/><path class="cls-34" d="M97.51,281.08h-.9a7.81,7.81,0,0,1-1.89-5.33,8.09,8.09,0,0,1,1.89-5.41h.91a8.19,8.19,0,0,0-1.92,5.4A8.08,8.08,0,0,0,97.51,281.08Z"/><path class="cls-34" d="M99.61,270.34v2.73h-.89v-2.73Zm2,0v2.73h-.88v-2.73Z"/><path class="cls-34" d="M114.86,278.69a1.27,1.27,0,0,0-.24.58.39.39,0,0,1-.08.22.43.43,0,0,1-.21.05q-2.43.15-4.44.15a7.75,7.75,0,0,1-3.07-.42,2.35,2.35,0,0,1-1.17-1.23,11.94,11.94,0,0,1-1.35,1.23,1.22,1.22,0,0,0-.26.26c-.05.07-.1.11-.15.11a.19.19,0,0,1-.15-.1,5.59,5.59,0,0,1-.36-.68,4.35,4.35,0,0,0,.76-.45,8,8,0,0,0,1.16-1V274.3h-.92l-.86,0c-.08,0-.11,0-.11-.12v-.53c0-.07,0-.1.11-.1l.86,0h.67l.91,0c.06,0,.09,0,.09.1l0,1.17v2.57a2.17,2.17,0,0,0,1.07,1.22,7,7,0,0,0,2.51.32C111.3,279,113,278.87,114.86,278.69Zm-8.7-7.59a.2.2,0,0,1,0,.08s0,.07-.11.12l-.3.24a.31.31,0,0,1-.15.09s-.06,0-.09-.07a13.36,13.36,0,0,0-1.57-1.87.1.1,0,0,1,0-.08s0-.06.11-.12l.29-.21c.06,0,.1-.08.13-.08s0,0,.08.05A13.91,13.91,0,0,1,106.16,271.1Zm8.49,6.29a1.55,1.55,0,0,0-.32.51c-.06.13-.11.2-.16.2L114,278a11.12,11.12,0,0,1-2.76-1.74,9.17,9.17,0,0,1-2.57,1.76l-.17.07s-.11-.06-.19-.17a1.3,1.3,0,0,0-.4-.38,9,9,0,0,0,2.83-1.79,7.56,7.56,0,0,1-1.68-3.05h-.53c0,.79-.08,1.46-.15,2a7.07,7.07,0,0,1-1.15,3.12c-.06.1-.11.15-.14.15s-.08-.05-.16-.14a1.91,1.91,0,0,0-.44-.34,6.33,6.33,0,0,0,1.19-3.06,23.65,23.65,0,0,0,.15-3.17l0-1.72c0-.07,0-.1.09-.1l1.68,0h3l1.65,0a.08.08,0,0,1,.09.09v.55a.08.08,0,0,1-.09.09l-1.65,0h-4.06v1.91h4.12a.54.54,0,0,0,.25,0L113,272c.08,0,.2.09.36.25s.22.26.22.33,0,.09-.1.14a1.46,1.46,0,0,0-.25.43,10,10,0,0,1-1.53,2.6A9.6,9.6,0,0,0,114.65,277.39Zm-2-4.65h-2.91a6.68,6.68,0,0,0,1.51,2.52A8.73,8.73,0,0,0,112.63,272.74Z"/><path class="cls-34" d="M119.11,269a.27.27,0,0,1-.1.19,1.61,1.61,0,0,0-.23.48q-.39,1.08-.72,1.8v6.4l0,2c0,.06,0,.09-.1.09h-.61s-.08,0-.08-.09l0-2v-3.17c0-.8,0-1.41,0-1.84a14.2,14.2,0,0,1-1.11,1.62c-.09.1-.14.14-.17.14s-.06,0-.1-.14a1.28,1.28,0,0,0-.31-.48,13.46,13.46,0,0,0,2.41-4.5,3.65,3.65,0,0,0,.17-.85,4.51,4.51,0,0,1,.73.21C119.06,268.94,119.11,269,119.11,269Zm8,2.74c0,.07,0,.1-.11.1l-1.76,0h-4.41l-1.75,0a.09.09,0,0,1-.1-.1v-.53a.09.09,0,0,1,.1-.1l1.75,0h4.41l1.76,0a.1.1,0,0,1,.11.1Zm-1.19,8c0,.06,0,.09-.08.09h-.6a.08.08,0,0,1-.09-.09v-.52h-4.51v.56c0,.07,0,.1-.09.1H120c-.07,0-.1,0-.1-.1l0-1.53v-.93l0-1s0-.08.1-.08l1.63,0h2.61l1.62,0a.07.07,0,0,1,.08.08l0,.91v1Zm-.27-6.35c0,.07,0,.1-.09.1l-1.52,0h-2.27l-1.52,0c-.07,0-.11,0-.11-.1V273a.1.1,0,0,1,.11-.1l1.52,0h2.27l1.52,0c.06,0,.09,0,.09.1Zm0,1.69c0,.07,0,.1-.09.1l-1.52,0h-2.27l-1.52,0c-.07,0-.11,0-.11-.1v-.49a.1.1,0,0,1,.11-.1l1.52,0h2.27l1.52,0c.06,0,.09,0,.09.1Zm.12-5.08q0,.09-.12.09l-1.52,0h-2.33l-1.54,0c-.07,0-.11,0-.11-.09v-.51a.1.1,0,0,1,.11-.1l1.54,0h2.33l1.52,0c.08,0,.12,0,.12.1Zm-.62,8.58v-1.72h-4.51v1.72Z"/><path class="cls-34" d="M129.77,270.34v2.73h-.88v-2.73Zm2,0v2.73h-.89v-2.73Z"/><path class="cls-34" d="M133.92,281.08H133a8.07,8.07,0,0,0,1.9-5.34,8.19,8.19,0,0,0-1.92-5.4h.91a8,8,0,0,1,1.9,5.41A7.77,7.77,0,0,1,133.92,281.08Z"/></g></svg>