<svg xmlns="http://www.w3.org/2000/svg" xmlns:xlink="http://www.w3.org/1999/xlink" viewBox="0 0 332.33 285.86"><defs><style>.cls-1{fill:#fff;}.cls-2{fill:#ccc;fill-opacity:0.3;}.cls-23,.cls-24,.cls-26,.cls-3,.cls-35,.cls-37,.cls-4,.cls-9{fill:none;stroke-miterlimit:10;}.cls-23,.cls-3,.cls-4{stroke:#3c3c41;}.cls-4{stroke-dasharray:1.31 2.19;}.cls-5,.cls-6,.cls-7,.cls-8{fill:#3c3c41;}.cls-6{opacity:0.05;}.cls-34,.cls-38,.cls-39,.cls-6,.cls-7,.cls-8,.cls-9{isolation:isolate;}.cls-7{opacity:0.2;}.cls-8{opacity:0.02;}.cls-24,.cls-26,.cls-9{stroke:#365615;}.cls-9{stroke-width:0.5px;opacity:0.5;}.cls-10{fill:url(#Degradado_sin_nombre);}.cls-11{fill:#50e6ff;}.cls-12{fill:#c3f1ff;}.cls-13{fill:#9cebff;}.cls-14{fill:url(#Degradado_sin_nombre_2);}.cls-15{fill:url(#Degradado_sin_nombre_3);}.cls-16{fill:url(#Degradado_sin_nombre_4);}.cls-17{fill:#005ba1;}.cls-18{fill:#0078d4;}.cls-19{fill:url(#Degradado_sin_nombre_5);}.cls-20{fill:url(#Degradado_sin_nombre_6);}.cls-21{fill:url(#Degradado_sin_nombre_7);}.cls-22{fill:url(#Degradado_sin_nombre_8);}.cls-23,.cls-26,.cls-37{stroke-dasharray:1.46 2.43;}.cls-25{fill:#365615;}.cls-27{fill:url(#Degradado_sin_nombre_9);}.cls-28{fill:url(#Degradado_sin_nombre_10);}.cls-29{fill:url(#Degradado_sin_nombre_11);}.cls-30{fill:#1490df;}.cls-31{fill:url(#Degradado_sin_nombre_12);}.cls-32{fill:#b4ec36;}.cls-33{fill:#5ea0ef;}.cls-34{fill:#9bf00b;}.cls-34,.cls-38,.cls-39{opacity:0.4;}.cls-35,.cls-37{stroke:#003067;}.cls-36{fill:#003067;}.cls-38{fill:#83b9f9;}.cls-39,.cls-40{fill:#6ebcdb;}.cls-41{fill:#5db4d7;}.cls-42{fill:#e6e6e6;}.cls-43{fill:#86d633;}.cls-44{fill:#1e1e1e;}.cls-45{fill:#767676;}</style><linearGradient id="Degradado_sin_nombre" x1="132.84" y1="445.76" x2="132.84" y2="427" gradientTransform="translate(0 -292.14)" gradientUnits="userSpaceOnUse"><stop offset="0" stop-color="#0078d4"/><stop offset="0.82" stop-color="#5ea0ef"/></linearGradient><linearGradient id="Degradado_sin_nombre_2" x1="132.84" y1="453" x2="132.84" y2="445.76" gradientTransform="translate(0 -292.14)" gradientUnits="userSpaceOnUse"><stop offset="0.15" stop-color="#ccc"/><stop offset="1" stop-color="#707070"/></linearGradient><linearGradient id="Degradado_sin_nombre_3" x1="173.92" y1="445.76" x2="173.92" y2="427" xlink:href="#Degradado_sin_nombre"/><linearGradient id="Degradado_sin_nombre_4" x1="173.94" y1="453" x2="173.94" y2="445.76" xlink:href="#Degradado_sin_nombre_2"/><linearGradient id="Degradado_sin_nombre_5" x1="300.19" y1="433.76" x2="300.19" y2="423.44" xlink:href="#Degradado_sin_nombre"/><linearGradient id="Degradado_sin_nombre_6" x1="300.24" y1="437.77" x2="300.24" y2="433.77" xlink:href="#Degradado_sin_nombre_2"/><linearGradient id="Degradado_sin_nombre_7" x1="252.5" y1="433.76" x2="252.5" y2="415" xlink:href="#Degradado_sin_nombre"/><linearGradient id="Degradado_sin_nombre_8" x1="252.5" y1="441" x2="252.5" y2="433.76" xlink:href="#Degradado_sin_nombre_2"/><linearGradient id="Degradado_sin_nombre_9" x1="75.68" y1="492.87" x2="78.04" y2="495.24" gradientTransform="translate(2.87 -293.36)" gradientUnits="userSpaceOnUse"><stop offset="0" stop-color="#86d633"/><stop offset="0.24" stop-color="#83d232"/><stop offset="0.5" stop-color="#7cc52f"/><stop offset="0.76" stop-color="#6fb02a"/><stop offset="1" stop-color="#5e9624"/></linearGradient><linearGradient id="Degradado_sin_nombre_10" x1="70.33" y1="492.87" x2="72.69" y2="495.24" xlink:href="#Degradado_sin_nombre_9"/><linearGradient id="Degradado_sin_nombre_11" x1="64.99" y1="492.87" x2="67.35" y2="495.24" xlink:href="#Degradado_sin_nombre_9"/><linearGradient id="Degradado_sin_nombre_12" x1="84.67" y1="357.92" x2="84.67" y2="321.98" gradientTransform="translate(0 -292.14)" gradientUnits="userSpaceOnUse"><stop offset="0" stop-color="#5e9624"/><stop offset="0.02" stop-color="#5f9724"/><stop offset="1" stop-color="#76bc2d"/></linearGradient></defs><title>OJ104903191</title><g id="Target"><g id="Shapes"><rect class="cls-1" width="332.33" height="285.86"/><rect class="cls-2" x="176.33" y="210.86" width="155" height="35"/><rect class="cls-2" x="176.33" y="250.86" width="155" height="35"/><line class="cls-3" x1="192.02" y1="260.86" x2="191.27" y2="260.86"/><line class="cls-4" x1="189.08" y1="260.86" x2="183.17" y2="260.86"/><line class="cls-3" x1="182.08" y1="260.86" x2="181.33" y2="260.86"/><polygon class="cls-5" points="191.15 257.86 196.33 260.86 191.15 263.85 191.15 257.86"/><path class="cls-1" d="M331.83,46.5v149a5,5,0,0,1-5,5h-270a5,5,0,0,1-5-5V46.5"/><path class="cls-6" d="M331.83,46.5v149a5,5,0,0,1-5,5h-270a5,5,0,0,1-5-5V46.5"/><path class="cls-5" d="M325.67,201h-1v-1h1Zm-3,0h-1v-1h1Zm-3,0h-1v-1h1Zm-3,0h-1v-1h1Zm-3,0h-1v-1h1Zm-3,0h-1v-1h1Zm-3,0h-1v-1h1Zm-3,0h-1v-1h1Zm-3,0h-1v-1h1Zm-3,0h-1v-1h1Zm-3,0h-1v-1h1Zm-3,0h-1v-1h1Zm-3,0h-1v-1h1Zm-3,0h-1v-1h1Zm-3,0h-1v-1h1Zm-3,0h-1v-1h1Zm-3,0h-1v-1h1Zm-3,0h-1v-1h1Zm-3,0h-1v-1h1Zm-3,0h-1v-1h1Zm-3,0h-1v-1h1Zm-3,0h-1v-1h1Zm-3,0h-1v-1h1Zm-3,0h-1v-1h1Zm-3,0h-1v-1h1Zm-3,0h-1v-1h1Zm-3,0h-1v-1h1Zm-3,0h-1v-1h1Zm-3,0h-1v-1h1Zm-3,0h-1v-1h1Zm-3,0h-1v-1h1Zm-3,0h-1v-1h1Zm-3,0h-1v-1h1Zm-3,0h-1v-1h1Zm-3,0h-1v-1h1Zm-3,0h-1v-1h1Zm-3,0h-1v-1h1Zm-3,0h-1v-1h1Zm-3,0h-1v-1h1Zm-3,0h-1v-1h1Zm-3,0h-1v-1h1Zm-3,0h-1v-1h1Zm-3,0h-1v-1h1Zm-3,0h-1v-1h1Zm-3,0h-1v-1h1Zm-3,0h-1v-1h1Zm-3,0h-1v-1h1Zm-3,0h-1v-1h1Zm-3,0h-1v-1h1Zm-3,0h-1v-1h1Zm-3,0h-1v-1h1Zm-3,0h-1v-1h1Zm-3,0h-1v-1h1Zm-3,0h-1v-1h1Zm-3,0h-1v-1h1Zm-3,0h-1v-1h1Zm-3,0h-1v-1h1Zm-3,0h-1v-1h1Zm-3,0h-1v-1h1Zm-3,0h-1v-1h1Zm-3,0h-1v-1h1Zm-3,0h-1v-1h1Zm-3,0h-1v-1h1Zm-3,0h-1v-1h1Zm-3,0h-1v-1h1Zm-3,0h-1v-1h1Zm-3,0h-1v-1h1Zm-3,0h-1v-1h1Zm-3,0h-1v-1h1Zm-3,0h-1v-1h1Zm-3,0h-1v-1h1Zm-3,0h-1v-1h1Zm-3,0h-1v-1h1Zm-3,0h-1v-1h1Zm-3,0h-1v-1h1Zm-3,0h-1v-1h1Zm-3,0h-1v-1h1Zm-3,0h-1v-1h1Zm-3,0h-1v-1h1Zm-33,0h-1v-1h1Zm269.5-.08-.17-1a4.31,4.31,0,0,0,.87-.24l.36.93a5.74,5.74,0,0,1-1.48.31Zm-272.64-.2a4.5,4.5,0,0,1-1-.45l.5-.86a4,4,0,0,0,.82.37Zm275.54-1.27-.69-.72A4.82,4.82,0,0,0,331,198l.82.57a6.26,6.26,0,0,1-1.13.84Zm-278.19-.61a6.1,6.1,0,0,1-.58-.94l.9-.44a4.66,4.66,0,0,0,.47.77Zm279.76-2.24-1-.21a4.41,4.41,0,0,0,.09-.89l1-.06v.06a5.77,5.77,0,0,1-.51,1.1Zm-280.88-.82v-1h1v1Zm281-2.34h-1v-1h1Zm-280-.69h-1v-1h1Zm280-2.32h-1v-1h1Zm-280-.68h-1v-1h1Zm280-2.32h-1v-1h1Zm-280-.69h-1v-1h1Zm280-2.32h-1v-1h1Zm-280-.68h-1v-1h1Zm280-2.32h-1v-1h1Zm-280-.69h-1v-1h1Zm280-2.31h-1v-1h1Zm-280-.69h-1v-1h1Zm280-2.32h-1v-1h1Zm-280-.69h-1v-1h1Zm280-2.31h-1v-1h1Zm-280-.69h-1v-1h1Zm280-2.32h-1v-1h1Zm-280-.69h-1v-1h1Zm280-2.31h-1v-1h1Zm-280-.69h-1v-1h1Zm280-2.32h-1v-1h1Zm-280-.69h-1v-1h1Zm280-2.31h-1v-1h1Zm-280-.69h-1v-1h1Zm280-2.32h-1v-1h1Zm-280-.69h-1v-1h1Zm280-2.31h-1v-1h1Zm-280-.69h-1v-1h1Zm280-2.32h-1v-1h1Zm-280-.69h-1v-1h1Zm280-2.31h-1v-1h1Zm-280-.69h-1v-1h1Zm280-2.32h-1v-1h1Zm-280-.68h-1v-1h1Zm280-2.32h-1v-1h1Zm-280-.69h-1v-1h1Zm280-2.32h-1v-1h1Zm-280-.68h-1v-1h1Zm280-2.32h-1v-1h1Zm-280-.69h-1v-1h1Zm280-2.32h-1v-1h1Zm-280-.68h-1v-1h1Zm280-2.32h-1v-1h1Zm-280-.69h-1v-1h1Zm280-2.32h-1v-1h1Zm-280-.68h-1v-1h1Zm280-2.32h-1v-1h1Zm-280-.69h-1v-1h1Zm280-2.31h-1v-1h1Zm-280-.69h-1v-1h1Zm280-2.32h-1v-1h1Zm-280-.69h-1v-1h1Zm280-2.31h-1v-1h1Zm-280-.69h-1v-1h1Zm280-2.32h-1v-1h1Zm-280-.69h-1v-1h1Zm280-2.31h-1v-1h1Zm-280-.69h-1v-1h1Zm280-2.32h-1v-1h1Zm-280-.69h-1v-1h1Zm280-2.31h-1v-1h1Zm-280-.69h-1v-1h1Zm280-2.32h-1v-1h1Zm-280-.69h-1v-1h1Zm280-2.31h-1v-1h1Zm-280-.69h-1v-1h1Zm280-2.32h-1v-1h1Zm-280-.69h-1v-1h1Zm280-2.31h-1v-1h1Zm-280-.69h-1v-1h1Zm280-2.32h-1v-1h1Zm-280-.68h-1v-1h1Zm280-2.32h-1v-1h1Zm-280-.69h-1v-1h1Zm280-2.32h-1v-1h1Zm-280-.68h-1v-1h1Zm280-2.32h-1v-1h1Zm-280-.69h-1v-1h1Zm280-2.32h-1v-1h1Zm-280-.68h-1v-1h1Zm280-2.32h-1v-1h1Zm-280-.69h-1v-1h1Zm280-2.31h-1v-1h1Zm-280-.69h-1v-1h1Zm280-2.32h-1v-1h1Zm-280-.69h-1v-1h1Zm280-2.31h-1v-1h1Zm-280-.69h-1v-1h1Zm280-2.32h-1v-1h1Zm-280-.69h-1v-1h1Zm280-2.31h-1v-1h1Zm-280-.69h-1v-1h1Zm280-2.32h-1v-1h1Zm-280-.69h-1v-1h1Zm280-2.31h-1v-1l1-.05v1Zm-281-.69h0a5.36,5.36,0,0,1,.1-1.06l1,.19a5.12,5.12,0,0,0-.08.87Zm279.53-2a4,4,0,0,0-.48-.76l.79-.61a5,5,0,0,1,.59.93ZM53.1,49l-.82-.56a6.24,6.24,0,0,1,.7-.84l.7.71A4.82,4.82,0,0,0,53.1,49ZM329,47.58a4,4,0,0,0-.82-.36l.3-.95a5.24,5.24,0,0,1,1,.44ZM55.18,47.31l-.36-.93a6.41,6.41,0,0,1,1.06-.3l.17,1A4.29,4.29,0,0,0,55.18,47.31ZM326.38,47h-1V46h1Zm-3,0h-1V46h1Zm-3,0h-1V46h1Zm-3,0h-1V46h1Zm-3,0h-1V46h1Zm-3,0h-1V46h1Zm-3,0h-1V46h1Zm-3,0h-1V46h1Zm-3,0h-1V46h1Zm-3,0h-1V46h1Zm-3,0h-1V46h1Zm-3,0h-1V46h1Zm-3,0h-1V46h1Zm-3,0h-1V46h1Zm-3,0h-1V46h1Zm-3,0h-1V46h1Zm-3,0h-1V46h1Zm-3,0h-1V46h1Zm-3,0h-1V46h1Zm-3,0h-1V46h1Zm-27,0h-1V46h1Zm-3,0h-1V46h1Zm-3,0h-1V46h1Zm-3,0h-1V46h1Zm-3,0h-1V46h1Zm-3,0h-1V46h1Zm-3,0h-1V46h1Zm-3,0h-1V46h1Zm-3,0h-1V46h1Zm-3,0h-1V46h1Zm-3,0h-1V46h1Zm-3,0h-1V46h1Zm-3,0h-1V46h1Zm-3,0h-1V46h1Zm-3,0h-1V46h1Zm-3,0h-1V46h1Zm-3,0h-1V46h1Zm-3,0h-1V46h1Zm-3,0h-1V46h1Zm-3,0h-1V46h1Zm-3,0h-1V46h1Zm-3,0h-1V46h1Zm-3,0h-1V46h1Zm-3,0h-1V46h1Zm-3,0h-1V46h1Zm-3,0h-1V46h1Zm-3,0h-1V46h1Zm-3,0h-1V46h1Zm-3,0h-1V46h1Zm-3,0h-1V46h1Zm-3,0h-1V46h1Zm-3,0h-1V46h1Zm-3,0h-1V46h1Zm-3,0h-1V46h1Zm-3,0h-1V46h1Zm-3,0h-1V46h1Zm-3,0h-1V46h1Zm-3,0h-1V46h1Zm-3,0h-1V46h1Zm-3,0h-1V46h1Zm-3,0h-1V46h1Zm-3,0h-1V46h1Zm-3,0h-1V46h1Zm-3,0h-1V46h1Zm-3,0h-1V46h1Zm-3,0h-1V46h1Zm-3,0h-1V46h1Zm-3,0h-1V46h1Zm-3,0H97V46h1Zm-3,0H94V46h1Zm-3,0H91V46h1Zm-3,0H88V46h1Zm-3,0H85V46h1Zm-3,0H82V46h1Zm-3,0H79V46h1Zm-3,0H76V46h1Zm-3,0H73V46h1Zm-3,0H70V46h1Zm-3,0H67V46h1Zm-3,0H64V46h1Zm-3,0H61V46h1Zm-3,0H58V46h1Z"/><rect class="cls-1" x="61.33" y="90.86" width="155" height="95"/><rect class="cls-7" x="61.33" y="90.86" width="155" height="95"/><rect class="cls-1" x="66.33" y="110.86" width="145" height="70"/><rect class="cls-8" x="66.33" y="110.86" width="145" height="70"/><rect class="cls-9" x="66.33" y="110.86" width="145" height="70"/><rect class="cls-10" x="118.77" y="134.86" width="28.14" height="18.76" rx="0.94"/><polygon class="cls-11" points="137.53 141.5 137.53 146.96 132.84 149.71 132.84 144.24 137.53 141.5"/><polygon class="cls-12" points="137.53 141.5 132.84 144.25 128.15 141.5 132.84 138.76 137.53 141.5"/><polygon class="cls-13" points="132.84 144.25 132.84 149.71 128.15 146.96 128.15 141.5 132.84 144.25"/><polygon class="cls-12" points="128.15 146.96 132.84 144.24 132.84 149.71 128.15 146.96"/><polygon class="cls-13" points="137.53 146.96 132.84 144.24 132.84 149.71 137.53 146.96"/><path class="cls-14" d="M138.48,159.29c-2.78-.44-2.89-2.44-2.89-5.67h-5.52c0,3.23-.09,5.23-2.88,5.67a1.56,1.56,0,0,0-1.39,1.57h14.07A1.56,1.56,0,0,0,138.48,159.29Z"/><rect class="cls-15" x="159.85" y="134.86" width="28.14" height="18.76" rx="0.94"/><polygon class="cls-11" points="178.61 141.5 178.61 146.96 173.92 149.71 173.92 144.24 178.61 141.5"/><polygon class="cls-12" points="178.61 141.5 173.92 144.25 169.23 141.5 173.92 138.76 178.61 141.5"/><polygon class="cls-13" points="173.92 144.25 173.92 149.71 169.23 146.96 169.23 141.5 173.92 144.25"/><polygon class="cls-12" points="169.23 146.96 173.92 144.24 173.92 149.71 169.23 146.96"/><polygon class="cls-13" points="178.61 146.96 173.92 144.24 173.92 149.71 178.61 146.96"/><path class="cls-16" d="M179.56,159.29c-2.78-.44-2.89-2.44-2.89-5.67h-5.52c0,3.23-.09,5.23-2.87,5.67a1.58,1.58,0,0,0-1.4,1.57H181A1.57,1.57,0,0,0,179.56,159.29Z"/><rect class="cls-1" x="226.33" y="90.86" width="95" height="95"/><rect class="cls-7" x="226.33" y="90.86" width="95" height="95"/><rect class="cls-17" x="281.93" y="119.63" width="15.46" height="10.32" rx="0.52"/><polygon class="cls-11" points="292.24 123.28 292.24 126.3 289.67 127.79 289.67 124.8 292.24 123.28"/><polygon class="cls-12" points="292.24 123.28 289.67 124.8 287.08 123.28 289.67 121.77 292.24 123.28"/><polygon class="cls-13" points="289.67 124.8 289.67 127.79 287.08 126.3 287.08 123.28 289.67 124.8"/><rect class="cls-18" x="288" y="125.55" width="15.46" height="10.32" rx="0.52"/><polygon class="cls-11" points="298.31 129.22 298.31 132.21 295.74 133.73 295.74 130.72 298.31 129.22"/><polygon class="cls-12" points="298.31 129.22 295.74 130.72 293.15 129.22 295.74 127.7 298.31 129.22"/><polygon class="cls-13" points="295.74 130.72 295.74 133.73 293.15 132.21 293.15 129.22 295.74 130.72"/><rect class="cls-19" x="292.46" y="131.3" width="15.46" height="10.32" rx="0.52"/><polygon class="cls-11" points="302.77 134.97 302.77 137.96 300.2 139.48 300.2 136.47 302.77 134.97"/><polygon class="cls-12" points="302.77 134.97 300.2 136.48 297.62 134.97 300.2 133.45 302.77 134.97"/><polygon class="cls-13" points="300.2 136.48 300.2 139.48 297.62 137.96 297.62 134.97 300.2 136.48"/><polygon class="cls-12" points="297.62 137.96 300.2 136.47 300.2 139.48 297.62 137.96"/><polygon class="cls-13" points="302.77 137.96 300.2 136.47 300.2 139.48 302.77 137.96"/><path class="cls-20" d="M303.29,144.75c-1.53-.24-1.53-1.34-1.53-3.05H298.7c0,1.77,0,2.87-1.52,3.05a.91.91,0,0,0-.77.88h7.65A.91.91,0,0,0,303.29,144.75Z"/><rect class="cls-21" x="238.43" y="122.86" width="28.14" height="18.76" rx="0.94"/><polygon class="cls-11" points="257.19 129.5 257.19 134.96 252.5 137.71 252.5 132.24 257.19 129.5"/><polygon class="cls-12" points="257.19 129.5 252.5 132.25 247.81 129.5 252.5 126.76 257.19 129.5"/><polygon class="cls-13" points="252.5 132.25 252.5 137.71 247.81 134.96 247.81 129.5 252.5 132.25"/><polygon class="cls-12" points="247.81 134.96 252.5 132.24 252.5 137.71 247.81 134.96"/><polygon class="cls-13" points="257.19 134.96 252.5 132.24 252.5 137.71 257.19 134.96"/><path class="cls-22" d="M258.14,147.29c-2.78-.44-2.89-2.44-2.89-5.67h-5.52c0,3.23-.09,5.23-2.88,5.67a1.56,1.56,0,0,0-1.39,1.57h14.07A1.56,1.56,0,0,0,258.14,147.29Z"/><line class="cls-3" x1="203.19" y1="91.21" x2="203.19" y2="64.14"/><line class="cls-3" x1="195.67" y1="85.68" x2="195.67" y2="73.98"/><polygon class="cls-5" points="198.66 74.86 195.67 69.68 192.68 74.86 198.66 74.86"/><line class="cls-3" x1="210.72" y1="81.37" x2="210.72" y2="80.62"/><line class="cls-23" x1="210.72" y1="78.19" x2="210.72" y2="71.64"/><line class="cls-3" x1="210.72" y1="70.43" x2="210.72" y2="69.68"/><polygon class="cls-5" points="213.71 80.5 210.72 85.68 207.73 80.5 213.71 80.5"/><line class="cls-3" x1="243.85" y1="91.21" x2="243.85" y2="64.14"/><line class="cls-3" x1="236.33" y1="85.68" x2="236.33" y2="73.98"/><polygon class="cls-5" points="239.32 74.86 236.33 69.68 233.34 74.86 239.32 74.86"/><line class="cls-3" x1="251.38" y1="81.37" x2="251.38" y2="80.62"/><line class="cls-23" x1="251.38" y1="78.19" x2="251.38" y2="71.64"/><line class="cls-3" x1="251.38" y1="70.43" x2="251.38" y2="69.68"/><polygon class="cls-5" points="254.37 80.5 251.38 85.68 248.39 80.5 254.37 80.5"/><line class="cls-24" x1="84.57" y1="110.86" x2="84.57" y2="19.87"/><line class="cls-24" x1="78.2" y1="79.27" x2="78.2" y2="67.58"/><polygon class="cls-25" points="81.2 78.4 78.2 83.58 75.21 78.4 81.2 78.4"/><line class="cls-24" x1="91.31" y1="83.58" x2="91.31" y2="82.83"/><line class="cls-26" x1="91.31" y1="80.4" x2="91.31" y2="73.85"/><line class="cls-24" x1="91.31" y1="72.63" x2="91.31" y2="71.88"/><polygon class="cls-25" points="94.3 72.76 91.31 67.58 88.32 72.76 94.3 72.76"/><line class="cls-3" x1="225.03" y1="38.29" x2="225.03" y2="18.79"/><line class="cls-3" x1="187.34" y1="222.93" x2="198.46" y2="222.93"/><polygon class="cls-5" points="188.21 225.93 183.03 222.93 188.21 219.94 188.21 225.93"/><path class="cls-3" d="M221.15,41,183.41,29.65a4.3,4.3,0,0,1-2.88-3.86v-7"/><path class="cls-3" d="M229.35,41l43.28-11.43a4.1,4.1,0,0,0,2.9-3.76v-7"/><circle class="cls-27" cx="79.53" cy="200.49" r="1.67"/><circle class="cls-28" cx="74.18" cy="200.5" r="1.67"/><circle class="cls-29" cx="68.84" cy="200.5" r="1.67"/><path class="cls-11" d="M70.06,207.2l-1,1a.43.43,0,0,1-.61,0h0l-7.1-7.08a.86.86,0,0,1,0-1.22h0l1-1h0l7.71,7.69a.43.43,0,0,1,0,.61Z"/><path class="cls-30" d="M69,192.86l1,1a.43.43,0,0,1,0,.61h0L62.34,202h0l-1-1a.87.87,0,0,1,0-1.23h0l7-7a.44.44,0,0,1,.61,0Z"/><path class="cls-11" d="M85.9,198.88l1,1a.86.86,0,0,1,0,1.22h0l-7.09,7.08a.44.44,0,0,1-.62,0h0l-1-1a.45.45,0,0,1,0-.61h0l7.7-7.69Z"/><path class="cls-30" d="M86.86,201.06l-1,1h0l-7.58-7.6a.43.43,0,0,1,0-.61h0l1-1a.43.43,0,0,1,.61,0h0l7,7a.87.87,0,0,1,0,1.23h0Z"/><path class="cls-31" d="M69.48,46.35,83.93,31.9a1,1,0,0,1,1.41,0l0,0h0L99.85,46.35a1,1,0,0,1,.05,1.41l-.05.05h0L85.39,62.3a1,1,0,0,1-1.41,0l0,0L69.48,47.83a1,1,0,0,1,0-1.41s0,0,0-.05Z"/><path class="cls-32" d="M88.46,38.48,84.8,34.85a.2.2,0,0,0-.27,0l-3.65,3.63a.17.17,0,0,0,.14.31h2.13a.2.2,0,0,1,.19.19h0v3.45a.21.21,0,0,0,.19.19H85.8a.2.2,0,0,0,.19-.19h0V39a.21.21,0,0,1,.19-.19h2.14a.17.17,0,0,0,.21-.12h0A.19.19,0,0,0,88.46,38.48Z"/><path class="cls-32" d="M76.06,43l-3.62,3.66a.19.19,0,0,0,0,.26l3.62,3.64a.19.19,0,0,0,.27,0h0a.17.17,0,0,0,0-.14V48.28a.2.2,0,0,1,.19-.19H80a.18.18,0,0,0,.17-.17V45.63a.18.18,0,0,0-.06-.24H76.63a.17.17,0,0,1-.19-.15h0V43.11a.21.21,0,0,0-.12-.25.19.19,0,0,0-.25.12Z"/><path class="cls-32" d="M93.41,50.54l3.67-3.65a.19.19,0,0,0,0-.26L93.41,43a.18.18,0,0,0-.25,0h0a.22.22,0,0,0-.05.11v2.16a.18.18,0,0,1-.17.17H89.47a.18.18,0,0,0-.17.17V47.9a.17.17,0,0,0,.15.19h3.47a.19.19,0,0,1,.18.19v2.14a.21.21,0,0,0,.22.16Z"/><path class="cls-1" d="M89.47,47.09a4.81,4.81,0,1,0-6.09,4.6v1.64a2.94,2.94,0,1,0,2.7,0V51.6A4.76,4.76,0,0,0,89.47,47.09Z"/><circle id="e99c3387-15c3-4f28-bd4b-cb209b430e06" class="cls-33" cx="84.68" cy="47.08" r="2.79"/><rect class="cls-1" x="163" width="35" height="20.86"/><rect class="cls-7" x="163" width="35" height="20.86"/><rect class="cls-1" x="66.33" width="35" height="20.86"/><rect class="cls-34" x="66.33" width="35" height="20.86"/><rect class="cls-1" x="208.03" width="35" height="20.86"/><rect class="cls-7" x="208.03" width="35" height="20.86"/><rect class="cls-1" x="253.03" width="60.64" height="20.86"/><rect class="cls-7" x="253.03" width="60.64" height="20.86"/><line class="cls-35" x1="127.18" y1="79.27" x2="127.18" y2="67.58"/><polygon class="cls-36" points="130.17 78.4 127.18 83.58 124.19 78.4 130.17 78.4"/><line class="cls-35" x1="140.93" y1="83.58" x2="140.93" y2="82.83"/><line class="cls-37" x1="140.93" y1="80.4" x2="140.93" y2="73.85"/><line class="cls-35" x1="140.93" y1="72.63" x2="140.93" y2="71.88"/><polygon class="cls-36" points="143.93 72.76 140.93 67.58 137.94 72.76 143.93 72.76"/><line class="cls-35" x1="134.06" y1="135" x2="134.06" y2="19.86"/><rect class="cls-1" x="122.83" width="23.5" height="20.86"/><rect class="cls-38" x="122.83" width="23.5" height="20.86"/><rect class="cls-1" x="190.03" y="53.97" width="70" height="10"/><rect class="cls-39" x="190.03" y="53.97" width="70" height="10"/><g id="ad94e297-0e86-4eaf-aac0-d146ee9aea65"><path class="cls-40" d="M221,54.32l-4.68-4.84a2.29,2.29,0,0,1-.78.14,2.43,2.43,0,1,1,2.24-3.33h4.62v1.62h-4.55a3.68,3.68,0,0,1-.26.57l4.33,4.46,2.34-3.56V38.19h-3.15l4-4,3.94,4H225.9v8.74l5.92-9-6-6a1,1,0,0,0-1.41-.06l-.06.06h0l-14.5,14.43a1,1,0,0,0,0,1.41l0,0h0l14.47,14.47-5.17-5.16Z"/><path class="cls-41" d="M224.22,54.53V49.36l-2.34,3.58,1.72,1.85A1.61,1.61,0,0,1,224.22,54.53Z"/><path class="cls-41" d="M240.24,46.36l-8.48-8.48-5.92,9v7.61a1.86,1.86,0,0,1,.53.3l6.22-6.29a2.91,2.91,0,0,1-.31-.64h-4.67V46.29h4.74a2.42,2.42,0,1,1,2.24,3.33,2.54,2.54,0,0,1-.67-.11l-6.62,6.67a2.6,2.6,0,0,1,.11.62,2.43,2.43,0,0,1-4.86.19h0a2.3,2.3,0,0,1,.14-.9L221,54.37l-1.84,2.76,5.17,5.17a1,1,0,0,0,1.41,0l0,0,14.48-14.48a1,1,0,0,0,.05-1.41s0,0-.05,0Z"/><path class="cls-42" d="M232.35,46.29h-4.74v1.62h4.67a2.53,2.53,0,0,1-.12-.72A2.3,2.3,0,0,1,232.35,46.29Z"/><path class="cls-42" d="M217.81,47.91h4.55V46.29h-4.62a2.3,2.3,0,0,1,.19.9A2.22,2.22,0,0,1,217.81,47.91Z"/><path class="cls-42" d="M227.3,56.18l6.62-6.67a2.43,2.43,0,0,1-1.33-1l-6.22,6.29A2.21,2.21,0,0,1,227.3,56.18Z"/><path class="cls-42" d="M223.65,54.79l-1.72-1.85-4.38-4.46a2.46,2.46,0,0,1-1.27,1L221,54.32,222.69,56A2.3,2.3,0,0,1,223.65,54.79Z"/><path class="cls-1" d="M229,38.19l-3.92-4-4,4h3.15V54.53a1.35,1.35,0,0,0-.57.26,2.28,2.28,0,0,0-1,1.3,2.41,2.41,0,0,0,4.57,1.54c0-.05,0-.09,0-.14a2.31,2.31,0,0,0,.11-.69,2.6,2.6,0,0,0-.11-.62,2.21,2.21,0,0,0-.93-1.34,1.86,1.86,0,0,0-.53-.3V38.19Zm-3.92,20a1.34,1.34,0,1,1,1.34-1.34h0a1.34,1.34,0,0,1-1.37,1.29Z"/><path class="cls-1" d="M217.55,48.48a3.68,3.68,0,0,0,.26-.57,2.22,2.22,0,0,0,.12-.72,2.3,2.3,0,0,0-.19-.9,2.41,2.41,0,1,0-2.24,3.33,2.29,2.29,0,0,0,.78-.14A2.46,2.46,0,0,0,217.55,48.48Zm-2.05,0a1.35,1.35,0,1,1,1.34-1.36v0h0a1.33,1.33,0,0,1-1.27,1.39h-.07Z"/><path class="cls-1" d="M233.92,49.51a2.54,2.54,0,0,0,.67.11,2.43,2.43,0,1,0-2.24-3.33,2.3,2.3,0,0,0-.19.9,2.53,2.53,0,0,0,.12.72,2.91,2.91,0,0,0,.31.64A2.48,2.48,0,0,0,233.92,49.51Zm.67-3.65a1.35,1.35,0,1,1-.3,0Z"/><path class="cls-43" d="M225.05,55.46a1.34,1.34,0,1,0,1.34,1.34h0A1.34,1.34,0,0,0,225.05,55.46Z"/><circle class="cls-43" cx="215.5" cy="47.19" r="1.34"/><path class="cls-43" d="M234.59,48.53a1.35,1.35,0,1,0-1.34-1.36v0h0A1.34,1.34,0,0,0,234.59,48.53Z"/></g></g></g><g id="Text"><path class="cls-44" d="M129.54,164.8l-3.13,8.54h-1.09l-3-8.54h1.1l2.33,6.77a3.72,3.72,0,0,1,.17.76h0a3.59,3.59,0,0,1,.19-.77l2.38-6.76Z"/><path class="cls-44" d="M139.31,173.34h-1v-5.73c0-.45,0-1,.08-1.66h0a5.22,5.22,0,0,1-.26.83l-2.88,6.56h-.48l-2.88-6.51a5.68,5.68,0,0,1-.25-.88h0c0,.34,0,.9,0,1.68v5.71h-.95V164.8H132l2.59,6a7.51,7.51,0,0,1,.38,1h0c.17-.47.3-.82.4-1.05l2.65-5.93h1.23Z"/><path class="cls-44" d="M174.54,164.8l-3.13,8.54h-1.09l-3-8.54h1.1l2.33,6.77a3.72,3.72,0,0,1,.17.76h0a3.59,3.59,0,0,1,.19-.77l2.38-6.76Z"/><path class="cls-44" d="M184.31,173.34h-1v-5.73c0-.45,0-1,.08-1.66h0a5.22,5.22,0,0,1-.26.83l-2.88,6.56h-.48l-2.88-6.51a5.68,5.68,0,0,1-.25-.88h0c0,.34,0,.9,0,1.68v5.71h-.95V164.8H177l2.59,6a9.21,9.21,0,0,1,.38,1h0c.17-.47.3-.82.4-1.05l2.65-5.93h1.23Z"/><path class="cls-44" d="M250.64,157.22l-3.12,8.54h-1.09l-3.06-8.54h1.1l2.34,6.77a4.77,4.77,0,0,1,.17.76h0a4.31,4.31,0,0,1,.19-.77l2.39-6.76Z"/><path class="cls-44" d="M260.42,165.76h-1V160c0-.45,0-1,.09-1.66h0a5.46,5.46,0,0,1-.25.83l-2.88,6.56h-.48L253,159.25a4.74,4.74,0,0,1-.25-.88h0c0,.35.05.9.05,1.68v5.71h-1v-8.54h1.3l2.59,6a8.52,8.52,0,0,1,.39,1h0c.17-.47.31-.81.41-1l2.64-5.93h1.24Z"/><path class="cls-44" d="M286.78,157.41,283.66,166h-1.09l-3.06-8.54h1.1l2.34,6.77a4.53,4.53,0,0,1,.17.76h0a3.66,3.66,0,0,1,.2-.77l2.38-6.76Z"/><path class="cls-44" d="M296.56,166h-1v-5.73c0-.45,0-1,.08-1.66h0a4.5,4.5,0,0,1-.25.83L292.5,166H292l-2.88-6.51a4.74,4.74,0,0,1-.25-.88h0c0,.34,0,.9,0,1.68V166h-1v-8.54h1.3l2.59,6a7.91,7.91,0,0,1,.39,1h0c.16-.47.3-.82.4-1l2.64-5.93h1.24Z"/><path class="cls-44" d="M298.34,165.61v-1.18a2.86,2.86,0,0,0,.48.32,3.32,3.32,0,0,0,.59.24,3.72,3.72,0,0,0,.62.15,3.09,3.09,0,0,0,.58.06,2.21,2.21,0,0,0,1.36-.35,1.14,1.14,0,0,0,.45-1,1.16,1.16,0,0,0-.15-.6,1.8,1.8,0,0,0-.41-.47,4.58,4.58,0,0,0-.63-.41l-.78-.4c-.29-.15-.57-.31-.82-.46A4.06,4.06,0,0,1,299,161a2.15,2.15,0,0,1-.44-.64,2.19,2.19,0,0,1,.09-1.84,2.28,2.28,0,0,1,.66-.72,3.19,3.19,0,0,1,.94-.41,4.32,4.32,0,0,1,1.08-.14,4.08,4.08,0,0,1,1.81.3v1.13a3.24,3.24,0,0,0-1.91-.52,3.49,3.49,0,0,0-.65.06,1.76,1.76,0,0,0-.58.23,1.21,1.21,0,0,0-.41.4,1,1,0,0,0-.16.59,1.26,1.26,0,0,0,.12.57,1.31,1.31,0,0,0,.36.43,3.32,3.32,0,0,0,.57.38l.78.41c.3.15.59.31.86.47a4.08,4.08,0,0,1,.71.56,2.4,2.4,0,0,1,.49.67,1.93,1.93,0,0,1,.18.85,2.23,2.23,0,0,1-.25,1.07,2,2,0,0,1-.66.71,2.8,2.8,0,0,1-.95.39,5.24,5.24,0,0,1-1.14.13c-.14,0-.3,0-.5,0l-.6-.09a4.91,4.91,0,0,1-.58-.16A2,2,0,0,1,298.34,165.61Z"/><path class="cls-44" d="M304.71,165.61v-1.18a2.23,2.23,0,0,0,.48.32,2.81,2.81,0,0,0,.59.24,3.3,3.3,0,0,0,.62.15,3,3,0,0,0,.57.06,2.21,2.21,0,0,0,1.36-.35,1.14,1.14,0,0,0,.45-1,1.16,1.16,0,0,0-.15-.6,1.63,1.63,0,0,0-.41-.47,4.58,4.58,0,0,0-.63-.41l-.78-.4c-.29-.15-.56-.31-.82-.46a4,4,0,0,1-.66-.51,2.18,2.18,0,0,1-.45-.64,2.19,2.19,0,0,1,.09-1.84,2.2,2.2,0,0,1,.67-.72,3,3,0,0,1,.94-.41,4.24,4.24,0,0,1,1.07-.14,4.13,4.13,0,0,1,1.82.3v1.13a3.27,3.27,0,0,0-1.92-.52,3.57,3.57,0,0,0-.65.06,1.71,1.71,0,0,0-.57.23,1.24,1.24,0,0,0-.42.4,1.1,1.1,0,0,0-.16.59,1.14,1.14,0,0,0,.13.57,1.28,1.28,0,0,0,.35.43,3.76,3.76,0,0,0,.57.38l.78.41c.31.15.59.31.86.47a4.08,4.08,0,0,1,.71.56,2.4,2.4,0,0,1,.49.67,1.93,1.93,0,0,1,.18.85,2,2,0,0,1-.9,1.78,2.94,2.94,0,0,1-1,.39,5.24,5.24,0,0,1-1.14.13c-.13,0-.3,0-.49,0l-.6-.09a4.43,4.43,0,0,1-.58-.16A1.83,1.83,0,0,1,304.71,165.61Z"/><path class="cls-44" d="M266.45,6.16a11.39,11.39,0,0,1-1.17,5.08,7.7,7.7,0,0,1-4.39,3.35l-.5-.72a7.28,7.28,0,0,0,3.9-2.79,9,9,0,0,0,1.17-4.92h-5.6v-.8h5.75a1.34,1.34,0,0,1,1.26-1.81,1.28,1.28,0,0,1,1,.44,1.3,1.3,0,0,1,.34.9,1.28,1.28,0,0,1-.44,1,1.3,1.3,0,0,1-.9.35A1.16,1.16,0,0,1,266.45,6.16Zm.42-2.1a.8.8,0,0,0-.62.27.81.81,0,0,0-.21.56.8.8,0,0,0,.27.62.81.81,0,0,0,.56.21.82.82,0,0,0,.83-.83.82.82,0,0,0-.83-.83Z"/><path class="cls-44" d="M270.63,13.47a7.19,7.19,0,0,0,3.06-1.9,8.73,8.73,0,0,0,1.85-2.83l.69.66a9.23,9.23,0,0,1-2.56,3.39,10.72,10.72,0,0,1-3.42,1.84l-.55-.39V4.91h.93Z"/><path class="cls-44" d="M275.85,5.36h6.61c0,2.86-.54,5-1.55,6.43a8.2,8.2,0,0,1-4,2.8l-.5-.72a7.28,7.28,0,0,0,3.9-2.79,9,9,0,0,0,1.17-4.92h-5.6Z"/><path class="cls-44" d="M284.94,9.58a25.74,25.74,0,0,1-2.81,1.68l-.5-.68a15.36,15.36,0,0,0,5.49-4.26l.73.55a13.11,13.11,0,0,1-2,2v5.66h-.87Z"/><path class="cls-44" d="M285.68,7.58l.77-.34a16.8,16.8,0,0,1,1,2.62l-.79.31A14.75,14.75,0,0,0,285.68,7.58Zm1.33,6.5a6.12,6.12,0,0,0,3.22-2.64,10.1,10.1,0,0,0,1-4.42l.88.18a11.6,11.6,0,0,1-1.2,4.69,5.8,5.8,0,0,1-1.44,1.67,8.68,8.68,0,0,1-2,1.13Zm.94-7,.75-.31a15,15,0,0,1,.88,2.57l-.78.33A12.48,12.48,0,0,0,288,7.06Z"/><path class="cls-44" d="M294.47,6.49a11.29,11.29,0,0,1-2.21,3.45l-.69-.53a10.37,10.37,0,0,0,2.59-5l.95.15c-.08.31-.19.68-.34,1.12h4.16A12.9,12.9,0,0,1,296.64,12a9.1,9.1,0,0,1-3.79,2.66l-.53-.65a8.23,8.23,0,0,0,3.84-2.84,10.75,10.75,0,0,0,1.69-4.68Z"/><path class="cls-44" d="M303.83,10.65a10.82,10.82,0,0,1-4.29,3.79l-.52-.69a10.66,10.66,0,0,0,3.92-3.37,12.09,12.09,0,0,0,1.75-4.32h-5V5.25h6.23a15.83,15.83,0,0,1-1.59,4.6,26.29,26.29,0,0,1,2.8,4l-.88.56A22.32,22.32,0,0,0,303.83,10.65Z"/><path class="cls-44" d="M219.32,10.91v3.17h-1V5.68h2.31a3,3,0,0,1,2.09.66,2.34,2.34,0,0,1,.74,1.85,2.54,2.54,0,0,1-.82,2,3.19,3.19,0,0,1-2.23.76Zm0-4.34V10h1a2.3,2.3,0,0,0,1.55-.47,1.64,1.64,0,0,0,.54-1.31c0-1.11-.66-1.67-2-1.67Z"/><path class="cls-44" d="M226,14.08h-1V5.68h1Z"/><path class="cls-44" d="M229.23,10.91v3.17h-1V5.68h2.3a3,3,0,0,1,2.09.66,2.31,2.31,0,0,1,.74,1.85,2.54,2.54,0,0,1-.82,2,3.18,3.18,0,0,1-2.22.76Zm0-4.34V10h1a2.33,2.33,0,0,0,1.56-.47,1.67,1.67,0,0,0,.53-1.31c0-1.11-.65-1.67-2-1.67Z"/><path class="cls-44" d="M174.35,10.91v3.17h-1V5.68h2.31a3,3,0,0,1,2.09.66,2.34,2.34,0,0,1,.74,1.85,2.54,2.54,0,0,1-.82,2,3.18,3.18,0,0,1-2.22.76Zm0-4.34V10h1a2.28,2.28,0,0,0,1.55-.47,1.64,1.64,0,0,0,.54-1.31c0-1.11-.66-1.67-2-1.67Z"/><path class="cls-44" d="M181.07,14.08h-1V5.68h1Z"/><path class="cls-44" d="M184.26,10.91v3.17h-1V5.68h2.31a3,3,0,0,1,2.08.66,2.31,2.31,0,0,1,.75,1.85,2.55,2.55,0,0,1-.83,2,3.18,3.18,0,0,1-2.22.76Zm0-4.34V10h1a2.33,2.33,0,0,0,1.56-.47,1.63,1.63,0,0,0,.53-1.31c0-1.11-.65-1.67-2-1.67Z"/><path class="cls-44" d="M128.81,10.91v3.17h-1V5.68h2.3a3,3,0,0,1,2.09.66A2.31,2.31,0,0,1,133,8.19a2.54,2.54,0,0,1-.82,2,3.18,3.18,0,0,1-2.22.76Zm0-4.34V10h1a2.33,2.33,0,0,0,1.56-.47,1.67,1.67,0,0,0,.53-1.31c0-1.11-.65-1.67-2-1.67Z"/><path class="cls-44" d="M135.53,14.08h-1V5.68h1Z"/><path class="cls-44" d="M138.72,10.91v3.17h-1V5.68h2.31a3,3,0,0,1,2.09.66,2.34,2.34,0,0,1,.74,1.85,2.58,2.58,0,0,1-.82,2,3.19,3.19,0,0,1-2.23.76Zm0-4.34V10h1a2.3,2.3,0,0,0,1.55-.47,1.64,1.64,0,0,0,.54-1.31c0-1.11-.66-1.67-2-1.67Z"/><path class="cls-45" d="M114.26,14.08h-1V5.68h1Z"/><path class="cls-45" d="M120.83,14.08h-4.36V5.68h1v7.51h3.37Z"/><path class="cls-44" d="M77.65,10.91v3.17h-1V5.68H79a3,3,0,0,1,2.09.66,2.34,2.34,0,0,1,.74,1.85,2.55,2.55,0,0,1-.83,2,3.16,3.16,0,0,1-2.22.76Zm0-4.34V10h1a2.33,2.33,0,0,0,1.56-.47,1.64,1.64,0,0,0,.54-1.31c0-1.11-.66-1.67-2-1.67Z"/><path class="cls-44" d="M84.37,14.08h-1V5.68h1Z"/><path class="cls-44" d="M87.57,10.91v3.17h-1V5.68h2.31A3,3,0,0,1,91,6.34a2.34,2.34,0,0,1,.74,1.85,2.54,2.54,0,0,1-.82,2,3.19,3.19,0,0,1-2.23.76Zm0-4.34V10h1a2.28,2.28,0,0,0,1.55-.47,1.64,1.64,0,0,0,.54-1.31c0-1.11-.66-1.67-2-1.67Z"/><path class="cls-44" d="M7.69,35.88H3.33v-8.4h1V35H7.69Z"/><path class="cls-44" d="M11.36,36a2.77,2.77,0,0,1-2.12-.84A3.11,3.11,0,0,1,8.44,33a3.26,3.26,0,0,1,.83-2.36,3,3,0,0,1,2.23-.85,2.71,2.71,0,0,1,2.1.83,3.27,3.27,0,0,1,.75,2.29,3.23,3.23,0,0,1-.81,2.3A2.83,2.83,0,0,1,11.36,36Zm.07-5.47a1.81,1.81,0,0,0-1.46.63,2.59,2.59,0,0,0-.54,1.74A2.46,2.46,0,0,0,10,34.6a1.85,1.85,0,0,0,1.46.61,1.75,1.75,0,0,0,1.43-.6,2.58,2.58,0,0,0,.5-1.72,2.62,2.62,0,0,0-.5-1.73A1.73,1.73,0,0,0,11.43,30.55Z"/><path class="cls-44" d="M20.18,35.88h-1V35h0A2,2,0,0,1,17.35,36a1.93,1.93,0,0,1-1.4-.47,1.65,1.65,0,0,1-.51-1.26c0-1.12.66-1.77,2-2l1.8-.25c0-1-.41-1.53-1.24-1.53a3,3,0,0,0-2,.74v-1a3.76,3.76,0,0,1,2-.56c1.41,0,2.12.75,2.12,2.24Zm-1-3-1.45.2a2.35,2.35,0,0,0-1,.33,1,1,0,0,0-.34.84.93.93,0,0,0,.32.72,1.22,1.22,0,0,0,.83.27,1.51,1.51,0,0,0,1.18-.5,1.77,1.77,0,0,0,.47-1.26Z"/><path class="cls-44" d="M27.11,35.88h-1v-1h0A2.22,2.22,0,0,1,24.06,36a2.25,2.25,0,0,1-1.8-.8,3.27,3.27,0,0,1-.68-2.2,3.59,3.59,0,0,1,.75-2.38,2.48,2.48,0,0,1,2-.9,2,2,0,0,1,1.8,1h0V27h1Zm-1-2.71v-.89a1.73,1.73,0,0,0-.48-1.23,1.77,1.77,0,0,0-2.6.15A2.77,2.77,0,0,0,22.56,33a2.48,2.48,0,0,0,.49,1.63,1.57,1.57,0,0,0,1.29.6,1.65,1.65,0,0,0,1.31-.58A2.16,2.16,0,0,0,26.15,33.17Z"/><path class="cls-44" d="M32.47,35.88v-8.4h2.39a2.63,2.63,0,0,1,1.73.53,1.72,1.72,0,0,1,.64,1.39,2,2,0,0,1-1.45,2v0a2.13,2.13,0,0,1,1.36.64,2,2,0,0,1,.51,1.41,2.17,2.17,0,0,1-.78,1.74,2.84,2.84,0,0,1-1.95.67Zm1-7.51v2.71h1a1.94,1.94,0,0,0,1.28-.39,1.37,1.37,0,0,0,.46-1.09c0-.82-.54-1.23-1.61-1.23Zm0,3.6v3h1.33a2,2,0,0,0,1.35-.41,1.39,1.39,0,0,0,.47-1.12c0-1-.67-1.49-2-1.49Z"/><path class="cls-44" d="M43.52,35.88h-1V35h0A2,2,0,0,1,40.69,36a2,2,0,0,1-1.41-.47,1.68,1.68,0,0,1-.5-1.26c0-1.12.66-1.77,2-2l1.8-.25c0-1-.42-1.53-1.24-1.53a3,3,0,0,0-2,.74v-1a3.76,3.76,0,0,1,2-.56c1.41,0,2.12.75,2.12,2.24Zm-1-3-1.45.2a2.3,2.3,0,0,0-1,.33,1,1,0,0,0-.34.84,1,1,0,0,0,.31.72,1.25,1.25,0,0,0,.84.27,1.51,1.51,0,0,0,1.18-.5,1.77,1.77,0,0,0,.47-1.26Z"/><path class="cls-44" d="M46.29,35.88h-1V27h1Z"/><path class="cls-44" d="M52.53,35.88h-1V35h0A2,2,0,0,1,49.7,36a2,2,0,0,1-1.41-.47,1.68,1.68,0,0,1-.5-1.26c0-1.12.66-1.77,2-2l1.8-.25c0-1-.41-1.53-1.24-1.53a3,3,0,0,0-2,.74v-1a3.76,3.76,0,0,1,2-.56c1.41,0,2.12.75,2.12,2.24Zm-1-3-1.45.2a2.3,2.3,0,0,0-1,.33,1,1,0,0,0-.34.84.93.93,0,0,0,.32.72,1.2,1.2,0,0,0,.83.27,1.51,1.51,0,0,0,1.18-.5,1.77,1.77,0,0,0,.47-1.26Z"/><path class="cls-44" d="M59.32,35.88h-1V32.46c0-1.27-.47-1.91-1.4-1.91a1.52,1.52,0,0,0-1.19.54,2,2,0,0,0-.47,1.37v3.42h-1v-6h1v1h0a2.17,2.17,0,0,1,2-1.14,1.83,1.83,0,0,1,1.51.64,2.79,2.79,0,0,1,.52,1.83Z"/><path class="cls-44" d="M65.22,35.61a3.19,3.19,0,0,1-1.64.41,2.72,2.72,0,0,1-2.07-.83A3,3,0,0,1,60.72,33a3.3,3.3,0,0,1,.85-2.38,3,3,0,0,1,2.27-.9,3.23,3.23,0,0,1,1.39.29v1a2.45,2.45,0,0,0-1.43-.47,2,2,0,0,0-1.51.66,2.52,2.52,0,0,0-.59,1.73,2.41,2.41,0,0,0,.56,1.67,1.91,1.91,0,0,0,1.48.6,2.39,2.39,0,0,0,1.48-.52Z"/><path class="cls-44" d="M71.5,33.12H67.26a2.19,2.19,0,0,0,.54,1.55,1.85,1.85,0,0,0,1.42.54,3,3,0,0,0,1.86-.66v.9A3.52,3.52,0,0,1,69,36a2.54,2.54,0,0,1-2-.81,3.34,3.34,0,0,1-.73-2.3,3.29,3.29,0,0,1,.8-2.29,2.56,2.56,0,0,1,2-.88,2.28,2.28,0,0,1,1.82.76,3.2,3.2,0,0,1,.65,2.12Zm-1-.81a2,2,0,0,0-.4-1.3,1.36,1.36,0,0,0-1.1-.46,1.52,1.52,0,0,0-1.15.49,2.13,2.13,0,0,0-.59,1.27Z"/><path class="cls-44" d="M76.08,30.86a1.18,1.18,0,0,0-.73-.2,1.25,1.25,0,0,0-1,.58,2.74,2.74,0,0,0-.41,1.58v3.06H73v-6h1v1.24h0a2.17,2.17,0,0,1,.63-1,1.46,1.46,0,0,1,.94-.35,1.52,1.52,0,0,1,.58.08Z"/><path class="cls-44" d="M252.77,49.72h-1.2L247.24,43a2.94,2.94,0,0,1-.27-.53h0a9.28,9.28,0,0,1,0,1.15v6.07h-1v-8.4h1.28l4.2,6.59c.18.28.29.47.34.57h0a8.84,8.84,0,0,1-.06-1.24V41.32h1Z"/><path class="cls-44" d="M261.48,49.72h-1.09l-.89-2.35h-3.56l-.84,2.35H254l3.23-8.4h1Zm-2.3-3.24-1.32-3.58a3.14,3.14,0,0,1-.13-.56h0a3,3,0,0,1-.14.56l-1.31,3.58Z"/><path class="cls-44" d="M266.82,42.21H264.4v7.51h-1V42.21H261v-.89h5.83Z"/><path class="cls-44" d="M159,98.59h2v.84h-2v.93a6.56,6.56,0,0,1-1.29,4.49,6.49,6.49,0,0,1-3.35,1.72l-.5-.71a5.4,5.4,0,0,0,3.3-1.74,6,6,0,0,0,.91-3.64v-1h-3.08v3.29H154V99.43h-1.88v-.84H154V96.14h.92v2.45H158V96.11H159Z"/><path class="cls-44" d="M167.74,97.11a10.7,10.7,0,0,0-.65-1.47l.63-.25a17.52,17.52,0,0,1,.9,2.1l-.4.16.16.37a10.22,10.22,0,0,1-1.72,5.88,8.7,8.7,0,0,1-4,2.64l-.52-.74a7.57,7.57,0,0,0,4-2.85,9.1,9.1,0,0,0,1.2-5h-5.74v-.83Zm.76-1.77.62-.23a10.41,10.41,0,0,1,.87,2l-.64.26A11.3,11.3,0,0,0,168.5,95.34Z"/><path class="cls-44" d="M175.76,97.69h2.78l.27.59a18.93,18.93,0,0,1-3,3v5.21h-.94V102a20.2,20.2,0,0,1-3.71,2l-.5-.7a16.77,16.77,0,0,0,6.77-4.83h-6v-.83h3.42V95.9h.95Zm.82,4,.55-.63a20.3,20.3,0,0,1,2.76,2.16l-.6.79A18.07,18.07,0,0,0,176.58,101.73Z"/><path class="cls-44" d="M179.38,99.28l.78-.35a16.28,16.28,0,0,1,1,2.71l-.81.33A15,15,0,0,0,179.38,99.28Zm1.36,6.74a6.24,6.24,0,0,0,3.29-2.74,10.41,10.41,0,0,0,1.07-4.58l.9.19a12,12,0,0,1-1.23,4.85,5.64,5.64,0,0,1-1.47,1.74,8.55,8.55,0,0,1-2,1.17Zm1-7.27.77-.33a16.1,16.1,0,0,1,.9,2.66l-.8.35A12.41,12.41,0,0,0,181.7,98.75Z"/><path class="cls-44" d="M187.45,100.61v5.91h-.95V96.09h.95v3.6a19.22,19.22,0,0,1,4.68,2l-.47.9A15.57,15.57,0,0,0,187.45,100.61Z"/><path class="cls-44" d="M202.34,106h-1.11l-.91-2.44h-3.65l-.86,2.44h-1.12l3.3-8.71h1ZM200,102.66,198.64,99a3.27,3.27,0,0,1-.14-.58h0a3.29,3.29,0,0,1-.14.58L197,102.66Z"/><path class="cls-44" d="M257.3,98.66h1.93v.8H257.3v.9a6.26,6.26,0,0,1-1.25,4.32,6.48,6.48,0,0,1-3.27,1.65l-.49-.68a5.33,5.33,0,0,0,3.22-1.68,5.77,5.77,0,0,0,.89-3.5v-1h-3v3.17h-.9V99.46h-1.83v-.8h1.83V96.29h.9v2.37h3V96.27h.9Z"/><path class="cls-44" d="M265.89,97.23a9.31,9.31,0,0,0-.64-1.42l.62-.24a16.21,16.21,0,0,1,.88,2l-.39.16.15.36a9.7,9.7,0,0,1-1.68,5.65,8.46,8.46,0,0,1-3.87,2.55l-.5-.72a7.37,7.37,0,0,0,3.9-2.74A8.83,8.83,0,0,0,265.53,98h-5.6v-.8Zm.74-1.71.6-.21a9.67,9.67,0,0,1,.86,2l-.63.25A11.28,11.28,0,0,0,266.63,95.52Z"/><path class="cls-44" d="M273.72,97.79h2.71l.26.57a18.43,18.43,0,0,1-2.95,2.92v5h-.92V102a19.17,19.17,0,0,1-3.62,2l-.49-.68a16.32,16.32,0,0,0,6.61-4.64h-5.87v-.8h3.34V96.06h.93Zm.8,3.88.54-.61a21.71,21.71,0,0,1,2.69,2.08l-.59.77A17,17,0,0,0,274.52,101.67Z"/><path class="cls-44" d="M277.25,99.32,278,99a17.27,17.27,0,0,1,1,2.61l-.79.31A14.65,14.65,0,0,0,277.25,99.32Zm1.33,6.48a6,6,0,0,0,3.21-2.63,10,10,0,0,0,1-4.41l.87.18a11.18,11.18,0,0,1-1.2,4.67,5.5,5.5,0,0,1-1.43,1.67,8.55,8.55,0,0,1-2,1.13Zm.94-7,.75-.31a16.07,16.07,0,0,1,.88,2.56l-.78.34A12.29,12.29,0,0,0,279.52,98.8Z"/><path class="cls-44" d="M285.13,100.6v5.68h-.92v-10h.92v3.47a18.94,18.94,0,0,1,4.57,1.9l-.46.87A14.85,14.85,0,0,0,285.13,100.6Z"/><path class="cls-44" d="M293.17,105.8V97.42h2.39a2.6,2.6,0,0,1,1.73.54,1.72,1.72,0,0,1,.64,1.38,2,2,0,0,1-.39,1.24,2.09,2.09,0,0,1-1.07.75v0a2.15,2.15,0,0,1,1.36.64,2,2,0,0,1,.51,1.41,2.22,2.22,0,0,1-.77,1.74,2.91,2.91,0,0,1-1.95.66Zm1-7.49V101h1a1.89,1.89,0,0,0,1.27-.39,1.35,1.35,0,0,0,.47-1.1c0-.81-.54-1.22-1.61-1.22Zm0,3.59v3h1.33a2,2,0,0,0,1.34-.41,1.42,1.42,0,0,0,.48-1.13c0-1-.67-1.48-2-1.48Z"/><path class="cls-44" d="M64.84,212.82a.26.26,0,0,1-.11.17,1.06,1.06,0,0,0-.26.45,17.17,17.17,0,0,1-.84,1.84v6.07l0,1.92c0,.06,0,.09-.1.09H63a.08.08,0,0,1-.09-.09l0-1.92v-3.16c0-.75,0-1.32,0-1.72A14.22,14.22,0,0,1,61.8,218c-.08.09-.12.13-.14.13s-.06,0-.1-.1a1.55,1.55,0,0,0-.33-.52,12.53,12.53,0,0,0,2.53-4.27,3.07,3.07,0,0,0,.21-.83,5,5,0,0,1,.72.27Q64.84,212.71,64.84,212.82Zm7.76,9.68a1.73,1.73,0,0,0-.35.48c-.06.12-.11.18-.14.18l-.2-.08a11.9,11.9,0,0,1-2.78-2,9.19,9.19,0,0,1-2.72,2.11.46.46,0,0,1-.18.07s-.09-.06-.17-.17a1.79,1.79,0,0,0-.37-.4,9.2,9.2,0,0,0,3-2.14,8.31,8.31,0,0,1-1.73-3.69h-.55a16,16,0,0,1-.25,2.88,7.74,7.74,0,0,1-1.46,3.37c-.08.11-.13.16-.17.16s-.08-.05-.14-.14a1.59,1.59,0,0,0-.39-.39,6.55,6.55,0,0,0,1.46-3.21,20.93,20.93,0,0,0,.23-3.62l0-2.55a.09.09,0,0,1,.1-.1l1.66,0h3.18l1.64,0c.06,0,.08,0,.08.1v.54c0,.06,0,.1-.08.1l-1.64,0H66.36v2.24h4.11a.78.78,0,0,0,.27,0,.32.32,0,0,1,.16-.05s.16.08.34.23.24.26.24.33a.21.21,0,0,1-.1.16,1.51,1.51,0,0,0-.27.49,11.78,11.78,0,0,1-1.55,3.18A11.14,11.14,0,0,0,72.6,222.5Zm-2.07-5.67h-3A7.49,7.49,0,0,0,69.07,220,9.66,9.66,0,0,0,70.53,216.83Z"/><path class="cls-44" d="M78.49,217a2.27,2.27,0,0,0-.29.37c0,.11-.1.16-.14.16s-.09,0-.16-.12a6.48,6.48,0,0,1-1.26-1.78c0,2.15.06,3.34.06,3.55s0,.1-.1.1h-.52c-.07,0-.1,0-.1-.1s0-.43,0-1.18,0-1.55,0-2.22a7,7,0,0,1-1.92,2.45.26.26,0,0,1-.16.08s-.09-.05-.16-.16a1.33,1.33,0,0,0-.35-.36A7.5,7.5,0,0,0,75.89,215h-.64l-1.36,0a.09.09,0,0,1-.1-.1v-.47a.09.09,0,0,1,.1-.1l1.36,0H76v-.77a6.14,6.14,0,0,0-.07-1.14c.21,0,.45,0,.73.07.09,0,.13,0,.13.09a.77.77,0,0,1,0,.19,2.89,2.89,0,0,0-.06.78v.78H77l1.34,0c.07,0,.11,0,.11.1v.47c0,.07,0,.1-.11.1L77,215h-.3A7.08,7.08,0,0,0,78.49,217Zm-2.91,3.3a7.33,7.33,0,0,1-1.17,2.23s0,.05-.08.05l-.11-.05-.34-.21c-.09,0-.13-.09-.13-.13a.18.18,0,0,1,0-.07,5.73,5.73,0,0,0,1.1-2.08c0-.06,0-.08.08-.08a.47.47,0,0,1,.15,0l.3.13c.11.05.16.09.16.12A.43.43,0,0,0,75.58,220.33Zm6.28,1.23a1.61,1.61,0,0,1-.63,1.24,2.27,2.27,0,0,1-.91.27c-.28,0-.71.05-1.27.05a4.83,4.83,0,0,1-1.87-.21.88.88,0,0,1-.36-.36,1.77,1.77,0,0,1-.1-.65v-1.31a4.89,4.89,0,0,0-.07-.93,5.59,5.59,0,0,1,.74.08c.11,0,.16.06.16.12l-.06.16a2,2,0,0,0-.06.6v1c0,.33.07.53.21.61a3.33,3.33,0,0,0,1.41.18,3.69,3.69,0,0,0,1.72-.25c.25-.16.4-.56.45-1.21a2.15,2.15,0,0,0,.48.24q.18.07.18.18S81.87,221.49,81.86,221.56Zm-1.68-.82a.29.29,0,0,1,0,.1s0,.07-.11.12l-.29.2a.44.44,0,0,1-.16.08s0,0-.08-.07a7.18,7.18,0,0,0-1.3-1.52s0-.05,0-.07,0-.06.1-.11l.29-.19a.13.13,0,0,1,.19,0A7.83,7.83,0,0,1,80.18,220.74Zm3.22-1.67c0,.06,0,.09-.1.09l-1.31,0H80.44l-1.3,0c-.07,0-.11,0-.11-.09l0-1.44v-3.08l0-1.45c0-.07,0-.1.11-.1l1.3,0H82l1.31,0c.07,0,.1,0,.1.1l0,1.45v3.08Zm-.71-4.25v-1.18h-3v1.18Zm0,1.81v-1.22h-3v1.22Zm0,1.9v-1.3h-3v1.3Zm1.49,3.41a.17.17,0,0,1,0,.05s0,.08-.13.13l-.35.22-.16.08s0,0-.07-.06a9.09,9.09,0,0,0-1.32-2.15s0-.05,0-.07,0-.06.12-.11l.31-.17a.28.28,0,0,1,.13-.06s.06,0,.09.07A11.18,11.18,0,0,1,84.18,221.94Z"/><path class="cls-44" d="M66.44,227.54h2.73l.26.59a19.33,19.33,0,0,1-3,3v5.11h-.93V231.8a19.44,19.44,0,0,1-3.64,2l-.49-.69a16.45,16.45,0,0,0,6.65-4.73h-5.9v-.82h3.36v-1.75h.92Zm.81,4,.54-.62a21.09,21.09,0,0,1,2.7,2.12l-.59.78A17.91,17.91,0,0,0,67.25,231.5Z"/><path class="cls-44" d="M70.75,229.1l.77-.34a16.6,16.6,0,0,1,1,2.66l-.79.31A15.5,15.5,0,0,0,70.75,229.1Zm1.34,6.61A6.16,6.16,0,0,0,75.32,233a10.28,10.28,0,0,0,1-4.5l.88.19a11.65,11.65,0,0,1-1.2,4.76,5.79,5.79,0,0,1-1.44,1.7,8.64,8.64,0,0,1-2,1.15Zm.94-7.13.76-.32a16.47,16.47,0,0,1,.88,2.61l-.79.34A12.71,12.71,0,0,0,73,228.58Z"/><path class="cls-44" d="M80.2,230.41v5.79h-.93V226h.93v3.54a18.51,18.51,0,0,1,4.59,1.93l-.46.88A15.13,15.13,0,0,0,80.2,230.41Z"/><path class="cls-44" d="M87,227.52v3.55h-.93V226.7h6.83a18.55,18.55,0,0,1-.66,5.73,5.76,5.76,0,0,1-1.61,2.41,7.18,7.18,0,0,1-2.4,1.41l-.59-.68a5.39,5.39,0,0,0,3.7-3.34,15,15,0,0,0,.6-4.71Z"/><path class="cls-44" d="M94.18,230.71h6.55v.9H94.18Z"/><path class="cls-44" d="M104.84,228a11.35,11.35,0,0,1-2.21,3.51l-.69-.53a10.86,10.86,0,0,0,2.6-5.08l.95.15c-.08.31-.2.7-.35,1.14h4.18a13.1,13.1,0,0,1-2.3,6.41,9.1,9.1,0,0,1-3.81,2.71l-.52-.66a8.34,8.34,0,0,0,3.85-2.89,11.07,11.07,0,0,0,1.7-4.76Z"/><path class="cls-44" d="M217.3,219.9a2.42,2.42,0,0,0-.31.45q-.11.21-.18.21a.53.53,0,0,1-.18-.07,12.4,12.4,0,0,1-3.16-1.92,8.53,8.53,0,0,1-1.91-2.43,11.1,11.1,0,0,1-4.88,4.37.57.57,0,0,1-.2.07s-.1-.07-.18-.2A1.31,1.31,0,0,0,206,220a11.73,11.73,0,0,0,2.77-1.61,9.64,9.64,0,0,0-1.45-1.28s-.06,0-.06-.06,0-.05.07-.1l.3-.27a.22.22,0,0,1,.1-.07l.08,0a10.57,10.57,0,0,1,1.5,1.3,7.87,7.87,0,0,0,1.58-2h-1.8l-1.28,0c-.08,0-.12,0-.12-.1v-.48c0-.07,0-.1.12-.1l1.28,0h1.7l1,0c.08,0,.13,0,.17.13a5,5,0,0,0,.61,1.13,4.93,4.93,0,0,0,.44.58,9.21,9.21,0,0,0,1-1.08,2.27,2.27,0,0,0,.31-.5,3.32,3.32,0,0,1,.62.4.2.2,0,0,1,.09.15.16.16,0,0,1-.11.13,1,1,0,0,0-.39.32c-.35.37-.72.72-1.1,1a7,7,0,0,0,.91.76,11.76,11.76,0,0,0,1.24-1.17,3.08,3.08,0,0,0,.33-.5,4.64,4.64,0,0,1,.61.38.24.24,0,0,1,.09.17s0,.1-.14.14a1.2,1.2,0,0,0-.37.3,14.14,14.14,0,0,1-1.2,1.06A12.1,12.1,0,0,0,217.3,219.9Zm-.43,4.22a4.67,4.67,0,0,1-.23,1,1.12,1.12,0,0,1-.4.46,3.85,3.85,0,0,1-1.73.25,4.24,4.24,0,0,1-1.72-.21.71.71,0,0,1-.33-.36,1.78,1.78,0,0,1-.08-.59v-2.33h-1.91a4.16,4.16,0,0,1-1.19,2.35,6.14,6.14,0,0,1-2.21,1.21.54.54,0,0,1-.19,0s-.12-.06-.2-.18a1.75,1.75,0,0,0-.39-.43,6,6,0,0,0,2.46-1.15,3.42,3.42,0,0,0,1-1.84h-1.14l-1.73,0c-.07,0-.11,0-.11-.1v-.5a.1.1,0,0,1,.11-.1l1.73,0h1.24a12.69,12.69,0,0,0,.07-1.45v-.32h-1c-.06,0-.09,0-.09-.1v-.47c0-.08,0-.11.09-.11l1.52,0h2.32l1.57,0c.06,0,.1,0,.1.11v.47a.09.09,0,0,1-.1.1h-1.13v1.77h1.48l1.73,0a.1.1,0,0,1,.11.1v.5c0,.07,0,.1-.11.1l-1.73,0h-1.48v2.12c0,.3.06.48.17.56a3.13,3.13,0,0,0,1.22.14,2.49,2.49,0,0,0,1.29-.2c.21-.15.34-.62.39-1.39a2.16,2.16,0,0,0,.48.24c.15.05.22.11.22.18A1.05,1.05,0,0,1,216.87,224.12Zm-4.49-2.42v-1.77h-1.75v.32c0,.49,0,1-.06,1.45Z"/><path class="cls-44" d="M221.75,215.14a.26.26,0,0,1-.1.19,1.43,1.43,0,0,0-.24.49c-.25.72-.49,1.32-.71,1.8V224l0,2c0,.07,0,.1-.09.1H220c-.06,0-.08,0-.08-.1l0-2v-3.18c0-.79,0-1.41,0-1.83a12.69,12.69,0,0,1-1.11,1.62c-.08.09-.14.14-.16.14s-.06-.05-.1-.14a1.33,1.33,0,0,0-.31-.48,13.42,13.42,0,0,0,2.41-4.51,3.51,3.51,0,0,0,.16-.85,4.33,4.33,0,0,1,.74.22C221.7,215.05,221.75,215.1,221.75,215.14Zm8,2.75c0,.06,0,.1-.11.1l-1.75,0h-4.41l-1.75,0a.09.09,0,0,1-.1-.1v-.53c0-.07,0-.1.1-.1l1.75,0h4.41l1.75,0c.08,0,.11,0,.11.1Zm-1.18,8a.08.08,0,0,1-.09.09h-.59c-.06,0-.1,0-.1-.09v-.52h-4.5V226c0,.07,0,.1-.1.1h-.57c-.06,0-.09,0-.09-.1l0-1.53v-.93l0-1a.08.08,0,0,1,.09-.09l1.63,0h2.62l1.61,0a.08.08,0,0,1,.09.09l0,.91v1Zm-.27-6.35c0,.06,0,.09-.1.09l-1.51,0h-2.27l-1.53,0c-.07,0-.1,0-.1-.09v-.49c0-.07,0-.1.1-.1l1.53,0h2.27l1.51,0c.07,0,.1,0,.1.1Zm0,1.69c0,.06,0,.09-.1.09l-1.51,0h-2.27l-1.53,0c-.07,0-.1,0-.1-.09v-.49c0-.07,0-.1.1-.1l1.53,0h2.27l1.51,0c.07,0,.1,0,.1.1Zm.12-5.08c0,.06,0,.08-.12.08l-1.52,0h-2.34l-1.54,0c-.07,0-.1,0-.1-.08v-.51c0-.07,0-.1.1-.1l1.54,0h2.34l1.52,0c.08,0,.12,0,.12.1Zm-.63,8.58V223h-4.5v1.73Z"/><path class="cls-44" d="M242.38,223.49q-.12,1.44-.6,1.8a1.7,1.7,0,0,1-.77.33,7.32,7.32,0,0,1-1.08.06,4.22,4.22,0,0,1-1.63-.2.83.83,0,0,1-.44-.4,2,2,0,0,1-.12-.8v-4.54h-2.07a7.61,7.61,0,0,1-.91,4.09,6.19,6.19,0,0,1-2.69,1.95l-.22.06s-.1-.06-.18-.17a2.25,2.25,0,0,0-.42-.48,7,7,0,0,0,2.16-1.08,3.52,3.52,0,0,0,1.12-1.68,9.69,9.69,0,0,0,.34-2.69h-1.74l-1.65,0c-.07,0-.1,0-.1-.1v-.58a.09.09,0,0,1,.1-.1l1.65,0h7.3l1.65,0a.09.09,0,0,1,.1.1v.58a.09.09,0,0,1-.1.1l-1.65,0h-1.88v4.31a1.91,1.91,0,0,0,.06.61.34.34,0,0,0,.23.2,4.37,4.37,0,0,0,1.11.1,3.32,3.32,0,0,0,.83-.07,1,1,0,0,0,.46-.22,3.16,3.16,0,0,0,.39-1.78,2.73,2.73,0,0,0,.56.3c.14.06.2.12.2.18A.68.68,0,0,1,242.38,223.49Zm-1.42-7c0,.07,0,.1-.09.1l-1.78,0h-4.55l-1.77,0c-.07,0-.11,0-.11-.1v-.59a.1.1,0,0,1,.11-.1l1.77,0h4.55l1.78,0c.06,0,.09,0,.09.1Z"/><path class="cls-44" d="M248.79,217a19.75,19.75,0,0,1-1.32,6.58,1.88,1.88,0,0,1-1.69,1.32,1.55,1.55,0,0,1-1.44-.94,5.36,5.36,0,0,1-.47-2.49,6.61,6.61,0,0,1,.4-2.34,4.76,4.76,0,0,1,.93-1.54,4.35,4.35,0,0,1,1.53-1,4.86,4.86,0,0,1,1.76-.33,3.72,3.72,0,0,1,3.18,1.34,5.7,5.7,0,0,1,.86,3.4,4.59,4.59,0,0,1-1,3,5.06,5.06,0,0,1-2.93,1.6l-.43-.76a3.78,3.78,0,0,0,3.42-4.11,4.16,4.16,0,0,0-.92-2.95A2.53,2.53,0,0,0,248.79,217Zm-.94.1a2.73,2.73,0,0,0-1.15.36,4.11,4.11,0,0,0-.95.83,4.71,4.71,0,0,0-1,3.2,4.2,4.2,0,0,0,.36,1.9c.2.36.42.55.67.55a.75.75,0,0,0,.56-.23,2.47,2.47,0,0,0,.4-.68A17.78,17.78,0,0,0,247.85,217.13Z"/><path class="cls-44" d="M253.18,216.12h6.89c0,3-.56,5.21-1.61,6.7a8.67,8.67,0,0,1-4.2,2.91l-.53-.75a7.63,7.63,0,0,0,4.07-2.9A9.49,9.49,0,0,0,259,217h-5.84Z"/><path class="cls-44" d="M261.51,225.13v-8.94H268v8.94Zm5.57-.84V217h-4.61v7.26Z"/><path class="cls-44" d="M269.26,220.08h6.8V221h-6.8Z"/><path class="cls-44" d="M282.08,217a19.75,19.75,0,0,1-1.32,6.58,1.88,1.88,0,0,1-1.69,1.32,1.56,1.56,0,0,1-1.44-.94,5.49,5.49,0,0,1-.47-2.49,6.4,6.4,0,0,1,.41-2.34,4.57,4.57,0,0,1,.92-1.54,4.3,4.3,0,0,1,1.54-1,4.77,4.77,0,0,1,1.75-.33,3.71,3.71,0,0,1,3.18,1.34,5.7,5.7,0,0,1,.86,3.4,4.59,4.59,0,0,1-1,3,5.06,5.06,0,0,1-2.93,1.6l-.43-.76a3.78,3.78,0,0,0,3.42-4.11,4.16,4.16,0,0,0-.92-2.95A2.53,2.53,0,0,0,282.08,217Zm-.94.1a2.73,2.73,0,0,0-1.15.36,4.11,4.11,0,0,0-.95.83,4.71,4.71,0,0,0-1,3.2,4.2,4.2,0,0,0,.36,1.9c.2.36.42.55.67.55a.75.75,0,0,0,.56-.23,2.47,2.47,0,0,0,.4-.68A17.78,17.78,0,0,0,281.14,217.13Z"/><path class="cls-44" d="M298.36,217.81a.1.1,0,0,1-.11.1l-1.62,0h-4.45c0,.69-.08,1.32-.15,1.91h3.15l1.46,0c.08,0,.12,0,.12.1v0l-.07.87a25.8,25.8,0,0,1-.45,3.77,1.75,1.75,0,0,1-.58,1,1.63,1.63,0,0,1-1,.24,11.45,11.45,0,0,1-1.2-.07.38.38,0,0,1-.22-.06.67.67,0,0,1,0-.23,1.37,1.37,0,0,0-.18-.59,9.42,9.42,0,0,0,1.59.15c.42,0,.7-.25.83-.76a21.71,21.71,0,0,0,.42-3.75h-4a7.51,7.51,0,0,1-1.35,3.3,8.16,8.16,0,0,1-2.49,2,.44.44,0,0,1-.19.07s-.11-.06-.19-.2a1.7,1.7,0,0,0-.46-.39,6.81,6.81,0,0,0,3.28-3,10.67,10.67,0,0,0,.82-4.49h-2.2l-1.62,0a.09.09,0,0,1-.1-.1v-.58c0-.07,0-.1.1-.1l1.62,0h3.23v-1a6.17,6.17,0,0,0-.09-1.29,5.9,5.9,0,0,1,.87.07c.09,0,.14.05.14.1a.76.76,0,0,1-.07.24,3.45,3.45,0,0,0-.06.87v1h3.46l1.62,0c.07,0,.11,0,.11.1Z"/><path class="cls-44" d="M310.3,217.24l0,2v5.51a1,1,0,0,1-.3.82,3.18,3.18,0,0,1-1.59.23c-.13,0-.2,0-.22,0a.43.43,0,0,1-.08-.2,1.85,1.85,0,0,0-.25-.55c.44,0,.79,0,1,0a.74.74,0,0,0,.48-.11.41.41,0,0,0,.13-.35v-6.72H301.4v6.08l0,1.84a.09.09,0,0,1-.1.1h-.63a.09.09,0,0,1-.1-.1l0-1.9v-4.7l0-1.94a.09.09,0,0,1,.1-.1l1.76,0h1.3a13.43,13.43,0,0,0,.79-1.55,3.46,3.46,0,0,0,.22-.72,7.15,7.15,0,0,1,.8.2q.12.06.12.15a.19.19,0,0,1-.1.15.72.72,0,0,0-.19.25,16.72,16.72,0,0,1-.79,1.52h3.83l1.75,0C310.27,217.14,310.3,217.18,310.3,217.24Zm-2.73,6.46c0,.07,0,.1-.11.1h-.52c-.07,0-.11,0-.11-.1v-.53h-2.89v.62c0,.07,0,.1-.1.1h-.52c-.07,0-.1,0-.1-.1l0-2v-.94l0-1.26c0-.07,0-.1.09-.1l1.32,0h1.52l1.32,0c.07,0,.1,0,.1.1l0,1.1v1.05Zm-.74-1.2v-2.34h-2.89v2.34Z"/><path class="cls-44" d="M209,240.4h-.89a7.81,7.81,0,0,1-1.89-5.33,8.12,8.12,0,0,1,1.89-5.42h.9a8.23,8.23,0,0,0-1.91,5.41A8.11,8.11,0,0,0,209,240.4Z"/><path class="cls-44" d="M211.09,229.65v2.73h-.88v-2.73Zm2,0v2.73h-.89v-2.73Z"/><path class="cls-44" d="M226,235.28c0,.06,0,.09-.1.09l-1.6,0h-1.38a6.51,6.51,0,0,1-1.3,1.86c.85.29,1.94.73,3.27,1.34q.06,0,.06.06a.3.3,0,0,1-.06.14l-.25.35c-.08.11-.14.16-.16.16l-.06,0a22.33,22.33,0,0,0-3.38-1.53,10.26,10.26,0,0,1-5.17,1.58h-.1a.19.19,0,0,1-.16,0,1,1,0,0,1-.1-.18,1.22,1.22,0,0,0-.3-.42,10.86,10.86,0,0,0,4.95-1.2c-.78-.22-1.51-.39-2.19-.52-.08.1-.17.22-.29.35a.25.25,0,0,1-.17.08h-.11l-.42-.11c-.06,0-.09,0-.09-.08A.5.5,0,0,1,217,237c.18-.19.37-.42.58-.69s.43-.57.69-.94H216.6l-1.6,0c-.07,0-.1,0-.1-.09v-.52c0-.07,0-.1.1-.1l1.6,0h2.1l.16-.27a3.8,3.8,0,0,0,.45-1,3.38,3.38,0,0,1,.76.2c.09,0,.13.08.13.13s0,.11-.12.17a1.74,1.74,0,0,0-.42.54l-.14.23h4.78l1.6,0c.07,0,.1,0,.1.1Zm-.16-6.06c0,.07,0,.1-.1.1l-1.65,0H222v1.23h.85l1.8,0a.08.08,0,0,1,.09.09l0,.92v.86l0,.91c0,.07,0,.1-.09.1l-1.8,0H218l-1.8,0c-.07,0-.1,0-.1-.1l0-.91v-.86l0-.92c0-.06,0-.09.1-.09l1.8,0h.69v-1.23h-1.87l-1.65,0c-.07,0-.11,0-.11-.1v-.53c0-.07,0-.1.11-.1l1.65,0h7.23l1.65,0c.07,0,.1,0,.1.1Zm-7.11,3.55v-1.66h-1.84v1.66Zm3.34,2.58h-3c-.29.45-.52.79-.7,1,.9.18,1.71.38,2.43.59A5.31,5.31,0,0,0,222.07,235.35Zm-.76-4.83v-1.23h-1.88v1.23Zm0,2.25v-1.66h-1.88v1.66Zm2.69,0v-1.66h-2v1.66Z"/><path class="cls-44" d="M238.59,237.61a1.71,1.71,0,0,0-.44.49c-.07.1-.13.15-.16.15a.61.61,0,0,1-.17-.08,10.08,10.08,0,0,1-4.49-5.82c.06,3.17.09,5.07.09,5.71a1,1,0,0,1-.44.94,4,4,0,0,1-1.52.21.44.44,0,0,1-.22,0,1.59,1.59,0,0,1-.08-.21,1.65,1.65,0,0,0-.28-.58c.39,0,.69.05.9.05a1.2,1.2,0,0,0,.69-.13.55.55,0,0,0,.16-.47v-6.57h-3.15l-1.65,0c-.07,0-.1,0-.1-.09v-.56a.09.09,0,0,1,.1-.1l1.65,0h3.15v-.95a8.18,8.18,0,0,0-.09-1.5c.31,0,.59,0,.83.07s.14,0,.14.1a.65.65,0,0,1-.06.26,5.13,5.13,0,0,0-.06,1.05v1h3.21l1.66,0a.1.1,0,0,1,.11.1v.56c0,.06,0,.09-.11.09l-1.66,0h-3.11a11.91,11.91,0,0,0,1.25,2.83,11.48,11.48,0,0,0,1.61-1.67,2,2,0,0,0,.34-.57,3,3,0,0,1,.63.45.22.22,0,0,1,.11.17c0,.05-.05.1-.14.16a2.64,2.64,0,0,0-.58.51,13.71,13.71,0,0,1-1.6,1.52A10.15,10.15,0,0,0,238.59,237.61ZM232,235.28a1.29,1.29,0,0,1,0,.19c0,.05-.06.13-.17.21a27.36,27.36,0,0,1-2.89,1.77,2.36,2.36,0,0,0-.43.27c-.07.07-.12.1-.16.1s-.1,0-.15-.12a6.15,6.15,0,0,1-.34-.68,6.59,6.59,0,0,0,.91-.38,21.38,21.38,0,0,0,3.15-1.87A2.59,2.59,0,0,0,232,235.28Zm-.87-1.6s0,.06,0,.08,0,.06-.08.11l-.33.31q-.12.12-.15.12s0,0-.06-.05a6.4,6.4,0,0,0-1.52-1.71s-.06-.06-.06-.08,0-.06.12-.13l.28-.26a.19.19,0,0,1,.12-.07l.06,0A7.8,7.8,0,0,1,231.08,233.68Zm5.92-4.1s0,0,0,.06,0,.09-.13.15l-.23.22a.48.48,0,0,1-.18.11s0,0-.07-.05a5.85,5.85,0,0,0-1.48-1.25s-.06-.06-.06-.08,0-.06.1-.12l.26-.22c.05,0,.08-.06.1-.06l.09,0A7.78,7.78,0,0,1,237,229.58Z"/><path class="cls-44" d="M241.25,229.65v2.73h-.88v-2.73Zm2,0v2.73h-.88v-2.73Z"/><path class="cls-44" d="M245.4,240.4h-.89a8.11,8.11,0,0,0,1.91-5.34,8.24,8.24,0,0,0-1.92-5.41h.9a8.08,8.08,0,0,1,1.91,5.42A7.78,7.78,0,0,1,245.4,240.4Z"/><path class="cls-44" d="M217.4,265.67a1.23,1.23,0,0,0-.24.58.54.54,0,0,1-.07.22.44.44,0,0,1-.22,0c-1.62.11-3.1.16-4.43.16a7.78,7.78,0,0,1-3.08-.42,2.35,2.35,0,0,1-1.17-1.23,11.94,11.94,0,0,1-1.35,1.23,1.53,1.53,0,0,0-.26.26c-.05.07-.1.11-.14.11a.19.19,0,0,1-.16-.1,5.59,5.59,0,0,1-.36-.68,5.76,5.76,0,0,0,.77-.45,9.27,9.27,0,0,0,1.16-1v-3.11h-.93l-.86,0c-.08,0-.11,0-.11-.12v-.53c0-.07,0-.1.11-.1l.86,0h.68l.9,0a.09.09,0,0,1,.1.1l0,1.17v2.57a2.15,2.15,0,0,0,1.08,1.22,6.9,6.9,0,0,0,2.5.32Q214.69,265.94,217.4,265.67Zm-8.7-7.59a.2.2,0,0,1,0,.08s0,.07-.11.12l-.3.24a.27.27,0,0,1-.15.08s0,0-.09-.06a13.36,13.36,0,0,0-1.57-1.87.15.15,0,0,1,0-.08s0-.06.11-.12l.29-.21a.33.33,0,0,1,.13-.08s0,0,.08.05A13.23,13.23,0,0,1,208.7,258.08Zm8.5,6.29a1.59,1.59,0,0,0-.33.51c-.06.13-.11.2-.16.2l-.17-.06a11.12,11.12,0,0,1-2.76-1.74,9,9,0,0,1-2.57,1.76.41.41,0,0,1-.17.06s-.11-.05-.19-.16a1.3,1.3,0,0,0-.4-.38,9,9,0,0,0,2.83-1.79,7.56,7.56,0,0,1-1.68-3h-.53a16.59,16.59,0,0,1-.15,2,7,7,0,0,1-1.15,3.11c-.06.11-.1.16-.14.16s-.08-.05-.15-.14a2.46,2.46,0,0,0-.44-.34,6.43,6.43,0,0,0,1.19-3.06,26,26,0,0,0,.14-3.17l0-1.72c0-.07,0-.11.1-.11l1.67,0h3l1.65,0c.06,0,.09,0,.09.1v.55a.08.08,0,0,1-.09.09l-1.65,0h-4v1.91h4.11a.54.54,0,0,0,.25,0l.13,0c.08,0,.2.09.37.25s.21.26.21.33,0,.09-.1.14a1.46,1.46,0,0,0-.25.43,10.24,10.24,0,0,1-1.52,2.6A9.36,9.36,0,0,0,217.2,264.37Zm-2-4.65h-2.92a6.82,6.82,0,0,0,1.51,2.52A9,9,0,0,0,215.18,259.72Z"/><path class="cls-44" d="M221.65,256a.26.26,0,0,1-.09.18,1.54,1.54,0,0,0-.24.49q-.39,1.08-.72,1.8v6.4l0,2c0,.06,0,.09-.1.09h-.6a.08.08,0,0,1-.09-.09l0-2v-3.17c0-.8,0-1.41,0-1.84a14.2,14.2,0,0,1-1.11,1.62c-.08.1-.14.14-.17.14s-.06,0-.1-.14a1.21,1.21,0,0,0-.31-.48,13.46,13.46,0,0,0,2.41-4.5,3.65,3.65,0,0,0,.17-.85,4.23,4.23,0,0,1,.73.21C221.6,255.92,221.65,256,221.65,256Zm8,2.74c0,.07,0,.1-.11.1l-1.75,0h-4.42l-1.75,0a.09.09,0,0,1-.1-.1v-.53a.09.09,0,0,1,.1-.1l1.75,0h4.42l1.75,0a.1.1,0,0,1,.11.1Zm-1.19,8c0,.06,0,.09-.08.09h-.59c-.07,0-.1,0-.1-.09v-.52H223.2v.56c0,.07,0,.1-.09.1h-.57c-.07,0-.1,0-.1-.1l0-1.53v-.93l0-1c0-.05,0-.08.1-.08l1.63,0h2.61l1.62,0c.06,0,.08,0,.08.08l0,.91v1Zm-.26-6.35a.09.09,0,0,1-.1.1l-1.52,0h-2.27l-1.52,0c-.07,0-.11,0-.11-.1v-.49a.1.1,0,0,1,.11-.1l1.52,0h2.27l1.52,0a.09.09,0,0,1,.1.1Zm0,1.69a.09.09,0,0,1-.1.1l-1.52,0h-2.27l-1.52,0c-.07,0-.11,0-.11-.1v-.49a.1.1,0,0,1,.11-.1l1.52,0h2.27l1.52,0a.09.09,0,0,1,.1.1Zm.11-5.08c0,.06,0,.09-.11.09l-1.52,0h-2.34l-1.54,0c-.07,0-.1,0-.1-.09v-.51a.09.09,0,0,1,.1-.1l1.54,0h2.34l1.52,0a.1.1,0,0,1,.11.1Zm-.62,8.58V263.9H223.2v1.72Z"/><path class="cls-44" d="M241.42,256.5l0,2V264l0,1.67a1,1,0,0,1-.37.87,3.09,3.09,0,0,1-1.55.25.51.51,0,0,1-.24,0,.61.61,0,0,1-.07-.21A1.54,1.54,0,0,0,239,266c.38,0,.79,0,1.24,0s.44-.17.44-.5v-2.64h-3.5v1.49l0,2.07a.1.1,0,0,1-.11.11h-.59c-.07,0-.1,0-.1-.11l0-2.07v-1.49H233a8.41,8.41,0,0,1-.49,2.29,6.89,6.89,0,0,1-.78,1.44q-.12.15-.15.15s-.09,0-.18-.13a2.47,2.47,0,0,0-.52-.31,6,6,0,0,0,1.15-2.36,16.43,16.43,0,0,0,.31-3.63v-1.87l0-2c0-.07,0-.1.1-.1l1.77,0h5.31l1.79,0A.09.09,0,0,1,241.42,256.5Zm-5,5.71V260h-3.24v.33c0,.55,0,1.17-.06,1.88Zm0-2.89v-2.21h-3.24v2.21Zm4.25,0v-2.21h-3.5v2.21Zm0,2.89V260h-3.5v2.21Z"/><path class="cls-44" d="M248.7,257.9a20,20,0,0,1-1.33,6.57,1.88,1.88,0,0,1-1.69,1.33,1.56,1.56,0,0,1-1.43-.95,5.29,5.29,0,0,1-.48-2.49,6.61,6.61,0,0,1,.41-2.34,4.53,4.53,0,0,1,.93-1.54,4.15,4.15,0,0,1,1.53-1,4.82,4.82,0,0,1,1.76-.33,3.69,3.69,0,0,1,3.17,1.33,5.73,5.73,0,0,1,.86,3.4,4.56,4.56,0,0,1-1,3,5,5,0,0,1-2.92,1.59l-.44-.75a3.79,3.79,0,0,0,3.43-4.12,4.16,4.16,0,0,0-.92-2.94A2.51,2.51,0,0,0,248.7,257.9Zm-.94.09a3.09,3.09,0,0,0-1.16.36,4.09,4.09,0,0,0-.94.83,4.68,4.68,0,0,0-1,3.2,4,4,0,0,0,.37,1.9c.19.37.42.55.67.55a.73.73,0,0,0,.55-.23,2.24,2.24,0,0,0,.4-.68A17.75,17.75,0,0,0,247.76,258Z"/><path class="cls-44" d="M253.09,257H260c0,3-.56,5.22-1.61,6.7a8.52,8.52,0,0,1-4.2,2.92l-.52-.76a7.55,7.55,0,0,0,4.06-2.9,9.34,9.34,0,0,0,1.22-5.12h-5.83Z"/><path class="cls-44" d="M261.42,266v-8.95h6.52V266Zm5.56-.85V257.9h-4.61v7.25Z"/><path class="cls-44" d="M269.16,260.94H276v.93h-6.8Z"/><path class="cls-44" d="M282,257.9a19.71,19.71,0,0,1-1.33,6.57A1.88,1.88,0,0,1,279,265.8a1.56,1.56,0,0,1-1.43-.95,5.29,5.29,0,0,1-.48-2.49,6.61,6.61,0,0,1,.41-2.34,4.53,4.53,0,0,1,.93-1.54,4.15,4.15,0,0,1,1.53-1,4.86,4.86,0,0,1,1.76-.33,3.69,3.69,0,0,1,3.17,1.33,5.65,5.65,0,0,1,.86,3.4,4.56,4.56,0,0,1-1,3,5,5,0,0,1-2.92,1.59l-.44-.75a3.79,3.79,0,0,0,3.43-4.12,4.16,4.16,0,0,0-.92-2.94A2.51,2.51,0,0,0,282,257.9Zm-.94.09a3.09,3.09,0,0,0-1.16.36,4.09,4.09,0,0,0-.94.83,4.68,4.68,0,0,0-1,3.2,4,4,0,0,0,.37,1.9c.19.37.42.55.67.55a.77.77,0,0,0,.56-.23,2.25,2.25,0,0,0,.39-.68A17.75,17.75,0,0,0,281.05,258Z"/><path class="cls-44" d="M298.26,258.67c0,.07,0,.1-.1.1l-1.63,0h-4.45a18.29,18.29,0,0,1-.15,1.91h3.15l1.47,0a.1.1,0,0,1,.11.11v0l-.07.87a25,25,0,0,1-.44,3.78,1.77,1.77,0,0,1-.58,1,1.65,1.65,0,0,1-1,.24,11.16,11.16,0,0,1-1.2-.07c-.13,0-.2,0-.22-.06a.79.79,0,0,1-.05-.23,1.21,1.21,0,0,0-.17-.58,9.23,9.23,0,0,0,1.58.14c.43,0,.7-.25.83-.76a21.71,21.71,0,0,0,.42-3.75h-4a7.52,7.52,0,0,1-1.34,3.3,8.12,8.12,0,0,1-2.49,2,.51.51,0,0,1-.19.08c-.05,0-.11-.07-.2-.2a1.39,1.39,0,0,0-.45-.4,6.8,6.8,0,0,0,3.28-3,10.81,10.81,0,0,0,.82-4.48h-2.2l-1.63,0c-.06,0-.09,0-.09-.1v-.58c0-.06,0-.1.09-.1l1.63,0h3.23v-1a5.8,5.8,0,0,0-.1-1.28,5.75,5.75,0,0,1,.87.06c.1,0,.15,0,.15.1a.9.9,0,0,1-.08.24,3.57,3.57,0,0,0-.06.87v1h3.46l1.63,0a.09.09,0,0,1,.1.1Z"/><path class="cls-44" d="M310.21,258.1l0,2v5.51a1.09,1.09,0,0,1-.29.83,3.28,3.28,0,0,1-1.59.22.47.47,0,0,1-.23,0,.67.67,0,0,1-.07-.2,1.74,1.74,0,0,0-.25-.55c.44,0,.78,0,1,0a.82.82,0,0,0,.48-.1.45.45,0,0,0,.13-.35v-6.73h-8.09v6.09l0,1.83c0,.07,0,.11-.09.11h-.63c-.07,0-.1,0-.1-.11l0-1.89v-4.7l0-1.95c0-.06,0-.09.1-.09l1.76,0h1.3c.32-.56.58-1.08.79-1.55a3.22,3.22,0,0,0,.21-.71,5.16,5.16,0,0,1,.8.2c.08,0,.12.08.12.14a.21.21,0,0,1-.09.16.58.58,0,0,0-.19.25c-.25.53-.51,1-.79,1.51h3.83l1.75,0C310.17,258,310.21,258,310.21,258.1Zm-2.74,6.47a.09.09,0,0,1-.1.1h-.53a.1.1,0,0,1-.11-.1V264h-2.88v.62a.1.1,0,0,1-.1.11h-.53a.1.1,0,0,1-.1-.11l0-2v-.94l0-1.26c0-.07,0-.1.1-.1l1.32,0h1.52l1.32,0c.06,0,.09,0,.09.1l0,1.1v1.05Zm-.74-1.2V261h-2.88v2.35Z"/><path class="cls-44" d="M208.9,281.26H208a7.81,7.81,0,0,1-1.89-5.33,8.09,8.09,0,0,1,1.89-5.41h.91a8.19,8.19,0,0,0-1.92,5.4A8.08,8.08,0,0,0,208.9,281.26Z"/><path class="cls-44" d="M211,270.52v2.73h-.89v-2.73Zm2,0v2.73h-.88v-2.73Z"/><path class="cls-44" d="M226.25,278.87a1.27,1.27,0,0,0-.24.58.39.39,0,0,1-.08.22.43.43,0,0,1-.21.05q-2.43.15-4.44.15a7.75,7.75,0,0,1-3.07-.42,2.35,2.35,0,0,1-1.17-1.23,11.94,11.94,0,0,1-1.35,1.23,1.22,1.22,0,0,0-.26.26c-.05.07-.1.11-.15.11a.19.19,0,0,1-.15-.1,5.59,5.59,0,0,1-.36-.68,4.35,4.35,0,0,0,.76-.45,8,8,0,0,0,1.16-1v-3.11h-.92l-.86,0a.11.11,0,0,1-.12-.12v-.53c0-.07,0-.1.12-.1l.86,0h.67l.91,0c.06,0,.09,0,.09.1l0,1.17v2.57a2.17,2.17,0,0,0,1.07,1.22,7,7,0,0,0,2.51.32Q223.52,279.14,226.25,278.87Zm-8.7-7.59a.2.2,0,0,1,0,.08s0,.07-.11.12l-.3.24a.27.27,0,0,1-.15.08.12.12,0,0,1-.09-.06,13.36,13.36,0,0,0-1.57-1.87.1.1,0,0,1-.05-.08s0-.06.11-.12l.29-.21c.06,0,.1-.08.13-.08l.08.05A13.91,13.91,0,0,1,217.55,271.28Zm8.49,6.29a1.55,1.55,0,0,0-.32.51c-.06.13-.11.2-.16.2l-.18-.06a11.23,11.23,0,0,1-2.75-1.74,9.17,9.17,0,0,1-2.57,1.76.46.46,0,0,1-.17.06s-.11-.05-.19-.16a1.3,1.3,0,0,0-.4-.38,9,9,0,0,0,2.83-1.79,7.56,7.56,0,0,1-1.68-3.05h-.53c0,.79-.08,1.46-.15,2a7.11,7.11,0,0,1-1.15,3.11c-.06.11-.11.16-.14.16s-.08-.05-.16-.14a1.91,1.91,0,0,0-.44-.34,6.33,6.33,0,0,0,1.19-3.06,23.65,23.65,0,0,0,.15-3.17l0-1.72c0-.07,0-.11.09-.11l1.68,0h3l1.64,0a.09.09,0,0,1,.1.1v.55c0,.06,0,.09-.1.09l-1.64,0h-4.06v1.91h4.12a.54.54,0,0,0,.25,0l.13-.05c.08,0,.2.09.36.25s.22.26.22.33,0,.09-.1.14a1.26,1.26,0,0,0-.25.43,10,10,0,0,1-1.53,2.6A9.6,9.6,0,0,0,226,277.57Zm-2-4.65h-2.91a6.68,6.68,0,0,0,1.51,2.52A8.73,8.73,0,0,0,224,272.92Z"/><path class="cls-44" d="M230.5,269.21a.24.24,0,0,1-.1.18,1.59,1.59,0,0,0-.23.49q-.39,1.08-.72,1.8v6.4l0,2c0,.06,0,.09-.1.09h-.61c-.05,0-.08,0-.08-.09l0-2v-3.17c0-.8,0-1.41,0-1.84a14.2,14.2,0,0,1-1.11,1.62c-.09.1-.14.14-.17.14s-.06,0-.1-.14a1.28,1.28,0,0,0-.31-.48,13.46,13.46,0,0,0,2.41-4.5,3.65,3.65,0,0,0,.17-.85,4.51,4.51,0,0,1,.73.21C230.45,269.12,230.5,269.16,230.5,269.21Zm8,2.74c0,.07,0,.1-.11.1l-1.76,0h-4.41l-1.75,0c-.07,0-.1,0-.1-.1v-.53a.09.09,0,0,1,.1-.1l1.75,0h4.41l1.76,0a.1.1,0,0,1,.11.1Zm-1.19,8c0,.06,0,.09-.08.09h-.6a.08.08,0,0,1-.09-.09v-.52h-4.51V280c0,.07,0,.1-.09.1h-.57c-.07,0-.1,0-.1-.1l0-1.53v-.93l0-1s0-.08.1-.08l1.63,0h2.61l1.62,0a.07.07,0,0,1,.08.08l0,.91v1Zm-.27-6.35c0,.07,0,.1-.09.1l-1.52,0h-2.27l-1.52,0c-.07,0-.11,0-.11-.1v-.49a.1.1,0,0,1,.11-.1l1.52,0h2.27l1.52,0c.06,0,.09,0,.09.1Zm0,1.69c0,.07,0,.1-.09.1l-1.52,0h-2.27l-1.52,0c-.07,0-.11,0-.11-.1v-.49a.1.1,0,0,1,.11-.1l1.52,0h2.27l1.52,0c.06,0,.09,0,.09.1Zm.12-5.08q0,.09-.12.09l-1.52,0h-2.33l-1.54,0c-.07,0-.11,0-.11-.09v-.51a.1.1,0,0,1,.11-.1l1.54,0h2.33l1.52,0c.08,0,.12,0,.12.1Zm-.62,8.58V277.1h-4.51v1.72Z"/><path class="cls-44" d="M241.16,270.52v2.73h-.88v-2.73Zm2,0v2.73h-.89v-2.73Z"/><path class="cls-44" d="M245.31,281.26h-.89a8.07,8.07,0,0,0,1.9-5.34,8.19,8.19,0,0,0-1.92-5.4h.91a8,8,0,0,1,1.9,5.41A7.77,7.77,0,0,1,245.31,281.26Z"/><path class="cls-44" d="M76.63,125.83H72.16v-8.71h1v7.78h3.46Z"/><path class="cls-44" d="M77.91,125.83v-8.71h2.45a2.66,2.66,0,0,1,1.77.55,1.81,1.81,0,0,1,.65,1.44,2.13,2.13,0,0,1-.4,1.29,2.15,2.15,0,0,1-1.09.78v0a2.2,2.2,0,0,1,1.39.66,2.08,2.08,0,0,1,.53,1.46,2.28,2.28,0,0,1-.8,1.81,2.86,2.86,0,0,1-2,.7Zm1-7.79v2.81h1a1.94,1.94,0,0,0,1.3-.4,1.4,1.4,0,0,0,.47-1.14c0-.85-.55-1.27-1.65-1.27Zm0,3.73v3.13h1.36a2.05,2.05,0,0,0,1.38-.42,1.45,1.45,0,0,0,.49-1.17c0-1-.69-1.54-2.08-1.54Z"/><path class="cls-44" d="M94.08,117.62a12,12,0,0,1-1.2,5.26,7.81,7.81,0,0,1-4.49,3.47l-.51-.75a7.46,7.46,0,0,0,4-2.88,9.39,9.39,0,0,0,1.2-5.1H87.34v-.84h5.88a1.18,1.18,0,0,1-.08-.48,1.33,1.33,0,0,1,.45-1,1.37,1.37,0,0,1,1.94.09,1.36,1.36,0,0,1,.35.94,1.37,1.37,0,0,1-.45,1,1.32,1.32,0,0,1-.92.36A1.22,1.22,0,0,1,94.08,117.62Zm.43-2.18a.85.85,0,0,0-.64.28.86.86,0,0,0-.21.58.85.85,0,0,0,.28.64.8.8,0,0,0,.57.22.81.81,0,0,0,.64-.28.89.89,0,0,0-.07-1.22A.8.8,0,0,0,94.51,115.44Z"/><path class="cls-44" d="M96.5,120.73h6.68v.92H96.5Z"/><path class="cls-44" d="M106.74,116.36q0,3.54-.12,5.1a9.47,9.47,0,0,1-.35,2.09,5.81,5.81,0,0,1-1.79,2.68l-.71-.57a4.65,4.65,0,0,0,1.67-2.47,12.07,12.07,0,0,0,.3-2.56c0-.91.06-2.34.06-4.27Zm2.62,8.43a9.3,9.3,0,0,0,3.19-4.27l.63.83a11.31,11.31,0,0,1-4.23,4.88l-.53-.28v-9.68h.94Z"/></g></svg>