<svg xmlns="http://www.w3.org/2000/svg" xmlns:xlink="http://www.w3.org/1999/xlink" viewBox="0 0 171.02 202.65"><defs><style>.cls-1{fill:#fff;}.cls-2,.cls-3,.cls-4{fill:#3c3c41;}.cls-2{opacity:0.05;}.cls-2,.cls-4{isolation:isolate;}.cls-4{opacity:0.2;}.cls-5{fill:url(#Degradado_sin_nombre);}.cls-6{fill:#767676;}.cls-7{fill:#f2f2f2;}.cls-8{fill:url(#Degradado_sin_nombre_2);}.cls-9{fill:url(#Degradado_sin_nombre_3);}.cls-10{fill:url(#Degradado_sin_nombre_4);}.cls-11{fill:none;stroke:#3c3c41;stroke-miterlimit:10;}.cls-12{fill:url(#Degradado_sin_nombre_5);}.cls-13{fill:url(#Degradado_sin_nombre_6);}.cls-14{fill:url(#Degradado_sin_nombre_7);}.cls-15{fill:#50e6ff;}.cls-16{fill:#1490df;}.cls-17{fill:#6ebcdb;}.cls-18{fill:#5db4d7;}.cls-19{fill:#e6e6e6;}.cls-20{fill:#86d633;}.cls-21{fill:#1e1e1e;}</style><linearGradient id="Degradado_sin_nombre" x1="83.55" y1="-2014.2" x2="83.55" y2="-2001.41" gradientTransform="matrix(1, 0, 0, -1, 0, -1978.98)" gradientUnits="userSpaceOnUse"><stop offset="0" stop-color="#32bedd"/><stop offset="0.18" stop-color="#32caea"/><stop offset="0.41" stop-color="#32d2f2"/><stop offset="0.78" stop-color="#32d4f5"/></linearGradient><linearGradient id="Degradado_sin_nombre_2" x1="92.01" y1="-2020.48" x2="92.01" y2="-2007.69" xlink:href="#Degradado_sin_nombre"/><linearGradient id="Degradado_sin_nombre_3" x1="100.46" y1="-2026.76" x2="100.46" y2="-2013.96" xlink:href="#Degradado_sin_nombre"/><linearGradient id="Degradado_sin_nombre_4" x1="22.57" y1="299.48" x2="22.57" y2="278.9" gradientTransform="translate(0 -252.68)" xlink:href="#Degradado_sin_nombre"/><linearGradient id="Degradado_sin_nombre_5" x1="38.26" y1="428.03" x2="40.63" y2="430.4" gradientTransform="translate(2.9 -253.22)" gradientUnits="userSpaceOnUse"><stop offset="0" stop-color="#86d633"/><stop offset="0.24" stop-color="#83d232"/><stop offset="0.5" stop-color="#7cc52f"/><stop offset="0.76" stop-color="#6fb02a"/><stop offset="1" stop-color="#5e9624"/></linearGradient><linearGradient id="Degradado_sin_nombre_6" x1="32.91" y1="428.03" x2="35.27" y2="430.4" xlink:href="#Degradado_sin_nombre_5"/><linearGradient id="Degradado_sin_nombre_7" x1="27.56" y1="428.03" x2="29.92" y2="430.4" xlink:href="#Degradado_sin_nombre_5"/></defs><title>OJ104903208</title><g id="Target"><g id="Shapes"><rect class="cls-1" width="170.48" height="202.65"/><rect class="cls-1" x="15.52" y="120.49" width="155" height="55" rx="5"/><rect class="cls-2" x="15.52" y="120.49" width="155" height="55" rx="5"/><path class="cls-3" d="M164.37,176h-1v-1h1Zm-3,0h-1v-1h1Zm-3,0h-1v-1h1Zm-3,0h-1v-1h1Zm-3,0h-1v-1h1Zm-3,0h-1v-1h1Zm-3,0h-1v-1h1Zm-3,0h-1v-1h1Zm-3,0h-1v-1h1Zm-3,0h-1v-1h1Zm-3,0h-1v-1h1Zm-3,0h-1v-1h1Zm-3,0h-1v-1h1Zm-3,0h-1v-1h1Zm-3,0h-1v-1h1Zm-3,0h-1v-1h1Zm-3,0h-1v-1h1Zm-3,0h-1v-1h1Zm-3,0h-1v-1h1Zm-3,0h-1v-1h1Zm-3,0h-1v-1h1Zm-3,0h-1v-1h1Zm-3,0h-1v-1h1Zm-3,0h-1v-1h1Zm-3,0h-1v-1h1Zm-3,0h-1v-1h1Zm-3,0h-1v-1h1Zm-3,0h-1v-1h1Zm-3,0h-1v-1h1Zm-3,0h-1v-1h1Zm-3,0h-1v-1h1Zm-3,0h-1v-1h1Zm-3,0h-1v-1h1Zm-3,0h-1v-1h1Zm-3,0h-1v-1h1Zm-3,0h-1v-1h1Zm-3,0h-1v-1h1Zm-3,0h-1v-1h1Zm-33,0a5.75,5.75,0,0,1-1.09-.17l.26-1a3.76,3.76,0,0,0,.88.14Zm146.23-.07-.17-1a5.11,5.11,0,0,0,.87-.25l.36.94a5.19,5.19,0,0,1-1.16.29ZM17.17,174.84a5.16,5.16,0,0,1-.8-.75l.76-.66a4.77,4.77,0,0,0,.65.62Zm152.18-.41-.7-.71a4.24,4.24,0,0,0,.58-.69l.83.57a5.65,5.65,0,0,1-.71.83ZM15.29,172.19a5.61,5.61,0,0,1-.23-1.08l1-.11a5.31,5.31,0,0,0,.19.88Zm155.62-.61-1-.2a4.41,4.41,0,0,0,.09-.89l1-.06v.06a5,5,0,0,1-.09,1.09ZM16,169.06H15v-1h1Zm155-.63h-1v-1h1ZM16,166.05H15v-1h1Zm155-.62h-1v-1h1ZM16,163.05H15v-1h1Zm155-.63h-1v-1h1ZM16,160.05H15v-1h1Zm155-.63h-1v-1h1ZM16,157.05H15v-1h1Zm155-.63h-1v-1h1ZM16,154H15v-1h1Zm155-.62h-1v-1h1ZM16,151H15v-1h1Zm155-.63h-1v-1h1ZM16,148H15v-1h1Zm155-.63h-1v-1h1ZM16,145H15v-1h1Zm155-.63h-1v-1h1ZM16,142H15v-1h1Zm155-.62h-1v-1h1ZM16,139H15v-1h1Zm155-.63h-1v-1h1ZM16,136H15v-1h1Zm155-.63h-1v-1h1ZM16,133H15v-1h1Zm155-.63h-1v-1h1ZM16,130H15v-1h1Zm155-.62h-1v-1h1ZM16,127H15v-1h1Zm155-.63h-1v-.9l1-.11Zm-154.8-2.2-1-.3a5.2,5.2,0,0,1,.43-1l.88.48a4.17,4.17,0,0,0-.29.84Zm153.41-.53a3.77,3.77,0,0,0-.45-.78l.82-.58a4.83,4.83,0,0,1,.54,1ZM17.71,122l-.62-.78a5.2,5.2,0,0,1,.92-.6l.46.89A4.69,4.69,0,0,0,17.71,122Zm150.16-.32a4.6,4.6,0,0,0-.8-.4l.34-.93a4.6,4.6,0,0,1,1,.48ZM20.19,121l-.08-1h1v1h-1Zm145.08,0h-1v-1h1Zm-3,0h-1v-1h1Zm-3,0h-1v-1h1Zm-3,0h-1v-1h1Zm-3,0h-1v-1h1Zm-3,0h-1v-1h1Zm-3,0h-1v-1h1Zm-3,0h-1v-1h1Zm-3,0h-1v-1h1Zm-3,0h-1v-1h1Zm-3,0h-1v-1h1Zm-3,0h-1v-1h1Zm-3,0h-1v-1h1Zm-3,0h-1v-1h1Zm-3,0h-1v-1h1Zm-3,0h-1v-1h1Zm-3,0h-1v-1h1Zm-3,0h-1v-1h1Zm-3,0h-1v-1h1Zm-3,0h-1v-1h1Zm-3,0h-1v-1h1Zm-3,0h-1v-1h1Zm-3,0h-1v-1h1Zm-3,0h-1v-1h1Zm-3,0h-1v-1h1Zm-3,0h-1v-1h1Zm-3,0h-1v-1h1Zm-3,0h-1v-1h1Zm-3,0h-1v-1h1Zm-3,0h-1v-1h1Zm-3,0h-1v-1h1Zm-3,0h-1v-1h1Zm-3,0h-1v-1h1Zm-3,0h-1v-1h1Zm-3,0h-1v-1h1Zm-3,0h-1v-1h1Zm-3,0h-1v-1h1Zm-3,0h-1v-1h1Zm-3,0h-1v-1h1Zm-3,0h-1v-1h1Zm-3,0h-1v-1h1Zm-3,0h-1v-1h1Zm-3,0h-1v-1h1Zm-3,0h-1v-1h1Zm-3,0h-1v-1h1Zm-3,0h-1v-1h1Zm-3,0h-1v-1h1Zm-3,0h-1v-1h1Z"/><rect class="cls-1" x="25.22" y="130.51" width="65.69" height="30" rx="0.3"/><rect class="cls-4" x="25.22" y="130.51" width="65.69" height="30" rx="0.3"/><rect class="cls-1" x="95.59" y="130.51" width="65.69" height="30" rx="0.3"/><rect class="cls-4" x="95.59" y="130.51" width="65.69" height="30" rx="0.3"/><path class="cls-5" d="M72.72,22.43H94.39V34.52a.73.73,0,0,1-.73.72H73.45a.73.73,0,0,1-.73-.72h0Z"/><path class="cls-6" d="M73.45,17.8H93.66a.73.73,0,0,1,.73.73h0v3.9H72.72v-3.9A.73.73,0,0,1,73.45,17.8Z"/><rect class="cls-7" x="75.64" y="19.19" width="15.84" height="1.86" rx="0.36"/><path class="cls-8" d="M81.17,28.69h21.68V40.77a.73.73,0,0,1-.73.73H81.89a.72.72,0,0,1-.72-.72h0Z"/><path class="cls-6" d="M81.89,24.08H102.1a.73.73,0,0,1,.73.73h0v3.88H81.19V24.81A.72.72,0,0,1,81.89,24.08Z"/><rect class="cls-7" x="84.08" y="25.47" width="15.84" height="1.86" rx="0.36"/><path class="cls-9" d="M89.63,35h21.66V47.07a.72.72,0,0,1-.71.73H90.36a.73.73,0,0,1-.73-.73h0Z"/><path class="cls-6" d="M90.36,30.36h20.21a.72.72,0,0,1,.72.72h0V35H89.63V31.1a.73.73,0,0,1,.72-.74Z"/><circle class="cls-7" cx="105.34" cy="40.6" r="1.76"/><circle class="cls-7" cx="100.54" cy="40.6" r="1.76"/><circle class="cls-7" cx="95.59" cy="40.6" r="1.76"/><rect class="cls-7" x="92.54" y="31.75" width="15.84" height="1.86" rx="0.36"/><path class="cls-10" d="M5.14,26.22H40V45.63a1.17,1.17,0,0,1-1.17,1.17H6.31a1.17,1.17,0,0,1-1.17-1.17Z"/><path class="cls-6" d="M6.31,18.8H38.79A1.17,1.17,0,0,1,40,19.93v6.32H5.14V20a1.17,1.17,0,0,1,1.14-1.2Z"/><circle class="cls-7" cx="30.38" cy="35.23" r="2.83"/><circle class="cls-7" cx="22.67" cy="35.23" r="2.83"/><circle class="cls-7" cx="14.73" cy="35.23" r="2.83"/><rect class="cls-7" x="9.83" y="21.01" width="25.46" height="2.99" rx="0.57"/><line class="cls-11" x1="58.09" y1="130.51" x2="58.09" y2="107.89"/><polygon class="cls-3" points="61.83 108.99 58.09 102.51 54.35 108.99 61.83 108.99"/><path class="cls-11" d="M45.59,75.61H24.33a5,5,0,0,1-5-5V55.29"/><polygon class="cls-3" points="23.07 56.39 19.33 49.91 15.59 56.39 23.07 56.39"/><path class="cls-11" d="M97.34,55.29V70.61a5,5,0,0,1-5,5H69"/><polygon class="cls-3" points="93.6 56.39 97.34 49.91 101.08 56.39 93.6 56.39"/><circle class="cls-12" cx="42.11" cy="175.76" r="1.67"/><circle class="cls-13" cx="36.77" cy="175.78" r="1.67"/><circle class="cls-14" cx="31.43" cy="175.78" r="1.67"/><path class="cls-15" d="M32.64,182.47l-.95,1a.44.44,0,0,1-.62,0h0L24,176.36a.87.87,0,0,1,0-1.23h0l.95-1h0l7.71,7.69a.43.43,0,0,1,0,.61h0Z"/><path class="cls-16" d="M31.54,168.14l1,1a.44.44,0,0,1,0,.62L25,177.35h0l-1-1a.89.89,0,0,1,0-1.23h0l7-7A.43.43,0,0,1,31.54,168.14Z"/><path class="cls-15" d="M48.49,174.16l1,1a.87.87,0,0,1,0,1.23h0l-7.1,7.07a.43.43,0,0,1-.61,0h0l-1-1a.43.43,0,0,1,0-.61h0Z"/><path class="cls-16" d="M49.45,176.34l-1,.95h0l-7.58-7.59a.44.44,0,0,1,0-.62h0l1-1a.43.43,0,0,1,.61,0h0l7,7a.87.87,0,0,1,0,1.23h0Z"/><g id="ad94e297-0e86-4eaf-aac0-d146ee9aea65"><path class="cls-17" d="M54,92.24,49.31,87.4a2.56,2.56,0,0,1-.78.14,2.43,2.43,0,1,1,2.24-3.33h4.62v1.62H50.84a2.94,2.94,0,0,1-.26.57l4.33,4.46,2.34-3.57V76.11H54.1l4-4,3.94,4H58.87v8.74l5.93-9-6-6a1,1,0,0,0-1.41,0s0,0,0,0h0L42.88,84.28a1,1,0,0,0-.05,1.41l.05,0h0l14.48,14.47L52.19,95Z"/><path class="cls-18" d="M57.25,92.45V87.28l-2.34,3.58,1.72,1.84A1.76,1.76,0,0,1,57.25,92.45Z"/><path class="cls-18" d="M73.28,84.28,64.8,75.8l-5.93,9v7.61a1.91,1.91,0,0,1,.54.3l6.22-6.29a2.53,2.53,0,0,1-.31-.64H60.65V84.21h4.73a2.42,2.42,0,1,1,2.24,3.33,3,3,0,0,1-.67-.11L60.34,94.1a2.59,2.59,0,0,1,.1.62,2.43,2.43,0,1,1-4.84.44,2.18,2.18,0,0,1,0-.25,2.29,2.29,0,0,1,.13-.9L54,92.29l-1.85,2.76,5.17,5.17a1,1,0,0,0,1.41,0l0,0L73.24,85.74a1,1,0,0,0,.05-1.41s0,0-.05,0Z"/><path class="cls-19" d="M65.38,84.21H60.65v1.62h4.67a2.22,2.22,0,0,1-.12-.72A2.3,2.3,0,0,1,65.38,84.21Z"/><path class="cls-19" d="M50.84,85.83h4.55V84.21H50.77a2.14,2.14,0,0,1,.19.9A2.22,2.22,0,0,1,50.84,85.83Z"/><path class="cls-19" d="M60.34,94.1,67,87.43a2.44,2.44,0,0,1-1.32-1l-6.22,6.29A2.31,2.31,0,0,1,60.34,94.1Z"/><path class="cls-19" d="M56.68,92.7,55,90.86,50.58,86.4a2.42,2.42,0,0,1-1.27,1L54,92.24,55.72,94A2.41,2.41,0,0,1,56.68,92.7Z"/><path class="cls-1" d="M62,76.11l-3.93-4-4,4h3.15V92.45a1.71,1.71,0,0,0-.57.25,2.41,2.41,0,1,0,3.62,2.71,2.68,2.68,0,0,0,.1-.69,2.59,2.59,0,0,0-.1-.62,2.32,2.32,0,0,0-.93-1.34,1.91,1.91,0,0,0-.54-.3V76.11Zm-3.93,20a1.34,1.34,0,1,1,1.34-1.34h0a1.33,1.33,0,0,1-1.33,1.29Z"/><path class="cls-1" d="M50.58,86.4a2.94,2.94,0,0,0,.26-.57,2.22,2.22,0,0,0,.12-.72,2.14,2.14,0,0,0-.19-.9,2.41,2.41,0,1,0-2.24,3.33,2.56,2.56,0,0,0,.78-.14A2.42,2.42,0,0,0,50.58,86.4Zm-2,0a1.35,1.35,0,1,1,1.35-1.35h0a1.34,1.34,0,0,1-1.28,1.4h-.07Z"/><path class="cls-1" d="M67,87.43a3,3,0,0,0,.67.11,2.43,2.43,0,1,0-2.24-3.33,2.3,2.3,0,0,0-.18.9,2.22,2.22,0,0,0,.12.72,2.53,2.53,0,0,0,.31.64A2.46,2.46,0,0,0,67,87.43Zm.67-3.65a1.33,1.33,0,1,1-.33,0h0a1,1,0,0,1,.25,0Z"/><path class="cls-20" d="M58.08,93.38a1.34,1.34,0,1,0,1.34,1.34h0A1.34,1.34,0,0,0,58.08,93.38Z"/><circle class="cls-20" cx="48.53" cy="85.11" r="1.34"/><path class="cls-20" d="M67.62,86.45a1.35,1.35,0,1,0-1.34-1.36v0h0A1.34,1.34,0,0,0,67.62,86.45Z"/></g></g></g><g id="Text"><path class="cls-21" d="M38.84,141.52h2v.84h-2v.93a6.58,6.58,0,0,1-1.29,4.49,6.51,6.51,0,0,1-3.35,1.71l-.5-.71A5.4,5.4,0,0,0,37,147a6,6,0,0,0,.92-3.64v-1H34.83v3.29h-.92v-3.29H32v-.84h1.88v-2.46h.92v2.46h3.09V139h.92Z"/><path class="cls-21" d="M47.9,140a10.5,10.5,0,0,0-.66-1.47l.63-.25a16,16,0,0,1,.91,2.11l-.4.16.15.37a10.14,10.14,0,0,1-1.72,5.88,8.61,8.61,0,0,1-4,2.64l-.52-.75a7.49,7.49,0,0,0,4-2.84,9.1,9.1,0,0,0,1.2-5H41.79V140Zm.76-1.76.61-.23a11.18,11.18,0,0,1,.88,2l-.65.26A12.29,12.29,0,0,0,48.66,138.27Z"/><path class="cls-21" d="M55.47,140.62h2.77l.27.59a19.75,19.75,0,0,1-3,3v5.21h-1V145a19.87,19.87,0,0,1-3.71,2l-.5-.7a16.87,16.87,0,0,0,6.78-4.83h-6v-.83h3.43v-1.8h.95Zm.82,4,.55-.63a21.18,21.18,0,0,1,2.75,2.16l-.6.8A17.55,17.55,0,0,0,56.29,144.65Z"/><path class="cls-21" d="M59.82,142.21l.79-.35a18.28,18.28,0,0,1,1,2.71l-.81.32A15.77,15.77,0,0,0,59.82,142.21ZM61.18,149a6.24,6.24,0,0,0,3.29-2.74,10.46,10.46,0,0,0,1.07-4.59l.9.2a12,12,0,0,1-1.23,4.85,5.88,5.88,0,0,1-1.47,1.74,9.29,9.29,0,0,1-2,1.17Zm1-7.28.78-.32a16.8,16.8,0,0,1,.89,2.66l-.8.35A12.51,12.51,0,0,0,62.14,141.67Z"/><path class="cls-21" d="M69.42,143.54v5.91h-1V139h1v3.61a19.64,19.64,0,0,1,4.68,2l-.47.9A15.28,15.28,0,0,0,69.42,143.54Z"/><path class="cls-21" d="M82.38,149h-1v-7.53a2.23,2.23,0,0,1-.34.27,3.73,3.73,0,0,1-.49.29c-.18.1-.37.19-.57.28a5.88,5.88,0,0,1-.59.2v-1a6.43,6.43,0,0,0,.68-.25c.24-.1.48-.22.72-.34s.45-.26.66-.4a5.4,5.4,0,0,0,.54-.41h.37Z"/><path class="cls-21" d="M31.33,188.93l-3.19,8.71H27l-3.12-8.71H25l2.38,6.91a4.66,4.66,0,0,1,.17.77h0a3.67,3.67,0,0,1,.19-.78l2.43-6.9Z"/><path class="cls-21" d="M33,189.85a.62.62,0,0,1-.45-.19.65.65,0,0,1,0-.92.58.58,0,0,1,.45-.19.65.65,0,0,1,.65.65.65.65,0,0,1-.65.65Zm.48,7.79h-1v-6.22h1Z"/><path class="cls-21" d="M38.74,192.43a1.31,1.31,0,0,0-1.8.4,2.82,2.82,0,0,0-.42,1.64v3.17h-1v-6.22h1v1.29h0a2.19,2.19,0,0,1,.64-1,1.49,1.49,0,0,1,1-.37,1.55,1.55,0,0,1,.59.09Z"/><path class="cls-21" d="M42.71,197.58a1.83,1.83,0,0,1-.91.2q-1.62,0-1.62-1.83v-3.68h-1v-.85h1v-1.51l1-.33v1.84h1.54v.85H41.17v3.51a1.45,1.45,0,0,0,.21.89.82.82,0,0,0,.69.27,1,1,0,0,0,.64-.21Z"/><path class="cls-21" d="M49.06,197.64h-1v-1h0a2,2,0,0,1-1.9,1.13c-1.46,0-2.19-.88-2.19-2.65v-3.72h1V195c0,1.31.49,2,1.48,2a1.5,1.5,0,0,0,1.19-.54,2.06,2.06,0,0,0,.46-1.4v-3.59h1Z"/><path class="cls-21" d="M55.5,197.64h-1v-1h0a2.05,2.05,0,0,1-1.89,1.12,2,2,0,0,1-1.43-.49,1.72,1.72,0,0,1-.52-1.31c0-1.16.67-1.84,2-2l1.85-.26c0-1.06-.43-1.58-1.27-1.58a3,3,0,0,0-2,.76v-1a3.74,3.74,0,0,1,2.08-.58c1.45,0,2.17.77,2.17,2.32Zm-1-3.14-1.49.2a2.38,2.38,0,0,0-1,.35,1,1,0,0,0-.34.87.93.93,0,0,0,.32.74,1.23,1.23,0,0,0,.85.29,1.56,1.56,0,0,0,1.21-.52,1.84,1.84,0,0,0,.48-1.31Z"/><path class="cls-21" d="M58.4,197.64h-1v-9.2h1Z"/><path class="cls-21" d="M71,197.64H69.71l-4.43-6.94a2.73,2.73,0,0,1-.27-.54h0a9.14,9.14,0,0,1,0,1.19v6.29H64v-8.71h1.31l4.31,6.84a5.44,5.44,0,0,1,.34.58h0a9.32,9.32,0,0,1-.06-1.28v-6.14h1Z"/><path class="cls-21" d="M78.07,194.78H73.73a2.4,2.4,0,0,0,.55,1.61,1.91,1.91,0,0,0,1.45.56,3,3,0,0,0,1.91-.69v.93a3.5,3.5,0,0,1-2.14.6,2.58,2.58,0,0,1-2-.85,3.51,3.51,0,0,1-.74-2.38,3.44,3.44,0,0,1,.81-2.37,2.59,2.59,0,0,1,2-.91,2.29,2.29,0,0,1,1.87.79,3.31,3.31,0,0,1,.66,2.19Zm-1-.84a2,2,0,0,0-.41-1.34,1.4,1.4,0,0,0-1.13-.48,1.57,1.57,0,0,0-1.18.5,2.38,2.38,0,0,0-.6,1.32Z"/><path class="cls-21" d="M82.47,197.58a1.9,1.9,0,0,1-.92.2q-1.62,0-1.62-1.83v-3.68H78.88v-.85h1.05v-1.51l1-.33v1.84h1.55v.85H80.92v3.51a1.45,1.45,0,0,0,.21.89.82.82,0,0,0,.69.27,1,1,0,0,0,.65-.21Z"/><path class="cls-21" d="M91.58,191.42l-1.84,6.22h-1l-1.27-4.45a2.43,2.43,0,0,1-.09-.58h0a2.65,2.65,0,0,1-.12.57l-1.38,4.46h-1L83,191.42h1l1.27,4.68a3.12,3.12,0,0,1,.09.56h0a3.17,3.17,0,0,1,.11-.57L87,191.42h.9l1.27,4.69a3.45,3.45,0,0,1,.09.56h.05a2.77,2.77,0,0,1,.1-.56l1.25-4.69Z"/><path class="cls-21" d="M95.35,197.79a2.85,2.85,0,0,1-2.18-.87,3.25,3.25,0,0,1-.81-2.31,3.37,3.37,0,0,1,.85-2.45,3,3,0,0,1,2.28-.88,2.75,2.75,0,0,1,2.15.85,3.48,3.48,0,0,1,.77,2.38,3.36,3.36,0,0,1-.83,2.38A2.9,2.9,0,0,1,95.35,197.79Zm.07-5.67a1.85,1.85,0,0,0-1.5.65,2.67,2.67,0,0,0-.55,1.8,2.5,2.5,0,0,0,.56,1.74,1.87,1.87,0,0,0,1.49.64,1.82,1.82,0,0,0,1.47-.62,3.4,3.4,0,0,0,0-3.58A1.79,1.79,0,0,0,95.42,192.12Z"/><path class="cls-21" d="M103.24,192.43a1.21,1.21,0,0,0-.74-.2,1.25,1.25,0,0,0-1,.6,2.82,2.82,0,0,0-.43,1.64v3.17h-1v-6.22h1v1.29h0a2.19,2.19,0,0,1,.64-1,1.49,1.49,0,0,1,1-.37,1.46,1.46,0,0,1,.58.09Z"/><path class="cls-21" d="M109.47,197.64h-1.38l-2.71-3h0v3h-1v-9.2h1v5.83h0l2.58-2.85h1.29l-2.85,3Z"/><path class="cls-21" d="M54,65.3H52.81L48.5,58.5a3,3,0,0,1-.27-.54h0a8.87,8.87,0,0,1,0,1.17V65.3h-1V56.76h1.28l4.19,6.7c.18.28.29.47.34.57h0A9.26,9.26,0,0,1,53,62.78v-6h1Z"/><path class="cls-21" d="M62.76,65.3H61.67l-.89-2.39H57.23L56.4,65.3H55.3l3.22-8.54h1ZM60.46,62l-1.31-3.64A2.71,2.71,0,0,1,59,57.8h0a3.38,3.38,0,0,1-.14.57L57.56,62Z"/><path class="cls-21" d="M68.15,57.67H65.73V65.3h-1V57.67H62.33v-.91h5.82Z"/><path class="cls-21" d="M.41,10A12.53,12.53,0,0,0,2.08,6.11a30.13,30.13,0,0,0,.73-4.78l1,.09a30,30,0,0,1-1,5.52,13.22,13.22,0,0,1-1.59,3.51ZM5.51,1.4l.91-.09A23.26,23.26,0,0,0,8.91,9.94L8,10.45A25.92,25.92,0,0,1,5.51,1.4ZM8.19-.16a1.29,1.29,0,0,1,1,.45,1.33,1.33,0,0,1,.35.91,1.31,1.31,0,0,1-.45,1,1.32,1.32,0,0,1-1.89-.1,1.34,1.34,0,0,1-.34-.92,1.32,1.32,0,0,1,.43-1A1.28,1.28,0,0,1,8.19-.16Zm0,.52a.77.77,0,0,0-.61.28.79.79,0,0,0-.21.56.8.8,0,0,0,.27.63.82.82,0,0,0,.55.22.77.77,0,0,0,.62-.28A.84.84,0,0,0,9,1.2.82.82,0,0,0,8.76.58.8.8,0,0,0,8.19.36Z"/><path class="cls-21" d="M16.44,1.49A9.2,9.2,0,0,0,15.8.05l.62-.25a16.75,16.75,0,0,1,.88,2.06L16.91,2l.15.37a10.05,10.05,0,0,1-1.68,5.76,8.46,8.46,0,0,1-3.86,2.59L11,10a7.31,7.31,0,0,0,3.89-2.79A9,9,0,0,0,16.08,2.3H10.49V1.49Zm.74-1.74.6-.22a10.43,10.43,0,0,1,.85,2L18,1.79A12.28,12.28,0,0,0,17.18-.25Z"/><path class="cls-21" d="M20.89.85v6H20v-6ZM20.55,10a4.74,4.74,0,0,0,3-1.57,5.46,5.46,0,0,0,.77-3.19V.78h.92V5.35a5.55,5.55,0,0,1-1.16,3.88A5.79,5.79,0,0,1,21,10.73Z"/><path class="cls-21" d="M26.89,3.62l.77-.34a18,18,0,0,1,1,2.65l-.79.32A15.14,15.14,0,0,0,26.89,3.62Zm1.33,6.61a6.11,6.11,0,0,0,3.2-2.69,10.23,10.23,0,0,0,1-4.49l.88.19A11.55,11.55,0,0,1,32.14,8,5.65,5.65,0,0,1,30.71,9.7a9.07,9.07,0,0,1-2,1.15Zm.93-7.14.76-.31a16.2,16.2,0,0,1,.87,2.61L30,5.73A12.81,12.81,0,0,0,29.15,3.09Z"/><path class="cls-21" d="M37.4,2.51A11.51,11.51,0,0,1,35.2,6l-.69-.54A10.77,10.77,0,0,0,37.1.41L38,.56c-.08.31-.19.69-.34,1.14h4.15a13.24,13.24,0,0,1-2.29,6.41,8.89,8.89,0,0,1-3.78,2.7l-.52-.65a8.33,8.33,0,0,0,3.83-2.89,11.07,11.07,0,0,0,1.68-4.76Z"/><path class="cls-21" d="M48.13,10.23h-1V1.69h1Z"/><path class="cls-21" d="M51.19,7v3.23h-1V1.69h2.3a3,3,0,0,1,2.08.67,2.4,2.4,0,0,1,.74,1.88,2.61,2.61,0,0,1-.82,2A3.14,3.14,0,0,1,52.29,7Zm0-4.41V6.1h1a2.27,2.27,0,0,0,1.55-.48,1.7,1.7,0,0,0,.53-1.33c0-1.13-.65-1.7-2-1.7Z"/><path class="cls-21" d="M70.23,10.23h-1V1.69h1Z"/><path class="cls-21" d="M73.29,7v3.23h-1V1.69h2.3a3,3,0,0,1,2.09.67,2.4,2.4,0,0,1,.74,1.88,2.62,2.62,0,0,1-.83,2A3.1,3.1,0,0,1,74.4,7Zm0-4.41V6.1h1a2.23,2.23,0,0,0,1.55-.48,1.67,1.67,0,0,0,.54-1.33c0-1.13-.66-1.7-2-1.7Z"/><path class="cls-21" d="M88.48,2.18a11.84,11.84,0,0,1-1.17,5.16,7.64,7.64,0,0,1-4.37,3.4l-.5-.73a7.34,7.34,0,0,0,3.89-2.83,9.43,9.43,0,0,0,1.17-5H81.91V1.36h5.73a1.32,1.32,0,0,1-.08-.47,1.34,1.34,0,0,1,.44-1,1.29,1.29,0,0,1,.9-.35,1.27,1.27,0,0,1,1,.45,1.35,1.35,0,0,1,.35.92,1.33,1.33,0,0,1-.44,1,1.29,1.29,0,0,1-.9.36A1.16,1.16,0,0,1,88.48,2.18ZM88.9.05a.8.8,0,0,0-.62.27.84.84,0,0,0-.21.57.83.83,0,0,0,.27.63.79.79,0,0,0,.56.21.81.81,0,0,0,.62-.27.88.88,0,0,0,.2-.57.8.8,0,0,0-.27-.63A.77.77,0,0,0,88.9.05Z"/><path class="cls-21" d="M92.54,9.61a7.27,7.27,0,0,0,3-1.93A8.64,8.64,0,0,0,97.44,4.8l.69.67a9.54,9.54,0,0,1-2.55,3.45,10.82,10.82,0,0,1-3.41,1.87l-.55-.4V.91h.92Z"/><path class="cls-21" d="M97.86,1.36h6.59c0,2.91-.54,5.09-1.55,6.54a8.17,8.17,0,0,1-4,2.84l-.5-.73a7.3,7.3,0,0,0,3.89-2.83,9.25,9.25,0,0,0,1.17-5H97.86Z"/><path class="cls-21" d="M108.5,5.65a24.54,24.54,0,0,1-2.8,1.71l-.5-.69a15.37,15.37,0,0,0,5.48-4.33l.73.56a13.75,13.75,0,0,1-2,2.07v5.76h-.88Z"/><path class="cls-21" d="M112.37,3.62l.77-.34a18,18,0,0,1,1,2.65l-.79.32A15.14,15.14,0,0,0,112.37,3.62Zm1.33,6.61a6.11,6.11,0,0,0,3.2-2.69,10.23,10.23,0,0,0,1-4.49l.88.19A11.55,11.55,0,0,1,117.62,8a5.65,5.65,0,0,1-1.43,1.71,9.07,9.07,0,0,1-2,1.15Zm.93-7.14.75-.31a15.21,15.21,0,0,1,.88,2.61l-.78.34A12.81,12.81,0,0,0,114.63,3.09Z"/><path class="cls-21" d="M122.88,2.51A11.51,11.51,0,0,1,120.68,6L120,5.48A10.77,10.77,0,0,0,122.58.41l.94.15c-.08.31-.2.69-.34,1.14h4.14A13.14,13.14,0,0,1,125,8.11a8.89,8.89,0,0,1-3.78,2.7l-.53-.65a8.31,8.31,0,0,0,3.84-2.89,11.07,11.07,0,0,0,1.68-4.76Z"/><path class="cls-21" d="M133.05,6.74a10.83,10.83,0,0,1-4.27,3.85l-.53-.7a10.42,10.42,0,0,0,3.91-3.43,12.32,12.32,0,0,0,1.76-4.39h-5V1.25h6.21a16.52,16.52,0,0,1-1.58,4.67,28,28,0,0,1,2.79,4.1l-.89.57A21.72,21.72,0,0,0,133.05,6.74Z"/><path class="cls-21" d="M109.42,141.52h2v.84h-2v.93a5.3,5.3,0,0,1-4.64,6.2l-.5-.71a5.4,5.4,0,0,0,3.3-1.74,6,6,0,0,0,.91-3.64v-1h-3.08v3.29h-.92v-3.29h-1.88v-.84h1.88v-2.46h.92v2.46h3.08V139h.93Z"/><path class="cls-21" d="M118.48,140a11.81,11.81,0,0,0-.66-1.47l.63-.25a16,16,0,0,1,.91,2.11l-.4.16.15.37a10.22,10.22,0,0,1-1.72,5.88,8.6,8.6,0,0,1-4,2.64l-.51-.75a7.49,7.49,0,0,0,4-2.84,9.1,9.1,0,0,0,1.2-5h-5.73V140Zm.76-1.76.61-.23a10.56,10.56,0,0,1,.87,2l-.64.26A12.29,12.29,0,0,0,119.24,138.27Z"/><path class="cls-21" d="M126,140.62h2.78l.27.59a19.75,19.75,0,0,1-3,3v5.21h-.95V145a19.87,19.87,0,0,1-3.71,2l-.5-.7a16.87,16.87,0,0,0,6.78-4.83h-6v-.83h3.43v-1.8H126Zm.83,4,.55-.63a21.18,21.18,0,0,1,2.75,2.16l-.6.8A18,18,0,0,0,126.87,144.65Z"/><path class="cls-21" d="M130.4,142.21l.78-.35a16.28,16.28,0,0,1,1,2.71l-.81.32A14.93,14.93,0,0,0,130.4,142.21Zm1.36,6.74a6.24,6.24,0,0,0,3.29-2.74,10.46,10.46,0,0,0,1.07-4.59l.9.2a12,12,0,0,1-1.23,4.85,5.88,5.88,0,0,1-1.47,1.74,9.29,9.29,0,0,1-2,1.17Zm1-7.28.77-.32a15.78,15.78,0,0,1,.9,2.66l-.8.35A12.51,12.51,0,0,0,132.72,141.67Z"/><path class="cls-21" d="M140,143.54v5.91h-.95V139H140v3.61a19.64,19.64,0,0,1,4.68,2l-.47.9A15.28,15.28,0,0,0,140,143.54Z"/><path class="cls-21" d="M153.25,142.52a1.9,1.9,0,0,0-.12-.7,1.59,1.59,0,0,0-.34-.49,1.32,1.32,0,0,0-.5-.29,1.81,1.81,0,0,0-.63-.1,1.77,1.77,0,0,0-.56.08,2.45,2.45,0,0,0-.54.22,3.08,3.08,0,0,0-.5.33,3.64,3.64,0,0,0-.45.43v-1.07a2.82,2.82,0,0,1,.92-.62,3.33,3.33,0,0,1,1.25-.22,3.05,3.05,0,0,1,1,.16,2.16,2.16,0,0,1,.78.45,2.1,2.1,0,0,1,.52.74,2.41,2.41,0,0,1,.19,1,3.38,3.38,0,0,1-.12.93,2.8,2.8,0,0,1-.35.79,3.59,3.59,0,0,1-.6.71,9.14,9.14,0,0,1-.84.7c-.41.29-.74.54-1,.74a5.33,5.33,0,0,0-.63.58,1.71,1.71,0,0,0-.32.54,2,2,0,0,0-.09.63h4.28V149h-5.31v-.43a3.68,3.68,0,0,1,.12-1,2.41,2.41,0,0,1,.4-.8,4.23,4.23,0,0,1,.72-.77c.3-.25.66-.54,1.09-.86a7.43,7.43,0,0,0,.79-.65,3,3,0,0,0,.5-.62,2.49,2.49,0,0,0,.28-.63A3,3,0,0,0,153.25,142.52Z"/></g></svg>