<svg xmlns="http://www.w3.org/2000/svg" xmlns:xlink="http://www.w3.org/1999/xlink" viewBox="0 0 299.16 285.86"><defs><style>.cls-1{fill:#fff;}.cls-2{fill:#ccc;fill-opacity:0.3;}.cls-22,.cls-23,.cls-25,.cls-3,.cls-4,.cls-8{fill:none;stroke-miterlimit:10;}.cls-22,.cls-3,.cls-4{stroke:#3c3c41;}.cls-4{stroke-dasharray:1.31 2.19;}.cls-5,.cls-6,.cls-7{fill:#3c3c41;}.cls-6{opacity:0.2;}.cls-33,.cls-34,.cls-6,.cls-7,.cls-8{isolation:isolate;}.cls-7{opacity:0.02;}.cls-23,.cls-25,.cls-8{stroke:#365615;}.cls-8{stroke-width:0.5px;opacity:0.5;}.cls-9{fill:url(#Degradado_sin_nombre);}.cls-10{fill:#50e6ff;}.cls-11{fill:#c3f1ff;}.cls-12{fill:#9cebff;}.cls-13{fill:url(#Degradado_sin_nombre_2);}.cls-14{fill:url(#Degradado_sin_nombre_3);}.cls-15{fill:url(#Degradado_sin_nombre_4);}.cls-16{fill:#005ba1;}.cls-17{fill:#0078d4;}.cls-18{fill:url(#Degradado_sin_nombre_5);}.cls-19{fill:url(#Degradado_sin_nombre_6);}.cls-20{fill:url(#Degradado_sin_nombre_7);}.cls-21{fill:url(#Degradado_sin_nombre_8);}.cls-22,.cls-25{stroke-dasharray:1.46 2.43;}.cls-24{fill:#365615;}.cls-26{fill:url(#Degradado_sin_nombre_9);}.cls-27{fill:url(#Degradado_sin_nombre_10);}.cls-28{fill:url(#Degradado_sin_nombre_11);}.cls-29{fill:#1490df;}.cls-30{fill:url(#Degradado_sin_nombre_12);}.cls-31{fill:#b4ec36;}.cls-32{fill:#5ea0ef;}.cls-33{fill:#9bf00b;}.cls-33,.cls-34{opacity:0.4;}.cls-34,.cls-35{fill:#6ebcdb;}.cls-36{fill:#5db4d7;}.cls-37{fill:#e6e6e6;}.cls-38{fill:#86d633;}.cls-39{fill:#1e1e1e;}</style><linearGradient id="Degradado_sin_nombre" x1="99.67" y1="476.24" x2="99.67" y2="457.48" gradientTransform="translate(0 -322.62)" gradientUnits="userSpaceOnUse"><stop offset="0" stop-color="#0078d4"/><stop offset="0.82" stop-color="#5ea0ef"/></linearGradient><linearGradient id="Degradado_sin_nombre_2" x1="99.67" y1="483.48" x2="99.67" y2="476.24" gradientTransform="translate(0 -322.62)" gradientUnits="userSpaceOnUse"><stop offset="0.15" stop-color="#ccc"/><stop offset="1" stop-color="#707070"/></linearGradient><linearGradient id="Degradado_sin_nombre_3" x1="140.38" y1="476.24" x2="140.38" y2="457.48" xlink:href="#Degradado_sin_nombre"/><linearGradient id="Degradado_sin_nombre_4" x1="140.36" y1="483.48" x2="140.36" y2="476.24" xlink:href="#Degradado_sin_nombre_2"/><linearGradient id="Degradado_sin_nombre_5" x1="267.03" y1="464.26" x2="267.03" y2="453.92" xlink:href="#Degradado_sin_nombre"/><linearGradient id="Degradado_sin_nombre_6" x1="267.07" y1="468.25" x2="267.07" y2="464.26" xlink:href="#Degradado_sin_nombre_2"/><linearGradient id="Degradado_sin_nombre_7" x1="219.33" y1="464.24" x2="219.33" y2="445.48" xlink:href="#Degradado_sin_nombre"/><linearGradient id="Degradado_sin_nombre_8" x1="219.35" y1="471.48" x2="219.35" y2="464.24" xlink:href="#Degradado_sin_nombre_2"/><linearGradient id="Degradado_sin_nombre_9" x1="71.05" y1="523.53" x2="73.42" y2="525.9" gradientTransform="translate(2.85 -323.95)" gradientUnits="userSpaceOnUse"><stop offset="0" stop-color="#86d633"/><stop offset="0.24" stop-color="#83d232"/><stop offset="0.5" stop-color="#7cc52f"/><stop offset="0.76" stop-color="#6fb02a"/><stop offset="1" stop-color="#5e9624"/></linearGradient><linearGradient id="Degradado_sin_nombre_10" x1="65.71" y1="523.53" x2="68.06" y2="525.9" xlink:href="#Degradado_sin_nombre_9"/><linearGradient id="Degradado_sin_nombre_11" x1="60.36" y1="523.53" x2="62.72" y2="525.9" xlink:href="#Degradado_sin_nombre_9"/><linearGradient id="Degradado_sin_nombre_12" x1="86.49" y1="388.4" x2="86.49" y2="352.46" gradientTransform="translate(0 -322.62)" gradientUnits="userSpaceOnUse"><stop offset="0" stop-color="#5e9624"/><stop offset="0.02" stop-color="#5f9724"/><stop offset="1" stop-color="#76bc2d"/></linearGradient></defs><title>OJ104903209</title><g id="Target"><g id="Shapes"><rect class="cls-1" width="299.16" height="285.86"/><rect class="cls-2" x="143.16" y="210.86" width="155" height="35"/><rect class="cls-2" x="143.16" y="250.86" width="155" height="35"/><line class="cls-3" x1="158.86" y1="260.86" x2="158.11" y2="260.86"/><line class="cls-4" x1="155.92" y1="260.86" x2="150.01" y2="260.86"/><line class="cls-3" x1="148.91" y1="260.86" x2="148.16" y2="260.86"/><polygon class="cls-5" points="157.98 257.86 163.16 260.86 157.98 263.85 157.98 257.86"/><path class="cls-5" d="M292.5,200.86h-1v-1h1Zm-3,0h-1v-1h1Zm-3,0h-1v-1h1Zm-3,0h-1v-1h1Zm-3,0h-1v-1h1Zm-3,0h-1v-1h1Zm-3,0h-1v-1h1Zm-3,0h-1v-1h1Zm-3,0h-1v-1h1Zm-3,0h-1v-1h1Zm-3,0h-1v-1h1Zm-3,0h-1v-1h1Zm-3,0h-1v-1h1Zm-3,0h-1v-1h1Zm-3,0h-1v-1h1Zm-3,0h-1v-1h1Zm-3,0h-1v-1h1Zm-3,0h-1v-1h1Zm-3,0h-1v-1h1Zm-3,0h-1v-1h1Zm-3,0h-1v-1h1Zm-3,0h-1v-1h1Zm-3,0h-1v-1h1Zm-3,0h-1v-1h1Zm-3,0h-1v-1h1Zm-3,0h-1v-1h1Zm-3,0h-1v-1h1Zm-3,0h-1v-1h1Zm-3,0h-1v-1h1Zm-3,0h-1v-1h1Zm-3,0h-1v-1h1Zm-3,0h-1v-1h1Zm-3,0h-1v-1h1Zm-3,0h-1v-1h1Zm-3,0h-1v-1h1Zm-3,0h-1v-1h1Zm-3,0h-1v-1h1Zm-3,0h-1v-1h1Zm-3,0h-1v-1h1Zm-3,0h-1v-1h1Zm-3,0h-1v-1h1Zm-3,0h-1v-1h1Zm-3,0h-1v-1h1Zm-3,0h-1v-1h1Zm-3,0h-1v-1h1Zm-3,0h-1v-1h1Zm-3,0h-1v-1h1Zm-3,0h-1v-1h1Zm-3,0h-1v-1h1Zm-3,0h-1v-1h1Zm-3,0h-1v-1h1Zm-3,0h-1v-1h1Zm-3,0h-1v-1h1Zm-3,0h-1v-1h1Zm-3,0h-1v-1h1Zm-3,0h-1v-1h1Zm-3,0h-1v-1h1Zm-3,0h-1v-1h1Zm-3,0h-1v-1h1Zm-3,0h-1v-1h1Zm-3,0h-1v-1h1Zm-3,0h-1v-1h1Zm-3,0h-1v-1h1Zm-3,0h-1v-1h1Zm-3,0h-1v-1h1Zm-3,0h-1v-1h1Zm-3,0h-1v-1h1Zm-3,0h-1v-1h1Zm-3,0h-1v-1h1Zm-3,0h-1v-1h1Zm-30,0h-1v-1h1Zm239.48-.08-.16-1a4.4,4.4,0,0,0,.86-.24l.37.93a4.94,4.94,0,0,1-1.42.31ZM52,200.59a6,6,0,0,1-1-.45l.49-.87a4.09,4.09,0,0,0,.83.36Zm245.52-1.29-.7-.72a5.35,5.35,0,0,0,.58-.68l.83.56a6.54,6.54,0,0,1-.74.84Zm-248.18-.59a5.06,5.06,0,0,1-.58-.94l.89-.44a5.41,5.41,0,0,0,.48.76Zm249.74-2.26-1-.2a4.41,4.41,0,0,0,.09-.89l1-.06v.06a5,5,0,0,1-.12,1.09Zm-250.88-.8v-1h1v1Zm251-2.36h-1v-1h1Zm-250-.67h-1v-1h1Zm250-2.33h-1v-1h1Zm-250-.67h-1v-1h1Zm250-2.34h-1v-1h1Zm-250-.67h-1v-1h1Zm250-2.33h-1v-1h1Zm-250-.67h-1v-1h1Zm250-2.34h-1v-1h1Zm-250-.67h-1v-1h1Zm250-2.33h-1v-1h1Zm-250-.67h-1v-1h1Zm250-2.34h-1v-1h1Zm-250-.67h-1v-1h1Zm250-2.33h-1v-1h1Zm-250-.67h-1v-1h1Zm250-2.34h-1v-1h1Zm-250-.67h-1v-1h1Zm250-2.33h-1v-1h1Zm-250-.67h-1v-1h1Zm250-2.34h-1v-1h1Zm-250-.67h-1v-1h1Zm250-2.33h-1v-1h1Zm-250-.67h-1v-1h1Zm250-2.34h-1v-1h1Zm-250-.67h-1v-1h1Zm250-2.33h-1v-1h1Zm-250-.67h-1v-1h1Zm250-2.34h-1v-1h1Zm-250-.67h-1v-1h1Zm250-2.33h-1v-1h1Zm-250-.67h-1v-1h1Zm250-2.34h-1v-1h1Zm-250-.67h-1v-1h1Zm250-2.33h-1v-1h1Zm-250-.67h-1v-1h1Zm250-2.34h-1v-1h1Zm-250-.67h-1v-1h1Zm250-2.33h-1v-1h1Zm-250-.67h-1v-1h1Zm250-2.34h-1v-1h1Zm-250-.67h-1v-1h1Zm250-2.33h-1v-1h1Zm-250-.67h-1v-1h1Zm250-2.34h-1v-1h1Zm-250-.67h-1v-1h1Zm250-2.33h-1v-1h1Zm-250-.67h-1v-1h1Zm250-2.34h-1v-1h1Zm-250-.67h-1v-1h1Zm250-2.33h-1v-1h1Zm-250-.67h-1v-1h1Zm250-2.34h-1v-1h1Zm-250-.67h-1v-1h1Zm250-2.33h-1v-1h1Zm-250-.67h-1v-1h1Zm250-2.34h-1v-1h1Zm-250-.67h-1v-1h1Zm250-2.33h-1v-1h1Zm-250-.67h-1v-1h1Zm250-2.34h-1v-1h1Zm-250-.67h-1v-1h1Zm250-2.33h-1v-1h1Zm-250-.67h-1v-1h1Zm250-2.34h-1v-1h1Zm-250-.67h-1v-1h1Zm250-2.33h-1v-1h1Zm-250-.67h-1v-1h1Zm250-2.34h-1v-1h1Zm-250-.67h-1v-1h1Zm250-2.33h-1v-1h1Zm-250-.67h-1v-1h1Zm250-2.34h-1v-1h1Zm-250-.67h-1v-1h1Zm250-2.33h-1v-1h1Zm-250-.68h-1v-1h1Zm250-2.33h-1v-1h1Zm-250-.67h-1v-1h1Zm250-2.33h-1v-1h1Zm-250-.67h-1v-1h1Zm250-2.34h-1v-1h1Zm-250-.67h-1v-1h1Zm250-2.33h-1v-1h1Zm-250-.68h-1v-1h1Zm250-2.33h-1v-1h1Zm-250-.67h-1v-1h1Zm250-2.33h-1v-1h1Zm-250-.68h-1v-1h1Zm250-2.33h-1v-1h1Zm-250-.67h-1v-1h1Zm250-2.33h-1v-1h1Zm-250-.68h-1v-1h1Zm250-2.33h-1v-1h1Zm-250-.67h-1v-1h1Zm250-2.34h-1v-1l1-.06v1.06Zm-251-.67h0a5.47,5.47,0,0,1,.11-1.07l1,.2a4.28,4.28,0,0,0-.09.87Zm249.53-2a3.75,3.75,0,0,0-.48-.76L298,48a5.62,5.62,0,0,1,.59.93ZM49.94,48.84l-.83-.57a6.31,6.31,0,0,1,.71-.84l.7.72A4.24,4.24,0,0,0,49.94,48.84Zm245.91-1.41a4,4,0,0,0-.82-.36l.3-1a5.2,5.2,0,0,1,1,.43ZM52,47.17l-.37-.93a4.92,4.92,0,0,1,1.06-.3l.18,1A4.29,4.29,0,0,0,52,47.17Zm241.18-.31h-1v-1h1Zm-3,0h-1v-1h1Zm-3,0h-1v-1h1Zm-3,0h-1v-1h1Zm-3,0h-1v-1h1Zm-3,0h-1v-1h1Zm-3,0h-1v-1h1Zm-3,0h-1v-1h1Zm-3,0h-1v-1h1Zm-3,0h-1v-1h1Zm-3,0h-1v-1h1Zm-3,0h-1v-1h1Zm-3,0h-1v-1h1Zm-3,0h-1v-1h1Zm-3,0h-1v-1h1Zm-3,0h-1v-1h1Zm-3,0h-1v-1h1Zm-3,0h-1v-1h1Zm-3,0h-1v-1h1Zm-3,0h-1v-1h1Zm-27,0h-1v-1h1Zm-3,0h-1v-1h1Zm-3,0h-1v-1h1Zm-3,0h-1v-1h1Zm-3,0h-1v-1h1Zm-3,0h-1v-1h1Zm-3,0h-1v-1h1Zm-3,0h-1v-1h1Zm-3,0h-1v-1h1Zm-3,0h-1v-1h1Zm-3,0h-1v-1h1Zm-3,0h-1v-1h1Zm-3,0h-1v-1h1Zm-3,0h-1v-1h1Zm-3,0h-1v-1h1Zm-3,0h-1v-1h1Zm-3,0h-1v-1h1Zm-3,0h-1v-1h1Zm-3,0h-1v-1h1Zm-3,0h-1v-1h1Zm-3,0h-1v-1h1Zm-3,0h-1v-1h1Zm-3,0h-1v-1h1Zm-3,0h-1v-1h1Zm-3,0h-1v-1h1Zm-3,0h-1v-1h1Zm-3,0h-1v-1h1Zm-3,0h-1v-1h1Zm-3,0h-1v-1h1Zm-3,0h-1v-1h1Zm-3,0h-1v-1h1Zm-3,0h-1v-1h1Zm-3,0h-1v-1h1Zm-3,0h-1v-1h1Zm-3,0h-1v-1h1Zm-3,0h-1v-1h1Zm-3,0h-1v-1h1Zm-3,0h-1v-1h1Zm-3,0h-1v-1h1Zm-3,0h-1v-1h1Zm-3,0h-1v-1h1Zm-3,0h-1v-1h1Zm-3,0h-1v-1h1Zm-3,0h-1v-1h1Zm-3,0h-1v-1h1Zm-3,0h-1v-1h1Zm-3,0h-1v-1h1Zm-3,0h-1v-1h1Zm-3,0h-1v-1h1Zm-3,0h-1v-1h1Zm-3,0h-1v-1h1Zm-3,0h-1v-1h1Z"/><rect class="cls-1" x="58.16" y="90.86" width="125" height="95"/><rect class="cls-6" x="58.16" y="90.86" width="125" height="95"/><rect class="cls-1" x="63.16" y="110.86" width="115" height="70"/><rect class="cls-7" x="63.16" y="110.86" width="115" height="70"/><rect class="cls-8" x="63.16" y="110.86" width="115" height="70"/><rect class="cls-9" x="85.6" y="134.86" width="28.14" height="18.76" rx="0.94"/><polygon class="cls-10" points="104.36 141.5 104.36 146.96 99.67 149.71 99.67 144.24 104.36 141.5"/><polygon class="cls-11" points="104.36 141.5 99.67 144.25 94.98 141.5 99.67 138.76 104.36 141.5"/><polygon class="cls-12" points="99.67 144.25 99.67 149.71 94.98 146.96 94.98 141.5 99.67 144.25"/><polygon class="cls-11" points="94.98 146.96 99.67 144.24 99.67 149.71 94.98 146.96"/><polygon class="cls-12" points="104.36 146.96 99.67 144.24 99.67 149.71 104.36 146.96"/><path class="cls-13" d="M105.32,159.29c-2.79-.44-2.89-2.44-2.89-5.67H96.91c0,3.23-.1,5.23-2.88,5.67a1.56,1.56,0,0,0-1.39,1.57h14.07A1.56,1.56,0,0,0,105.32,159.29Z"/><rect class="cls-14" x="126.31" y="134.86" width="28.14" height="18.76" rx="0.94"/><polygon class="cls-10" points="145.07 141.5 145.07 146.96 140.38 149.71 140.38 144.24 145.07 141.5"/><polygon class="cls-11" points="145.07 141.5 140.38 144.25 135.69 141.5 140.38 138.76 145.07 141.5"/><polygon class="cls-12" points="140.38 144.25 140.38 149.71 135.69 146.96 135.69 141.5 140.38 144.25"/><polygon class="cls-11" points="135.69 146.96 140.38 144.24 140.38 149.71 135.69 146.96"/><polygon class="cls-12" points="145.07 146.96 140.38 144.24 140.38 149.71 145.07 146.96"/><path class="cls-15" d="M146,159.29c-2.78-.44-2.89-2.44-2.89-5.67h-5.52c0,3.23-.09,5.23-2.88,5.67a1.56,1.56,0,0,0-1.39,1.57h14.07A1.56,1.56,0,0,0,146,159.29Z"/><rect class="cls-1" x="193.16" y="90.86" width="95" height="95"/><rect class="cls-6" x="193.16" y="90.86" width="95" height="95"/><rect class="cls-16" x="248.76" y="119.63" width="15.46" height="10.32" rx="0.52"/><polygon class="cls-10" points="259.07 123.28 259.07 126.3 256.5 127.79 256.5 124.8 259.07 123.28"/><polygon class="cls-11" points="259.07 123.28 256.5 124.8 253.92 123.28 256.5 121.77 259.07 123.28"/><polygon class="cls-12" points="256.5 124.8 256.5 127.79 253.92 126.3 253.92 123.28 256.5 124.8"/><rect class="cls-17" x="254.83" y="125.55" width="15.46" height="10.32" rx="0.52"/><polygon class="cls-10" points="265.14 129.22 265.14 132.21 262.57 133.73 262.57 130.72 265.14 129.22"/><polygon class="cls-11" points="265.14 129.22 262.57 130.72 259.99 129.22 262.57 127.7 265.14 129.22"/><polygon class="cls-12" points="262.57 130.72 262.57 133.73 259.99 132.21 259.99 129.22 262.57 130.72"/><rect class="cls-18" x="259.3" y="131.3" width="15.46" height="10.32" rx="0.52"/><polygon class="cls-10" points="269.61 134.97 269.61 137.96 267.04 139.48 267.04 136.47 269.61 134.97"/><polygon class="cls-11" points="269.61 134.97 267.04 136.48 264.45 134.97 267.04 133.45 269.61 134.97"/><polygon class="cls-12" points="267.04 136.48 267.04 139.48 264.45 137.96 264.45 134.97 267.04 136.48"/><polygon class="cls-11" points="264.45 137.96 267.04 136.47 267.04 139.48 264.45 137.96"/><polygon class="cls-12" points="269.61 137.96 267.04 136.47 267.04 139.48 269.61 137.96"/><path class="cls-19" d="M270.13,144.75c-1.53-.24-1.53-1.34-1.53-3.05h-3.06c0,1.77,0,2.87-1.53,3.05a.91.91,0,0,0-.76.88h7.64A.91.91,0,0,0,270.13,144.75Z"/><rect class="cls-20" x="205.26" y="122.86" width="28.14" height="18.76" rx="0.94"/><polygon class="cls-10" points="224.02 129.5 224.02 134.96 219.33 137.71 219.33 132.24 224.02 129.5"/><polygon class="cls-11" points="224.02 129.5 219.33 132.25 214.64 129.5 219.33 126.76 224.02 129.5"/><polygon class="cls-12" points="219.33 132.25 219.33 137.71 214.64 134.96 214.64 129.5 219.33 132.25"/><polygon class="cls-11" points="214.64 134.96 219.33 132.24 219.33 137.71 214.64 134.96"/><polygon class="cls-12" points="224.02 134.96 219.33 132.24 219.33 137.71 224.02 134.96"/><path class="cls-21" d="M225,147.29c-2.78-.44-2.89-2.44-2.89-5.67h-5.52c0,3.23-.1,5.23-2.88,5.67a1.56,1.56,0,0,0-1.39,1.57h14.07A1.56,1.56,0,0,0,225,147.29Z"/><line class="cls-3" x1="170.03" y1="91.21" x2="170.03" y2="64.14"/><line class="cls-3" x1="162.5" y1="85.68" x2="162.5" y2="73.98"/><polygon class="cls-5" points="165.5 74.86 162.5 69.68 159.51 74.86 165.5 74.86"/><line class="cls-3" x1="177.55" y1="81.37" x2="177.55" y2="80.62"/><line class="cls-22" x1="177.55" y1="78.19" x2="177.55" y2="71.64"/><line class="cls-3" x1="177.55" y1="70.43" x2="177.55" y2="69.68"/><polygon class="cls-5" points="180.55 80.5 177.55 85.68 174.56 80.5 180.55 80.5"/><line class="cls-3" x1="210.69" y1="91.21" x2="210.69" y2="64.14"/><line class="cls-3" x1="203.16" y1="85.68" x2="203.16" y2="73.98"/><polygon class="cls-5" points="206.16 74.86 203.16 69.68 200.17 74.86 206.16 74.86"/><line class="cls-3" x1="218.21" y1="81.37" x2="218.21" y2="80.62"/><line class="cls-22" x1="218.21" y1="78.19" x2="218.21" y2="71.64"/><line class="cls-3" x1="218.21" y1="70.43" x2="218.21" y2="69.68"/><polygon class="cls-5" points="221.21 80.5 218.21 85.68 215.22 80.5 221.21 80.5"/><line class="cls-23" x1="86.41" y1="110.86" x2="86.41" y2="19.87"/><line class="cls-23" x1="80.04" y1="82.55" x2="80.04" y2="70.86"/><polygon class="cls-24" points="83.03 81.67 80.04 86.86 77.05 81.67 83.03 81.67"/><line class="cls-23" x1="93.15" y1="86.86" x2="93.15" y2="86.11"/><line class="cls-25" x1="93.15" y1="83.68" x2="93.15" y2="77.12"/><line class="cls-23" x1="93.15" y1="75.91" x2="93.15" y2="75.16"/><polygon class="cls-24" points="96.14 76.04 93.15 70.86 90.16 76.04 96.14 76.04"/><line class="cls-3" x1="191.87" y1="38.29" x2="191.87" y2="18.79"/><line class="cls-3" x1="154.17" y1="222.93" x2="165.3" y2="222.93"/><polygon class="cls-5" points="155.05 225.93 149.87 222.93 155.05 219.94 155.05 225.93"/><path class="cls-3" d="M188,41,150.24,29.65a4.28,4.28,0,0,1-2.87-3.86v-7"/><path class="cls-3" d="M196.18,41l43.29-11.43a4.12,4.12,0,0,0,2.9-3.76v-7"/><circle class="cls-26" cx="74.9" cy="200.57" r="1.67"/><circle class="cls-27" cx="69.56" cy="200.59" r="1.67"/><circle class="cls-28" cx="64.22" cy="200.59" r="1.67"/><path class="cls-10" d="M65.44,207.28l-1,1a.44.44,0,0,1-.62,0h0l-7.09-7.07a.87.87,0,0,1,0-1.23h0l1-1h0l7.7,7.69a.45.45,0,0,1,0,.61Z"/><path class="cls-29" d="M64.33,193l1,1a.44.44,0,0,1,0,.62l-7.57,7.59h0l-1-1a.86.86,0,0,1,0-1.22h0l7-7A.43.43,0,0,1,64.33,193Z"/><path class="cls-10" d="M81.28,199l1,1a.87.87,0,0,1,0,1.23h0l-7.1,7.07a.43.43,0,0,1-.61,0h0l-1-1a.43.43,0,0,1,0-.61h0Z"/><path class="cls-29" d="M82.24,201.15l-1,.95h0l-7.58-7.59a.44.44,0,0,1,0-.62h0l1-1a.44.44,0,0,1,.62,0h0l7,7a.87.87,0,0,1,0,1.23h0Z"/><path class="cls-30" d="M71.32,46.35,85.76,31.9a1,1,0,0,1,1.41,0l0,0h0l14.45,14.45a1,1,0,0,1,0,1.41l0,.05h0L87.23,62.3a1,1,0,0,1-1.41,0l0,0L71.32,47.83a1,1,0,0,1,0-1.41l0-.05Z"/><path class="cls-31" d="M90.29,38.48l-3.65-3.63a.2.2,0,0,0-.27,0l-3.66,3.63a.16.16,0,0,0,0,.24.16.16,0,0,0,.18.07H85a.21.21,0,0,1,.19.19v3.45a.2.2,0,0,0,.19.19h2.27a.21.21,0,0,0,.19-.19V39a.2.2,0,0,1,.19-.19h2.13a.15.15,0,0,0,.2-.1v0A.18.18,0,0,0,90.29,38.48Z"/><path class="cls-31" d="M77.89,43l-3.61,3.66a.19.19,0,0,0,0,.26l3.61,3.64a.19.19,0,0,0,.27,0h0a.2.2,0,0,0,.06-.14V48.28a.2.2,0,0,1,.19-.19h3.44a.18.18,0,0,0,.18-.17V45.63a.19.19,0,0,0-.06-.24H78.46a.18.18,0,0,1-.19-.15V43.11a.19.19,0,0,0-.11-.25h0a.19.19,0,0,0-.25.12Z"/><path class="cls-31" d="M95.25,50.54l3.67-3.65a.19.19,0,0,0,0-.26L95.25,43A.2.2,0,0,0,95,43a.21.21,0,0,0,0,.11v2.16a.18.18,0,0,1-.17.17H91.31a.18.18,0,0,0-.18.17V47.9a.17.17,0,0,0,.16.19h3.46a.2.2,0,0,1,.19.19h0v2.14a.2.2,0,0,0,.21.16Z"/><path class="cls-1" d="M91.31,47.09a4.81,4.81,0,1,0-6.1,4.6v1.64a3,3,0,1,0,4,1.33,3.05,3.05,0,0,0-1.33-1.33V51.6A4.78,4.78,0,0,0,91.31,47.09Z"/><circle id="e99c3387-15c3-4f28-bd4b-cb209b430e06" class="cls-32" cx="86.52" cy="47.08" r="2.79"/><rect class="cls-1" x="130.02" width="35" height="20.86"/><rect class="cls-6" x="130.02" width="35" height="20.86"/><rect class="cls-1" x="68.16" width="35" height="20.86"/><rect class="cls-33" x="68.16" width="35" height="20.86"/><rect class="cls-1" x="174.87" width="35" height="20.86"/><rect class="cls-6" x="174.87" width="35" height="20.86"/><rect class="cls-1" x="219.87" width="62.63" height="20.86"/><rect class="cls-6" x="219.87" width="62.63" height="20.86"/><rect class="cls-1" x="156.87" y="53.97" width="70" height="10"/><rect class="cls-34" x="156.87" y="53.97" width="70" height="10"/><g id="ad94e297-0e86-4eaf-aac0-d146ee9aea65"><path class="cls-35" d="M187.8,54.32l-4.69-4.84a2.28,2.28,0,0,1-.77.14,2.43,2.43,0,1,1,2.24-3.33h4.61v1.62h-4.54a3.68,3.68,0,0,1-.26.57l4.32,4.46,2.34-3.56V38.19H187.9l4-4,4,4h-3.16v8.74l5.93-9-6-6a1,1,0,0,0-1.41-.05s0,0,0,.05h0L176.69,46.36a1,1,0,0,0-.05,1.41l.05,0h0l14.47,14.47L186,57.15Z"/><path class="cls-36" d="M191.05,54.53V49.36l-2.34,3.58,1.72,1.85A1.61,1.61,0,0,1,191.05,54.53Z"/><path class="cls-36" d="M207.08,46.36l-8.48-8.48-5.93,9v7.61a1.78,1.78,0,0,1,.54.3l6.22-6.29a2.53,2.53,0,0,1-.31-.64h-4.67V46.29h4.74a2.41,2.41,0,1,1,2.24,3.33,2.61,2.61,0,0,1-.68-.11l-6.61,6.67a2.17,2.17,0,0,1,.1.62,2.43,2.43,0,1,1-4.84.44,2.18,2.18,0,0,1,0-.25,2.49,2.49,0,0,1,.13-.9l-1.72-1.72L186,57.13l5.17,5.17a1,1,0,0,0,1.41,0l0,0L207,47.82a1,1,0,0,0,.05-1.41s0,0-.05,0Z"/><path class="cls-37" d="M199.19,46.29h-4.74v1.62h4.67a2.22,2.22,0,0,1-.12-.72A2.14,2.14,0,0,1,199.19,46.29Z"/><path class="cls-37" d="M184.65,47.91h4.54V46.29h-4.61a2.54,2.54,0,0,1,.19.9A2.93,2.93,0,0,1,184.65,47.91Z"/><path class="cls-37" d="M194.14,56.18l6.61-6.67a2.44,2.44,0,0,1-1.32-1l-6.22,6.29A2.25,2.25,0,0,1,194.14,56.18Z"/><path class="cls-37" d="M190.49,54.79l-1.73-1.85-4.37-4.46a2.45,2.45,0,0,1-1.28,1l4.69,4.84L189.52,56A2.37,2.37,0,0,1,190.49,54.79Z"/><path class="cls-1" d="M195.81,38.19l-3.93-4-4,4H191V54.53a1.68,1.68,0,0,0-.56.26,2.36,2.36,0,0,0-1,1.3,2.41,2.41,0,1,0,4.62,1.4,2.3,2.3,0,0,0,.1-.69,2.17,2.17,0,0,0-.1-.62,2.21,2.21,0,0,0-.93-1.34,1.78,1.78,0,0,0-.54-.3V38.19Zm-3.93,20a1.34,1.34,0,1,1,1.35-1.34h0a1.35,1.35,0,0,1-1.35,1.29Z"/><path class="cls-1" d="M184.39,48.48a3.68,3.68,0,0,0,.26-.57,2.93,2.93,0,0,0,.12-.72,2.54,2.54,0,0,0-.19-.9,2.42,2.42,0,1,0-2.24,3.33,2.28,2.28,0,0,0,.77-.14A2.45,2.45,0,0,0,184.39,48.48Zm-2,0a1.35,1.35,0,1,1,1.34-1.36v0h0a1.34,1.34,0,0,1-1.29,1.39h0Z"/><path class="cls-1" d="M200.75,49.51a2.61,2.61,0,0,0,.68.11,2.43,2.43,0,1,0-2.24-3.33,2.14,2.14,0,0,0-.19.9,2.22,2.22,0,0,0,.12.72,2.53,2.53,0,0,0,.31.64A2.46,2.46,0,0,0,200.75,49.51Zm.68-3.65a1.34,1.34,0,1,1-.31,0Z"/><path class="cls-38" d="M191.88,55.46a1.34,1.34,0,1,0,1.35,1.34h0A1.36,1.36,0,0,0,191.88,55.46Z"/><circle class="cls-38" cx="182.34" cy="47.19" r="1.34"/><path class="cls-38" d="M201.43,48.53a1.35,1.35,0,1,0-1.35-1.35h0a1.34,1.34,0,0,0,1.34,1.34Z"/></g></g></g><g id="Text"><path class="cls-39" d="M96.82,164.8l-3.12,8.54H92.61l-3.06-8.54h1.1L93,171.57a4.53,4.53,0,0,1,.17.76h0a4.31,4.31,0,0,1,.19-.77l2.39-6.76Z"/><path class="cls-39" d="M106.59,173.34h-1v-5.73c0-.45,0-1,.08-1.66h0a5.46,5.46,0,0,1-.25.83l-2.88,6.56h-.49l-2.87-6.51a4.74,4.74,0,0,1-.25-.88h0c0,.34,0,.9,0,1.68v5.71H98V164.8h1.3l2.59,6a7.91,7.91,0,0,1,.39,1h0c.17-.47.31-.82.41-1.05l2.64-5.93h1.23Z"/><path class="cls-39" d="M138.66,164.8l-3.12,8.54h-1.09l-3.06-8.54h1.1l2.34,6.77a4.53,4.53,0,0,1,.17.76h0a3.66,3.66,0,0,1,.2-.77l2.38-6.76Z"/><path class="cls-39" d="M148.44,173.34h-1v-5.73c0-.45,0-1,.09-1.66h0a5.46,5.46,0,0,1-.25.83l-2.88,6.56h-.48L141,166.83a4.74,4.74,0,0,1-.25-.88h0c0,.34,0,.9,0,1.68v5.71h-.95V164.8h1.3l2.59,6a7.91,7.91,0,0,1,.39,1h0c.17-.47.31-.82.41-1.05l2.64-5.93h1.24Z"/><path class="cls-39" d="M217.67,157.22l-3.12,8.54h-1.09l-3.06-8.54h1.1l2.34,6.77a4.77,4.77,0,0,1,.17.76h0a3.66,3.66,0,0,1,.2-.77l2.38-6.76Z"/><path class="cls-39" d="M227.45,165.76h-1V160c0-.45,0-1,.09-1.66h0a5.46,5.46,0,0,1-.25.83l-2.88,6.56h-.48L220,159.25a4.74,4.74,0,0,1-.25-.88h0c0,.35.05.9.05,1.68v5.71h-1v-8.54h1.3l2.59,6a8.52,8.52,0,0,1,.39,1h0c.16-.47.3-.81.4-1l2.64-5.93h1.24Z"/><path class="cls-39" d="M253.69,157.41,250.57,166h-1.09l-3.06-8.54h1.1l2.33,6.77a3.16,3.16,0,0,1,.17.76h0a3.59,3.59,0,0,1,.19-.77l2.38-6.76Z"/><path class="cls-39" d="M263.46,166h-1v-5.73c0-.45,0-1,.08-1.66h0a5.46,5.46,0,0,1-.25.83L259.41,166h-.49l-2.87-6.51a4.6,4.6,0,0,1-.26-.88h0c0,.34,0,.9,0,1.68V166h-1v-8.54h1.31l2.59,6a7.91,7.91,0,0,1,.39,1h0c.17-.47.31-.82.41-1l2.64-5.93h1.23Z"/><path class="cls-39" d="M265.25,165.61v-1.18a2.23,2.23,0,0,0,.48.32,3,3,0,0,0,.59.24,3.3,3.3,0,0,0,.62.15,3.07,3.07,0,0,0,.57.06,2.25,2.25,0,0,0,1.37-.35,1.14,1.14,0,0,0,.45-1,1.16,1.16,0,0,0-.15-.6,1.68,1.68,0,0,0-.42-.47,4,4,0,0,0-.63-.41l-.77-.4c-.3-.15-.57-.31-.83-.46a4.42,4.42,0,0,1-.66-.51,2.18,2.18,0,0,1-.45-.64,2.08,2.08,0,0,1-.16-.83,2,2,0,0,1,.25-1,2.2,2.2,0,0,1,.67-.72,3.08,3.08,0,0,1,.94-.41,4.3,4.3,0,0,1,1.07-.14,4.13,4.13,0,0,1,1.82.3v1.13a3.27,3.27,0,0,0-1.92-.52,3.66,3.66,0,0,0-.65.06,1.8,1.8,0,0,0-.57.23,1.12,1.12,0,0,0-.41.4,1,1,0,0,0-.16.59,1.26,1.26,0,0,0,.12.57,1.41,1.41,0,0,0,.35.43,3.43,3.43,0,0,0,.58.38c.22.13.48.26.78.41s.58.31.85.47a4.59,4.59,0,0,1,.72.56,2.58,2.58,0,0,1,.48.67,1.93,1.93,0,0,1,.18.85,2,2,0,0,1-.9,1.78,2.94,2.94,0,0,1-1,.39,5.24,5.24,0,0,1-1.14.13c-.13,0-.3,0-.49,0l-.6-.09a4.43,4.43,0,0,1-.58-.16A2,2,0,0,1,265.25,165.61Z"/><path class="cls-39" d="M271.61,165.61v-1.18a2.86,2.86,0,0,0,.48.32,3,3,0,0,0,.59.24,3.5,3.5,0,0,0,.62.15,3.09,3.09,0,0,0,.58.06,2.21,2.21,0,0,0,1.36-.35,1.14,1.14,0,0,0,.45-1,1.16,1.16,0,0,0-.15-.6,1.8,1.8,0,0,0-.41-.47,4.58,4.58,0,0,0-.63-.41l-.78-.4c-.3-.15-.57-.31-.82-.46a4.06,4.06,0,0,1-.67-.51,2,2,0,0,1-.44-.64,2.19,2.19,0,0,1,.09-1.84,2.28,2.28,0,0,1,.66-.72,3.19,3.19,0,0,1,.94-.41,4.3,4.3,0,0,1,1.07-.14,4.1,4.1,0,0,1,1.82.3v1.13a3.27,3.27,0,0,0-1.92-.52,3.47,3.47,0,0,0-.64.06,1.76,1.76,0,0,0-.58.23,1.12,1.12,0,0,0-.41.4,1,1,0,0,0-.16.59,1.26,1.26,0,0,0,.12.57,1.31,1.31,0,0,0,.36.43,3,3,0,0,0,.57.38l.78.41c.3.15.59.31.86.47a4.08,4.08,0,0,1,.71.56,2.36,2.36,0,0,1,.48.67,1.93,1.93,0,0,1,.18.85,2.23,2.23,0,0,1-.24,1.07,2,2,0,0,1-.66.71,2.88,2.88,0,0,1-.95.39,5.33,5.33,0,0,1-1.15.13c-.13,0-.29,0-.49,0l-.6-.09a4.91,4.91,0,0,1-.58-.16A2,2,0,0,1,271.61,165.61Z"/><path class="cls-39" d="M230.9,6.16a11.26,11.26,0,0,1-1.17,5.08,7.65,7.65,0,0,1-4.38,3.35l-.5-.72a7.28,7.28,0,0,0,3.9-2.79,9,9,0,0,0,1.17-4.92h-5.6v-.8h5.75a1.13,1.13,0,0,1-.09-.47,1.33,1.33,0,0,1,1.35-1.34,1.26,1.26,0,0,1,1,.44,1.35,1.35,0,0,1-.09,1.9,1.32,1.32,0,0,1-.9.35A1.26,1.26,0,0,1,230.9,6.16Zm.43-2.1a.8.8,0,0,0-.62.27.81.81,0,0,0-.21.56.82.82,0,0,0,.83.83.81.81,0,0,0,.62-.27.83.83,0,0,0,.2-.56.8.8,0,0,0-.27-.62A.79.79,0,0,0,231.33,4.06Z"/><path class="cls-39" d="M235,13.47a7.19,7.19,0,0,0,3.06-1.9,8.42,8.42,0,0,0,1.85-2.83l.69.66A9.31,9.31,0,0,1,238,12.79a10.88,10.88,0,0,1-3.43,1.84l-.55-.39V4.91H235Z"/><path class="cls-39" d="M240.31,5.36h6.61c0,2.86-.54,5-1.55,6.43a8.2,8.2,0,0,1-4,2.8l-.51-.72a7.31,7.31,0,0,0,3.91-2.79,9.13,9.13,0,0,0,1.17-4.92h-5.6Z"/><path class="cls-39" d="M251,9.58a24.82,24.82,0,0,1-2.81,1.68l-.5-.68a15.39,15.39,0,0,0,5.5-4.26l.73.55a13.11,13.11,0,0,1-2,2v5.66H251Z"/><path class="cls-39" d="M254.86,7.58l.77-.34a17.88,17.88,0,0,1,1,2.62l-.79.31A14.75,14.75,0,0,0,254.86,7.58Zm1.33,6.5a6.12,6.12,0,0,0,3.22-2.64,10.1,10.1,0,0,0,1-4.42l.88.18a11.6,11.6,0,0,1-1.2,4.69,5.8,5.8,0,0,1-1.44,1.67,8.68,8.68,0,0,1-2,1.13Zm.94-7,.75-.31a15,15,0,0,1,.88,2.57l-.78.33A12.48,12.48,0,0,0,257.13,7.06Z"/><path class="cls-39" d="M265.4,6.49a11.48,11.48,0,0,1-2.21,3.45l-.69-.53a10.45,10.45,0,0,0,2.59-5l1,.15c-.08.31-.2.68-.34,1.12h4.16A12.9,12.9,0,0,1,267.57,12a9.08,9.08,0,0,1-3.8,2.66l-.52-.65a8.23,8.23,0,0,0,3.84-2.84,10.75,10.75,0,0,0,1.69-4.68Z"/><path class="cls-39" d="M275.6,10.65a10.82,10.82,0,0,1-4.29,3.79l-.52-.69a10.66,10.66,0,0,0,3.92-3.37,12.09,12.09,0,0,0,1.75-4.32h-5V5.25h6.22a16.13,16.13,0,0,1-1.58,4.6,26.93,26.93,0,0,1,2.79,4l-.88.56A22.32,22.32,0,0,0,275.6,10.65Z"/><path class="cls-39" d="M185.91,10.91v3.17h-1V5.68h2.31a3,3,0,0,1,2.09.66,2.34,2.34,0,0,1,.74,1.85,2.54,2.54,0,0,1-.82,2,3.19,3.19,0,0,1-2.23.76Zm0-4.34V10h1a2.3,2.3,0,0,0,1.55-.47A1.64,1.64,0,0,0,189,8.24c0-1.11-.66-1.67-2-1.67Z"/><path class="cls-39" d="M192.63,14.08h-1V5.68h1Z"/><path class="cls-39" d="M195.82,10.91v3.17h-1V5.68h2.31a3,3,0,0,1,2.09.66A2.31,2.31,0,0,1,200,8.19a2.54,2.54,0,0,1-.82,2,3.18,3.18,0,0,1-2.22.76Zm0-4.34V10h1a2.33,2.33,0,0,0,1.56-.47,1.67,1.67,0,0,0,.53-1.31c0-1.11-.65-1.67-2-1.67Z"/><path class="cls-39" d="M141.32,10.91v3.17h-1V5.68h2.31a3,3,0,0,1,2.09.66,2.34,2.34,0,0,1,.74,1.85,2.54,2.54,0,0,1-.82,2,3.19,3.19,0,0,1-2.23.76Zm0-4.34V10h1a2.28,2.28,0,0,0,1.55-.47,1.64,1.64,0,0,0,.54-1.31c0-1.11-.66-1.67-2-1.67Z"/><path class="cls-39" d="M148,14.08h-1V5.68h1Z"/><path class="cls-39" d="M151.23,10.91v3.17h-1V5.68h2.3a3,3,0,0,1,2.09.66,2.31,2.31,0,0,1,.74,1.85,2.54,2.54,0,0,1-.82,2,3.18,3.18,0,0,1-2.22.76Zm0-4.34V10h1a2.33,2.33,0,0,0,1.56-.47,1.67,1.67,0,0,0,.53-1.31c0-1.11-.65-1.67-2-1.67Z"/><path class="cls-39" d="M79.55,10.91v3.17h-1V5.68h2.31A3,3,0,0,1,83,6.34a2.34,2.34,0,0,1,.74,1.85,2.54,2.54,0,0,1-.82,2,3.19,3.19,0,0,1-2.23.76Zm0-4.34V10h1a2.28,2.28,0,0,0,1.55-.47,1.64,1.64,0,0,0,.54-1.31c0-1.11-.66-1.67-2-1.67Z"/><path class="cls-39" d="M86.27,14.08h-1V5.68h1Z"/><path class="cls-39" d="M89.46,10.91v3.17h-1V5.68h2.31a3,3,0,0,1,2.08.66,2.31,2.31,0,0,1,.75,1.85,2.55,2.55,0,0,1-.83,2,3.18,3.18,0,0,1-2.22.76Zm0-4.34V10h1a2.33,2.33,0,0,0,1.56-.47,1.63,1.63,0,0,0,.53-1.31c0-1.11-.65-1.67-2-1.67Z"/><path class="cls-39" d="M7.91,37.08H3.55v-8.4h1v7.51H7.91Z"/><path class="cls-39" d="M11.58,37.22a2.77,2.77,0,0,1-2.12-.84,3.11,3.11,0,0,1-.8-2.23,3.26,3.26,0,0,1,.83-2.36,3,3,0,0,1,2.23-.85,2.71,2.71,0,0,1,2.1.83,3.27,3.27,0,0,1,.75,2.29,3.23,3.23,0,0,1-.81,2.3A2.83,2.83,0,0,1,11.58,37.22Zm.07-5.47a1.81,1.81,0,0,0-1.46.63,2.59,2.59,0,0,0-.54,1.74,2.46,2.46,0,0,0,.54,1.68,1.86,1.86,0,0,0,1.46.61,1.75,1.75,0,0,0,1.43-.6,2.58,2.58,0,0,0,.51-1.72,2.63,2.63,0,0,0-.51-1.73A1.73,1.73,0,0,0,11.65,31.75Z"/><path class="cls-39" d="M20.4,37.08h-1v-.93h0a2,2,0,0,1-1.85,1.07,1.93,1.93,0,0,1-1.4-.47,1.65,1.65,0,0,1-.51-1.26c0-1.12.66-1.77,2-2l1.8-.25c0-1-.41-1.53-1.24-1.53a3,3,0,0,0-1.95.74v-1a3.75,3.75,0,0,1,2-.56c1.41,0,2.12.75,2.12,2.24Zm-1-3-1.45.2a2.35,2.35,0,0,0-1,.33,1,1,0,0,0-.34.84.93.93,0,0,0,.32.72,1.22,1.22,0,0,0,.83.27,1.51,1.51,0,0,0,1.18-.5,1.77,1.77,0,0,0,.47-1.26Z"/><path class="cls-39" d="M27.33,37.08h-1v-1h0a2.22,2.22,0,0,1-2.07,1.16,2.25,2.25,0,0,1-1.8-.8,3.33,3.33,0,0,1-.68-2.2,3.59,3.59,0,0,1,.75-2.38,2.48,2.48,0,0,1,2-.9,2,2,0,0,1,1.8,1h0V28.2h1Zm-1-2.71v-.88a1.74,1.74,0,0,0-.48-1.24,1.64,1.64,0,0,0-1.22-.5,1.66,1.66,0,0,0-1.38.65,2.77,2.77,0,0,0-.51,1.78,2.53,2.53,0,0,0,.49,1.63,1.57,1.57,0,0,0,1.3.6,1.63,1.63,0,0,0,1.3-.58A2.16,2.16,0,0,0,26.37,34.37Z"/><path class="cls-39" d="M32.69,37.08v-8.4h2.39a2.63,2.63,0,0,1,1.73.53,1.72,1.72,0,0,1,.64,1.39,2,2,0,0,1-.39,1.24,2,2,0,0,1-1.06.75v0a2.13,2.13,0,0,1,1.36.64,2,2,0,0,1,.51,1.41,2.17,2.17,0,0,1-.78,1.74,2.84,2.84,0,0,1-2,.67Zm1-7.51v2.71h1A1.93,1.93,0,0,0,36,31.89a1.34,1.34,0,0,0,.46-1.09c0-.82-.54-1.23-1.61-1.23Zm0,3.6v3H35a2,2,0,0,0,1.35-.41,1.4,1.4,0,0,0,.48-1.12c0-1-.68-1.49-2-1.49Z"/><path class="cls-39" d="M43.74,37.08h-1v-.93h0a2,2,0,0,1-1.84,1.07,2,2,0,0,1-1.41-.47,1.68,1.68,0,0,1-.5-1.26c0-1.12.66-1.77,2-2l1.8-.25c0-1-.42-1.53-1.24-1.53a3,3,0,0,0-2,.74v-1a3.76,3.76,0,0,1,2-.56c1.41,0,2.12.75,2.12,2.24Zm-1-3-1.45.2a2.3,2.3,0,0,0-1,.33,1,1,0,0,0-.34.84.93.93,0,0,0,.32.72,1.2,1.2,0,0,0,.83.27,1.51,1.51,0,0,0,1.18-.5,1.77,1.77,0,0,0,.47-1.26Z"/><path class="cls-39" d="M46.51,37.08h-1V28.2h1Z"/><path class="cls-39" d="M52.75,37.08h-1v-.93h0a2,2,0,0,1-1.85,1.07,1.93,1.93,0,0,1-1.4-.47A1.65,1.65,0,0,1,48,35.49c0-1.12.66-1.77,2-2l1.8-.25c0-1-.41-1.53-1.24-1.53a3,3,0,0,0-1.95.74v-1a3.73,3.73,0,0,1,2-.56c1.41,0,2.12.75,2.12,2.24Zm-1-3-1.45.2a2.35,2.35,0,0,0-1,.33,1,1,0,0,0-.34.84.93.93,0,0,0,.32.72,1.22,1.22,0,0,0,.83.27,1.51,1.51,0,0,0,1.18-.5,1.77,1.77,0,0,0,.47-1.26Z"/><path class="cls-39" d="M59.54,37.08h-1V33.66c0-1.27-.47-1.91-1.39-1.91a1.52,1.52,0,0,0-1.2.54,2,2,0,0,0-.47,1.37v3.42h-1v-6h1v1h0a2.17,2.17,0,0,1,2-1.14,1.83,1.83,0,0,1,1.51.64,2.79,2.79,0,0,1,.52,1.83Z"/><path class="cls-39" d="M65.44,36.81a3.19,3.19,0,0,1-1.64.41,2.68,2.68,0,0,1-2.07-.83,3,3,0,0,1-.79-2.17,3.32,3.32,0,0,1,.85-2.38,3,3,0,0,1,2.27-.9,3.06,3.06,0,0,1,1.39.3v1A2.45,2.45,0,0,0,64,31.75a2,2,0,0,0-1.51.66,2.51,2.51,0,0,0-.58,1.73,2.4,2.4,0,0,0,.55,1.67,1.91,1.91,0,0,0,1.48.6,2.39,2.39,0,0,0,1.48-.52Z"/><path class="cls-39" d="M71.72,34.32H67.48A2.28,2.28,0,0,0,68,35.87a1.87,1.87,0,0,0,1.42.54,3,3,0,0,0,1.86-.66v.9a3.5,3.5,0,0,1-2.09.57,2.54,2.54,0,0,1-2-.81,3.39,3.39,0,0,1-.73-2.3,3.29,3.29,0,0,1,.8-2.29,2.56,2.56,0,0,1,2-.88,2.28,2.28,0,0,1,1.82.76,3.2,3.2,0,0,1,.65,2.12Zm-1-.81a2,2,0,0,0-.4-1.3,1.39,1.39,0,0,0-1.1-.46,1.52,1.52,0,0,0-1.15.49,2.22,2.22,0,0,0-.59,1.27Z"/><path class="cls-39" d="M76.3,32.06a1.18,1.18,0,0,0-.73-.2,1.25,1.25,0,0,0-1,.58A2.74,2.74,0,0,0,74.13,34v3.06h-1v-6h1v1.24h0a2.17,2.17,0,0,1,.63-1,1.46,1.46,0,0,1,.94-.35,1.49,1.49,0,0,1,.58.08Z"/><path class="cls-39" d="M219.61,49.72h-1.2L214.08,43a2.94,2.94,0,0,1-.27-.53h0a8.6,8.6,0,0,1,.05,1.15v6.07h-1v-8.4h1.28l4.21,6.59.34.57h0a8.84,8.84,0,0,1-.06-1.24V41.32h1Z"/><path class="cls-39" d="M228.32,49.72h-1.09l-.89-2.35h-3.56l-.84,2.35h-1.1l3.23-8.4h1ZM226,46.48,224.7,42.9a3.14,3.14,0,0,1-.13-.56h0a3,3,0,0,1-.14.56l-1.3,3.58Z"/><path class="cls-39" d="M233.67,42.21h-2.43v7.51h-1V42.21h-2.42v-.89h5.84Z"/><path class="cls-39" d="M104.22,98.59h2v.84h-2v.93a6.56,6.56,0,0,1-1.29,4.49,6.41,6.41,0,0,1-3.34,1.72l-.5-.71a5.4,5.4,0,0,0,3.29-1.74,6,6,0,0,0,.92-3.64v-1h-3.08v3.29h-.93V99.43H97.41v-.84h1.88V96.14h.93v2.45h3.08V96.11h.92Z"/><path class="cls-39" d="M113.28,97.11a10.7,10.7,0,0,0-.65-1.47l.63-.25a17.52,17.52,0,0,1,.9,2.1l-.4.16.16.37a10.22,10.22,0,0,1-1.73,5.88,8.61,8.61,0,0,1-4,2.64l-.52-.74a7.57,7.57,0,0,0,4-2.85,9.28,9.28,0,0,0,1.2-5h-5.74v-.83Zm.76-1.77.61-.23a9.82,9.82,0,0,1,.88,2l-.64.26A11.3,11.3,0,0,0,114,95.34Z"/><path class="cls-39" d="M120.85,97.69h2.78l.27.59a18.93,18.93,0,0,1-3,3v5.21h-.94V102a20.2,20.2,0,0,1-3.71,2l-.51-.7a16.73,16.73,0,0,0,6.78-4.83h-6v-.83h3.42V95.9h.95Zm.82,4,.55-.63a20.3,20.3,0,0,1,2.76,2.16l-.6.79A18.07,18.07,0,0,0,121.67,101.73Z"/><path class="cls-39" d="M125.2,99.28l.79-.35a18.28,18.28,0,0,1,1,2.71l-.81.33A15.06,15.06,0,0,0,125.2,99.28Zm1.36,6.74a6.22,6.22,0,0,0,3.3-2.74,10.55,10.55,0,0,0,1.07-4.58l.9.19a12,12,0,0,1-1.23,4.85,5.92,5.92,0,0,1-1.47,1.74,8.63,8.63,0,0,1-2,1.17Zm1-7.27.78-.33a16.1,16.1,0,0,1,.9,2.66l-.81.35A12.41,12.41,0,0,0,127.52,98.75Z"/><path class="cls-39" d="M134.8,100.61v5.91h-.94V96.09h.94v3.6a18.89,18.89,0,0,1,4.68,2l-.47.9A15.43,15.43,0,0,0,134.8,100.61Z"/><path class="cls-39" d="M151.21,106h-1.12l-.91-2.44h-3.65l-.85,2.44h-1.13l3.3-8.71h1.05Zm-2.36-3.36L147.5,99a3.47,3.47,0,0,1-.13-.58h0a3.29,3.29,0,0,1-.14.58l-1.34,3.71Z"/><path class="cls-39" d="M222.75,98.66h1.93v.8h-1.93v.9a6.26,6.26,0,0,1-1.26,4.32,6.43,6.43,0,0,1-3.27,1.65l-.48-.68A5.27,5.27,0,0,0,221,104a5.7,5.7,0,0,0,.9-3.5v-1h-3v3.17h-.9V99.46H216.1v-.8h1.84V96.29h.9v2.37h3V96.27h.9Z"/><path class="cls-39" d="M231.6,97.23a10.4,10.4,0,0,0-.64-1.42l.61-.24a15.9,15.9,0,0,1,.89,2l-.4.16.16.36a9.7,9.7,0,0,1-1.68,5.65,8.51,8.51,0,0,1-3.87,2.55l-.51-.72a7.33,7.33,0,0,0,3.9-2.74A8.66,8.66,0,0,0,231.23,98h-5.6v-.8Zm.74-1.71.6-.21a9.7,9.7,0,0,1,.85,2l-.62.25A12.08,12.08,0,0,0,232.34,95.52Z"/><path class="cls-39" d="M239,97.79h2.71l.26.57a18.43,18.43,0,0,1-3,2.92v5h-.92V102a19.17,19.17,0,0,1-3.62,2l-.49-.68a16.32,16.32,0,0,0,6.61-4.64h-5.87v-.8h3.34V96.06H239Zm.8,3.88.54-.61a21.71,21.71,0,0,1,2.69,2.08l-.59.77A16.59,16.59,0,0,0,239.79,101.67Z"/><path class="cls-39" d="M243.24,99.32,244,99a16.26,16.26,0,0,1,1,2.61l-.79.31A13.91,13.91,0,0,0,243.24,99.32Zm1.33,6.48a6.1,6.1,0,0,0,3.22-2.63,10,10,0,0,0,1-4.41l.88.18a11.5,11.5,0,0,1-1.2,4.67,5.67,5.67,0,0,1-1.44,1.67,8.68,8.68,0,0,1-2,1.13Zm.94-7,.75-.31a15.13,15.13,0,0,1,.88,2.56l-.78.34A12.29,12.29,0,0,0,245.51,98.8Z"/><path class="cls-39" d="M252.62,100.6v5.68h-.93v-10h.93v3.47a18.94,18.94,0,0,1,4.57,1.9l-.46.87A15.12,15.12,0,0,0,252.62,100.6Z"/><path class="cls-39" d="M262.13,105.8V97.42h2.39a2.58,2.58,0,0,1,1.73.54,1.69,1.69,0,0,1,.64,1.38,2,2,0,0,1-.39,1.24,2.11,2.11,0,0,1-1.06.75v0a2.13,2.13,0,0,1,1.35.64,2,2,0,0,1,.51,1.41,2.19,2.19,0,0,1-.77,1.74,2.88,2.88,0,0,1-1.95.66Zm1-7.49V101h1a1.94,1.94,0,0,0,1.28-.39,1.37,1.37,0,0,0,.46-1.1c0-.81-.54-1.22-1.61-1.22Zm0,3.59v3h1.33a2,2,0,0,0,1.35-.41,1.44,1.44,0,0,0,.47-1.13c0-1-.67-1.48-2-1.48Z"/><path class="cls-39" d="M59.66,213.83a.26.26,0,0,1-.11.17,1.18,1.18,0,0,0-.26.45,17.17,17.17,0,0,1-.84,1.84v6.07l0,1.92c0,.06,0,.09-.1.09H57.8a.08.08,0,0,1-.09-.09l0-1.92v-3.15c0-.76,0-1.33,0-1.73A14.22,14.22,0,0,1,56.62,219c-.08.09-.12.13-.14.13s-.06,0-.1-.1a1.55,1.55,0,0,0-.33-.52,12.53,12.53,0,0,0,2.53-4.27,3.07,3.07,0,0,0,.21-.83,5,5,0,0,1,.72.27C59.61,213.72,59.66,213.76,59.66,213.83Zm7.76,9.68a1.73,1.73,0,0,0-.35.48c-.06.12-.11.18-.14.18l-.19-.08a12,12,0,0,1-2.79-2,9.19,9.19,0,0,1-2.72,2.11.46.46,0,0,1-.18.07s-.09-.06-.17-.17a1.79,1.79,0,0,0-.37-.4,9.2,9.2,0,0,0,3-2.14,8.19,8.19,0,0,1-1.72-3.69h-.56a15.88,15.88,0,0,1-.25,2.88,7.74,7.74,0,0,1-1.46,3.37c-.08.11-.13.16-.17.16s-.08-.05-.14-.14a1.59,1.59,0,0,0-.39-.39,6.55,6.55,0,0,0,1.46-3.21,20.93,20.93,0,0,0,.23-3.62l0-2.55a.08.08,0,0,1,.09-.09l1.66,0h3.18l1.64,0c.06,0,.08,0,.08.09v.54c0,.07,0,.1-.08.1l-1.64,0H61.18v2.24h4.11a.75.75,0,0,0,.27,0,.47.47,0,0,1,.16,0,.89.89,0,0,1,.34.23q.24.22.24.33a.21.21,0,0,1-.1.16,1.55,1.55,0,0,0-.26.49,12.07,12.07,0,0,1-1.56,3.18A11.14,11.14,0,0,0,67.42,223.51Zm-2.07-5.67h-3A7.49,7.49,0,0,0,63.89,221,9.66,9.66,0,0,0,65.35,217.84Z"/><path class="cls-39" d="M73.31,218a2.24,2.24,0,0,0-.28.37c-.06.11-.11.16-.15.16s-.09,0-.15-.12a6.5,6.5,0,0,1-1.27-1.78c0,2.15.06,3.34.06,3.55s0,.1-.09.1H70.9c-.07,0-.1,0-.1-.1s0-.43,0-1.18,0-1.55,0-2.22a7,7,0,0,1-1.92,2.45.26.26,0,0,1-.16.08s-.09,0-.16-.16a1.67,1.67,0,0,0-.34-.36A7.61,7.61,0,0,0,70.71,216h-.64l-1.36,0a.09.09,0,0,1-.1-.1v-.47a.09.09,0,0,1,.1-.1l1.36,0h.75v-.77a6.14,6.14,0,0,0-.07-1.14c.21,0,.45,0,.73.07.09,0,.13,0,.13.09a.77.77,0,0,1,0,.19,2.89,2.89,0,0,0-.06.78v.78h.33l1.34,0c.07,0,.11,0,.11.1v.47c0,.07,0,.1-.11.1l-1.34,0h-.3A7.16,7.16,0,0,0,73.31,218Zm-2.91,3.3a7.33,7.33,0,0,1-1.17,2.23s0,.05-.07.05a.28.28,0,0,1-.12-.05l-.34-.21c-.08-.05-.13-.09-.13-.12a.15.15,0,0,1,.05-.08,5.76,5.76,0,0,0,1.11-2.08c0-.06,0-.08.07-.08a.38.38,0,0,1,.16.05l.3.12q.15.08.15.12A.11.11,0,0,1,70.4,221.34Zm6.28,1.23a1.61,1.61,0,0,1-.63,1.24,2.27,2.27,0,0,1-.91.27,12.64,12.64,0,0,1-1.27,0,4.83,4.83,0,0,1-1.87-.21,1,1,0,0,1-.36-.36,1.77,1.77,0,0,1-.1-.65V221.6a5,5,0,0,0-.07-.93,5.59,5.59,0,0,1,.74.08c.11,0,.16.06.16.12l-.06.16a2.06,2.06,0,0,0-.06.6v1.05c0,.33.07.53.21.62a3.61,3.61,0,0,0,1.41.17,3.69,3.69,0,0,0,1.72-.25c.25-.15.4-.56.45-1.21a2.15,2.15,0,0,0,.48.24q.18.08.18.18A.45.45,0,0,1,76.68,222.57ZM75,221.75a.29.29,0,0,1,0,.1s0,.07-.11.12l-.29.2a.54.54,0,0,1-.15.08s-.06,0-.09-.07a6.9,6.9,0,0,0-1.3-1.52s0,0,0-.07,0-.06.1-.11l.29-.19a.16.16,0,0,1,.1,0,.14.14,0,0,1,.09,0A7.51,7.51,0,0,1,75,221.75Zm3.22-1.67a.09.09,0,0,1-.1.1l-1.31,0H75.27l-1.31,0a.1.1,0,0,1-.11-.1l0-1.44v-3.08l0-1.45c0-.07,0-.1.11-.1l1.31,0h1.54l1.31,0c.07,0,.1,0,.1.1l0,1.45v3.08Zm-.71-4.25v-1.17h-3v1.17Zm0,1.81v-1.22h-3v1.22Zm0,1.9v-1.3h-3v1.3ZM79,223l0,.05s0,.08-.13.13l-.35.22a.54.54,0,0,1-.16.08s0,0-.07-.06A9,9,0,0,0,77,221.22s0-.05,0-.07,0-.06.12-.1l.31-.18a.28.28,0,0,1,.13-.06s.06,0,.09.07A11.18,11.18,0,0,1,79,223Z"/><path class="cls-39" d="M61.27,228.55H64l.26.59a19.33,19.33,0,0,1-3,3v5.11h-.93v-4.41a19.66,19.66,0,0,1-3.63,2l-.5-.69a16.45,16.45,0,0,0,6.65-4.73H57v-.82h3.36V226.8h.93Zm.8,4,.54-.62a21.09,21.09,0,0,1,2.7,2.12l-.59.78A17.91,17.91,0,0,0,62.07,232.51Z"/><path class="cls-39" d="M65.57,230.11l.77-.34a16.6,16.6,0,0,1,1,2.66l-.79.31A15.5,15.5,0,0,0,65.57,230.11Zm1.34,6.61A6.16,6.16,0,0,0,70.14,234a10.28,10.28,0,0,0,1-4.5l.89.19a11.75,11.75,0,0,1-1.21,4.76,5.79,5.79,0,0,1-1.44,1.7,8.77,8.77,0,0,1-2,1.15Zm.94-7.13.76-.32a16.83,16.83,0,0,1,.88,2.61l-.79.34A12.71,12.71,0,0,0,67.85,229.59Z"/><path class="cls-39" d="M75,231.42v5.79H74.1V227H75v3.54a18.51,18.51,0,0,1,4.59,1.93l-.46.88A15,15,0,0,0,75,231.42Z"/><path class="cls-39" d="M81.86,228.53v3.55h-.92v-4.37h6.82a18.55,18.55,0,0,1-.66,5.73,5.76,5.76,0,0,1-1.61,2.41,7,7,0,0,1-2.4,1.41l-.59-.67a5.43,5.43,0,0,0,3.7-3.35,15,15,0,0,0,.6-4.71Z"/><path class="cls-39" d="M89,231.72h6.55v.91H89Z"/><path class="cls-39" d="M99.67,229a11.63,11.63,0,0,1-2.22,3.5l-.69-.53a10.73,10.73,0,0,0,2.6-5.08l1,.15c-.08.32-.2.7-.34,1.15h4.17a13,13,0,0,1-2.3,6.4,9.07,9.07,0,0,1-3.8,2.71l-.53-.66a8.42,8.42,0,0,0,3.86-2.89,11,11,0,0,0,1.69-4.75Z"/><path class="cls-39" d="M184.2,219.9a3,3,0,0,0-.31.45c-.06.14-.12.21-.17.21a.55.55,0,0,1-.19-.07,12.51,12.51,0,0,1-3.15-1.92,8.57,8.57,0,0,1-1.92-2.43,11,11,0,0,1-4.88,4.37.57.57,0,0,1-.2.07s-.09-.07-.18-.2a1.44,1.44,0,0,0-.32-.38,12.14,12.14,0,0,0,2.77-1.61,9.71,9.71,0,0,0-1.46-1.28s-.05,0-.05-.06,0-.05.07-.1l.29-.27c.05,0,.08-.07.11-.07l.07,0a10.57,10.57,0,0,1,1.5,1.3,7.7,7.7,0,0,0,1.59-2H176l-1.29,0c-.08,0-.12,0-.12-.1v-.48c0-.07,0-.1.12-.1l1.29,0h1.7l1,0a.17.17,0,0,1,.16.13,5.46,5.46,0,0,0,.61,1.13,6.37,6.37,0,0,0,.44.58,8.43,8.43,0,0,0,1-1.08,2.72,2.72,0,0,0,.31-.5,3.32,3.32,0,0,1,.62.4.22.22,0,0,1,.08.15c0,.05,0,.1-.11.13a1.11,1.11,0,0,0-.39.32c-.35.37-.72.72-1.1,1a7.74,7.74,0,0,0,.91.76,10.86,10.86,0,0,0,1.24-1.17,4,4,0,0,0,.34-.5,3.92,3.92,0,0,1,.6.38.22.22,0,0,1,.1.17s-.05.1-.14.14a1.09,1.09,0,0,0-.37.3,16.08,16.08,0,0,1-1.21,1.06A12.1,12.1,0,0,0,184.2,219.9Zm-.42,4.22a4,4,0,0,1-.24,1,1.05,1.05,0,0,1-.4.46,3.82,3.82,0,0,1-1.73.25,4.27,4.27,0,0,1-1.72-.21.81.81,0,0,1-.33-.36,1.82,1.82,0,0,1-.07-.59v-2.33h-1.91a4.16,4.16,0,0,1-1.19,2.35A6.23,6.23,0,0,1,174,225.9a.58.58,0,0,1-.19,0s-.12-.06-.2-.18a1.62,1.62,0,0,0-.4-.43,6,6,0,0,0,2.46-1.15,3.37,3.37,0,0,0,1-1.84h-1.15l-1.73,0c-.07,0-.1,0-.1-.1v-.5a.09.09,0,0,1,.1-.1l1.73,0h1.24a12.53,12.53,0,0,0,.08-1.45v-.32h-1c-.07,0-.1,0-.1-.1v-.47c0-.08,0-.11.1-.11l1.51,0h2.33l1.56,0c.07,0,.1,0,.1.11v.47c0,.07,0,.1-.1.1H180v1.77h1.47l1.74,0a.09.09,0,0,1,.1.1v.5c0,.07,0,.1-.1.1l-1.74,0H180v2.12c0,.3.05.48.16.56a3.16,3.16,0,0,0,1.22.14,2.49,2.49,0,0,0,1.29-.2c.22-.15.35-.62.39-1.39a2,2,0,0,0,.49.24q.21.08.21.18A.72.72,0,0,1,183.78,224.12Zm-4.49-2.42v-1.77h-1.75v.32c0,.49,0,1-.06,1.45Z"/><path class="cls-39" d="M188.74,215.14a.28.28,0,0,1-.09.19,1.43,1.43,0,0,0-.24.49q-.39,1.08-.72,1.8V224l0,2c0,.07,0,.1-.1.1H187c-.06,0-.09,0-.09-.1l0-2v-3.18c0-.79,0-1.41,0-1.83a15.14,15.14,0,0,1-1.11,1.62c-.08.09-.14.14-.17.14s-.06-.05-.1-.14a1.21,1.21,0,0,0-.31-.48,13.42,13.42,0,0,0,2.41-4.51,3.55,3.55,0,0,0,.17-.85,4.21,4.21,0,0,1,.73.22C188.69,215.05,188.74,215.1,188.74,215.14Zm8,2.75a.1.1,0,0,1-.11.1l-1.75,0h-4.42l-1.75,0a.09.09,0,0,1-.1-.1v-.53a.09.09,0,0,1,.1-.1l1.75,0h4.42l1.75,0c.07,0,.11,0,.11.1Zm-1.19,8c0,.06,0,.09-.08.09h-.59c-.07,0-.1,0-.1-.09v-.52h-4.51V226c0,.07,0,.1-.09.1h-.57c-.07,0-.1,0-.1-.1l0-1.53v-.93l0-1c0-.06,0-.09.1-.09l1.63,0h2.61l1.62,0c.06,0,.08,0,.08.09l0,.91v1Zm-.26-6.35c0,.06,0,.09-.1.09l-1.52,0h-2.27l-1.52,0c-.07,0-.11,0-.11-.09v-.49c0-.07,0-.1.11-.1l1.52,0h2.27l1.52,0a.09.09,0,0,1,.1.1Zm0,1.69c0,.06,0,.09-.1.09l-1.52,0h-2.27l-1.52,0c-.07,0-.11,0-.11-.09v-.49c0-.07,0-.1.11-.1l1.52,0h2.27l1.52,0a.09.09,0,0,1,.1.1Zm.11-5.08c0,.06,0,.08-.11.08l-1.52,0h-2.34l-1.54,0c-.07,0-.1,0-.1-.08v-.51c0-.07,0-.1.1-.1l1.54,0h2.34l1.52,0c.07,0,.11,0,.11.1Zm-.62,8.58V223h-4.51v1.73Z"/><path class="cls-39" d="M208.77,223.49q-.12,1.44-.6,1.8a1.66,1.66,0,0,1-.76.33,7.57,7.57,0,0,1-1.09.06,4.22,4.22,0,0,1-1.63-.2.83.83,0,0,1-.44-.4,2,2,0,0,1-.12-.8v-4.54h-2.07a7.61,7.61,0,0,1-.91,4.09,6.19,6.19,0,0,1-2.69,1.95.81.81,0,0,1-.22.06s-.1-.06-.18-.17a2.23,2.23,0,0,0-.41-.48,7,7,0,0,0,2.15-1.08,3.45,3.45,0,0,0,1.12-1.68,9.33,9.33,0,0,0,.34-2.69h-1.74l-1.65,0c-.07,0-.1,0-.1-.1v-.58a.09.09,0,0,1,.1-.1l1.65,0h7.3l1.65,0a.09.09,0,0,1,.1.1v.58c0,.07,0,.1-.1.1l-1.65,0H205v4.31a2,2,0,0,0,.05.61.36.36,0,0,0,.23.2,4.37,4.37,0,0,0,1.11.1,3.27,3.27,0,0,0,.83-.07,1,1,0,0,0,.46-.22,3.16,3.16,0,0,0,.39-1.78,3,3,0,0,0,.56.3c.14.06.2.12.2.18A.68.68,0,0,1,208.77,223.49Zm-1.41-7a.09.09,0,0,1-.1.1l-1.78,0h-4.55l-1.77,0c-.07,0-.1,0-.1-.1v-.59a.09.09,0,0,1,.1-.1l1.77,0h4.55l1.78,0a.09.09,0,0,1,.1.1Z"/><path class="cls-39" d="M215,217a19.75,19.75,0,0,1-1.32,6.58,1.89,1.89,0,0,1-1.7,1.32,1.55,1.55,0,0,1-1.43-.94,5.35,5.35,0,0,1-.48-2.49,6.61,6.61,0,0,1,.41-2.34,4.59,4.59,0,0,1,.93-1.54,4.17,4.17,0,0,1,1.53-1,4.86,4.86,0,0,1,1.76-.33,3.72,3.72,0,0,1,3.18,1.34,5.7,5.7,0,0,1,.86,3.4,4.54,4.54,0,0,1-1,3,5,5,0,0,1-2.92,1.6l-.43-.76a3.78,3.78,0,0,0,3.42-4.11,4.2,4.2,0,0,0-.92-2.95A2.53,2.53,0,0,0,215,217Zm-.94.1a2.68,2.68,0,0,0-1.15.36,4.11,4.11,0,0,0-1,.83,4.71,4.71,0,0,0-1,3.2,4.2,4.2,0,0,0,.36,1.9c.2.36.42.55.67.55a.75.75,0,0,0,.56-.23,2.47,2.47,0,0,0,.4-.68A17.78,17.78,0,0,0,214.05,217.13Z"/><path class="cls-39" d="M219.46,216.12h6.89c0,3-.56,5.21-1.61,6.7a8.67,8.67,0,0,1-4.2,2.91L220,225a7.63,7.63,0,0,0,4.07-2.9A9.49,9.49,0,0,0,225.3,217h-5.84Z"/><path class="cls-39" d="M228.09,225.13v-8.94h6.52v8.94Zm5.56-.84V217H229v7.26Z"/><path class="cls-39" d="M236.36,220.08h6.8V221h-6.8Z"/><path class="cls-39" d="M249.49,217a19.75,19.75,0,0,1-1.32,6.58,1.89,1.89,0,0,1-1.7,1.32A1.55,1.55,0,0,1,245,224a5.35,5.35,0,0,1-.48-2.49,6.61,6.61,0,0,1,.41-2.34,4.59,4.59,0,0,1,.93-1.54,4.17,4.17,0,0,1,1.53-1,4.86,4.86,0,0,1,1.76-.33,3.72,3.72,0,0,1,3.18,1.34,5.7,5.7,0,0,1,.86,3.4,4.54,4.54,0,0,1-1,3,5,5,0,0,1-2.92,1.6l-.43-.76a3.78,3.78,0,0,0,3.42-4.11,4.2,4.2,0,0,0-.92-2.95A2.53,2.53,0,0,0,249.49,217Zm-.94.1a2.68,2.68,0,0,0-1.15.36,4.11,4.11,0,0,0-1,.83,4.71,4.71,0,0,0-1,3.2,4.2,4.2,0,0,0,.36,1.9c.2.36.42.55.67.55a.75.75,0,0,0,.56-.23,2.47,2.47,0,0,0,.4-.68A17.78,17.78,0,0,0,248.55,217.13Z"/><path class="cls-39" d="M265.3,217.81a.1.1,0,0,1-.11.1l-1.62,0h-4.45c0,.69-.08,1.32-.15,1.91h3.15l1.46,0c.08,0,.12,0,.12.1v0l-.07.87a25.8,25.8,0,0,1-.45,3.77,1.7,1.7,0,0,1-.58,1,1.63,1.63,0,0,1-1,.24,11.45,11.45,0,0,1-1.2-.07.38.38,0,0,1-.22-.06,1.09,1.09,0,0,1,0-.23,1.37,1.37,0,0,0-.18-.59,9.42,9.42,0,0,0,1.59.15c.42,0,.7-.25.83-.76a21.71,21.71,0,0,0,.42-3.75h-4a7.51,7.51,0,0,1-1.35,3.3,8.16,8.16,0,0,1-2.49,2,.44.44,0,0,1-.19.07s-.11-.06-.19-.2a1.7,1.7,0,0,0-.46-.39,6.81,6.81,0,0,0,3.28-3,10.67,10.67,0,0,0,.82-4.49h-2.2l-1.62,0a.09.09,0,0,1-.1-.1v-.58c0-.07,0-.1.1-.1l1.62,0h3.23v-1a6.17,6.17,0,0,0-.09-1.29,5.9,5.9,0,0,1,.87.07c.09,0,.14.05.14.1a.76.76,0,0,1-.07.24,3.45,3.45,0,0,0-.06.87v1h3.46l1.62,0c.07,0,.11,0,.11.1Z"/><path class="cls-39" d="M276.73,217.24l0,2v5.51a1.06,1.06,0,0,1-.29.82,3.23,3.23,0,0,1-1.59.23c-.13,0-.21,0-.23,0s0-.08-.07-.2a2.14,2.14,0,0,0-.25-.55c.44,0,.78,0,1,0a.75.75,0,0,0,.49-.11.44.44,0,0,0,.13-.35v-6.72h-8.09v6.08l0,1.84c0,.07,0,.1-.1.1h-.62c-.07,0-.1,0-.1-.1l0-1.9v-4.7l0-1.94a.09.09,0,0,1,.1-.1l1.76,0h1.3c.32-.56.58-1.08.79-1.55a3.52,3.52,0,0,0,.21-.72,6.63,6.63,0,0,1,.8.2q.12.06.12.15a.19.19,0,0,1-.1.15.83.83,0,0,0-.18.25c-.25.53-.51,1-.79,1.52h3.83l1.75,0A.1.1,0,0,1,276.73,217.24ZM274,223.7c0,.07,0,.1-.1.1h-.53c-.07,0-.11,0-.11-.1v-.53h-2.88v.62a.09.09,0,0,1-.1.1h-.53c-.07,0-.1,0-.1-.1l0-2v-.94l0-1.26c0-.07,0-.1.1-.1l1.32,0h1.52l1.31,0c.07,0,.1,0,.1.1l0,1.1v1.05Zm-.74-1.2v-2.34h-2.88v2.34Z"/><path class="cls-39" d="M175.9,240.4H175a7.81,7.81,0,0,1-1.89-5.33,8.12,8.12,0,0,1,1.89-5.42h.91a8.24,8.24,0,0,0-1.92,5.41A8.11,8.11,0,0,0,175.9,240.4Z"/><path class="cls-39" d="M178,229.65v2.73h-.89v-2.73Zm2,0v2.73h-.88v-2.73Z"/><path class="cls-39" d="M192.24,235.28c0,.06,0,.09-.1.09l-1.6,0h-1.38a6.51,6.51,0,0,1-1.3,1.86c.85.29,1.94.73,3.27,1.34q.06,0,.06.06a.3.3,0,0,1-.06.14l-.25.35c-.08.11-.13.16-.16.16l-.06,0a22.33,22.33,0,0,0-3.38-1.53,10.26,10.26,0,0,1-5.17,1.58H182a.19.19,0,0,1-.16,0,1,1,0,0,1-.1-.18,1.22,1.22,0,0,0-.3-.42,10.86,10.86,0,0,0,5-1.2c-.78-.22-1.51-.39-2.19-.52-.08.1-.17.22-.29.35a.25.25,0,0,1-.17.08h-.11l-.42-.11c-.06,0-.09,0-.09-.08a.5.5,0,0,1,.12-.17c.18-.19.37-.42.58-.69s.43-.57.69-.94h-1.68l-1.6,0c-.07,0-.1,0-.1-.09v-.52c0-.07,0-.1.1-.1l1.6,0h2.1l.16-.27a3.8,3.8,0,0,0,.45-1,3.38,3.38,0,0,1,.76.2c.09,0,.13.08.13.13s0,.11-.12.17a1.74,1.74,0,0,0-.42.54l-.14.23h4.78l1.6,0c.07,0,.1,0,.1.1Zm-.16-6.06c0,.07,0,.1-.1.1l-1.65,0h-2.08v1.23h.85l1.8,0a.08.08,0,0,1,.09.09l0,.92v.86l0,.91c0,.07,0,.1-.09.1l-1.8,0h-4.82l-1.8,0c-.07,0-.1,0-.1-.1l0-.91v-.86l0-.92c0-.06,0-.09.1-.09l1.8,0H185v-1.23H183.1l-1.65,0c-.07,0-.11,0-.11-.1v-.53c0-.07,0-.1.11-.1l1.65,0h7.23l1.65,0c.07,0,.1,0,.1.1ZM185,232.77v-1.66h-1.84v1.66Zm3.34,2.58h-3c-.29.45-.52.79-.7,1,.9.18,1.71.38,2.43.59A5.31,5.31,0,0,0,188.31,235.35Zm-.76-4.83v-1.23h-1.88v1.23Zm0,2.25v-1.66h-1.88v1.66Zm2.69,0v-1.66h-2v1.66Z"/><path class="cls-39" d="M204,237.61a1.57,1.57,0,0,0-.44.49c-.08.1-.13.15-.17.15a.61.61,0,0,1-.17-.08,10.07,10.07,0,0,1-4.48-5.82c.05,3.17.08,5.07.08,5.71a1,1,0,0,1-.44.94,3.9,3.9,0,0,1-1.51.21.41.41,0,0,1-.22,0,.82.82,0,0,1-.08-.21,1.51,1.51,0,0,0-.29-.58c.4,0,.7.05.91.05a1.2,1.2,0,0,0,.69-.13.59.59,0,0,0,.15-.47v-6.57h-3.15l-1.65,0c-.06,0-.1,0-.1-.09v-.56a.09.09,0,0,1,.1-.1l1.65,0H198v-.95a8.18,8.18,0,0,0-.09-1.5c.32,0,.59,0,.84.07.09,0,.14,0,.14.1a.65.65,0,0,1-.06.26,5.13,5.13,0,0,0-.06,1.05v1H202l1.66,0a.09.09,0,0,1,.1.1v.56c0,.06,0,.09-.1.09l-1.66,0h-3.12a11.93,11.93,0,0,0,1.26,2.83,12,12,0,0,0,1.61-1.67,1.78,1.78,0,0,0,.33-.57,2.81,2.81,0,0,1,.64.45.21.21,0,0,1,.1.17c0,.05-.05.1-.14.16a2.89,2.89,0,0,0-.57.51,14.56,14.56,0,0,1-1.6,1.52A10.15,10.15,0,0,0,204,237.61Zm-6.64-2.33a1.29,1.29,0,0,1,0,.19c0,.05-.06.13-.18.21a27.19,27.19,0,0,1-2.88,1.77,2,2,0,0,0-.43.27.28.28,0,0,1-.17.1s-.09,0-.15-.12c-.13-.24-.25-.47-.34-.68a6.68,6.68,0,0,0,.92-.38,22.46,22.46,0,0,0,3.15-1.87A2,2,0,0,0,197.34,235.28Zm-.88-1.6s0,.06,0,.08a.2.2,0,0,1-.07.11l-.33.31c-.08.08-.13.12-.16.12s0,0-.05-.05a6.61,6.61,0,0,0-1.53-1.71s-.05-.06-.05-.08,0-.06.11-.13l.28-.26a.26.26,0,0,1,.12-.07l.07,0A7.76,7.76,0,0,1,196.46,233.68Zm5.92-4.1a.07.07,0,0,1,0,.06s0,.09-.12.15l-.24.22a.4.4,0,0,1-.17.11.15.15,0,0,1-.08-.05,6,6,0,0,0-1.47-1.25s-.06-.06-.06-.08,0-.06.1-.12l.26-.22a.18.18,0,0,1,.1-.06l.08,0A7.26,7.26,0,0,1,202.38,229.58Z"/><path class="cls-39" d="M206.39,229.65v2.73h-.89v-2.73Zm2,0v2.73h-.88v-2.73Z"/><path class="cls-39" d="M210.53,240.4h-.89a8.11,8.11,0,0,0,1.91-5.34,8.24,8.24,0,0,0-1.92-5.41h.9a8.08,8.08,0,0,1,1.91,5.42A7.78,7.78,0,0,1,210.53,240.4Z"/><path class="cls-39" d="M184.18,265.67a1.23,1.23,0,0,0-.24.58.54.54,0,0,1-.07.22.44.44,0,0,1-.22,0c-1.62.11-3.1.16-4.44.16a7.75,7.75,0,0,1-3.07-.42A2.35,2.35,0,0,1,175,265a11.94,11.94,0,0,1-1.35,1.23,1.53,1.53,0,0,0-.26.26c-.05.07-.1.11-.15.11a.19.19,0,0,1-.15-.1,5.59,5.59,0,0,1-.36-.68,5.08,5.08,0,0,0,.76-.45,8.66,8.66,0,0,0,1.17-1v-3.11h-.93l-.86,0c-.08,0-.11,0-.11-.12v-.53c0-.07,0-.1.11-.1l.86,0h.68l.9,0a.09.09,0,0,1,.1.1l0,1.17v2.57a2.15,2.15,0,0,0,1.08,1.22,6.9,6.9,0,0,0,2.5.32Q181.47,265.94,184.18,265.67Zm-8.7-7.59a.2.2,0,0,1,0,.08s0,.07-.11.12l-.3.24a.27.27,0,0,1-.15.08s0,0-.09-.06a13.36,13.36,0,0,0-1.57-1.87.15.15,0,0,1,0-.08s0-.06.11-.12l.29-.21a.33.33,0,0,1,.13-.08s0,0,.08.05A13.91,13.91,0,0,1,175.48,258.08Zm8.5,6.29a1.59,1.59,0,0,0-.33.51c-.06.13-.11.2-.16.2l-.17-.06a11.12,11.12,0,0,1-2.76-1.74A9,9,0,0,1,178,265a.46.46,0,0,1-.17.06s-.11-.05-.19-.16a1.3,1.3,0,0,0-.4-.38,9,9,0,0,0,2.83-1.79,7.56,7.56,0,0,1-1.68-3h-.53a19,19,0,0,1-.15,2,7,7,0,0,1-1.15,3.11c-.06.11-.1.16-.14.16s-.08-.05-.16-.14a2.08,2.08,0,0,0-.43-.34,6.33,6.33,0,0,0,1.18-3.06,23.65,23.65,0,0,0,.15-3.17l0-1.72c0-.07,0-.11.09-.11l1.68,0h3l1.65,0c.06,0,.09,0,.09.1v.55a.08.08,0,0,1-.09.09l-1.65,0h-4v1.91H182a.54.54,0,0,0,.25,0l.13,0c.08,0,.2.09.36.25s.22.26.22.33,0,.09-.1.14a1.46,1.46,0,0,0-.25.43,10,10,0,0,1-1.53,2.6A9.54,9.54,0,0,0,184,264.37Zm-2-4.65H179a6.82,6.82,0,0,0,1.51,2.52A9,9,0,0,0,182,259.72Z"/><path class="cls-39" d="M187.82,256a.28.28,0,0,1-.1.18,1.54,1.54,0,0,0-.24.49c-.26.72-.49,1.32-.71,1.8v6.4l0,2c0,.06,0,.09-.1.09h-.6a.08.08,0,0,1-.09-.09l0-2v-3.17c0-.8,0-1.41,0-1.84a14.2,14.2,0,0,1-1.11,1.62c-.08.1-.14.14-.17.14s-.06,0-.09-.14a1.35,1.35,0,0,0-.32-.48,13.48,13.48,0,0,0,2.42-4.5,4.19,4.19,0,0,0,.16-.85,4.23,4.23,0,0,1,.73.21C187.76,255.92,187.82,256,187.82,256Zm8,2.74c0,.07,0,.1-.11.1l-1.75,0h-4.42l-1.75,0c-.06,0-.09,0-.09-.1v-.53c0-.06,0-.1.09-.1l1.75,0H194l1.75,0a.1.1,0,0,1,.11.1Zm-1.18,8a.08.08,0,0,1-.09.09H194c-.07,0-.1,0-.1-.09v-.52h-4.5v.56a.09.09,0,0,1-.1.1h-.57a.09.09,0,0,1-.1-.1l0-1.53v-.93l0-1c0-.05,0-.08.1-.08l1.63,0h2.61l1.62,0c.06,0,.09,0,.09.08l0,.91v1Zm-.27-6.35a.09.09,0,0,1-.1.1l-1.51,0H190.5l-1.53,0c-.07,0-.1,0-.1-.1v-.49a.09.09,0,0,1,.1-.1l1.53,0h2.27l1.51,0a.09.09,0,0,1,.1.1Zm0,1.69a.09.09,0,0,1-.1.1l-1.51,0H190.5l-1.53,0c-.07,0-.1,0-.1-.1v-.49a.09.09,0,0,1,.1-.1l1.53,0h2.27l1.51,0a.09.09,0,0,1,.1.1Zm.11-5.08c0,.06,0,.09-.11.09l-1.52,0h-2.34l-1.54,0c-.07,0-.1,0-.1-.09v-.51a.09.09,0,0,1,.1-.1l1.54,0h2.34l1.52,0a.1.1,0,0,1,.11.1Zm-.62,8.58V263.9h-4.5v1.72Z"/><path class="cls-39" d="M207,256.5l0,2v7.22a1,1,0,0,1-.37.87,3.09,3.09,0,0,1-1.55.25.51.51,0,0,1-.24,0,.61.61,0,0,1-.07-.21,1.54,1.54,0,0,0-.23-.58c.38,0,.8,0,1.24,0s.44-.17.44-.5v-2.64h-3.49v1.49l0,2.07c0,.07,0,.11-.1.11H202c-.07,0-.1,0-.1-.11l0-2.07v-1.49h-3.36a8.43,8.43,0,0,1-.48,2.29,7.48,7.48,0,0,1-.79,1.44q-.1.15-.15.15s-.09,0-.17-.13a2.82,2.82,0,0,0-.53-.31,5.84,5.84,0,0,0,1.15-2.36,16.33,16.33,0,0,0,.32-3.63v-1.87l0-2c0-.07,0-.1.1-.1l1.77,0h5.31l1.79,0C206.94,256.4,207,256.43,207,256.5Zm-5,5.71V260h-3.25v.33c0,.55,0,1.17-.06,1.88Zm0-2.89v-2.21h-3.25v2.21Zm4.24,0v-2.21h-3.49v2.21Zm0,2.89V260h-3.49v2.21Z"/><path class="cls-39" d="M213.75,257.9a19.74,19.74,0,0,1-1.32,6.57,1.9,1.9,0,0,1-1.69,1.33,1.56,1.56,0,0,1-1.44-.95,5.3,5.3,0,0,1-.47-2.49,6.61,6.61,0,0,1,.4-2.34,4.87,4.87,0,0,1,.93-1.54,4.33,4.33,0,0,1,1.53-1,4.86,4.86,0,0,1,1.76-.33,3.72,3.72,0,0,1,3.18,1.33,5.73,5.73,0,0,1,.86,3.4,4.62,4.62,0,0,1-1,3,5.1,5.1,0,0,1-2.93,1.59l-.43-.75a3.79,3.79,0,0,0,3.42-4.12,4.11,4.11,0,0,0-.92-2.94A2.5,2.5,0,0,0,213.75,257.9Zm-.94.09a3,3,0,0,0-1.15.36,4.11,4.11,0,0,0-.95.83,4.73,4.73,0,0,0-1,3.2,4.17,4.17,0,0,0,.36,1.9c.2.37.42.55.67.55a.75.75,0,0,0,.56-.23,2.47,2.47,0,0,0,.4-.68A17.78,17.78,0,0,0,212.81,258Z"/><path class="cls-39" d="M218.22,257h6.89c0,3-.56,5.22-1.61,6.7a8.62,8.62,0,0,1-4.2,2.92l-.53-.76a7.58,7.58,0,0,0,4.07-2.9,9.43,9.43,0,0,0,1.22-5.12h-5.84Z"/><path class="cls-39" d="M226.85,266v-8.95h6.52V266Zm5.56-.85V257.9H227.8v7.25Z"/><path class="cls-39" d="M235.12,260.94h6.8v.93h-6.8Z"/><path class="cls-39" d="M248.25,257.9a19.74,19.74,0,0,1-1.32,6.57,1.9,1.9,0,0,1-1.7,1.33,1.56,1.56,0,0,1-1.43-.95,5.29,5.29,0,0,1-.48-2.49,6.61,6.61,0,0,1,.41-2.34,4.53,4.53,0,0,1,.93-1.54,4.15,4.15,0,0,1,1.53-1,4.86,4.86,0,0,1,1.76-.33,3.72,3.72,0,0,1,3.18,1.33,5.73,5.73,0,0,1,.86,3.4,4.57,4.57,0,0,1-1,3,5,5,0,0,1-2.92,1.59l-.43-.75a3.79,3.79,0,0,0,3.42-4.12,4.16,4.16,0,0,0-.92-2.94A2.5,2.5,0,0,0,248.25,257.9Zm-.94.09a3,3,0,0,0-1.15.36,4.11,4.11,0,0,0-.95.83,4.73,4.73,0,0,0-1,3.2,4.17,4.17,0,0,0,.36,1.9c.2.37.42.55.67.55a.75.75,0,0,0,.56-.23,2.25,2.25,0,0,0,.39-.68A17.51,17.51,0,0,0,247.31,258Z"/><path class="cls-39" d="M264.06,258.67c0,.07,0,.1-.11.1l-1.62,0h-4.45c0,.68-.08,1.32-.15,1.91h3.15l1.46,0c.08,0,.12,0,.12.11v0l-.07.87a27.92,27.92,0,0,1-.44,3.78,1.77,1.77,0,0,1-.58,1,1.69,1.69,0,0,1-1,.24,11.45,11.45,0,0,1-1.2-.07.38.38,0,0,1-.22-.06,1,1,0,0,1,0-.23,1.32,1.32,0,0,0-.18-.58,9.34,9.34,0,0,0,1.59.14c.42,0,.7-.25.83-.76a21.71,21.71,0,0,0,.42-3.75h-4a7.41,7.41,0,0,1-1.35,3.3,7.89,7.89,0,0,1-2.49,2,.45.45,0,0,1-.19.08s-.11-.07-.19-.2a1.56,1.56,0,0,0-.46-.4,6.76,6.76,0,0,0,3.28-3,10.79,10.79,0,0,0,.83-4.48h-2.21l-1.62,0c-.07,0-.1,0-.1-.1v-.58a.09.09,0,0,1,.1-.1l1.62,0h3.23v-1a6,6,0,0,0-.09-1.28,5.94,5.94,0,0,1,.87.06c.09,0,.14,0,.14.1a.76.76,0,0,1-.07.24,3.57,3.57,0,0,0-.06.87v1h3.46l1.62,0a.1.1,0,0,1,.11.1Z"/><path class="cls-39" d="M275.49,258.1l0,2v5.51a1,1,0,0,1-.29.83,3.28,3.28,0,0,1-1.59.22.47.47,0,0,1-.23,0,.67.67,0,0,1-.07-.2,1.74,1.74,0,0,0-.25-.55c.44,0,.78,0,1,0a.82.82,0,0,0,.48-.1.45.45,0,0,0,.13-.35v-6.73h-8.09v6.09l0,1.83c0,.07,0,.11-.09.11h-.63c-.07,0-.1,0-.1-.11l0-1.89v-4.7l0-1.95c0-.06,0-.09.1-.09l1.76,0H269c.32-.56.58-1.08.79-1.55a3.22,3.22,0,0,0,.21-.71,4.89,4.89,0,0,1,.8.2c.08,0,.12.08.12.14a.21.21,0,0,1-.09.16.58.58,0,0,0-.19.25c-.25.53-.51,1-.79,1.51h3.83l1.75,0C275.45,258,275.49,258,275.49,258.1Zm-2.74,6.47a.09.09,0,0,1-.1.1h-.53a.1.1,0,0,1-.11-.1V264h-2.88v.62a.1.1,0,0,1-.1.11h-.53a.1.1,0,0,1-.1-.11l0-2v-.94l0-1.26c0-.07,0-.1.1-.1l1.32,0h1.52l1.32,0c.06,0,.09,0,.09.1l0,1.1v1.05Zm-.74-1.2V261h-2.88v2.35Z"/><path class="cls-39" d="M175.67,281.26h-.89a7.81,7.81,0,0,1-1.89-5.33,8.09,8.09,0,0,1,1.89-5.41h.91a8.5,8.5,0,0,0,0,10.74Z"/><path class="cls-39" d="M177.78,270.52v2.73h-.89v-2.73Zm2,0v2.73h-.88v-2.73Z"/><path class="cls-39" d="M192.5,278.87a1.27,1.27,0,0,0-.24.58c0,.12,0,.2-.07.22a.47.47,0,0,1-.21.05q-2.44.15-4.44.15a7.81,7.81,0,0,1-3.08-.42,2.37,2.37,0,0,1-1.16-1.23,14,14,0,0,1-1.35,1.23,1,1,0,0,0-.26.26c-.05.07-.1.11-.15.11a.17.17,0,0,1-.15-.1A5.59,5.59,0,0,1,181,279a4.75,4.75,0,0,0,.76-.45,8.61,8.61,0,0,0,1.16-1v-3.11H182l-.86,0c-.07,0-.11,0-.11-.12v-.53c0-.07,0-.1.11-.1l.86,0h.68l.9,0c.07,0,.1,0,.1.1l0,1.17v2.57a2.1,2.1,0,0,0,1.07,1.22,6.94,6.94,0,0,0,2.5.32Q189.79,279.14,192.5,278.87Zm-8.7-7.59a.2.2,0,0,1,0,.08s0,.07-.11.12l-.3.24a.24.24,0,0,1-.15.08s-.05,0-.08-.06a13.36,13.36,0,0,0-1.58-1.87.15.15,0,0,1-.05-.08s0-.06.11-.12l.3-.21c.06,0,.1-.08.12-.08a.15.15,0,0,1,.08.05A13.23,13.23,0,0,1,183.8,271.28Zm8.5,6.29a1.41,1.41,0,0,0-.32.51c-.06.13-.12.2-.16.2l-.18-.06a11,11,0,0,1-2.75-1.74,9.08,9.08,0,0,1-2.58,1.76.41.41,0,0,1-.17.06s-.1-.05-.19-.16a1.4,1.4,0,0,0-.39-.38,9.15,9.15,0,0,0,2.83-1.79,7.7,7.7,0,0,1-1.69-3.05h-.52c0,.79-.08,1.46-.15,2a7.11,7.11,0,0,1-1.15,3.11c-.06.11-.11.16-.14.16s-.08-.05-.16-.14a2.15,2.15,0,0,0-.44-.34,6.33,6.33,0,0,0,1.19-3.06,23.65,23.65,0,0,0,.15-3.17l0-1.72c0-.07,0-.11.1-.11l1.68,0h3l1.65,0a.09.09,0,0,1,.1.1v.55c0,.06,0,.09-.1.09l-1.65,0h-4.05v1.91h4.11a.51.51,0,0,0,.25,0,.47.47,0,0,1,.14-.05c.08,0,.2.09.36.25s.21.26.21.33,0,.09-.1.14a1.46,1.46,0,0,0-.25.43,10.24,10.24,0,0,1-1.52,2.6A9.6,9.6,0,0,0,192.3,277.57Zm-2-4.65h-2.92a6.71,6.71,0,0,0,1.52,2.52A9.22,9.22,0,0,0,190.28,272.92Z"/><path class="cls-39" d="M196.14,269.21a.24.24,0,0,1-.1.18,1.54,1.54,0,0,0-.24.49c-.25.72-.49,1.32-.71,1.8v6.4l0,2a.08.08,0,0,1-.09.09h-.61s-.08,0-.08-.09l0-2v-3.17c0-.8,0-1.41,0-1.84a12,12,0,0,1-1.11,1.62c-.08.1-.13.14-.16.14s-.06,0-.1-.14a1.42,1.42,0,0,0-.31-.48,13.46,13.46,0,0,0,2.41-4.5,3.6,3.6,0,0,0,.16-.85,4.36,4.36,0,0,1,.74.21C196.09,269.12,196.14,269.16,196.14,269.21Zm8,2.74c0,.07,0,.1-.11.1l-1.75,0h-4.41l-1.75,0c-.07,0-.1,0-.1-.1v-.53a.09.09,0,0,1,.1-.1l1.75,0h4.41l1.75,0c.08,0,.11,0,.11.1ZM203,280a.08.08,0,0,1-.09.09h-.59c-.06,0-.1,0-.1-.09v-.52h-4.5V280c0,.07,0,.1-.1.1H197c-.06,0-.09,0-.09-.1l0-1.53v-.93l0-1s0-.08.09-.08l1.63,0h2.62l1.61,0c.06,0,.09,0,.09.08l0,.91v1Zm-.27-6.35c0,.07,0,.1-.1.1l-1.51,0h-2.27l-1.53,0c-.07,0-.1,0-.1-.1v-.49a.09.09,0,0,1,.1-.1l1.53,0h2.27l1.51,0a.09.09,0,0,1,.1.1Zm0,1.69c0,.07,0,.1-.1.1l-1.51,0h-2.27l-1.53,0c-.07,0-.1,0-.1-.1v-.49a.09.09,0,0,1,.1-.1l1.53,0h2.27l1.51,0a.09.09,0,0,1,.1.1Zm.12-5.08q0,.09-.12.09l-1.52,0h-2.34l-1.53,0c-.07,0-.11,0-.11-.09v-.51a.1.1,0,0,1,.11-.1l1.53,0h2.34l1.52,0c.08,0,.12,0,.12.1Zm-.63,8.58V277.1h-4.5v1.72Z"/><path class="cls-39" d="M206.71,270.52v2.73h-.89v-2.73Zm2,0v2.73h-.88v-2.73Z"/><path class="cls-39" d="M210.85,281.26H210a8.07,8.07,0,0,0,1.9-5.34,8.18,8.18,0,0,0-1.91-5.4h.9a8,8,0,0,1,1.9,5.41A7.77,7.77,0,0,1,210.85,281.26Z"/><path class="cls-39" d="M106.69,125.83h-4.46v-8.71h1v7.78h3.46Z"/><path class="cls-39" d="M108,125.83v-8.71h2.45a2.66,2.66,0,0,1,1.77.55,1.81,1.81,0,0,1,.65,1.44,2.19,2.19,0,0,1-.39,1.29,2.22,2.22,0,0,1-1.1.78v0a2.23,2.23,0,0,1,1.4.66,2.12,2.12,0,0,1,.52,1.46,2.3,2.3,0,0,1-.79,1.81,2.91,2.91,0,0,1-2,.7Zm1-7.79v2.81h1a1.93,1.93,0,0,0,1.3-.4,1.41,1.41,0,0,0,.48-1.14c0-.85-.55-1.27-1.65-1.27Zm0,3.73v3.13h1.37a2,2,0,0,0,1.37-.42,1.45,1.45,0,0,0,.49-1.17c0-1-.69-1.54-2.07-1.54Z"/><path class="cls-39" d="M124.14,117.62a11.7,11.7,0,0,1-1.2,5.26,7.81,7.81,0,0,1-4.49,3.47l-.51-.75a7.46,7.46,0,0,0,4-2.88,9.39,9.39,0,0,0,1.2-5.1H117.4v-.84h5.88a1.38,1.38,0,0,1-.08-.48,1.33,1.33,0,0,1,.45-1,1.37,1.37,0,0,1,1.94.09,1.42,1.42,0,0,1-.09,2,1.34,1.34,0,0,1-.93.36A1.26,1.26,0,0,1,124.14,117.62Zm.43-2.18a.84.84,0,0,0-.63.28.86.86,0,0,0-.21.58.84.84,0,0,0,.27.64.8.8,0,0,0,.57.22.81.81,0,0,0,.64-.28.84.84,0,0,0,.21-.58.81.81,0,0,0-.28-.64A.77.77,0,0,0,124.57,115.44Z"/><path class="cls-39" d="M126.56,120.73h6.69v.92h-6.69Z"/><path class="cls-39" d="M136.8,116.36q0,3.54-.12,5.1a9.55,9.55,0,0,1-.34,2.09,5.91,5.91,0,0,1-1.8,2.68l-.71-.57a4.54,4.54,0,0,0,1.67-2.47,11.92,11.92,0,0,0,.31-2.56c0-.91.06-2.34.06-4.27Zm2.62,8.43a9.3,9.3,0,0,0,3.19-4.27l.63.83a11.31,11.31,0,0,1-4.23,4.88l-.53-.28v-9.68h.94Z"/></g></svg>