<svg xmlns="http://www.w3.org/2000/svg" xmlns:xlink="http://www.w3.org/1999/xlink" viewBox="0 0 221 285.86"><defs><style>.cls-1{fill:#fff;}.cls-2,.cls-3,.cls-4{fill:#3c3c41;}.cls-2{opacity:0.05;}.cls-2,.cls-26,.cls-4{isolation:isolate;}.cls-4{opacity:0.2;}.cls-5{fill:#ccc;fill-opacity:0.3;}.cls-6{fill:url(#Degradado_sin_nombre);}.cls-7{fill:#50e6ff;}.cls-8{fill:#c3f1ff;}.cls-9{fill:#9cebff;}.cls-10{fill:url(#Degradado_sin_nombre_2);}.cls-11{fill:url(#Degradado_sin_nombre_3);}.cls-12{fill:url(#Degradado_sin_nombre_4);}.cls-13{fill:#005ba1;}.cls-14{fill:#0078d4;}.cls-15{fill:url(#Degradado_sin_nombre_5);}.cls-16{fill:url(#Degradado_sin_nombre_6);}.cls-17{fill:url(#Degradado_sin_nombre_7);}.cls-18{fill:url(#Degradado_sin_nombre_8);}.cls-19,.cls-20,.cls-21{fill:none;stroke:#3c3c41;stroke-miterlimit:10;}.cls-20{stroke-dasharray:1.46 2.43;}.cls-21{stroke-dasharray:1.31 2.19;}.cls-22{fill:url(#Degradado_sin_nombre_9);}.cls-23{fill:url(#Degradado_sin_nombre_10);}.cls-24{fill:url(#Degradado_sin_nombre_11);}.cls-25{fill:#1490df;}.cls-26,.cls-27{fill:#6ebcdb;}.cls-26{opacity:0.4;}.cls-28{fill:#5db4d7;}.cls-29{fill:#e6e6e6;}.cls-30{fill:#86d633;}.cls-31{fill:#1e1e1e;}</style><linearGradient id="Degradado_sin_nombre" x1="37.07" y1="254.57" x2="37.07" y2="235.81" gradientTransform="translate(0 -112.95)" gradientUnits="userSpaceOnUse"><stop offset="0" stop-color="#0078d4"/><stop offset="0.82" stop-color="#5ea0ef"/></linearGradient><linearGradient id="Degradado_sin_nombre_2" x1="37.05" y1="261.8" x2="37.05" y2="254.57" gradientTransform="translate(0 -112.95)" gradientUnits="userSpaceOnUse"><stop offset="0.15" stop-color="#ccc"/><stop offset="1" stop-color="#707070"/></linearGradient><linearGradient id="Degradado_sin_nombre_3" x1="77.43" y1="254.57" x2="77.43" y2="235.81" xlink:href="#Degradado_sin_nombre"/><linearGradient id="Degradado_sin_nombre_4" x1="77.43" y1="261.8" x2="77.43" y2="254.57" xlink:href="#Degradado_sin_nombre_2"/><linearGradient id="Degradado_sin_nombre_5" x1="188.87" y1="257.81" x2="188.87" y2="247.47" xlink:href="#Degradado_sin_nombre"/><linearGradient id="Degradado_sin_nombre_6" x1="188.94" y1="261.8" x2="188.94" y2="257.81" xlink:href="#Degradado_sin_nombre_2"/><linearGradient id="Degradado_sin_nombre_7" x1="141.17" y1="254.57" x2="141.17" y2="235.81" xlink:href="#Degradado_sin_nombre"/><linearGradient id="Degradado_sin_nombre_8" x1="141.17" y1="261.8" x2="141.17" y2="254.57" xlink:href="#Degradado_sin_nombre_2"/><linearGradient id="Degradado_sin_nombre_9" x1="23.52" y1="313.02" x2="25.89" y2="315.39" gradientTransform="translate(3 -113.27)" gradientUnits="userSpaceOnUse"><stop offset="0" stop-color="#86d633"/><stop offset="0.24" stop-color="#83d232"/><stop offset="0.5" stop-color="#7cc52f"/><stop offset="0.76" stop-color="#6fb02a"/><stop offset="1" stop-color="#5e9624"/></linearGradient><linearGradient id="Degradado_sin_nombre_10" x1="18.17" y1="313.02" x2="20.53" y2="315.38" xlink:href="#Degradado_sin_nombre_9"/><linearGradient id="Degradado_sin_nombre_11" x1="12.83" y1="313.02" x2="15.18" y2="315.39" xlink:href="#Degradado_sin_nombre_9"/></defs><title>OJ104903287</title><g id="Target"><rect class="cls-1" x="0.54" width="220.46" height="285.86"/><rect class="cls-1" x="0.5" y="46.36" width="220" height="154" rx="5"/><rect class="cls-2" x="0.5" y="46.36" width="220" height="154" rx="5"/><path class="cls-3" d="M214.34,200.86h-1v-1h1Zm-3,0h-1v-1h1Zm-3,0h-1v-1h1Zm-3,0h-1v-1h1Zm-3,0h-1v-1h1Zm-3,0h-1v-1h1Zm-3,0h-1v-1h1Zm-3,0h-1v-1h1Zm-3,0h-1v-1h1Zm-3,0h-1v-1h1Zm-3,0h-1v-1h1Zm-3,0h-1v-1h1Zm-3,0h-1v-1h1Zm-3,0h-1v-1h1Zm-3,0h-1v-1h1Zm-3,0h-1v-1h1Zm-3,0h-1v-1h1Zm-3,0h-1v-1h1Zm-3,0h-1v-1h1Zm-3,0h-1v-1h1Zm-3,0h-1v-1h1Zm-3,0h-1v-1h1Zm-3,0h-1v-1h1Zm-3,0h-1v-1h1Zm-3,0h-1v-1h1Zm-3,0h-1v-1h1Zm-3,0h-1v-1h1Zm-3,0h-1v-1h1Zm-3,0h-1v-1h1Zm-3,0h-1v-1h1Zm-3,0h-1v-1h1Zm-3,0h-1v-1h1Zm-3,0h-1v-1h1Zm-3,0h-1v-1h1Zm-3,0h-1v-1h1Zm-3,0h-1v-1h1Zm-3,0h-1v-1h1Zm-3,0h-1v-1h1Zm-3,0h-1v-1h1Zm-3,0h-1v-1h1Zm-3,0h-1v-1h1Zm-3,0h-1v-1h1Zm-3,0h-1v-1h1Zm-3,0h-1v-1h1Zm-3,0h-1v-1h1Zm-3,0h-1v-1h1Zm-3,0h-1v-1h1Zm-3,0h-1v-1h1Zm-3,0h-1v-1h1Zm-3,0h-1v-1h1Zm-3,0h-1v-1h1Zm-3,0h-1v-1h1Zm-3,0h-1v-1h1Zm-3,0H54v-1h1Zm-3,0H51v-1h1Zm-3,0H48v-1h1Zm-3,0H45v-1h1Zm-3,0H42v-1h1Zm-3,0H39v-1h1Zm-3,0H36v-1h1Zm-30,0H6v-1H7Zm209.46-.08-.17-1a4.31,4.31,0,0,0,.87-.24l.36.94a5.86,5.86,0,0,1-1.44.3ZM4.2,200.59a5.24,5.24,0,0,1-1-.44l.49-.87a4,4,0,0,0,.82.36Zm215.5-1.29-.69-.72a5.35,5.35,0,0,0,.58-.68l.82.56a5,5,0,0,1-1.09.84ZM1.16,198.72a5.62,5.62,0,0,1-.59-.93l.9-.44a3.75,3.75,0,0,0,.48.76Zm219.73-2.27-1-.2a4.41,4.41,0,0,0,.09-.89l1-.06v.06A6.59,6.59,0,0,1,220.89,196.45ZM0,195.68v-1H1v1Zm221-2.39h-1v-1h1ZM1,192.64H0v-1H1Zm220-2.35h-1v-1h1ZM1,189.64H0v-1H1Zm220-2.36h-1v-1h1ZM1,186.63H0v-1H1Zm220-2.35h-1v-1h1ZM1,183.63H0v-1H1Zm220-2.36h-1v-1h1ZM1,180.62H0v-1H1Zm220-2.35h-1v-1h1ZM1,177.62H0v-1H1Zm220-2.36h-1v-1h1ZM1,174.61H0v-1H1Zm220-2.36h-1v-1h1ZM1,171.6H0v-1H1Zm220-2.35h-1v-1h1ZM1,168.6H0v-1H1Zm220-2.36h-1v-1h1ZM1,165.59H0v-1H1Zm220-2.35h-1v-1h1ZM1,162.59H0v-1H1Zm220-2.36h-1v-1h1ZM1,159.58H0v-1H1Zm220-2.35h-1v-1h1ZM1,156.58H0v-1H1Zm220-2.36h-1v-1h1ZM1,153.57H0v-1H1Zm220-2.35h-1v-1h1ZM1,150.57H0v-1H1Zm220-2.36h-1v-1h1ZM1,147.56H0v-1H1Zm220-2.35h-1v-1h1ZM1,144.55H0v-1H1Zm220-2.35h-1v-1h1ZM1,141.55H0v-1H1Zm220-2.36h-1v-1h1ZM1,138.54H0v-1H1Zm220-2.35h-1v-1h1ZM1,135.54H0v-1H1Zm220-2.36h-1v-1h1ZM1,132.53H0v-1H1Zm220-2.35h-1v-1h1ZM1,129.53H0v-1H1Zm220-2.36h-1v-1h1ZM1,126.52H0v-1H1Zm220-2.35h-1v-1h1ZM1,123.52H0v-1H1Zm220-2.36h-1v-1h1ZM1,120.51H0v-1H1Zm220-2.35h-1v-1h1ZM1,117.51H0v-1H1Zm220-2.36h-1v-1h1ZM1,114.5H0v-1H1Zm220-2.35h-1v-1h1ZM1,111.49H0v-1H1Zm220-2.35h-1v-1h1ZM1,108.49H0v-1H1Zm220-2.36h-1v-1h1ZM1,105.48H0v-1H1Zm220-2.35h-1v-1h1ZM1,102.48H0v-1H1Zm220-2.36h-1v-1h1ZM1,99.47H0v-1H1Zm220-2.35h-1v-1h1ZM1,96.47H0v-1H1Zm220-2.36h-1v-1h1ZM1,93.46H0v-1H1Zm220-2.35h-1v-1h1ZM1,90.46H0v-1H1ZM221,88.1h-1v-1h1ZM1,87.45H0v-1H1ZM221,85.1h-1v-1h1ZM1,84.44H0v-1H1Zm220-2.35h-1v-1h1ZM1,81.44H0v-1H1Zm220-2.36h-1v-1h1ZM1,78.43H0v-1H1Zm220-2.35h-1v-1h1ZM1,75.43H0v-1H1Zm220-2.36h-1v-1h1ZM1,72.42H0v-1H1Zm220-2.35h-1v-1h1ZM1,69.42H0v-1H1Zm220-2.36h-1v-1h1ZM1,66.41H0v-1H1Zm220-2.35h-1v-1h1ZM1,63.41H0v-1H1Zm220-2.36h-1v-1h1ZM1,60.4H0v-1H1Zm220-2.35h-1V57h1ZM1,57.4H0v-1H1ZM221,55h-1V54h1ZM1,54.39H0v-1H1ZM221,52h-1v-.68a1.41,1.41,0,0,0,0-.29l1-.07v1ZM0,51.38H0a6.36,6.36,0,0,1,.1-1.07l1,.2a5.12,5.12,0,0,0-.08.87Zm219.52-2a4.63,4.63,0,0,0-.48-.76l.78-.62a5,5,0,0,1,.59.93ZM1.78,48.84,1,48.27a6.31,6.31,0,0,1,.71-.84l.7.72A4.57,4.57,0,0,0,1.78,48.84Zm215.89-1.42a4.09,4.09,0,0,0-.83-.36l.31-1a6.28,6.28,0,0,1,1,.43ZM3.86,47.17l-.37-.93a4.92,4.92,0,0,1,1.06-.3l.17,1A4.37,4.37,0,0,0,3.86,47.17ZM215,46.86h-1v-1h1Zm-3,0h-1v-1h1Zm-3,0h-1v-1h1Zm-3,0h-1v-1h1Zm-3,0h-1v-1h1Zm-3,0h-1v-1h1Zm-3,0h-1v-1h1Zm-3,0h-1v-1h1Zm-3,0h-1v-1h1Zm-3,0h-1v-1h1Zm-3,0h-1v-1h1Zm-3,0h-1v-1h1Zm-3,0h-1v-1h1Zm-3,0h-1v-1h1Zm-3,0h-1v-1h1Zm-3,0h-1v-1h1Zm-3,0h-1v-1h1Zm-3,0h-1v-1h1Zm-3,0h-1v-1h1Zm-3,0h-1v-1h1Zm-3,0h-1v-1h1Zm-27,0h-1v-1h1Zm-3,0h-1v-1h1Zm-3,0h-1v-1h1Zm-3,0h-1v-1h1Zm-3,0h-1v-1h1Zm-3,0h-1v-1h1Zm-3,0h-1v-1h1Zm-3,0h-1v-1h1Zm-3,0h-1v-1h1Zm-3,0h-1v-1h1Zm-3,0H97v-1h1Zm-3,0H94v-1h1Zm-3,0H91v-1h1Zm-3,0H88v-1h1Zm-3,0H85v-1h1Zm-3,0H82v-1h1Zm-3,0H79v-1h1Zm-3,0H76v-1h1Zm-3,0H73v-1h1Zm-3,0H70v-1h1Zm-3,0H67v-1h1Zm-3,0H64v-1h1Zm-3,0H61v-1h1Zm-3,0H58v-1h1Zm-3,0H55v-1h1Zm-3,0H52v-1h1Zm-3,0H49v-1h1Zm-3,0H46v-1h1Zm-3,0H43v-1h1Zm-3,0H40v-1h1Zm-3,0H37v-1h1Zm-3,0H34v-1h1Zm-3,0H31v-1h1Zm-3,0H28v-1h1Zm-3,0H25v-1h1Zm-3,0H22v-1h1Zm-3,0H19v-1h1Zm-3,0H16v-1h1Zm-3,0H13v-1h1Zm-3,0H10v-1h1Zm-3,0H7v-1H8Z"/><rect class="cls-1" x="10" y="90.86" width="95" height="95" rx="0.3"/><rect class="cls-4" x="10" y="90.86" width="95" height="95" rx="0.3"/><rect class="cls-5" x="65" y="210.86" width="155" height="35"/><rect class="cls-5" x="65" y="250.86" width="155" height="35"/><rect class="cls-6" x="23" y="122.86" width="28.14" height="18.76" rx="0.94"/><polygon class="cls-7" points="41.76 129.5 41.76 134.96 37.07 137.71 37.07 132.24 41.76 129.5"/><polygon class="cls-8" points="41.76 129.5 37.07 132.25 32.38 129.5 37.07 126.76 41.76 129.5"/><polygon class="cls-9" points="37.07 132.25 37.07 137.71 32.38 134.96 32.38 129.5 37.07 132.25"/><polygon class="cls-8" points="32.38 134.96 37.07 132.24 37.07 137.71 32.38 134.96"/><polygon class="cls-9" points="41.76 134.96 37.07 132.24 37.07 137.71 41.76 134.96"/><path class="cls-10" d="M42.71,147.29c-2.78-.44-2.89-2.44-2.89-5.67H34.3c0,3.23-.09,5.23-2.87,5.67A1.56,1.56,0,0,0,30,148.86H44.11A1.58,1.58,0,0,0,42.71,147.29Z"/><rect class="cls-11" x="63.36" y="122.86" width="28.14" height="18.76" rx="0.94"/><polygon class="cls-7" points="82.12 129.5 82.12 134.96 77.43 137.71 77.43 132.24 82.12 129.5"/><polygon class="cls-8" points="82.12 129.5 77.43 132.25 72.74 129.5 77.43 126.76 82.12 129.5"/><polygon class="cls-9" points="77.43 132.25 77.43 137.71 72.74 134.96 72.74 129.5 77.43 132.25"/><polygon class="cls-8" points="72.74 134.96 77.43 132.24 77.43 137.71 72.74 134.96"/><polygon class="cls-9" points="82.12 134.96 77.43 132.24 77.43 137.71 82.12 134.96"/><path class="cls-12" d="M83.07,147.29c-2.78-.44-2.89-2.44-2.89-5.67H74.66c0,3.23-.09,5.23-2.88,5.67a1.56,1.56,0,0,0-1.39,1.57H84.46A1.56,1.56,0,0,0,83.07,147.29Z"/><rect class="cls-1" x="115" y="90.86" width="95" height="95"/><rect class="cls-4" x="115" y="90.86" width="95" height="95"/><rect class="cls-13" x="170.6" y="122.86" width="15.46" height="10.32" rx="0.52"/><polygon class="cls-7" points="180.91 126.51 180.91 129.52 178.34 131.02 178.34 128.03 180.91 126.51"/><polygon class="cls-8" points="180.91 126.51 178.34 128.03 175.75 126.51 178.34 125 180.91 126.51"/><polygon class="cls-9" points="178.34 128.03 178.34 131.02 175.75 129.52 175.75 126.51 178.34 128.03"/><rect class="cls-14" x="176.67" y="128.77" width="15.46" height="10.32" rx="0.52"/><polygon class="cls-7" points="186.98 132.44 186.98 135.44 184.41 136.96 184.41 133.94 186.98 132.44"/><polygon class="cls-8" points="186.98 132.44 184.41 133.94 181.82 132.44 184.41 130.93 186.98 132.44"/><polygon class="cls-9" points="184.41 133.94 184.41 136.96 181.82 135.44 181.82 132.44 184.41 133.94"/><rect class="cls-15" x="181.14" y="134.52" width="15.46" height="10.32" rx="0.52"/><polygon class="cls-7" points="191.44 138.19 191.44 141.19 188.88 142.71 188.88 139.69 191.44 138.19"/><polygon class="cls-8" points="191.44 138.19 188.88 139.71 186.29 138.19 188.88 136.68 191.44 138.19"/><polygon class="cls-9" points="188.88 139.71 188.88 142.71 186.29 141.19 186.29 138.19 188.88 139.71"/><polygon class="cls-8" points="186.29 141.19 188.88 139.69 188.88 142.71 186.29 141.19"/><polygon class="cls-9" points="191.44 141.19 188.88 139.69 188.88 142.71 191.44 141.19"/><path class="cls-16" d="M192,148c-1.52-.24-1.52-1.34-1.52-3.06h-3.06c0,1.78,0,2.88-1.53,3.06a.91.91,0,0,0-.77.88h7.65A.91.91,0,0,0,192,148Z"/><rect class="cls-17" x="127.1" y="122.86" width="28.14" height="18.76" rx="0.94"/><polygon class="cls-7" points="145.86 129.5 145.86 134.96 141.17 137.71 141.17 132.24 145.86 129.5"/><polygon class="cls-8" points="145.86 129.5 141.17 132.25 136.48 129.5 141.17 126.76 145.86 129.5"/><polygon class="cls-9" points="141.17 132.25 141.17 137.71 136.48 134.96 136.48 129.5 141.17 132.25"/><polygon class="cls-8" points="136.48 134.96 141.17 132.24 141.17 137.71 136.48 134.96"/><polygon class="cls-9" points="145.86 134.96 141.17 132.24 141.17 137.71 145.86 134.96"/><path class="cls-18" d="M146.81,147.29c-2.78-.44-2.89-2.44-2.89-5.67H138.4c0,3.23-.09,5.23-2.87,5.67a1.58,1.58,0,0,0-1.4,1.57h14.08A1.58,1.58,0,0,0,146.81,147.29Z"/><line class="cls-19" x1="90.37" y1="90.71" x2="90.37" y2="63.64"/><line class="cls-19" x1="82.84" y1="85.18" x2="82.84" y2="73.48"/><polygon class="cls-3" points="85.83 74.36 82.84 69.18 79.85 74.36 85.83 74.36"/><line class="cls-19" x1="97.89" y1="80.87" x2="97.89" y2="80.12"/><line class="cls-20" x1="97.89" y1="77.69" x2="97.89" y2="71.14"/><line class="cls-19" x1="97.89" y1="69.93" x2="97.89" y2="69.18"/><polygon class="cls-3" points="100.88 80 97.89 85.18 94.9 80 100.88 80"/><line class="cls-19" x1="129.52" y1="90.71" x2="129.52" y2="63.64"/><line class="cls-19" x1="122" y1="85.18" x2="122" y2="73.48"/><polygon class="cls-3" points="124.99 74.36 122 69.18 119.01 74.36 124.99 74.36"/><line class="cls-19" x1="137.05" y1="80.87" x2="137.05" y2="80.12"/><line class="cls-20" x1="137.05" y1="77.69" x2="137.05" y2="71.14"/><line class="cls-19" x1="137.05" y1="69.93" x2="137.05" y2="69.18"/><polygon class="cls-3" points="140.04 80 137.05 85.18 134.06 80 140.04 80"/><line class="cls-19" x1="109.7" y1="38.29" x2="109.7" y2="18.79"/><line class="cls-19" x1="74.31" y1="220.86" x2="85.43" y2="220.86"/><polygon class="cls-3" points="75.18 223.85 70 220.85 75.18 217.86 75.18 223.85"/><line class="cls-19" x1="80.69" y1="260.86" x2="79.94" y2="260.86"/><line class="cls-21" x1="77.75" y1="260.86" x2="71.84" y2="260.86"/><line class="cls-19" x1="70.75" y1="260.86" x2="70" y2="260.86"/><polygon class="cls-3" points="79.82 257.86 85 260.86 79.82 263.85 79.82 257.86"/><path class="cls-19" d="M105.83,41,68.08,29.65a4.3,4.3,0,0,1-2.88-3.86v-7"/><path class="cls-19" d="M114,41l43.3-11.45a4.1,4.1,0,0,0,2.9-3.76v-7"/><circle class="cls-22" cx="27.4" cy="200.63" r="1.67"/><circle class="cls-23" cx="22.06" cy="200.64" r="1.67"/><circle class="cls-24" cx="16.72" cy="200.64" r="1.67"/><path class="cls-7" d="M17.93,207.34l-1,1a.43.43,0,0,1-.61,0h0l-7.09-7.08a.88.88,0,0,1,0-1.22h0l1-1h0l7.71,7.69a.43.43,0,0,1,0,.61h0Z"/><path class="cls-25" d="M16.83,193l1,1a.43.43,0,0,1,0,.61h0l-7.57,7.6h0l-1-1a.88.88,0,0,1,0-1.22h0l7-7A.43.43,0,0,1,16.83,193Z"/><path class="cls-7" d="M33.78,199l1,1a.86.86,0,0,1,0,1.22h0l-7.1,7.08a.43.43,0,0,1-.61,0h0l-1-1a.44.44,0,0,1,0-.62h0Z"/><path class="cls-25" d="M34.74,201.2l-1,1h0l-7.57-7.6a.43.43,0,0,1,0-.61h0l1-1a.43.43,0,0,1,.61,0h0l7,7a.88.88,0,0,1,0,1.22h0Z"/><rect class="cls-1" x="47.35" width="35" height="20.86"/><rect class="cls-4" x="47.35" width="35" height="20.86"/><rect class="cls-1" x="92.7" width="35" height="20.86"/><rect class="cls-4" x="92.7" width="35" height="20.86"/><rect class="cls-1" x="137.7" width="63.41" height="20.86"/><rect class="cls-4" x="137.7" width="63.41" height="20.86"/><rect class="cls-1" x="74.7" y="53.5" width="70" height="10"/><rect class="cls-26" x="74.7" y="53.5" width="70" height="10"/><g id="ad94e297-0e86-4eaf-aac0-d146ee9aea65"><path class="cls-27" d="M105.63,53.85,101,49a2.28,2.28,0,0,1-.78.13,2.43,2.43,0,1,1,2.24-3.32H107v1.62h-4.55a3.68,3.68,0,0,1-.26.57l4.33,4.46,2.34-3.57V37.72h-3.15l4-4,3.94,4H110.5v8.74l5.93-9.05-6-6a1,1,0,0,0-1.41-.05l0,.05h0L94.52,45.89a1,1,0,0,0,0,1.41l0,.05h0L109,61.84l-5.16-5.17Z"/><path class="cls-28" d="M108.89,54.05V48.89l-2.34,3.58,1.72,1.84A2,2,0,0,1,108.89,54.05Z"/><path class="cls-28" d="M124.91,45.89l-8.47-8.48-5.93,9.05v7.61a2.1,2.1,0,0,1,.53.29l6.22-6.28a3.15,3.15,0,0,1-.31-.64h-4.67V45.82H117a2.42,2.42,0,1,1,2.24,3.32,2.53,2.53,0,0,1-.67-.1L112,55.71a2.18,2.18,0,0,1,.11.62,2.43,2.43,0,0,1-4.86.19h0a2.5,2.5,0,0,1,.14-.9l-1.73-1.72-1.84,2.76L109,61.82a1,1,0,0,0,1.41,0l0,0,14.47-14.47a1,1,0,0,0,0-1.41l0,0Z"/><path class="cls-29" d="M117,45.82h-4.74v1.62H117a2.93,2.93,0,0,1-.12-.72A2.28,2.28,0,0,1,117,45.82Z"/><path class="cls-29" d="M102.48,47.44H107V45.82h-4.62a2.14,2.14,0,0,1,.19.9A2.19,2.19,0,0,1,102.48,47.44Z"/><path class="cls-29" d="M112,55.71,118.59,49a2.43,2.43,0,0,1-1.33-1L111,54.36A2.28,2.28,0,0,1,112,55.71Z"/><path class="cls-29" d="M108.32,54.31l-1.72-1.84L102.22,48A2.49,2.49,0,0,1,101,49l4.68,4.84,1.73,1.72A2.48,2.48,0,0,1,108.32,54.31Z"/><path class="cls-1" d="M113.65,37.72l-3.93-4-4,4h3.15V54.05a2.09,2.09,0,0,0-.57.26,2.41,2.41,0,1,0,2.81,3.92A2.45,2.45,0,0,0,112,57a2.31,2.31,0,0,0,.11-.69,2.18,2.18,0,0,0-.11-.62,2.26,2.26,0,0,0-.93-1.35,2.1,2.1,0,0,0-.53-.29V37.72Zm-3.93,20a1.35,1.35,0,1,1,1.34-1.36v0h0a1.34,1.34,0,0,1-1.34,1.29Z"/><path class="cls-1" d="M102.22,48a3.68,3.68,0,0,0,.26-.57,2.22,2.22,0,0,0,.12-.72,2.14,2.14,0,0,0-.19-.9,2.41,2.41,0,1,0-2.24,3.32A2.36,2.36,0,0,0,101,49,2.49,2.49,0,0,0,102.22,48Zm-2,0a1.35,1.35,0,1,1,1.35-1.35h0a1.35,1.35,0,0,1-1.29,1.4h-.06Z"/><path class="cls-1" d="M118.59,49a2.53,2.53,0,0,0,.67.1A2.43,2.43,0,1,0,117,45.82a2.3,2.3,0,0,0-.19.9,2.93,2.93,0,0,0,.12.72,3.15,3.15,0,0,0,.31.64A2.5,2.5,0,0,0,118.59,49Zm.67-3.65a1.56,1.56,0,1,1-.28,0h0Z"/><path class="cls-30" d="M109.72,55a1.35,1.35,0,0,0-1.46,1.23,1.34,1.34,0,0,0,1.23,1.46.89.89,0,0,0,.23,0,1.34,1.34,0,0,0,1.34-1.34h0A1.36,1.36,0,0,0,109.72,55Z"/><circle class="cls-30" cx="100.17" cy="46.72" r="1.34"/><path class="cls-30" d="M119.26,48.06a1.35,1.35,0,1,0-1.34-1.36v0h0A1.34,1.34,0,0,0,119.26,48.06Z"/></g></g><g id="Text"><path class="cls-31" d="M148.4,6.19a11.22,11.22,0,0,1-1.17,5.08,7.66,7.66,0,0,1-4.39,3.35l-.5-.72a7.28,7.28,0,0,0,3.9-2.79,9,9,0,0,0,1.18-4.92h-5.61v-.8h5.75a1.34,1.34,0,1,1,2.6-.47,1.35,1.35,0,0,1-1.34,1.35A1.16,1.16,0,0,1,148.4,6.19Zm.42-2.1a.8.8,0,0,0-.62.27.82.82,0,0,0-.2.56.79.79,0,0,0,.26.62.81.81,0,0,0,.56.21.82.82,0,0,0,.83-.83.78.78,0,0,0-.27-.61A.76.76,0,0,0,148.82,4.09Z"/><path class="cls-31" d="M152.47,13.5a7.15,7.15,0,0,0,3.06-1.89,8.7,8.7,0,0,0,1.86-2.83l.69.65a9.34,9.34,0,0,1-2.56,3.39,10.72,10.72,0,0,1-3.42,1.84l-.55-.39V4.94h.92Z"/><path class="cls-31" d="M157.8,5.39h6.61c0,2.86-.54,5-1.55,6.43a8.2,8.2,0,0,1-4,2.8l-.5-.72a7.28,7.28,0,0,0,3.9-2.79,9,9,0,0,0,1.17-4.92h-5.6Z"/><path class="cls-31" d="M168.48,9.61a27.39,27.39,0,0,1-2.81,1.69l-.5-.69a15.36,15.36,0,0,0,5.49-4.26l.73.55a13.51,13.51,0,0,1-2,2v5.67h-.88Z"/><path class="cls-31" d="M172.35,7.61l.77-.33a16.17,16.17,0,0,1,1,2.61l-.79.31A14.79,14.79,0,0,0,172.35,7.61Zm1.33,6.5a6,6,0,0,0,3.22-2.64,9.92,9.92,0,0,0,1-4.42l.88.19a11.28,11.28,0,0,1-1.2,4.68,5.5,5.5,0,0,1-1.43,1.67,8.76,8.76,0,0,1-2,1.13Zm.94-7,.76-.31a16.22,16.22,0,0,1,.88,2.57l-.79.33A12.1,12.1,0,0,0,174.62,7.09Z"/><path class="cls-31" d="M182.89,6.52A11.29,11.29,0,0,1,180.68,10L180,9.44a10.54,10.54,0,0,0,2.59-5l.95.15c-.08.31-.2.68-.35,1.12h4.16A12.81,12.81,0,0,1,185.06,12a9,9,0,0,1-3.79,2.66l-.53-.65a8.31,8.31,0,0,0,3.85-2.84,10.75,10.75,0,0,0,1.68-4.68Z"/><path class="cls-31" d="M193.09,10.68a10.72,10.72,0,0,1-4.28,3.79l-.53-.69a10.49,10.49,0,0,0,3.92-3.37A12.1,12.1,0,0,0,194,6.09h-5V5.28h6.22a16.13,16.13,0,0,1-1.58,4.6,26.78,26.78,0,0,1,2.8,4l-.89.56A21.13,21.13,0,0,0,193.09,10.68Z"/><path class="cls-31" d="M103.94,10.94v3.17h-1V5.71h2.31a3,3,0,0,1,2.09.66,2.35,2.35,0,0,1,.74,1.85,2.54,2.54,0,0,1-.82,2,3.19,3.19,0,0,1-2.23.76Zm0-4.34v3.45h1a2.28,2.28,0,0,0,1.55-.47,1.64,1.64,0,0,0,.54-1.31c0-1.11-.66-1.67-2-1.67Z"/><path class="cls-31" d="M110.66,14.11h-1V5.71h1Z"/><path class="cls-31" d="M113.85,10.94v3.17h-1V5.71h2.3a3,3,0,0,1,2.09.66A2.32,2.32,0,0,1,118,8.22a2.54,2.54,0,0,1-.82,2,3.18,3.18,0,0,1-2.22.76Zm0-4.34v3.45h1a2.33,2.33,0,0,0,1.56-.47A1.67,1.67,0,0,0,117,8.27c0-1.11-.65-1.67-2-1.67Z"/><path class="cls-31" d="M138.93,49.86h-1.21l-4.32-6.7a2.57,2.57,0,0,1-.27-.52h0a7.12,7.12,0,0,1,0,1.15v6.07h-1v-8.4h1.27l4.21,6.59a5.88,5.88,0,0,1,.34.56h0a9,9,0,0,1-.05-1.23V41.46h1Z"/><path class="cls-31" d="M147.64,49.86h-1.09l-.89-2.35h-3.57l-.83,2.35h-1.1l3.22-8.4h1Zm-2.31-3.24L144,43a2.59,2.59,0,0,1-.13-.56h0a3.36,3.36,0,0,1-.13.56l-1.31,3.58Z"/><path class="cls-31" d="M153,42.35h-2.43v7.51h-1V42.35h-2.42v-.89H153Z"/><path class="cls-31" d="M58.65,10.94v3.17h-1V5.71H60a3,3,0,0,1,2.09.66,2.35,2.35,0,0,1,.74,1.85,2.55,2.55,0,0,1-.83,2,3.16,3.16,0,0,1-2.22.76Zm0-4.34v3.45h1a2.33,2.33,0,0,0,1.56-.47,1.64,1.64,0,0,0,.54-1.31c0-1.11-.66-1.67-2-1.67Z"/><path class="cls-31" d="M65.37,14.11h-1V5.71h1Z"/><path class="cls-31" d="M68.57,10.94v3.17h-1V5.71h2.31A3,3,0,0,1,72,6.37a2.35,2.35,0,0,1,.74,1.85,2.54,2.54,0,0,1-.82,2,3.19,3.19,0,0,1-2.23.76Zm0-4.34v3.45h1a2.28,2.28,0,0,0,1.55-.47,1.64,1.64,0,0,0,.54-1.31c0-1.11-.66-1.67-2-1.67Z"/><path class="cls-31" d="M40.15,98.58h2v.84h-2v.93a6.56,6.56,0,0,1-1.29,4.49,6.52,6.52,0,0,1-3.35,1.72l-.49-.71a5.36,5.36,0,0,0,3.29-1.75,6,6,0,0,0,.92-3.63v-1H36.14v3.29h-.92V99.42H33.34v-.84h1.88V96.12h.92v2.46h3.09V96.1h.92Z"/><path class="cls-31" d="M49.21,97.1a9.54,9.54,0,0,0-.66-1.47l.63-.25a15.71,15.71,0,0,1,.91,2.1l-.4.16.15.37a10.14,10.14,0,0,1-1.72,5.88,8.61,8.61,0,0,1-4,2.64l-.52-.74a7.57,7.57,0,0,0,4-2.85,9.28,9.28,0,0,0,1.2-5H43.1V97.1ZM50,95.33l.61-.23a10.53,10.53,0,0,1,.88,2l-.64.27A12,12,0,0,0,50,95.33Z"/><path class="cls-31" d="M56.78,97.68h2.78l.27.59a19.35,19.35,0,0,1-3,3v5.21h-.95V102a19.78,19.78,0,0,1-3.7,2l-.51-.7a16.87,16.87,0,0,0,6.78-4.83h-6v-.83h3.43V95.89h1Zm.82,4,.55-.63a20.3,20.3,0,0,1,2.76,2.16l-.6.79A18.07,18.07,0,0,0,57.6,101.72Z"/><path class="cls-31" d="M61.13,99.27l.79-.35a18.28,18.28,0,0,1,1,2.71l-.81.32A15.77,15.77,0,0,0,61.13,99.27ZM62.49,106a6.22,6.22,0,0,0,3.3-2.74,10.43,10.43,0,0,0,1.06-4.58l.9.19a11.63,11.63,0,0,1-1.23,4.85,5.64,5.64,0,0,1-1.47,1.74,8.35,8.35,0,0,1-2,1.17Zm1-7.27.78-.33a18.21,18.21,0,0,1,.9,2.66l-.81.35A12.41,12.41,0,0,0,63.45,98.74Z"/><path class="cls-31" d="M70.73,100.6v5.91h-1V96.08h1v3.6a19.05,19.05,0,0,1,4.68,2l-.47.9A15.43,15.43,0,0,0,70.73,100.6Z"/><path class="cls-31" d="M87.14,106H86l-.91-2.44H81.46L80.6,106H79.48l3.3-8.71h1Zm-2.36-3.36-1.35-3.71a3.47,3.47,0,0,1-.13-.58h0a3.43,3.43,0,0,1-.13.58l-1.34,3.71Z"/><path class="cls-31" d="M144.27,98.65h1.92v.8h-1.92v.9a6.26,6.26,0,0,1-1.26,4.32,6.43,6.43,0,0,1-3.27,1.65l-.49-.68a5.33,5.33,0,0,0,3.22-1.68,5.7,5.7,0,0,0,.9-3.5v-1h-3v3.17h-.9V99.45h-1.83v-.8h1.83V96.28h.9v2.37h3V96.26h.9Z"/><path class="cls-31" d="M153.11,97.21a8.66,8.66,0,0,0-.64-1.41l.62-.24a16.21,16.21,0,0,1,.88,2l-.39.16.15.36a9.7,9.7,0,0,1-1.68,5.65,8.46,8.46,0,0,1-3.87,2.55l-.5-.72a7.37,7.37,0,0,0,3.9-2.74A8.67,8.67,0,0,0,152.75,98h-5.6v-.8Zm.75-1.7.59-.21a9.67,9.67,0,0,1,.86,2l-.63.25A12.12,12.12,0,0,0,153.86,95.51Z"/><path class="cls-31" d="M160.51,97.78h2.71l.26.57a18.86,18.86,0,0,1-2.95,2.92v5h-.93V102a19.08,19.08,0,0,1-3.61,2l-.5-.68a16.36,16.36,0,0,0,6.62-4.64h-5.87v-.8h3.34V96.05h.93Zm.8,3.88.54-.61a21.49,21.49,0,0,1,2.69,2.08l-.59.77A17.52,17.52,0,0,0,161.31,101.66Z"/><path class="cls-31" d="M164.76,99.31l.77-.34a17.27,17.27,0,0,1,1,2.61l-.79.31A14.65,14.65,0,0,0,164.76,99.31Zm1.33,6.48a6,6,0,0,0,3.21-2.63,10,10,0,0,0,1-4.41l.87.18a11.18,11.18,0,0,1-1.2,4.67,5.5,5.5,0,0,1-1.43,1.67,8.55,8.55,0,0,1-2,1.13Zm.94-7,.75-.31a16.07,16.07,0,0,1,.88,2.56l-.79.34A12.31,12.31,0,0,0,167,98.79Z"/><path class="cls-31" d="M174.13,100.59v5.68h-.92v-10h.92V99.7a18.77,18.77,0,0,1,4.57,1.9l-.45.87A15.06,15.06,0,0,0,174.13,100.59Z"/><path class="cls-31" d="M183.65,105.79V97.41H186a2.6,2.6,0,0,1,1.73.54,1.72,1.72,0,0,1,.64,1.38,2,2,0,0,1-.39,1.24,2.09,2.09,0,0,1-1.07.75v0a2.15,2.15,0,0,1,1.36.64,2,2,0,0,1,.51,1.41,2.22,2.22,0,0,1-.77,1.74,2.91,2.91,0,0,1-2,.66Zm1-7.49V101h1a1.91,1.91,0,0,0,1.27-.39,1.36,1.36,0,0,0,.47-1.1c0-.81-.54-1.22-1.62-1.22Zm0,3.59v3H186a2,2,0,0,0,1.34-.41,1.42,1.42,0,0,0,.48-1.13c0-1-.67-1.48-2-1.48Z"/><path class="cls-31" d="M34,157.38l-3.12,8.54H29.83l-3.06-8.54h1.1l2.34,6.77a4.53,4.53,0,0,1,.17.76h0a4.11,4.11,0,0,1,.19-.77L33,157.38Z"/><path class="cls-31" d="M43.82,165.92h-1v-5.73c0-.45,0-1,.09-1.66h0a5.46,5.46,0,0,1-.25.83l-2.88,6.56h-.49l-2.87-6.51a4.74,4.74,0,0,1-.25-.88h0c0,.34.05.9.05,1.68v5.71h-1v-8.54h1.3l2.59,6a7.91,7.91,0,0,1,.39,1h0c.17-.47.31-.82.41-1.05l2.64-5.93h1.24Z"/><path class="cls-31" d="M75.79,157.38l-3.12,8.54H71.58l-3.06-8.54h1.1L72,164.15a3.72,3.72,0,0,1,.17.76h0a3.45,3.45,0,0,1,.19-.77l2.38-6.76Z"/><path class="cls-31" d="M85.56,165.92h-1v-5.73c0-.45,0-1,.08-1.66h0a5.46,5.46,0,0,1-.25.83l-2.89,6.56H81l-2.87-6.51a4.6,4.6,0,0,1-.26-.88h0c0,.34,0,.9,0,1.68v5.71H77v-8.54h1.31l2.59,6a7.91,7.91,0,0,1,.39,1h0c.17-.47.3-.82.41-1.05l2.64-5.93h1.23Z"/><path class="cls-31" d="M139.37,157.38l-3.12,8.54h-1.09l-3.06-8.54h1.1l2.34,6.77a4.53,4.53,0,0,1,.17.76h0a3.51,3.51,0,0,1,.2-.77l2.38-6.76Z"/><path class="cls-31" d="M149.15,165.92h-1v-5.73c0-.45,0-1,.08-1.66h0a5.46,5.46,0,0,1-.25.83l-2.88,6.56h-.48l-2.88-6.51a4.74,4.74,0,0,1-.25-.88h0c0,.34.05.9.05,1.68v5.71h-.95v-8.54h1.3l2.59,6a7.91,7.91,0,0,1,.39,1h0c.16-.47.3-.82.4-1.05l2.64-5.93h1.24Z"/><path class="cls-31" d="M175.5,157.38l-3.12,8.54h-1.09l-3.06-8.54h1.1l2.33,6.77a3.16,3.16,0,0,1,.17.76h0a4.11,4.11,0,0,1,.19-.77l2.38-6.76Z"/><path class="cls-31" d="M185.27,165.92h-1v-5.73c0-.45,0-1,.08-1.66h0a5.46,5.46,0,0,1-.25.83l-2.88,6.56h-.49l-2.87-6.51a4.6,4.6,0,0,1-.26-.88h0c0,.34,0,.9,0,1.68v5.71h-1v-8.54H178l2.59,6a7.91,7.91,0,0,1,.39,1h0c.17-.47.31-.82.41-1.05l2.64-5.93h1.23Z"/><path class="cls-31" d="M187.06,165.58V164.4a2.23,2.23,0,0,0,.48.32,5.19,5.19,0,0,0,.59.24,4.31,4.31,0,0,0,.62.15,3.09,3.09,0,0,0,.58.06,2.23,2.23,0,0,0,1.36-.35,1.29,1.29,0,0,0,.3-1.58,1.55,1.55,0,0,0-.42-.47,3.92,3.92,0,0,0-.62-.41l-.78-.4-.83-.46a3.89,3.89,0,0,1-.66-.52,2,2,0,0,1-.45-.63,2.12,2.12,0,0,1-.16-.83,1.92,1.92,0,0,1,.26-1,2.07,2.07,0,0,1,.66-.72,3.08,3.08,0,0,1,.94-.41,4.3,4.3,0,0,1,1.07-.14,4.13,4.13,0,0,1,1.82.3v1.13a3.27,3.27,0,0,0-1.92-.53,3.69,3.69,0,0,0-.65.07,1.8,1.8,0,0,0-.57.23,1.12,1.12,0,0,0-.41.4,1,1,0,0,0-.16.59,1.26,1.26,0,0,0,.12.57,1.41,1.41,0,0,0,.35.43,3.43,3.43,0,0,0,.58.38c.22.13.48.26.78.41s.58.31.85.47a4.17,4.17,0,0,1,.72.56,2.42,2.42,0,0,1,.48.67,1.93,1.93,0,0,1,.18.85,2,2,0,0,1-.9,1.78,2.94,2.94,0,0,1-1,.39,5.24,5.24,0,0,1-1.14.12l-.49,0-.6-.09c-.21-.05-.4-.1-.58-.16A2,2,0,0,1,187.06,165.58Z"/><path class="cls-31" d="M193.42,165.58V164.4a2.86,2.86,0,0,0,.48.32,6.07,6.07,0,0,0,.59.24,4.66,4.66,0,0,0,.62.15,3.09,3.09,0,0,0,.58.06,2.21,2.21,0,0,0,1.36-.35,1.29,1.29,0,0,0,.3-1.58,1.65,1.65,0,0,0-.41-.47,4.58,4.58,0,0,0-.63-.41l-.78-.4-.82-.46A3.61,3.61,0,0,1,194,161a2,2,0,0,1-.44-.63,2,2,0,0,1-.16-.83,1.92,1.92,0,0,1,.25-1,2.28,2.28,0,0,1,.66-.72,3.19,3.19,0,0,1,.94-.41,4.3,4.3,0,0,1,1.07-.14,4.1,4.1,0,0,1,1.82.3v1.13a3.27,3.27,0,0,0-1.92-.53,3.48,3.48,0,0,0-.64.07,1.76,1.76,0,0,0-.58.23,1.21,1.21,0,0,0-.41.4,1,1,0,0,0-.16.59,1.26,1.26,0,0,0,.12.57,1.31,1.31,0,0,0,.36.43,3,3,0,0,0,.57.38l.78.41c.3.15.59.31.86.47a4.08,4.08,0,0,1,.71.56,2.46,2.46,0,0,1,.49.67,2.08,2.08,0,0,1,.18.85,2.16,2.16,0,0,1-.25,1.06,2,2,0,0,1-.66.72,2.8,2.8,0,0,1-.95.39,5.24,5.24,0,0,1-1.14.12l-.5,0-.6-.09c-.2-.05-.4-.1-.58-.16A2,2,0,0,1,193.42,165.58Z"/><path class="cls-31" d="M12.88,213.19a.26.26,0,0,1-.11.17,1.08,1.08,0,0,0-.25.45c-.26.64-.54,1.26-.84,1.84v6.07l0,1.92c0,.06,0,.09-.1.09H11a.08.08,0,0,1-.09-.09l0-1.92v-3.16c0-.75,0-1.32,0-1.72a14.58,14.58,0,0,1-1.14,1.51c-.07.1-.12.14-.14.14s-.06,0-.1-.1a1.71,1.71,0,0,0-.32-.52,12.67,12.67,0,0,0,2.52-4.27,3.07,3.07,0,0,0,.21-.83,5,5,0,0,1,.72.27Q12.88,213.08,12.88,213.19Zm7.76,9.68a1.73,1.73,0,0,0-.35.48c-.06.12-.1.18-.14.18l-.19-.08a12,12,0,0,1-2.79-2,9.19,9.19,0,0,1-2.72,2.11.42.42,0,0,1-.18.07s-.09-.06-.17-.17a1.43,1.43,0,0,0-.37-.4,9.09,9.09,0,0,0,2.95-2.14A8.19,8.19,0,0,1,15,217.2H14.4a16.05,16.05,0,0,1-.25,2.88,7.74,7.74,0,0,1-1.46,3.37c-.08.11-.13.16-.17.16s-.08-.05-.14-.15a1.27,1.27,0,0,0-.39-.38,6.55,6.55,0,0,0,1.46-3.21,20.93,20.93,0,0,0,.23-3.62l0-2.55c0-.06,0-.1.09-.1l1.67,0h3.17l1.64,0c.06,0,.09,0,.09.1v.54c0,.06,0,.1-.09.1l-1.64,0H14.4v2.24h4.11a.61.61,0,0,0,.28,0,.34.34,0,0,1,.15,0c.06,0,.17.08.34.23s.24.26.24.33a.21.21,0,0,1-.1.16,1.55,1.55,0,0,0-.26.49,12.07,12.07,0,0,1-1.56,3.18A11.3,11.3,0,0,0,20.64,222.87Zm-2.07-5.67h-3a7.49,7.49,0,0,0,1.51,3.13A9.66,9.66,0,0,0,18.57,217.2Z"/><path class="cls-31" d="M26.53,217.4a1.88,1.88,0,0,0-.28.37c-.06.11-.11.16-.15.16s-.09,0-.15-.12A6.5,6.5,0,0,1,24.68,216c0,2.15.06,3.34.06,3.55s0,.1-.09.1h-.53c-.07,0-.1,0-.1-.1s0-.43,0-1.18,0-1.55,0-2.22a7,7,0,0,1-1.92,2.45.33.33,0,0,1-.16.08s-.09-.05-.16-.16a1.18,1.18,0,0,0-.34-.36,7.76,7.76,0,0,0,2.46-2.84h-.65l-1.35,0c-.07,0-.1,0-.1-.1v-.47c0-.07,0-.1.1-.1l1.35,0H24V214a6.07,6.07,0,0,0-.07-1.14l.74.06c.08,0,.12.05.12.1a.77.77,0,0,1,0,.19,2.85,2.85,0,0,0-.06.77v.78h.33l1.35,0c.07,0,.1,0,.1.1v.47c0,.07,0,.1-.1.1l-1.35,0h-.3A7.08,7.08,0,0,0,26.53,217.4Zm-2.91,3.29a7.27,7.27,0,0,1-1.17,2.24.1.1,0,0,1-.07,0,.28.28,0,0,1-.12,0l-.34-.21c-.08-.05-.13-.09-.13-.13a.18.18,0,0,1,.05-.07A5.61,5.61,0,0,0,23,220.44c0-.06,0-.08.07-.08a.5.5,0,0,1,.16,0l.3.13q.15.08.15.12A.06.06,0,0,1,23.62,220.69Zm6.28,1.24a1.63,1.63,0,0,1-.63,1.24,2.27,2.27,0,0,1-.91.27,12.64,12.64,0,0,1-1.27.05,4.83,4.83,0,0,1-1.87-.21,1,1,0,0,1-.36-.36,1.8,1.8,0,0,1-.1-.65V221a4.89,4.89,0,0,0-.07-.93,5.94,5.94,0,0,1,.75.08c.1,0,.15.06.15.11a1.47,1.47,0,0,1-.05.17,2,2,0,0,0-.06.6v1c0,.33.06.53.2.61a3.36,3.36,0,0,0,1.41.18,3.66,3.66,0,0,0,1.72-.25c.26-.16.4-.56.45-1.21a2.15,2.15,0,0,0,.48.24q.18.07.18.18A.49.49,0,0,1,29.9,221.93Zm-1.68-.82a.29.29,0,0,1,.05.1s0,.07-.11.12l-.29.2a.43.43,0,0,1-.15.08s0,0-.09-.07a6.68,6.68,0,0,0-1.3-1.52s0-.05,0-.07,0-.06.1-.11l.29-.19a.14.14,0,0,1,.2,0A7.78,7.78,0,0,1,28.22,221.11Zm3.22-1.67a.08.08,0,0,1-.09.09l-1.32,0H28.49l-1.31,0c-.07,0-.1,0-.1-.09l0-1.44v-3.08l0-1.45c0-.07,0-.1.1-.1l1.31,0H30l1.32,0c.06,0,.09,0,.09.1l0,1.45V218Zm-.71-4.25V214H27.78v1.18Zm0,1.81v-1.22H27.78V217Zm0,1.9v-1.3H27.78v1.3Zm1.49,3.41a.17.17,0,0,1,0,.05s0,.08-.13.13l-.35.22-.16.08s0,0-.07-.07a8.89,8.89,0,0,0-1.32-2.14.13.13,0,0,1,0-.07s0-.06.11-.11l.31-.18a.36.36,0,0,1,.13-.05s.06,0,.09.07A10.71,10.71,0,0,1,32.22,222.31Z"/><path class="cls-31" d="M14.49,227.91h2.72l.26.58a19,19,0,0,1-3,3v5.11h-.93v-4.41a19.66,19.66,0,0,1-3.63,2l-.5-.69a16.55,16.55,0,0,0,6.65-4.73H10.2v-.82h3.36v-1.76h.93Zm.8,4,.54-.62a20.24,20.24,0,0,1,2.7,2.12l-.59.78A17.91,17.91,0,0,0,15.29,231.87Z"/><path class="cls-31" d="M18.79,229.47l.77-.34a16.6,16.6,0,0,1,1,2.66l-.79.31A14.69,14.69,0,0,0,18.79,229.47Zm1.34,6.61a6.1,6.1,0,0,0,3.23-2.69,10.19,10.19,0,0,0,1-4.49l.89.19a11.8,11.8,0,0,1-1.21,4.76,5.79,5.79,0,0,1-1.44,1.7,8.77,8.77,0,0,1-2,1.15Zm.94-7.13.76-.32a16.13,16.13,0,0,1,.88,2.61l-.79.34A12.13,12.13,0,0,0,21.07,229Z"/><path class="cls-31" d="M28.25,230.77v5.8h-.93V226.34h.93v3.54a18.58,18.58,0,0,1,4.58,1.93l-.45.88A15.58,15.58,0,0,0,28.25,230.77Z"/><path class="cls-31" d="M35.09,227.89v3.55h-.93v-4.37H41a18.61,18.61,0,0,1-.65,5.73,5.88,5.88,0,0,1-1.62,2.41,7,7,0,0,1-2.4,1.41l-.59-.68a5.37,5.37,0,0,0,3.7-3.34,15,15,0,0,0,.6-4.71Z"/><path class="cls-31" d="M42.22,231.08h6.55v.9H42.22Z"/><path class="cls-31" d="M52.89,228.36a11.56,11.56,0,0,1-2.22,3.51l-.69-.53a10.77,10.77,0,0,0,2.6-5.08l1,.15c-.08.31-.19.7-.34,1.14h4.17a13,13,0,0,1-2.3,6.41,8.9,8.9,0,0,1-3.8,2.7l-.53-.65a8.42,8.42,0,0,0,3.86-2.89,11.07,11.07,0,0,0,1.69-4.76Z"/><path class="cls-31" d="M105.75,219.8a1.9,1.9,0,0,0-.31.45c-.07.13-.12.2-.17.2l-.19-.06a12.89,12.89,0,0,1-3.16-1.93A8.35,8.35,0,0,1,100,216a11,11,0,0,1-4.88,4.36.57.57,0,0,1-.2.07s-.09-.06-.18-.2a1.85,1.85,0,0,0-.32-.38,11.52,11.52,0,0,0,2.76-1.61A9.1,9.1,0,0,0,95.74,217s0,0,0-.06a.18.18,0,0,1,.06-.1l.3-.28s.08-.06.1-.06a.13.13,0,0,1,.08,0,9.43,9.43,0,0,1,1.5,1.3,8.39,8.39,0,0,0,1.59-2h-1.8l-1.29,0c-.08,0-.12,0-.12-.1v-.49c0-.06,0-.1.12-.1l1.29,0h1.69l1,0c.07,0,.12,0,.16.13a4.82,4.82,0,0,0,.61,1.13,4.93,4.93,0,0,0,.44.58,8.43,8.43,0,0,0,1-1.08,2.61,2.61,0,0,0,.31-.49,3.21,3.21,0,0,1,.61.39.2.2,0,0,1,.09.15c0,.06,0,.1-.11.14a1.06,1.06,0,0,0-.39.31,12,12,0,0,1-1.1,1.05,7.74,7.74,0,0,0,.91.76,10.86,10.86,0,0,0,1.24-1.17,2.7,2.7,0,0,0,.33-.5,4,4,0,0,1,.61.39.24.24,0,0,1,.1.16c0,.05,0,.1-.14.14a1.11,1.11,0,0,0-.38.3,12.58,12.58,0,0,1-1.2,1.06A12.7,12.7,0,0,0,105.75,219.8Zm-.43,4.21a4,4,0,0,1-.23,1,1,1,0,0,1-.4.46,3.82,3.82,0,0,1-1.73.25,4.24,4.24,0,0,1-1.72-.21.72.72,0,0,1-.33-.36,1.82,1.82,0,0,1-.07-.59v-2.32H98.93a4.25,4.25,0,0,1-1.19,2.35,6.38,6.38,0,0,1-2.21,1.2.76.76,0,0,1-.19.05c-.06,0-.12-.06-.2-.19a1.78,1.78,0,0,0-.4-.43,5.87,5.87,0,0,0,2.46-1.15,3.36,3.36,0,0,0,1-1.83H97l-1.73,0c-.07,0-.11,0-.11-.09v-.51c0-.06,0-.09.11-.09l1.73,0h1.24a12.69,12.69,0,0,0,.07-1.45v-.32l-.79,0H97.3a.09.09,0,0,1-.1-.1v-.48c0-.07,0-.11.1-.11l1.51,0h2.33l1.56,0c.07,0,.1,0,.1.11v.48a.09.09,0,0,1-.1.1h-.15l-1,0v1.77h1.48l1.74,0c.06,0,.1,0,.1.09v.51c0,.06,0,.09-.1.09l-1.74,0h-1.48v2.11c0,.3.06.49.17.56a2.87,2.87,0,0,0,1.22.15,2.61,2.61,0,0,0,1.29-.2c.21-.16.34-.62.39-1.39a2.45,2.45,0,0,0,.49.23c.14.05.21.11.21.19A1,1,0,0,1,105.32,224Zm-4.48-2.42v-1.77H99.08v.32c0,.49,0,1-.06,1.45Z"/><path class="cls-31" d="M110.29,215a.27.27,0,0,1-.1.19,1.39,1.39,0,0,0-.23.48q-.39,1.08-.72,1.8v6.4l0,2c0,.06,0,.09-.1.09h-.61s-.08,0-.08-.09l0-2v-3.17c0-.8,0-1.41,0-1.84a13,13,0,0,1-1.12,1.62c-.08.1-.13.14-.16.14s-.06,0-.1-.14a1.37,1.37,0,0,0-.31-.48,13.46,13.46,0,0,0,2.41-4.5,3.65,3.65,0,0,0,.17-.85,5.82,5.82,0,0,1,.73.21C110.24,215,110.29,215,110.29,215Zm8,2.74c0,.07,0,.1-.1.1l-1.76,0H112l-1.75,0c-.07,0-.1,0-.1-.1v-.53a.09.09,0,0,1,.1-.1l1.75,0h4.41l1.76,0a.09.09,0,0,1,.1.1Zm-1.18,8c0,.06,0,.09-.08.09h-.6a.08.08,0,0,1-.09-.09v-.52h-4.51v.56c0,.07,0,.11-.1.11h-.56c-.07,0-.1,0-.1-.11l0-1.53v-.93l0-1s0-.08.1-.08l1.63,0h2.61l1.62,0a.07.07,0,0,1,.08.08l0,.91v1Zm-.27-6.35c0,.07,0,.1-.1.1l-1.51,0H113l-1.53,0a.09.09,0,0,1-.1-.1V219c0-.06,0-.09.1-.09l1.53,0h2.27l1.51,0c.07,0,.1,0,.1.09Zm0,1.69c0,.07,0,.1-.1.1l-1.51,0H113l-1.53,0a.09.09,0,0,1-.1-.1v-.49c0-.06,0-.09.1-.09l1.53,0h2.27l1.51,0c.07,0,.1,0,.1.09Zm.12-5.08q0,.09-.12.09l-1.52,0H113l-1.54,0c-.07,0-.11,0-.11-.09v-.51a.1.1,0,0,1,.11-.1l1.54,0h2.33l1.52,0c.08,0,.12,0,.12.1Zm-.62,8.59v-1.73h-4.51v1.73Z"/><path class="cls-31" d="M130.32,223.39a2.57,2.57,0,0,1-.61,1.8,1.51,1.51,0,0,1-.76.32,7.06,7.06,0,0,1-1.08.07,4.43,4.43,0,0,1-1.63-.2.85.85,0,0,1-.44-.41,2,2,0,0,1-.12-.8v-4.53H123.6a7.6,7.6,0,0,1-.9,4.08,6.1,6.1,0,0,1-2.7,2l-.21.06s-.1-.06-.18-.18a2.84,2.84,0,0,0-.42-.47,6.75,6.75,0,0,0,2.16-1.09,3.43,3.43,0,0,0,1.11-1.67,9.28,9.28,0,0,0,.35-2.69h-1.74l-1.65,0c-.07,0-.11,0-.11-.1V219c0-.07,0-.1.11-.1l1.65,0h7.3l1.64,0c.07,0,.11,0,.11.1v.57c0,.07,0,.1-.11.1l-1.64,0h-1.88v4.3a2,2,0,0,0,.06.62.32.32,0,0,0,.23.19,4,4,0,0,0,1.11.1,4.06,4.06,0,0,0,.83-.06,1.05,1.05,0,0,0,.46-.23,3.15,3.15,0,0,0,.39-1.77,2.73,2.73,0,0,0,.56.3c.13,0,.2.11.2.17A.85.85,0,0,1,130.32,223.39Zm-1.42-7c0,.06,0,.1-.09.1l-1.78,0h-4.55l-1.77,0a.1.1,0,0,1-.11-.1v-.59c0-.07,0-.1.11-.1l1.77,0H127l1.78,0c.06,0,.09,0,.09.1Z"/><path class="cls-31" d="M136.54,216.93a19.65,19.65,0,0,1-1.33,6.57,1.86,1.86,0,0,1-1.69,1.33,1.56,1.56,0,0,1-1.43-1,5.29,5.29,0,0,1-.48-2.49,6.61,6.61,0,0,1,.41-2.34,4.63,4.63,0,0,1,.93-1.54,4.15,4.15,0,0,1,1.53-1,4.86,4.86,0,0,1,1.76-.33,3.69,3.69,0,0,1,3.17,1.33,5.67,5.67,0,0,1,.86,3.4,4.56,4.56,0,0,1-1,3,5,5,0,0,1-2.92,1.59l-.44-.75a3.79,3.79,0,0,0,3.43-4.11,4.19,4.19,0,0,0-.92-3A2.51,2.51,0,0,0,136.54,216.93Zm-.94.1a2.77,2.77,0,0,0-1.16.36,3.86,3.86,0,0,0-.94.83,4.64,4.64,0,0,0-1,3.19,4,4,0,0,0,.37,1.9c.19.37.42.55.67.55a.77.77,0,0,0,.56-.23,2.13,2.13,0,0,0,.39-.68A17.69,17.69,0,0,0,135.6,217Z"/><path class="cls-31" d="M141,216h6.88q0,4.49-1.61,6.7a8.52,8.52,0,0,1-4.2,2.92l-.52-.75a7.65,7.65,0,0,0,4.06-2.9,9.4,9.4,0,0,0,1.22-5.13H141Z"/><path class="cls-31" d="M149.63,225v-8.94h6.53V225Zm5.57-.85v-7.25h-4.61v7.25Z"/><path class="cls-31" d="M157.9,220h6.8v.93h-6.8Z"/><path class="cls-31" d="M171,216.93a19.65,19.65,0,0,1-1.33,6.57,1.86,1.86,0,0,1-1.69,1.33,1.56,1.56,0,0,1-1.43-1,5.29,5.29,0,0,1-.48-2.49,6.61,6.61,0,0,1,.41-2.34,4.63,4.63,0,0,1,.93-1.54,4.15,4.15,0,0,1,1.53-1,4.86,4.86,0,0,1,1.76-.33,3.69,3.69,0,0,1,3.17,1.33,5.67,5.67,0,0,1,.86,3.4,4.56,4.56,0,0,1-1,3,5,5,0,0,1-2.92,1.59l-.44-.75a3.79,3.79,0,0,0,3.43-4.11,4.19,4.19,0,0,0-.92-3A2.51,2.51,0,0,0,171,216.93Zm-.94.1a2.77,2.77,0,0,0-1.16.36,3.86,3.86,0,0,0-.94.83,4.64,4.64,0,0,0-1,3.19,4,4,0,0,0,.37,1.9c.19.37.42.55.67.55a.77.77,0,0,0,.56-.23A2.13,2.13,0,0,0,169,223,17.69,17.69,0,0,0,170.1,217Z"/><path class="cls-31" d="M186.84,217.7c0,.07,0,.1-.1.1l-1.62,0h-4.45c0,.68-.08,1.32-.16,1.91h3.15l1.47,0a.1.1,0,0,1,.11.11v0l-.06.88a26,26,0,0,1-.45,3.77,1.72,1.72,0,0,1-.58,1,1.65,1.65,0,0,1-1,.25,11.45,11.45,0,0,1-1.2-.08c-.12,0-.2,0-.22-.06a.59.59,0,0,1,0-.22,1.33,1.33,0,0,0-.18-.59,9.42,9.42,0,0,0,1.59.15c.42,0,.7-.26.83-.77a23.79,23.79,0,0,0,.42-3.74h-4a7.42,7.42,0,0,1-1.35,3.29,8,8,0,0,1-2.49,2.05.64.64,0,0,1-.19.07s-.11-.07-.2-.2a1.39,1.39,0,0,0-.45-.4,6.76,6.76,0,0,0,3.28-3,10.78,10.78,0,0,0,.82-4.48h-2.2l-1.62,0c-.07,0-.1,0-.1-.1v-.58c0-.06,0-.09.1-.09l1.62,0h3.23v-1a6,6,0,0,0-.09-1.29,4.61,4.61,0,0,1,.86.07q.15,0,.15.09a1.21,1.21,0,0,1-.07.24,3.57,3.57,0,0,0-.06.87v1h3.46l1.62,0c.07,0,.1,0,.1.09Z"/><path class="cls-31" d="M198.27,217.14l0,2v5.51a1.05,1.05,0,0,1-.3.83,3.15,3.15,0,0,1-1.58.23.43.43,0,0,1-.23,0,.46.46,0,0,1-.07-.2,2.54,2.54,0,0,0-.25-.55c.44,0,.78.05,1,.05a.8.8,0,0,0,.48-.11.42.42,0,0,0,.13-.35v-6.73h-8.09v6.09l0,1.84a.09.09,0,0,1-.1.1h-.63c-.06,0-.09,0-.09-.1l0-1.9v-4.7l0-1.94c0-.07,0-.1.09-.1l1.77,0h1.3a15,15,0,0,0,.78-1.55,2.72,2.72,0,0,0,.22-.71,7.15,7.15,0,0,1,.8.2c.08,0,.12.08.12.14a.19.19,0,0,1-.1.16.76.76,0,0,0-.19.25,14.36,14.36,0,0,1-.79,1.51h3.83l1.75,0C198.24,217,198.27,217.07,198.27,217.14Zm-2.73,6.46a.09.09,0,0,1-.1.1h-.53a.1.1,0,0,1-.11-.1v-.54h-2.89v.62c0,.07,0,.11-.09.11h-.53c-.07,0-.1,0-.1-.11l0-2v-.94l0-1.26a.09.09,0,0,1,.1-.1l1.31,0h1.52l1.32,0a.09.09,0,0,1,.1.1l0,1.11v1Zm-.74-1.2v-2.35h-2.89v2.35Z"/><path class="cls-31" d="M97.44,240.29h-.89A7.81,7.81,0,0,1,94.66,235a8.09,8.09,0,0,1,1.89-5.41h.91a8.23,8.23,0,0,0-1.92,5.4A8.07,8.07,0,0,0,97.44,240.29Z"/><path class="cls-31" d="M99.54,229.55v2.73h-.88v-2.73Zm2,0v2.73h-.88v-2.73Z"/><path class="cls-31" d="M113.79,235.17a.09.09,0,0,1-.1.1l-1.6,0H110.7a6.14,6.14,0,0,1-1.3,1.86c.85.29,1.94.74,3.27,1.34,0,0,.07,0,.07.07a.23.23,0,0,1-.07.13l-.25.35c-.08.11-.13.17-.15.17a.11.11,0,0,1-.06,0,22.2,22.2,0,0,0-3.38-1.52,10.31,10.31,0,0,1-5.18,1.57h-.09a.22.22,0,0,1-.16-.05,1,1,0,0,1-.1-.19,1.33,1.33,0,0,0-.3-.42,10.86,10.86,0,0,0,5-1.2c-.78-.21-1.51-.38-2.2-.51-.07.1-.17.21-.28.35a.27.27,0,0,1-.17.08l-.11,0-.42-.1q-.09,0-.09-.09a.42.42,0,0,1,.12-.16c.18-.2.37-.43.58-.7s.43-.56.68-.94h-1.67l-1.6,0a.09.09,0,0,1-.1-.1v-.52a.09.09,0,0,1,.1-.1l1.6,0h2.1l.16-.28a4,4,0,0,0,.45-1,3.71,3.71,0,0,1,.75.2c.09,0,.14.08.14.14s0,.1-.12.16a1.86,1.86,0,0,0-.42.54l-.15.24h4.79l1.6,0a.09.09,0,0,1,.1.1Zm-.16-6c0,.06,0,.09-.1.09l-1.65,0H109.8v1.23h.85l1.79,0c.07,0,.1,0,.1.1l0,.91v.86l0,.91c0,.07,0,.1-.1.1l-1.79,0h-4.82l-1.8,0c-.07,0-.1,0-.1-.1l0-.91v-.86l0-.91c0-.07,0-.1.1-.1l1.8,0h.69v-1.23h-1.88l-1.65,0c-.06,0-.1,0-.1-.09v-.54c0-.06,0-.09.1-.09l1.65,0h7.24l1.65,0c.06,0,.1,0,.1.09Zm-7.11,3.54V231h-1.84v1.66Zm3.33,2.58h-3c-.29.45-.53.8-.71,1,.9.18,1.71.37,2.43.58A4.91,4.91,0,0,0,109.85,235.24Zm-.75-4.82v-1.23h-1.88v1.23Zm0,2.24V231h-1.88v1.66Zm2.69,0V231h-2v1.66Z"/><path class="cls-31" d="M125.52,237.5a1.85,1.85,0,0,0-.44.49c-.07.11-.12.16-.16.16l-.17-.09a10.13,10.13,0,0,1-4.49-5.82c.06,3.17.09,5.07.09,5.71a1,1,0,0,1-.44,1,4,4,0,0,1-1.51.2c-.13,0-.2,0-.23,0a1.14,1.14,0,0,1-.07-.21,1.53,1.53,0,0,0-.29-.57c.39,0,.69.05.9.05a1.24,1.24,0,0,0,.69-.13.55.55,0,0,0,.16-.47v-6.58h-3.15l-1.65,0c-.07,0-.1,0-.1-.1v-.55c0-.07,0-.1.1-.1l1.65,0h3.15v-.95a8.18,8.18,0,0,0-.09-1.5c.31,0,.59,0,.84.08.09,0,.14,0,.14.1a.73.73,0,0,1-.06.26,4.12,4.12,0,0,0-.07,1.05v1h3.21l1.66,0c.07,0,.11,0,.11.1v.55c0,.07,0,.1-.11.1l-1.66,0h-3.11a12,12,0,0,0,1.25,2.83,11,11,0,0,0,1.61-1.67,2,2,0,0,0,.34-.57,2.74,2.74,0,0,1,.63.45.26.26,0,0,1,.11.18s0,.1-.14.16a2.19,2.19,0,0,0-.58.51,15.37,15.37,0,0,1-1.59,1.51A10.2,10.2,0,0,0,125.52,237.5Zm-6.64-2.32a1.63,1.63,0,0,1,0,.18c0,.06-.07.13-.18.22a26.54,26.54,0,0,1-2.88,1.76,1.75,1.75,0,0,0-.44.28c-.07.06-.12.1-.16.1s-.09-.05-.15-.13a6.06,6.06,0,0,1-.34-.67,7.23,7.23,0,0,0,.92-.38,21.9,21.9,0,0,0,3.14-1.88A2.78,2.78,0,0,0,118.88,235.18Zm-.87-1.6s0,0,0,.07,0,.07-.08.12l-.32.31a.6.6,0,0,1-.16.11s0,0,0-.05a7,7,0,0,0-1.53-1.71.18.18,0,0,1,0-.07s0-.07.11-.13l.28-.26c0-.05.09-.08.12-.08l.07,0A7.53,7.53,0,0,1,118,233.58Zm5.92-4.11s0,.05,0,.07,0,.08-.12.15l-.24.21c-.09.08-.14.11-.17.11a.1.1,0,0,1-.08,0,6.43,6.43,0,0,0-1.47-1.25s-.06-.05-.06-.07,0-.07.09-.13l.27-.22s.07-.06.09-.06l.09,0A7.87,7.87,0,0,1,123.93,229.47Z"/><path class="cls-31" d="M127.93,229.55v2.73h-.88v-2.73Zm2,0v2.73h-.88v-2.73Z"/><path class="cls-31" d="M132.08,240.29h-.89a8.07,8.07,0,0,0,1.9-5.34,8.22,8.22,0,0,0-1.91-5.4h.9A8.06,8.06,0,0,1,134,235,7.78,7.78,0,0,1,132.08,240.29Z"/><path class="cls-31" d="M105.94,265.37a1.44,1.44,0,0,0-.23.58.44.44,0,0,1-.08.23.48.48,0,0,1-.21,0q-2.43.15-4.44.15a8,8,0,0,1-3.07-.41,2.41,2.41,0,0,1-1.17-1.24A10.31,10.31,0,0,1,95.39,266a1.51,1.51,0,0,0-.26.26c0,.08-.1.11-.15.11a.2.2,0,0,1-.15-.09,6.43,6.43,0,0,1-.36-.68,6.1,6.1,0,0,0,.76-.45,8.82,8.82,0,0,0,1.16-1V261h-.92l-.87,0a.1.1,0,0,1-.11-.11v-.54a.1.1,0,0,1,.11-.1l.87,0h.67l.91,0c.06,0,.09,0,.09.1l0,1.18v2.56a2.11,2.11,0,0,0,1.07,1.22,6.74,6.74,0,0,0,2.51.33C102.38,265.65,104.13,265.55,105.94,265.37Zm-8.69-7.58a.17.17,0,0,1,0,.07s0,.07-.11.13l-.3.23a.31.31,0,0,1-.15.09.12.12,0,0,1-.09-.06,12.8,12.8,0,0,0-1.57-1.87s0-.06,0-.08,0-.07.11-.13l.29-.21a.23.23,0,0,1,.13-.07.15.15,0,0,1,.08.05A13.3,13.3,0,0,1,97.25,257.79Zm8.49,6.28a1.79,1.79,0,0,0-.32.51c-.06.14-.11.21-.16.21a.62.62,0,0,1-.18-.07,10.93,10.93,0,0,1-2.75-1.73,9.39,9.39,0,0,1-2.57,1.76l-.17.06s-.11-.05-.19-.16a1.34,1.34,0,0,0-.4-.39,8.85,8.85,0,0,0,2.83-1.79,7.49,7.49,0,0,1-1.68-3.05h-.53c0,.8-.08,1.46-.15,2a7.15,7.15,0,0,1-1.15,3.12c-.06.1-.11.15-.14.15s-.08,0-.16-.14a1.64,1.64,0,0,0-.44-.33,6.33,6.33,0,0,0,1.19-3.06,23.83,23.83,0,0,0,.15-3.18l0-1.72c0-.07,0-.1.09-.1l1.68,0h3l1.64,0c.07,0,.1,0,.1.1v.54c0,.07,0,.1-.1.1l-1.64,0H99.63v1.91h4.12a.77.77,0,0,0,.25,0,.26.26,0,0,1,.13-.05c.08,0,.2.08.36.25s.22.26.22.32a.22.22,0,0,1-.1.15,1.16,1.16,0,0,0-.25.43,10,10,0,0,1-1.53,2.6A9.59,9.59,0,0,0,105.74,264.07Zm-2-4.65h-2.91a6.65,6.65,0,0,0,1.51,2.53A8.79,8.79,0,0,0,103.72,259.42Z"/><path class="cls-31" d="M109.58,255.71a.3.3,0,0,1-.09.19,1.43,1.43,0,0,0-.24.49q-.39,1.08-.72,1.8v6.39l0,2a.09.09,0,0,1-.1.1h-.6c-.06,0-.09,0-.09-.1l0-2v-3.17c0-.8,0-1.41,0-1.84a15.34,15.34,0,0,1-1.11,1.63c-.08.09-.14.14-.17.14s-.06,0-.1-.14a1.21,1.21,0,0,0-.31-.48,13.51,13.51,0,0,0,2.41-4.51,3.55,3.55,0,0,0,.17-.85,4.21,4.21,0,0,1,.73.22C109.53,255.62,109.58,255.67,109.58,255.71Zm8,2.75c0,.06,0,.09-.11.09l-1.75,0h-4.42l-1.75,0c-.06,0-.1,0-.1-.09v-.53a.09.09,0,0,1,.1-.1l1.75,0h4.42l1.75,0c.07,0,.11,0,.11.1Zm-1.19,8c0,.06,0,.08-.08.08h-.59c-.07,0-.1,0-.1-.08V266h-4.51v.57c0,.07,0,.1-.09.1h-.57c-.07,0-.1,0-.1-.1l0-1.54v-.92l0-1c0-.06,0-.09.1-.09l1.63,0h2.61l1.62,0s.08,0,.08.09l0,.91v1Zm-.26-6.35c0,.06,0,.09-.1.09l-1.52,0h-2.27l-1.52,0c-.07,0-.11,0-.11-.09v-.49c0-.07,0-.1.11-.1l1.52,0h2.27l1.52,0a.09.09,0,0,1,.1.1Zm0,1.69c0,.06,0,.09-.1.09l-1.52,0h-2.27l-1.52,0c-.07,0-.11,0-.11-.09v-.49c0-.07,0-.1.11-.1l1.52,0h2.27l1.52,0a.09.09,0,0,1,.1.1Zm.11-5.08c0,.05,0,.08-.11.08l-1.52,0h-2.34l-1.54,0c-.07,0-.1,0-.1-.08v-.52c0-.06,0-.09.1-.09l1.54,0h2.34l1.52,0c.07,0,.11,0,.11.09Zm-.62,8.58V263.6h-4.51v1.73Z"/><path class="cls-31" d="M128.74,256.2l0,2v5.55l0,1.68a1,1,0,0,1-.37.86,3,3,0,0,1-1.55.25c-.13,0-.21,0-.24,0a.47.47,0,0,1-.07-.21,1.43,1.43,0,0,0-.23-.57c.38,0,.79.05,1.24.05.29,0,.44-.17.44-.5v-2.64h-3.5v1.49l0,2.07c0,.07,0,.1-.11.1h-.59c-.07,0-.1,0-.1-.1l0-2.07v-1.49h-3.35a8.24,8.24,0,0,1-.49,2.28,6.43,6.43,0,0,1-.78,1.44q-.12.15-.15.15s-.09,0-.18-.12a2.51,2.51,0,0,0-.52-.32,5.91,5.91,0,0,0,1.15-2.36,16.27,16.27,0,0,0,.31-3.62v-1.88l0-2a.09.09,0,0,1,.1-.1l1.77,0h5.31l1.78,0A.1.1,0,0,1,128.74,256.2Zm-5,5.71V259.7h-3.24V260c0,.54,0,1.17-.06,1.87Zm0-2.89v-2.21h-3.24V259Zm4.25,0v-2.21h-3.5V259Zm0,2.89V259.7h-3.5v2.21Z"/><path class="cls-31" d="M135.52,257.6a19.47,19.47,0,0,1-1.33,6.58,1.86,1.86,0,0,1-1.69,1.32,1.56,1.56,0,0,1-1.43-.95,5.29,5.29,0,0,1-.48-2.49,6.6,6.6,0,0,1,.41-2.33,4.43,4.43,0,0,1,.93-1.54,4.17,4.17,0,0,1,1.53-1,4.86,4.86,0,0,1,1.76-.33,3.69,3.69,0,0,1,3.17,1.34,5.63,5.63,0,0,1,.86,3.4,4.56,4.56,0,0,1-1,3,4.94,4.94,0,0,1-2.92,1.59l-.43-.75a3.78,3.78,0,0,0,3.42-4.11,4.2,4.2,0,0,0-.92-3A2.51,2.51,0,0,0,135.52,257.6Zm-.94.1a2.77,2.77,0,0,0-1.16.36,4.05,4.05,0,0,0-.94.83,4.71,4.71,0,0,0-1,3.2,4.19,4.19,0,0,0,.37,1.9c.19.36.42.55.67.55a.74.74,0,0,0,.56-.24,2.18,2.18,0,0,0,.39-.67A17.56,17.56,0,0,0,134.58,257.7Z"/><path class="cls-31" d="M140,256.69h6.89q0,4.47-1.62,6.7a8.58,8.58,0,0,1-4.2,2.91l-.52-.75a7.56,7.56,0,0,0,4.06-2.9,9.49,9.49,0,0,0,1.23-5.13H140Z"/><path class="cls-31" d="M148.62,265.7v-8.94h6.52v8.94Zm5.56-.84V257.6h-4.61v7.26Z"/><path class="cls-31" d="M156.88,260.65h6.8v.93h-6.8Z"/><path class="cls-31" d="M170,257.6a19.72,19.72,0,0,1-1.33,6.58A1.86,1.86,0,0,1,167,265.5a1.56,1.56,0,0,1-1.43-.95,5.29,5.29,0,0,1-.48-2.49,6.6,6.6,0,0,1,.41-2.33,4.43,4.43,0,0,1,.93-1.54,4.17,4.17,0,0,1,1.53-1,4.86,4.86,0,0,1,1.76-.33,3.69,3.69,0,0,1,3.17,1.34,5.63,5.63,0,0,1,.86,3.4,4.56,4.56,0,0,1-1,3,4.94,4.94,0,0,1-2.92,1.59l-.44-.75a3.78,3.78,0,0,0,3.43-4.11,4.2,4.2,0,0,0-.92-3A2.51,2.51,0,0,0,170,257.6Zm-.94.1a2.77,2.77,0,0,0-1.16.36,4.05,4.05,0,0,0-.94.83,4.66,4.66,0,0,0-1,3.2,4.06,4.06,0,0,0,.37,1.9c.19.36.42.55.67.55a.74.74,0,0,0,.56-.24,2.18,2.18,0,0,0,.39-.67A17.56,17.56,0,0,0,169.08,257.7Z"/><path class="cls-31" d="M185.82,258.38c0,.06,0,.09-.1.09l-1.62,0h-4.45c0,.68-.08,1.32-.15,1.91h3.14l1.47,0c.08,0,.12,0,.12.1v0l-.07.87a25.8,25.8,0,0,1-.45,3.77,1.75,1.75,0,0,1-.58,1.05,1.63,1.63,0,0,1-1,.24,11.16,11.16,0,0,1-1.2-.07c-.12,0-.2,0-.22-.07a.54.54,0,0,1,0-.22,1.37,1.37,0,0,0-.18-.59,9.42,9.42,0,0,0,1.59.15c.42,0,.7-.25.83-.76a22.78,22.78,0,0,0,.42-3.75h-4a7.51,7.51,0,0,1-1.35,3.3,8.16,8.16,0,0,1-2.49,2,.44.44,0,0,1-.19.07c-.05,0-.11-.06-.2-.2a1.5,1.5,0,0,0-.45-.39,6.81,6.81,0,0,0,3.28-3,10.86,10.86,0,0,0,.82-4.49h-2.2l-1.62,0c-.07,0-.1,0-.1-.09v-.58c0-.07,0-.1.1-.1l1.62,0h3.23v-1a6.17,6.17,0,0,0-.09-1.29,4.61,4.61,0,0,1,.86.07c.1,0,.15,0,.15.1a.66.66,0,0,1-.07.23,3.61,3.61,0,0,0-.06.88v1h3.46l1.62,0c.07,0,.1,0,.1.1Z"/><path class="cls-31" d="M197.25,257.81l0,2v5.51a1,1,0,0,1-.3.82,3.15,3.15,0,0,1-1.58.23c-.13,0-.21,0-.23,0s0-.08-.07-.2a2.14,2.14,0,0,0-.25-.55c.44,0,.78.05,1,.05a.78.78,0,0,0,.48-.11.42.42,0,0,0,.13-.35v-6.72h-8.08v6.08l0,1.84c0,.07,0,.1-.1.1h-.63c-.06,0-.09,0-.09-.1l0-1.9v-4.7l0-1.94c0-.07,0-.1.09-.1l1.77,0h1.3c.32-.56.58-1.08.79-1.55a3.52,3.52,0,0,0,.21-.72,6.63,6.63,0,0,1,.8.2c.08,0,.12.09.12.14a.19.19,0,0,1-.1.16.87.87,0,0,0-.19.25,16.66,16.66,0,0,1-.78,1.52h3.82l1.75,0C197.22,257.71,197.25,257.74,197.25,257.81Zm-2.73,6.46c0,.07,0,.1-.1.1h-.53c-.07,0-.11,0-.11-.1v-.53h-2.89v.62c0,.07,0,.1-.09.1h-.53c-.07,0-.1,0-.1-.1l0-2v-.94l0-1.26c0-.07,0-.1.1-.1l1.31,0h1.52l1.32,0c.07,0,.1,0,.1.1l0,1.1v1Zm-.74-1.2v-2.34h-2.89v2.34Z"/><path class="cls-31" d="M97.44,281h-.89a7.83,7.83,0,0,1-1.89-5.33,8.12,8.12,0,0,1,1.89-5.42h.91a8.23,8.23,0,0,0-1.92,5.4A8.11,8.11,0,0,0,97.44,281Z"/><path class="cls-31" d="M99.54,270.22V273h-.88v-2.73Zm2,0V273h-.88v-2.73Z"/><path class="cls-31" d="M114.27,278.57a1.32,1.32,0,0,0-.24.58.46.46,0,0,1-.07.23.59.59,0,0,1-.22,0c-1.62.1-3.1.15-4.43.15a8,8,0,0,1-3.08-.41,2.47,2.47,0,0,1-1.17-1.23,11.69,11.69,0,0,1-1.34,1.22,1.7,1.7,0,0,0-.27.26c0,.08-.09.11-.14.11a.21.21,0,0,1-.16-.09c-.13-.23-.25-.46-.36-.68a6.24,6.24,0,0,0,.77-.45,10.32,10.32,0,0,0,1.16-1v-3.1h-.93l-.86,0a.1.1,0,0,1-.11-.11v-.54a.1.1,0,0,1,.11-.1l.86,0h.68l.9,0a.09.09,0,0,1,.1.1l0,1.18v2.56a2.09,2.09,0,0,0,1.08,1.22,6.67,6.67,0,0,0,2.5.33A50.27,50.27,0,0,0,114.27,278.57Zm-8.7-7.58a.17.17,0,0,1,0,.07s0,.07-.11.13l-.3.24a.36.36,0,0,1-.15.08s-.05,0-.08-.06a12.8,12.8,0,0,0-1.58-1.87s0-.06,0-.08,0-.07.11-.13l.29-.21a.32.32,0,0,1,.13-.07.1.1,0,0,1,.08.05A12.68,12.68,0,0,1,105.57,271Zm8.5,6.28a1.84,1.84,0,0,0-.33.51c-.06.14-.11.21-.16.21l-.17-.06a11,11,0,0,1-2.75-1.74,9.29,9.29,0,0,1-2.58,1.76l-.17.06s-.1-.05-.19-.16a1.34,1.34,0,0,0-.4-.39,8.9,8.9,0,0,0,2.84-1.79,7.51,7.51,0,0,1-1.69-3.05H108a18.42,18.42,0,0,1-.16,2,7,7,0,0,1-1.14,3.12c-.07.1-.11.15-.14.15s-.09,0-.16-.14a2,2,0,0,0-.44-.33,6.43,6.43,0,0,0,1.19-3.06,24.25,24.25,0,0,0,.14-3.18l0-1.72c0-.07,0-.1.1-.1l1.68,0h3l1.65,0a.09.09,0,0,1,.1.1V270a.09.09,0,0,1-.1.1l-1.65,0H108V272h4.11a.73.73,0,0,0,.25,0,.29.29,0,0,1,.14-.05c.07,0,.19.08.36.25s.21.26.21.32a.19.19,0,0,1-.1.15,1.32,1.32,0,0,0-.25.43,10.24,10.24,0,0,1-1.52,2.6A9.35,9.35,0,0,0,114.07,277.27Zm-2-4.65h-2.92a6.78,6.78,0,0,0,1.51,2.53A9,9,0,0,0,112.05,272.62Z"/><path class="cls-31" d="M117.91,268.91a.27.27,0,0,1-.1.19,1.43,1.43,0,0,0-.24.49c-.25.72-.49,1.32-.71,1.8v6.39l0,2a.09.09,0,0,1-.1.1h-.6c-.06,0-.09,0-.09-.1l0-2v-3.17c0-.8,0-1.41,0-1.84A15.34,15.34,0,0,1,115,274.4c-.08.09-.14.14-.16.14s-.07-.05-.1-.14a1.47,1.47,0,0,0-.31-.48,13.7,13.7,0,0,0,2.41-4.51,3.51,3.51,0,0,0,.16-.85,4.21,4.21,0,0,1,.73.22C117.86,268.82,117.91,268.87,117.91,268.91Zm8,2.75c0,.06,0,.09-.11.09l-1.75,0h-4.41l-1.75,0c-.07,0-.1,0-.1-.09v-.53c0-.07,0-.1.1-.1l1.75,0h4.41l1.75,0c.07,0,.11,0,.11.1Zm-1.18,8c0,.06,0,.08-.09.08h-.59c-.07,0-.1,0-.1-.08v-.53h-4.5v.57a.09.09,0,0,1-.1.1h-.57a.09.09,0,0,1-.1-.1l0-1.54v-.92l0-1c0-.06,0-.09.1-.09l1.63,0H123l1.62,0a.08.08,0,0,1,.09.09l0,.91v1Zm-.27-6.35c0,.06,0,.09-.1.09l-1.51,0h-2.27l-1.53,0c-.07,0-.1,0-.1-.09v-.49c0-.07,0-.1.1-.1l1.53,0h2.27l1.51,0c.07,0,.1,0,.1.1Zm0,1.69c0,.06,0,.09-.1.09l-1.51,0h-2.27l-1.53,0c-.07,0-.1,0-.1-.09v-.49c0-.07,0-.1.1-.1l1.53,0h2.27l1.51,0c.07,0,.1,0,.1.1Zm.11-5.08c0,.06,0,.08-.11.08L123,270h-2.34l-1.54,0c-.07,0-.1,0-.1-.08v-.52c0-.06,0-.09.1-.09l1.54,0H123l1.52,0c.08,0,.11,0,.11.09Zm-.62,8.58V276.8h-4.5v1.73Z"/><path class="cls-31" d="M128.47,270.22V273h-.88v-2.73Zm2,0V273h-.89v-2.73Z"/><path class="cls-31" d="M132.62,281h-.89a8.11,8.11,0,0,0,1.9-5.35,8.27,8.27,0,0,0-1.91-5.4h.9a8.08,8.08,0,0,1,1.9,5.42A7.79,7.79,0,0,1,132.62,281Z"/></g></svg>