<svg xmlns="http://www.w3.org/2000/svg" xmlns:xlink="http://www.w3.org/1999/xlink" viewBox="0 0 578 216.17"><defs><style>.cls-1,.cls-2{fill:#fff;}.cls-18,.cls-2{stroke:#e6e6e6;stroke-width:0.75px;}.cls-3{fill:#3c3c41;opacity:0.08;}.cls-29,.cls-3,.cls-30,.cls-31,.cls-35,.cls-36,.cls-37,.cls-38,.cls-46,.cls-47,.cls-54,.cls-55,.cls-56{isolation:isolate;}.cls-4{fill:url(#Degradado_sin_nombre);}.cls-5{fill:#b4ec36;}.cls-6{fill:#5ea0ef;}.cls-7{fill:url(#Degradado_sin_nombre_2);}.cls-8{fill:#50e6ff;}.cls-9{fill:#c3f1ff;}.cls-10{fill:#9cebff;}.cls-11{fill:url(#Degradado_sin_nombre_3);}.cls-12{fill:url(#Degradado_sin_nombre_4);}.cls-13{fill:url(#Degradado_sin_nombre_5);}.cls-14{fill:url(#Degradado_sin_nombre_6);}.cls-15{fill:url(#Degradado_sin_nombre_7);}.cls-16{fill:url(#Degradado_sin_nombre_8);}.cls-17{fill:url(#Degradado_sin_nombre_9);}.cls-18{fill:none;}.cls-19{fill:url(#Degradado_sin_nombre_10);}.cls-20{fill:url(#Degradado_sin_nombre_11);}.cls-21{fill:url(#Degradado_sin_nombre_12);}.cls-22{fill:url(#Degradado_sin_nombre_13);}.cls-23{fill:url(#Degradado_sin_nombre_14);}.cls-24{fill:url(#Degradado_sin_nombre_15);}.cls-25{fill:url(#Degradado_sin_nombre_16);}.cls-26{fill:url(#Degradado_sin_nombre_17);}.cls-27{fill:url(#Degradado_sin_nombre_18);}.cls-28{fill:url(#Degradado_sin_nombre_19);}.cls-29,.cls-30,.cls-31,.cls-35,.cls-36,.cls-37,.cls-38,.cls-46,.cls-47,.cls-54,.cls-55,.cls-56{opacity:0.5;}.cls-29{fill:url(#Degradado_sin_nombre_20);}.cls-30{fill:url(#Degradado_sin_nombre_21);}.cls-31{fill:url(#Degradado_sin_nombre_22);}.cls-32{fill:url(#Degradado_sin_nombre_23);}.cls-33{fill:url(#Degradado_sin_nombre_24);}.cls-34{fill:url(#Degradado_sin_nombre_25);}.cls-35{fill:url(#Degradado_sin_nombre_26);}.cls-36{fill:url(#Degradado_sin_nombre_27);}.cls-37{fill:url(#Degradado_sin_nombre_28);}.cls-38{fill:url(#Degradado_sin_nombre_29);}.cls-39{fill:url(#Degradado_sin_nombre_30);}.cls-40{fill:url(#Degradado_sin_nombre_31);}.cls-41{fill:url(#Degradado_sin_nombre_32);}.cls-42{fill:url(#Degradado_sin_nombre_33);}.cls-43{fill:url(#Degradado_sin_nombre_34);}.cls-44{fill:url(#Degradado_sin_nombre_35);}.cls-45{fill:url(#Degradado_sin_nombre_36);}.cls-46{fill:url(#Degradado_sin_nombre_37);}.cls-47{fill:url(#Degradado_sin_nombre_38);}.cls-48{fill:url(#Degradado_sin_nombre_39);}.cls-49{fill:url(#Degradado_sin_nombre_40);}.cls-50{fill:url(#Degradado_sin_nombre_41);}.cls-51{fill:url(#Degradado_sin_nombre_42);}.cls-52{fill:url(#Degradado_sin_nombre_43);}.cls-53{fill:url(#Degradado_sin_nombre_44);}.cls-54{fill:url(#Degradado_sin_nombre_45);}.cls-55{fill:url(#Degradado_sin_nombre_46);}.cls-56{fill:url(#Degradado_sin_nombre_47);}.cls-57{fill:#e62323;}.cls-58{fill:#e6e6e6;}.cls-59{fill:#107c10;}.cls-60{fill:#faa21d;}.cls-61{fill:url(#Degradado_sin_nombre_48);}.cls-62{fill:url(#Degradado_sin_nombre_49);}.cls-63{fill:url(#Degradado_sin_nombre_50);}.cls-64{fill:url(#Degradado_sin_nombre_51);}.cls-65{fill:url(#Degradado_sin_nombre_52);}.cls-66{fill:url(#Degradado_sin_nombre_53);}.cls-67{fill:url(#Degradado_sin_nombre_54);}.cls-68{fill:url(#Degradado_sin_nombre_55);}.cls-69{fill:url(#Degradado_sin_nombre_56);}.cls-70{fill:url(#Degradado_sin_nombre_57);}.cls-71{fill:url(#Degradado_sin_nombre_58);}.cls-72{fill:url(#Degradado_sin_nombre_59);}.cls-73{fill:url(#Degradado_sin_nombre_60);}.cls-74{fill:url(#Degradado_sin_nombre_61);}.cls-75{fill:url(#Degradado_sin_nombre_62);}.cls-76{fill:url(#Degradado_sin_nombre_63);}.cls-77{fill:url(#Degradado_sin_nombre_64);}.cls-78{fill:url(#Degradado_sin_nombre_65);}.cls-79{fill:url(#Degradado_sin_nombre_66);}.cls-80{fill:url(#Degradado_sin_nombre_67);}.cls-81{fill:url(#Degradado_sin_nombre_68);}.cls-82{fill:url(#Degradado_sin_nombre_69);}.cls-83{fill:url(#Degradado_sin_nombre_70);}.cls-84{fill:url(#Degradado_sin_nombre_71);}.cls-85{fill:url(#Degradado_sin_nombre_72);}.cls-86{fill:url(#Degradado_sin_nombre_73);}.cls-87{fill:url(#Degradado_sin_nombre_74);}.cls-88{fill:url(#Degradado_sin_nombre_75);}.cls-89{fill:url(#Degradado_sin_nombre_76);}.cls-90{fill:url(#Degradado_sin_nombre_77);}.cls-91{fill:url(#Degradado_sin_nombre_78);}.cls-92{fill:url(#Degradado_sin_nombre_79);}.cls-93{fill:url(#Degradado_sin_nombre_80);}.cls-94{fill:#6ebcdb;}.cls-95{fill:#5db4d7;}.cls-96{fill:#86d633;}.cls-97{fill:#1e1e1e;}.cls-98{fill:#3b3b3b;}</style><linearGradient id="Degradado_sin_nombre" x1="36.12" y1="210.23" x2="36.12" y2="170.82" gradientTransform="translate(0 -162.33)" gradientUnits="userSpaceOnUse"><stop offset="0" stop-color="#5e9624"/><stop offset="0.02" stop-color="#5f9724"/><stop offset="1" stop-color="#76bc2d"/></linearGradient><linearGradient id="Degradado_sin_nombre_2" x1="85.83" y1="324.45" x2="85.83" y2="312.9" gradientTransform="translate(0 -162.33)" gradientUnits="userSpaceOnUse"><stop offset="0" stop-color="#0078d4"/><stop offset="0.82" stop-color="#5ea0ef"/></linearGradient><linearGradient id="Degradado_sin_nombre_3" x1="85.83" y1="328.9" x2="85.83" y2="324.44" gradientTransform="translate(0 -162.33)" gradientUnits="userSpaceOnUse"><stop offset="0.15" stop-color="#ccc"/><stop offset="1" stop-color="#707070"/></linearGradient><linearGradient id="Degradado_sin_nombre_4" x1="142.21" y1="324.45" x2="142.21" y2="312.9" xlink:href="#Degradado_sin_nombre_2"/><linearGradient id="Degradado_sin_nombre_5" x1="142.21" y1="328.9" x2="142.21" y2="324.44" xlink:href="#Degradado_sin_nombre_3"/><linearGradient id="Degradado_sin_nombre_6" x1="197.38" y1="324.45" x2="197.38" y2="312.9" xlink:href="#Degradado_sin_nombre_2"/><linearGradient id="Degradado_sin_nombre_7" x1="197.38" y1="328.9" x2="197.38" y2="324.44" xlink:href="#Degradado_sin_nombre_3"/><linearGradient id="Degradado_sin_nombre_8" x1="252.4" y1="324.45" x2="252.4" y2="312.9" xlink:href="#Degradado_sin_nombre_2"/><linearGradient id="Degradado_sin_nombre_9" x1="252.4" y1="328.9" x2="252.4" y2="324.44" xlink:href="#Degradado_sin_nombre_3"/><linearGradient id="Degradado_sin_nombre_10" x1="81.17" y1="120.49" x2="81.17" y2="130.49" gradientTransform="matrix(1, 0, 0, -1, 0, 216.66)" gradientUnits="userSpaceOnUse"><stop offset="0" stop-color="#0078d4"/><stop offset="0.16" stop-color="#1380da"/><stop offset="0.53" stop-color="#3c91e5"/><stop offset="0.82" stop-color="#559cec"/><stop offset="1" stop-color="#5ea0ef"/></linearGradient><linearGradient id="Degradado_sin_nombre_11" x1="96.17" y1="120.49" x2="96.17" y2="130.49" xlink:href="#Degradado_sin_nombre_10"/><linearGradient id="Degradado_sin_nombre_12" x1="111.17" y1="120.49" x2="111.17" y2="130.49" xlink:href="#Degradado_sin_nombre_10"/><linearGradient id="Degradado_sin_nombre_13" x1="81.17" y1="105.49" x2="81.17" y2="115.49" xlink:href="#Degradado_sin_nombre_10"/><linearGradient id="Degradado_sin_nombre_14" x1="17.66" y1="7.99" x2="17.66" y2="17.99" xlink:href="#Degradado_sin_nombre_10"/><linearGradient id="Degradado_sin_nombre_15" x1="96.17" y1="105.49" x2="96.17" y2="115.49" xlink:href="#Degradado_sin_nombre_10"/><linearGradient id="Degradado_sin_nombre_16" x1="111.17" y1="105.49" x2="111.17" y2="115.49" xlink:href="#Degradado_sin_nombre_10"/><linearGradient id="Degradado_sin_nombre_17" x1="81.17" y1="135.49" x2="81.17" y2="145.49" xlink:href="#Degradado_sin_nombre_10"/><linearGradient id="Degradado_sin_nombre_18" x1="96.17" y1="135.49" x2="96.17" y2="145.49" xlink:href="#Degradado_sin_nombre_10"/><linearGradient id="Degradado_sin_nombre_19" x1="111.17" y1="135.49" x2="111.17" y2="145.49" xlink:href="#Degradado_sin_nombre_10"/><linearGradient id="Degradado_sin_nombre_20" x1="136.17" y1="120.49" x2="136.17" y2="130.49" xlink:href="#Degradado_sin_nombre_10"/><linearGradient id="Degradado_sin_nombre_21" x1="151.17" y1="120.49" x2="151.17" y2="130.49" xlink:href="#Degradado_sin_nombre_10"/><linearGradient id="Degradado_sin_nombre_22" x1="166.17" y1="120.49" x2="166.17" y2="130.49" xlink:href="#Degradado_sin_nombre_10"/><linearGradient id="Degradado_sin_nombre_23" x1="136.17" y1="105.49" x2="136.17" y2="115.49" xlink:href="#Degradado_sin_nombre_10"/><linearGradient id="Degradado_sin_nombre_24" x1="151.17" y1="105.49" x2="151.17" y2="115.49" xlink:href="#Degradado_sin_nombre_10"/><linearGradient id="Degradado_sin_nombre_25" x1="166.17" y1="105.49" x2="166.17" y2="115.49" xlink:href="#Degradado_sin_nombre_10"/><linearGradient id="Degradado_sin_nombre_26" x1="136.17" y1="135.49" x2="136.17" y2="145.49" xlink:href="#Degradado_sin_nombre_10"/><linearGradient id="Degradado_sin_nombre_27" x1="17.66" y1="22.99" x2="17.66" y2="32.99" xlink:href="#Degradado_sin_nombre_10"/><linearGradient id="Degradado_sin_nombre_28" x1="151.17" y1="135.49" x2="151.17" y2="145.49" xlink:href="#Degradado_sin_nombre_10"/><linearGradient id="Degradado_sin_nombre_29" x1="166.17" y1="135.49" x2="166.17" y2="145.49" xlink:href="#Degradado_sin_nombre_10"/><linearGradient id="Degradado_sin_nombre_30" x1="191.17" y1="120.49" x2="191.17" y2="130.49" xlink:href="#Degradado_sin_nombre_10"/><linearGradient id="Degradado_sin_nombre_31" x1="206.17" y1="120.49" x2="206.17" y2="130.49" xlink:href="#Degradado_sin_nombre_10"/><linearGradient id="Degradado_sin_nombre_32" x1="221.17" y1="120.49" x2="221.17" y2="130.49" xlink:href="#Degradado_sin_nombre_10"/><linearGradient id="Degradado_sin_nombre_33" x1="191.17" y1="105.49" x2="191.17" y2="115.49" xlink:href="#Degradado_sin_nombre_10"/><linearGradient id="Degradado_sin_nombre_34" x1="206.17" y1="105.49" x2="206.17" y2="115.49" xlink:href="#Degradado_sin_nombre_10"/><linearGradient id="Degradado_sin_nombre_35" x1="221.17" y1="105.49" x2="221.17" y2="115.49" xlink:href="#Degradado_sin_nombre_10"/><linearGradient id="Degradado_sin_nombre_36" x1="191.17" y1="135.49" x2="191.17" y2="145.49" xlink:href="#Degradado_sin_nombre_10"/><linearGradient id="Degradado_sin_nombre_37" x1="206.17" y1="135.49" x2="206.17" y2="145.49" xlink:href="#Degradado_sin_nombre_10"/><linearGradient id="Degradado_sin_nombre_38" x1="221.17" y1="135.49" x2="221.17" y2="145.49" xlink:href="#Degradado_sin_nombre_10"/><linearGradient id="Degradado_sin_nombre_39" x1="246.17" y1="120.49" x2="246.17" y2="130.49" xlink:href="#Degradado_sin_nombre_10"/><linearGradient id="Degradado_sin_nombre_40" x1="261.17" y1="120.49" x2="261.17" y2="130.49" xlink:href="#Degradado_sin_nombre_10"/><linearGradient id="Degradado_sin_nombre_41" x1="276.17" y1="120.49" x2="276.17" y2="130.49" xlink:href="#Degradado_sin_nombre_10"/><linearGradient id="Degradado_sin_nombre_42" x1="246.17" y1="105.49" x2="246.17" y2="115.49" xlink:href="#Degradado_sin_nombre_10"/><linearGradient id="Degradado_sin_nombre_43" x1="261.17" y1="105.49" x2="261.17" y2="115.49" xlink:href="#Degradado_sin_nombre_10"/><linearGradient id="Degradado_sin_nombre_44" x1="276.17" y1="105.49" x2="276.17" y2="115.49" xlink:href="#Degradado_sin_nombre_10"/><linearGradient id="Degradado_sin_nombre_45" x1="246.17" y1="135.49" x2="246.17" y2="145.49" xlink:href="#Degradado_sin_nombre_10"/><linearGradient id="Degradado_sin_nombre_46" x1="261.17" y1="135.49" x2="261.17" y2="145.49" xlink:href="#Degradado_sin_nombre_10"/><linearGradient id="Degradado_sin_nombre_47" x1="276.17" y1="135.49" x2="276.17" y2="145.49" xlink:href="#Degradado_sin_nombre_10"/><linearGradient id="Degradado_sin_nombre_48" x1="308.33" y1="324.45" x2="308.33" y2="312.9" xlink:href="#Degradado_sin_nombre_2"/><linearGradient id="Degradado_sin_nombre_49" x1="308.33" y1="328.9" x2="308.33" y2="324.44" xlink:href="#Degradado_sin_nombre_3"/><linearGradient id="Degradado_sin_nombre_50" x1="364.71" y1="324.45" x2="364.71" y2="312.9" xlink:href="#Degradado_sin_nombre_2"/><linearGradient id="Degradado_sin_nombre_51" x1="364.69" y1="328.9" x2="364.69" y2="324.44" xlink:href="#Degradado_sin_nombre_3"/><linearGradient id="Degradado_sin_nombre_52" x1="419.88" y1="324.45" x2="419.88" y2="312.9" xlink:href="#Degradado_sin_nombre_2"/><linearGradient id="Degradado_sin_nombre_53" x1="419.88" y1="328.9" x2="419.88" y2="324.44" xlink:href="#Degradado_sin_nombre_3"/><linearGradient id="Degradado_sin_nombre_54" x1="474.9" y1="324.45" x2="474.9" y2="312.9" xlink:href="#Degradado_sin_nombre_2"/><linearGradient id="Degradado_sin_nombre_55" x1="474.9" y1="328.9" x2="474.9" y2="324.44" xlink:href="#Degradado_sin_nombre_3"/><linearGradient id="Degradado_sin_nombre_56" x1="303.67" y1="120.49" x2="303.67" y2="130.49" xlink:href="#Degradado_sin_nombre_10"/><linearGradient id="Degradado_sin_nombre_57" x1="318.67" y1="120.49" x2="318.67" y2="130.49" xlink:href="#Degradado_sin_nombre_10"/><linearGradient id="Degradado_sin_nombre_58" x1="333.67" y1="120.49" x2="333.67" y2="130.49" xlink:href="#Degradado_sin_nombre_10"/><linearGradient id="Degradado_sin_nombre_59" x1="303.67" y1="105.49" x2="303.67" y2="115.49" xlink:href="#Degradado_sin_nombre_10"/><linearGradient id="Degradado_sin_nombre_60" x1="318.67" y1="105.49" x2="318.67" y2="115.49" xlink:href="#Degradado_sin_nombre_10"/><linearGradient id="Degradado_sin_nombre_61" x1="333.67" y1="105.49" x2="333.67" y2="115.49" xlink:href="#Degradado_sin_nombre_10"/><linearGradient id="Degradado_sin_nombre_62" x1="303.67" y1="135.49" x2="303.67" y2="145.49" xlink:href="#Degradado_sin_nombre_10"/><linearGradient id="Degradado_sin_nombre_63" x1="318.67" y1="135.49" x2="318.67" y2="145.49" xlink:href="#Degradado_sin_nombre_10"/><linearGradient id="Degradado_sin_nombre_64" x1="333.67" y1="135.49" x2="333.67" y2="145.49" xlink:href="#Degradado_sin_nombre_10"/><linearGradient id="Degradado_sin_nombre_65" x1="358.67" y1="105.49" x2="358.67" y2="115.49" xlink:href="#Degradado_sin_nombre_10"/><linearGradient id="Degradado_sin_nombre_66" x1="373.67" y1="105.49" x2="373.67" y2="115.49" xlink:href="#Degradado_sin_nombre_10"/><linearGradient id="Degradado_sin_nombre_67" x1="388.67" y1="105.49" x2="388.67" y2="115.49" xlink:href="#Degradado_sin_nombre_10"/><linearGradient id="Degradado_sin_nombre_68" x1="413.67" y1="120.49" x2="413.67" y2="130.49" xlink:href="#Degradado_sin_nombre_10"/><linearGradient id="Degradado_sin_nombre_69" x1="428.67" y1="120.49" x2="428.67" y2="130.49" xlink:href="#Degradado_sin_nombre_10"/><linearGradient id="Degradado_sin_nombre_70" x1="443.67" y1="120.49" x2="443.67" y2="130.49" xlink:href="#Degradado_sin_nombre_10"/><linearGradient id="Degradado_sin_nombre_71" x1="413.67" y1="105.49" x2="413.67" y2="115.49" xlink:href="#Degradado_sin_nombre_10"/><linearGradient id="Degradado_sin_nombre_72" x1="428.67" y1="105.49" x2="428.67" y2="115.49" xlink:href="#Degradado_sin_nombre_10"/><linearGradient id="Degradado_sin_nombre_73" x1="443.67" y1="105.49" x2="443.67" y2="115.49" xlink:href="#Degradado_sin_nombre_10"/><linearGradient id="Degradado_sin_nombre_74" x1="413.67" y1="135.49" x2="413.67" y2="145.49" xlink:href="#Degradado_sin_nombre_10"/><linearGradient id="Degradado_sin_nombre_75" x1="468.67" y1="120.49" x2="468.67" y2="130.49" xlink:href="#Degradado_sin_nombre_10"/><linearGradient id="Degradado_sin_nombre_76" x1="483.67" y1="120.49" x2="483.67" y2="130.49" xlink:href="#Degradado_sin_nombre_10"/><linearGradient id="Degradado_sin_nombre_77" x1="498.67" y1="120.49" x2="498.67" y2="130.49" xlink:href="#Degradado_sin_nombre_10"/><linearGradient id="Degradado_sin_nombre_78" x1="468.67" y1="105.49" x2="468.67" y2="115.49" xlink:href="#Degradado_sin_nombre_10"/><linearGradient id="Degradado_sin_nombre_79" x1="483.67" y1="105.49" x2="483.67" y2="115.49" xlink:href="#Degradado_sin_nombre_10"/><linearGradient id="Degradado_sin_nombre_80" x1="498.67" y1="105.49" x2="498.67" y2="115.49" xlink:href="#Degradado_sin_nombre_10"/></defs><title>OJ104903204</title><g id="Target"><rect class="cls-1" width="578" height="216.17"/><rect class="cls-2" x="291.17" y="1.17" width="285.67" height="175"/><rect class="cls-2" x="1.17" y="1.17" width="285" height="175"/><rect class="cls-1" x="291.83" y="1.17" width="285" height="55"/><rect class="cls-3" x="291.83" y="1.17" width="285" height="55"/><rect class="cls-1" x="1.17" y="1.17" width="285" height="55"/><rect class="cls-3" x="1.17" y="1.17" width="285" height="55"/><path class="cls-4" d="M19.47,26.6,35.31,10.76a1.15,1.15,0,0,1,1.61,0h0L52.78,26.6a1.15,1.15,0,0,1,0,1.61h0L36.92,44.09a1.14,1.14,0,0,1-1.59,0L19.47,28.23a1.13,1.13,0,0,1,0-1.6h0Z"/><path class="cls-5" d="M40.28,18l-4-4A.24.24,0,0,0,36,14l-4,4a.19.19,0,0,0,0,.27.18.18,0,0,0,.19.07h2.34a.21.21,0,0,1,.21.21V22.3a.21.21,0,0,0,.21.21H37.4a.21.21,0,0,0,.21-.21V18.52a.21.21,0,0,1,.21-.21h2.34a.19.19,0,0,0,.23-.13A.19.19,0,0,0,40.28,18Z"/><path class="cls-5" d="M26.68,22.9l-4,4a.19.19,0,0,0,0,.27h0l4,4a.22.22,0,0,0,.3,0h0A.22.22,0,0,0,27,31V28.72a.23.23,0,0,1,.21-.21H31a.2.2,0,0,0,.19-.19h0V25.81a.2.2,0,0,0-.07-.26H27.31a.19.19,0,0,1-.21-.17h0V23.05a.22.22,0,0,0-.13-.28A.23.23,0,0,0,26.68,22.9Z"/><path class="cls-5" d="M45.72,31.19l4-4a.19.19,0,0,0,0-.27h0l-4-4a.22.22,0,0,0-.3,0,.28.28,0,0,0,0,.12v2.36a.18.18,0,0,1-.17.19H41.4a.2.2,0,0,0-.19.19v2.5a.19.19,0,0,0,.17.21h3.79a.21.21,0,0,1,.21.21v2.34a.2.2,0,0,0,.22.18h0A.16.16,0,0,0,45.72,31.19Z"/><path class="cls-1" d="M41.4,27.42a5.27,5.27,0,1,0-6.69,5v1.79a3.23,3.23,0,1,0,4.35,1.39h0a3.33,3.33,0,0,0-1.39-1.39V32.36A5.24,5.24,0,0,0,41.4,27.42Z"/><circle id="e99c3387-15c3-4f28-bd4b-cb209b430e06" class="cls-6" cx="36.14" cy="27.4" r="3.06"/><rect class="cls-7" x="77.17" y="150.57" width="17.32" height="11.55" rx="0.58"/><polygon class="cls-8" points="88.71 154.66 88.71 158.02 85.83 159.71 85.83 156.34 88.71 154.66"/><polygon class="cls-9" points="88.71 154.66 85.83 156.35 82.94 154.66 85.83 152.98 88.71 154.66"/><polygon class="cls-10" points="85.83 156.35 85.83 159.71 82.94 158.02 82.94 154.66 85.83 156.35"/><polygon class="cls-9" points="82.94 158.02 85.83 156.34 85.83 159.71 82.94 158.02"/><polygon class="cls-10" points="88.71 158.02 85.83 156.34 85.83 159.71 88.71 158.02"/><path class="cls-11" d="M89.3,165.61c-1.71-.27-1.78-1.5-1.78-3.49h-3.4c0,2-.05,3.22-1.77,3.49a1,1,0,0,0-.85,1h8.66A1,1,0,0,0,89.3,165.61Z"/><rect class="cls-12" x="133.55" y="150.57" width="17.32" height="11.55" rx="0.58"/><polygon class="cls-8" points="145.09 154.66 145.09 158.02 142.21 159.71 142.21 156.34 145.09 154.66"/><polygon class="cls-9" points="145.09 154.66 142.21 156.35 139.32 154.66 142.21 152.98 145.09 154.66"/><polygon class="cls-10" points="142.21 156.35 142.21 159.71 139.32 158.02 139.32 154.66 142.21 156.35"/><polygon class="cls-9" points="139.32 158.02 142.21 156.34 142.21 159.71 139.32 158.02"/><polygon class="cls-10" points="145.09 158.02 142.21 156.34 142.21 159.71 145.09 158.02"/><path class="cls-13" d="M145.68,165.61c-1.71-.27-1.78-1.5-1.78-3.49h-3.39c0,2-.06,3.22-1.77,3.49a1,1,0,0,0-.86,1h8.66A1,1,0,0,0,145.68,165.61Z"/><rect class="cls-14" x="188.72" y="150.57" width="17.32" height="11.55" rx="0.58"/><polygon class="cls-8" points="200.26 154.66 200.26 158.02 197.38 159.71 197.38 156.34 200.26 154.66"/><polygon class="cls-9" points="200.26 154.66 197.38 156.35 194.49 154.66 197.38 152.98 200.26 154.66"/><polygon class="cls-10" points="197.38 156.35 197.38 159.71 194.49 158.02 194.49 154.66 197.38 156.35"/><polygon class="cls-9" points="194.49 158.02 197.38 156.34 197.38 159.71 194.49 158.02"/><polygon class="cls-10" points="200.26 158.02 197.38 156.34 197.38 159.71 200.26 158.02"/><path class="cls-15" d="M200.85,165.61c-1.71-.27-1.78-1.5-1.78-3.49h-3.4c0,2-.06,3.22-1.77,3.49a1,1,0,0,0-.85,1h8.65A1,1,0,0,0,200.85,165.61Z"/><rect class="cls-16" x="243.74" y="150.57" width="17.32" height="11.55" rx="0.58"/><polygon class="cls-8" points="255.28 154.66 255.28 158.02 252.4 159.71 252.4 156.34 255.28 154.66"/><polygon class="cls-9" points="255.28 154.66 252.4 156.35 249.51 154.66 252.4 152.98 255.28 154.66"/><polygon class="cls-10" points="252.4 156.35 252.4 159.71 249.51 158.02 249.51 154.66 252.4 156.35"/><polygon class="cls-9" points="249.51 158.02 252.4 156.34 252.4 159.71 249.51 158.02"/><polygon class="cls-10" points="255.28 158.02 252.4 156.34 252.4 159.71 255.28 158.02"/><path class="cls-17" d="M255.87,165.61c-1.71-.27-1.78-1.5-1.78-3.49h-3.4c0,2-.05,3.22-1.77,3.49a1,1,0,0,0-.85,1h8.66A1,1,0,0,0,255.87,165.61Z"/><line class="cls-18" x1="1.17" y1="121.17" x2="286.17" y2="121.17"/><circle class="cls-19" cx="81.17" cy="91.17" r="5"/><circle class="cls-20" cx="96.17" cy="91.17" r="5"/><circle class="cls-21" cx="111.17" cy="91.17" r="5"/><circle class="cls-22" cx="81.17" cy="106.17" r="5"/><circle class="cls-23" cx="17.66" cy="203.67" r="5"/><circle class="cls-24" cx="96.17" cy="106.17" r="5"/><circle class="cls-25" cx="111.17" cy="106.17" r="5"/><circle class="cls-26" cx="81.17" cy="76.17" r="5"/><circle class="cls-27" cx="96.17" cy="76.17" r="5"/><circle class="cls-28" cx="111.17" cy="76.17" r="5"/><circle class="cls-29" cx="136.17" cy="91.17" r="5"/><circle class="cls-30" cx="151.17" cy="91.17" r="5"/><circle class="cls-31" cx="166.17" cy="91.17" r="5"/><circle class="cls-32" cx="136.17" cy="106.17" r="5"/><circle class="cls-33" cx="151.17" cy="106.17" r="5"/><circle class="cls-34" cx="166.17" cy="106.17" r="5"/><circle class="cls-35" cx="136.17" cy="76.17" r="5"/><circle class="cls-36" cx="17.66" cy="188.67" r="5"/><circle class="cls-37" cx="151.17" cy="76.17" r="5"/><circle class="cls-38" cx="166.17" cy="76.17" r="5"/><circle class="cls-39" cx="191.17" cy="91.17" r="5"/><circle class="cls-40" cx="206.17" cy="91.17" r="5"/><circle class="cls-41" cx="221.17" cy="91.17" r="5"/><circle class="cls-42" cx="191.17" cy="106.17" r="5"/><circle class="cls-43" cx="206.17" cy="106.17" r="5"/><circle class="cls-44" cx="221.17" cy="106.17" r="5"/><circle class="cls-45" cx="191.17" cy="76.17" r="5"/><circle class="cls-46" cx="206.17" cy="76.17" r="5"/><circle class="cls-47" cx="221.17" cy="76.17" r="5"/><circle class="cls-48" cx="246.17" cy="91.17" r="5"/><circle class="cls-49" cx="261.17" cy="91.17" r="5"/><circle class="cls-50" cx="276.17" cy="91.17" r="5"/><circle class="cls-51" cx="246.17" cy="106.17" r="5"/><circle class="cls-52" cx="261.17" cy="106.17" r="5"/><circle class="cls-53" cx="276.17" cy="106.17" r="5"/><circle class="cls-54" cx="246.17" cy="76.17" r="5"/><circle class="cls-55" cx="261.17" cy="76.17" r="5"/><circle class="cls-56" cx="276.17" cy="76.17" r="5"/><rect class="cls-57" x="76.53" y="131.17" width="40" height="10"/><rect class="cls-58" x="131.72" y="131.17" width="40" height="10"/><rect class="cls-59" x="131.72" y="131.17" width="10" height="10"/><rect class="cls-58" x="186.72" y="131.17" width="40" height="10"/><rect class="cls-60" x="186.72" y="131.17" width="25" height="10"/><rect class="cls-58" x="241.72" y="131.17" width="40" height="10"/><rect class="cls-59" x="241.72" y="131.17" width="25" height="10"/><line class="cls-18" x1="71.17" y1="56.17" x2="71.17" y2="176.17"/><line class="cls-18" x1="125.04" y1="56.17" x2="125.04" y2="176.17"/><line class="cls-18" x1="178.92" y1="56.17" x2="178.92" y2="176.17"/><line class="cls-18" x1="232.79" y1="56.17" x2="232.79" y2="176.17"/><rect class="cls-61" x="299.67" y="150.57" width="17.32" height="11.55" rx="0.58"/><polygon class="cls-8" points="311.21 154.66 311.21 158.02 308.33 159.71 308.33 156.34 311.21 154.66"/><polygon class="cls-9" points="311.21 154.66 308.33 156.35 305.44 154.66 308.33 152.98 311.21 154.66"/><polygon class="cls-10" points="308.33 156.35 308.33 159.71 305.44 158.02 305.44 154.66 308.33 156.35"/><polygon class="cls-9" points="305.44 158.02 308.33 156.34 308.33 159.71 305.44 158.02"/><polygon class="cls-10" points="311.21 158.02 308.33 156.34 308.33 159.71 311.21 158.02"/><path class="cls-62" d="M311.8,165.61c-1.71-.27-1.78-1.5-1.78-3.49h-3.4c0,2-.05,3.22-1.77,3.49a1,1,0,0,0-.85,1h8.66A1,1,0,0,0,311.8,165.61Z"/><rect class="cls-63" x="356.05" y="150.57" width="17.32" height="11.55" rx="0.58"/><polygon class="cls-8" points="367.6 154.66 367.6 158.02 364.71 159.71 364.71 156.34 367.6 154.66"/><polygon class="cls-9" points="367.6 154.66 364.71 156.35 361.82 154.66 364.71 152.98 367.6 154.66"/><polygon class="cls-10" points="364.71 156.35 364.71 159.71 361.82 158.02 361.82 154.66 364.71 156.35"/><polygon class="cls-9" points="361.82 158.02 364.71 156.34 364.71 159.71 361.82 158.02"/><polygon class="cls-10" points="367.6 158.02 364.71 156.34 364.71 159.71 367.6 158.02"/><path class="cls-64" d="M368.18,165.61c-1.71-.27-1.78-1.5-1.78-3.49H363c0,2-.06,3.22-1.77,3.49a1,1,0,0,0-.86,1H369A1,1,0,0,0,368.18,165.61Z"/><rect class="cls-65" x="411.22" y="150.57" width="17.32" height="11.55" rx="0.58"/><polygon class="cls-8" points="422.76 154.66 422.76 158.02 419.88 159.71 419.88 156.34 422.76 154.66"/><polygon class="cls-9" points="422.76 154.66 419.88 156.35 416.99 154.66 419.88 152.98 422.76 154.66"/><polygon class="cls-10" points="419.88 156.35 419.88 159.71 416.99 158.02 416.99 154.66 419.88 156.35"/><polygon class="cls-9" points="416.99 158.02 419.88 156.34 419.88 159.71 416.99 158.02"/><polygon class="cls-10" points="422.76 158.02 419.88 156.34 419.88 159.71 422.76 158.02"/><path class="cls-66" d="M423.35,165.61c-1.71-.27-1.78-1.5-1.78-3.49h-3.4c0,2-.06,3.22-1.77,3.49a1,1,0,0,0-.85,1h8.65A1,1,0,0,0,423.35,165.61Z"/><rect class="cls-67" x="466.24" y="150.57" width="17.32" height="11.55" rx="0.58"/><polygon class="cls-8" points="477.78 154.66 477.78 158.02 474.9 159.71 474.9 156.34 477.78 154.66"/><polygon class="cls-9" points="477.78 154.66 474.9 156.35 472.01 154.66 474.9 152.98 477.78 154.66"/><polygon class="cls-10" points="474.9 156.35 474.9 159.71 472.01 158.02 472.01 154.66 474.9 156.35"/><polygon class="cls-9" points="472.01 158.02 474.9 156.34 474.9 159.71 472.01 158.02"/><polygon class="cls-10" points="477.78 158.02 474.9 156.34 474.9 159.71 477.78 158.02"/><path class="cls-68" d="M478.37,165.61c-1.71-.27-1.78-1.5-1.78-3.49h-3.4c0,2-.05,3.22-1.77,3.49a1,1,0,0,0-.85,1h8.66A1,1,0,0,0,478.37,165.61Z"/><line class="cls-18" x1="291.17" y1="121.17" x2="576.83" y2="121.17"/><circle class="cls-69" cx="303.67" cy="91.17" r="5"/><circle class="cls-70" cx="318.67" cy="91.17" r="5"/><circle class="cls-71" cx="333.67" cy="91.17" r="5"/><circle class="cls-72" cx="303.67" cy="106.17" r="5"/><circle class="cls-73" cx="318.67" cy="106.17" r="5"/><circle class="cls-74" cx="333.67" cy="106.17" r="5"/><circle class="cls-75" cx="303.67" cy="76.17" r="5"/><circle class="cls-76" cx="318.67" cy="76.17" r="5"/><circle class="cls-77" cx="333.67" cy="76.17" r="5"/><circle class="cls-78" cx="358.67" cy="106.17" r="5"/><circle class="cls-79" cx="373.67" cy="106.17" r="5"/><circle class="cls-80" cx="388.67" cy="106.17" r="5"/><circle class="cls-81" cx="413.67" cy="91.17" r="5"/><circle class="cls-82" cx="428.67" cy="91.17" r="5"/><circle class="cls-83" cx="443.67" cy="91.17" r="5"/><circle class="cls-84" cx="413.67" cy="106.17" r="5"/><circle class="cls-85" cx="428.67" cy="106.17" r="5"/><circle class="cls-86" cx="443.67" cy="106.17" r="5"/><circle class="cls-87" cx="413.67" cy="76.17" r="5"/><circle class="cls-88" cx="468.67" cy="91.17" r="5"/><circle class="cls-89" cx="483.67" cy="91.17" r="5"/><circle class="cls-90" cx="498.67" cy="91.17" r="5"/><circle class="cls-91" cx="468.67" cy="106.17" r="5"/><circle class="cls-92" cx="483.67" cy="106.17" r="5"/><circle class="cls-93" cx="498.67" cy="106.17" r="5"/><rect class="cls-59" x="299.03" y="131.17" width="40" height="10"/><rect class="cls-58" x="354.22" y="131.17" width="40" height="10"/><rect class="cls-59" x="354.22" y="131.17" width="10" height="10"/><rect class="cls-58" x="409.22" y="131.17" width="40" height="10"/><rect class="cls-59" x="409.22" y="131.17" width="25" height="10"/><rect class="cls-58" x="464.22" y="131.17" width="40" height="10"/><rect class="cls-59" x="464.22" y="131.17" width="25" height="10"/><line class="cls-18" x1="347.54" y1="56.17" x2="347.54" y2="176.17"/><line class="cls-18" x1="401.42" y1="56.17" x2="401.42" y2="176.17"/><line class="cls-18" x1="455.29" y1="56.17" x2="455.29" y2="176.17"/><line class="cls-18" x1="511.83" y1="56.17" x2="511.83" y2="176.17"/><g id="ad94e297-0e86-4eaf-aac0-d146ee9aea65"><path class="cls-94" d="M313.87,35.34,308.73,30a2.45,2.45,0,0,1-.85.15,2.66,2.66,0,1,1,2.45-3.64h5.07v1.77h-5a4.51,4.51,0,0,1-.29.63l4.75,4.89,2.57-3.91V17.66H314l4.36-4.42,4.33,4.42h-3.46v9.58l6.5-9.92-6.55-6.56a1.15,1.15,0,0,0-1.61,0h0L301.68,26.61a1.15,1.15,0,0,0,0,1.61h0l15.87,15.87-5.67-5.67Z"/><path class="cls-95" d="M317.44,35.57V29.9l-2.57,3.93,1.89,2A1.88,1.88,0,0,1,317.44,35.57Z"/><path class="cls-95" d="M335,26.61l-9.3-9.29-6.5,9.92v8.35a2.25,2.25,0,0,1,.59.32l6.82-6.9a3,3,0,0,1-.34-.7h-5.12V26.54h5.2a2.64,2.64,0,1,1,2.45,3.64,2.58,2.58,0,0,1-.73-.11l-7.26,7.31a2.25,2.25,0,0,1,.11.68,2.66,2.66,0,0,1-5.32.21h0a2.44,2.44,0,0,1,.15-1l-1.89-1.89-2,3,5.67,5.67a1.14,1.14,0,0,0,1.59,0L335,28.22a1.13,1.13,0,0,0,0-1.6h0Z"/><path class="cls-58" d="M326.36,26.54h-5.2v1.77h5.12a2.67,2.67,0,0,1-.13-.79A2.37,2.37,0,0,1,326.36,26.54Z"/><path class="cls-58" d="M310.41,28.31h5V26.54h-5.07a2.46,2.46,0,0,1,.21,1A2.9,2.9,0,0,1,310.41,28.31Z"/><path class="cls-58" d="M320.82,37.38l7.26-7.31A2.62,2.62,0,0,1,326.62,29l-6.82,6.9A2.54,2.54,0,0,1,320.82,37.38Z"/><path class="cls-58" d="M316.81,35.85l-1.89-2L310.12,29a2.67,2.67,0,0,1-1.39,1l5.14,5.31,1.89,1.89A2.65,2.65,0,0,1,316.81,35.85Z"/><path class="cls-1" d="M322.65,17.66l-4.31-4.42L314,17.66h3.46V35.57a2.09,2.09,0,0,0-.63.28,2.59,2.59,0,0,0-1.05,1.44,2.64,2.64,0,0,0,5.06,1.53h0a2.79,2.79,0,0,0,.11-.76,2.25,2.25,0,0,0-.11-.68,2.49,2.49,0,0,0-1-1.47,2.25,2.25,0,0,0-.59-.32V17.66Zm-4.31,21.88a1.48,1.48,0,1,1,1.48-1.48h0a1.48,1.48,0,0,1-1.48,1.48Z"/><path class="cls-1" d="M310.12,28.94a4.51,4.51,0,0,0,.29-.63,2.67,2.67,0,0,0,.13-.79,2.46,2.46,0,0,0-.21-1,2.65,2.65,0,1,0-2.45,3.64,2.45,2.45,0,0,0,.85-.15A2.69,2.69,0,0,0,310.12,28.94Zm-2.24,0a1.48,1.48,0,1,1,1.47-1.49h0A1.47,1.47,0,0,1,308,29h-.07Z"/><path class="cls-1" d="M328.08,30.07a2.58,2.58,0,0,0,.73.11,2.66,2.66,0,1,0-2.45-3.64,2.46,2.46,0,0,0-.21,1,2.67,2.67,0,0,0,.13.79,3,3,0,0,0,.34.7A2.65,2.65,0,0,0,328.08,30.07Zm.73-4a1.47,1.47,0,1,1-.33,0A.92.92,0,0,1,328.81,26.07Z"/><path class="cls-96" d="M318.34,36.59a1.48,1.48,0,1,0,1.48,1.48h0a1.47,1.47,0,0,0-1.47-1.47Z"/><circle class="cls-96" cx="307.88" cy="27.52" r="1.47"/><path class="cls-96" d="M328.81,29a1.47,1.47,0,1,0-1.47-1.47h0A1.47,1.47,0,0,0,328.81,29Z"/></g></g><g id="Text"><path class="cls-97" d="M70.31,18.36h-5V10h1.9v6.87h3.11Z"/><path class="cls-97" d="M74.13,18.5a3.23,3.23,0,0,1-2.36-.84,3.05,3.05,0,0,1-.86-2.28,3.07,3.07,0,0,1,.89-2.33,3.37,3.37,0,0,1,2.41-.84,3.16,3.16,0,0,1,2.34.84,3,3,0,0,1,.85,2.22,3.2,3.2,0,0,1-.87,2.37A3.31,3.31,0,0,1,74.13,18.5Zm0-4.87a1.26,1.26,0,0,0-1,.45,2,2,0,0,0-.36,1.28c0,1.15.47,1.72,1.4,1.72s1.33-.59,1.33-1.77S75.07,13.63,74.17,13.63Z"/><path class="cls-97" d="M83.49,18.36H81.74v-.87h0a2,2,0,0,1-1.79,1A1.89,1.89,0,0,1,78.55,18a1.79,1.79,0,0,1-.5-1.32c0-1.17.69-1.84,2.07-2l1.63-.22c0-.65-.35-1-1.07-1a3.58,3.58,0,0,0-2,.64v-1.4a4.57,4.57,0,0,1,1-.35,5.7,5.7,0,0,1,1.22-.15,2.26,2.26,0,0,1,2.57,2.56Zm-1.74-2.44v-.41l-1.09.15q-.9.11-.9.81A.67.67,0,0,0,80,17a.86.86,0,0,0,.59.2,1.1,1.1,0,0,0,.85-.36A1.29,1.29,0,0,0,81.75,15.92Z"/><path class="cls-97" d="M90.84,18.36H89v-.83h0a2.06,2.06,0,0,1-1.85,1,2.26,2.26,0,0,1-1.81-.79,3.28,3.28,0,0,1-.69-2.22,3.52,3.52,0,0,1,.76-2.38,2.45,2.45,0,0,1,2-.9A1.68,1.68,0,0,1,89,13h0V9.47h1.85ZM89,15.44V15a1.43,1.43,0,0,0-.34-1,1.13,1.13,0,0,0-.88-.38,1.12,1.12,0,0,0-1,.48,2.26,2.26,0,0,0-.35,1.33,1.91,1.91,0,0,0,.34,1.22,1.19,1.19,0,0,0,1.84,0A1.91,1.91,0,0,0,89,15.44Z"/><path class="cls-97" d="M95.91,18.36V10H99a3.83,3.83,0,0,1,2.16.52,1.64,1.64,0,0,1,.76,1.45,1.69,1.69,0,0,1-.46,1.19,2.41,2.41,0,0,1-1.18.71v0a2.37,2.37,0,0,1,1.44.67,1.86,1.86,0,0,1,.53,1.34,2.24,2.24,0,0,1-.82,1.83,3.48,3.48,0,0,1-2.26.68Zm1.9-7v2h.83a1.37,1.37,0,0,0,.92-.28,1,1,0,0,0,.34-.79c0-.61-.46-.92-1.39-.92Zm0,3.4V17h1a1.6,1.6,0,0,0,1-.3,1,1,0,0,0,.37-.84,1,1,0,0,0-.36-.79,1.66,1.66,0,0,0-1-.28Z"/><path class="cls-97" d="M108.43,18.36h-1.75v-.87h0a1.93,1.93,0,0,1-1.78,1,1.89,1.89,0,0,1-1.38-.49,1.79,1.79,0,0,1-.5-1.32c0-1.17.69-1.84,2.07-2l1.63-.22c0-.65-.36-1-1.07-1a3.64,3.64,0,0,0-2,.64v-1.4a4.67,4.67,0,0,1,1.06-.35,5.7,5.7,0,0,1,1.22-.15,2.27,2.27,0,0,1,2.57,2.56Zm-1.74-2.44v-.41l-1.09.15q-.9.11-.9.81a.67.67,0,0,0,.22.52.84.84,0,0,0,.59.2,1.1,1.1,0,0,0,.85-.36A1.29,1.29,0,0,0,106.69,15.92Z"/><path class="cls-97" d="M111.76,18.36h-1.85V9.47h1.85Z"/><path class="cls-97" d="M118.32,18.36h-1.75v-.87h0a1.93,1.93,0,0,1-1.78,1,1.89,1.89,0,0,1-1.38-.49,1.79,1.79,0,0,1-.5-1.32c0-1.17.69-1.84,2.07-2l1.63-.22c0-.65-.36-1-1.07-1a3.64,3.64,0,0,0-2,.64v-1.4a4.67,4.67,0,0,1,1.06-.35,5.7,5.7,0,0,1,1.22-.15,2.27,2.27,0,0,1,2.57,2.56Zm-1.74-2.44v-.41l-1.09.15q-.9.11-.9.81a.67.67,0,0,0,.22.52.84.84,0,0,0,.59.2,1.1,1.1,0,0,0,.85-.36A1.29,1.29,0,0,0,116.58,15.92Z"/><path class="cls-97" d="M125.59,18.36h-1.84V15c0-.93-.33-1.39-1-1.39A1,1,0,0,0,122,14a1.38,1.38,0,0,0-.31.93v3.43H119.8v-6h1.85v1h0a2.11,2.11,0,0,1,1.93-1.1c1.33,0,2,.82,2,2.47Z"/><path class="cls-97" d="M131.62,18.14a3.72,3.72,0,0,1-1.81.36,3,3,0,0,1-2.24-.84,2.87,2.87,0,0,1-.86-2.16,3.19,3.19,0,0,1,.92-2.41,3.38,3.38,0,0,1,2.45-.88,3.14,3.14,0,0,1,1.54.28v1.57a2.12,2.12,0,0,0-1.3-.43,1.7,1.7,0,0,0-1.26.46,1.75,1.75,0,0,0-.47,1.29,1.69,1.69,0,0,0,.45,1.25,1.62,1.62,0,0,0,1.22.45,2.47,2.47,0,0,0,1.36-.43Z"/><path class="cls-97" d="M138.23,15.88h-3.91c.06.87.61,1.31,1.64,1.31a3.24,3.24,0,0,0,1.74-.47v1.34a4.63,4.63,0,0,1-2.16.44,3,3,0,0,1-2.25-.8,3,3,0,0,1-.81-2.25,3.2,3.2,0,0,1,.87-2.37,2.9,2.9,0,0,1,2.13-.87,2.6,2.6,0,0,1,2,.78,3,3,0,0,1,.72,2.11Zm-1.72-1.13c0-.86-.34-1.29-1-1.29a1,1,0,0,0-.77.37,1.58,1.58,0,0,0-.39.92Z"/><path class="cls-97" d="M143.26,14a1.61,1.61,0,0,0-.78-.19,1.1,1.1,0,0,0-.94.45,1.88,1.88,0,0,0-.34,1.2v2.87h-1.86v-6h1.86v1.11h0a1.6,1.6,0,0,1,1.58-1.22,1.14,1.14,0,0,1,.46.07Z"/><path class="cls-97" d="M351.06,16l-2.89,8.4H346L343.16,16h2L347,21.83a4.31,4.31,0,0,1,.17.84h0a5.41,5.41,0,0,1,.18-.87L349.08,16Z"/><path class="cls-97" d="M352.84,17.43a1.11,1.11,0,0,1-.77-.27.92.92,0,0,1-.3-.69.88.88,0,0,1,.3-.68,1.27,1.27,0,0,1,1.54,0,1,1,0,0,1,0,1.37A1.11,1.11,0,0,1,352.84,17.43Zm.91,7H351.9v-6h1.85Z"/><path class="cls-97" d="M359.24,20.05a1.66,1.66,0,0,0-.78-.18,1.15,1.15,0,0,0-.95.44,2,2,0,0,0-.34,1.21v2.86h-1.85v-6h1.85V19.5h0a1.59,1.59,0,0,1,1.58-1.22,1.14,1.14,0,0,1,.46.07Z"/><path class="cls-97" d="M364.08,24.31a2.62,2.62,0,0,1-1.23.22,1.76,1.76,0,0,1-2-2V19.75h-1V18.38h1V17.09l1.85-.53v1.82h1.34v1.37h-1.34v2.42c0,.63.24.94.74.94a1.27,1.27,0,0,0,.6-.17Z"/><path class="cls-97" d="M370.84,24.38H369v-.91h0a2.07,2.07,0,0,1-1.83,1.06c-1.39,0-2.09-.84-2.09-2.53V18.38h1.85v3.46c0,.85.34,1.27,1,1.27a1,1,0,0,0,.79-.35,1.4,1.4,0,0,0,.3-.94V18.38h1.85Z"/><path class="cls-97" d="M377.4,24.38h-1.75v-.86h0a2,2,0,0,1-1.79,1,1.9,1.9,0,0,1-1.38-.5,1.79,1.79,0,0,1-.5-1.32q0-1.74,2.07-2l1.63-.22c0-.66-.35-1-1.07-1a3.65,3.65,0,0,0-2,.63V18.74a4.57,4.57,0,0,1,1.05-.35,5.7,5.7,0,0,1,1.22-.15,2.26,2.26,0,0,1,2.57,2.56ZM375.66,22v-.41l-1.09.14c-.6.08-.9.35-.9.82a.64.64,0,0,0,.22.51.82.82,0,0,0,.59.21,1.1,1.1,0,0,0,.85-.36A1.31,1.31,0,0,0,375.66,22Z"/><path class="cls-97" d="M380.73,24.38h-1.85V15.5h1.85Z"/><path class="cls-97" d="M393.36,24.38h-1.91L388,19.1q-.3-.47-.42-.69h0a11.58,11.58,0,0,1,0,1.36v4.61H385.8V16h2l3.34,5.12c.15.23.29.45.42.68h0a9.61,9.61,0,0,1,0-1.15V16h1.78Z"/><path class="cls-97" d="M400.51,21.91h-3.92c.07.87.61,1.31,1.65,1.31a3.24,3.24,0,0,0,1.74-.47v1.33a4.56,4.56,0,0,1-2.16.45,2.79,2.79,0,0,1-3.06-3.05,3.2,3.2,0,0,1,.87-2.37,2.88,2.88,0,0,1,2.13-.87,2.63,2.63,0,0,1,2,.78,3,3,0,0,1,.72,2.11Zm-1.72-1.14c0-.86-.35-1.29-1-1.29a1,1,0,0,0-.77.37,1.72,1.72,0,0,0-.4.92Z"/><path class="cls-97" d="M405.25,24.31a2.7,2.7,0,0,1-1.24.22,1.77,1.77,0,0,1-2-2V19.75h-1V18.38h1V17.09l1.85-.53v1.82h1.35v1.37H403.9v2.42c0,.63.25.94.74.94a1.31,1.31,0,0,0,.61-.17Z"/><path class="cls-97" d="M415,18.38l-1.73,6h-1.94l-.89-3.51a3.68,3.68,0,0,1-.1-.77h0a5,5,0,0,1-.12.74l-.95,3.54h-1.92l-1.69-6h1.88l.83,3.92a4.8,4.8,0,0,1,.09.66h0a3.84,3.84,0,0,1,.11-.69l1-3.89h1.76l.93,3.92a6.6,6.6,0,0,1,.08.68h0a5.06,5.06,0,0,1,.1-.68l.77-3.92Z"/><path class="cls-97" d="M418.68,24.53a3.24,3.24,0,0,1-2.36-.84,3,3,0,0,1-.85-2.28,3,3,0,0,1,.89-2.33,3.34,3.34,0,0,1,2.4-.84,3.2,3.2,0,0,1,2.35.84A3,3,0,0,1,422,21.3a3.15,3.15,0,0,1-.88,2.36A3.24,3.24,0,0,1,418.68,24.53Zm.05-4.88a1.21,1.21,0,0,0-1,.46,2,2,0,0,0-.36,1.27c0,1.15.46,1.73,1.39,1.73s1.33-.59,1.33-1.77S419.62,19.65,418.73,19.65Z"/><path class="cls-97" d="M427.09,20.05a1.66,1.66,0,0,0-.78-.18,1.14,1.14,0,0,0-.95.44,2,2,0,0,0-.34,1.21v2.86h-1.85v-6H425V19.5h0a1.59,1.59,0,0,1,1.58-1.22,1.17,1.17,0,0,1,.46.07Z"/><path class="cls-97" d="M434,24.38h-2.22l-1.92-3h0v3H428V15.5h1.85v5.65h0l1.79-2.77h2.2l-2.15,2.82Z"/><path class="cls-97" d="M445.74,24.38h-1.91l-3.46-5.28q-.3-.47-.42-.69h0a11.58,11.58,0,0,1,.05,1.36v4.61h-1.79V16h2l3.34,5.12c.15.23.29.45.42.68h0a9.61,9.61,0,0,1,0-1.15V16h1.78Z"/><path class="cls-97" d="M455.07,24.38H453l-.59-1.87h-3l-.59,1.87h-2.06l3.06-8.4h2.25ZM452,21.06l-.9-2.82a3.69,3.69,0,0,1-.14-.76h-.05a3.62,3.62,0,0,1-.14.73l-.92,2.85Z"/><path class="cls-97" d="M461.19,17.52h-2.4v6.86h-1.9V17.52h-2.38V16h6.68Z"/><path class="cls-98" d="M347.39,32.06h-3.9V31H348l-.09-2h1.35l.08,2h2.18v1.11h-2.13l.27,7h-1.36l-.16-5,.07-1-.41.93a15.07,15.07,0,0,1-3.71,4.11l-.91-1a12.59,12.59,0,0,0,2.57-2.32A10.85,10.85,0,0,0,347.39,32.06Z"/><path class="cls-98" d="M352.48,29.83a19.05,19.05,0,0,1,3,1.9l-.87,1.2a14.2,14.2,0,0,0-2.94-2.07Zm5.81.51,1.26.65a10.29,10.29,0,0,1-2.24,5.27,9.44,9.44,0,0,1-4.88,2.79l-.65-1.23a7.89,7.89,0,0,0,4.93-3A9.83,9.83,0,0,0,358.29,30.34Z"/><path class="cls-98" d="M363.58,33.2H360V32.11h8V33.2h-3a13.06,13.06,0,0,1-.23,2.49,4.07,4.07,0,0,1-.51,1.26,4.4,4.4,0,0,1-1.1,1.25,7,7,0,0,1-1.54.9l-.91-1a4.27,4.27,0,0,0,2.42-1.88,4,4,0,0,0,.41-1.17A13.13,13.13,0,0,0,363.58,33.2Zm-2.91-3.71h5.14v1.09h-5.14Zm5.25-.84.78-.22a11.78,11.78,0,0,1,.88,2l-.81.28A9.78,9.78,0,0,0,365.92,28.65Zm1.42-.34.77-.24A11.78,11.78,0,0,1,369,30l-.79.28A11.31,11.31,0,0,0,367.34,28.31Z"/><path class="cls-98" d="M374.52,36.31c.42.55.87,1.21,1.36,2l-1.19.76a20.77,20.77,0,0,0-4-5.32l1-.7a24.19,24.19,0,0,1,2.05,2.24,16.46,16.46,0,0,0,2.2-4.25h-6.15V29.92h7.47l.42.55A26.56,26.56,0,0,1,374.52,36.31Z"/><path class="cls-98" d="M378.91,29.83a18.61,18.61,0,0,1,3,1.9l-.87,1.2a14.2,14.2,0,0,0-2.94-2.07Zm5.81.51L386,31a10.29,10.29,0,0,1-2.24,5.27,9.4,9.4,0,0,1-4.87,2.79l-.65-1.23a7.9,7.9,0,0,0,4.92-3A9.71,9.71,0,0,0,384.72,30.34Z"/><path class="cls-98" d="M387.9,32.45a19.34,19.34,0,0,1,4.6,1.86l-.68,1.27a14.67,14.67,0,0,0-3.92-1.85v5.32h-1.35V28.93h1.35Zm1.93-3.77.79-.22a11.15,11.15,0,0,1,.88,2l-.82.26A9.91,9.91,0,0,0,389.83,28.68Zm1.48-.36.77-.23a11.36,11.36,0,0,1,.86,1.91l-.81.27A10.59,10.59,0,0,0,391.31,28.32Z"/><path class="cls-98" d="M404,37.79a2,2,0,0,0-.32.92.68.68,0,0,1-.11.35.79.79,0,0,1-.34.06c-1.3.07-2.7.11-4.2.11a7.89,7.89,0,0,1-2.8-.34A2.47,2.47,0,0,1,395,37.82a11.7,11.7,0,0,1-1.24,1.06,1.34,1.34,0,0,0-.24.24.22.22,0,0,1-.17.11c-.07,0-.13,0-.17-.15a10.57,10.57,0,0,1-.5-1.12,7.47,7.47,0,0,0,.71-.38,7.34,7.34,0,0,0,1-.77V34.15h-.56l-.88,0q-.11,0-.12,0s0-.06,0-.12v-.91a.25.25,0,0,1,0-.12H393l.88,0h.73l.9,0c.06,0,.1,0,.11,0s0,.05,0,.11l0,1.14V36.8a2,2,0,0,0,1,1,6.86,6.86,0,0,0,2.22.24C400.59,38,402.31,38,404,37.79Zm-9.87-8.9a10.79,10.79,0,0,1,1.5,1.77.16.16,0,0,1,0,.09c0,.05,0,.09-.11.15l-.67.54a.33.33,0,0,1-.14.07.14.14,0,0,1-.11-.08,9.58,9.58,0,0,0-1.47-1.86.18.18,0,0,1-.06-.1s0-.07.12-.12l.65-.44a.31.31,0,0,1,.15-.07A.19.19,0,0,1,394.11,28.89ZM398,34.07l-1.62,0a.29.29,0,0,1-.12,0,.31.31,0,0,1,0-.11V33.1c0-.06,0-.1,0-.11h.11L398,33h1a6.47,6.47,0,0,0,0-.83c0-.18,0-.37,0-.54h-.84l-1.58,0a.25.25,0,0,1-.12,0,.8.8,0,0,1,0-.11v-.84a.22.22,0,0,1,0-.12s.05,0,.11,0l1.44,0a6.23,6.23,0,0,0-.8-1.4.16.16,0,0,1,0-.1s0-.06.13-.09l.8-.33a.43.43,0,0,1,.14,0s.07,0,.11.09a7.45,7.45,0,0,1,.79,1.3.16.16,0,0,1,0,.08c0,.06-.06.1-.16.15l-.9.34H400a14.17,14.17,0,0,0,.73-1.36,3.25,3.25,0,0,0,.21-.68,10.7,10.7,0,0,1,1.23.35c.1,0,.15.09.15.17a.24.24,0,0,1-.14.21,1,1,0,0,0-.23.28c-.22.4-.43.74-.62,1h.1l1.58,0c.06,0,.1,0,.11,0a.2.2,0,0,1,0,.11v.84a.2.2,0,0,1,0,.11s-.05,0-.11,0l-1.58,0h-1.12c0,.63,0,1.09-.07,1.37h1.45l1.63,0c.06,0,.1,0,.12,0a.22.22,0,0,1,0,.1V34c0,.06,0,.09,0,.11a.2.2,0,0,1-.11,0l-1.63,0h-1.25a5,5,0,0,0,3.22,2.26,3.66,3.66,0,0,0-.47.83c-.08.23-.16.34-.24.34a.67.67,0,0,1-.26-.07A5.29,5.29,0,0,1,399.8,35a5,5,0,0,1-2.58,2.41,1,1,0,0,1-.28.11c-.05,0-.14-.1-.25-.3a3.13,3.13,0,0,0-.58-.7A6.24,6.24,0,0,0,398,35.43a2.8,2.8,0,0,0,.85-1.36Z"/><path class="cls-98" d="M404.54,33.17a11.33,11.33,0,0,0,2.07-3.87,3.83,3.83,0,0,0,.21-.86c.43.11.8.21,1.1.32q.21.07.21.18c0,.06-.05.13-.14.22a2.09,2.09,0,0,0-.24.5c-.17.5-.36,1-.57,1.46v6.39l0,1.82c0,.07,0,.1,0,.12a.23.23,0,0,1-.11,0h-1c-.08,0-.11,0-.11-.14l0-1.82V33.29a11,11,0,0,1-.71,1c-.08.11-.15.16-.22.16s-.09-.07-.13-.21A3.47,3.47,0,0,0,404.54,33.17Zm5.07-1.41-1.66,0c-.06,0-.1,0-.11,0a.27.27,0,0,1,0-.11V30.8c0-.06,0-.11,0-.12a.19.19,0,0,1,.1,0l1.66,0h4.32l1.65,0a.17.17,0,0,1,.12,0,.23.23,0,0,1,0,.11v.85a.17.17,0,0,1,0,.12.2.2,0,0,1-.11,0l-1.65,0Zm0,7.67h-1c-.06,0-.1,0-.11,0a.19.19,0,0,1,0-.1l0-1.6v-.81l0-1.07c0-.08,0-.12.13-.12l1.58,0h2.86l1.55,0c.09,0,.13,0,.13.12l0,.92v.93l0,1.59c0,.08,0,.12-.13.12h-1c-.08,0-.13,0-.13-.12V38.9h-3.75v.4c0,.06,0,.1,0,.11A.2.2,0,0,1,409.62,39.43ZM413,30h-2.59l-1.5,0a.17.17,0,0,1-.12,0,.22.22,0,0,1,0-.1v-.81c0-.06,0-.1,0-.11a.16.16,0,0,1,.1,0l1.5,0H413l1.48,0a.31.31,0,0,1,.13,0,.28.28,0,0,1,0,.11v.81c0,.06,0,.1,0,.11a.2.2,0,0,1-.11,0Zm-.09,3.39H410.4l-1.49,0c-.09,0-.13,0-.13-.11v-.8c0-.06,0-.1,0-.11l.1,0,1.49,0h2.49l1.47,0c.07,0,.1,0,.11,0s0,.05,0,.11v.8c0,.07,0,.11-.13.11Zm0,1.65H410.4l-1.49,0c-.06,0-.1,0-.11,0a.19.19,0,0,1,0-.1v-.79c0-.06,0-.1,0-.11l.1,0,1.49,0h2.49l1.47,0c.07,0,.1,0,.11,0s0,0,0,.1V35s0,.09,0,.1-.05,0-.11,0Zm-3.13,1.68v1.14h3.75V36.74Z"/><path class="cls-98" d="M420.23,38.2V36.76a2.33,2.33,0,0,0,.46.32,3.88,3.88,0,0,0,.56.23,3.29,3.29,0,0,0,.6.15,2.88,2.88,0,0,0,.55.06,2.28,2.28,0,0,0,1.31-.3,1,1,0,0,0,.43-.85.85.85,0,0,0-.14-.51,1.55,1.55,0,0,0-.4-.41,4.28,4.28,0,0,0-.61-.34c-.23-.12-.48-.23-.74-.35s-.56-.31-.8-.47a3.34,3.34,0,0,1-.64-.51,2.16,2.16,0,0,1-.43-.65,2.08,2.08,0,0,1-.16-.83,1.91,1.91,0,0,1,.27-1,2.29,2.29,0,0,1,.7-.72,3.48,3.48,0,0,1,1-.43,4.78,4.78,0,0,1,1.13-.13,4.64,4.64,0,0,1,1.93.3v1.37a3.1,3.1,0,0,0-1.84-.51,3.18,3.18,0,0,0-.62.06,1.56,1.56,0,0,0-.55.19,1.12,1.12,0,0,0-.4.34.9.9,0,0,0-.15.51,1,1,0,0,0,.12.49,1.2,1.2,0,0,0,.34.38,3.8,3.8,0,0,0,.55.33l.75.35a8.21,8.21,0,0,1,.83.48,3.79,3.79,0,0,1,.69.55,2.85,2.85,0,0,1,.47.68,2.28,2.28,0,0,1-.09,1.92,2,2,0,0,1-.69.72,3.14,3.14,0,0,1-1,.4,5.81,5.81,0,0,1-1.2.12l-.52,0a5.12,5.12,0,0,1-.63-.1l-.61-.14A2.25,2.25,0,0,1,420.23,38.2Z"/><path class="cls-98" d="M434.29,38.53h-1.53l-4-6.18a2.19,2.19,0,0,1-.25-.48h0a8.6,8.6,0,0,1,.05,1.15v5.51h-1.35v-8.4h1.62l3.88,6c.17.25.27.42.32.51h0a7.27,7.27,0,0,1-.06-1.13V30.13h1.35Z"/><path class="cls-98" d="M443.28,38.53h-1.53L441,36.39h-3.31L437,38.53h-1.52l3.15-8.4h1.57Zm-2.65-3.28-1.17-3.35a3.39,3.39,0,0,1-.11-.52h0a4.62,4.62,0,0,1-.12.52l-1.16,3.35Z"/><path class="cls-98" d="M449.36,31.31h-2.42v7.22h-1.39V31.31h-2.41V30.13h6.22Z"/><path class="cls-97" d="M105.52,152.1l-3.12,8.54h-1.09l-3.06-8.54h1.1l2.33,6.77a3.75,3.75,0,0,1,.18.75h0a4.22,4.22,0,0,1,.19-.76l2.39-6.76Z"/><path class="cls-97" d="M115.29,160.64h-1v-5.73c0-.45,0-1,.08-1.66h0a5.86,5.86,0,0,1-.25.83l-2.88,6.56h-.49l-2.87-6.52a4.69,4.69,0,0,1-.26-.87h0c0,.34.05.9.05,1.67v5.72h-1V152.1H108l2.59,6a7.92,7.92,0,0,1,.39,1h0c.17-.47.31-.82.41-1.05l2.64-5.93h1.23Z"/><path class="cls-97" d="M162,152.1l-3.12,8.54h-1.09l-3.06-8.54h1.1l2.34,6.77a4.63,4.63,0,0,1,.17.75h0a3.58,3.58,0,0,1,.2-.76l2.38-6.76Z"/><path class="cls-97" d="M171.76,160.64h-1v-5.73c0-.45,0-1,.09-1.66h0a5.86,5.86,0,0,1-.25.83l-2.88,6.56h-.48l-2.88-6.52a4.83,4.83,0,0,1-.25-.87h0c0,.34.05.9.05,1.67v5.72h-1V152.1h1.3l2.59,6a7.92,7.92,0,0,1,.39,1h0c.16-.47.3-.82.4-1.05l2.64-5.93h1.24Z"/><path class="cls-97" d="M217.07,152.1,214,160.64h-1.09l-3.06-8.54h1.1l2.34,6.77a4.63,4.63,0,0,1,.17.75h0a3.58,3.58,0,0,1,.2-.76L216,152.1Z"/><path class="cls-97" d="M226.85,160.64h-1v-5.73c0-.45,0-1,.09-1.66h0a5.86,5.86,0,0,1-.25.83l-2.88,6.56h-.48l-2.88-6.52a4.83,4.83,0,0,1-.25-.87h0c0,.34,0,.9,0,1.67v5.72h-.95V152.1h1.3l2.59,6a7.92,7.92,0,0,1,.39,1h0c.17-.47.31-.82.41-1.05l2.64-5.93h1.24Z"/><path class="cls-97" d="M272.08,152.1,269,160.64h-1.08l-3.06-8.54h1.1l2.33,6.77a3.77,3.77,0,0,1,.17.75h0a3.52,3.52,0,0,1,.19-.76L271,152.1Z"/><path class="cls-97" d="M281.85,160.64h-1v-5.73c0-.45,0-1,.08-1.66h0a7.61,7.61,0,0,1-.25.83l-2.89,6.56h-.48l-2.87-6.52a4.69,4.69,0,0,1-.26-.87h0c0,.34,0,.9,0,1.67v5.72h-1V152.1h1.31l2.59,6a7.92,7.92,0,0,1,.39,1h0c.17-.47.3-.82.41-1.05l2.64-5.93h1.23Z"/><path class="cls-97" d="M328,152.1l-3.12,8.54h-1.09l-3.06-8.54h1.1l2.34,6.77a4.63,4.63,0,0,1,.17.75h0a3.58,3.58,0,0,1,.2-.76l2.38-6.76Z"/><path class="cls-97" d="M337.78,160.64h-1v-5.73c0-.45,0-1,.08-1.66h0a4.77,4.77,0,0,1-.25.83l-2.88,6.56h-.48l-2.88-6.52a4.83,4.83,0,0,1-.25-.87h0c0,.34.05.9.05,1.67v5.72h-.95V152.1h1.31l2.58,6a7.92,7.92,0,0,1,.39,1h0c.17-.47.3-.82.4-1.05l2.64-5.93h1.24Z"/><path class="cls-97" d="M384.45,152.1l-3.12,8.54h-1.09l-3.06-8.54h1.1l2.34,6.77a4.63,4.63,0,0,1,.17.75h0a4.22,4.22,0,0,1,.19-.76l2.39-6.76Z"/><path class="cls-97" d="M394.23,160.64h-1v-5.73c0-.45,0-1,.09-1.66h0a5.86,5.86,0,0,1-.25.83l-2.88,6.56h-.49l-2.87-6.52a4.83,4.83,0,0,1-.25-.87h0c0,.34.05.9.05,1.67v5.72h-.95V152.1h1.3l2.59,6a7.92,7.92,0,0,1,.39,1h0c.17-.47.31-.82.41-1.05L393,152.1h1.24Z"/><path class="cls-97" d="M439.41,152.1l-3.12,8.54H435.2l-3.06-8.54h1.1l2.34,6.77a4.63,4.63,0,0,1,.17.75h0a3.58,3.58,0,0,1,.2-.76l2.38-6.76Z"/><path class="cls-97" d="M449.19,160.64h-1v-5.73c0-.45,0-1,.08-1.66h0a5.6,5.6,0,0,1-.26.83l-2.88,6.56h-.48l-2.88-6.52a5.84,5.84,0,0,1-.25-.87h0c0,.34,0,.9,0,1.67v5.72h-1V152.1h1.31l2.58,6a7.92,7.92,0,0,1,.39,1h0c.17-.47.3-.82.4-1.05L448,152.1h1.24Z"/><path class="cls-97" d="M494.6,152.1l-3.12,8.54h-1.09l-3.06-8.54h1.1l2.33,6.77a3.77,3.77,0,0,1,.17.75h0a3.52,3.52,0,0,1,.19-.76l2.38-6.76Z"/><path class="cls-97" d="M504.37,160.64h-1v-5.73c0-.45,0-1,.08-1.66h0a5.86,5.86,0,0,1-.25.83l-2.89,6.56h-.48L497,154.12a4.69,4.69,0,0,1-.26-.87h0c0,.34.05.9.05,1.67v5.72h-1V152.1h1.31l2.59,6a7.92,7.92,0,0,1,.39,1h0c.17-.47.3-.82.41-1.05l2.64-5.93h1.23Z"/><path class="cls-97" d="M24.58,91.59a.08.08,0,0,1-.09.09l-1.63,0H19.8l-1.63,0a.08.08,0,0,1-.09-.09v-.47a.08.08,0,0,1,.09-.09l1.63,0h1.25v-.89h-.63l-1.39,0c-.07,0-.1,0-.1-.09v-.45c0-.07,0-.1.1-.1l1.39,0h.63v-.85h-.77l-1.35,0c-.06,0-.09,0-.09-.1v-.44c0-.07,0-.1.09-.1l1.35,0h.77v0a4.18,4.18,0,0,0-.07-.9l.71.06c.1,0,.16,0,.16.11a.78.78,0,0,1-.07.22,1.06,1.06,0,0,0-.07.44v.1h.85l1.33,0c.07,0,.11,0,.11.1v.44a.1.1,0,0,1-.11.1l-1.33,0h-.85v.85h.63l1.41,0c.06,0,.09,0,.09.1v.45a.08.08,0,0,1-.09.09l-1.41,0h-.63v.89h1.15l1.63,0a.08.08,0,0,1,.09.09Zm0-3.67c0,.08,0,.12-.1.12H24c-.07,0-.1,0-.1-.12V86.85H19v1.07c0,.08,0,.12-.1.12h-.5c-.06,0-.1,0-.1-.12l0-.9v-.26l0-.44a.09.09,0,0,1,.1-.1l1.62,0h1.07V86a3.79,3.79,0,0,0-.09-.92,7.64,7.64,0,0,1,.77.08c.1,0,.16,0,.16.1a1,1,0,0,1-.07.23,1.54,1.54,0,0,0-.06.53v.22h1.06l1.61,0c.07,0,.1,0,.1.1l0,.39V87Zm-.84,7.86a.09.09,0,0,1-.1.1h-.52c-.06,0-.09,0-.09-.1v-.4H19.85v.55c0,.06,0,.09-.1.09h-.53a.08.08,0,0,1-.09-.09l0-1.51v-.86l0-1a.08.08,0,0,1,.09-.09l1.35,0h1.69l1.35,0c.07,0,.1,0,.1.09l0,.84v.92Zm-.71-1V93.12H19.85v1.64Zm3.18-8.38a.26.26,0,0,1,0,.1.37.37,0,0,1,0,.1q0,.15,0,1.26v3.32l0,1.57c0,.07,0,.1-.09.1h-.56c-.07,0-.1,0-.1-.1l0-1.57v-3.3a9.69,9.69,0,0,0-.09-1.65,6.28,6.28,0,0,1,.78.07C26.14,86.3,26.18,86.33,26.18,86.38Zm2.21-.89a.83.83,0,0,1-.08.23,4.91,4.91,0,0,0-.06,1.06v6l0,1.84c0,.5-.11.82-.35,1a1.28,1.28,0,0,1-.55.19,8.41,8.41,0,0,1-1,0,.4.4,0,0,1-.21,0,.56.56,0,0,1-.08-.21A2.06,2.06,0,0,0,25.8,95a9.29,9.29,0,0,0,1.11.06.74.74,0,0,0,.5-.12.75.75,0,0,0,.11-.47V86.79a8.81,8.81,0,0,0-.08-1.47,6.27,6.27,0,0,1,.8.07C28.34,85.4,28.39,85.44,28.39,85.49Z"/><path class="cls-97" d="M30.48,85.71l.83.11A34,34,0,0,0,31,90.08a7.19,7.19,0,0,0,.05,1c.29-.7.56-1.31.82-1.83l.55.43a15.69,15.69,0,0,0-.84,1.92,5,5,0,0,0-.2.73l-.93,0a11.52,11.52,0,0,1-.26-2.46A34.6,34.6,0,0,1,30.48,85.71Zm4,.05.87,0q.12,2.27.12,4.14a12.81,12.81,0,0,1-.21,2.65,4.06,4.06,0,0,1-.6,1.44,5,5,0,0,1-3,1.84l-.52-.7a4.11,4.11,0,0,0,2.71-1.48,6.5,6.5,0,0,0,.8-3.78C34.63,88.73,34.58,87.38,34.49,85.76Z"/><path class="cls-97" d="M46,96c0,.06,0,.1-.09.1h-.57a.09.09,0,0,1-.1-.1v-.55h-6.1l-1.71,0c-.06,0-.08,0-.08-.09v-.56c0-.06,0-.09.08-.09l1.71,0h6.1V92.82H39.79l-1.68,0c-.07,0-.11,0-.11-.09v-.53c0-.07,0-.1.11-.1l1.68,0h5.48V90.28h-6l-1.7,0c-.06,0-.1,0-.1-.09v-.54a.1.1,0,0,1,.1-.11l1.7,0h2.18v-3a8.86,8.86,0,0,0-.08-1.38c.35,0,.63,0,.84.07s.15.06.15.13a1,1,0,0,1-.07.23,2.79,2.79,0,0,0-.08,1v3h2l1.71,0c.06,0,.09,0,.09.11l0,1.46v3.1Zm-6-7.6s0,.07,0,.08,0,.08-.13.13l-.35.18a.45.45,0,0,1-.15.07s0,0-.06-.08A9.35,9.35,0,0,0,38,86.39a.09.09,0,0,1,0-.06s.05-.06.14-.11l.34-.18a.33.33,0,0,1,.13-.06.11.11,0,0,1,.06.06A10.54,10.54,0,0,1,40,88.39Zm6-2s0,.08-.1.13a.86.86,0,0,0-.19.25,13.48,13.48,0,0,1-1.25,2c-.07.1-.12.15-.16.15a.46.46,0,0,1-.17-.1,1.65,1.65,0,0,0-.44-.22A11.85,11.85,0,0,0,45,86.39a1.83,1.83,0,0,0,.15-.47,5.41,5.41,0,0,1,.71.32A.17.17,0,0,1,46,86.38Z"/><path class="cls-97" d="M55.31,86.27l0,.84a4.54,4.54,0,0,0-2,.55,5.17,5.17,0,0,0-1.78,1.7,4.33,4.33,0,0,0-.7,2.32A2.58,2.58,0,0,0,52,93.88a5.07,5.07,0,0,0,2.52.87l-.2.87a5.19,5.19,0,0,1-3.13-1.2A3.42,3.42,0,0,1,50,91.76a5,5,0,0,1,2.58-4.37l.65-.29v0l-.56.1c-.69,0-2.31.18-4.87.41l-.07-.8C48.89,86.69,51.42,86.52,55.31,86.27Z"/><path class="cls-97" d="M36.49,138.08c0,.07,0,.1-.1.1l-1.54,0H33.52A6.15,6.15,0,0,1,32.26,140c.82.28,1.87.72,3.16,1.3a.1.1,0,0,1,.06.07.28.28,0,0,1-.06.13l-.24.34c-.08.11-.13.16-.15.16L35,142a21,21,0,0,0-3.25-1.49,9.78,9.78,0,0,1-5,1.53h-.09a.21.21,0,0,1-.15-.05,1,1,0,0,1-.1-.18,1.26,1.26,0,0,0-.29-.41,10.44,10.44,0,0,0,4.77-1.17c-.75-.21-1.45-.37-2.11-.5-.07.1-.17.21-.28.34a.24.24,0,0,1-.16.08h-.1l-.42-.11a.07.07,0,0,1-.08-.08.42.42,0,0,1,.12-.16c.17-.19.36-.42.55-.68s.42-.55.67-.92H27.44l-1.55,0a.09.09,0,0,1-.1-.1v-.5a.09.09,0,0,1,.1-.1l1.55,0h2l.15-.27a4.4,4.4,0,0,0,.44-1,3.17,3.17,0,0,1,.72.2c.09,0,.13.07.13.13s0,.1-.12.16a1.73,1.73,0,0,0-.4.52l-.14.24h4.61l1.54,0c.07,0,.1,0,.1.1Zm-.16-5.9a.08.08,0,0,1-.09.09l-1.59,0h-2v1.19h.81l1.73,0c.07,0,.1,0,.1.1l0,.89v.84l0,.89c0,.06,0,.09-.1.09l-1.73,0H28.82l-1.74,0a.08.08,0,0,1-.09-.09l0-.89v-.84l0-.89c0-.07,0-.1.09-.1l1.74,0h.66v-1.19h-1.8l-1.59,0c-.07,0-.1,0-.1-.09v-.52c0-.07,0-.1.1-.1l1.59,0h7l1.59,0c.06,0,.09,0,.09.1Zm-6.85,3.46V134H27.71v1.62Zm3.22,2.51H29.83a11.63,11.63,0,0,1-.68,1c.87.18,1.65.37,2.34.58A5.19,5.19,0,0,0,32.7,138.15ZM32,133.44v-1.19H30.16v1.19Zm0,2.2V134H30.16v1.62Zm2.59,0V134H32.65v1.62Z"/><path class="cls-97" d="M47.66,140.36a1.73,1.73,0,0,0-.43.47c-.07.11-.12.16-.15.16a.68.68,0,0,1-.17-.09,9.78,9.78,0,0,1-4.32-5.68c0,3.1.08,4.95.08,5.58a1,1,0,0,1-.42.92,3.93,3.93,0,0,1-1.46.2c-.12,0-.19,0-.21,0a.58.58,0,0,1-.08-.21,1.55,1.55,0,0,0-.28-.56c.38,0,.67,0,.87,0a1.2,1.2,0,0,0,.67-.12.58.58,0,0,0,.15-.46v-6.42h-3l-1.6,0c-.06,0-.09,0-.09-.1v-.54a.08.08,0,0,1,.09-.09l1.6,0h3v-.93a7.74,7.74,0,0,0-.09-1.46c.31,0,.57,0,.81.07.09,0,.13.05.13.1a.62.62,0,0,1,0,.25,5,5,0,0,0-.06,1v.94h3.09l1.6,0c.07,0,.1,0,.1.09v.54c0,.07,0,.1-.1.1l-1.6,0h-3A11.15,11.15,0,0,0,44,136.92a10.74,10.74,0,0,0,1.55-1.62,2,2,0,0,0,.32-.56,2.58,2.58,0,0,1,.61.44.21.21,0,0,1,.1.17s0,.09-.13.15a2.53,2.53,0,0,0-.55.5,14.49,14.49,0,0,1-1.54,1.48A9.7,9.7,0,0,0,47.66,140.36Zm-6.4-2.27a1.05,1.05,0,0,1,0,.18s-.06.12-.17.21a24.8,24.8,0,0,1-2.78,1.72,2.17,2.17,0,0,0-.42.27.29.29,0,0,1-.16.1s-.09,0-.14-.12q-.19-.36-.33-.66a6.28,6.28,0,0,0,.89-.37,23,23,0,0,0,3-1.83A2.57,2.57,0,0,0,41.26,138.09Zm-.84-1.56a.13.13,0,0,1,0,.07.16.16,0,0,1-.07.11l-.32.31c-.07.07-.12.11-.14.11s0,0-.05,0a6.6,6.6,0,0,0-1.48-1.67.18.18,0,0,1,0-.07s0-.06.11-.13l.27-.25a.19.19,0,0,1,.12-.07l.06,0A7.59,7.59,0,0,1,40.42,136.53Zm5.7-4a.07.07,0,0,1,0,.06s0,.08-.12.15l-.23.2a.47.47,0,0,1-.16.11.1.1,0,0,1-.08-.05,6,6,0,0,0-1.42-1.22.1.1,0,0,1-.06-.07s0-.06.1-.12l.25-.22s.07-.06.1-.06l.08,0A7.34,7.34,0,0,1,46.12,132.53Z"/><path class="cls-97" d="M531.79,91.65c0,.06,0,.09-.1.09l-1.63,0h-3l-1.63,0c-.07,0-.1,0-.1-.09v-.47c0-.06,0-.09.1-.09l1.63,0h1.25v-.88h-.63l-1.39,0c-.07,0-.1,0-.1-.09v-.45a.09.09,0,0,1,.1-.1l1.39,0h.63v-.86h-.77l-1.35,0c-.07,0-.1,0-.1-.1v-.44c0-.07,0-.1.1-.1l1.35,0h.77v0a4.3,4.3,0,0,0-.07-.9l.7.06c.11,0,.16,0,.16.11a.63.63,0,0,1-.07.22,1.33,1.33,0,0,0-.06.44v.1h.84l1.34,0c.07,0,.1,0,.1.1v.44c0,.07,0,.1-.1.1l-1.34,0h-.84v.86h.63l1.41,0s.08,0,.08.1v.45c0,.06,0,.09-.08.09l-1.41,0h-.63v.88h1.14l1.63,0c.07,0,.1,0,.1.09Zm0-3.66c0,.07,0,.11-.1.11h-.49a.1.1,0,0,1-.11-.11V86.91h-4.86V88c0,.07,0,.11-.1.11h-.51c-.06,0-.09,0-.09-.11l0-.9v-.27l0-.44c0-.06,0-.1.09-.1l1.62,0h1.07v-.25a4.37,4.37,0,0,0-.08-.91,5.48,5.48,0,0,1,.76.07c.11,0,.16,0,.16.1a.66.66,0,0,1-.07.23,1.57,1.57,0,0,0-.06.54v.22H530l1.62,0c.06,0,.09,0,.09.1l0,.39v.32Zm-.84,7.86c0,.06,0,.09-.1.09h-.52a.08.08,0,0,1-.09-.09v-.41h-3.15V96a.08.08,0,0,1-.09.09h-.53c-.07,0-.1,0-.1-.09l0-1.51v-.86l0-1c0-.07,0-.1.09-.1l1.36,0h1.68l1.36,0c.06,0,.09,0,.09.1l0,.84v.91Zm-.71-1V93.18h-3.15v1.64Zm3.19-8.38a.3.3,0,0,1,0,.11.22.22,0,0,0,0,.1,8.83,8.83,0,0,0,0,1.25v3.32l0,1.58c0,.06,0,.09-.1.09h-.56a.08.08,0,0,1-.09-.09l0-1.58V87.93a11.53,11.53,0,0,0-.08-1.66c.27,0,.53,0,.77.07C533.35,86.36,533.39,86.39,533.39,86.44Zm2.21-.89a1.11,1.11,0,0,1-.09.23,5,5,0,0,0-.06,1.06v6l0,1.84a1.1,1.1,0,0,1-.35,1,1.2,1.2,0,0,1-.55.19,8,8,0,0,1-1,0,.44.44,0,0,1-.22,0,.47.47,0,0,1-.07-.21,2.2,2.2,0,0,0-.24-.56,9.05,9.05,0,0,0,1.11.06.71.71,0,0,0,.49-.12.67.67,0,0,0,.12-.46V86.86a10.13,10.13,0,0,0-.08-1.48,6.11,6.11,0,0,1,.79.07C535.55,85.47,535.6,85.5,535.6,85.55Z"/><path class="cls-97" d="M537.68,85.77l.84.11a34.52,34.52,0,0,0-.37,4.27,9,9,0,0,0,.05,1c.29-.7.57-1.31.82-1.83l.56.44a14.79,14.79,0,0,0-.84,1.91,5.34,5.34,0,0,0-.21.74h-.93a11.5,11.5,0,0,1-.25-2.45A36.33,36.33,0,0,1,537.68,85.77Zm4,0,.88,0c.07,1.52.11,2.9.11,4.15a13.77,13.77,0,0,1-.2,2.65,4.09,4.09,0,0,1-.6,1.43,5,5,0,0,1-3,1.84l-.52-.7A4.1,4.1,0,0,0,541,93.67a6.51,6.51,0,0,0,.79-3.78C541.83,88.8,541.79,87.44,541.69,85.82Z"/><path class="cls-97" d="M553.24,96.05c0,.07,0,.1-.1.1h-.57c-.06,0-.09,0-.09-.1V95.5h-6.11l-1.71,0s-.08,0-.08-.09v-.55c0-.07,0-.1.08-.1l1.71,0h6.11V92.88H547l-1.68,0q-.12,0-.12-.09v-.53c0-.06,0-.1.12-.1l1.68,0h5.48V90.34h-6l-1.69,0c-.07,0-.1,0-.1-.1v-.54c0-.07,0-.11.1-.11l1.69,0h2.19v-3a7.53,7.53,0,0,0-.09-1.38,7.05,7.05,0,0,1,.84.08q.15,0,.15.12a.66.66,0,0,1-.07.23,3.11,3.11,0,0,0-.08,1v3h2l1.71,0c.07,0,.1,0,.1.11l0,1.47v3.09Zm-6-7.59a.17.17,0,0,1,0,.07s-.05.08-.13.13l-.35.18a.41.41,0,0,1-.15.07s-.05,0-.07-.08a9.4,9.4,0,0,0-1.32-2.37l0-.06s0-.07.14-.12l.33-.18.13-.06s0,0,.06.06A10,10,0,0,1,547.2,88.46Zm6-2s0,.09-.11.13a.7.7,0,0,0-.18.25,16.12,16.12,0,0,1-1.25,2c-.07.09-.13.14-.16.14a.4.4,0,0,1-.18-.1,1.92,1.92,0,0,0-.43-.22,11.78,11.78,0,0,0,1.37-2.22,2,2,0,0,0,.14-.48,6.38,6.38,0,0,1,.71.33A.14.14,0,0,1,553.17,86.44Z"/><path class="cls-97" d="M562.51,86.33l0,.84a4.54,4.54,0,0,0-2,.55,5,5,0,0,0-1.78,1.71,4.19,4.19,0,0,0-.7,2.31,2.61,2.61,0,0,0,1.1,2.21,5.36,5.36,0,0,0,2.53.87l-.21.87a5.2,5.2,0,0,1-3.12-1.21,3.38,3.38,0,0,1-1.13-2.65,5,5,0,0,1,2.57-4.38l.66-.29v0l-.57.1c-.68,0-2.31.18-4.87.42l-.07-.81C556.1,86.76,558.62,86.58,562.51,86.33Z"/><path class="cls-97" d="M543.65,137.14c0,.06,0,.09-.1.09l-1.54,0h-1.34a6.08,6.08,0,0,1-1.25,1.81c.82.28,1.87.72,3.15,1.31,0,0,.07,0,.07.06a.23.23,0,0,1-.07.13l-.24.34c-.08.11-.12.16-.14.16l-.07,0a21.42,21.42,0,0,0-3.25-1.49,9.87,9.87,0,0,1-5,1.54h-.09a.25.25,0,0,1-.16,0l-.09-.18a1.16,1.16,0,0,0-.29-.41,10.31,10.31,0,0,0,4.77-1.18c-.75-.2-1.46-.37-2.12-.5-.07.1-.16.21-.27.34a.25.25,0,0,1-.17.08h-.1l-.41-.1a.09.09,0,0,1-.08-.09s0-.07.12-.16.35-.41.55-.68a11,11,0,0,0,.66-.91h-1.61l-1.54,0c-.07,0-.1,0-.1-.09v-.51a.09.09,0,0,1,.1-.1l1.54,0h2l.15-.27a4.13,4.13,0,0,0,.43-1,3.69,3.69,0,0,1,.73.2c.08,0,.13.08.13.13s0,.1-.12.16a1.68,1.68,0,0,0-.4.53l-.14.23H542l1.54,0a.09.09,0,0,1,.1.1Zm-.16-5.91a.08.08,0,0,1-.09.09l-1.6,0h-2v1.2h.82l1.73,0a.09.09,0,0,1,.1.1l0,.89v.84l0,.89c0,.06,0,.09-.1.09l-1.73,0H536l-1.74,0a.08.08,0,0,1-.09-.09l0-.89v-.84l0-.89c0-.06,0-.1.09-.1l1.74,0h.66v-1.2h-1.81l-1.58,0c-.07,0-.1,0-.1-.09v-.52c0-.06,0-.09.1-.09l1.58,0h7l1.6,0a.08.08,0,0,1,.09.09Zm-6.85,3.46v-1.62h-1.77v1.62Zm3.22,2.52H537c-.28.44-.51.77-.68,1a23.69,23.69,0,0,1,2.34.57A5.15,5.15,0,0,0,539.86,137.21Zm-.73-4.71v-1.2h-1.81v1.2Zm0,2.19v-1.62h-1.81v1.62Zm2.59,0v-1.62H539.8v1.62Z"/><path class="cls-97" d="M554.82,139.41a1.77,1.77,0,0,0-.43.48c-.07.1-.12.15-.16.15l-.16-.08a9.84,9.84,0,0,1-4.32-5.68c0,3.09.08,4.95.08,5.57a1,1,0,0,1-.43.92,3.62,3.62,0,0,1-1.45.2c-.12,0-.19,0-.22,0a.67.67,0,0,1-.07-.2,1.63,1.63,0,0,0-.28-.56c.38,0,.67,0,.87,0a1.25,1.25,0,0,0,.67-.12.56.56,0,0,0,.15-.46v-6.41h-3l-1.59,0a.08.08,0,0,1-.09-.09v-.55a.08.08,0,0,1,.09-.09l1.59,0h3v-.93a7.81,7.81,0,0,0-.09-1.46c.3,0,.57,0,.81.08s.13,0,.13.09a.69.69,0,0,1-.06.26,4.76,4.76,0,0,0-.06,1v.94h3.1l1.6,0c.06,0,.1,0,.1.09v.55c0,.06,0,.09-.1.09l-1.6,0h-3a11.62,11.62,0,0,0,1.2,2.75,10.81,10.81,0,0,0,1.56-1.62,1.91,1.91,0,0,0,.32-.56,2.9,2.9,0,0,1,.61.44.22.22,0,0,1,.1.17s0,.1-.13.16a2.29,2.29,0,0,0-.56.5,12.74,12.74,0,0,1-1.54,1.47A9.83,9.83,0,0,0,554.82,139.41Zm-6.4-2.27a1.05,1.05,0,0,1,0,.18c0,.06-.06.13-.17.21a26.39,26.39,0,0,1-2.78,1.73,1.84,1.84,0,0,0-.42.26c-.07.07-.12.1-.16.1s-.09,0-.14-.12q-.19-.36-.33-.66a5.74,5.74,0,0,0,.88-.37,20.61,20.61,0,0,0,3-1.83A2,2,0,0,0,548.42,137.14Zm-.84-1.56a.17.17,0,0,1,0,.07.19.19,0,0,1-.07.12l-.32.3-.14.11a.07.07,0,0,1-.06,0,6.42,6.42,0,0,0-1.47-1.68s0-.05,0-.07,0-.06.11-.13l.27-.25a.2.2,0,0,1,.11-.07l.07,0A7.59,7.59,0,0,1,547.58,135.58Zm5.7-4s0,0,0,.06,0,.08-.12.15L553,132a.35.35,0,0,1-.17.1s0,0-.07,0a5.6,5.6,0,0,0-1.42-1.22s-.06-.06-.06-.08,0-.06.1-.12l.25-.21s.07-.06.09-.06l.08,0A7.47,7.47,0,0,1,553.28,131.58Z"/><path class="cls-98" d="M70,33H65.3v-8.4h1.39v7.22H70Z"/><path class="cls-98" d="M71.18,33v-8.4h2.66a3.09,3.09,0,0,1,1.93.53,1.66,1.66,0,0,1,.72,1.39,2,2,0,0,1-.41,1.24,2.19,2.19,0,0,1-1.12.75v0a2.19,2.19,0,0,1,1.39.65,2,2,0,0,1,.52,1.41A2.13,2.13,0,0,1,76,32.34a3.35,3.35,0,0,1-2.15.67Zm1.39-7.28v2.39h.9a1.74,1.74,0,0,0,1.14-.35,1.19,1.19,0,0,0,.41-1c0-.71-.48-1.07-1.44-1.07Zm0,3.51V31.9h1.19a1.79,1.79,0,0,0,1.2-.36,1.26,1.26,0,0,0,.42-1c0-.87-.6-1.3-1.81-1.3Z"/><path class="cls-98" d="M86.92,24.27a1.39,1.39,0,0,1,.38-1.46,1.33,1.33,0,0,1,.91-.35,1.31,1.31,0,0,1,1,.45,1.37,1.37,0,0,1-1,2.29,1.15,1.15,0,0,1-.33,0,9.94,9.94,0,0,1-1.7,5.77,8.8,8.8,0,0,1-4,2.65l-.74-1a7.23,7.23,0,0,0,3.88-2.66,8.33,8.33,0,0,0,1.17-4.45H81V24.27Zm1.29-1.22a.73.73,0,0,0-.58.25.78.78,0,0,0-.2.53.76.76,0,0,0,.25.58.78.78,0,0,0,.53.2.75.75,0,0,0,.78-.78.73.73,0,0,0-.25-.58A.78.78,0,0,0,88.21,23.05Z"/><path class="cls-98" d="M90.12,27.77h6.79v1.3H90.12Z"/><path class="cls-98" d="M100.36,23.85c0,2.45,0,4.14-.11,5.06a8.61,8.61,0,0,1-.34,1.93,5.85,5.85,0,0,1-1.69,2.59l-1-.75a4.57,4.57,0,0,0,1.54-2.28A9.44,9.44,0,0,0,99,28.23q.06-1.26.06-4.38Zm2.81,7.68a8,8,0,0,0,2.63-3.79l.92,1.08a11.94,11.94,0,0,1-1.92,2.9,10.81,10.81,0,0,1-2.27,1.75l-.67-.47V23.77h1.31Z"/><path class="cls-98" d="M110.84,30.36c1-1.79,1.84-3.47,2.55-5.06a1.52,1.52,0,0,1,.47-.65,1,1,0,0,1,.54-.14,1,1,0,0,1,.6.17,2.08,2.08,0,0,1,.45.52q2.56,3.86,4.67,6.72l-1.15.91c-1.06-1.55-2.46-3.7-4.21-6.43a.25.25,0,0,0-.24-.13.25.25,0,0,0-.23.15c-.64,1.41-1.39,2.94-2.24,4.57ZM116.77,24l.77-.23a11.48,11.48,0,0,1,.88,2l-.81.27A10.49,10.49,0,0,0,116.77,24Zm1.46-.34.77-.24a12.07,12.07,0,0,1,.85,1.9l-.79.29A11.31,11.31,0,0,0,118.23,23.69Z"/><path class="cls-98" d="M120.58,27.77h6.79v1.3h-6.79Z"/><path class="cls-98" d="M133.09,28.78a27.35,27.35,0,0,1,2.76,3.93l-1.26.79a22.36,22.36,0,0,0-2.21-3.6,11.71,11.71,0,0,1-4.28,3.58l-.77-1a9.82,9.82,0,0,0,3.93-3.24A10.26,10.26,0,0,0,133,25.29H128.1V24.16h6.18l.33.45A15,15,0,0,1,133.09,28.78Z"/><path class="cls-98" d="M144.11,24.14l0,1.18a4.32,4.32,0,0,0-2,.44,4.09,4.09,0,0,0-2.42,3.75c0,1.6,1.2,2.52,3.61,2.74L143,33.53q-4.5-.42-4.5-4a4.4,4.4,0,0,1,.73-2.48A5.21,5.21,0,0,1,141,25.47l.58-.22,0-.09-.65.18c-1,.12-2.52.29-4.53.5l-.11-1.19C138.49,24.48,141.12,24.32,144.11,24.14Zm-2,2.78.8-.23a10.74,10.74,0,0,1,.87,2L143,29A10.15,10.15,0,0,0,142.15,26.92Zm1.45-.38.79-.24a11.32,11.32,0,0,1,.85,1.91l-.81.29A11.43,11.43,0,0,0,143.6,26.54Z"/><path class="cls-98" d="M147.57,30.54l-1.47,0c-.08,0-.12,0-.12-.13v-.72c0-.09,0-.13.12-.13l1.47,0h3.22V29h-2l-1.63,0c-.09,0-.13,0-.13-.12v-.66c0-.06,0-.1,0-.11a.16.16,0,0,1,.1,0l1.63,0h2v-.54h-1.55l-1.66,0a.19.19,0,0,1-.13,0,.29.29,0,0,1,0-.12l0-.62v-.65l0-.62a.19.19,0,0,1,0-.13h.12l1.66,0h1.55V25h-3l-1.53,0a.14.14,0,0,1-.11,0,.22.22,0,0,1,0-.1v-.76c0-.07,0-.1,0-.12h.1l1.53,0h3a7,7,0,0,0-.08-1.1A11.81,11.81,0,0,1,152,23c.13,0,.19.06.19.13a.53.53,0,0,1-.07.23A2,2,0,0,0,152,24h3.05l1.52,0c.07,0,.11,0,.12,0a.23.23,0,0,1,0,.11v.76a.2.2,0,0,1,0,.11.29.29,0,0,1-.12,0l-1.52,0H152v.53h1.6l1.68,0q.1,0,.12,0a.25.25,0,0,1,0,.11l0,.62v.65l0,.62c0,.07,0,.11,0,.13a.2.2,0,0,1-.11,0l-1.68,0H152v.54H154l1.65,0q.1,0,.12,0a.19.19,0,0,1,0,.1l0,1v.28l1,0c.08,0,.12,0,.12.13v.72c0,.09,0,.13-.12.13h-1v.61l0,1.1a.25.25,0,0,1,0,.12.29.29,0,0,1-.12,0h-.92a.17.17,0,0,1-.12,0,.25.25,0,0,1,0-.11V32H152c0,.14,0,.34,0,.6a1.15,1.15,0,0,1-.44,1.07,4,4,0,0,1-1.68.26.75.75,0,0,1-.35-.05,1,1,0,0,1-.13-.29,4,4,0,0,0-.47-.92,7.31,7.31,0,0,0,.91.06h.3a.85.85,0,0,0,.52-.11.42.42,0,0,0,.1-.33V32h-2l-1.64,0a.17.17,0,0,1-.12,0,.25.25,0,0,1,0-.11v-.65a.19.19,0,0,1,0-.13h.1l1.64,0h2v-.56Zm1.05-3.67h2.17v-.59h-2.17Zm5.61,0v-.59H152v.59Zm.32,2.17H152v.56h2.55ZM152,31.1h2.55v-.56H152Z"/><path class="cls-98" d="M159.73,25.8l-1.5,0q-.1,0-.12,0a.29.29,0,0,1,0-.12v-.91c0-.07,0-.1,0-.12h.11l1.5,0h1.41a8.53,8.53,0,0,0-.67-1.19.16.16,0,0,1,0-.09s0-.06.12-.1l.82-.31.14,0s.07,0,.11.08a6.63,6.63,0,0,1,.7,1.16.2.2,0,0,1,0,.08s-.06.07-.17.11l-.75.3h2.7a13.23,13.23,0,0,0,.73-1.17,2.46,2.46,0,0,0,.23-.59,10.6,10.6,0,0,1,1.19.32c.12.05.17.11.17.17a.22.22,0,0,1-.1.16A1.67,1.67,0,0,0,166,24c-.14.22-.3.45-.49.7h1.59l1.51,0c.06,0,.1,0,.12,0a.28.28,0,0,1,0,.11v.91a.19.19,0,0,1,0,.13.16.16,0,0,1-.1,0l-1.51,0Zm1.12,7,.81,0c.16,0,.27,0,.32-.08a.29.29,0,0,0,.07-.23v-1h-1.92v.84l0,1.53c0,.06,0,.1,0,.11a.2.2,0,0,1-.11,0h-1a.2.2,0,0,1-.11,0,.27.27,0,0,1,0-.11l0-1.56v-4l0-1.6c0-.08,0-.12.13-.12l1.27,0h1.51l1.24,0c.09,0,.13,0,.13.12l0,1.69V31l0,1.6a1.33,1.33,0,0,1-.28,1,2.48,2.48,0,0,1-1.36.25c-.2,0-.32,0-.35,0s-.06-.13-.09-.31A2.29,2.29,0,0,0,160.85,32.75Zm1.2-5.06h-1.92v.93h1.92Zm-1.92,2.82h1.92v-.92h-1.92Zm4.12-3.59a9.71,9.71,0,0,1,1.2.09c.11,0,.17.06.17.13s0,.12-.07.28a6.33,6.33,0,0,0-.05,1.18V30l0,1.26c0,.06,0,.09,0,.11h-1.06c-.06,0-.1,0-.11,0a.16.16,0,0,1,0-.1l0-1.26v-1.4A13.12,13.12,0,0,0,164.25,26.92Zm.72,5.71a10.74,10.74,0,0,0,1.21.06.59.59,0,0,0,.41-.11.48.48,0,0,0,.1-.36V28.08a10.89,10.89,0,0,0-.09-1.62c.45,0,.87,0,1.24.08.13,0,.19.06.19.14a.94.94,0,0,1-.09.25,5.36,5.36,0,0,0-.07,1.15V30.4l0,2.08a1.24,1.24,0,0,1-.43,1.1,1.47,1.47,0,0,1-.63.21,7.34,7.34,0,0,1-1.09.05.69.69,0,0,1-.35-.05.88.88,0,0,1-.11-.32A2.5,2.5,0,0,0,165,32.63Z"/><path class="cls-98" d="M172.17,23.84a28.93,28.93,0,0,0-.52,3.14,24.06,24.06,0,0,0-.17,2.55,22.39,22.39,0,0,0,.29,3.81l-1.26.11a26.45,26.45,0,0,1-.28-3.94,25.12,25.12,0,0,1,.24-3.13c.12-.95.26-1.84.43-2.66Zm.71,6,1.17.1a3,3,0,0,0-.14.91.88.88,0,0,0,.39.81,2.12,2.12,0,0,0,1.07.21,24,24,0,0,0,2.53-.14l0,1.24q-1.06.09-2.49.09a3.34,3.34,0,0,1-2.13-.54,1.79,1.79,0,0,1-.59-1.47A5.07,5.07,0,0,1,172.88,29.84Zm.24-3.6V25.05c1-.07,2.06-.1,3.14-.1.52,0,1.05,0,1.58,0v1.17c-.41,0-1-.05-1.67-.05C175.18,26.11,174.16,26.15,173.12,26.24Z"/><path class="cls-98" d="M183.24,26.73h-.55v.63h.38l1.4,0c.05,0,.09,0,.1,0a.25.25,0,0,1,0,.11v.67a.25.25,0,0,1,0,.11.22.22,0,0,1-.1,0l-1.4,0h-.38v.63h.9l1.57,0c.07,0,.11,0,.13,0a.25.25,0,0,1,0,.11v.7c0,.06,0,.1,0,.11a.2.2,0,0,1-.11,0l-1.57,0h-3.07l-1.58,0q-.1,0-.12,0a.19.19,0,0,1,0-.1V29a.22.22,0,0,1,0-.12h.12l1.58,0h1v-.63h-.38l-1.39,0a.22.22,0,0,1-.12,0,.23.23,0,0,1,0-.11v-.67c0-.07,0-.1,0-.12a.2.2,0,0,1,.11,0l1.39,0h.38v-.63H181l-1.33,0c-.09,0-.13,0-.13-.12v-.57h-.46c-.06,0-.1,0-.11,0a.29.29,0,0,1,0-.12l0-1.05v-.3l0-.53a.22.22,0,0,1,0-.12.23.23,0,0,1,.11,0l1.59,0h.86v0a6,6,0,0,0-.08-1,12.12,12.12,0,0,1,1.23.1c.13,0,.19,0,.19.12a.63.63,0,0,1-.07.25,1.5,1.5,0,0,0-.06.53h.8l1.57,0c.07,0,.12,0,.13,0a.2.2,0,0,1,0,.11l0,.45v.38l0,1.05q0,.1,0,.12s-.05,0-.12,0h-.41v.57c0,.08-.05.12-.14.12Zm-2.44,7.19h-1a.14.14,0,0,1-.11,0,.22.22,0,0,1,0-.1l0-1.55v-.79l0-1c0-.07,0-.12,0-.13l.1,0,1.38,0h1.88l1.36,0q.1,0,.12,0a.25.25,0,0,1,0,.12l0,.83v.85l0,1.52c0,.08-.05.12-.13.12h-.94a.11.11,0,0,1-.12-.12v-.31h-2.48v.43c0,.06,0,.1,0,.11A.2.2,0,0,1,180.8,33.92Zm-.7-9v.95h1.47c0-.22,0-.47-.07-.76.39,0,.77.05,1.13.09.13,0,.19.06.19.14a.66.66,0,0,1-.07.23.67.67,0,0,0-.06.3h1.49v-.95Zm.84,6.43v1.07h2.48V31.32Zm4.84-7.3c.44,0,.84,0,1.21.08.11,0,.17.06.17.14a.5.5,0,0,1,0,.14,1,1,0,0,0,0,.12c0,.12,0,.54,0,1.28v3.33l0,1.59a.19.19,0,0,1,0,.1s-.06,0-.12,0h-1a.11.11,0,0,1-.12-.12l0-1.59V25.8A13.79,13.79,0,0,0,185.78,24Zm.57,8.43c.43,0,.82.07,1.15.07a.67.67,0,0,0,.44-.11.52.52,0,0,0,.09-.36V24.81a12.65,12.65,0,0,0-.09-1.7,11.3,11.3,0,0,1,1.27.09c.13,0,.2.05.2.12a1.07,1.07,0,0,1-.08.26,4.88,4.88,0,0,0-.08,1.21v5.06l0,2.38a1.38,1.38,0,0,1-.44,1.22,1.62,1.62,0,0,1-.63.26,7.14,7.14,0,0,1-1.08.06c-.19,0-.3,0-.34-.06a1.17,1.17,0,0,1-.1-.33A3.47,3.47,0,0,0,186.35,32.45Z"/><path class="cls-98" d="M190.58,23.58l1.22.14a26.63,26.63,0,0,0-.42,4.25c0,.4,0,.69,0,.87a17.38,17.38,0,0,1,.77-1.74l.72.57a11,11,0,0,0-.85,1.81,5,5,0,0,0-.22.8l-1.31,0a11.71,11.71,0,0,1-.25-2.5A39.57,39.57,0,0,1,190.58,23.58Zm3.95.07,1.27,0q.12,1.83.12,4.14a11.52,11.52,0,0,1-.23,2.61,4.42,4.42,0,0,1-.65,1.45,3.92,3.92,0,0,1-1.24,1.12,8.3,8.3,0,0,1-1.89.73l-.76-1a4.23,4.23,0,0,0,2.74-1.39,3.35,3.35,0,0,0,.61-1.42,10.71,10.71,0,0,0,.17-2.11C194.67,26.67,194.62,25.31,194.53,23.65Z"/><path class="cls-98" d="M201.17,23.05a10.17,10.17,0,0,1,1.31.1c.13,0,.19.06.19.15a.58.58,0,0,1-.09.25,3.46,3.46,0,0,0-.07,1v2.72h2l1.64,0c.07,0,.12,0,.13,0a.29.29,0,0,1,0,.12l0,1.46V32.2l0,1.64c0,.06,0,.09,0,.1l-.12,0h-1c-.08,0-.13,0-.13-.12V33.4h-5.95l-1.65,0a.22.22,0,0,1-.12,0,.23.23,0,0,1,0-.11v-.94a.19.19,0,0,1,0-.13h.11l1.65,0H205V30.85h-5.33l-1.65,0a.22.22,0,0,1-.12,0,.14.14,0,0,1,0-.11v-.89c0-.06,0-.1,0-.11l.12,0,1.65,0H205V28.39h-5.88l-1.63,0c-.06,0-.1,0-.11,0s0-.05,0-.11v-.94a.17.17,0,0,1,0-.12.16.16,0,0,1,.1,0l1.63,0h2.12V24.51A13.79,13.79,0,0,0,201.17,23.05Zm-2.34.74a10.5,10.5,0,0,1,1.34,2.31.18.18,0,0,1,0,.09s-.05.08-.14.13l-.81.43a.47.47,0,0,1-.14.05s-.07,0-.1-.09a9.3,9.3,0,0,0-1.27-2.33.14.14,0,0,1,0-.09s0-.07.12-.11l.8-.41a.24.24,0,0,1,.13-.05S198.8,23.74,198.83,23.79Zm4.65,2.51a10.42,10.42,0,0,0,1.33-2.16,2.39,2.39,0,0,0,.17-.5,6.65,6.65,0,0,1,1.14.54c.09.05.13.1.13.17s0,.09-.12.16a.94.94,0,0,0-.21.29,12.1,12.1,0,0,1-1.12,1.84c-.12.15-.2.23-.24.23a.76.76,0,0,1-.29-.15A4.64,4.64,0,0,0,203.48,26.3Z"/><path class="cls-98" d="M215.94,24.14l0,1.18a4.32,4.32,0,0,0-2,.44,4.09,4.09,0,0,0-2.42,3.75c0,1.6,1.21,2.52,3.61,2.74l-.31,1.28q-4.5-.42-4.5-4a4.4,4.4,0,0,1,.73-2.48,5.21,5.21,0,0,1,1.74-1.61l.58-.22,0-.09-.66.18c-1,.12-2.52.29-4.53.5l-.11-1.19C210.32,24.48,213,24.32,215.94,24.14Z"/><path class="cls-98" d="M217.29,25.47c-.17,1.29-.29,2.38-.37,3.28l-.17.71.4-.56a3.65,3.65,0,0,1,2.78-1.27,3,3,0,0,1,2.21.77,2.63,2.63,0,0,1,.68,1.93,2.71,2.71,0,0,1-.45,1.59,3.13,3.13,0,0,1-1.15.93,9.12,9.12,0,0,1-3.95.72l-.41-1.15H217a7.85,7.85,0,0,0,3.47-.59,1.77,1.77,0,0,0,1.05-1.7,1.36,1.36,0,0,0-.47-1.13,1.73,1.73,0,0,0-1.15-.34,3.14,3.14,0,0,0-2.42,1.13,2.65,2.65,0,0,0-.63,1l-1.19-.21c.09-1.37.24-3.14.43-5.29Zm-.13-1.24.49-1a17,17,0,0,1,2.17.48,14.32,14.32,0,0,1,1.77.61l-.63,1.1a11.84,11.84,0,0,0-1.86-.75A17.13,17.13,0,0,0,217.16,24.23Z"/><path class="cls-98" d="M225.57,23.32l1.2,0c0,.3,0,.71-.07,1.24,0,.35,0,.62,0,.82l.4.36a.27.27,0,0,1,.08.16.2.2,0,0,1-.06.15,2.89,2.89,0,0,0-.5.75l-.05.35-.11.45h.05l.2-.45a11.68,11.68,0,0,1,1.6-1.75,2.33,2.33,0,0,1,1.43-.64,1.39,1.39,0,0,1,1.22.53,2.64,2.64,0,0,1,.35,1.54c0,.65,0,1.44-.11,2.36s-.1,1.71-.1,2.05.11.53.34.53c.43,0,.75-.62.95-1.86l1,.67a4.46,4.46,0,0,1-.9,2,1.58,1.58,0,0,1-1.17.43,1.34,1.34,0,0,1-1.11-.42,1.91,1.91,0,0,1-.31-1.21c0-.58,0-1.31.08-2.19s.1-1.68.1-2.16a2.5,2.5,0,0,0-.13-1,.36.36,0,0,0-.35-.21,2.21,2.21,0,0,0-1.45.89,19,19,0,0,0-1.57,2.08v4.75h-1.18c0-1.16,0-2.31.08-3.47l.11-.74h0l-.22.72c-.44.92-.78,1.63-1,2.14l-.94-.86c1.21-2.12,1.91-3.35,2.09-3.68q0-.36,0-.81c0-.27,0-.44,0-.51-.31,0-.9.09-1.78.19l-.07-1c.71,0,1.34-.09,1.87-.14C225.52,25.06,225.54,24.37,225.57,23.32Z"/><path class="cls-98" d="M66.62,40.68l-1.86,0V39.65c.69,0,1.37,0,2,0,.09-.64.16-1.31.22-2l1.28.13c-.1.76-.19,1.36-.26,1.81.81,0,1.69-.11,2.63-.2l0,1.07c-.88.08-1.82.15-2.84.2A50.1,50.1,0,0,1,66,47.89l-1.21-.43A35.36,35.36,0,0,0,66.62,40.68ZM68.26,45l1.08.08a2.67,2.67,0,0,0-.1.73.69.69,0,0,0,.36.68,3.07,3.07,0,0,0,1.25.18,16.63,16.63,0,0,0,2-.1l.06,1.18c-.62.06-1.28.09-2,.09a3.93,3.93,0,0,1-2.26-.48A1.54,1.54,0,0,1,68.12,46,4,4,0,0,1,68.26,45Zm.65-2.18V41.71a27.75,27.75,0,0,1,3.44-.21h.43V42.6h-.45A23.68,23.68,0,0,0,68.91,42.8Z"/><path class="cls-98" d="M85.12,46.67a2.16,2.16,0,0,0-.32.92.68.68,0,0,1-.11.35.77.77,0,0,1-.33.06c-1.31.07-2.71.11-4.21.11a7.93,7.93,0,0,1-2.8-.34,2.47,2.47,0,0,1-1.18-1.07,11.7,11.7,0,0,1-1.24,1.06,1.34,1.34,0,0,0-.24.24.22.22,0,0,1-.17.11c-.07,0-.13,0-.17-.15a9.11,9.11,0,0,1-.49-1.12,7,7,0,0,0,.7-.38,6.78,6.78,0,0,0,1-.77V43H75l-.88,0q-.1,0-.12,0a.29.29,0,0,1,0-.12V42a.25.25,0,0,1,0-.12h.12l.88,0h.73l.9,0c.06,0,.1,0,.12,0a.28.28,0,0,1,0,.11l0,1.14v2.54a2,2,0,0,0,1,1,6.77,6.77,0,0,0,2.22.24C81.74,46.92,83.46,46.83,85.12,46.67Zm-9.86-8.9a10.79,10.79,0,0,1,1.5,1.77.31.31,0,0,1,0,.09s0,.09-.11.14l-.68.55a.33.33,0,0,1-.14.07.14.14,0,0,1-.11-.08,10,10,0,0,0-1.47-1.87.12.12,0,0,1-.05-.09s0-.07.11-.12l.65-.44a.31.31,0,0,1,.15-.07A.25.25,0,0,1,75.26,37.77Zm3.92,5.17-1.62,0c-.06,0-.1,0-.11,0a.19.19,0,0,1,0-.1V42a.2.2,0,0,1,0-.11l.11,0,1.62,0h1a6.47,6.47,0,0,0,0-.83c0-.19,0-.37,0-.54h-.84l-1.58,0a.2.2,0,0,1-.11,0,.25.25,0,0,1,0-.11v-.84a.38.38,0,0,1,0-.13h.11l1.45,0A6.56,6.56,0,0,0,78.47,38a.18.18,0,0,1,0-.09s0-.06.13-.09l.8-.33.14,0s.07,0,.12.09a8.91,8.91,0,0,1,.79,1.3.31.31,0,0,1,0,.08c0,.06-.05.1-.16.15l-.89.34h1.77a12.22,12.22,0,0,0,.73-1.36,3.25,3.25,0,0,0,.21-.68,10.7,10.7,0,0,1,1.23.35c.1,0,.16.09.16.17a.25.25,0,0,1-.15.21.74.74,0,0,0-.22.28c-.23.4-.44.74-.63,1h.1l1.58,0c.06,0,.1,0,.11,0s0,0,0,.11v.84a.1.1,0,0,1-.13.13l-1.58,0H81.46c0,.63,0,1.09-.07,1.37h1.45l1.63,0c.07,0,.1,0,.12,0a.19.19,0,0,1,0,.1v.86a.23.23,0,0,1,0,.11.25.25,0,0,1-.12,0l-1.63,0H81.6a4.93,4.93,0,0,0,3.21,2.27,3.66,3.66,0,0,0-.47.83c-.07.23-.15.34-.24.34a1,1,0,0,1-.26-.07A5.26,5.26,0,0,1,81,43.85a5.06,5.06,0,0,1-2.58,2.41,1,1,0,0,1-.29.11s-.13-.1-.25-.3a2.88,2.88,0,0,0-.58-.7,6.53,6.53,0,0,0,1.94-1.06A2.84,2.84,0,0,0,80,42.94Z"/><path class="cls-98" d="M85.68,42.05a11.33,11.33,0,0,0,2.07-3.87,3.83,3.83,0,0,0,.21-.86,11.39,11.39,0,0,1,1.11.32c.13,0,.2.11.2.18a.35.35,0,0,1-.13.22,1.41,1.41,0,0,0-.24.5c-.18.5-.37,1-.58,1.46v6.39l0,1.82a.17.17,0,0,1,0,.12.2.2,0,0,1-.11,0h-1c-.07,0-.11-.05-.11-.14l0-1.82V42.17a9.26,9.26,0,0,1-.71.95c-.08.11-.15.16-.21.16s-.1-.07-.13-.21A3.74,3.74,0,0,0,85.68,42.05Zm5.07-1.41-1.65,0c-.07,0-.1,0-.12,0a.35.35,0,0,1,0-.12v-.84c0-.07,0-.11,0-.12a.23.23,0,0,1,.11,0l1.65,0h4.32l1.65,0q.11,0,.12,0a.23.23,0,0,1,0,.11v.84a.31.31,0,0,1,0,.13.29.29,0,0,1-.12,0l-1.65,0Zm0,7.67h-1c-.06,0-.1,0-.11,0a.19.19,0,0,1,0-.1l0-1.6v-.81l0-1.07c0-.08,0-.12.13-.12l1.58,0h2.86l1.55,0c.09,0,.14,0,.14.12l0,.92v.93l0,1.59c0,.08,0,.12-.14.12h-1c-.09,0-.13,0-.13-.12v-.36H90.9v.4a.2.2,0,0,1,0,.11Zm3.35-9.41H91.53l-1.5,0c-.06,0-.1,0-.11,0s0,0,0-.1V38c0-.06,0-.1,0-.11s0,0,.1,0l1.5,0h2.59l1.48,0a.31.31,0,0,1,.13,0,.23.23,0,0,1,0,.11v.81c0,.06,0,.1,0,.11l-.12,0ZM94,42.29H91.54l-1.48,0c-.09,0-.14,0-.14-.12V41.4c0-.06,0-.1,0-.11s0,0,.11,0l1.48,0H94l1.48,0a.2.2,0,0,1,.11,0,.28.28,0,0,1,0,.11v.79a.11.11,0,0,1-.12.12Zm0,1.65H91.54l-1.48,0c-.07,0-.1,0-.12,0a.19.19,0,0,1,0-.1v-.79c0-.06,0-.1,0-.11a.2.2,0,0,1,.11,0l1.48,0H94l1.48,0a.2.2,0,0,1,.11,0,.31.31,0,0,1,0,.11v.79s0,.09,0,.1,0,0-.1,0ZM90.9,45.62v1.14h3.76V45.62Z"/><path class="cls-98" d="M101.37,47.08V45.64a2.33,2.33,0,0,0,.46.32,3.57,3.57,0,0,0,.57.23,3.41,3.41,0,0,0,.59.15,2.89,2.89,0,0,0,.56.06,2.27,2.27,0,0,0,1.3-.3,1,1,0,0,0,.44-.85.91.91,0,0,0-.15-.52,1.52,1.52,0,0,0-.4-.4,4.72,4.72,0,0,0-.61-.35l-.74-.34c-.29-.16-.55-.31-.8-.47a3,3,0,0,1-.64-.52,2,2,0,0,1-.43-.64,2.12,2.12,0,0,1-.15-.83,1.9,1.9,0,0,1,.26-1,2.22,2.22,0,0,1,.71-.72,3.41,3.41,0,0,1,1-.43,4.8,4.8,0,0,1,1.14-.13,4.61,4.61,0,0,1,1.92.3v1.37a3.1,3.1,0,0,0-1.84-.51,3.18,3.18,0,0,0-.62.06,1.56,1.56,0,0,0-.55.19,1.21,1.21,0,0,0-.4.34.85.85,0,0,0-.15.51,1,1,0,0,0,.12.49,1.33,1.33,0,0,0,.34.38,3.8,3.8,0,0,0,.55.33l.75.35a8.21,8.21,0,0,1,.83.48,3.79,3.79,0,0,1,.69.55,2.59,2.59,0,0,1,.47.68,2.28,2.28,0,0,1-.09,1.92,2,2,0,0,1-.69.72,3.14,3.14,0,0,1-1,.4,5.81,5.81,0,0,1-1.2.12l-.52,0a5.12,5.12,0,0,1-.63-.1,6,6,0,0,1-.61-.15A1.82,1.82,0,0,1,101.37,47.08Z"/><path class="cls-98" d="M115.43,47.41h-1.52l-4-6.18a2.73,2.73,0,0,1-.25-.48h0a7.12,7.12,0,0,1,.05,1.15v5.51H108.3V39h1.63l3.88,6a5.73,5.73,0,0,1,.31.51h0a7.27,7.27,0,0,1-.06-1.13V39h1.34Z"/><path class="cls-98" d="M124.42,47.41h-1.53l-.75-2.14h-3.31l-.72,2.14h-1.53l3.15-8.4h1.57Zm-2.65-3.28-1.17-3.35c0-.11-.07-.28-.11-.52h0a4.62,4.62,0,0,1-.12.52l-1.15,3.35Z"/><path class="cls-98" d="M130.5,40.19h-2.41v7.22h-1.4V40.19h-2.41V39h6.22Z"/><path class="cls-97" d="M38.2,190.15a.08.08,0,0,1-.09.09H36.94V191l0,1.08a.09.09,0,0,1-.1.1h-.53a.09.09,0,0,1-.1-.1v-.37h-3v.88a1.6,1.6,0,0,1-.08.61.63.63,0,0,1-.25.29,3.6,3.6,0,0,1-1.62.22c-.12,0-.19,0-.22,0a.77.77,0,0,1-.08-.19,2.77,2.77,0,0,0-.29-.54,6.42,6.42,0,0,0,.79.06h.27a1.08,1.08,0,0,0,.64-.12.64.64,0,0,0,.12-.45v-.71H30.45l-1.69,0c-.07,0-.1,0-.1-.09v-.42c0-.06,0-.09.1-.09l1.69,0h2.06v-.91H29.22l-1.55,0c-.07,0-.1,0-.1-.09v-.42c0-.07,0-.1.1-.1l1.55,0h3.29v-.85H30.45l-1.69,0c-.07,0-.1,0-.1-.08v-.44c0-.06,0-.09.1-.09l1.69,0h2.06v-.81H30.93l-1.7,0c-.06,0-.09,0-.09-.11l0-.66v-.5l0-.66c0-.07,0-.1.09-.1l1.7,0h1.58v-.75H29.3l-1.57,0c-.07,0-.1,0-.1-.1v-.44c0-.06,0-.09.1-.09l1.57,0h3.21a6.86,6.86,0,0,0-.08-1.25,5.54,5.54,0,0,1,.78.06c.09,0,.14.05.14.1a.66.66,0,0,1-.07.23,3.26,3.26,0,0,0-.06.84v0h3.21l1.58,0a.08.08,0,0,1,.09.09v.44c0,.07,0,.1-.09.1l-1.58,0H33.22v.75h1.63l1.71,0c.06,0,.09,0,.09.1l0,.66v.5l0,.66c0,.07,0,.11-.09.11l-1.71,0H33.22v.81h1.93l1.72,0c.06,0,.1,0,.1.09l0,1.07v.27l1.17,0c.06,0,.09,0,.09.1Zm-5.69-3.23V186H29.83v.93Zm3.46,0V186H33.22v.93Zm.27,2.74v-.85h-3v.85Zm0,1.47v-.91h-3v.91Z"/><path class="cls-97" d="M49.81,185.48a.09.09,0,0,1-.1.1l-1.57,0H41l-1.56,0c-.06,0-.09,0-.09-.1V185a.08.08,0,0,1,.09-.09l1.56,0h4.25a13.92,13.92,0,0,0,.93-1.39,2.55,2.55,0,0,0,.26-.63,4.73,4.73,0,0,1,.72.23c.09,0,.13.07.13.13s0,.1-.11.14a2.17,2.17,0,0,0-.38.5q-.34.51-.75,1h2.09l1.57,0c.06,0,.1,0,.1.09Zm-5.57,7.15a1,1,0,0,1-.25.8,3.05,3.05,0,0,1-1.37.19c-.13,0-.2,0-.22,0a.67.67,0,0,1-.07-.2,1.71,1.71,0,0,0-.21-.48c.34,0,.64,0,.9,0a.66.66,0,0,0,.44-.1.39.39,0,0,0,.09-.31v-1.45H41v1l0,1.55c0,.06,0,.08-.1.08H40.4c-.06,0-.09,0-.09-.08l0-1.55V188.3l0-1.59a.08.08,0,0,1,.09-.09l1.21,0h1.33l1.21,0a.08.08,0,0,1,.09.09l0,1.64v2.7Zm-.69-4.1v-1.27H41v1.27Zm0,1.93v-1.32H41v1.32Zm-.19-6.15a.07.07,0,0,1,0,.06s-.05.06-.15.1l-.33.14-.16,0s-.05,0-.07-.08a8.71,8.71,0,0,0-.76-1.31l0-.06s0-.06.12-.09l.33-.13.14-.05s.05,0,.08.05A6.12,6.12,0,0,1,43.36,184.31Zm3.23,2.8a.26.26,0,0,1,0,.1l0,.1a6.21,6.21,0,0,0-.05,1.08v1.53l0,1.23c0,.07,0,.1-.09.1h-.54c-.06,0-.09,0-.09-.1l0-1.23V188.4a9.5,9.5,0,0,0-.08-1.47,5.64,5.64,0,0,1,.74.07C46.55,187,46.59,187.05,46.59,187.11Zm2.39-.53a.93.93,0,0,1-.09.24,5.92,5.92,0,0,0,0,1v4.61a1.06,1.06,0,0,1-.34.93,1.15,1.15,0,0,1-.54.18c-.19,0-.54,0-1.06,0a.48.48,0,0,1-.22,0,.47.47,0,0,1-.07-.21,1.5,1.5,0,0,0-.23-.51,9.52,9.52,0,0,0,1.13.06.68.68,0,0,0,.48-.12.64.64,0,0,0,.13-.47v-4.46a7.18,7.18,0,0,0-.09-1.41q.42,0,.78.06Q49,186.51,49,186.58Z"/><path class="cls-97" d="M52.61,183.78a30.84,30.84,0,0,0-.67,5.65,21.61,21.61,0,0,0,.29,3.74l-.85.07a23.65,23.65,0,0,1-.28-3.83,34.39,34.39,0,0,1,.66-5.7Zm1.06,6.06.82.07a4.63,4.63,0,0,0-.14,1.07.92.92,0,0,0,.38.84,2.82,2.82,0,0,0,1.33.23,22.93,22.93,0,0,0,2.37-.12l0,.87q-.87.06-2.28.06a3.75,3.75,0,0,1-2.09-.42,1.52,1.52,0,0,1-.54-1.32A5.85,5.85,0,0,1,53.67,189.84Zm.24-4V185c1-.08,2-.11,3-.11.51,0,1,0,1.43,0v.81c-.41,0-.92,0-1.51,0C55.84,185.71,54.85,185.75,53.91,185.84Z"/><path class="cls-97" d="M66.07,189.34a.08.08,0,0,1-.09.09l-1.62,0h-3l-1.62,0a.08.08,0,0,1-.09-.09v-.46a.08.08,0,0,1,.09-.09l1.62,0h1.25v-.87h-.63l-1.38,0c-.07,0-.1,0-.1-.09v-.43c0-.07,0-.1.1-.1l1.38,0h.63v-.84h-.77l-1.34,0c-.07,0-.1,0-.1-.1V186a.09.09,0,0,1,.1-.1l1.34,0h.77v0a4,4,0,0,0-.07-.88l.7.06c.11,0,.16.05.16.11a.67.67,0,0,1-.07.21,1.27,1.27,0,0,0-.06.43v.1h.84l1.33,0a.09.09,0,0,1,.1.1v.43c0,.07,0,.1-.1.1l-1.33,0h-.84v.84h.62l1.41,0s.08,0,.08.1v.43c0,.06,0,.09-.08.09l-1.41,0h-.62v.87h1.14l1.62,0a.08.08,0,0,1,.09.09Zm0-3.6c0,.08,0,.11-.1.11h-.49a.1.1,0,0,1-.11-.11v-1.05H60.5v1.05c0,.08,0,.11-.1.11h-.5c-.07,0-.1,0-.1-.11l0-.88v-.26l0-.44c0-.06,0-.09.1-.09l1.61,0h1.06v-.24a4.33,4.33,0,0,0-.08-.9c.28,0,.53,0,.76.08s.16,0,.16.09a.61.61,0,0,1-.07.23,1.54,1.54,0,0,0-.06.53v.21h1l1.61,0c.07,0,.1,0,.1.09l0,.39v.31Zm-.84,7.72c0,.06,0,.09-.1.09h-.51c-.07,0-.1,0-.1-.09v-.4H61.36v.54a.08.08,0,0,1-.09.09h-.53c-.07,0-.1,0-.1-.09l0-1.48v-.84l0-1a.08.08,0,0,1,.09-.09l1.35,0h1.68l1.35,0a.08.08,0,0,1,.09.09l0,.83v.9Zm-.71-1v-1.61H61.36v1.61Zm3.18-8.22a.33.33,0,0,1,0,.1.22.22,0,0,0,0,.1,8.45,8.45,0,0,0,0,1.23v3.25l0,1.55a.09.09,0,0,1-.1.1h-.55c-.07,0-.1,0-.1-.1l0-1.55v-3.23a9.68,9.68,0,0,0-.08-1.62,6.12,6.12,0,0,1,.77.07C67.63,184.14,67.67,184.18,67.67,184.23Zm2.2-.88a1.11,1.11,0,0,1-.09.23,4.74,4.74,0,0,0-.06,1v5.87l0,1.81a1.1,1.1,0,0,1-.35,1,1.32,1.32,0,0,1-.55.18,8.41,8.41,0,0,1-1,0,.45.45,0,0,1-.21,0,.47.47,0,0,1-.07-.21,1.92,1.92,0,0,0-.24-.54c.32,0,.69.05,1.1.05a.46.46,0,0,0,.61-.57v-7.55a8.61,8.61,0,0,0-.08-1.45c.29,0,.55,0,.79.07S69.87,183.3,69.87,183.35Z"/><path class="cls-97" d="M72,183.57l.83.1a33,33,0,0,0-.36,4.19,9.17,9.17,0,0,0,0,1c.29-.69.57-1.29.82-1.8l.55.43a13.83,13.83,0,0,0-.83,1.88,4.87,4.87,0,0,0-.21.72h-.92a11.06,11.06,0,0,1-.26-2.41A33.38,33.38,0,0,1,72,183.57Zm4,0,.87,0c.08,1.48.12,2.84.12,4.07a12.47,12.47,0,0,1-.21,2.6,4.06,4.06,0,0,1-.6,1.41,5,5,0,0,1-3,1.8l-.51-.69a4.15,4.15,0,0,0,2.7-1.45,6.37,6.37,0,0,0,.79-3.71C76.1,186.54,76.05,185.2,76,183.61Z"/><path class="cls-97" d="M87.48,193.65c0,.07,0,.1-.09.1h-.57a.09.09,0,0,1-.1-.1v-.53H80.65l-1.71,0s-.08,0-.08-.09v-.55c0-.06,0-.09.08-.09l1.71,0h6.07v-1.88H81.27l-1.68,0c-.07,0-.11,0-.11-.1V190c0-.06,0-.09.11-.09l1.68,0h5.45v-1.83h-6l-1.68,0c-.07,0-.1,0-.1-.09v-.54c0-.07,0-.1.1-.1l1.68,0H83v-2.92a7.16,7.16,0,0,0-.09-1.35c.35,0,.63,0,.84.07s.15.05.15.12a.66.66,0,0,1-.07.23,2.94,2.94,0,0,0-.08.93v2.92h2l1.71,0c.06,0,.09,0,.09.1l0,1.44v3Zm-6-7.45a.15.15,0,0,1,0,.08s0,.07-.12.12l-.35.18a.41.41,0,0,1-.15.07s-.05,0-.07-.08a9.61,9.61,0,0,0-1.31-2.33l0-.06s0-.06.13-.11l.34-.18a.24.24,0,0,1,.12,0,.08.08,0,0,1,.07,0A10.66,10.66,0,0,1,81.47,186.2Zm5.94-2s0,.08-.11.13a.83.83,0,0,0-.18.24,14.43,14.43,0,0,1-1.24,2c-.07.1-.13.15-.16.15a.4.4,0,0,1-.18-.1,1.57,1.57,0,0,0-.43-.21,11.83,11.83,0,0,0,1.36-2.19,1.51,1.51,0,0,0,.15-.47c.23.09.46.2.71.32A.16.16,0,0,1,87.41,184.23Z"/><path class="cls-97" d="M96.74,184.12l0,.82a4.67,4.67,0,0,0-2,.54A4.91,4.91,0,0,0,93,187.16a4,4,0,0,0-.7,2.27,2.53,2.53,0,0,0,1.1,2.16,5.21,5.21,0,0,0,2.52.85l-.21.86a5.31,5.31,0,0,1-3.11-1.18,3.33,3.33,0,0,1-1.12-2.61,4.87,4.87,0,0,1,2.56-4.29l.65-.29v0l-.56.09c-.68,0-2.3.17-4.85.41l-.07-.79C90.35,184.53,92.86,184.37,96.74,184.12Z"/><path class="cls-97" d="M99.06,185.4c-.19,1.86-.3,3.07-.35,3.64l-.12.65.28-.44a4.11,4.11,0,0,1,1.44-1.09,3.68,3.68,0,0,1,1.52-.33,2.86,2.86,0,0,1,2.06.7,2.26,2.26,0,0,1,.67,1.72,2.67,2.67,0,0,1-.41,1.57,2.86,2.86,0,0,1-1,.88,5.78,5.78,0,0,1-1.79.52,14.43,14.43,0,0,1-2,.19l-.28-.8a8.12,8.12,0,0,0,3.49-.6,2.18,2.18,0,0,0,.9-.76,2.06,2.06,0,0,0,.25-1.08,1.51,1.51,0,0,0-.53-1.21,1.8,1.8,0,0,0-1.24-.41,3.35,3.35,0,0,0-2.53,1.2,3.62,3.62,0,0,0-.66,1l-.89-.15c.06-1.15.2-2.93.42-5.36Zm.25-1.48.35-.68a18.75,18.75,0,0,1,3.73,1.08l-.43.74A19.06,19.06,0,0,0,99.31,183.92Z"/><path class="cls-97" d="M107.81,183.3l.83,0c0,.33,0,.72-.06,1.18s0,.63,0,.85l.37.31a.16.16,0,0,1,0,.12.22.22,0,0,1,0,.13,4.59,4.59,0,0,0-.4.77l0,.45-.06.45.22-.47a9.69,9.69,0,0,1,1.67-1.79,2.36,2.36,0,0,1,1.41-.53,1.24,1.24,0,0,1,1.15.54,2.54,2.54,0,0,1,.29,1.37c0,.63,0,1.43-.11,2.4s-.1,1.69-.1,2a1.43,1.43,0,0,0,.13.74.4.4,0,0,0,.36.17c.48,0,.85-.66,1.12-2l.72.46a4.32,4.32,0,0,1-.85,1.91,1.4,1.4,0,0,1-1,.44,1.16,1.16,0,0,1-1-.35,2.1,2.1,0,0,1-.3-1.27c0-.59,0-1.32.08-2.19s.1-1.72.1-2.14a3.35,3.35,0,0,0-.13-1.11.49.49,0,0,0-.48-.32q-1.22,0-3.24,2.95v4.92h-.83c0-1.33,0-2.61,0-3.82l.12-.75-.31.71c-.32.74-.69,1.52-1.12,2.33l-.67-.56c.37-.65,1-1.88,2-3.72,0-.44,0-.94,0-1.49l-1.76.19,0-.72q1.1-.09,1.83-.18,0-.3,0-1C107.8,184,107.81,183.6,107.81,183.3Z"/><path class="cls-97" d="M118,186c-.66,0-1.33.06-2,.06v-.76c.8,0,1.52,0,2.15-.05.11-.81.19-1.51.23-2.09l.89.08c-.07.58-.16,1.24-.28,2,.78-.06,1.66-.12,2.65-.21l0,.75q-1.23.13-2.79.21a45.76,45.76,0,0,1-1.89,7.29l-.84-.29A41.31,41.31,0,0,0,118,186Zm1.46,4.6.75.06a3,3,0,0,0-.07.67c0,.48.14.79.44.93a3.59,3.59,0,0,0,1.33.16,14.76,14.76,0,0,0,1.86-.09l0,.82a17.39,17.39,0,0,1-1.75.07,4,4,0,0,1-2.14-.4,1.48,1.48,0,0,1-.55-1.31A4.89,4.89,0,0,1,119.48,190.6Zm.61-2.56v-.79a32.54,32.54,0,0,1,3.65-.16v.76A29.31,29.31,0,0,0,120.09,188Z"/><path class="cls-97" d="M136,192.26a1.67,1.67,0,0,0-.37.46c-.06.11-.11.17-.15.17l-.18-.07a11,11,0,0,1-4.58-3.92c0,.89,0,1.9,0,3,0,.91,0,1.48,0,1.69a.08.08,0,0,1-.09.09H130a.08.08,0,0,1-.09-.09q0-.21,0-2c0-1,0-2,0-2.74a11.65,11.65,0,0,1-4.33,3.92.46.46,0,0,1-.18.07s-.1-.06-.16-.17a1.24,1.24,0,0,0-.34-.44,11.11,11.11,0,0,0,2.81-1.82,9.14,9.14,0,0,0,1.76-2h-2.48l-1.59,0c-.06,0-.09,0-.09-.1v-.52a.08.08,0,0,1,.09-.09l1.59,0H130v-2.12h-1.81l-1.7,0c-.07,0-.1,0-.1-.1v-.53c0-.06,0-.09.1-.09l1.7,0H130v-.67a8.16,8.16,0,0,0-.08-1.4,7.69,7.69,0,0,1,.8.07c.11,0,.16,0,.16.1a2.1,2.1,0,0,1-.07.26,4.33,4.33,0,0,0-.07,1V185h2.06l1.7,0c.06,0,.1,0,.1.09v.53a.09.09,0,0,1-.1.1l-1.7,0H130.7v2.12h3.09l1.61,0a.08.08,0,0,1,.09.09v.52c0,.07,0,.1-.09.1l-1.61,0H131a9.83,9.83,0,0,0,2.21,2.26A12,12,0,0,0,136,192.26Z"/><path class="cls-97" d="M140.11,183.3a.26.26,0,0,1-.11.17,1,1,0,0,0-.24.44,17.16,17.16,0,0,1-.78,1.81v6l0,1.88c0,.05,0,.08-.1.08h-.56c-.06,0-.09,0-.09-.08l0-1.88v-3.11c0-.36,0-.93,0-1.71a14,14,0,0,1-1.09,1.5c-.07.08-.11.12-.14.12s-.07,0-.11-.13a1.29,1.29,0,0,0-.33-.46,12.46,12.46,0,0,0,2.45-4.25,3.2,3.2,0,0,0,.17-.8,3.61,3.61,0,0,1,.72.25C140.06,183.21,140.11,183.25,140.11,183.3Zm7.79,9.52a1.73,1.73,0,0,0-.25.51c0,.14-.1.21-.17.21h-.14a10.07,10.07,0,0,1-4.6-1.48,6.93,6.93,0,0,1-2.67,1.54.54.54,0,0,1-.17,0c-.05,0-.11-.06-.18-.19a1.31,1.31,0,0,0-.33-.4,7.22,7.22,0,0,0,2.81-1.41,7.19,7.19,0,0,1-1.31-1.49.13.13,0,0,1,0-.07s0-.06.13-.11l.27-.15.11-.05s0,0,.07.06a6.48,6.48,0,0,0,1.18,1.32,3.66,3.66,0,0,0,.45-1,4.67,4.67,0,0,0,.13-.74h-1.09l-1.63,0a.08.08,0,0,1-.09-.09l0-.91v-1l0-.92a.08.08,0,0,1,.09-.09l1.63,0h1.16v-1.2h-1.53l-1.67,0a.09.09,0,0,1-.1-.1v-.52c0-.06,0-.09.1-.09l1.67,0h1.53v-.26a7.06,7.06,0,0,0-.09-1.3c.34,0,.61,0,.78.05s.15.05.15.11a.81.81,0,0,1-.07.23,4.19,4.19,0,0,0-.07.9v.27h1.91l1.69,0a.08.08,0,0,1,.09.09v.52c0,.06,0,.1-.09.1l-1.69,0H144v1.2h1.25l1.63,0c.07,0,.1,0,.1.09l0,.92v1l0,.91c0,.06,0,.09-.1.09l-1.63,0H143.9a6.35,6.35,0,0,1-.15.85,4.19,4.19,0,0,1-.6,1.3A10.41,10.41,0,0,0,147.9,192.82ZM143.27,187H141.1v1.72h2.15C143.26,188.44,143.27,187.87,143.27,187Zm3,1.72V187H144c0,.83,0,1.4,0,1.72Z"/><path class="cls-97" d="M158.9,183.72l0,1.88v5.31l0,1.61a.94.94,0,0,1-.36.82,2.87,2.87,0,0,1-1.48.24.47.47,0,0,1-.23,0s0-.09-.07-.21a1.5,1.5,0,0,0-.22-.54c.36,0,.76,0,1.19,0q.42,0,.42-.48v-2.52h-3.35v1.42l0,2c0,.07,0,.1-.1.1h-.57c-.07,0-.1,0-.1-.1l0-2v-1.42h-3.21a8,8,0,0,1-.47,2.18,6.77,6.77,0,0,1-.75,1.38q-.1.15-.15.15s-.08,0-.16-.12a2.2,2.2,0,0,0-.51-.3,5.83,5.83,0,0,0,1.11-2.26,15.76,15.76,0,0,0,.3-3.48V185.6l0-1.88c0-.06,0-.09.1-.09l1.7,0h5.1l1.71,0C158.86,183.63,158.9,183.66,158.9,183.72Zm-4.84,5.47v-2.12H151v.32c0,.53,0,1.12,0,1.8Zm0-2.76v-2.12H151v2.12Zm4.08,0v-2.12h-3.35v2.12Zm0,2.76v-2.12h-3.35v2.12Z"/><path class="cls-97" d="M165.29,185.06a19.08,19.08,0,0,1-1.27,6.3,1.81,1.81,0,0,1-1.63,1.27,1.51,1.51,0,0,1-1.37-.91,5,5,0,0,1-.46-2.38,6.28,6.28,0,0,1,.39-2.24,4.43,4.43,0,0,1,.89-1.48,4.13,4.13,0,0,1,1.47-1,4.69,4.69,0,0,1,1.69-.32,3.54,3.54,0,0,1,3,1.28,5.39,5.39,0,0,1,.83,3.26,4.35,4.35,0,0,1-1,2.9,4.74,4.74,0,0,1-2.81,1.53l-.41-.72a3.63,3.63,0,0,0,3.28-3.94,4,4,0,0,0-.88-2.82A2.4,2.4,0,0,0,165.29,185.06Zm-.91.1a2.63,2.63,0,0,0-1.1.34,3.81,3.81,0,0,0-.91.8,4.43,4.43,0,0,0-1,3.06,3.88,3.88,0,0,0,.35,1.82c.18.35.4.52.64.52a.68.68,0,0,0,.53-.22,1.88,1.88,0,0,0,.38-.65A16.66,16.66,0,0,0,164.38,185.16Z"/><path class="cls-97" d="M173.51,192.55v-1.16a2.5,2.5,0,0,0,.48.32,3.8,3.8,0,0,0,.59.23,3.39,3.39,0,0,0,.61.15,3.09,3.09,0,0,0,.58.06,2.27,2.27,0,0,0,1.35-.34,1.14,1.14,0,0,0,.45-1,1.15,1.15,0,0,0-.15-.59,1.74,1.74,0,0,0-.41-.46,4.42,4.42,0,0,0-.62-.39l-.78-.4c-.29-.15-.57-.3-.82-.45a3.49,3.49,0,0,1-.66-.51,1.9,1.9,0,0,1-.44-.62,1.86,1.86,0,0,1-.17-.81,1.88,1.88,0,0,1,.26-1,2.1,2.1,0,0,1,.66-.7,3,3,0,0,1,.93-.41,4.29,4.29,0,0,1,1.07-.13,4.08,4.08,0,0,1,1.81.3v1.1a3.29,3.29,0,0,0-1.91-.51,3.47,3.47,0,0,0-.64.06,2,2,0,0,0-.58.22,1.38,1.38,0,0,0-.41.39,1.1,1.1,0,0,0-.15.59,1.18,1.18,0,0,0,.12.55,1.28,1.28,0,0,0,.35.43,3.75,3.75,0,0,0,.57.37c.22.13.48.26.78.4s.58.31.85.47a3.59,3.59,0,0,1,.71.54,2.53,2.53,0,0,1,.48.66,1.84,1.84,0,0,1,.18.83,2.09,2.09,0,0,1-.24,1,1.93,1.93,0,0,1-.66.7,2.8,2.8,0,0,1-.95.39,5.22,5.22,0,0,1-1.13.12l-.5,0-.59-.1a4.45,4.45,0,0,1-.58-.15A2,2,0,0,1,173.51,192.55Z"/><path class="cls-97" d="M186.84,192.89h-1.2l-4.33-6.68a2.65,2.65,0,0,1-.27-.53h0a8.71,8.71,0,0,1,.05,1.15v6.06h-1v-8.38h1.28l4.2,6.57a5.88,5.88,0,0,1,.34.56h0a8.58,8.58,0,0,1-.06-1.23v-5.9h1Z"/><path class="cls-97" d="M195.44,192.89h-1.09l-.89-2.35H189.9l-.84,2.35H188l3.22-8.38h1Zm-2.3-3.23-1.32-3.57a5.16,5.16,0,0,1-.13-.57h0a2.62,2.62,0,0,1-.14.57l-1.3,3.57Z"/><path class="cls-97" d="M200.75,185.4h-2.42v7.49h-1V185.4h-2.42v-.89h5.82Z"/><path class="cls-97" d="M207.22,187.79a14.77,14.77,0,0,1-1.74,4.68l-.8-.44a12.41,12.41,0,0,0,1.67-4.51Zm2.36-2.4h3.8v.78h-3.8v7.21h-.91v-7.21h-3.75v-.78h3.75v-2.07h.91Zm1.37,2.48.84-.31a20.76,20.76,0,0,0,1.7,4.38l-.87.47A31.53,31.53,0,0,1,211,187.87Zm1.7-5.49a1.33,1.33,0,0,1,1.34,1.34,1.33,1.33,0,0,1-1.34,1.34,1.24,1.24,0,0,1-1-.44,1.33,1.33,0,0,1,.09-1.89A1.3,1.3,0,0,1,212.65,182.38Zm0,.51a.81.81,0,0,0-.62.27.87.87,0,0,0-.2.56.8.8,0,0,0,.27.62.77.77,0,0,0,.55.21.8.8,0,0,0,.62-.27.81.81,0,0,0,.21-.56.76.76,0,0,0-.27-.61A.8.8,0,0,0,212.65,182.89Z"/><path class="cls-97" d="M214.12,188h6.52v.89h-6.52Z"/><path class="cls-97" d="M223.58,187.68v5.69h-.92v-10h.92v3.47a18.55,18.55,0,0,1,4.57,1.9l-.46.86A15.14,15.14,0,0,0,223.58,187.68Z"/><path class="cls-97" d="M30.69,199.09a.26.26,0,0,1-.11.17.83.83,0,0,0-.24.44c-.27.7-.53,1.3-.78,1.81v6l0,1.88c0,.05,0,.08-.1.08h-.56c-.06,0-.1,0-.1-.08l0-1.88v-3.11c0-.36,0-.93,0-1.71a14,14,0,0,1-1.09,1.5c-.07.08-.12.12-.14.12s-.08-.05-.12-.13a1.16,1.16,0,0,0-.32-.46,12.46,12.46,0,0,0,2.45-4.25,3.29,3.29,0,0,0,.17-.8,3.61,3.61,0,0,1,.72.25C30.64,199,30.69,199,30.69,199.09Zm7.79,9.52a1.73,1.73,0,0,0-.25.51c0,.14-.1.21-.17.21l-.14,0a9.92,9.92,0,0,1-4.6-1.47,6.93,6.93,0,0,1-2.67,1.54l-.17,0c-.05,0-.12-.06-.19-.19a1.18,1.18,0,0,0-.32-.4,7.22,7.22,0,0,0,2.81-1.41,6.91,6.91,0,0,1-1.31-1.49.13.13,0,0,1,0-.07s0-.06.13-.11l.27-.15.11,0s.05,0,.07.06a5.87,5.87,0,0,0,1.17,1.31,3.37,3.37,0,0,0,.46-1,6.22,6.22,0,0,0,.13-.74H32.69l-1.63,0a.08.08,0,0,1-.09-.09l0-.91v-1l0-.92a.08.08,0,0,1,.09-.09h2.78V201H32.32l-1.67,0a.09.09,0,0,1-.1-.1v-.52c0-.06,0-.09.1-.09l1.67,0h1.52v-.26a8.32,8.32,0,0,0-.08-1.3c.34,0,.6,0,.78,0s.15.05.15.11a.81.81,0,0,1-.07.23,4.19,4.19,0,0,0-.07.9v.27h1.91l1.69,0a.08.08,0,0,1,.09.09V201c0,.06,0,.1-.09.1l-1.69,0H34.55v1.19h2.88c.06,0,.1,0,.1.09l0,.92v1l0,.91c0,.06,0,.09-.1.09l-1.63,0H34.48a5.17,5.17,0,0,1-.16.85,4.17,4.17,0,0,1-.59,1.3A10.41,10.41,0,0,0,38.48,208.61Zm-4.64-5.78H31.68v1.72h2.15C33.84,204.23,33.84,203.66,33.84,202.83Zm3,1.72v-1.72H34.55c0,.83,0,1.4,0,1.72Z"/><path class="cls-97" d="M49.48,199.51l0,1.88v6.92a.94.94,0,0,1-.35.82,2.89,2.89,0,0,1-1.49.24.45.45,0,0,1-.22,0,.41.41,0,0,1-.07-.21,1.55,1.55,0,0,0-.22-.55c.36,0,.76,0,1.19,0s.42-.16.42-.48v-2.52H45.36v1.42l0,2a.09.09,0,0,1-.1.1h-.58c-.06,0-.09,0-.09-.1l0-2v-1.42H41.43a8,8,0,0,1-.47,2.18,6.39,6.39,0,0,1-.76,1.38c-.07.1-.11.15-.14.15s-.08,0-.17-.12a1.71,1.71,0,0,0-.5-.3,5.83,5.83,0,0,0,1.11-2.26,15.76,15.76,0,0,0,.3-3.48v-1.79l0-1.88a.09.09,0,0,1,.1-.1l1.7,0h5.1l1.71,0A.09.09,0,0,1,49.48,199.51ZM44.64,205v-2.12H41.53v.32c0,.53,0,1.12-.05,1.8Zm0-2.77V200.1H41.53v2.11Zm4.08,0V200.1H45.36v2.11Zm0,2.77v-2.12H45.36V205Z"/><path class="cls-97" d="M54.59,202c-1,.1-2.08.17-3.37.21l0-.77a28.64,28.64,0,0,0,3.11-.16,18,18,0,0,1-.67-2.07l.88-.11a16.84,16.84,0,0,0,.65,2.09,23.47,23.47,0,0,0,2.53-.45l.1.77c-.63.14-1.41.27-2.33.4a12.93,12.93,0,0,0,2.32,3.47l-.52.74a5.63,5.63,0,0,0-2.89-.82,2.69,2.69,0,0,0-1.77.52,1.26,1.26,0,0,0-.52,1q0,1.53,3,1.53a9.57,9.57,0,0,0,1.6-.12v.84a13.56,13.56,0,0,1-1.63.09,6.09,6.09,0,0,1-2.81-.51,1.91,1.91,0,0,1-1-1.79A2,2,0,0,1,52.33,205a4.09,4.09,0,0,1,2-.45,4.5,4.5,0,0,1,2.31.46A9.86,9.86,0,0,1,54.59,202Z"/><path class="cls-97" d="M60.91,199.09h.83c0,.34,0,.73-.05,1.19s0,.63,0,.85l.37.31a.16.16,0,0,1,0,.12.22.22,0,0,1,0,.13,4.23,4.23,0,0,0-.4.77l0,.45,0,.45.21-.47a9.69,9.69,0,0,1,1.67-1.79,2.36,2.36,0,0,1,1.41-.53,1.27,1.27,0,0,1,1.16.54,2.65,2.65,0,0,1,.28,1.37c0,.63,0,1.43-.11,2.4s-.1,1.69-.1,2a1.43,1.43,0,0,0,.13.74.4.4,0,0,0,.36.17c.48,0,.85-.66,1.12-2l.72.47a4.32,4.32,0,0,1-.85,1.91,1.4,1.4,0,0,1-1,.44,1.13,1.13,0,0,1-1-.36,2,2,0,0,1-.3-1.26c0-.6,0-1.32.08-2.19s.1-1.72.1-2.14a3.31,3.31,0,0,0-.13-1.11.49.49,0,0,0-.48-.32c-.81,0-1.88,1-3.24,3v4.92h-.82c0-1.34,0-2.61,0-3.82l.12-.75-.31.71c-.32.74-.69,1.51-1.11,2.33l-.68-.57c.37-.64,1-1.88,2-3.71,0-.44,0-.94,0-1.49l-1.76.18,0-.71c.73-.07,1.34-.12,1.83-.18q0-.3,0-1C60.9,199.76,60.91,199.39,60.91,199.09Z"/><path class="cls-97" d="M71.12,201.79c-.66,0-1.33.06-2,.06v-.76c.8,0,1.51,0,2.15-.05.1-.81.18-1.51.22-2.09l.89.08c-.06.58-.16,1.24-.28,2,.78-.05,1.66-.11,2.66-.2v.75q-1.23.13-2.79.21a45.76,45.76,0,0,1-1.89,7.29l-.84-.29A40.39,40.39,0,0,0,71.12,201.79Zm1.47,4.6.74.06a3,3,0,0,0-.07.67.93.93,0,0,0,.44.93,3.59,3.59,0,0,0,1.33.16,14.65,14.65,0,0,0,1.86-.09l0,.82a17.39,17.39,0,0,1-1.75.07,4,4,0,0,1-2.14-.4,1.5,1.5,0,0,1-.55-1.31A4.12,4.12,0,0,1,72.59,206.39Zm.61-2.56V203a34.85,34.85,0,0,1,3.64-.17v.77A27.32,27.32,0,0,0,73.2,203.83Z"/><path class="cls-97" d="M81.62,208.34v-1.16a2.23,2.23,0,0,0,.48.32,4.51,4.51,0,0,0,1.2.38,3,3,0,0,0,.58.05,2.28,2.28,0,0,0,1.35-.33,1.14,1.14,0,0,0,.45-1,1.15,1.15,0,0,0-.15-.59,1.76,1.76,0,0,0-.41-.46,3.77,3.77,0,0,0-.63-.39l-.77-.4c-.29-.15-.57-.3-.82-.45a3.2,3.2,0,0,1-.66-.51,2.1,2.1,0,0,1-.45-.62,2,2,0,0,1-.16-.82,1.87,1.87,0,0,1,.26-1,2,2,0,0,1,.66-.7,3,3,0,0,1,.93-.41,4.29,4.29,0,0,1,1.07-.13,4.08,4.08,0,0,1,1.81.3v1.1a3.31,3.31,0,0,0-1.91-.51,3.39,3.39,0,0,0-.64.06,2,2,0,0,0-.58.22,1.27,1.27,0,0,0-.41.39,1.1,1.1,0,0,0-.16.59,1.18,1.18,0,0,0,.12.55,1.31,1.31,0,0,0,.36.43,3,3,0,0,0,.57.37c.22.12.48.26.77.4a8.72,8.72,0,0,1,.86.47,3.59,3.59,0,0,1,.71.54,2.53,2.53,0,0,1,.48.66,1.84,1.84,0,0,1,.18.83,2.14,2.14,0,0,1-.24,1.05,1.93,1.93,0,0,1-.66.7,2.8,2.8,0,0,1-1,.39,5.24,5.24,0,0,1-1.14.12l-.49,0-.6-.1a4.74,4.74,0,0,1-.57-.15A2,2,0,0,1,81.62,208.34Z"/><path class="cls-97" d="M95,208.68H93.74L89.42,202a2.94,2.94,0,0,1-.27-.53h0a9.28,9.28,0,0,1,0,1.15v6.06h-1V200.3h1.28l4.2,6.57a5.88,5.88,0,0,1,.34.56h0a11.05,11.05,0,0,1,0-1.23v-5.9h1Z"/><path class="cls-97" d="M103.55,208.68h-1.09l-.89-2.35H98l-.84,2.35H96.08l3.22-8.38h1Zm-2.3-3.23-1.32-3.57a3.55,3.55,0,0,1-.13-.57h0a3.38,3.38,0,0,1-.14.57l-1.3,3.57Z"/><path class="cls-97" d="M108.86,201.19h-2.42v7.49h-1v-7.49H103v-.89h5.82Z"/><path class="cls-97" d="M115.33,203.58a14.77,14.77,0,0,1-1.74,4.68l-.8-.44a12.22,12.22,0,0,0,1.66-4.51Zm2.36-2.41h3.8V202h-3.8v7.21h-.91V202H113v-.79h3.75V199.1h.91Zm1.37,2.49.84-.31a21,21,0,0,0,1.7,4.38l-.87.47A32,32,0,0,1,119.06,203.66Zm1.7-5.49a1.33,1.33,0,0,1,1.34,1.34,1.34,1.34,0,0,1-2.33.9,1.33,1.33,0,0,1,1-2.24Zm0,.51a.84.84,0,0,0-.55,1.45.77.77,0,0,0,.55.21.8.8,0,0,0,.62-.27.81.81,0,0,0,.21-.56.82.82,0,0,0-.83-.83Z"/><path class="cls-97" d="M122.23,203.77h6.52v.89h-6.52Z"/><path class="cls-97" d="M131.69,203.47v5.69h-.92v-10h.92v3.47a18.55,18.55,0,0,1,4.57,1.9l-.46.86A15,15,0,0,0,131.69,203.47Z"/></g></svg>