<?xml version="1.0" encoding="utf-8"?>
<!-- Generator: Adobe Illustrator 23.0.1, SVG Export Plug-In . SVG Version: 6.00 Build 0)  -->
<svg version="1.1" xmlns="http://www.w3.org/2000/svg" xmlns:xlink="http://www.w3.org/1999/xlink" x="0px" y="0px"
	 viewBox="0 0 475.5 150.3" style="enable-background:new 0 0 475.5 150.3;" xml:space="preserve">
<style type="text/css">
	.st0{fill:#505050;}
	.st1{fill:#FFFFFF;}
	.st2{display:none;}
	.st3{display:inline;}
	.st4{fill:#EBEBEB;}
	.st5{fill:#0072C6;}
	.st6{fill:#D2D2D2;}
	.st7{fill:none;stroke:#000000;stroke-miterlimit:10;}
	.st8{fill:#EBEBEB;stroke:#000000;stroke-width:0.75;stroke-miterlimit:10;}
	.st9{fill:#3E3E3E;}
	.st10{fill:#B8D432;}
	.st11{opacity:0.15;fill:#FFFFFF;enable-background:new    ;}
	.st12{fill:#1E1E1E;}
	.st13{fill:none;}
	.st14{stroke:#000000;stroke-width:5.000000e-02;stroke-miterlimit:10;}
	.st15{fill:#1E1E1E;stroke:#1E1E1E;stroke-width:6.000000e-02;stroke-miterlimit:10;}
	.st16{fill:#FFFFFF;stroke:#FFFFFF;stroke-width:5.000000e-02;stroke-miterlimit:10;}
	.st17{fill:#0072C6;stroke:#0072C6;stroke-width:5.000000e-02;stroke-miterlimit:10;}
</style>
<symbol  id="New_Symbol_41" viewBox="-10 -10 20 20">
	<circle class="st0" cx="0" cy="0" r="10"/>
	<path class="st1" d="M1.2-4.2v8.6h-1.4v-6.9C-0.4-2.3-0.7-2.1-1-2c-0.3,0.1-0.7,0.2-1,0.3v-1.2l0.6-0.2l0.6-0.3l0.6-0.3
		C0.1-3.9,0.4-4,0.6-4.2H1.2z"/>
</symbol>
<symbol  id="New_Symbol_42" viewBox="-10 -10 20 20">
	<circle class="st0" cx="0" cy="0" r="10"/>
	<path class="st1" d="M2.5,4.4h-5.3V3.8c0-0.3,0-0.5,0.1-0.8c0.1-0.2,0.2-0.4,0.3-0.7c0.1-0.2,0.3-0.4,0.4-0.6
		c0.2-0.2,0.4-0.4,0.5-0.5l0.6-0.5c0.2-0.1,0.4-0.3,0.6-0.5S0.1,0,0.3-0.2c0.1-0.1,0.3-0.3,0.4-0.4C0.8-0.8,0.9-1,0.9-1.1
		C1-1.3,1-1.5,1-1.7c0-0.2,0-0.4-0.1-0.6C0.8-2.4,0.7-2.6,0.6-2.7C0.5-2.8,0.3-2.9,0.2-2.9C0-3-0.2-3-0.4-3c-0.4,0-0.7,0.1-1.1,0.2
		c-0.4,0.2-0.7,0.4-1,0.7v-1.3c0.2-0.1,0.3-0.2,0.5-0.3c0.2-0.1,0.4-0.2,0.6-0.2C-1.2-4-1-4-0.8-4.1c0.2,0,0.4,0,0.7,0
		c0.3,0,0.7,0,1,0.1c0.3,0.1,0.6,0.2,0.8,0.4C1.9-3.3,2.1-3,2.2-2.8c0.1,0.3,0.2,0.7,0.2,1c0,0.3,0,0.6-0.1,0.9
		C2.2-0.6,2-0.3,1.9-0.1C1.7,0.2,1.5,0.4,1.3,0.6C1.1,0.8,0.9,1,0.6,1.2l-0.7,0.5c-0.2,0.2-0.4,0.4-0.6,0.5C-0.8,2.4-1,2.6-1.1,2.8
		c-0.1,0.1-0.2,0.3-0.2,0.5l0,0h3.8V4.4z"/>
</symbol>
<symbol  id="New_Symbol_43" viewBox="-10 -10 20 20">
	<circle class="st0" cx="0" cy="0" r="10"/>
	<path class="st1" d="M-2.6,4.1V2.8c0.5,0.4,1.2,0.7,1.8,0.6c0.5,0,0.9-0.1,1.3-0.4c0.3-0.2,0.5-0.6,0.5-1c0-0.9-0.7-1.4-2.2-1.4
		h-0.7v-1.1h0.6c1.3,0,1.9-0.4,1.9-1.4S0.3-3-0.7-3c-0.6,0-1.1,0.2-1.6,0.6v-1.2C-1.7-4-1-4.1-0.3-4.1c0.6,0,1.3,0.2,1.8,0.6
		c0.4,0.3,0.7,0.9,0.7,1.4c0.1,1-0.7,1.9-1.7,2.1l0,0c0.5,0,1,0.3,1.4,0.6C2.3,1,2.5,1.5,2.5,2.1c0,0.7-0.3,1.4-0.9,1.8
		C1,4.4,0.2,4.6-0.6,4.6C-1.3,4.6-2,4.5-2.6,4.1z"/>
</symbol>
<symbol  id="New_Symbol_44" viewBox="-10 -10 20 20">
	<circle class="st0" cx="0" cy="0" r="10"/>
	<path class="st1" d="M2-4v5.4h1.3v1.1H2v1.9H0.6V2.6h-3.8V1.4c0.3-0.4,0.7-0.8,1-1.3c0.4-0.4,0.7-0.9,1-1.4s0.6-0.9,0.9-1.4
		S0.4-3.5,0.6-4L2-4z M0.7,1.4v-3.5c-0.4,0.7-0.8,1.4-1.3,2C-1,0.5-1.4,1-1.8,1.4L0.7,1.4z"/>
</symbol>
<g id="src" class="st2">
	<g id="Shapes" class="st3">
		<rect class="st1" width="475.5" height="150"/>
		<rect y="0.5" class="st4" width="105" height="150"/>
		<rect x="370.8" y="0.5" class="st5" width="104.7" height="90"/>
		<rect x="370.8" y="95.5" class="st6" width="104.7" height="55"/>
		<g>
			<line class="st7" x1="104.7" y1="15.8" x2="365.3" y2="15.8"/>
			<polygon points="364.2,19.5 370.7,15.8 364.2,12 			"/>
		</g>
		<g>
			<line class="st7" x1="110.1" y1="45.6" x2="370.7" y2="45.6"/>
			<polygon points="111.2,49.4 104.7,45.6 111.2,41.9 			"/>
		</g>
		<g>
			<line class="st7" x1="104.7" y1="105.1" x2="365.3" y2="105.1"/>
			<polygon points="364.2,108.8 370.7,105.1 364.2,101.3 			"/>
		</g>
		<g>
			<line class="st7" x1="110.2" y1="141.2" x2="370.7" y2="141.2"/>
			<polygon points="111.3,145 104.8,141.2 111.3,137.5 			"/>
		</g>
		
			<use xlink:href="#New_Symbol_44"  width="20" height="20" x="-10" y="-10" transform="matrix(1 0 0 1 169.62 140.76)" style="overflow:visible;"/>
		
			<use xlink:href="#New_Symbol_43"  width="20" height="20" x="-10" y="-10" transform="matrix(1 0 0 1 169.62 105.07)" style="overflow:visible;"/>
		
			<use xlink:href="#New_Symbol_42"  width="20" height="20" x="-10" y="-10" transform="matrix(1 0 0 1 169.62 45.64)" style="overflow:visible;"/>
		
			<use xlink:href="#New_Symbol_41"  width="20" height="20" x="-10" y="-10" transform="matrix(1 0 0 1 169.62 15.76)" style="overflow:visible;"/>
		<polygon class="st8" points="192.5,26.8 184.9,32.2 187.8,41 197.2,41 200.1,32.2 		"/>
		<g>
			<g>
				<path class="st9" d="M76.6,87.1c0,2.3-1.9,4.2-4.2,4.2H32.6c-2.3,0-4.2-1.9-4.2-4.2V25.5c0-2.3,1.9-4.2,4.2-4.2l0,0h39.8
					c2.3,0,4.2,1.9,4.2,4.2V87.1z"/>
				<rect x="31.5" y="28.3" class="st1" width="42" height="49.3"/>
				<path class="st1" d="M56.5,84.4c0,2.2-1.8,4-4,3.9s-4-1.8-3.9-4c0-2.2,1.8-3.9,4-3.9C54.8,80.4,56.6,82.2,56.5,84.4"/>
				<path class="st10" d="M55.2,84.4c0,1.5-1.2,2.7-2.7,2.7s-2.6-1.2-2.6-2.7s1.2-2.7,2.6-2.7S55.2,83,55.2,84.4L55.2,84.4"/>
				<path class="st11" d="M31.5,77.6V28.3h31.9l2.9-7H32.6c-2.3,0-4.2,1.9-4.2,4.2v0v61.6c0,2.3,1.9,4.2,4.2,4.2c0,0,0,0,0,0h5.2
					l5.6-13.7L31.5,77.6z"/>
				<path class="st12" d="M59.7,25.2c0,0.6-0.4,1-1,1H46.4c-0.6,0-1-0.5-1-1s0.5-1,1-1h12.2C59.2,24.1,59.6,24.6,59.7,25.2"/>
				<path class="st1" d="M59.7,25.2c0,0.6-0.4,1-1,1H46.4c-0.6,0-1-0.5-1-1s0.5-1,1-1h12.2C59.2,24.1,59.6,24.6,59.7,25.2"/>
			</g>
			<g>
				<path d="M38.5,46.9c-0.3,0-0.5-0.1-0.7-0.3c-0.2-0.2-0.3-0.4-0.3-0.7c0-0.3,0.1-0.5,0.3-0.7c0.2-0.2,0.4-0.3,0.7-0.3
					c0.1,0,0.3,0,0.4,0.1c0.1,0,0.2,0.1,0.3,0.2c0.1,0.1,0.2,0.2,0.2,0.3c0.1,0.1,0.1,0.3,0.1,0.4c0,0.1,0,0.3-0.1,0.4
					c0,0.1-0.1,0.2-0.2,0.3C39,46.8,38.7,46.9,38.5,46.9z M37.8,60.7v-11h1.4v11H37.8z"/>
				<path d="M49.1,60.9c-1,0-2.1-0.2-3-0.6c-0.9-0.4-1.6-0.9-2.3-1.7c-0.6-0.7-1.1-1.6-1.4-2.5c-0.3-1-0.5-2-0.5-3.1
					c0-1.1,0.1-2.2,0.5-3.3c0.3-0.9,0.8-1.8,1.5-2.6c0.6-0.7,1.4-1.3,2.3-1.7c1-0.4,2.1-0.6,3.2-0.6c1,0,2,0.2,2.9,0.6
					c0.8,0.4,1.6,0.9,2.2,1.6c0.6,0.7,1.1,1.5,1.4,2.4c0.3,1,0.5,2,0.5,3.1c0,1.1-0.2,2.2-0.5,3.3c-0.3,0.9-0.8,1.8-1.4,2.6
					c-0.6,0.7-1.4,1.3-2.3,1.7C51.2,60.7,50.2,61,49.1,60.9z M49.2,46.3c-0.9,0-1.7,0.2-2.5,0.5c-0.7,0.3-1.3,0.8-1.8,1.4
					c-0.5,0.6-0.9,1.4-1.1,2.1c-0.3,0.8-0.4,1.7-0.4,2.6c0,0.8,0.1,1.7,0.3,2.5c0.2,0.8,0.6,1.5,1.1,2.1c0.5,0.6,1.1,1.1,1.8,1.5
					c0.8,0.4,1.6,0.6,2.5,0.5c0.9,0,1.7-0.1,2.5-0.5c0.7-0.3,1.3-0.8,1.8-1.4c0.5-0.6,0.9-1.3,1.1-2.1c0.3-0.9,0.4-1.8,0.4-2.7
					c0-0.9-0.1-1.7-0.3-2.5c-0.2-0.8-0.5-1.5-1-2.1c-0.5-0.6-1.1-1.1-1.8-1.4C51,46.5,50.1,46.3,49.2,46.3z"/>
				<path d="M58.8,58.4c0.3,0.2,0.6,0.4,0.9,0.5c0.6,0.3,1.3,0.5,2,0.6c0.3,0.1,0.6,0.1,0.9,0.1c0.9,0.1,1.8-0.2,2.6-0.6
					c0.6-0.5,0.9-1.2,0.8-2c0-0.7-0.3-1.4-0.8-1.9c-0.3-0.3-0.7-0.6-1.1-0.8c-0.4-0.3-1-0.6-1.5-0.9s-1.2-0.7-1.7-1
					c-0.4-0.3-0.8-0.6-1.2-1c-0.3-0.3-0.5-0.7-0.7-1.1c-0.1-0.4-0.2-0.9-0.2-1.3c0-0.6,0.1-1.2,0.4-1.7c0.3-0.5,0.6-0.9,1.1-1.3
					c0.5-0.4,1-0.6,1.6-0.8c0.6-0.2,1.3-0.3,2-0.3c1,0,2,0.1,3,0.5v1.6c-1-0.5-2.1-0.8-3.2-0.8c-0.4,0-0.9,0.1-1.3,0.2
					c-0.4,0.1-0.7,0.3-1.1,0.5c-0.3,0.2-0.5,0.5-0.7,0.8c-0.2,0.3-0.3,0.7-0.3,1.1c0,0.3,0.1,0.7,0.2,1c0.1,0.3,0.3,0.6,0.6,0.8
					c0.3,0.3,0.6,0.6,1,0.8c0.4,0.3,0.9,0.5,1.6,0.9c0.6,0.3,1.1,0.6,1.7,1c0.4,0.3,0.8,0.6,1.2,1c0.3,0.3,0.5,0.7,0.7,1.1
					c0.2,0.4,0.2,0.9,0.2,1.3c0,0.6-0.1,1.2-0.4,1.8c-0.2,0.5-0.6,0.9-1.1,1.3c-0.5,0.4-1,0.6-1.6,0.8c-0.7,0.2-1.3,0.3-2,0.3
					c-0.3,0-0.6,0-0.9-0.1c-0.3,0-0.7-0.1-1-0.2c-0.3-0.1-0.7-0.2-1-0.3c-0.3-0.1-0.5-0.2-0.8-0.3L58.8,58.4z"/>
			</g>
		</g>
	</g>
	<g id="Text" class="st3">
		<g>
			<path class="st12" d="M42.6,112.2h-1.9l-3.5-5.3c-0.2-0.2-0.3-0.5-0.4-0.7l0,0c0,0.3,0,0.8,0,1.4v4.6H35v-8.4h2l3.3,5.1
				c0.2,0.2,0.3,0.5,0.4,0.7l0,0c0-0.4,0-0.8,0-1.2v-4.6h1.8L42.6,112.2z"/>
			<path class="st12" d="M49.3,112.2h-1.8v-0.9l0,0c-0.4,0.6-1.1,1-1.8,1c-0.5,0-1-0.1-1.4-0.5c-0.3-0.4-0.5-0.8-0.5-1.3
				c0-1.2,0.7-1.8,2.1-2l1.6-0.2c0-0.7-0.4-1-1.1-1c-0.7,0-1.4,0.2-2,0.6v-1.4c0.3-0.2,0.7-0.3,1.1-0.4c0.4-0.1,0.8-0.1,1.2-0.2
				c1.2-0.2,2.4,0.7,2.6,1.9c0,0.2,0,0.4,0,0.6L49.3,112.2z M47.6,109.8v-0.4l-1.1,0.1c-0.6,0.1-0.9,0.3-0.9,0.8
				c0,0.2,0.1,0.4,0.2,0.5c0.2,0.1,0.4,0.2,0.6,0.2c0.3,0,0.6-0.1,0.8-0.4C47.5,110.4,47.6,110.1,47.6,109.8z"/>
			<path class="st12" d="M54.3,112.1c-0.4,0.2-0.8,0.2-1.2,0.2c-1.3,0-2-0.7-2-2v-2.8h-1v-1.4h1v-1.3l1.8-0.5v1.8h1.3v1.4H53v2.4
				c0,0.6,0.3,0.9,0.8,0.9c0.2,0,0.4-0.1,0.6-0.2L54.3,112.1z"/>
			<path class="st12" d="M56.4,105.3c-0.3,0-0.6-0.1-0.8-0.3c-0.2-0.2-0.3-0.4-0.3-0.7c0-0.3,0.1-0.5,0.3-0.7c0.4-0.4,1.1-0.4,1.5,0
				c0.2,0.2,0.3,0.4,0.3,0.7c0,0.3-0.1,0.5-0.3,0.7C56.9,105.2,56.7,105.3,56.4,105.3z M57.3,112.2h-1.9v-6h1.8L57.3,112.2z"/>
			<path class="st12" d="M64.6,106.2l-2.2,6h-2.1l-2.1-6h2l1,3.7c0.1,0.3,0.2,0.7,0.2,1.1l0,0c0-0.3,0.1-0.7,0.2-1l1.1-3.7
				L64.6,106.2z"/>
			<path class="st12" d="M70.6,109.7h-3.9c0.1,0.9,0.6,1.3,1.6,1.3c0.6,0,1.2-0.1,1.7-0.5v1.3c-0.7,0.3-1.4,0.5-2.2,0.4
				c-0.8,0.1-1.7-0.2-2.3-0.8c-0.6-0.6-0.8-1.4-0.8-2.3c0-0.9,0.3-1.7,0.9-2.4c0.6-0.6,1.3-0.9,2.1-0.9c0.7,0,1.5,0.2,2,0.8
				c0.5,0.6,0.8,1.3,0.7,2.1L70.6,109.7z M68.9,108.6c0-0.9-0.3-1.3-1-1.3c-0.3,0-0.6,0.1-0.8,0.4c-0.2,0.3-0.4,0.6-0.4,0.9H68.9z"
				/>
			<path class="st12" d="M49.2,126.6h-2.1l-0.6-1.9h-3l-0.6,1.9h-2l3.1-8.4h2.2L49.2,126.6z M46.1,123.3l-0.9-2.8
				c-0.1-0.2-0.1-0.5-0.1-0.8l0,0c0,0.2-0.1,0.5-0.2,0.7l-0.9,2.8H46.1z"/>
			<path class="st12" d="M51.9,125.9L51.9,125.9v3.5H50v-8.8h1.9v0.9l0,0c0.7-1.1,2.2-1.4,3.3-0.6c0.2,0.1,0.3,0.2,0.5,0.4
				c0.5,0.6,0.7,1.4,0.6,2.2c0,0.9-0.2,1.7-0.8,2.4c-0.5,0.6-1.2,0.9-2,0.9C52.9,126.8,52.3,126.4,51.9,125.9z M51.9,123.5v0.5
				c0,0.4,0.1,0.7,0.3,1c0.2,0.3,0.5,0.4,0.9,0.4c0.4,0,0.8-0.2,1-0.5c0.3-0.4,0.4-0.9,0.3-1.4c0-1-0.4-1.6-1.2-1.6
				c-0.4,0-0.7,0.1-0.9,0.4C52,122.6,51.9,123,51.9,123.5z"/>
			<path class="st12" d="M59.4,125.9L59.4,125.9v3.5h-1.9v-8.8h1.8v0.9l0,0c0.7-1.1,2.2-1.4,3.3-0.7c0.2,0.1,0.3,0.2,0.5,0.4
				c0.5,0.6,0.7,1.4,0.6,2.2c0,0.9-0.2,1.7-0.7,2.4c-0.5,0.6-1.2,0.9-2,0.9C60.3,126.8,59.7,126.4,59.4,125.9z M59.3,123.5v0.5
				c0,0.4,0.1,0.7,0.3,1c0.2,0.3,0.5,0.4,0.9,0.4c0.4,0,0.8-0.2,1-0.5c0.3-0.4,0.4-0.9,0.3-1.4c0-1-0.4-1.6-1.2-1.6
				c-0.4,0-0.7,0.1-0.9,0.4C59.4,122.6,59.3,123,59.3,123.5z"/>
		</g>
		<g>
			<path class="st1" d="M406,33.8h-1.9v-5c0-0.5,0-1.1,0.1-1.8l0,0c-0.1,0.4-0.2,0.7-0.3,1.1l-2,5.7h-1.5l-2-5.7
				c0-0.1-0.1-0.5-0.3-1.2h0c0,0.8,0.1,1.5,0.1,2.2v4.6h-1.7v-8.4h2.8l1.7,5c0.1,0.4,0.2,0.8,0.3,1.2l0,0c0.1-0.5,0.2-0.9,0.3-1.2
				l1.7-5h2.7V33.8z"/>
			<path class="st1" d="M408.6,26.8c-0.3,0-0.6-0.1-0.8-0.3c-0.2-0.2-0.3-0.4-0.3-0.7c0-0.3,0.1-0.5,0.3-0.7
				c0.2-0.2,0.5-0.3,0.8-0.3c0.3,0,0.6,0.1,0.8,0.3c0.2,0.2,0.3,0.4,0.3,0.7c0,0.3-0.1,0.5-0.3,0.7
				C409.2,26.7,408.9,26.8,408.6,26.8z M409.5,33.8h-1.9v-6h1.9V33.8z"/>
			<path class="st1" d="M415.6,33.5c-0.6,0.3-1.2,0.4-1.8,0.4c-0.8,0-1.6-0.3-2.2-0.8c-0.6-0.6-0.9-1.4-0.9-2.2
				c0-0.9,0.3-1.8,0.9-2.4c0.7-0.6,1.5-0.9,2.5-0.9c0.5,0,1.1,0.1,1.5,0.3v1.6c-0.4-0.3-0.8-0.4-1.3-0.4c-0.5,0-0.9,0.1-1.3,0.5
				c-0.3,0.3-0.5,0.8-0.5,1.3c0,0.4,0.1,0.9,0.4,1.2c0.3,0.3,0.8,0.5,1.2,0.5c0.5,0,1-0.2,1.4-0.4L415.6,33.5z"/>
			<path class="st1" d="M420.8,29.4c-0.2-0.1-0.5-0.2-0.8-0.2c-0.4,0-0.7,0.2-0.9,0.5c-0.2,0.3-0.4,0.8-0.3,1.2v2.9h-1.9v-6h1.9v1.1
				l0,0c0.2-0.7,0.8-1.2,1.6-1.2c0.2,0,0.3,0,0.5,0.1L420.8,29.4z"/>
			<path class="st1" d="M424.6,33.9c-0.9,0-1.7-0.3-2.4-0.8c-0.6-0.6-0.9-1.4-0.9-2.3c0-0.9,0.3-1.7,0.9-2.3
				c0.7-0.6,1.5-0.9,2.4-0.8c0.9,0,1.7,0.3,2.4,0.8c0.6,0.6,0.9,1.4,0.9,2.2c0,0.9-0.3,1.7-0.9,2.3
				C426.4,33.6,425.5,33.9,424.6,33.9z M424.7,29c-0.4,0-0.8,0.2-1,0.5c-0.3,0.4-0.4,0.8-0.4,1.3c0,1.1,0.5,1.7,1.4,1.7
				s1.3-0.6,1.3-1.8S425.6,29,424.7,29L424.7,29z"/>
			<path class="st1" d="M428.8,33.6v-1.5c0.3,0.2,0.6,0.3,0.9,0.4c0.3,0.1,0.6,0.1,0.9,0.1c0.3,0,0.5,0,0.8-0.1
				c0.2-0.1,0.3-0.2,0.3-0.4c0-0.1,0-0.2-0.1-0.3c-0.1-0.1-0.2-0.2-0.3-0.2c-0.1-0.1-0.3-0.1-0.4-0.2c-0.2,0-0.3-0.1-0.5-0.2
				c-0.2-0.1-0.4-0.2-0.6-0.3c-0.2-0.1-0.3-0.2-0.5-0.4c-0.1-0.1-0.2-0.3-0.3-0.5c-0.1-0.2-0.1-0.4-0.1-0.6c0-0.3,0.1-0.6,0.2-0.9
				c0.1-0.2,0.3-0.4,0.6-0.6c0.3-0.2,0.5-0.3,0.8-0.3c0.3-0.1,0.7-0.1,1-0.1c0.3,0,0.5,0,0.8,0.1c0.3,0,0.5,0.1,0.8,0.2v1.4
				c-0.2-0.1-0.5-0.2-0.8-0.3c-0.3-0.1-0.5-0.1-0.8-0.1c-0.1,0-0.2,0-0.3,0c-0.1,0-0.2,0-0.3,0.1c-0.1,0-0.1,0.1-0.2,0.1
				c0,0.1-0.1,0.1-0.1,0.2c0,0.1,0,0.2,0.1,0.3c0.1,0.1,0.2,0.2,0.3,0.2l0.4,0.1l0.4,0.1c0.2,0.1,0.5,0.2,0.7,0.3
				c0.2,0.1,0.4,0.2,0.5,0.4c0.1,0.1,0.3,0.3,0.3,0.5c0.1,0.2,0.1,0.4,0.1,0.6c0,0.3-0.1,0.6-0.2,0.9c-0.2,0.3-0.4,0.5-0.6,0.6
				c-0.3,0.2-0.6,0.3-0.9,0.3c-0.3,0.1-0.7,0.1-1,0.1C430,33.9,429.4,33.8,428.8,33.6z"/>
			<path class="st1" d="M437.3,33.9c-0.9,0-1.7-0.3-2.4-0.8c-0.6-0.6-0.9-1.4-0.9-2.3c-0.1-0.9,0.3-1.7,0.9-2.3
				c0.7-0.6,1.5-0.9,2.4-0.8c0.9,0,1.7,0.3,2.3,0.8c0.6,0.6,0.9,1.4,0.9,2.2c0,0.9-0.3,1.7-0.9,2.4
				C439.1,33.6,438.2,33.9,437.3,33.9z M437.4,29c-0.4,0-0.8,0.2-1,0.5c-0.3,0.4-0.4,0.8-0.4,1.3c0,1.1,0.5,1.7,1.4,1.7
				s1.3-0.6,1.3-1.8S438.3,29,437.4,29L437.4,29z"/>
			<path class="st1" d="M445.7,26.3c-0.2-0.1-0.5-0.1-0.7-0.1c-0.6,0-0.9,0.3-0.9,1v0.6h1.4v1.4h-1.4v4.6h-1.8v-4.7h-1v-1.4h1V27
				c0-0.6,0.2-1.2,0.7-1.6c0.5-0.4,1.2-0.7,1.8-0.6c0.3,0,0.6,0,0.9,0.1L445.7,26.3z"/>
			<path class="st1" d="M450.2,33.7c-0.4,0.2-0.8,0.2-1.2,0.2c-1,0.1-1.9-0.5-2-1.5c0-0.2,0-0.3,0-0.5v-2.8h-1v-1.4h1v-1.3l1.9-0.5
				v1.8h1.4v1.4h-1.4v2.4c0,0.6,0.3,0.9,0.7,0.9c0.2,0,0.4-0.1,0.6-0.2L450.2,33.7z"/>
			<path class="st1" d="M402.7,41.2c-0.3,0-0.6-0.1-0.8-0.3c-0.2-0.2-0.3-0.4-0.3-0.7c0-0.3,0.1-0.5,0.3-0.7
				c0.2-0.2,0.5-0.3,0.8-0.3c0.3,0,0.6,0.1,0.8,0.3c0.2,0.2,0.3,0.4,0.3,0.7c0,0.3-0.1,0.5-0.3,0.7
				C403.2,41.1,402.9,41.2,402.7,41.2z M403.6,48.2h-1.9v-6h1.9V48.2z"/>
			<path class="st1" d="M411,48.2h-1.9v-0.8l0,0c-0.4,0.6-1.1,1-1.9,1c-0.7,0-1.4-0.3-1.8-0.8c-0.5-0.6-0.7-1.4-0.7-2.2
				c0-0.9,0.2-1.7,0.8-2.4c0.5-0.6,1.2-0.9,2-0.9c0.7-0.1,1.3,0.3,1.6,0.8l0,0v-3.6h1.8V48.2z M409.2,45.2v-0.5c0-0.4-0.1-0.7-0.3-1
				c-0.2-0.3-0.5-0.4-0.9-0.4c-0.4,0-0.8,0.2-1,0.5c-0.3,0.4-0.4,0.9-0.4,1.3c0,0.4,0.1,0.9,0.3,1.2c0.4,0.5,1.2,0.6,1.7,0.2
				c0.1,0,0.1-0.1,0.2-0.2C409.1,46.1,409.2,45.7,409.2,45.2z"/>
			<path class="st1" d="M418,45.7h-4c0.1,0.9,0.6,1.3,1.6,1.3c0.6,0,1.2-0.2,1.7-0.5v1.3c-0.7,0.3-1.4,0.5-2.2,0.4
				c-1.5,0.2-2.9-0.9-3.1-2.5c0-0.2,0-0.4,0-0.5c0-0.9,0.3-1.7,0.9-2.4c0.6-0.6,1.3-0.9,2.2-0.9c0.7,0,1.5,0.2,2,0.8
				c0.5,0.6,0.8,1.3,0.8,2.1V45.7z M416.3,44.5c0-0.9-0.3-1.3-1-1.3c-0.3,0-0.6,0.1-0.8,0.4c-0.2,0.3-0.4,0.6-0.4,0.9L416.3,44.5z"
				/>
			<path class="st1" d="M424.9,48.2h-1.8v-3.3c0-0.9-0.3-1.4-1-1.4c-0.3,0-0.6,0.1-0.8,0.4c-0.2,0.3-0.3,0.6-0.3,0.9v3.4h-1.9v-6
				h1.9v0.9l0,0c0.4-0.7,1.1-1.1,1.9-1.1c1.3,0,2,0.8,2,2.5L424.9,48.2z"/>
			<path class="st1" d="M430,48.1c-0.4,0.2-0.8,0.2-1.2,0.2c-1,0.1-1.9-0.5-2-1.5c0-0.2,0-0.3,0-0.5v-2.8h-1v-1.4h1v-1.3l1.9-0.5
				v1.8h1.4v1.4h-1.4V46c0,0.6,0.3,0.9,0.7,0.9c0.2,0,0.4-0.1,0.6-0.2L430,48.1z"/>
			<path class="st1" d="M432,41.2c-0.3,0-0.6-0.1-0.8-0.3c-0.2-0.2-0.3-0.4-0.3-0.7c0-0.3,0.1-0.5,0.3-0.7c0.4-0.4,1.1-0.4,1.5,0
				c0.2,0.2,0.3,0.4,0.3,0.7c0,0.3-0.1,0.5-0.3,0.7C432.6,41.1,432.3,41.2,432,41.2z M432.9,48.2h-1.9v-6h1.9V48.2z"/>
			<path class="st1" d="M438,48.1c-0.4,0.2-0.8,0.2-1.2,0.2c-1,0.1-1.9-0.5-2-1.5c0-0.2,0-0.3,0-0.5v-2.8h-1v-1.4h1v-1.3l1.9-0.5
				v1.8h1.4v1.4h-1.4V46c0,0.6,0.3,0.9,0.7,0.9c0.2,0,0.4-0.1,0.6-0.2L438,48.1z"/>
			<path class="st1" d="M445.1,42.2l-2.4,6.5c-0.6,1.5-1.5,2.4-2.6,2.4c-0.4,0-0.8,0-1.1-0.2v-1.5c0.2,0.1,0.5,0.2,0.8,0.2
				c0.4,0,0.9-0.2,1-0.7l0.3-0.8l-2.4-6h2l1.1,3.7c0.1,0.3,0.1,0.5,0.2,0.8l0,0c0-0.3,0.1-0.5,0.2-0.8l1.1-3.7L445.1,42.2z"/>
			<path class="st1" d="M400.7,61.9L400.7,61.9v3.5h-1.9v-8.8h1.9v0.9l0,0c0.7-1.1,2.2-1.4,3.3-0.6c0.2,0.1,0.3,0.2,0.5,0.4
				c0.5,0.6,0.7,1.4,0.6,2.2c0,0.9-0.2,1.7-0.7,2.4c-0.5,0.6-1.2,0.9-2,0.9C401.7,62.7,401.1,62.4,400.7,61.9z M400.7,59.4v0.5
				c0,0.4,0.1,0.7,0.3,1c0.2,0.3,0.5,0.4,0.9,0.4c0.4,0,0.8-0.2,1-0.5c0.3-0.4,0.4-0.9,0.4-1.4c0-1.1-0.4-1.6-1.2-1.6
				c-0.4,0-0.7,0.1-0.9,0.4C400.8,58.6,400.7,59,400.7,59.4z"/>
			<path class="st1" d="M408.2,62.6h-1.9v-8.9h1.9V62.6z"/>
			<path class="st1" d="M414.8,62.6H413v-0.9l0,0c-0.4,0.6-1.1,1-1.8,1c-0.5,0-1-0.1-1.4-0.5c-0.3-0.4-0.5-0.8-0.5-1.3
				c0-1.2,0.7-1.8,2.1-2l1.6-0.2c0-0.7-0.4-1-1.1-1c-0.7,0-1.4,0.2-2,0.6v-1.4c0.3-0.2,0.7-0.3,1.1-0.3c0.4-0.1,0.8-0.1,1.2-0.2
				c1.2-0.1,2.4,0.7,2.5,2c0,0.2,0,0.4,0,0.6V62.6z M413,60.1v-0.4l-1.1,0.1c-0.6,0.1-0.9,0.3-0.9,0.8c0,0.2,0.1,0.4,0.2,0.5
				c0.2,0.1,0.4,0.2,0.6,0.2c0.3,0,0.6-0.1,0.9-0.4C412.9,60.8,413,60.5,413,60.1z"/>
			<path class="st1" d="M419.8,62.5c-0.4,0.2-0.8,0.2-1.2,0.2c-1.3,0-2-0.7-2-2v-2.8h-1v-1.4h1v-1.3l1.8-0.5v1.8h1.4v1.4h-1.4v2.4
				c0,0.6,0.3,0.9,0.8,0.9c0.2,0,0.4-0.1,0.6-0.2V62.5z"/>
			<path class="st1" d="M424.9,55.1c-0.2-0.1-0.4-0.1-0.7-0.1c-0.6,0-0.9,0.3-0.9,1v0.6h1.4V58h-1.4v4.6h-1.8v-4.7h-1v-1.4h1v-0.8
				c0-0.6,0.2-1.2,0.7-1.7c0.5-0.4,1.1-0.7,1.8-0.6c0.3,0,0.6,0,0.9,0.1V55.1z"/>
			<path class="st1" d="M428.5,62.7c-0.9,0-1.7-0.3-2.4-0.8c-0.6-0.6-0.9-1.4-0.9-2.3c0-0.9,0.3-1.7,0.9-2.3
				c0.7-0.6,1.5-0.9,2.4-0.8c0.9,0,1.7,0.3,2.3,0.8c0.6,0.6,0.9,1.4,0.9,2.2c0.1,0.9-0.3,1.7-0.9,2.4
				C430.2,62.4,429.3,62.7,428.5,62.7z M428.5,57.8c-0.4,0-0.8,0.2-1,0.5c-0.3,0.4-0.4,0.8-0.4,1.3c0,1.2,0.5,1.7,1.4,1.7
				s1.3-0.6,1.3-1.8S429.4,57.8,428.5,57.8L428.5,57.8z"/>
			<path class="st1" d="M436.8,58.2c-0.2-0.1-0.5-0.2-0.8-0.2c-0.4,0-0.7,0.2-1,0.5c-0.2,0.4-0.4,0.8-0.3,1.2v2.9h-1.9v-6h1.9v1.1
				l0,0c0.2-0.7,0.8-1.2,1.6-1.2c0.2,0,0.3,0,0.5,0.1L436.8,58.2z"/>
			<path class="st1" d="M447.2,62.6h-1.9v-3.4c0-0.9-0.3-1.3-1-1.3c-0.3,0-0.6,0.1-0.8,0.4c-0.2,0.3-0.3,0.6-0.3,1v3.4h-1.9v-3.5
				c0-0.8-0.3-1.3-1-1.3c-0.3,0-0.6,0.1-0.8,0.4c-0.2,0.3-0.3,0.6-0.3,1v3.3h-1.9v-6h1.9v0.9l0,0c0.2-0.3,0.5-0.6,0.8-0.8
				c0.3-0.2,0.7-0.3,1.1-0.3c0.8-0.1,1.5,0.4,1.7,1.1c0.4-0.7,1.2-1.1,2-1.1c1.3,0,2,0.8,2,2.4L447.2,62.6z"/>
		</g>
		<g>
			<path class="st12" d="M191.9,10.8h-1.1l-0.9-2.4h-3.6l-0.8,2.4h-1.1l3.2-8.4h1L191.9,10.8z M189.6,7.5l-1.3-3.6
				c-0.1-0.2-0.1-0.4-0.1-0.6l0,0c0,0.2-0.1,0.4-0.1,0.6l-1.3,3.6H189.6z"/>
			<path class="st12" d="M197,10.5c-0.5,0.3-1.1,0.4-1.6,0.4c-0.8,0-1.5-0.3-2.1-0.8c-0.5-0.6-0.8-1.4-0.8-2.2
				c0-0.9,0.3-1.7,0.9-2.4c0.6-0.6,1.4-0.9,2.3-0.9c0.5,0,1,0.1,1.4,0.3v1c-0.4-0.3-0.9-0.5-1.4-0.5c-0.6,0-1.1,0.2-1.5,0.7
				c-0.4,0.5-0.6,1.1-0.6,1.7c0,0.6,0.1,1.2,0.5,1.7c0.4,0.4,0.9,0.6,1.5,0.6c0.5,0,1.1-0.2,1.5-0.5V10.5z"/>
			<path class="st12" d="M203.4,13.5h-1V9.7l0,0c-0.4,0.7-1.2,1.2-2,1.2c-0.7,0-1.4-0.3-1.8-0.8c-0.5-0.6-0.7-1.4-0.7-2.2
				c0-0.9,0.2-1.7,0.8-2.4c0.5-0.6,1.2-0.9,2-0.9c0.7,0,1.4,0.3,1.8,1l0,0V4.8h1L203.4,13.5z M202.4,8.1V7.2c0-0.5-0.1-0.9-0.4-1.3
				c-0.7-0.7-1.8-0.7-2.5,0c0,0-0.1,0.1-0.1,0.1c-0.4,0.5-0.5,1.2-0.5,1.8c0,0.6,0.1,1.2,0.5,1.6c0.3,0.4,0.8,0.6,1.3,0.6
				c0.5,0,1-0.2,1.4-0.6C202.3,9.1,202.5,8.6,202.4,8.1L202.4,8.1z"/>
			<path class="st12" d="M210.1,10.8h-1V9.8l0,0c-0.4,0.7-1.1,1.1-1.9,1.1c-1.4,0-2.1-0.9-2.1-2.6V4.8h1v3.4c0,1.3,0.5,1.9,1.5,1.9
				c0.4,0,0.9-0.2,1.1-0.5c0.3-0.4,0.5-0.9,0.5-1.4V4.8h1L210.1,10.8z"/>
			<path class="st12" d="M212.5,3.2c-0.2,0-0.3-0.1-0.4-0.2c-0.1-0.1-0.2-0.3-0.2-0.4c0-0.2,0.1-0.3,0.2-0.5
				c0.1-0.1,0.3-0.2,0.4-0.2c0.2,0,0.3,0.1,0.4,0.2c0.1,0.1,0.2,0.3,0.2,0.5c0,0.2-0.1,0.3-0.2,0.4C212.8,3.2,212.6,3.2,212.5,3.2z
				 M212.9,10.8h-1v-6h1V10.8z"/>
			<path class="st12" d="M217.9,5.7c-0.2-0.1-0.5-0.2-0.7-0.2c-0.4,0-0.8,0.2-1,0.6c-0.3,0.5-0.4,1-0.4,1.6v3.1h-1v-6h1V6l0,0
				c0.1-0.4,0.3-0.7,0.6-1c0.3-0.2,0.6-0.3,0.9-0.3c0.2,0,0.4,0,0.6,0.1L217.9,5.7z"/>
			<path class="st12" d="M223.8,8h-4.2c0,0.6,0.2,1.1,0.5,1.6c0.4,0.4,0.9,0.6,1.4,0.5c0.7,0,1.3-0.2,1.9-0.7v0.9
				c-0.6,0.4-1.4,0.6-2.1,0.6c-0.8,0-1.5-0.3-2-0.8c-0.5-0.7-0.8-1.5-0.7-2.3c0-0.8,0.2-1.7,0.8-2.3c0.5-0.6,1.2-0.9,2-0.9
				c0.7,0,1.4,0.2,1.8,0.8c0.5,0.6,0.7,1.4,0.6,2.1L223.8,8z M222.8,7.2c0-0.5-0.1-0.9-0.4-1.3c-0.3-0.3-0.7-0.5-1.1-0.5
				c-0.4,0-0.9,0.2-1.1,0.5c-0.3,0.3-0.5,0.8-0.6,1.3H222.8z"/>
			<path class="st12" d="M231.3,10.7c-0.3,0.1-0.6,0.2-0.9,0.2c-1,0-1.6-0.6-1.6-1.8V5.6h-1V4.8h1V3.3l1-0.3v1.8h1.5v0.8h-1.5V9
				c0,0.3,0,0.6,0.2,0.9c0.2,0.2,0.4,0.3,0.7,0.3c0.2,0,0.4-0.1,0.6-0.2L231.3,10.7z"/>
			<path class="st12" d="M235,10.9c-0.8,0-1.6-0.3-2.1-0.8c-0.6-0.6-0.8-1.4-0.8-2.2c0-0.9,0.3-1.7,0.8-2.4c0.6-0.6,1.4-0.9,2.2-0.8
				c0.8,0,1.6,0.3,2.1,0.8c0.5,0.6,0.8,1.5,0.8,2.3c0,0.8-0.2,1.7-0.8,2.3C236.6,10.6,235.8,10.9,235,10.9z M235,5.4
				c-0.6,0-1.1,0.2-1.5,0.6c-0.4,0.5-0.6,1.1-0.5,1.7c0,0.6,0.2,1.2,0.5,1.7c0.4,0.4,0.9,0.6,1.5,0.6c0.5,0,1.1-0.2,1.4-0.6
				c0.4-0.5,0.5-1.1,0.5-1.7c0-0.6-0.1-1.2-0.5-1.7C236.1,5.6,235.5,5.4,235,5.4z"/>
			<path class="st12" d="M244.4,10.8H243l-2.6-2.9l0,0v2.9h-1V1.9h1v5.6l0,0l2.5-2.8h1.3l-2.8,2.9L244.4,10.8z"/>
			<path class="st12" d="M249.9,8h-4.2c0,0.6,0.2,1.1,0.5,1.6c0.4,0.4,0.9,0.6,1.4,0.5c0.7,0,1.3-0.2,1.9-0.7v0.9
				c-0.6,0.4-1.4,0.6-2.1,0.6c-0.8,0-1.5-0.3-2-0.8c-0.5-0.7-0.8-1.5-0.7-2.3c0-0.8,0.2-1.7,0.8-2.3c0.5-0.6,1.2-0.9,2-0.9
				c0.7,0,1.4,0.2,1.8,0.8c0.5,0.6,0.7,1.4,0.6,2.1L249.9,8z M248.9,7.2c0-0.5-0.1-0.9-0.4-1.3c-0.3-0.3-0.7-0.5-1.1-0.5
				c-0.4,0-0.9,0.2-1.1,0.5c-0.3,0.3-0.5,0.8-0.6,1.3H248.9z"/>
			<path class="st12" d="M256.4,10.8h-1V7.3c0-1.3-0.5-1.9-1.4-1.9c-0.5,0-0.9,0.2-1.2,0.5c-0.3,0.4-0.5,0.9-0.5,1.4v3.4h-1v-6h1v1
				l0,0c0.4-0.7,1.2-1.2,2-1.1c0.6,0,1.1,0.2,1.5,0.6c0.4,0.5,0.6,1.2,0.5,1.8L256.4,10.8z"/>
		</g>
		<g>
			<path class="st12" d="M211.1,38.5H210l-0.9-2.3h-3.6l-0.8,2.3h-1.1l3.2-8.4h1L211.1,38.5z M208.8,35.3l-1.3-3.6
				c-0.1-0.2-0.1-0.4-0.1-0.6l0,0c0,0.2-0.1,0.4-0.1,0.6l-1.3,3.6H208.8z"/>
			<path class="st12" d="M216.2,38.2c-0.5,0.3-1.1,0.4-1.6,0.4c-0.8,0-1.5-0.3-2.1-0.8c-0.5-0.6-0.8-1.4-0.8-2.2
				c0-0.9,0.3-1.7,0.9-2.4c0.6-0.6,1.4-0.9,2.3-0.9c0.5,0,1,0.1,1.4,0.3v1c-0.4-0.3-0.9-0.5-1.4-0.5c-0.6,0-1.1,0.2-1.5,0.7
				c-0.4,0.5-0.6,1.1-0.6,1.7c0,0.6,0.2,1.2,0.6,1.7c0.4,0.4,0.9,0.6,1.5,0.6c0.5,0,1.1-0.2,1.5-0.5L216.2,38.2z"/>
			<path class="st12" d="M221.6,38.2c-0.5,0.3-1.1,0.4-1.6,0.4c-0.8,0-1.5-0.3-2.1-0.8c-0.5-0.6-0.8-1.4-0.8-2.2
				c0-0.9,0.3-1.7,0.9-2.4c0.6-0.6,1.4-0.9,2.3-0.9c0.5,0,1,0.1,1.4,0.3v1c-0.4-0.3-0.9-0.5-1.4-0.5c-0.6,0-1.1,0.2-1.5,0.7
				c-0.4,0.5-0.6,1.1-0.6,1.7c0,0.6,0.2,1.2,0.6,1.7c0.4,0.4,0.9,0.6,1.5,0.6c0.5,0,1.1-0.2,1.5-0.5L221.6,38.2z"/>
			<path class="st12" d="M227.7,35.7h-4.2c0,0.6,0.2,1.1,0.5,1.5c0.4,0.4,0.9,0.6,1.4,0.5c0.7,0,1.3-0.2,1.9-0.7v0.9
				c-0.6,0.4-1.4,0.6-2.1,0.6c-0.8,0-1.5-0.3-2-0.8c-0.5-0.6-0.8-1.5-0.7-2.3c0-0.8,0.3-1.6,0.8-2.3c0.5-0.6,1.2-0.9,2-0.9
				c0.7,0,1.4,0.2,1.8,0.8c0.5,0.6,0.7,1.4,0.6,2.1L227.7,35.7z M226.7,34.9c0-0.5-0.1-0.9-0.4-1.3c-0.3-0.3-0.7-0.5-1.1-0.5
				c-0.4,0-0.9,0.2-1.1,0.5c-0.3,0.3-0.5,0.8-0.6,1.3L226.7,34.9z"/>
			<path class="st12" d="M228.8,38.3v-1c0.5,0.4,1.1,0.6,1.7,0.6c0.8,0,1.3-0.3,1.3-0.8c0-0.1,0-0.3-0.1-0.4
				c-0.1-0.1-0.2-0.2-0.3-0.3c-0.1-0.1-0.3-0.2-0.4-0.2l-0.5-0.2c-0.2-0.1-0.5-0.2-0.7-0.3c-0.2-0.1-0.4-0.2-0.5-0.4
				c-0.1-0.1-0.2-0.3-0.3-0.5c-0.1-0.2-0.1-0.4-0.1-0.6c0-0.3,0.1-0.5,0.2-0.7c0.1-0.2,0.3-0.4,0.5-0.5c0.2-0.1,0.5-0.3,0.7-0.3
				c0.7-0.2,1.5-0.1,2.2,0.2v1c-0.5-0.3-1-0.4-1.5-0.4c-0.2,0-0.3,0-0.5,0.1c-0.1,0-0.3,0.1-0.4,0.2c-0.1,0.1-0.2,0.2-0.2,0.3
				c-0.1,0.1-0.1,0.2-0.1,0.3c0,0.1,0,0.3,0.1,0.4c0.1,0.1,0.2,0.2,0.3,0.3c0.1,0.1,0.3,0.2,0.4,0.2l0.5,0.2
				c0.2,0.1,0.5,0.2,0.7,0.3c0.2,0.1,0.4,0.2,0.5,0.4c0.1,0.1,0.3,0.3,0.3,0.5c0.1,0.2,0.1,0.4,0.1,0.6c0,0.3-0.1,0.5-0.2,0.8
				c-0.1,0.2-0.3,0.4-0.5,0.5c-0.2,0.2-0.5,0.3-0.8,0.3c-0.3,0.1-0.6,0.1-0.9,0.1C229.9,38.7,229.3,38.6,228.8,38.3z"/>
			<path class="st12" d="M233.9,38.3v-1c0.5,0.4,1.1,0.6,1.7,0.6c0.8,0,1.3-0.3,1.3-0.8c0-0.1,0-0.3-0.1-0.4
				c-0.1-0.1-0.2-0.2-0.3-0.3c-0.1-0.1-0.3-0.2-0.4-0.2l-0.5-0.2c-0.2-0.1-0.5-0.2-0.7-0.3c-0.2-0.1-0.4-0.2-0.5-0.4
				c-0.1-0.1-0.2-0.3-0.3-0.5c-0.1-0.2-0.1-0.4-0.1-0.6c0-0.3,0.1-0.5,0.2-0.7c0.1-0.2,0.3-0.4,0.5-0.5c0.2-0.1,0.5-0.3,0.7-0.3
				c0.7-0.2,1.5-0.1,2.2,0.2v1c-0.5-0.3-1-0.4-1.5-0.4c-0.2,0-0.3,0-0.5,0.1c-0.1,0-0.3,0.1-0.4,0.2c-0.1,0.1-0.2,0.2-0.2,0.3
				c-0.1,0.1-0.1,0.2-0.1,0.3c0,0.1,0,0.3,0.1,0.4c0.1,0.1,0.2,0.2,0.3,0.3c0.1,0.1,0.3,0.2,0.4,0.2l0.5,0.2
				c0.2,0.1,0.5,0.2,0.7,0.3c0.2,0.1,0.4,0.2,0.5,0.4c0.1,0.1,0.3,0.3,0.3,0.5c0.1,0.2,0.1,0.4,0.1,0.6c0,0.3-0.1,0.5-0.2,0.8
				c-0.1,0.2-0.3,0.4-0.5,0.5c-0.2,0.2-0.5,0.3-0.8,0.3c-0.3,0.1-0.6,0.1-0.9,0.1C234.9,38.7,234.4,38.6,233.9,38.3z"/>
			<path class="st12" d="M245.4,38.4c-0.3,0.1-0.6,0.2-0.9,0.2c-1.1,0-1.6-0.6-1.6-1.8v-3.5h-1v-0.8h1V31l1-0.3v1.8h1.5v0.8h-1.5
				v3.4c0,0.3,0,0.6,0.2,0.9c0.2,0.2,0.4,0.3,0.7,0.3c0.2,0,0.4-0.1,0.6-0.2L245.4,38.4z"/>
			<path class="st12" d="M249.1,38.6c-0.8,0-1.5-0.3-2.1-0.8c-0.5-0.6-0.8-1.4-0.8-2.2c-0.1-0.9,0.2-1.7,0.8-2.4
				c0.6-0.6,1.4-0.9,2.2-0.8c0.8,0,1.5,0.3,2.1,0.8c1,1.4,1,3.2-0.1,4.6C250.7,38.4,249.9,38.7,249.1,38.6z M249.2,33.2
				c-0.6,0-1.1,0.2-1.5,0.6c-0.4,0.5-0.6,1.1-0.5,1.7c0,0.6,0.2,1.2,0.6,1.7c0.4,0.4,0.9,0.6,1.5,0.6c0.5,0,1.1-0.2,1.4-0.6
				c0.7-1.1,0.7-2.4,0-3.5C250.2,33.4,249.7,33.1,249.2,33.2z"/>
			<path class="st12" d="M258.5,38.5h-1.4l-2.6-2.9l0,0v2.9h-1v-8.9h1v5.6l0,0l2.5-2.8h1.3l-2.8,2.9L258.5,38.5z"/>
			<path class="st12" d="M264,35.7h-4.2c0,0.6,0.2,1.1,0.5,1.5c0.4,0.4,0.9,0.6,1.4,0.5c0.7,0,1.3-0.2,1.9-0.7v0.9
				c-0.6,0.4-1.4,0.6-2.1,0.6c-0.8,0-1.5-0.3-2-0.8c-0.5-0.6-0.8-1.5-0.7-2.3c0-0.8,0.2-1.6,0.8-2.3c0.5-0.6,1.2-0.9,2-0.9
				c0.7,0,1.4,0.2,1.8,0.8c0.5,0.6,0.7,1.4,0.6,2.1L264,35.7z M263,34.9c0-0.5-0.1-0.9-0.4-1.3c-0.3-0.3-0.7-0.5-1.1-0.5
				c-0.4,0-0.9,0.2-1.2,0.5c-0.3,0.3-0.5,0.8-0.6,1.3L263,34.9z"/>
			<path class="st12" d="M270.5,38.5h-1v-3.4c0-1.3-0.5-1.9-1.4-1.9c-0.5,0-0.9,0.2-1.2,0.5c-0.3,0.4-0.5,0.9-0.5,1.4v3.4h-1v-6h1v1
				l0,0c0.4-0.7,1.2-1.2,2-1.1c0.6-0.1,1.2,0.2,1.6,0.6c0.4,0.5,0.6,1.2,0.5,1.8L270.5,38.5z"/>
		</g>
		<g>
			<path class="st12" d="M191.7,135.7h-1v-3.8h-4.3v3.8h-1v-8.4h1v3.7h4.3v-3.7h1V135.7z"/>
			<path class="st12" d="M198.8,128.2h-2.4v7.5h-1v-7.5h-2.4v-0.9h5.8L198.8,128.2z"/>
			<path class="st12" d="M205.4,128.2h-2.4v7.5h-1v-7.5h-2.4v-0.9h5.8L205.4,128.2z"/>
			<path class="st12" d="M207.5,132.5v3.2h-1v-8.4h2.3c0.8-0.1,1.6,0.2,2.2,0.7c0.5,0.5,0.8,1.2,0.8,1.9c0,0.8-0.3,1.5-0.8,2
				c-0.6,0.5-1.4,0.8-2.2,0.8L207.5,132.5z M207.5,128.2v3.4h1c0.6,0,1.1-0.1,1.6-0.5c0.4-0.3,0.6-0.8,0.5-1.3c0-1.1-0.6-1.7-2-1.7
				H207.5z"/>
			<path class="st12" d="M219.6,130.7c-0.2-0.1-0.5-0.2-0.7-0.2c-0.4,0-0.8,0.2-1,0.6c-0.3,0.5-0.4,1-0.4,1.6v3.1h-1v-6h1v1.3l0,0
				c0.1-0.4,0.3-0.7,0.6-1c0.3-0.2,0.6-0.4,0.9-0.4c0.2,0,0.4,0,0.6,0.1L219.6,130.7z"/>
			<path class="st12" d="M225.4,133h-4.2c0,0.6,0.2,1.1,0.5,1.5c0.4,0.4,0.9,0.6,1.4,0.6c0.7,0,1.3-0.2,1.9-0.7v0.9
				c-0.6,0.4-1.3,0.6-2.1,0.6c-0.8,0-1.5-0.3-2-0.8c-1-1.4-1-3.2,0.1-4.6c0.5-0.6,1.2-0.9,2-0.9c0.7,0,1.4,0.2,1.8,0.8
				c0.5,0.6,0.7,1.4,0.6,2.1L225.4,133z M224.4,132.2c0-0.5-0.1-0.9-0.4-1.3c-0.3-0.3-0.7-0.5-1.1-0.5c-0.4,0-0.9,0.2-1.2,0.5
				c-0.3,0.4-0.5,0.8-0.6,1.3L224.4,132.2z"/>
			<path class="st12" d="M226.5,135.5v-1c0.5,0.4,1.1,0.6,1.7,0.6c0.8,0,1.3-0.3,1.3-0.9c0-0.1,0-0.3-0.1-0.4
				c-0.1-0.1-0.2-0.2-0.3-0.3c-0.1-0.1-0.3-0.2-0.4-0.2l-0.5-0.2l-0.7-0.3c-0.2-0.1-0.4-0.2-0.5-0.4c-0.1-0.1-0.2-0.3-0.3-0.5
				c-0.1-0.2-0.1-0.4-0.1-0.6c0-0.3,0.1-0.5,0.2-0.8c0.1-0.2,0.3-0.4,0.5-0.5c0.2-0.2,0.5-0.3,0.7-0.3c0.3-0.1,0.6-0.1,0.9-0.1
				c0.5,0,1,0.1,1.4,0.3v1c-0.5-0.3-1-0.4-1.5-0.4c-0.2,0-0.3,0-0.5,0.1c-0.1,0-0.3,0.1-0.4,0.2c-0.1,0.1-0.2,0.2-0.2,0.3
				c-0.1,0.1-0.1,0.2-0.1,0.3c0,0.1,0,0.3,0.1,0.4c0.1,0.1,0.1,0.2,0.3,0.3c0.1,0.1,0.3,0.2,0.4,0.2l0.5,0.2
				c0.2,0.1,0.5,0.2,0.7,0.3c0.2,0.1,0.4,0.2,0.5,0.4c0.1,0.1,0.3,0.3,0.4,0.5c0.1,0.2,0.1,0.4,0.1,0.6c0,0.3-0.1,0.5-0.2,0.8
				c-0.1,0.2-0.3,0.4-0.5,0.6c-0.2,0.1-0.5,0.3-0.8,0.3c-0.3,0.1-0.6,0.1-0.9,0.1C227.6,135.9,227,135.8,226.5,135.5z"/>
			<path class="st12" d="M232.9,134.9L232.9,134.9v3.6h-1v-8.8h1v1.1l0,0c0.4-0.8,1.2-1.2,2.1-1.2c0.7,0,1.4,0.3,1.8,0.8
				c0.5,0.6,0.7,1.4,0.6,2.2c0,0.9-0.2,1.7-0.7,2.4c-0.5,0.6-1.2,0.9-2,0.9C233.9,135.9,233.2,135.5,232.9,134.9z M232.9,132.4v0.8
				c0,0.5,0.2,0.9,0.5,1.3c0.3,0.3,0.8,0.5,1.2,0.5c0.5,0,1.1-0.2,1.4-0.7c0.4-0.5,0.5-1.2,0.5-1.9c0-0.6-0.1-1.1-0.5-1.6
				c-0.3-0.4-0.8-0.6-1.3-0.6c-0.5,0-1,0.2-1.3,0.6C233,131.4,232.8,131.9,232.9,132.4L232.9,132.4z"/>
			<path class="st12" d="M241.4,135.9c-0.8,0-1.6-0.3-2.1-0.8c-0.5-0.6-0.8-1.4-0.8-2.2c-0.1-0.9,0.2-1.7,0.8-2.4
				c0.6-0.6,1.4-0.9,2.2-0.9c0.8,0,1.5,0.3,2.1,0.8c0.5,0.6,0.8,1.5,0.8,2.3c0,0.8-0.3,1.7-0.8,2.3
				C243,135.6,242.2,135.9,241.4,135.9z M241.5,130.4c-0.6,0-1.1,0.2-1.5,0.6c-0.4,0.5-0.6,1.1-0.5,1.7c0,0.6,0.2,1.2,0.6,1.7
				c0.4,0.4,0.9,0.6,1.5,0.6c0.5,0,1.1-0.2,1.4-0.6c0.4-0.5,0.5-1.1,0.5-1.7c0-0.6-0.1-1.2-0.5-1.7
				C242.5,130.6,242,130.4,241.5,130.4z"/>
			<path class="st12" d="M250.9,135.7h-1v-3.4c0-1.3-0.5-1.9-1.4-1.9c-0.5,0-0.9,0.2-1.2,0.6c-0.3,0.4-0.5,0.9-0.5,1.4v3.4h-1v-6h1
				v1l0,0c0.4-0.7,1.2-1.2,2-1.1c0.6,0,1.1,0.2,1.5,0.6c0.4,0.5,0.6,1.2,0.5,1.8L250.9,135.7z"/>
			<path class="st12" d="M252.3,135.5v-1c0.5,0.4,1.1,0.6,1.7,0.6c0.8,0,1.3-0.3,1.3-0.9c0-0.1,0-0.3-0.1-0.4
				c-0.1-0.1-0.2-0.2-0.3-0.3c-0.1-0.1-0.3-0.2-0.4-0.2l-0.5-0.2l-0.7-0.3c-0.2-0.1-0.4-0.2-0.5-0.4c-0.1-0.1-0.2-0.3-0.3-0.5
				c-0.1-0.2-0.1-0.4-0.1-0.6c0-0.3,0.1-0.5,0.2-0.8c0.1-0.2,0.3-0.4,0.5-0.6c0.2-0.2,0.5-0.3,0.7-0.3c0.3-0.1,0.6-0.1,0.9-0.1
				c0.5,0,1,0.1,1.4,0.3v1c-0.5-0.3-1-0.4-1.5-0.4c-0.2,0-0.3,0-0.5,0.1c-0.1,0-0.3,0.1-0.4,0.2c-0.1,0.1-0.2,0.2-0.2,0.3
				c-0.1,0.1-0.1,0.2-0.1,0.3c0,0.1,0,0.3,0.1,0.4c0.1,0.1,0.1,0.2,0.3,0.3c0.1,0.1,0.3,0.2,0.4,0.2l0.5,0.2
				c0.2,0.1,0.5,0.2,0.7,0.3c0.2,0.1,0.4,0.2,0.5,0.4c0.3,0.3,0.5,0.7,0.5,1.1c0,0.3-0.1,0.5-0.2,0.8c-0.1,0.2-0.3,0.4-0.5,0.6
				c-0.2,0.1-0.5,0.3-0.8,0.3c-0.3,0.1-0.6,0.1-0.9,0.1C253.3,135.9,252.8,135.8,252.3,135.5z"/>
			<path class="st12" d="M262.5,133h-4.2c0,0.6,0.2,1.1,0.5,1.5c0.4,0.4,0.9,0.6,1.4,0.6c0.7,0,1.3-0.2,1.9-0.7v0.9
				c-0.6,0.4-1.4,0.6-2.1,0.6c-0.8,0-1.5-0.3-2-0.8c-1-1.4-1-3.2,0.1-4.6c0.5-0.6,1.2-0.9,2-0.9c0.7,0,1.4,0.2,1.8,0.8
				c0.5,0.6,0.7,1.4,0.6,2.1L262.5,133z M261.5,132.2c0-0.5-0.1-0.9-0.4-1.3c-0.3-0.3-0.7-0.5-1.1-0.5c-0.4,0-0.9,0.2-1.2,0.5
				c-0.3,0.4-0.5,0.8-0.6,1.3L261.5,132.2z"/>
		</g>
		<g>
			<path class="st5" d="M405.3,119h-1.9v-5c0-0.5,0-1.1,0.1-1.8h0c-0.1,0.4-0.1,0.7-0.3,1.1l-2,5.7h-1.5l-2-5.7
				c0-0.2-0.1-0.5-0.3-1.2h0c0,0.8,0.1,1.6,0.1,2.2v4.6h-1.7v-8.4h2.8l1.7,5c0.1,0.4,0.2,0.8,0.3,1.2l0,0c0.1-0.5,0.2-0.9,0.3-1.2
				l1.7-5h2.7L405.3,119z"/>
			<path class="st5" d="M407.9,112c-0.3,0-0.6-0.1-0.8-0.3c-0.2-0.2-0.3-0.4-0.3-0.7c0-0.3,0.1-0.5,0.3-0.7c0.2-0.2,0.5-0.3,0.8-0.3
				c0.3,0,0.6,0.1,0.8,0.3c0.2,0.2,0.3,0.4,0.3,0.7c0,0.3-0.1,0.5-0.3,0.7C408.4,111.9,408.2,112,407.9,112z M408.8,118.9h-1.9v-6
				h1.9V118.9z"/>
			<path class="st5" d="M414.9,118.8c-0.6,0.3-1.2,0.4-1.8,0.4c-0.8,0-1.6-0.3-2.2-0.8c-0.6-0.6-0.9-1.4-0.9-2.2
				c0-0.9,0.3-1.8,0.9-2.4c0.7-0.6,1.6-0.9,2.5-0.9c0.5,0,1.1,0.1,1.5,0.3v1.6c-0.4-0.3-0.8-0.4-1.3-0.4c-0.5,0-0.9,0.1-1.3,0.5
				c-0.6,0.7-0.6,1.8,0,2.5c0.3,0.3,0.8,0.5,1.2,0.5c0.5,0,1-0.2,1.4-0.4L414.9,118.8z"/>
			<path class="st5" d="M420.1,114.7c-0.2-0.1-0.5-0.2-0.8-0.2c-0.4,0-0.7,0.1-1,0.4c-0.2,0.4-0.4,0.8-0.3,1.2v2.9h-1.9v-6h1.8v1.1
				l0,0c0.2-0.7,0.8-1.2,1.6-1.2c0.2,0,0.3,0,0.5,0.1L420.1,114.7z"/>
			<path class="st5" d="M423.9,119.1c-0.9,0-1.7-0.3-2.4-0.8c-1.2-1.3-1.2-3.3,0-4.6c0.7-0.6,1.5-0.9,2.4-0.8
				c0.9-0.1,1.7,0.3,2.3,0.8c0.6,0.6,0.9,1.4,0.9,2.2c0,0.9-0.3,1.7-0.9,2.4C425.6,118.9,424.8,119.2,423.9,119.1z M423.9,114.3
				c-0.4,0-0.8,0.2-1,0.4c-0.3,0.4-0.4,0.8-0.4,1.3c0,1.2,0.5,1.7,1.4,1.7s1.3-0.6,1.3-1.8S424.8,114.3,423.9,114.3L423.9,114.3z"/>
			<path class="st5" d="M428,118.8v-1.5c0.3,0.2,0.6,0.3,0.9,0.4c0.3,0.1,0.6,0.1,0.9,0.1c0.3,0,0.5,0,0.8-0.1
				c0.2-0.1,0.3-0.2,0.3-0.4c0-0.1,0-0.2-0.1-0.3c-0.1-0.1-0.2-0.2-0.3-0.2l-0.4-0.2c-0.2,0-0.3-0.1-0.5-0.2
				c-0.2-0.1-0.4-0.2-0.6-0.3c-0.2-0.1-0.3-0.2-0.5-0.4c-0.1-0.1-0.2-0.3-0.3-0.5c-0.1-0.2-0.1-0.4-0.1-0.6c0-0.3,0.1-0.6,0.2-0.9
				c0.1-0.2,0.3-0.4,0.6-0.6c0.3-0.2,0.5-0.3,0.8-0.3c0.3-0.1,0.7-0.1,1-0.1c0.3,0,0.5,0,0.8,0.1c0.3,0,0.5,0.1,0.8,0.2v1.4
				c-0.2-0.1-0.5-0.2-0.8-0.3c-0.3-0.1-0.5-0.1-0.8-0.1c-0.1,0-0.2,0-0.3,0c-0.1,0-0.2,0.1-0.3,0.1c-0.1,0-0.1,0.1-0.2,0.2
				c0,0.1-0.1,0.1-0.1,0.2c0,0.1,0,0.2,0.1,0.3c0.1,0.1,0.2,0.1,0.3,0.2c0.1,0.1,0.2,0.1,0.4,0.2l0.4,0.1c0.2,0.1,0.5,0.2,0.7,0.3
				c0.2,0.1,0.4,0.2,0.5,0.4c0.1,0.1,0.3,0.3,0.3,0.5c0.1,0.2,0.1,0.4,0.1,0.7c0,0.3-0.1,0.6-0.2,0.9c-0.1,0.3-0.4,0.5-0.6,0.6
				c-0.3,0.2-0.6,0.3-0.9,0.3c-0.3,0.1-0.7,0.1-1,0.1C429.2,119.1,428.6,119,428,118.8z"/>
			<path class="st5" d="M436.6,119.1c-0.9,0-1.7-0.3-2.4-0.8c-1.2-1.3-1.2-3.3,0-4.6c0.7-0.6,1.5-0.9,2.4-0.8c0.9,0,1.7,0.3,2.4,0.8
				c0.6,0.6,0.9,1.4,0.9,2.2c0,0.9-0.3,1.7-0.9,2.4C438.3,118.9,437.5,119.2,436.6,119.1z M436.6,114.3c-0.4,0-0.8,0.2-1,0.4
				c-0.3,0.4-0.4,0.8-0.4,1.3c0,1.2,0.5,1.7,1.4,1.7s1.3-0.6,1.3-1.8S437.5,114.3,436.6,114.3L436.6,114.3z"/>
			<path class="st5" d="M444.9,111.5c-0.2-0.1-0.4-0.1-0.7-0.1c-0.6,0-0.9,0.3-0.9,1v0.6h1.4v1.4h-1.4v4.6h-1.9v-4.6h-1V113h1v-0.8
				c0-0.6,0.2-1.2,0.7-1.7c0.5-0.4,1.2-0.6,1.8-0.6c0.3,0,0.6,0,0.9,0.1L444.9,111.5z"/>
			<path class="st5" d="M449.5,118.9c-0.4,0.2-0.8,0.2-1.2,0.2c-1.3,0-2-0.7-2-2v-2.8h-1V113h1v-1.3l1.9-0.5v1.8h1.3v1.4h-1.3v2.4
				c0,0.6,0.2,0.9,0.7,0.9c0.2,0,0.4-0.1,0.6-0.2L449.5,118.9z"/>
			<path class="st5" d="M401.5,132.8c-0.9,0.5-2,0.7-3,0.7c-1.2,0.1-2.3-0.3-3.2-1.1c-0.8-0.8-1.2-1.9-1.2-3.1
				c0-1.2,0.4-2.4,1.3-3.2c0.9-0.9,2.1-1.3,3.4-1.3c0.8,0,1.6,0.1,2.4,0.4v1.8c-0.7-0.4-1.6-0.6-2.4-0.6c-0.7,0-1.4,0.2-1.9,0.8
				c-1,1.2-1,2.8-0.1,4c0.5,0.5,1.1,0.7,1.8,0.7c0.4,0,0.7-0.1,1.1-0.2v-1.6H398v-1.5h3.6L401.5,132.8z"/>
			<path class="st5" d="M407,129.1c-0.2-0.1-0.5-0.2-0.8-0.2c-0.4,0-0.7,0.1-0.9,0.4c-0.2,0.3-0.4,0.8-0.3,1.2v2.9h-1.9v-6h1.9v1.1
				l0,0c0.2-0.7,0.8-1.2,1.6-1.2c0.2,0,0.3,0,0.5,0.1L407,129.1z"/>
			<path class="st5" d="M412.8,133.4H411v-0.9l0,0c-0.4,0.6-1.1,1-1.8,1c-0.5,0-1-0.1-1.4-0.5c-0.3-0.4-0.5-0.8-0.5-1.3
				c0-1.2,0.7-1.8,2.1-2l1.6-0.2c0-0.7-0.4-1-1.1-1c-0.7,0-1.4,0.2-2,0.6v-1.4c0.3-0.2,0.7-0.3,1.1-0.4c0.4-0.1,0.8-0.1,1.2-0.2
				c1.2-0.2,2.4,0.7,2.6,1.9c0,0.2,0,0.4,0,0.7L412.8,133.4z M411,131v-0.4l-1.1,0.1c-0.6,0.1-0.9,0.4-0.9,0.8
				c0,0.2,0.1,0.4,0.2,0.5c0.2,0.1,0.4,0.2,0.6,0.2c0.3,0,0.6-0.1,0.9-0.4C410.9,131.7,411,131.3,411,131z"/>
			<path class="st5" d="M416.1,132.7L416.1,132.7v3.5h-1.9v-8.8h1.9v0.9l0,0c0.7-1.1,2.2-1.4,3.3-0.6c0.2,0.1,0.3,0.2,0.5,0.4
				c0.5,0.6,0.7,1.4,0.6,2.2c0,0.9-0.2,1.7-0.8,2.4c-0.5,0.6-1.2,0.9-2,0.9C417.1,133.6,416.5,133.2,416.1,132.7z M416.1,130.2v0.5
				c0,0.4,0.1,0.7,0.3,1c0.2,0.3,0.5,0.4,0.9,0.4c0.4,0,0.8-0.2,1-0.5c0.3-0.4,0.4-0.9,0.4-1.4c0-1.1-0.4-1.6-1.2-1.6
				c-0.4,0-0.7,0.1-0.9,0.4C416.2,129.4,416,129.8,416.1,130.2L416.1,130.2z"/>
			<path class="st5" d="M427.5,133.4h-1.9V130c0-0.9-0.3-1.3-1-1.3c-0.3,0-0.6,0.1-0.8,0.4c-0.2,0.3-0.3,0.6-0.3,0.9v3.4h-1.9v-8.9
				h1.9v3.8l0,0c0.4-0.6,1.1-1,1.8-1c1.3,0,2,0.8,2,2.5L427.5,133.4z"/>
			<path class="st5" d="M439.8,133.4h-2.1l-0.6-1.9h-3l-0.6,1.9h-2l3.1-8.4h2.3L439.8,133.4z M436.7,130.1l-0.9-2.8
				c-0.1-0.2-0.1-0.5-0.1-0.8h0c0,0.2-0.1,0.5-0.1,0.7l-0.9,2.8H436.7z"/>
			<path class="st5" d="M442.6,130.5v2.9h-1.9V125h3c2.1,0,3.2,0.9,3.2,2.7c0,0.8-0.3,1.5-0.9,2.1c-0.7,0.5-1.6,0.8-2.4,0.8
				L442.6,130.5z M442.6,126.4v2.6h0.8c1,0,1.5-0.4,1.5-1.3s-0.5-1.3-1.5-1.3L442.6,126.4z"/>
			<path class="st5" d="M449.9,133.4H448V125h1.9L449.9,133.4z"/>
		</g>
		<g>
			<polygon class="st8" points="192.6,86.7 185,92.1 187.9,100.9 197.2,100.9 200.1,92.1 			"/>
			<g>
				<g>
					<path class="st12" d="M213,100.1h-1.1l-0.9-2.4h-3.6l-0.8,2.4h-1.1l3.2-8.4h1L213,100.1z M210.7,96.9l-1.3-3.6
						c-0.1-0.2-0.1-0.4-0.1-0.6l0,0c0,0.2-0.1,0.4-0.1,0.6l-1.3,3.6H210.7z"/>
					<path class="st12" d="M218,99.9c-0.5,0.3-1.1,0.4-1.6,0.4c-0.8,0-1.5-0.3-2.1-0.8c-0.5-0.6-0.8-1.4-0.8-2.2
						c0-0.9,0.3-1.7,0.9-2.4c0.6-0.6,1.4-0.9,2.3-0.9c0.5,0,1,0.1,1.4,0.3v1c-0.4-0.3-0.9-0.5-1.4-0.5c-0.6,0-1.1,0.2-1.5,0.7
						c-0.4,0.5-0.6,1.1-0.6,1.7c0,0.6,0.2,1.2,0.6,1.7c0.4,0.4,0.9,0.6,1.5,0.6c0.5,0,1.1-0.2,1.5-0.5V99.9z"/>
					<path class="st12" d="M223.4,99.9c-0.5,0.3-1.1,0.4-1.6,0.4c-0.8,0-1.5-0.3-2.1-0.8c-0.5-0.6-0.8-1.4-0.8-2.2
						c0-0.9,0.3-1.7,0.9-2.4c0.6-0.6,1.4-0.9,2.3-0.9c0.5,0,1,0.1,1.4,0.3v1c-0.4-0.3-0.9-0.5-1.4-0.5c-0.6,0-1.1,0.2-1.5,0.7
						c-0.4,0.5-0.6,1.1-0.6,1.7c0,0.6,0.2,1.2,0.6,1.7c0.4,0.4,0.9,0.6,1.5,0.6c0.5,0,1.1-0.2,1.5-0.5L223.4,99.9z"/>
					<path class="st12" d="M229.6,97.4h-4.2c0,0.6,0.2,1.1,0.5,1.5c0.4,0.4,0.9,0.6,1.4,0.6c0.7,0,1.3-0.2,1.9-0.7v0.9
						c-0.6,0.4-1.3,0.6-2.1,0.6c-0.8,0-1.5-0.3-2-0.8c-0.5-0.7-0.8-1.5-0.7-2.3c0-0.8,0.2-1.6,0.8-2.3c0.5-0.6,1.2-0.9,2-0.9
						c0.7,0,1.4,0.2,1.8,0.8c0.5,0.6,0.7,1.4,0.6,2.1L229.6,97.4z M228.6,96.6c0-0.5-0.1-0.9-0.4-1.3c-0.3-0.3-0.7-0.5-1.1-0.5
						c-0.4,0-0.8,0.2-1.1,0.5c-0.3,0.3-0.5,0.8-0.6,1.3H228.6z"/>
					<path class="st12" d="M230.7,99.9v-1c0.5,0.4,1.1,0.6,1.7,0.6c0.9,0,1.3-0.3,1.3-0.8c0-0.1,0-0.3-0.1-0.4
						c-0.1-0.1-0.2-0.2-0.3-0.3c-0.1-0.1-0.3-0.2-0.4-0.2l-0.5-0.2c-0.2-0.1-0.5-0.2-0.7-0.3c-0.2-0.1-0.4-0.2-0.5-0.4
						c-0.1-0.1-0.2-0.3-0.3-0.5c-0.1-0.2-0.1-0.4-0.1-0.6c0-0.3,0.1-0.5,0.2-0.8c0.1-0.2,0.3-0.4,0.5-0.5c0.2-0.2,0.5-0.3,0.7-0.3
						c0.3-0.1,0.6-0.1,0.9-0.1c0.5,0,1,0.1,1.4,0.3v1c-0.5-0.3-1-0.4-1.5-0.4c-0.2,0-0.3,0-0.5,0.1c-0.1,0-0.3,0-0.4,0.1
						c-0.1,0.1-0.2,0.2-0.2,0.3c-0.1,0.1-0.1,0.2-0.1,0.3c0,0.1,0,0.3,0.1,0.4c0.1,0.1,0.1,0.2,0.3,0.3c0.1,0.1,0.3,0.2,0.4,0.2
						l0.5,0.2c0.2,0.1,0.5,0.2,0.7,0.3c0.2,0.1,0.4,0.2,0.5,0.4c0.1,0.1,0.3,0.3,0.3,0.5c0.1,0.2,0.1,0.4,0.1,0.6
						c0,0.3-0.1,0.5-0.2,0.8c-0.1,0.2-0.3,0.4-0.5,0.5c-0.2,0.1-0.5,0.3-0.8,0.3c-0.3,0.1-0.6,0.1-0.9,0.1
						C231.7,100.3,231.2,100.2,230.7,99.9z"/>
					<path class="st12" d="M235.8,99.9v-1c0.5,0.4,1.1,0.6,1.7,0.6c0.9,0,1.3-0.3,1.3-0.8c0-0.1,0-0.3-0.1-0.4
						c-0.1-0.1-0.2-0.2-0.3-0.3c-0.1-0.1-0.3-0.2-0.4-0.2l-0.5-0.2c-0.2-0.1-0.5-0.2-0.7-0.3c-0.2-0.1-0.4-0.2-0.5-0.4
						c-0.1-0.1-0.2-0.3-0.3-0.5c-0.1-0.2-0.1-0.4-0.1-0.6c0-0.3,0.1-0.5,0.2-0.8c0.1-0.2,0.3-0.4,0.5-0.5c0.2-0.2,0.5-0.3,0.7-0.3
						c0.3-0.1,0.6-0.1,0.9-0.1c0.5,0,1,0.1,1.4,0.3v1c-0.5-0.3-1-0.4-1.5-0.4c-0.2,0-0.3,0-0.5,0.1c-0.1,0-0.3,0.1-0.4,0.2
						c-0.1,0.1-0.2,0.2-0.2,0.3c-0.1,0.1-0.1,0.2-0.1,0.3c0,0.1,0,0.3,0.1,0.4c0.1,0.1,0.1,0.2,0.2,0.3c0.1,0.1,0.3,0.2,0.4,0.2
						l0.5,0.2c0.2,0.1,0.5,0.2,0.7,0.3c0.2,0.1,0.4,0.2,0.5,0.4c0.1,0.1,0.3,0.3,0.3,0.5c0.1,0.2,0.1,0.4,0.1,0.6
						c0,0.3-0.1,0.5-0.2,0.8c-0.1,0.2-0.3,0.4-0.5,0.5c-0.2,0.1-0.5,0.3-0.8,0.3c-0.3,0.1-0.6,0.1-0.9,0.1
						C236.8,100.3,236.3,100.2,235.8,99.9z"/>
					<path class="st12" d="M247.3,100.1c-0.3,0.1-0.6,0.2-0.9,0.2c-1,0-1.6-0.6-1.6-1.8V95h-1v-0.8h1v-1.5l1-0.3v1.8h1.5V95h-1.5
						v3.4c0,0.3,0,0.6,0.2,0.9c0.2,0.2,0.4,0.3,0.7,0.3c0.2,0,0.4-0.1,0.6-0.2L247.3,100.1z"/>
					<path class="st12" d="M250.9,100.3c-0.8,0-1.6-0.3-2.1-0.8c-0.5-0.6-0.8-1.4-0.8-2.2c-0.1-0.9,0.2-1.7,0.8-2.4
						c0.6-0.6,1.4-0.9,2.2-0.8c0.8,0,1.5,0.3,2.1,0.8c0.5,0.6,0.8,1.5,0.8,2.3c0,0.8-0.2,1.7-0.8,2.3
						C252.6,100,251.8,100.3,250.9,100.3z M251,94.8c-0.6,0-1.1,0.2-1.5,0.6c-0.4,0.5-0.6,1.1-0.5,1.7c0,0.6,0.2,1.2,0.6,1.7
						c0.4,0.4,0.9,0.6,1.5,0.6c0.5,0,1.1-0.2,1.4-0.6c0.4-0.5,0.5-1.1,0.5-1.7c0-0.6-0.1-1.2-0.5-1.7C252.1,95,251.5,94.8,251,94.8
						L251,94.8z"/>
					<path class="st12" d="M260.4,100.1H259l-2.6-2.9l0,0v2.9h-1v-8.9h1v5.6l0,0l2.5-2.8h1.3l-2.7,2.9L260.4,100.1z"/>
					<path class="st12" d="M265.9,97.4h-4.2c0,0.6,0.2,1.1,0.5,1.5c0.4,0.4,0.9,0.6,1.4,0.6c0.7,0,1.3-0.2,1.9-0.7v0.9
						c-0.6,0.4-1.3,0.6-2.1,0.6c-0.8,0-1.5-0.3-2-0.8c-0.5-0.6-0.8-1.5-0.7-2.3c0-0.8,0.3-1.6,0.8-2.3c0.5-0.6,1.2-0.9,2-0.9
						c0.7,0,1.4,0.2,1.8,0.8c0.5,0.6,0.7,1.4,0.6,2.1L265.9,97.4z M264.9,96.6c0-0.5-0.1-0.9-0.4-1.3c-0.3-0.3-0.7-0.5-1.1-0.5
						c-0.4,0-0.9,0.2-1.1,0.5c-0.3,0.3-0.5,0.8-0.6,1.3H264.9z"/>
					<path class="st12" d="M272.3,100.1h-1v-3.4c0-1.3-0.5-1.9-1.4-1.9c-0.5,0-0.9,0.2-1.2,0.5c-0.3,0.4-0.5,0.9-0.5,1.4v3.4h-1v-6
						h1v1l0,0c0.4-0.7,1.2-1.2,2-1.1c0.6,0,1.1,0.2,1.5,0.6c0.4,0.5,0.6,1.2,0.5,1.8L272.3,100.1z"/>
				</g>
				<g>
					<path class="st12" d="M212.8,85.9h-1v-3.8h-4.4v3.8h-1v-8.4h1v3.7h4.4v-3.7h1V85.9z"/>
					<path class="st12" d="M219.8,78.4h-2.4v7.5h-1v-7.5H214v-0.9h5.8L219.8,78.4z"/>
					<path class="st12" d="M226.4,78.4H224v7.5h-1v-7.5h-2.4v-0.9h5.8L226.4,78.4z"/>
					<path class="st12" d="M228.6,82.8v3.2h-1v-8.4h2.3c0.8-0.1,1.5,0.2,2.1,0.7c0.5,0.5,0.8,1.2,0.7,1.8c0,0.7-0.3,1.5-0.8,1.9
						c-0.6,0.5-1.4,0.8-2.2,0.8L228.6,82.8z M228.6,78.4v3.4h1c0.6,0,1.1-0.1,1.6-0.5c0.4-0.3,0.6-0.8,0.5-1.3c0-1.1-0.7-1.7-2-1.7
						L228.6,78.4z"/>
					<path class="st12" d="M243.9,85.4c-0.9,0.5-1.8,0.7-2.8,0.7c-1.1,0-2.2-0.4-2.9-1.2c-0.8-0.8-1.2-1.9-1.1-3.1
						c0-1.2,0.4-2.3,1.2-3.2c0.8-0.8,2-1.3,3.1-1.3c0.8,0,1.6,0.1,2.3,0.4v1.1c-0.7-0.4-1.6-0.7-2.4-0.6c-0.9,0-1.7,0.3-2.3,1
						c-1.2,1.5-1.2,3.5-0.1,5c0.6,0.6,1.4,0.9,2.3,0.9c0.6,0,1.2-0.1,1.7-0.4v-2.3h-1.8v-0.9h2.8L243.9,85.4z"/>
					<path class="st12" d="M250.3,85.9h-4.4v-8.4h4.3v0.9h-3.3v2.8h3v0.9h-3V85h3.5V85.9z"/>
					<path class="st12" d="M256.9,78.4h-2.4v7.5h-1v-7.5h-2.4v-0.9h5.8L256.9,78.4z"/>
					<path class="st12" d="M267.3,82.8h-2.4v2.4h-0.8v-2.4h-2.4V82h2.4v-2.3h0.8V82h2.4V82.8z"/>
				</g>
			</g>
		</g>
	</g>
</g>
<g id="bg">
	<g id="Shapes_1_">
		<rect class="st1" width="475.5" height="150"/>
		<rect y="0.5" class="st4" width="105" height="150"/>
		<rect x="370.8" y="0.5" class="st5" width="104.7" height="90"/>
		<rect x="370.8" y="95.5" class="st6" width="104.7" height="55"/>
		<g>
			<line class="st7" x1="104.7" y1="15.8" x2="365.3" y2="15.8"/>
			<polygon points="364.2,19.5 370.7,15.8 364.2,12 			"/>
		</g>
		<g>
			<line class="st7" x1="110.1" y1="45.6" x2="370.7" y2="45.6"/>
			<polygon points="111.2,49.4 104.7,45.6 111.2,41.9 			"/>
		</g>
		<g>
			<line class="st7" x1="104.7" y1="105.1" x2="365.3" y2="105.1"/>
			<polygon points="364.2,108.8 370.7,105.1 364.2,101.3 			"/>
		</g>
		<g>
			<line class="st7" x1="110.2" y1="141.2" x2="370.7" y2="141.2"/>
			<polygon points="111.3,145 104.8,141.2 111.3,137.5 			"/>
		</g>
		
			<use xlink:href="#New_Symbol_44"  width="20" height="20" x="-10" y="-10" transform="matrix(1 0 0 1 169.62 140.76)" style="overflow:visible;"/>
		
			<use xlink:href="#New_Symbol_43"  width="20" height="20" x="-10" y="-10" transform="matrix(1 0 0 1 169.62 105.07)" style="overflow:visible;"/>
		
			<use xlink:href="#New_Symbol_42"  width="20" height="20" x="-10" y="-10" transform="matrix(1 0 0 1 169.62 45.64)" style="overflow:visible;"/>
		
			<use xlink:href="#New_Symbol_41"  width="20" height="20" x="-10" y="-10" transform="matrix(1 0 0 1 169.62 15.76)" style="overflow:visible;"/>
		<polygon class="st8" points="192.5,26.8 184.9,32.2 187.8,41 197.2,41 200.1,32.2 		"/>
		<g>
			<g>
				<path class="st9" d="M76.6,87.1c0,2.3-1.9,4.2-4.2,4.2H32.6c-2.3,0-4.2-1.9-4.2-4.2V25.5c0-2.3,1.9-4.2,4.2-4.2l0,0h39.8
					c2.3,0,4.2,1.9,4.2,4.2V87.1z"/>
				<rect x="31.5" y="28.3" class="st1" width="42" height="49.3"/>
				<path class="st1" d="M56.5,84.4c0,2.2-1.8,4-4,3.9s-4-1.8-3.9-4c0-2.2,1.8-3.9,4-3.9C54.8,80.4,56.6,82.2,56.5,84.4"/>
				<path class="st10" d="M55.2,84.4c0,1.5-1.2,2.7-2.7,2.7s-2.6-1.2-2.6-2.7s1.2-2.7,2.6-2.7S55.2,83,55.2,84.4L55.2,84.4"/>
				<path class="st11" d="M31.5,77.6V28.3h31.9l2.9-7H32.6c-2.3,0-4.2,1.9-4.2,4.2v0v61.6c0,2.3,1.9,4.2,4.2,4.2c0,0,0,0,0,0h5.2
					l5.6-13.7L31.5,77.6z"/>
				<path class="st12" d="M59.7,25.2c0,0.6-0.4,1-1,1H46.4c-0.6,0-1-0.5-1-1s0.5-1,1-1h12.2C59.2,24.1,59.6,24.6,59.7,25.2"/>
				<path class="st1" d="M59.7,25.2c0,0.6-0.4,1-1,1H46.4c-0.6,0-1-0.5-1-1s0.5-1,1-1h12.2C59.2,24.1,59.6,24.6,59.7,25.2"/>
			</g>
			<g>
				<path d="M38.5,46.9c-0.3,0-0.5-0.1-0.7-0.3c-0.2-0.2-0.3-0.4-0.3-0.7c0-0.3,0.1-0.5,0.3-0.7c0.2-0.2,0.4-0.3,0.7-0.3
					c0.1,0,0.3,0,0.4,0.1c0.1,0,0.2,0.1,0.3,0.2c0.1,0.1,0.2,0.2,0.2,0.3c0.1,0.1,0.1,0.3,0.1,0.4c0,0.1,0,0.3-0.1,0.4
					c0,0.1-0.1,0.2-0.2,0.3C39,46.8,38.7,46.9,38.5,46.9z M37.8,60.7v-11h1.4v11H37.8z"/>
				<path d="M49.1,60.9c-1,0-2.1-0.2-3-0.6c-0.9-0.4-1.6-0.9-2.3-1.7c-0.6-0.7-1.1-1.6-1.4-2.5c-0.3-1-0.5-2-0.5-3.1
					c0-1.1,0.1-2.2,0.5-3.3c0.3-0.9,0.8-1.8,1.5-2.6c0.6-0.7,1.4-1.3,2.3-1.7c1-0.4,2.1-0.6,3.2-0.6c1,0,2,0.2,2.9,0.6
					c0.8,0.4,1.6,0.9,2.2,1.6c0.6,0.7,1.1,1.5,1.4,2.4c0.3,1,0.5,2,0.5,3.1c0,1.1-0.2,2.2-0.5,3.3c-0.3,0.9-0.8,1.8-1.4,2.6
					c-0.6,0.7-1.4,1.3-2.3,1.7C51.2,60.7,50.2,61,49.1,60.9z M49.2,46.3c-0.9,0-1.7,0.2-2.5,0.5c-0.7,0.3-1.3,0.8-1.8,1.4
					c-0.5,0.6-0.9,1.4-1.1,2.1c-0.3,0.8-0.4,1.7-0.4,2.6c0,0.8,0.1,1.7,0.3,2.5c0.2,0.8,0.6,1.5,1.1,2.1c0.5,0.6,1.1,1.1,1.8,1.5
					c0.8,0.4,1.6,0.6,2.5,0.5c0.9,0,1.7-0.1,2.5-0.5c0.7-0.3,1.3-0.8,1.8-1.4c0.5-0.6,0.9-1.3,1.1-2.1c0.3-0.9,0.4-1.8,0.4-2.7
					c0-0.9-0.1-1.7-0.3-2.5c-0.2-0.8-0.5-1.5-1-2.1c-0.5-0.6-1.1-1.1-1.8-1.4C51,46.5,50.1,46.3,49.2,46.3z"/>
				<path d="M58.8,58.4c0.3,0.2,0.6,0.4,0.9,0.5c0.6,0.3,1.3,0.5,2,0.6c0.3,0.1,0.6,0.1,0.9,0.1c0.9,0.1,1.8-0.2,2.6-0.6
					c0.6-0.5,0.9-1.2,0.8-2c0-0.7-0.3-1.4-0.8-1.9c-0.3-0.3-0.7-0.6-1.1-0.8c-0.4-0.3-1-0.6-1.5-0.9s-1.2-0.7-1.7-1
					c-0.4-0.3-0.8-0.6-1.2-1c-0.3-0.3-0.5-0.7-0.7-1.1c-0.1-0.4-0.2-0.9-0.2-1.3c0-0.6,0.1-1.2,0.4-1.7c0.3-0.5,0.6-0.9,1.1-1.3
					c0.5-0.4,1-0.6,1.6-0.8c0.6-0.2,1.3-0.3,2-0.3c1,0,2,0.1,3,0.5v1.6c-1-0.5-2.1-0.8-3.2-0.8c-0.4,0-0.9,0.1-1.3,0.2
					c-0.4,0.1-0.7,0.3-1.1,0.5c-0.3,0.2-0.5,0.5-0.7,0.8c-0.2,0.3-0.3,0.7-0.3,1.1c0,0.3,0.1,0.7,0.2,1c0.1,0.3,0.3,0.6,0.6,0.8
					c0.3,0.3,0.6,0.6,1,0.8c0.4,0.3,0.9,0.5,1.6,0.9c0.6,0.3,1.1,0.6,1.7,1c0.4,0.3,0.8,0.6,1.2,1c0.3,0.3,0.5,0.7,0.7,1.1
					c0.2,0.4,0.2,0.9,0.2,1.3c0,0.6-0.1,1.2-0.4,1.8c-0.2,0.5-0.6,0.9-1.1,1.3c-0.5,0.4-1,0.6-1.6,0.8c-0.7,0.2-1.3,0.3-2,0.3
					c-0.3,0-0.6,0-0.9-0.1c-0.3,0-0.7-0.1-1-0.2c-0.3-0.1-0.7-0.2-1-0.3c-0.3-0.1-0.5-0.2-0.8-0.3L58.8,58.4z"/>
			</g>
		</g>
	</g>
	<polygon class="st8" points="192.6,86.7 185,92.1 187.9,100.9 197.2,100.9 200.1,92.1 	"/>
</g>
<g id="txt">
	<g>
		<rect y="102.8" class="st13" width="104.7" height="30.5"/>
		<path class="st14" d="M20.4,103.6H23l0.4,0.8c-0.9,1.1-1.9,2-3,2.8v5h-1.3v-4c-1,0.6-2.1,1.2-3.4,1.8l-0.7-1.1
			c1.4-0.5,2.8-1.2,4-2.1c1-0.7,1.8-1.4,2.4-2.1h-5.6v-1.1h3.3v-1.7h1.3V103.6z M21.1,107.8l0.8-0.8c0.9,0.5,1.7,1.2,2.6,1.9l-0.9,1
			C22.8,109.1,22,108.4,21.1,107.8z"/>
		<path class="st14" d="M29.1,106.3c-0.9,0.7-2,1.3-3.1,1.9l-0.8-1c1.4-0.7,2.7-1.6,3.9-2.5c1-0.9,1.9-1.8,2.5-2.7l1.2,0.8
			c-0.8,0.9-1.6,1.8-2.4,2.5v7h-1.3V106.3z"/>
		<path class="st14" d="M37.8,106.4h-3.6v-1.1h8v1.1h-3c0,1.1-0.1,1.9-0.2,2.5c-0.1,0.4-0.3,0.9-0.5,1.3c-0.3,0.5-0.7,0.9-1.1,1.3
			c-0.4,0.3-0.9,0.6-1.5,0.9l-0.9-1c1.2-0.4,2-1.1,2.4-1.9c0.2-0.4,0.3-0.8,0.4-1.2C37.8,107.8,37.8,107.2,37.8,106.4z M34.9,102.6
			h6.6v1.1h-6.6V102.6z"/>
		<path class="st14" d="M46.3,107.6c-0.7,0.5-1.6,1-2.5,1.5l-0.7-1c2.4-1.1,4.2-2.5,5.4-4.2l1.1,0.8c-0.6,0.7-1.3,1.4-2,2v5.6h-1.3
			V107.6z"/>
		<path class="st14" d="M56.8,102.9c-0.2-0.5-0.4-1-0.6-1.5l0.8-0.2c0.3,0.6,0.6,1.2,0.8,2l-0.6,0.2l0.6,0.7
			c-0.1,2.5-0.7,4.4-1.8,5.6c-0.8,1-2.2,1.9-4,2.5l-0.7-1.1c1.8-0.6,3.1-1.5,3.9-2.6c0.7-1.1,1.1-2.6,1.2-4.5h-5.5v-1.1H56.8z
			 M57.7,101.3l0.8-0.2c0.3,0.6,0.6,1.3,0.8,1.9l-0.8,0.2C58.2,102.5,58,101.9,57.7,101.3z"/>
		<path class="st14" d="M63.4,102.7h7.9l0.3,0.4c-0.1,1-0.4,1.9-0.8,2.5c-0.3,0.6-0.8,1.2-1.4,1.7l-1-0.8c0.5-0.4,0.9-0.8,1.2-1.4
			c0.2-0.4,0.4-0.8,0.4-1.3h-6.7V102.7z M63.7,111.3c1.1-0.4,1.8-1,2.3-1.7c0.4-0.7,0.6-1.6,0.6-2.7v-2h1.4v1.8
			c0,1.6-0.3,2.9-0.9,3.8c-0.5,0.7-1.3,1.3-2.3,1.9L63.7,111.3z"/>
		<path class="st14" d="M78.8,102.9c0-0.1-0.1-0.3-0.1-0.4c0-0.4,0.2-0.7,0.5-1c0.3-0.2,0.6-0.4,0.9-0.4c0.4,0,0.7,0.2,1,0.5
			c0.2,0.3,0.4,0.6,0.4,0.9c0,0.4-0.2,0.7-0.5,1c-0.3,0.2-0.6,0.4-0.9,0.4c-0.1,0-0.2,0-0.3,0c-0.1,2.5-0.7,4.5-1.7,5.8
			c-0.9,1.1-2.2,2-4,2.7l-0.7-1.1c1.8-0.6,3.1-1.5,3.9-2.7c0.7-1.1,1.1-2.6,1.2-4.5h-5.5v-1.1H78.8z M80.1,101.7
			c-0.2,0-0.4,0.1-0.6,0.3c-0.1,0.1-0.2,0.3-0.2,0.5c0,0.2,0.1,0.4,0.3,0.6c0.1,0.1,0.3,0.2,0.5,0.2c0.2,0,0.4-0.1,0.6-0.3
			c0.1-0.1,0.2-0.3,0.2-0.5c0-0.2-0.1-0.4-0.3-0.6C80.5,101.8,80.3,101.7,80.1,101.7z"/>
		<path class="st14" d="M84.3,102.5v5.9h-1.3v-5.9H84.3z M83.6,111.2c0.9-0.2,1.7-0.4,2.2-0.7c0.6-0.3,1-0.8,1.2-1.3
			c0.2-0.6,0.4-1.3,0.4-2.3v-4.4h1.3v4.5c0,1.8-0.4,3.1-1.2,3.9c-0.7,0.7-1.7,1.2-3.2,1.5L83.6,111.2z"/>
	</g>
	<g>
		<g>
			<path class="st15" d="M212.9,86h-1v-3.8h-4.3V86h-1v-8.4h1v3.7h4.3v-3.7h1V86z"/>
			<path class="st15" d="M220,78.5h-2.4V86h-1v-7.5h-2.4v-0.9h5.8V78.5z"/>
			<path class="st15" d="M226.3,78.5h-2.4V86h-1v-7.5h-2.4v-0.9h5.8V78.5z"/>
			<path class="st15" d="M228.5,82.9V86h-1v-8.4h2.3c0.9,0,1.6,0.2,2.1,0.7s0.7,1.1,0.7,1.9s-0.3,1.4-0.8,2s-1.3,0.8-2.2,0.8H228.5z
				 M228.5,78.5V82h1c0.7,0,1.2-0.2,1.6-0.5s0.5-0.7,0.5-1.3c0-1.1-0.7-1.7-2-1.7H228.5z"/>
			<path class="st15" d="M243.6,85.5c-0.8,0.5-1.8,0.7-2.8,0.7c-1.2,0-2.2-0.4-2.9-1.2s-1.1-1.8-1.1-3.1c0-1.3,0.4-2.4,1.2-3.2
				s1.9-1.3,3.1-1.3c0.9,0,1.7,0.1,2.3,0.4V79c-0.7-0.4-1.5-0.6-2.4-0.6c-0.9,0-1.7,0.3-2.3,1s-0.9,1.5-0.9,2.5
				c0,1.1,0.3,1.9,0.8,2.5s1.3,0.9,2.3,0.9c0.7,0,1.2-0.1,1.7-0.4v-2.4h-1.8v-0.9h2.8V85.5z"/>
			<path class="st15" d="M250,86h-4.5v-8.4h4.3v0.9h-3.3v2.8h3v0.9h-3v2.9h3.5V86z"/>
			<path class="st15" d="M256.5,78.5h-2.4V86h-1v-7.5h-2.4v-0.9h5.8V78.5z"/>
			<path class="st15" d="M266.7,82.9h-2.4v2.4h-0.8v-2.4h-2.4v-0.8h2.4v-2.4h0.8v2.4h2.4V82.9z"/>
			<path class="st15" d="M272,77.1h7.8c-0.1,1.1-0.4,2-0.7,2.7c-0.3,0.7-0.8,1.3-1.4,1.8L277,81c0.5-0.4,0.9-0.9,1.3-1.5
				c0.3-0.5,0.5-1,0.5-1.6H272V77.1z M272.4,85.8c1-0.5,1.8-1.1,2.2-1.8c0.4-0.8,0.7-1.8,0.7-3.2v-1.9h0.9v1.9c0,1.6-0.3,2.9-1,3.8
				c-0.5,0.7-1.2,1.3-2.2,1.8L272.4,85.8z"/>
			<path class="st15" d="M284.1,78.4c-0.6,1.3-1.3,2.5-2.2,3.5l-0.7-0.5c1.3-1.4,2.1-3,2.6-5l0.9,0.1c-0.1,0.3-0.2,0.7-0.3,1.1h4.2
				c-0.4,2.8-1.1,4.9-2.3,6.3c-0.9,1.1-2.2,2-3.8,2.7l-0.5-0.6c1.7-0.7,3-1.6,3.8-2.8c0.8-1.2,1.4-2.7,1.7-4.7H284.1z"/>
			<path class="st15" d="M292.3,79.2v-2.8h0.9V79l4.6-1l0.5,0.6c-0.6,1.8-1.5,3.3-2.5,4.5l-0.8-0.5c1.1-1.3,1.8-2.5,2.2-3.7l-4,0.9
				v4.3c0,0.5,0.1,0.9,0.4,1c0.2,0.1,0.7,0.2,1.5,0.2c0.9,0,1.8,0,2.8-0.1v0.9c-0.9,0.1-1.8,0.1-3,0.1c-1.1,0-1.8-0.2-2.2-0.5
				c-0.3-0.3-0.4-0.8-0.4-1.5v-4.1l-2,0.5l-0.2-0.8L292.3,79.2z"/>
			<path class="st15" d="M304.4,82.6c-1,1.6-2.5,2.9-4.3,3.8l-0.5-0.7c1.7-0.9,3-2,3.9-3.4c0.8-1.2,1.4-2.6,1.8-4.3h-5v-0.8h6.2
				c-0.4,1.8-0.9,3.3-1.6,4.6c1.1,1.3,2,2.6,2.8,4l-0.9,0.6C306.1,85.1,305.3,83.8,304.4,82.6z"/>
			<path class="st15" d="M208.6,95v5.7h-0.9V90.7h0.9v3.5c1.9,0.5,3.4,1.2,4.6,1.9l-0.5,0.9C211.6,96.2,210.3,95.5,208.6,95z"/>
			<path class="st15" d="M214.3,95.3h6.5v0.9h-6.5V95.3z"/>
			<path class="st15" d="M225,92.6c-0.6,1.3-1.3,2.5-2.2,3.5l-0.7-0.5c1.3-1.4,2.1-3,2.6-5l0.9,0.1c-0.1,0.3-0.2,0.7-0.3,1.1h4.2
				c-0.4,2.8-1.1,4.9-2.3,6.3c-0.9,1.1-2.2,2-3.8,2.7l-0.5-0.6c1.7-0.7,3-1.6,3.8-2.8c0.8-1.2,1.4-2.7,1.7-4.7H225z"/>
			<path class="st15" d="M231.7,91.7c1.1,0.6,2.1,1.2,2.8,1.8l-0.6,0.8c-0.7-0.6-1.6-1.2-2.8-1.9L231.7,91.7z M237.7,92.3l0.9,0.4
				c-0.4,2.1-1.1,3.7-2.2,5c-1.2,1.3-2.8,2.2-4.8,2.8l-0.4-0.8C234.9,98.7,237.1,96.3,237.7,92.3z"/>
		</g>
	</g>
	<g>
		<rect x="387.6" y="33.3" class="st13" width="72.1" height="24"/>
		<path class="st16" d="M399.8,42.2h-1.4v-5.4c0-0.4,0-1,0.1-1.6h0c-0.1,0.4-0.2,0.6-0.2,0.8l-2.5,6.3h-1l-2.5-6.2
			c-0.1-0.2-0.1-0.5-0.2-0.8h0c0,0.3,0,0.9,0,1.6v5.4h-1.3v-8.4h2l2.2,5.6c0.2,0.4,0.3,0.8,0.3,1h0c0.1-0.4,0.3-0.8,0.4-1l2.3-5.6
			h1.9V42.2z"/>
		<path class="st16" d="M402.4,35c-0.2,0-0.4-0.1-0.6-0.2s-0.2-0.3-0.2-0.6s0.1-0.4,0.2-0.6s0.3-0.2,0.6-0.2c0.2,0,0.4,0.1,0.6,0.2
			s0.2,0.3,0.2,0.6c0,0.2-0.1,0.4-0.2,0.5S402.7,35,402.4,35z M403.1,42.2h-1.4v-6h1.4V42.2z"/>
		<path class="st16" d="M409.2,41.9c-0.5,0.3-1,0.4-1.7,0.4c-0.9,0-1.6-0.3-2.2-0.8s-0.8-1.3-0.8-2.2c0-1,0.3-1.8,0.9-2.4
			s1.4-0.9,2.4-0.9c0.5,0,1,0.1,1.4,0.3v1.3c-0.4-0.3-0.9-0.5-1.3-0.5c-0.6,0-1,0.2-1.4,0.6s-0.6,0.9-0.6,1.5c0,0.6,0.2,1.1,0.5,1.5
			s0.8,0.5,1.4,0.5c0.5,0,0.9-0.2,1.4-0.5V41.9z"/>
		<path class="st16" d="M414,37.5c-0.2-0.1-0.4-0.2-0.7-0.2c-0.4,0-0.7,0.2-1,0.5s-0.4,0.9-0.4,1.5v2.9h-1.4v-6h1.4v1.2h0
			c0.1-0.4,0.3-0.8,0.6-1s0.6-0.4,0.9-0.4c0.2,0,0.4,0,0.6,0.1V37.5z"/>
		<path class="st16" d="M417.6,42.4c-0.9,0-1.7-0.3-2.2-0.8s-0.8-1.3-0.8-2.2c0-1,0.3-1.8,0.9-2.4s1.4-0.8,2.3-0.8
			c0.9,0,1.7,0.3,2.2,0.8s0.8,1.3,0.8,2.3c0,1-0.3,1.7-0.8,2.3S418.6,42.4,417.6,42.4z M417.7,37.2c-0.5,0-1,0.2-1.3,0.6
			s-0.5,0.9-0.5,1.5c0,0.6,0.2,1.1,0.5,1.5s0.7,0.5,1.3,0.5c0.5,0,0.9-0.2,1.2-0.5s0.4-0.9,0.4-1.5c0-0.7-0.1-1.2-0.4-1.5
			S418.2,37.2,417.7,37.2z"/>
		<path class="st16" d="M421.8,42v-1.3c0.5,0.4,1.1,0.6,1.7,0.6c0.8,0,1.2-0.2,1.2-0.7c0-0.1,0-0.3-0.1-0.3s-0.2-0.2-0.3-0.3
			s-0.3-0.1-0.4-0.2s-0.3-0.1-0.5-0.2c-0.2-0.1-0.5-0.2-0.7-0.3s-0.4-0.2-0.5-0.4s-0.2-0.3-0.3-0.5s-0.1-0.4-0.1-0.6
			c0-0.3,0.1-0.5,0.2-0.8s0.3-0.4,0.6-0.6s0.5-0.3,0.8-0.3s0.6-0.1,0.9-0.1c0.6,0,1.1,0.1,1.5,0.3v1.2c-0.4-0.3-0.9-0.4-1.5-0.4
			c-0.2,0-0.3,0-0.5,0.1s-0.3,0.1-0.4,0.1s-0.2,0.1-0.2,0.2s-0.1,0.2-0.1,0.3c0,0.1,0,0.2,0.1,0.3s0.1,0.2,0.2,0.2s0.2,0.1,0.4,0.2
			s0.3,0.1,0.5,0.2c0.3,0.1,0.5,0.2,0.7,0.3s0.4,0.2,0.5,0.4s0.3,0.3,0.3,0.5s0.1,0.4,0.1,0.6c0,0.3-0.1,0.6-0.2,0.8
			s-0.3,0.4-0.6,0.6s-0.5,0.3-0.8,0.3s-0.6,0.1-1,0.1C422.8,42.4,422.2,42.2,421.8,42z"/>
		<path class="st16" d="M430,42.4c-0.9,0-1.7-0.3-2.2-0.8s-0.8-1.3-0.8-2.2c0-1,0.3-1.8,0.9-2.4s1.4-0.8,2.3-0.8
			c0.9,0,1.7,0.3,2.2,0.8s0.8,1.3,0.8,2.3c0,1-0.3,1.7-0.8,2.3S430.9,42.4,430,42.4z M430,37.2c-0.5,0-1,0.2-1.3,0.6
			s-0.5,0.9-0.5,1.5c0,0.6,0.2,1.1,0.5,1.5s0.7,0.5,1.3,0.5c0.5,0,0.9-0.2,1.2-0.5s0.4-0.9,0.4-1.5c0-0.7-0.1-1.2-0.4-1.5
			S430.6,37.2,430,37.2z"/>
		<path class="st16" d="M437.9,34.4c-0.2-0.1-0.4-0.2-0.6-0.2c-0.7,0-1,0.4-1,1.1v0.8h1.4v1.1h-1.4v4.9h-1.4v-4.9h-1v-1.1h1v-1
			c0-0.6,0.2-1.1,0.6-1.5s0.9-0.5,1.6-0.5c0.3,0,0.6,0,0.8,0.1V34.4z"/>
		<path class="st16" d="M441.8,42.1c-0.3,0.1-0.6,0.2-1,0.2c-1.2,0-1.7-0.6-1.7-1.7v-3.4h-1v-1.1h1v-1.4l1.4-0.4v1.8h1.4v1.1h-1.4v3
			c0,0.4,0.1,0.6,0.2,0.8s0.3,0.2,0.6,0.2c0.2,0,0.4-0.1,0.6-0.2V42.1z"/>
		<path class="st16" d="M447.8,42.2h-1.4v-8.4h1.4V42.2z"/>
		<path class="st16" d="M449.9,42.2v-8.4h2.4c3.1,0,4.6,1.4,4.6,4.1c0,1.3-0.4,2.3-1.3,3.1s-2,1.2-3.5,1.2H449.9z M451.3,35v6h1.1
			c1,0,1.7-0.3,2.3-0.8s0.8-1.3,0.8-2.3c0-2-1-2.9-3.1-2.9H451.3z"/>
		<path class="st16" d="M395.8,47.9c0-0.1-0.1-0.3-0.1-0.4c0-0.4,0.2-0.7,0.5-1c0.3-0.2,0.6-0.4,0.9-0.4c0.4,0,0.7,0.2,1,0.5
			c0.2,0.3,0.4,0.6,0.4,0.9c0,0.4-0.2,0.7-0.5,1c-0.3,0.2-0.6,0.4-0.9,0.4c-0.1,0-0.2,0-0.3,0c-0.1,2.5-0.7,4.5-1.7,5.8
			c-0.9,1.1-2.2,2-4,2.7l-0.7-1.1c1.8-0.6,3.1-1.5,3.9-2.7c0.7-1.1,1.1-2.6,1.2-4.5h-5.5v-1.1H395.8z M397.1,46.6
			c-0.2,0-0.4,0.1-0.6,0.3c-0.1,0.1-0.2,0.3-0.2,0.5c0,0.2,0.1,0.4,0.3,0.6c0.1,0.1,0.3,0.2,0.5,0.2c0.2,0,0.4-0.1,0.6-0.3
			c0.1-0.1,0.2-0.3,0.2-0.5c0-0.2-0.1-0.4-0.3-0.6C397.5,46.7,397.3,46.6,397.1,46.6z"/>
		<path class="st16" d="M399.2,50h7.1c-0.1,2.4-0.7,4.2-1.7,5.3c-0.8,0.9-2.1,1.5-3.8,2l-0.6-1c1.7-0.4,2.9-1.1,3.6-2
			c0.7-0.8,1-1.8,1.1-3.2h-5.7V50z M399.9,47.5h5.7v1.1h-5.7V47.5z"/>
		<path class="st16" d="M407.7,50l1.1-0.4c0.4,0.8,0.7,1.7,1,2.8l-1.1,0.4C408.4,51.7,408.1,50.8,407.7,50z M409,56.4
			c1.5-0.6,2.6-1.4,3.2-2.5c0.6-1,0.9-2.5,1-4.5l1.3,0.3c-0.1,1.2-0.3,2.2-0.5,2.9c-0.2,0.7-0.5,1.4-0.8,1.9
			c-0.4,0.7-0.9,1.3-1.5,1.7c-0.5,0.4-1.2,0.7-2,1.1L409,56.4z M410,49.5l1.1-0.3c0.3,0.7,0.6,1.6,0.8,2.7l-1.1,0.4
			C410.6,51.1,410.3,50.2,410,49.5z"/>
		<path class="st16" d="M418.7,50.5c1.7,0.5,3.2,1.1,4.6,1.9l-0.7,1.3c-1.1-0.8-2.4-1.4-3.9-1.8v5.3h-1.3V47h1.3V50.5z"/>
		<path class="st16" d="M424.6,47.8h6.9c0,1.9-0.2,3.5-0.6,4.7c-0.4,1.2-1,2.2-1.9,2.9c-0.8,0.7-1.9,1.3-3.3,1.8l-0.7-1.1
			c1.8-0.6,3.1-1.5,3.9-2.7c0.7-1.1,1.1-2.6,1.2-4.5h-5.5V47.8z"/>
		<path class="st16" d="M437.1,52.2l-0.5,0.9c-0.7,1.2-1.7,2.3-3.1,3.3l-0.8-1c0.8-0.5,1.5-1.1,2.2-1.9c0.6-0.7,1-1.4,1.4-2.1h-3.2
			v-1.1h3.7l-0.1-1.6h1.2l0.1,1.6h1.8v1.1h-1.8l0.2,5.6h-1.2l-0.1-3.8L437.1,52.2z"/>
		<path class="st16" d="M441.3,51.4h6.8v1.3h-6.8V51.4z"/>
		<path class="st16" d="M455.6,54.8c-0.4-1-0.9-2-1.4-3l1.1-0.4c0.9,1.5,1.7,3.2,2.4,5.2l-1.3,0.6c-0.1-0.5-0.3-0.9-0.4-1.3
			c-1.7,0.3-4,0.6-6.6,0.9l-0.3-1.3c0.4,0,0.7-0.1,0.8-0.1c0.9-2.5,1.7-5.2,2.4-8.2l1.3,0.4c-0.7,2.5-1.5,5.1-2.4,7.7
			C452.8,55.1,454.3,55,455.6,54.8z"/>
	</g>
	<g>
		<rect x="390.6" y="110.4" class="st13" width="64.5" height="30.5"/>
		<path class="st17" d="M406.8,119.2h-1.4v-5.4c0-0.4,0-1,0.1-1.6h0c-0.1,0.4-0.2,0.6-0.2,0.8l-2.5,6.3h-1l-2.5-6.2
			c-0.1-0.2-0.1-0.5-0.2-0.8h0c0,0.3,0,0.9,0,1.6v5.4h-1.3v-8.4h2l2.2,5.6c0.2,0.4,0.3,0.8,0.3,1h0c0.1-0.4,0.3-0.8,0.4-1l2.3-5.6
			h1.9V119.2z"/>
		<path class="st17" d="M409.4,112c-0.2,0-0.4-0.1-0.6-0.2s-0.2-0.3-0.2-0.6s0.1-0.4,0.2-0.6s0.3-0.2,0.6-0.2c0.2,0,0.4,0.1,0.6,0.2
			s0.2,0.3,0.2,0.6c0,0.2-0.1,0.4-0.2,0.5S409.6,112,409.4,112z M410,119.2h-1.4v-6h1.4V119.2z"/>
		<path class="st17" d="M416.1,119c-0.5,0.3-1,0.4-1.7,0.4c-0.9,0-1.6-0.3-2.2-0.8s-0.8-1.3-0.8-2.2c0-1,0.3-1.8,0.9-2.4
			s1.4-0.9,2.4-0.9c0.5,0,1,0.1,1.4,0.3v1.3c-0.4-0.3-0.9-0.5-1.3-0.5c-0.6,0-1,0.2-1.4,0.6s-0.6,0.9-0.6,1.5c0,0.6,0.2,1.1,0.5,1.5
			s0.8,0.5,1.4,0.5c0.5,0,0.9-0.2,1.4-0.5V119z"/>
		<path class="st17" d="M420.9,114.5c-0.2-0.1-0.4-0.2-0.7-0.2c-0.4,0-0.7,0.2-1,0.5s-0.4,0.9-0.4,1.5v2.9h-1.4v-6h1.4v1.2h0
			c0.1-0.4,0.3-0.8,0.6-1s0.6-0.4,0.9-0.4c0.2,0,0.4,0,0.6,0.1V114.5z"/>
		<path class="st17" d="M424.6,119.4c-0.9,0-1.7-0.3-2.2-0.8s-0.8-1.3-0.8-2.2c0-1,0.3-1.8,0.9-2.4s1.4-0.8,2.3-0.8
			c0.9,0,1.7,0.3,2.2,0.8s0.8,1.3,0.8,2.3c0,1-0.3,1.7-0.8,2.3S425.5,119.4,424.6,119.4z M424.6,114.2c-0.5,0-1,0.2-1.3,0.6
			s-0.5,0.9-0.5,1.5c0,0.6,0.2,1.1,0.5,1.5s0.7,0.5,1.3,0.5c0.5,0,0.9-0.2,1.2-0.5s0.4-0.9,0.4-1.5c0-0.7-0.1-1.2-0.4-1.5
			S425.2,114.2,424.6,114.2z"/>
		<path class="st17" d="M428.7,119v-1.3c0.5,0.4,1.1,0.6,1.7,0.6c0.8,0,1.2-0.2,1.2-0.7c0-0.1,0-0.3-0.1-0.3s-0.2-0.2-0.3-0.3
			s-0.3-0.1-0.4-0.2s-0.3-0.1-0.5-0.2c-0.2-0.1-0.5-0.2-0.7-0.3s-0.4-0.2-0.5-0.4s-0.2-0.3-0.3-0.5s-0.1-0.4-0.1-0.6
			c0-0.3,0.1-0.5,0.2-0.8s0.3-0.4,0.6-0.6s0.5-0.3,0.8-0.3s0.6-0.1,0.9-0.1c0.6,0,1.1,0.1,1.5,0.3v1.2c-0.4-0.3-0.9-0.4-1.5-0.4
			c-0.2,0-0.3,0-0.5,0.1s-0.3,0.1-0.4,0.1s-0.2,0.1-0.2,0.2s-0.1,0.2-0.1,0.3c0,0.1,0,0.2,0.1,0.3s0.1,0.2,0.2,0.2s0.2,0.1,0.4,0.2
			s0.3,0.1,0.5,0.2c0.3,0.1,0.5,0.2,0.7,0.3s0.4,0.2,0.5,0.4s0.3,0.3,0.3,0.5s0.1,0.4,0.1,0.6c0,0.3-0.1,0.6-0.2,0.8
			s-0.3,0.4-0.6,0.6s-0.5,0.3-0.8,0.3s-0.6,0.1-1,0.1C429.7,119.4,429.2,119.3,428.7,119z"/>
		<path class="st17" d="M436.9,119.4c-0.9,0-1.7-0.3-2.2-0.8s-0.8-1.3-0.8-2.2c0-1,0.3-1.8,0.9-2.4s1.4-0.8,2.3-0.8
			c0.9,0,1.7,0.3,2.2,0.8s0.8,1.3,0.8,2.3c0,1-0.3,1.7-0.8,2.3S437.8,119.4,436.9,119.4z M437,114.2c-0.5,0-1,0.2-1.3,0.6
			s-0.5,0.9-0.5,1.5c0,0.6,0.2,1.1,0.5,1.5s0.7,0.5,1.3,0.5c0.5,0,0.9-0.2,1.2-0.5s0.4-0.9,0.4-1.5c0-0.7-0.1-1.2-0.4-1.5
			S437.5,114.2,437,114.2z"/>
		<path class="st17" d="M444.8,111.5c-0.2-0.1-0.4-0.2-0.6-0.2c-0.7,0-1,0.4-1,1.1v0.8h1.4v1.1h-1.4v4.9h-1.4v-4.9h-1v-1.1h1v-1
			c0-0.6,0.2-1.1,0.6-1.5s0.9-0.5,1.6-0.5c0.3,0,0.6,0,0.8,0.1V111.5z"/>
		<path class="st17" d="M448.7,119.2c-0.3,0.1-0.6,0.2-1,0.2c-1.2,0-1.7-0.6-1.7-1.7v-3.4h-1v-1.1h1v-1.4l1.4-0.4v1.8h1.4v1.1h-1.4
			v3c0,0.4,0.1,0.6,0.2,0.8s0.3,0.2,0.6,0.2c0.2,0,0.4-0.1,0.6-0.2V119.2z"/>
		<path class="st17" d="M402.9,133.1c-0.9,0.5-1.8,0.7-2.9,0.7c-1.2,0-2.2-0.4-3-1.2s-1.2-1.8-1.2-3.1c0-1.3,0.4-2.4,1.3-3.2
			s1.9-1.3,3.2-1.3c0.9,0,1.7,0.1,2.4,0.4v1.4c-0.6-0.4-1.4-0.6-2.3-0.6c-0.9,0-1.6,0.3-2.2,0.9s-0.9,1.4-0.9,2.3
			c0,1,0.2,1.7,0.7,2.3s1.2,0.8,2,0.8c0.6,0,1.1-0.1,1.5-0.3v-2h-1.8v-1.2h3.2V133.1z"/>
		<path class="st17" d="M408,128.9c-0.2-0.1-0.4-0.2-0.7-0.2c-0.4,0-0.7,0.2-1,0.5s-0.4,0.9-0.4,1.5v2.9h-1.4v-6h1.4v1.2h0
			c0.1-0.4,0.3-0.8,0.6-1s0.6-0.4,0.9-0.4c0.2,0,0.4,0,0.6,0.1V128.9z"/>
		<path class="st17" d="M413.6,133.6h-1.3v-0.9h0c-0.4,0.7-1,1.1-1.8,1.1c-0.6,0-1.1-0.2-1.4-0.5s-0.5-0.7-0.5-1.3
			c0-1.1,0.7-1.8,2-2l1.8-0.3c0-0.9-0.4-1.3-1.2-1.3c-0.7,0-1.4,0.2-1.9,0.7v-1.2c0.6-0.4,1.4-0.6,2.2-0.6c1.5,0,2.3,0.7,2.3,2.2
			V133.6z M412.2,130.7l-1.3,0.2c-0.4,0.1-0.7,0.1-0.9,0.3s-0.3,0.4-0.3,0.7c0,0.3,0.1,0.5,0.3,0.6s0.4,0.2,0.7,0.2
			c0.4,0,0.8-0.1,1-0.4s0.4-0.7,0.4-1.1V130.7z"/>
		<path class="st17" d="M416.6,132.7L416.6,132.7l0,3.6h-1.4v-8.8h1.4v1.1h0c0.5-0.8,1.1-1.2,2-1.2c0.8,0,1.4,0.3,1.8,0.8
			s0.6,1.3,0.6,2.2c0,1-0.2,1.8-0.7,2.4s-1.1,0.9-2,0.9C417.6,133.8,417,133.4,416.6,132.7z M416.6,130.4v0.7c0,0.4,0.1,0.8,0.4,1.1
			s0.6,0.5,1.1,0.5c0.5,0,0.9-0.2,1.2-0.6s0.4-0.9,0.4-1.6c0-0.6-0.1-1.1-0.4-1.4s-0.6-0.5-1.1-0.5c-0.5,0-0.9,0.2-1.2,0.5
			S416.6,129.9,416.6,130.4z"/>
		<path class="st17" d="M427.8,133.6h-1.4v-3.3c0-1.2-0.4-1.8-1.2-1.8c-0.4,0-0.7,0.2-1,0.5s-0.4,0.8-0.4,1.3v3.2h-1.4v-8.9h1.4v3.9
			h0c0.5-0.8,1.1-1.1,1.9-1.1c1.3,0,2,0.8,2,2.4V133.6z"/>
		<path class="st17" d="M439.8,133.6h-1.5l-0.8-2.1h-3.3l-0.7,2.1h-1.5l3.1-8.4h1.6L439.8,133.6z M437.1,130.4L436,127
			c0-0.1-0.1-0.3-0.1-0.5h0c0,0.2-0.1,0.4-0.1,0.5l-1.2,3.4H437.1z"/>
		<path class="st17" d="M442.3,130.6v3h-1.4v-8.4h2.5c1,0,1.7,0.2,2.2,0.7s0.8,1.1,0.8,1.9s-0.3,1.5-0.8,2s-1.3,0.8-2.3,0.8H442.3z
			 M442.3,126.4v3.1h0.9c0.6,0,1.1-0.1,1.4-0.4s0.5-0.7,0.5-1.2c0-1-0.6-1.5-1.7-1.5H442.3z"/>
		<path class="st17" d="M449.4,133.6H448v-8.4h1.4V133.6z"/>
	</g>
	<g>
		<path class="st15" d="M187.5,5.1v5.7h-0.9V0.7h0.9v3.5c1.9,0.5,3.4,1.2,4.6,1.9L191.6,7C190.5,6.2,189.2,5.6,187.5,5.1z"/>
		<path class="st15" d="M193.2,5.4h6.5v0.9h-6.5V5.4z"/>
		<path class="st15" d="M203.8,2.7c-0.6,1.3-1.3,2.5-2.2,3.5l-0.7-0.5c1.3-1.4,2.1-3,2.6-5l0.9,0.1c-0.1,0.3-0.2,0.7-0.3,1.1h4.2
			c-0.4,2.8-1.1,4.9-2.3,6.3c-0.9,1.1-2.2,2-3.8,2.7l-0.5-0.6c1.7-0.7,3-1.6,3.8-2.8c0.8-1.2,1.4-2.7,1.7-4.7H203.8z"/>
		<path class="st15" d="M210.5,1.8c1.1,0.6,2.1,1.2,2.8,1.8l-0.6,0.8c-0.7-0.6-1.6-1.2-2.8-1.9L210.5,1.8z M216.5,2.4l0.9,0.4
			c-0.4,2.1-1.1,3.7-2.2,5c-1.2,1.3-2.8,2.2-4.8,2.8L210,9.7C213.8,8.8,215.9,6.4,216.5,2.4z"/>
		<path class="st15" d="M223.5,2.5c-0.2,2.7-0.6,4.8-1.3,6.3c-0.4,0.8-0.9,1.3-1.6,1.3c-0.6,0-1.1-0.3-1.4-0.9
			c-0.3-0.6-0.5-1.4-0.5-2.4c0-0.8,0.1-1.6,0.4-2.2c0.2-0.6,0.5-1.1,0.9-1.5c0.4-0.4,0.9-0.7,1.5-1c0.5-0.2,1.1-0.3,1.7-0.3
			c1.4,0,2.4,0.4,3,1.3c0.6,0.8,0.8,1.8,0.8,3.3c0,1.2-0.3,2.1-1,2.9c-0.6,0.8-1.6,1.3-2.8,1.5l-0.4-0.7c2.2-0.4,3.3-1.7,3.3-3.9
			c0-1.3-0.3-2.2-0.9-2.8C224.8,2.7,224.2,2.5,223.5,2.5z M222.6,2.6c-0.4,0-0.8,0.2-1.1,0.3c-0.3,0.2-0.6,0.4-0.9,0.8
			c-0.7,0.8-1,1.8-1,3.1c0,0.8,0.1,1.4,0.4,1.8c0.2,0.4,0.4,0.5,0.6,0.5c0.2,0,0.4-0.1,0.5-0.2c0.1-0.1,0.3-0.3,0.4-0.7
			C222.1,6.8,222.4,4.9,222.6,2.6z"/>
		<path class="st15" d="M234.1,1.6C234.1,1.6,234,1.6,234.1,1.6c-0.1,0.1-0.1,0.1-0.2,0.1c-0.3,0-0.5,0-0.8,0v8.1l0,1.3
			c0,0.1,0,0.1-0.1,0.1h-0.6c-0.1,0-0.1,0-0.1-0.1l0-1.3V8.5c-1,0.4-2.1,0.7-3.2,1c-0.3,0.1-0.4,0.1-0.5,0.2c0,0-0.1,0.1-0.2,0.1
			c0,0-0.1,0-0.1-0.1c-0.1-0.2-0.1-0.5-0.2-0.7c0.3,0,0.7-0.1,1-0.2l0.2,0V1.6c-0.3,0-0.5,0-0.7,0c-0.1,0-0.2,0-0.2,0
			c-0.1,0-0.1,0-0.1-0.1V1.1c0-0.1,0-0.1,0.1-0.1l1.5,0h2.4l1.5,0c0.1,0,0.1,0,0.1,0.1V1.6z M232.3,3.4V1.6h-2.2v1.8H232.3z
			 M232.3,5.8V4h-2.2v1.8H232.3z M232.3,7.9V6.4h-2.2v2.2C231,8.3,231.7,8.1,232.3,7.9z M239.4,10.3c-0.2,0.1-0.3,0.3-0.4,0.4
			c-0.1,0.1-0.1,0.1-0.1,0.1c0,0-0.1,0-0.2-0.1c-0.9-0.7-1.6-1.5-2.2-2.3c-0.7,0.9-1.5,1.6-2.6,2.4c-0.1,0.1-0.2,0.1-0.2,0.1
			s-0.1-0.1-0.2-0.2c-0.1-0.1-0.2-0.3-0.3-0.4c1.2-0.7,2.1-1.5,2.8-2.6c-0.8-1.4-1.4-3-1.6-4.9c-0.2,0-0.4,0-0.6,0
			c-0.1,0-0.2,0-0.2,0c-0.1,0-0.1,0-0.1-0.1V2.3c0-0.1,0-0.1,0.1-0.1l1.4,0h2.8c0.1,0,0.2,0,0.3,0c0,0,0.1,0,0.1,0
			c0.1,0,0.2,0.1,0.4,0.3c0.1,0.1,0.2,0.3,0.2,0.3c0,0,0,0.1-0.1,0.2c-0.1,0.1-0.1,0.2-0.1,0.5c-0.3,1.7-0.9,3.2-1.7,4.5
			C237.5,8.8,238.4,9.6,239.4,10.3z M237.9,2.9h-2.7c0.2,1.7,0.7,3.2,1.3,4.3C237.2,6,237.7,4.6,237.9,2.9z"/>
		<path class="st15" d="M243.4,3.5c0,0.1,0,0.1-0.1,0.1c-0.1,0.1-0.2,0.2-0.3,0.4c-0.1,0.3-0.3,0.6-0.6,0.9v4.6l0,1.6
			c0,0.1,0,0.1-0.1,0.1h-0.6c-0.1,0-0.1,0-0.1-0.1l0-1.6V7.3c0-0.1,0-0.6,0-1.5c-0.4,0.4-0.7,0.8-1.1,1.1c-0.1,0.1-0.1,0.1-0.2,0.1
			c0,0-0.1,0-0.1-0.1c-0.1-0.2-0.2-0.3-0.3-0.4c1-0.9,1.8-1.8,2.4-3c0.1-0.2,0.2-0.4,0.2-0.6c0.2,0.1,0.4,0.2,0.6,0.3
			C243.3,3.4,243.4,3.4,243.4,3.5z M243.3,1c0,0,0,0.1-0.1,0.1c-0.1,0.1-0.2,0.2-0.3,0.3c-0.6,0.8-1.3,1.6-2.1,2.2
			c-0.1,0.1-0.2,0.1-0.2,0.1c0,0-0.1-0.1-0.2-0.2c-0.1-0.1-0.2-0.3-0.3-0.4c0.9-0.5,1.6-1.3,2.2-2.2c0.1-0.2,0.2-0.4,0.3-0.6
			c0.2,0.1,0.4,0.2,0.6,0.3C243.2,0.9,243.3,0.9,243.3,1z M250.7,7.7C250.7,7.7,250.7,7.8,250.7,7.7L249,7.7v0.8l0,1.5
			c0,0.4-0.1,0.6-0.3,0.8c-0.2,0.1-0.7,0.2-1.5,0.2c-0.1,0-0.2,0-0.2,0c0,0,0-0.1-0.1-0.2c-0.1-0.2-0.2-0.4-0.2-0.5
			c0.4,0,0.8,0.1,1.1,0.1c0.1,0,0.1,0,0.2,0c0.3,0,0.4-0.2,0.4-0.4V7.7h-3.4l-1.7,0c-0.1,0-0.1,0-0.1-0.1V7.2c0-0.1,0-0.1,0.1-0.1
			l1.7,0h3.4v-1h-3.3l-1.7,0c-0.1,0-0.1,0-0.1-0.1V5.5c0-0.1,0-0.1,0.1-0.1l1.7,0h3.9l1.7,0c0.1,0,0.1,0,0.1,0.1V6
			c0,0.1,0,0.1-0.1,0.1l-1.6,0v1l1.6,0c0.1,0,0.1,0,0.1,0.1V7.7z M249.6,4.6C249.6,4.6,249.5,4.7,249.6,4.6L248,4.6H246l-1.4,0
			c-0.1,0-0.1,0-0.1-0.1l0-1.1V2.1l0-1.1c0-0.1,0-0.1,0.1-0.1l1.4,0h2.1l1.4,0c0.1,0,0.1,0,0.1,0.1l0,1.1v1.4L249.6,4.6z M246.3,9.5
			C246.4,9.5,246.4,9.6,246.3,9.5c0,0.1,0,0.1-0.1,0.2L246,9.9c-0.1,0.1-0.1,0.1-0.1,0.1s0,0-0.1-0.1c-0.3-0.5-0.7-0.9-1.2-1.3
			c0,0,0-0.1,0-0.1c0,0,0-0.1,0.1-0.1l0.3-0.2c0,0,0.1,0,0.1,0s0,0,0.1,0C245.6,8.6,246,9.1,246.3,9.5z M248.9,2.5v-1h-3.7v1H248.9z
			 M248.9,4V3h-3.7v1H248.9z"/>
	</g>
	<g>
		<path class="st15" d="M204.8,29.3h7.8c-0.1,1.1-0.4,2-0.7,2.7c-0.3,0.7-0.8,1.3-1.4,1.8l-0.7-0.6c0.5-0.4,0.9-0.9,1.3-1.5
			c0.3-0.5,0.5-1,0.5-1.6h-6.7V29.3z M205.1,37.9c1-0.5,1.8-1.1,2.2-1.8c0.4-0.8,0.7-1.8,0.7-3.2v-1.9h0.9V33c0,1.6-0.3,2.9-1,3.8
			c-0.5,0.7-1.2,1.3-2.2,1.8L205.1,37.9z"/>
		<path class="st15" d="M216.8,30.6c-0.6,1.3-1.3,2.5-2.2,3.5l-0.7-0.5c1.3-1.4,2.1-3,2.6-5l0.9,0.1c-0.1,0.3-0.2,0.7-0.3,1.1h4.2
			c-0.4,2.8-1.1,4.9-2.3,6.3c-0.9,1.1-2.2,2-3.8,2.7l-0.5-0.6c1.7-0.7,3-1.6,3.8-2.8c0.8-1.2,1.4-2.7,1.7-4.7H216.8z"/>
		<path class="st15" d="M225,31.4v-2.8h0.9v2.6l4.6-1l0.5,0.6c-0.6,1.8-1.5,3.3-2.5,4.5l-0.8-0.5c1.1-1.3,1.8-2.5,2.2-3.7l-4,0.9
			v4.3c0,0.5,0.1,0.9,0.4,1c0.2,0.1,0.7,0.2,1.5,0.2c0.9,0,1.8,0,2.8-0.1v0.9c-0.9,0.1-1.8,0.1-3,0.1c-1.1,0-1.8-0.2-2.2-0.5
			c-0.3-0.3-0.4-0.8-0.4-1.5v-4.1l-2,0.5l-0.2-0.8L225,31.4z"/>
		<path class="st15" d="M237.1,34.8c-1,1.6-2.5,2.9-4.3,3.8l-0.5-0.7c1.7-0.9,3-2,3.9-3.4c0.8-1.2,1.4-2.6,1.8-4.3h-5v-0.8h6.2
			c-0.4,1.8-0.9,3.3-1.6,4.6c1.1,1.3,2,2.6,2.8,4l-0.9,0.6C238.9,37.3,238.1,36,237.1,34.8z"/>
		<path class="st15" d="M247.1,33v5.7h-0.9V28.6h0.9v3.5c1.9,0.5,3.4,1.2,4.6,1.9l-0.5,0.9C250.2,34.1,248.8,33.5,247.1,33z"/>
		<path class="st15" d="M252.9,33.3h6.5v0.9h-6.5V33.3z"/>
		<path class="st15" d="M263.5,30.6c-0.6,1.3-1.3,2.5-2.2,3.5l-0.7-0.5c1.3-1.4,2.1-3,2.6-5l0.9,0.1c-0.1,0.3-0.2,0.7-0.3,1.1h4.2
			c-0.4,2.8-1.1,4.9-2.3,6.3c-0.9,1.1-2.2,2-3.8,2.7l-0.5-0.6c1.7-0.7,3-1.6,3.8-2.8c0.8-1.2,1.4-2.7,1.7-4.7H263.5z"/>
		<path class="st15" d="M270.2,29.7c1.1,0.6,2.1,1.2,2.8,1.8l-0.6,0.8c-0.7-0.6-1.6-1.2-2.8-1.9L270.2,29.7z M276.3,30.3l0.9,0.4
			c-0.4,2.1-1.1,3.7-2.2,5c-1.2,1.3-2.8,2.2-4.8,2.8l-0.4-0.8C273.5,36.7,275.7,34.2,276.3,30.3z"/>
	</g>
	<g>
		<path class="st15" d="M191.8,135.2h-1v-3.8h-4.3v3.8h-1v-8.4h1v3.7h4.3v-3.7h1V135.2z"/>
		<path class="st15" d="M199,127.7h-2.4v7.5h-1v-7.5h-2.4v-0.9h5.8V127.7z"/>
		<path class="st15" d="M205.2,127.7h-2.4v7.5h-1v-7.5h-2.4v-0.9h5.8V127.7z"/>
		<path class="st15" d="M207.5,132v3.2h-1v-8.4h2.3c0.9,0,1.6,0.2,2.1,0.7s0.7,1.1,0.7,1.9s-0.3,1.4-0.8,2s-1.3,0.8-2.2,0.8H207.5z
			 M207.5,127.7v3.4h1c0.7,0,1.2-0.2,1.6-0.5s0.5-0.7,0.5-1.3c0-1.1-0.7-1.7-2-1.7H207.5z"/>
		<path class="st15" d="M226.4,127.4C226.4,127.5,226.4,127.5,226.4,127.4l-1.8,0.1h-6.8v1.6c0,1.3-0.1,2.5-0.2,3.4
			c-0.2,1.1-0.5,2.2-1,3.1c0,0.1-0.1,0.1-0.1,0.1c0,0-0.1,0-0.2-0.1c-0.1-0.1-0.3-0.3-0.5-0.4c0.5-0.8,0.9-1.8,1-3
			c0.1-0.8,0.2-1.8,0.2-3.3l0-2.1c0-0.1,0-0.1,0.1-0.1l1.7,0h2.4v-0.8c0-0.4,0-0.7-0.1-1c0.3,0,0.6,0,0.8,0.1c0.1,0,0.1,0,0.1,0.1
			c0,0,0,0.1-0.1,0.2c0,0.1-0.1,0.3-0.1,0.6v0.8h2.6l1.7,0c0.1,0,0.1,0,0.1,0.1V127.4z M219.7,131.2c-0.2,1.2-0.6,2.3-1.1,3.2
			c0,0,0,0.1-0.1,0.1c0,0-0.1,0-0.1-0.1l-0.4-0.2c-0.1,0-0.1-0.1-0.1-0.1c0,0,0,0,0-0.1c0.5-0.9,0.8-1.9,1-3c0-0.1,0-0.1,0.1-0.1
			c0,0,0.1,0,0.1,0l0.3,0.1C219.7,131.1,219.7,131.1,219.7,131.2C219.7,131.2,219.7,131.2,219.7,131.2z M224.8,133.8
			c0,0.6-0.1,1-0.2,1.2c-0.1,0.2-0.2,0.3-0.4,0.5c-0.3,0.2-0.8,0.3-1.6,0.3c-0.9,0-1.4-0.1-1.7-0.3c-0.2-0.2-0.3-0.5-0.3-1v-2.7
			c0-0.7,0-1.2-0.1-1.5c0.3,0,0.6,0,0.8,0.1c0.1,0,0.2,0.1,0.2,0.1c0,0,0,0.1-0.1,0.2c0,0.1-0.1,0.5-0.1,1.1v2.3c0,0.4,0,0.6,0,0.6
			c0,0.1,0.1,0.2,0.2,0.3c0.1,0.1,0.5,0.2,1.1,0.2c0.6,0,1-0.1,1.2-0.2c0.1-0.1,0.2-0.3,0.3-0.6c0-0.2,0.1-0.6,0.1-1.1
			c0.1,0.1,0.3,0.2,0.5,0.2c0.1,0,0.2,0.1,0.2,0.2C224.8,133.7,224.8,133.7,224.8,133.8z M223.6,129.6
			C223.6,129.7,223.6,129.7,223.6,129.6c0.1,0.1,0,0.1,0,0.2l-0.3,0.3c-0.1,0.1-0.1,0.1-0.1,0.1c0,0,0,0-0.1,0
			c-0.7-0.6-1.4-1.2-2.3-1.6c0,0,0,0,0,0c0,0,0-0.1,0.1-0.1l0.2-0.3c0.1-0.1,0.1-0.1,0.1-0.1c0,0,0,0,0.1,0
			C222.1,128.6,222.9,129.1,223.6,129.6z M226.6,133.9C226.6,133.9,226.6,133.9,226.6,133.9c0,0.1,0,0.1-0.2,0.2l-0.3,0.2
			c-0.1,0-0.1,0.1-0.2,0.1c0,0,0,0-0.1-0.1c-0.3-1.1-0.7-2.2-1.2-3.1c0,0,0,0,0-0.1c0,0,0-0.1,0.1-0.1l0.3-0.1
			c0.1,0,0.1-0.1,0.1-0.1s0,0,0.1,0.1C225.8,131.8,226.3,132.8,226.6,133.9z"/>
		<path class="st15" d="M238.9,131.2c-0.1,0.1-0.3,0.3-0.4,0.5c-0.1,0.1-0.1,0.2-0.2,0.2c0,0-0.1,0-0.2,0c-1.1-0.3-2.1-0.7-3-1.3
			c-0.8-0.5-1.5-1-2-1.5c-1.2,1.2-2.8,2.2-4.8,2.9c-0.1,0-0.2,0.1-0.2,0.1c0,0-0.1-0.1-0.2-0.2c-0.1-0.2-0.2-0.3-0.3-0.4
			c2.1-0.6,3.7-1.5,4.8-2.6c0.2-0.2,0.3-0.4,0.4-0.5c0.3,0,0.5,0.1,0.7,0.2c0.1,0,0.2,0.1,0.2,0.1c0,0.1,0,0.1-0.1,0.1l-0.1,0
			c0.6,0.6,1.4,1.2,2.4,1.6C236.9,130.6,237.9,130.9,238.9,131.2z M233.1,127c0,0.1,0,0.1-0.1,0.1l-1.2,0h-0.5
			c0.3,0.5,0.5,0.9,0.7,1.4c0,0,0,0,0,0c0,0,0,0.1-0.1,0.1l-0.4,0.1c-0.1,0-0.1,0-0.1,0c0,0-0.1,0-0.1-0.1c-0.2-0.6-0.4-1.1-0.7-1.6
			h-0.8c-0.3,0.5-0.7,0.9-1.1,1.3c-0.1,0.1-0.2,0.1-0.2,0.1c0,0-0.1,0-0.2-0.1c-0.1-0.1-0.2-0.2-0.4-0.3c0.7-0.6,1.3-1.4,1.8-2.4
			c0.1-0.2,0.1-0.3,0.2-0.6c0.3,0.1,0.5,0.1,0.7,0.2c0.1,0,0.1,0.1,0.1,0.1c0,0,0,0.1-0.1,0.2c0,0-0.1,0.1-0.2,0.3
			c0,0-0.1,0.1-0.2,0.3c-0.1,0.1-0.1,0.2-0.1,0.2h1.7l1.2,0c0.1,0,0.1,0,0.1,0.1V127z M236.7,135.8
			C236.7,135.9,236.7,135.9,236.7,135.8l-0.7,0.1c-0.1,0-0.1,0-0.1-0.1v-0.4h-5.3v0.5c0,0.1,0,0.1-0.1,0.1H230c-0.1,0-0.1,0-0.1-0.1
			l0-1.7v-0.7l0-1c0-0.1,0-0.1,0.1-0.1l1.6,0h3.3l1.6,0c0.1,0,0.1,0,0.1,0.1l0,0.9v0.8L236.7,135.8z M236,134.8v-1.7h-5.3v1.7H236z
			 M235.5,131.4C235.5,131.5,235.5,131.5,235.5,131.4l-1.4,0.1h-1.6l-1.3,0c-0.1,0-0.1,0-0.1-0.1v-0.5c0-0.1,0-0.1,0.1-0.1l1.3,0
			h1.6l1.3,0c0.1,0,0.1,0,0.1,0.1V131.4z M238.5,127c0,0.1,0,0.1-0.1,0.1l-1.5,0h-1c0.2,0.4,0.4,0.9,0.6,1.3c0,0,0,0,0,0
			c0,0,0,0.1-0.1,0.1l-0.4,0.1c-0.1,0-0.1,0-0.1,0c0,0-0.1,0-0.1-0.1c-0.2-0.6-0.4-1.1-0.7-1.6h-1c-0.2,0.3-0.4,0.6-0.6,0.9
			c-0.1,0.1-0.1,0.1-0.2,0.1c0,0-0.1,0-0.2-0.1c-0.1-0.1-0.2-0.2-0.4-0.2c0.5-0.5,0.9-1.2,1.2-1.9c0.1-0.2,0.1-0.4,0.1-0.5
			c0.3,0.1,0.5,0.1,0.7,0.2c0.1,0,0.1,0.1,0.1,0.1c0,0.1,0,0.1-0.1,0.2c0,0-0.1,0.1-0.2,0.3c-0.1,0.2-0.1,0.3-0.2,0.4h2.4l1.5,0
			c0.1,0,0.1,0,0.1,0.1V127z"/>
	</g>
</g>
</svg>
