<?xml version="1.0" encoding="utf-8"?>
<!-- Generator: Adobe Illustrator 22.1.0, SVG Export Plug-In . SVG Version: 6.00 Build 0)  -->
<svg version="1.1" id="Layer_1" xmlns="http://www.w3.org/2000/svg" xmlns:xlink="http://www.w3.org/1999/xlink" x="0px" y="0px"
	 viewBox="0 0 270 41" style="enable-background:new 0 0 270 41;" xml:space="preserve">
<style type="text/css">
	.st0{enable-background:new    ;}
	.st1{fill:#FFFFFF;}
</style>
<image style="overflow:visible;enable-background:new    ;" width="270" height="41" id="Background_copy" xlink:href="749ABD28.jpg"  transform="matrix(1 0 0 1 0 1.682073e-05)">
</image>
<g class="st0">
	<path class="st1" d="M57.8,25.7h-1.7V19c0-0.6,0-1.2,0.1-2h0c-0.1,0.5-0.2,0.8-0.3,1l-3.1,7.8h-1.2L48.5,18c-0.1-0.2-0.2-0.6-0.3-1
		h0c0,0.4,0.1,1.1,0.1,2v6.7h-1.6V15.3h2.4l2.7,6.9c0.2,0.5,0.3,0.9,0.4,1.2h0c0.2-0.5,0.3-1,0.4-1.2l2.8-6.9h2.4V25.7z"/>
	<path class="st1" d="M61,16.7c-0.3,0-0.5-0.1-0.7-0.3C60.1,16.3,60,16,60,15.7s0.1-0.5,0.3-0.7c0.2-0.2,0.4-0.3,0.7-0.3
		c0.3,0,0.5,0.1,0.7,0.3c0.2,0.2,0.3,0.4,0.3,0.7c0,0.3-0.1,0.5-0.3,0.7C61.6,16.6,61.3,16.7,61,16.7z M61.9,25.7h-1.7v-7.5h1.7
		V25.7z"/>
	<path class="st1" d="M69.4,25.4c-0.6,0.3-1.3,0.5-2.1,0.5c-1.1,0-2-0.3-2.7-1c-0.7-0.7-1-1.6-1-2.7c0-1.2,0.4-2.2,1.1-3
		c0.7-0.7,1.7-1.1,2.9-1.1c0.7,0,1.3,0.1,1.8,0.4V20c-0.5-0.4-1.1-0.6-1.7-0.6c-0.7,0-1.3,0.2-1.8,0.7c-0.5,0.5-0.7,1.1-0.7,1.9
		c0,0.8,0.2,1.4,0.6,1.8c0.4,0.4,1,0.7,1.7,0.7c0.6,0,1.2-0.2,1.7-0.6V25.4z"/>
	<path class="st1" d="M75.4,19.9c-0.2-0.2-0.5-0.2-0.9-0.2c-0.5,0-0.9,0.2-1.3,0.7c-0.3,0.5-0.5,1.1-0.5,1.8v3.6h-1.7v-7.5h1.7v1.5
		h0c0.2-0.5,0.4-0.9,0.8-1.2c0.3-0.3,0.7-0.4,1.1-0.4c0.3,0,0.5,0,0.7,0.1V19.9z"/>
	<path class="st1" d="M79.8,25.9c-1.1,0-2.1-0.3-2.8-1c-0.7-0.7-1-1.6-1-2.8c0-1.3,0.4-2.2,1.1-2.9c0.7-0.7,1.7-1.1,2.9-1.1
		c1.2,0,2.1,0.3,2.7,1s1,1.6,1,2.8c0,1.2-0.4,2.1-1.1,2.9C81.9,25.5,81,25.9,79.8,25.9z M79.9,19.4c-0.7,0-1.2,0.2-1.6,0.7
		c-0.4,0.5-0.6,1.1-0.6,1.9c0,0.8,0.2,1.4,0.6,1.8s0.9,0.7,1.6,0.7c0.7,0,1.2-0.2,1.5-0.7c0.4-0.4,0.5-1.1,0.5-1.9
		c0-0.8-0.2-1.5-0.5-1.9C81,19.7,80.5,19.4,79.9,19.4z"/>
	<path class="st1" d="M84.9,25.5v-1.6c0.6,0.5,1.3,0.7,2.1,0.7c1,0,1.5-0.3,1.5-0.9c0-0.2,0-0.3-0.1-0.4c-0.1-0.1-0.2-0.2-0.4-0.3
		c-0.1-0.1-0.3-0.2-0.5-0.2s-0.4-0.2-0.7-0.2c-0.3-0.1-0.6-0.3-0.8-0.4c-0.2-0.1-0.4-0.3-0.6-0.5c-0.2-0.2-0.3-0.4-0.4-0.6
		c-0.1-0.2-0.1-0.5-0.1-0.8c0-0.4,0.1-0.7,0.3-0.9c0.2-0.3,0.4-0.5,0.7-0.7s0.6-0.3,1-0.4c0.4-0.1,0.7-0.1,1.1-0.1
		c0.7,0,1.3,0.1,1.8,0.3v1.5c-0.5-0.4-1.1-0.5-1.8-0.5c-0.2,0-0.4,0-0.6,0.1c-0.2,0-0.3,0.1-0.4,0.2s-0.2,0.2-0.3,0.3
		c-0.1,0.1-0.1,0.2-0.1,0.4c0,0.2,0,0.3,0.1,0.4c0.1,0.1,0.2,0.2,0.3,0.3s0.3,0.2,0.5,0.2c0.2,0.1,0.4,0.1,0.6,0.2
		c0.3,0.1,0.6,0.3,0.9,0.4c0.3,0.1,0.5,0.3,0.7,0.5c0.2,0.2,0.3,0.4,0.4,0.6c0.1,0.2,0.1,0.5,0.1,0.8c0,0.4-0.1,0.7-0.3,1
		c-0.2,0.3-0.4,0.5-0.7,0.7s-0.6,0.3-1,0.4c-0.4,0.1-0.8,0.1-1.2,0.1C86.2,25.9,85.5,25.8,84.9,25.5z"/>
	<path class="st1" d="M95.1,25.9c-1.1,0-2.1-0.3-2.8-1c-0.7-0.7-1-1.6-1-2.8c0-1.3,0.4-2.2,1.1-2.9c0.7-0.7,1.7-1.1,2.9-1.1
		c1.2,0,2.1,0.3,2.7,1s1,1.6,1,2.8c0,1.2-0.4,2.1-1.1,2.9C97.2,25.5,96.3,25.9,95.1,25.9z M95.2,19.4c-0.7,0-1.2,0.2-1.6,0.7
		C93.2,20.6,93,21.2,93,22c0,0.8,0.2,1.4,0.6,1.8s0.9,0.7,1.6,0.7c0.7,0,1.2-0.2,1.5-0.7c0.4-0.4,0.5-1.1,0.5-1.9
		c0-0.8-0.2-1.5-0.5-1.9C96.4,19.7,95.9,19.4,95.2,19.4z"/>
	<path class="st1" d="M104.7,16.1c-0.2-0.1-0.5-0.2-0.8-0.2c-0.8,0-1.2,0.5-1.2,1.4v1h1.7v1.3h-1.7v6.1H101v-6.1h-1.3v-1.3h1.3v-1.2
		c0-0.8,0.3-1.4,0.8-1.9s1.2-0.7,1.9-0.7c0.4,0,0.7,0,1,0.1V16.1z"/>
	<path class="st1" d="M109.8,25.6c-0.3,0.2-0.8,0.2-1.3,0.2c-1.4,0-2.2-0.7-2.2-2.1v-4.2h-1.2v-1.3h1.2v-1.7l1.7-0.5v2.2h1.8v1.3
		H108v3.7c0,0.4,0.1,0.8,0.2,0.9c0.2,0.2,0.4,0.3,0.8,0.3c0.3,0,0.5-0.1,0.7-0.2V25.6z"/>
</g>
<g class="st0">
	<path class="st1" d="M115,15.3c0.9,0.1,2,0.1,3,0.1h6.4c0.5,0,0.9,0,1-0.1c0.2-0.1,0.3-0.1,0.3-0.1c0.1,0,0.2,0.1,0.3,0.2
		c0.3,0.2,0.6,0.5,0.9,0.9c0.1,0.1,0.1,0.2,0.1,0.3c0,0.1-0.1,0.2-0.2,0.3c-0.1,0.1-0.3,0.2-0.4,0.4c-0.7,1.1-1.6,2.1-2.6,2.9
		c-0.1,0.1-0.2,0.1-0.3,0.1c-0.1,0-0.2,0-0.4-0.1c-0.3-0.3-0.7-0.5-1.2-0.6c0.7-0.5,1.2-0.9,1.6-1.3c0.4-0.4,0.8-0.8,1.1-1.3h-6.4
		c-0.6,0-1.5,0-2.6,0.1c-0.1,0-0.2-0.1-0.3-0.2C115.2,16.6,115.1,16.1,115,15.3z M115.9,25.7c0.9-0.4,1.5-0.9,2-1.4
		c0.4-0.4,0.8-0.9,1.1-1.5c0.5-0.9,0.7-2.1,0.7-3.5c0-0.5,0-1-0.1-1.4c0.9,0.1,1.5,0.2,1.9,0.3c0.2,0,0.3,0.1,0.3,0.3
		c0,0.1,0,0.2-0.1,0.3c-0.1,0.2-0.1,0.4-0.1,0.6c-0.1,1.7-0.3,3.1-0.9,4.1c-0.6,1.2-1.5,2.2-2.7,3c-0.2,0.1-0.3,0.1-0.4,0.1
		c-0.1,0-0.2,0-0.3-0.1C116.9,26.1,116.4,25.9,115.9,25.7z"/>
	<path class="st1" d="M133.4,17.5c0.1-0.7,0.1-1.4,0.1-2c0-0.4,0-0.8-0.1-1.2c0.8,0.1,1.5,0.2,1.9,0.3c0.2,0.1,0.3,0.2,0.3,0.3
		c0,0.1,0,0.2-0.1,0.3c-0.1,0.2-0.2,0.4-0.2,0.7c0,0.1,0,0.3-0.1,0.7c0,0.3,0,0.6-0.1,0.8h2.3l2.1,0c0.2,0,0.3,0.1,0.3,0.2
		c0,0,0,0.5-0.1,1.6c-0.1,2.2-0.3,3.9-0.6,4.9c-0.2,0.6-0.4,1.1-0.7,1.4c-0.3,0.3-0.6,0.5-1.1,0.6c-0.4,0.1-0.9,0.2-1.5,0.2
		c-0.2,0-0.3-0.1-0.4-0.3c-0.2-0.5-0.5-1-0.9-1.4c0.3,0,0.5,0,0.7,0c0.6,0,1,0,1.4-0.1c0.2-0.1,0.4-0.2,0.5-0.4
		c0.1-0.2,0.2-0.4,0.3-0.7c0.3-1.1,0.4-2.6,0.4-4.5h-3c-0.3,1.8-0.7,3.2-1.3,4.1c-0.7,1.2-1.8,2.2-3.2,3.1c-0.1,0.1-0.2,0.1-0.3,0.1
		c-0.1,0-0.2,0-0.3-0.1c-0.3-0.3-0.7-0.6-1.3-0.9c1.5-0.8,2.7-1.8,3.5-3c0.5-0.8,0.9-1.9,1.1-3.2h-1.3c-0.7,0-1.4,0-2.1,0.1
		c0,0,0,0,0,0c-0.1,0-0.2-0.1-0.2-0.3c0-0.2-0.1-0.7-0.1-1.4c0.6,0,1.5,0.1,2.5,0.1H133.4z"/>
	<path class="st1" d="M149.1,16.6h2c0.6,0,0.9-0.1,1.1-0.2c0.1,0,0.1-0.1,0.2-0.1c0.1,0,0.2,0.1,0.3,0.2c0.4,0.3,0.7,0.6,1,0.9
		c0.1,0.1,0.1,0.1,0.1,0.2c0,0.1-0.1,0.2-0.2,0.3c-0.1,0.1-0.2,0.4-0.3,0.7c-0.6,1.9-1.2,3.3-1.9,4.4c-0.5,0.7-1.1,1.4-1.8,2.1
		c-0.7,0.6-1.3,1.1-2,1.5c-0.1,0.1-0.2,0.1-0.2,0.1c-0.1,0-0.2-0.1-0.3-0.2c-0.4-0.3-0.9-0.5-1.5-0.7c1.1-0.6,2-1.2,2.7-1.8
		c0.6-0.5,1.1-1.2,1.6-1.9c0.8-1.2,1.4-2.6,1.7-4.2h-6.5v1.3c0,0.2,0,0.6,0,1c0,0.5,0,0.8,0,0.8c0,0.1,0,0.2-0.1,0.2
		c0,0-0.1,0-0.2,0c-0.2,0-0.4,0-0.7,0c-0.2,0-0.5,0-0.7,0c-0.2,0-0.2-0.1-0.2-0.2c0-1,0-1.6,0-1.8v-1.2c0-0.7,0-1.2,0-1.4
		c0,0,0,0,0,0c0-0.1,0.1-0.2,0.2-0.2c0.7,0,1.5,0,2.3,0h1.5v-0.6c0-0.9,0-1.6-0.1-2c0.9,0.1,1.5,0.1,1.8,0.2c0.2,0,0.3,0.1,0.3,0.3
		c0,0.1,0,0.1-0.1,0.2c-0.1,0.3-0.2,0.7-0.2,1.1V16.6z"/>
	<path class="st1" d="M156.4,16.8c0.2-0.3,0.6-0.7,1-1.2c0.1-0.1,0.1-0.1,0.2-0.1c0,0,0.1,0,0.2,0.1c0.9,0.5,1.9,1.2,2.8,2.1
		c0.1,0.1,0.1,0.2,0.1,0.2c0,0.1,0,0.1-0.1,0.2c-0.3,0.4-0.6,0.8-0.9,1.1c-0.1,0.1-0.1,0.1-0.2,0.1c0,0-0.1,0-0.2-0.1
		C158.5,18.3,157.5,17.5,156.4,16.8z M156.7,24.3c0.8-0.2,1.5-0.5,2-0.7c1-0.5,1.8-1,2.4-1.4c0.6-0.4,1.2-0.8,1.9-1.4
		c1-0.8,1.8-1.5,2.4-2.1c0.6-0.6,1.1-1.2,1.7-2c0.1,0.7,0.2,1.2,0.4,1.7c0,0.1,0.1,0.2,0.1,0.3c0,0.1-0.1,0.3-0.2,0.5
		c-0.9,1-2,2.1-3.4,3.2c-1.2,1-2.7,1.9-4.5,2.9c-0.5,0.3-0.9,0.5-1,0.7c-0.1,0.1-0.2,0.1-0.3,0.1c-0.1,0-0.2-0.1-0.3-0.2
		C157.4,25.4,157,24.9,156.7,24.3z"/>
	<path class="st1" d="M173.3,18.5c1.9,0.6,3.5,1.3,4.7,2c0.1,0.1,0.2,0.2,0.2,0.3c0,0,0,0.1,0,0.1c-0.2,0.5-0.4,0.9-0.6,1.3
		c-0.1,0.1-0.1,0.2-0.2,0.2c-0.1,0-0.1,0-0.2-0.1c-1.4-0.9-2.7-1.5-3.9-1.9v3.3c0,0.5,0,1.5,0.1,2.9c0,0,0,0,0,0
		c0,0.1-0.1,0.2-0.3,0.2c-0.2,0-0.4,0-0.7,0c-0.2,0-0.4,0-0.7,0c-0.2,0-0.3-0.1-0.3-0.2c0-1,0.1-1.9,0.1-2.9v-7.3
		c0-0.9,0-1.6-0.1-2.2c0.9,0.1,1.5,0.1,1.9,0.2c0.2,0,0.3,0.1,0.3,0.3c0,0.1,0,0.2-0.1,0.3c-0.1,0.1-0.1,0.6-0.1,1.4V18.5z"/>
	<path class="st1" d="M180,16.7c0.5,0,1.3-0.1,2.4-0.3c3.9-0.6,6.9-1,8.9-1.3c0,0,0.1,0,0.1,0c0.1,0,0.2,0.1,0.2,0.2
		c0.1,0.4,0.2,0.9,0.2,1.3c0,0.2-0.1,0.2-0.3,0.2c-0.7,0-1.3,0.2-1.8,0.3c-1.3,0.4-2.3,1.1-3,2c-0.6,0.7-0.8,1.5-0.8,2.4
		c0,1.9,1.3,3,4,3.1c0.2,0,0.3,0.1,0.3,0.2c0,0.5-0.1,0.9-0.2,1.3c0,0.2-0.1,0.3-0.3,0.3c-1.6,0-2.9-0.4-3.9-1.3
		c-1-0.8-1.6-2-1.6-3.3c0-1.1,0.3-2,0.9-2.9c0.5-0.7,1.1-1.3,2-1.9v0c-1.8,0.3-3.5,0.7-5,1c-0.5,0.1-0.8,0.2-0.9,0.2
		c-0.2,0.1-0.3,0.1-0.3,0.1c-0.1,0-0.2-0.1-0.3-0.2C180.4,18,180.2,17.4,180,16.7z M189.3,19.3l0.8-0.6c0,0,0.1,0,0.1,0
		c0,0,0.1,0,0.1,0.1c0.5,0.4,1,0.9,1.4,1.6c0,0,0,0.1,0,0.1c0,0,0,0.1-0.1,0.1l-0.6,0.5c0,0-0.1,0-0.1,0c0,0-0.1,0-0.1-0.1
		C190.3,20.4,189.8,19.8,189.3,19.3z M190.6,18.4l0.7-0.5c0,0,0.1,0,0.1,0c0,0,0.1,0,0.1,0.1c0.6,0.4,1,0.9,1.4,1.5c0,0,0,0.1,0,0.1
		c0,0,0,0.1-0.1,0.1l-0.6,0.5c0,0-0.1,0.1-0.1,0.1c0,0-0.1,0-0.1-0.1C191.7,19.4,191.2,18.8,190.6,18.4z"/>
	<path class="st1" d="M204.2,17.7h0.5c0.8,0,1.6,0,2.2,0c0,0,0,0,0,0c0.1,0,0.2,0.1,0.2,0.2c0,0.2,0,0.4,0,0.6c0,0.2,0,0.4,0,0.6
		c0,0.2-0.1,0.2-0.2,0.2c0,0,0,0-0.1,0l-2.1,0h-0.6c0,1.1-0.2,2-0.4,2.8c-0.2,0.6-0.4,1.2-0.8,1.8c-0.7,1.2-1.9,2.1-3.5,2.8
		c-0.2,0.1-0.3,0.1-0.4,0.1c-0.1,0-0.2-0.1-0.3-0.2c-0.4-0.4-0.8-0.7-1.2-0.9c1.1-0.3,2-0.7,2.6-1.2c0.6-0.4,1-0.9,1.4-1.4
		c0.3-0.5,0.5-1.1,0.7-1.7c0.1-0.6,0.2-1.3,0.2-2.1h-3.2v0.5c0,1.1,0,1.9,0,2.5c0,0.1-0.1,0.2-0.3,0.2c-0.2,0-0.4,0-0.6,0
		c-0.2,0-0.4,0-0.6,0c-0.2,0-0.3-0.1-0.3-0.2c0,0,0,0,0,0c0.1-0.8,0.1-1.7,0.1-2.4v-0.6h-0.5c-0.9,0-1.7,0-2.5,0.1
		c-0.1,0-0.2-0.1-0.2-0.3c0-0.2-0.1-0.6-0.1-1.4c0.7,0,1.6,0.1,2.7,0.1h0.5v-1.1c0-0.8-0.1-1.5-0.2-2.2c1,0.1,1.6,0.2,1.8,0.2
		c0.2,0,0.2,0.1,0.2,0.2c0,0.1,0,0.2-0.1,0.3c-0.1,0.2-0.1,0.7-0.1,1.4v1.1h3.2l0-1.5c0-0.1,0-0.2,0-0.3c0-0.7,0-1.3-0.1-1.7
		c0.9,0.1,1.5,0.2,1.7,0.3c0.2,0,0.3,0.1,0.3,0.2c0,0.1,0,0.2-0.1,0.3c-0.1,0.2-0.1,0.7-0.1,1.3V17.7z"/>
	<path class="st1" d="M216.4,18.4v4.9c0,0.9,0,1.9,0,3.1c0,0,0,0,0,0c0,0.1-0.1,0.2-0.2,0.2c-0.2,0-0.5,0-0.7,0c-0.3,0-0.5,0-0.7,0
		c-0.1,0-0.2-0.1-0.2-0.2c0,0,0,0,0-0.1c0-0.2,0-0.8,0-1.7c0-0.6,0-1,0-1.4v-3.5c-1.5,1.3-2.9,2.2-4.1,2.9c-0.1,0-0.1,0.1-0.2,0.1
		c-0.1,0-0.2,0-0.3-0.1c-0.3-0.3-0.7-0.6-1.3-0.9c1.8-0.9,3.3-1.9,4.7-3.1c1.2-1,2.3-2,3.2-3.1c0.4-0.5,0.8-1,0.9-1.5
		c0.8,0.4,1.3,0.8,1.7,1c0.1,0.1,0.1,0.1,0.1,0.2c0,0.1-0.1,0.2-0.2,0.3c-0.2,0.1-0.5,0.4-0.9,0.8C217.6,17.1,217,17.8,216.4,18.4z"
		/>
	<path class="st1" d="M221.6,16.8c0.2-0.3,0.6-0.7,1-1.2c0.1-0.1,0.1-0.1,0.2-0.1c0,0,0.1,0,0.2,0.1c0.9,0.5,1.9,1.2,2.8,2.1
		c0.1,0.1,0.1,0.2,0.1,0.2c0,0.1,0,0.1-0.1,0.2c-0.3,0.4-0.6,0.8-0.9,1.1c-0.1,0.1-0.1,0.1-0.2,0.1c0,0-0.1,0-0.2-0.1
		C223.8,18.3,222.7,17.5,221.6,16.8z M221.9,24.3c0.8-0.2,1.5-0.5,2-0.7c1-0.5,1.8-1,2.4-1.4c0.6-0.4,1.2-0.8,1.9-1.4
		c1-0.8,1.8-1.5,2.4-2.1c0.6-0.6,1.1-1.2,1.7-2c0.1,0.7,0.2,1.2,0.4,1.7c0,0.1,0.1,0.2,0.1,0.3c0,0.1-0.1,0.3-0.2,0.5
		c-0.9,1-2,2.1-3.4,3.2c-1.2,1-2.7,1.9-4.5,2.9c-0.5,0.3-0.9,0.5-1,0.7c-0.1,0.1-0.2,0.1-0.3,0.1c-0.1,0-0.2-0.1-0.3-0.2
		C222.7,25.4,222.3,24.9,221.9,24.3z"/>
	<path class="st1" d="M242,18.4v4.9c0,0.9,0,1.9,0,3.1c0,0,0,0,0,0c0,0.1-0.1,0.2-0.2,0.2c-0.2,0-0.5,0-0.7,0s-0.5,0-0.7,0
		c-0.1,0-0.2-0.1-0.2-0.2c0,0,0,0,0-0.1c0-0.2,0-0.8,0-1.7c0-0.6,0-1,0-1.4v-3.5c-1.5,1.3-2.9,2.2-4.1,2.9c-0.1,0-0.1,0.1-0.2,0.1
		c-0.1,0-0.2,0-0.3-0.1c-0.3-0.3-0.7-0.6-1.3-0.9c1.8-0.9,3.3-1.9,4.7-3.1c1.2-1,2.3-2,3.2-3.1c0.4-0.5,0.8-1,0.9-1.5
		c0.8,0.4,1.3,0.8,1.7,1c0.1,0.1,0.1,0.1,0.1,0.2c0,0.1-0.1,0.2-0.2,0.3c-0.2,0.1-0.5,0.4-0.9,0.8C243.2,17.1,242.6,17.8,242,18.4z"
		/>
	<path class="st1" d="M247.2,16.8c0.2-0.3,0.6-0.7,1-1.2c0.1-0.1,0.1-0.1,0.2-0.1c0,0,0.1,0,0.2,0.1c0.9,0.5,1.9,1.2,2.8,2.1
		c0.1,0.1,0.1,0.2,0.1,0.2c0,0.1,0,0.1-0.1,0.2c-0.3,0.4-0.6,0.8-0.9,1.1c-0.1,0.1-0.1,0.1-0.2,0.1c0,0-0.1,0-0.2-0.1
		C249.4,18.3,248.4,17.5,247.2,16.8z M247.6,24.3c0.8-0.2,1.5-0.5,2-0.7c1-0.5,1.8-1,2.4-1.4c0.6-0.4,1.2-0.8,1.9-1.4
		c1-0.8,1.8-1.5,2.4-2.1c0.6-0.6,1.1-1.2,1.7-2c0.1,0.7,0.2,1.2,0.4,1.7c0,0.1,0.1,0.2,0.1,0.3c0,0.1-0.1,0.3-0.2,0.5
		c-0.9,1-2,2.1-3.4,3.2c-1.2,1-2.7,1.9-4.5,2.9c-0.5,0.3-0.9,0.5-1,0.7c-0.1,0.1-0.2,0.1-0.3,0.1s-0.2-0.1-0.3-0.2
		C248.3,25.4,247.9,24.9,247.6,24.3z"/>
</g>
</svg>
