<?xml version="1.0" encoding="utf-8"?>
<!-- Generator: Adobe Illustrator 22.1.0, SVG Export Plug-In . SVG Version: 6.00 Build 0)  -->
<svg version="1.1" id="Layer_1" xmlns="http://www.w3.org/2000/svg" xmlns:xlink="http://www.w3.org/1999/xlink" x="0px" y="0px"
	 viewBox="0 0 114 41" style="enable-background:new 0 0 114 41;" xml:space="preserve">
<style type="text/css">
	.st0{enable-background:new    ;}
	.st1{fill:#5E5E5E;}
</style>
<image style="overflow:visible;enable-background:new    ;" width="114" height="41" id="Background" xlink:href="81B76808.jpg"  transform="matrix(1 0 0 1 0 1.682073e-05)">
</image>
<g id="サインイン" class="st0">
	<path class="st1" d="M52.4,17.9h-3.1v3.7h-1.5v-3.7h-2.2v-1.4h2.2v-2.7h1.5v2.7h3.1v-2.7H54v2.7h2.3v1.4H54v0.9
		c0,2.4-0.5,4.1-1.6,5.3c-0.8,0.9-2.2,1.6-4,2L47.5,25c1.9-0.4,3.2-1.1,3.9-2c0.7-0.9,1-2.2,1-4V17.9z"/>
	<path class="st1" d="M61.1,18.9c-1.1,0.8-2.4,1.6-3.7,2.4L56.4,20c1.7-0.9,3.3-1.9,4.7-3c1.3-1.1,2.3-2.2,3-3.3l1.5,0.9
		c-0.9,1.1-1.9,2.1-2.9,3v8.5h-1.6V18.9z"/>
	<path class="st1" d="M65.8,14.9c1.3,0.7,2.6,1.5,3.6,2.3l-1.1,1.5c-1.1-1-2.3-1.8-3.6-2.5L65.8,14.9z M72.8,15.5l1.5,0.8
		c-0.4,2.7-1.3,4.8-2.7,6.4c-1.4,1.6-3.4,2.7-5.9,3.4L65,24.6c2.7-0.6,4.7-1.8,6-3.6C71.9,19.6,72.5,17.8,72.8,15.5z"/>
	<path class="st1" d="M78.7,18.9c-1.1,0.8-2.4,1.6-3.7,2.4L74.1,20c1.7-0.9,3.3-1.9,4.7-3c1.3-1.1,2.3-2.2,3-3.3l1.5,0.9
		c-0.9,1.1-1.9,2.1-2.9,3v8.5h-1.6V18.9z"/>
	<path class="st1" d="M83.4,14.9c1.3,0.7,2.6,1.5,3.6,2.3L86,18.7c-1.1-1-2.3-1.8-3.6-2.5L83.4,14.9z M90.4,15.5l1.5,0.8
		c-0.4,2.7-1.3,4.8-2.7,6.4c-1.4,1.6-3.4,2.7-5.9,3.4l-0.8-1.5c2.7-0.6,4.7-1.8,6-3.6C89.5,19.6,90.2,17.8,90.4,15.5z"/>
</g>
</svg>
