<?xml version="1.0" encoding="utf-8"?>
<!-- Generator: Adobe Illustrator 22.1.0, SVG Export Plug-In . SVG Version: 6.00 Build 0)  -->
<svg version="1.1" id="Layer_1" xmlns="http://www.w3.org/2000/svg" xmlns:xlink="http://www.w3.org/1999/xlink" x="0px" y="0px"
	 viewBox="0 0 114 41" style="enable-background:new 0 0 114 41;" xml:space="preserve">
<style type="text/css">
	.st0{enable-background:new    ;}
	.st1{fill:#FFFFFF;}
</style>
<image style="overflow:visible;enable-background:new    ;" width="114" height="41" id="Background" xlink:href="70F5D892.jpg"  transform="matrix(1 0 0 1 0 1.682073e-05)">
</image>
<g id="サインイン" class="st0">
	<path class="st1" d="M52.4,17.9h-3.1v3.7h-1.5v-3.7h-2.2v-1.4h2.2v-2.7h1.5v2.7h3.1v-2.7h1.5v2.7h2.3v1.4h-2.3v0.9
		c0,2.4-0.5,4.1-1.5,5.2c-0.8,0.9-2.2,1.6-4,2l-0.9-1.2c1.9-0.4,3.2-1.1,3.9-2c0.7-0.9,1-2.2,1-4V17.9z"/>
	<path class="st1" d="M60.9,18.8c-1.1,0.8-2.4,1.6-3.7,2.3l-0.9-1.3c1.7-0.9,3.3-1.9,4.6-3c1.3-1.1,2.2-2.1,3-3.3l1.5,0.9
		c-0.9,1.1-1.9,2.1-2.8,3V26h-1.6V18.8z"/>
	<path class="st1" d="M65.6,14.9c1.3,0.7,2.5,1.4,3.6,2.3l-1,1.4c-1.1-1-2.3-1.8-3.5-2.5L65.6,14.9z M72.6,15.5l1.5,0.8
		c-0.4,2.7-1.3,4.8-2.7,6.3c-1.4,1.6-3.3,2.7-5.8,3.3l-0.8-1.5c2.7-0.6,4.6-1.8,5.9-3.6C71.7,19.5,72.3,17.7,72.6,15.5z"/>
	<path class="st1" d="M78.4,18.8c-1.1,0.8-2.4,1.6-3.7,2.3l-0.9-1.3c1.7-0.9,3.3-1.9,4.6-3c1.3-1.1,2.2-2.1,3-3.3l1.5,0.9
		c-0.9,1.1-1.9,2.1-2.8,3V26h-1.6V18.8z"/>
	<path class="st1" d="M83.1,14.9c1.3,0.7,2.5,1.4,3.6,2.3l-1,1.4c-1.1-1-2.3-1.8-3.5-2.5L83.1,14.9z M90,15.5l1.5,0.8
		c-0.4,2.7-1.3,4.8-2.7,6.3c-1.4,1.6-3.3,2.7-5.9,3.3l-0.8-1.5c2.7-0.6,4.6-1.8,5.9-3.6C89.1,19.5,89.8,17.7,90,15.5z"/>
</g>
</svg>
