<?xml version="1.0" encoding="utf-8"?>
<!-- Generator: Adobe Illustrator 22.1.0, SVG Export Plug-In . SVG Version: 6.00 Build 0)  -->
<svg version="1.1" id="Layer_1" xmlns="http://www.w3.org/2000/svg" xmlns:xlink="http://www.w3.org/1999/xlink" x="0px" y="0px"
	 viewBox="0 0 270 41" style="enable-background:new 0 0 270 41;" xml:space="preserve">
<style type="text/css">
	.st0{enable-background:new    ;}
	.st1{fill:#5E5E5E;}
</style>
<image style="overflow:visible;enable-background:new    ;" width="270" height="41" id="Background_copy" xlink:href="8A9342B1.jpg"  transform="matrix(1 0 0 1 0 1.682073e-05)">
</image>
<g class="st0">
	<path class="st1" d="M57.8,25.7h-1.7V19c0-0.6,0-1.2,0.1-2h0c-0.1,0.5-0.2,0.8-0.3,1l-3.1,7.8h-1.2L48.5,18c-0.1-0.2-0.2-0.6-0.3-1
		h0c0,0.4,0.1,1.1,0.1,2v6.7h-1.6V15.3h2.4l2.7,6.9c0.2,0.5,0.3,0.9,0.4,1.2h0c0.2-0.5,0.3-1,0.4-1.2l2.8-6.9h2.4V25.7z"/>
	<path class="st1" d="M61.1,16.7c-0.3,0-0.5-0.1-0.7-0.3C60.1,16.3,60,16,60,15.7s0.1-0.5,0.3-0.7c0.2-0.2,0.4-0.3,0.7-0.3
		c0.3,0,0.5,0.1,0.7,0.3c0.2,0.2,0.3,0.4,0.3,0.7c0,0.3-0.1,0.5-0.3,0.7C61.6,16.6,61.3,16.7,61.1,16.7z M61.9,25.7h-1.7v-7.5h1.7
		V25.7z"/>
	<path class="st1" d="M69.4,25.4c-0.6,0.3-1.3,0.5-2.1,0.5c-1.1,0-2-0.3-2.7-1s-1-1.6-1-2.7c0-1.2,0.4-2.2,1.1-3
		c0.7-0.7,1.7-1.1,2.9-1.1c0.7,0,1.3,0.1,1.8,0.4V20c-0.5-0.4-1.1-0.6-1.7-0.6c-0.7,0-1.3,0.2-1.8,0.7c-0.5,0.5-0.7,1.1-0.7,1.9
		c0,0.8,0.2,1.4,0.6,1.8c0.4,0.4,1,0.7,1.7,0.7c0.6,0,1.2-0.2,1.7-0.6V25.4z"/>
	<path class="st1" d="M75.4,19.9c-0.2-0.2-0.5-0.2-0.9-0.2c-0.5,0-0.9,0.2-1.3,0.7c-0.3,0.5-0.5,1.1-0.5,1.8v3.6h-1.7v-7.5h1.7v1.5
		h0c0.2-0.5,0.4-0.9,0.8-1.2c0.3-0.3,0.7-0.4,1.1-0.4c0.3,0,0.5,0,0.7,0.1V19.9z"/>
	<path class="st1" d="M79.8,25.9c-1.1,0-2.1-0.3-2.8-1c-0.7-0.7-1-1.6-1-2.8c0-1.3,0.4-2.2,1.1-2.9c0.7-0.7,1.7-1.1,2.9-1.1
		c1.2,0,2.1,0.3,2.7,1c0.7,0.7,1,1.6,1,2.8c0,1.2-0.4,2.1-1.1,2.9C81.9,25.5,81,25.9,79.8,25.9z M79.9,19.4c-0.7,0-1.2,0.2-1.6,0.7
		s-0.6,1.1-0.6,1.9c0,0.8,0.2,1.4,0.6,1.8c0.4,0.4,0.9,0.7,1.6,0.7c0.7,0,1.2-0.2,1.5-0.7c0.4-0.4,0.5-1.1,0.5-1.9
		c0-0.8-0.2-1.5-0.5-1.9S80.5,19.4,79.9,19.4z"/>
	<path class="st1" d="M84.9,25.5v-1.6c0.6,0.5,1.3,0.7,2.1,0.7c1,0,1.5-0.3,1.5-0.9c0-0.2,0-0.3-0.1-0.4c-0.1-0.1-0.2-0.2-0.4-0.3
		c-0.1-0.1-0.3-0.2-0.5-0.2c-0.2-0.1-0.4-0.2-0.7-0.2c-0.3-0.1-0.6-0.3-0.8-0.4s-0.4-0.3-0.6-0.5s-0.3-0.4-0.4-0.6
		c-0.1-0.2-0.1-0.5-0.1-0.8c0-0.4,0.1-0.7,0.3-0.9c0.2-0.3,0.4-0.5,0.7-0.7c0.3-0.2,0.6-0.3,1-0.4c0.4-0.1,0.7-0.1,1.1-0.1
		c0.7,0,1.3,0.1,1.8,0.3v1.5c-0.5-0.4-1.1-0.5-1.8-0.5c-0.2,0-0.4,0-0.6,0.1c-0.2,0-0.3,0.1-0.4,0.2c-0.1,0.1-0.2,0.2-0.3,0.3
		c-0.1,0.1-0.1,0.2-0.1,0.4c0,0.2,0,0.3,0.1,0.4c0.1,0.1,0.2,0.2,0.3,0.3c0.1,0.1,0.3,0.2,0.5,0.2c0.2,0.1,0.4,0.1,0.6,0.2
		c0.3,0.1,0.6,0.3,0.9,0.4c0.3,0.1,0.5,0.3,0.7,0.5c0.2,0.2,0.3,0.4,0.4,0.6c0.1,0.2,0.1,0.5,0.1,0.8c0,0.4-0.1,0.7-0.3,1
		c-0.2,0.3-0.4,0.5-0.7,0.7s-0.6,0.3-1,0.4s-0.8,0.1-1.2,0.1C86.2,25.9,85.5,25.8,84.9,25.5z"/>
	<path class="st1" d="M95.1,25.9c-1.1,0-2.1-0.3-2.8-1c-0.7-0.7-1-1.6-1-2.8c0-1.3,0.4-2.2,1.1-2.9c0.7-0.7,1.7-1.1,2.9-1.1
		c1.2,0,2.1,0.3,2.7,1c0.7,0.7,1,1.6,1,2.8c0,1.2-0.4,2.1-1.1,2.9C97.2,25.5,96.3,25.9,95.1,25.9z M95.2,19.4
		c-0.7,0-1.2,0.2-1.6,0.7s-0.6,1.1-0.6,1.9c0,0.8,0.2,1.4,0.6,1.8c0.4,0.4,0.9,0.7,1.6,0.7c0.7,0,1.2-0.2,1.5-0.7
		c0.4-0.4,0.5-1.1,0.5-1.9c0-0.8-0.2-1.5-0.5-1.9S95.9,19.4,95.2,19.4z"/>
	<path class="st1" d="M104.7,16.1c-0.2-0.1-0.5-0.2-0.8-0.2c-0.8,0-1.2,0.5-1.2,1.4v1h1.7v1.3h-1.7v6.1H101v-6.1h-1.3v-1.3h1.3v-1.2
		c0-0.8,0.3-1.4,0.8-1.9s1.2-0.7,1.9-0.7c0.4,0,0.7,0,1,0.1V16.1z"/>
	<path class="st1" d="M109.8,25.6c-0.3,0.2-0.8,0.2-1.3,0.2c-1.4,0-2.2-0.7-2.2-2.1v-4.2h-1.2v-1.3h1.2v-1.7l1.7-0.5v2.2h1.8v1.3
		H108v3.7c0,0.4,0.1,0.8,0.2,0.9c0.2,0.2,0.4,0.3,0.8,0.3c0.3,0,0.5-0.1,0.7-0.2V25.6z"/>
</g>
<g class="st0">
	<path class="st1" d="M114.4,15h9.8l0.4,0.5c-0.2,1.3-0.5,2.3-1,3.2c-0.4,0.8-1,1.5-1.7,2.1l-1.3-1c0.6-0.5,1.1-1,1.5-1.7
		c0.3-0.5,0.5-1.1,0.6-1.6h-8.3V15z M114.7,25.7c1.4-0.5,2.3-1.3,2.8-2.2c0.5-0.8,0.7-1.9,0.7-3.4v-2.5h1.7v2.3c0,2-0.4,3.6-1.2,4.7
		c-0.6,0.9-1.6,1.7-2.9,2.3L114.7,25.7z"/>
	<path class="st1" d="M129.9,16.7h4.4c0,3.5-0.1,6-0.3,7.7c-0.1,0.9-0.4,1.4-0.8,1.7c-0.2,0.1-0.6,0.3-1,0.3
		c-0.4,0.1-1.1,0.1-1.9,0.1l-0.5-1.6c0.4,0,0.8,0.1,1.1,0.1c0.4,0,0.8,0,1-0.1c0.2,0,0.3-0.1,0.4-0.2c0.1-0.1,0.1-0.4,0.2-0.7
		c0.2-1.3,0.3-3.3,0.3-5.8h-2.8c-0.1,2.3-0.5,4.1-1.2,5.4c-0.6,1.2-1.6,2.2-2.9,3.2l-1.1-1.1c1.3-0.9,2.3-2,2.8-3.3
		c0.4-1,0.7-2.4,0.8-4.1h-3.2v-1.4h3.2v-2.5h1.7C129.9,15.4,129.9,16.3,129.9,16.7z"/>
	<path class="st1" d="M140.7,16.2h3.8c0,2.3-0.2,4.2-0.7,5.6c-0.4,1.4-1.1,2.5-2.1,3.3c-0.8,0.7-2,1.4-3.6,1.9l-0.9-1.3
		c1.3-0.4,2.3-0.9,3.1-1.5c0.8-0.6,1.4-1.4,1.7-2.5c0.4-1,0.6-2.4,0.6-4.1h-5.7V21h-1.7v-4.8h3.7V14h1.7V16.2z"/>
	<path class="st1" d="M145.9,15.3c1.4,0.7,2.6,1.5,3.7,2.4l-1.1,1.5c-1.1-1-2.3-1.9-3.7-2.6L145.9,15.3z M153.1,16l1.6,0.8
		c-0.4,2.8-1.4,4.9-2.8,6.5c-1.4,1.6-3.5,2.8-6.1,3.5l-0.8-1.5c2.8-0.6,4.8-1.8,6.1-3.7C152.1,20.1,152.8,18.3,153.1,16z"/>
	<path class="st1" d="M156.7,18.6c2.1,0.6,4,1.3,5.7,2.3l-0.8,1.6c-1.4-0.9-3-1.7-4.9-2.3v6.6H155V14.2h1.7V18.6z"/>
	<path class="st1" d="M171.2,15.1l0.1,1.5c-1,0-1.9,0.2-2.5,0.6c-2,1.1-3,2.6-3,4.6c0,2,1.5,3.1,4.5,3.4l-0.4,1.6
		c-3.7-0.3-5.6-2-5.6-4.9c0-1.1,0.3-2.2,0.9-3.1c0.5-0.8,1.2-1.5,2.2-2l0.7-0.3l0-0.1l-0.8,0.2c-1.3,0.2-3.1,0.4-5.6,0.6l-0.1-1.5
		C164.2,15.5,167.5,15.3,171.2,15.1z M168.8,18.6l1-0.3c0.4,0.7,0.8,1.5,1.1,2.5l-1,0.3C169.6,20.2,169.2,19.3,168.8,18.6z
		 M170.6,18.1l1-0.3c0.4,0.7,0.8,1.5,1.1,2.4l-1,0.4C171.3,19.6,171,18.8,170.6,18.1z"/>
	<path class="st1" d="M180.4,18.5h-3.2v3.8h-1.6v-3.8h-2.3V17h2.3v-2.8h1.6V17h3.2v-2.8h1.6V17h2.4v1.4H182v0.9
		c0,2.4-0.5,4.2-1.6,5.4c-0.9,0.9-2.2,1.6-4.1,2.1l-0.9-1.2c2-0.5,3.3-1.1,4-2.1c0.7-0.9,1.1-2.3,1.1-4.1V18.5z"/>
	<path class="st1" d="M189.3,19.4c-1.2,0.9-2.4,1.7-3.8,2.4l-0.9-1.3c1.8-0.9,3.4-1.9,4.8-3.1c1.3-1.1,2.3-2.2,3.1-3.4l1.5,0.9
		c-1,1.2-1.9,2.2-2.9,3.1v8.7h-1.7V19.4z"/>
	<path class="st1" d="M194.1,15.3c1.4,0.7,2.6,1.5,3.7,2.4l-1.1,1.5c-1.1-1-2.3-1.9-3.7-2.6L194.1,15.3z M201.3,16l1.6,0.8
		c-0.4,2.8-1.4,4.9-2.8,6.5c-1.4,1.6-3.5,2.8-6.1,3.5l-0.8-1.5c2.8-0.6,4.8-1.8,6.1-3.7C200.4,20.1,201,18.3,201.3,16z"/>
	<path class="st1" d="M207.4,19.4c-1.2,0.9-2.4,1.7-3.8,2.4l-0.9-1.3c1.8-0.9,3.4-1.9,4.8-3.1c1.3-1.1,2.3-2.2,3.1-3.4L212,15
		c-1,1.2-1.9,2.2-2.9,3.1v8.7h-1.7V19.4z"/>
	<path class="st1" d="M212.2,15.3c1.4,0.7,2.6,1.5,3.7,2.4l-1.1,1.5c-1.1-1-2.3-1.9-3.7-2.6L212.2,15.3z M219.4,16l1.6,0.8
		c-0.4,2.8-1.4,4.9-2.8,6.5c-1.4,1.6-3.5,2.8-6.1,3.5l-0.8-1.5c2.8-0.6,4.8-1.8,6.1-3.7C218.5,20.1,219.1,18.3,219.4,16z"/>
</g>
</svg>
