<svg xmlns="http://www.w3.org/2000/svg" xmlns:xlink="http://www.w3.org/1999/xlink" viewBox="0 0 240.5 395.47"><defs><style>.cls-1{fill:#fff;}.cls-2,.cls-3,.cls-9{fill:#3c3c41;}.cls-2{opacity:0.05;}.cls-2,.cls-9{isolation:isolate;}.cls-4{fill:url(#linear-gradient);}.cls-5{fill:url(#linear-gradient-2);}.cls-6{fill:url(#linear-gradient-3);}.cls-7{fill:#50e6ff;}.cls-8{fill:#1490df;}.cls-9{opacity:0.25;}.cls-10{fill:url(#linear-gradient-4);}.cls-11{fill:url(#linear-gradient-5);}.cls-12{fill:#b4ec36;}.cls-13{fill:#5ea0ef;}.cls-14{fill:url(#linear-gradient-6);}.cls-15{fill:#c3f1ff;}.cls-16{fill:#9cebff;}.cls-17{fill:url(#linear-gradient-7);}.cls-18{fill:url(#linear-gradient-8);}.cls-19{fill:url(#linear-gradient-9);}.cls-20{fill:url(#linear-gradient-10);}.cls-21{fill:url(#linear-gradient-11);}.cls-22{fill:none;stroke:#3c3c41;stroke-miterlimit:10;}.cls-23{fill:url(#linear-gradient-12);}.cls-24{fill:url(#linear-gradient-13);}.cls-25{fill:url(#linear-gradient-14);}.cls-26{fill:url(#linear-gradient-15);}.cls-27{fill:url(#linear-gradient-16);}.cls-28{fill:url(#linear-gradient-17);}.cls-29{fill:url(#linear-gradient-18);}.cls-30,.cls-44,.cls-45,.cls-47,.cls-48,.cls-56,.cls-61,.cls-65,.cls-71{font-size:12px;fill:#1e1e1e;font-family:YuGothicUI-Regular, Yu Gothic UI;}.cls-30{letter-spacing:0.01em;}.cls-31{letter-spacing:-0.01em;}.cls-32{letter-spacing:0.03em;}.cls-33{letter-spacing:0em;}.cls-34{letter-spacing:-0.01em;}.cls-35{letter-spacing:0em;}.cls-36{letter-spacing:0em;}.cls-37{letter-spacing:0em;}.cls-38{letter-spacing:0em;}.cls-39{letter-spacing:0.03em;}.cls-40{letter-spacing:-0.01em;}.cls-41{letter-spacing:0em;}.cls-42{letter-spacing:0em;}.cls-43{letter-spacing:0em;}.cls-44{letter-spacing:0em;}.cls-45{letter-spacing:0.03em;}.cls-46{letter-spacing:-0.02em;}.cls-47{letter-spacing:0.01em;}.cls-48{letter-spacing:-0.04em;}.cls-49{letter-spacing:-0.03em;}.cls-50{letter-spacing:-0.07em;}.cls-51{letter-spacing:0em;}.cls-52{letter-spacing:-0.03em;}.cls-53{letter-spacing:-0.02em;}.cls-54{letter-spacing:-0.07em;}.cls-55{letter-spacing:-0.08em;}.cls-56{letter-spacing:-0.04em;}.cls-57{letter-spacing:-0.02em;}.cls-58{letter-spacing:-0.06em;}.cls-59{letter-spacing:-0.06em;}.cls-60{letter-spacing:0.01em;}.cls-61{letter-spacing:-0.03em;}.cls-62{letter-spacing:-0.04em;}.cls-63{letter-spacing:-0.07em;}.cls-64{letter-spacing:-0.08em;}.cls-65{letter-spacing:-0.04em;}.cls-66{letter-spacing:-0.03em;}.cls-67{letter-spacing:-0.02em;}.cls-68{letter-spacing:-0.02em;}.cls-69{letter-spacing:-0.06em;}.cls-70{letter-spacing:-0.05em;}.cls-71{letter-spacing:0.01em;}.cls-72{letter-spacing:-0.02em;}.cls-73{letter-spacing:-0.05em;}.cls-74{letter-spacing:-0.03em;}.cls-75{letter-spacing:-0.02em;}.cls-76{letter-spacing:-0.01em;}</style><linearGradient id="linear-gradient" x1="21.67" y1="639.04" x2="24.04" y2="641.41" gradientTransform="translate(2.11 -270.55) rotate(-0.08)" gradientUnits="userSpaceOnUse"><stop offset="0" stop-color="#86d633"/><stop offset="0.24" stop-color="#83d232"/><stop offset="0.5" stop-color="#7cc52f"/><stop offset="0.76" stop-color="#6fb02a"/><stop offset="1" stop-color="#5e9624"/></linearGradient><linearGradient id="linear-gradient-2" x1="16.33" y1="639.04" x2="18.69" y2="641.41" xlink:href="#linear-gradient"/><linearGradient id="linear-gradient-3" x1="10.99" y1="639.04" x2="13.35" y2="641.4" xlink:href="#linear-gradient"/><linearGradient id="linear-gradient-4" x1="149.14" y1="265.29" x2="149.14" y2="301.06" gradientTransform="translate(0 -269.39)" gradientUnits="userSpaceOnUse"><stop offset="0.18" stop-color="#5ea0ef"/><stop offset="1" stop-color="#0078d4"/></linearGradient><linearGradient id="linear-gradient-5" x1="149.14" y1="380.98" x2="149.14" y2="343.89" gradientTransform="translate(0 -269.39)" gradientUnits="userSpaceOnUse"><stop offset="0" stop-color="#5e9624"/><stop offset="0.02" stop-color="#5f9724"/><stop offset="1" stop-color="#76bc2d"/></linearGradient><linearGradient id="linear-gradient-6" x1="148.74" y1="438.34" x2="148.74" y2="416.7" gradientTransform="translate(0 -269.39)" gradientUnits="userSpaceOnUse"><stop offset="0" stop-color="#0078d4"/><stop offset="0.82" stop-color="#5ea0ef"/></linearGradient><linearGradient id="linear-gradient-7" x1="148.74" y1="446.7" x2="148.74" y2="438.34" gradientTransform="translate(0 -269.39)" gradientUnits="userSpaceOnUse"><stop offset="0.15" stop-color="#ccc"/><stop offset="1" stop-color="#707070"/></linearGradient><linearGradient id="linear-gradient-8" x1="96.24" y1="438.34" x2="96.24" y2="416.7" xlink:href="#linear-gradient-6"/><linearGradient id="linear-gradient-9" x1="96.24" y1="446.7" x2="96.24" y2="438.34" xlink:href="#linear-gradient-7"/><linearGradient id="linear-gradient-10" x1="201.24" y1="438.34" x2="201.24" y2="416.7" xlink:href="#linear-gradient-6"/><linearGradient id="linear-gradient-11" x1="201.24" y1="446.7" x2="201.24" y2="438.34" xlink:href="#linear-gradient-7"/><linearGradient id="linear-gradient-12" x1="149.14" y1="533.3" x2="149.14" y2="496.2" xlink:href="#linear-gradient-5"/><linearGradient id="linear-gradient-13" x1="148.74" y1="588.34" x2="148.74" y2="566.7" xlink:href="#linear-gradient-6"/><linearGradient id="linear-gradient-14" x1="148.74" y1="596.7" x2="148.74" y2="588.34" xlink:href="#linear-gradient-7"/><linearGradient id="linear-gradient-15" x1="96.24" y1="588.34" x2="96.24" y2="566.7" xlink:href="#linear-gradient-6"/><linearGradient id="linear-gradient-16" x1="96.24" y1="596.7" x2="96.24" y2="588.34" xlink:href="#linear-gradient-7"/><linearGradient id="linear-gradient-17" x1="201.24" y1="588.34" x2="201.24" y2="566.7" xlink:href="#linear-gradient-6"/><linearGradient id="linear-gradient-18" x1="201.24" y1="596.7" x2="201.24" y2="588.34" xlink:href="#linear-gradient-7"/></defs><title>OJ104939016</title><g id="shapes"><rect class="cls-1" width="240.5" height="395.47"/><rect class="cls-1" x="0.5" y="64.8" width="240" height="305" rx="5"/><rect class="cls-2" x="0.5" y="64.8" width="240" height="305" rx="5"/><path class="cls-3" d="M234.34,370.3h-1v-1h1Zm-3,0h-1v-1h1Zm-3,0h-1v-1h1Zm-3,0h-1v-1h1Zm-3,0h-1v-1h1Zm-3,0h-1v-1h1Zm-3,0h-1v-1h1Zm-3,0h-1v-1h1Zm-3,0h-1v-1h1Zm-3,0h-1v-1h1Zm-3,0h-1v-1h1Zm-3,0h-1v-1h1Zm-3,0h-1v-1h1Zm-3,0h-1v-1h1Zm-3,0h-1v-1h1Zm-3,0h-1v-1h1Zm-3,0h-1v-1h1Zm-3,0h-1v-1h1Zm-3,0h-1v-1h1Zm-3,0h-1v-1h1Zm-3,0h-1v-1h1Zm-3,0h-1v-1h1Zm-3,0h-1v-1h1Zm-3,0h-1v-1h1Zm-3,0h-1v-1h1Zm-3,0h-1v-1h1Zm-3,0h-1v-1h1Zm-3,0h-1v-1h1Zm-3,0h-1v-1h1Zm-3,0h-1v-1h1Zm-3,0h-1v-1h1Zm-3,0h-1v-1h1Zm-3,0h-1v-1h1Zm-3,0h-1v-1h1Zm-3,0h-1v-1h1Zm-3,0h-1v-1h1Zm-3,0h-1v-1h1Zm-3,0h-1v-1h1Zm-3,0h-1v-1h1Zm-3,0h-1v-1h1Zm-3,0h-1v-1h1Zm-3,0h-1v-1h1Zm-3,0h-1v-1h1Zm-3,0h-1v-1h1Zm-3,0h-1v-1h1Zm-3,0h-1v-1h1Zm-3,0h-1v-1h1Zm-3,0h-1v-1h1Zm-3,0h-1v-1h1Zm-3,0h-1v-1h1Zm-3,0h-1v-1h1Zm-3,0h-1v-1h1Zm-3,0h-1v-1h1Zm-3,0h-1v-1h1Zm-3,0h-1v-1h1Zm-3,0h-1v-1h1Zm-3,0h-1v-1h1Zm-3,0h-1v-1h1Zm-3,0h-1v-1h1Zm-3,0h-1v-1h1Zm-3,0h-1v-1h1Zm-3,0h-1v-1h1Zm-3,0h-1v-1h1Zm-3,0h-1v-1h1Zm-3,0h-1v-1h1Zm-3,0h-1v-1h1Zm-3,0h-1v-1h1Zm-30,0H5.5a4,4,0,0,1-.49,0l.09-1h1Zm230.36-.07-.16-1a4.4,4.4,0,0,0,.86-.24l.36.93a5.37,5.37,0,0,1-1.06.3ZM2.91,369.65A6,6,0,0,1,2,369l.64-.77a4.26,4.26,0,0,0,.75.5Zm236.41-.9-.69-.72a4.82,4.82,0,0,0,.58-.69l.82.57a5.64,5.64,0,0,1-.71.84ZM.63,367.34a5.09,5.09,0,0,1-.42-1l1-.27a4.48,4.48,0,0,0,.33.83Zm240.26-1.44-1-.2a4.58,4.58,0,0,0,.09-.9l1-.05v.05A5.78,5.78,0,0,1,240.89,365.9ZM1,364.2H0v-1H1Zm240-1.46h-1v-1h1ZM1,361.2H0v-1H1Zm240-1.46h-1v-1h1ZM1,358.19H0v-1H1Zm240-1.45h-1v-1h1ZM1,355.19H0v-1H1Zm240-1.46h-1v-1h1ZM1,352.19H0v-1H1Zm240-1.46h-1v-1h1ZM1,349.18H0v-1H1Zm240-1.46h-1v-1h1ZM1,346.18H0v-1H1Zm240-1.46h-1v-1h1ZM1,343.17H0v-1H1Zm240-1.45h-1v-1h1ZM1,340.17H0v-1H1Zm240-1.46h-1v-1h1ZM1,337.17H0v-1H1Zm240-1.46h-1v-1h1ZM1,334.16H0v-1H1Zm240-1.46h-1v-1h1ZM1,331.16H0v-1H1Zm240-1.46h-1v-1h1ZM1,328.16H0v-1H1Zm240-1.46h-1v-1h1ZM1,325.15H0v-1H1Zm240-1.46h-1v-1h1ZM1,322.15H0v-1H1Zm240-1.46h-1v-1h1ZM1,319.14H0v-1H1Zm240-1.45h-1v-1h1ZM1,316.14H0v-1H1Zm240-1.46h-1v-1h1ZM1,313.14H0v-1H1Zm240-1.46h-1v-1h1ZM1,310.13H0v-1H1Zm240-1.46h-1v-1h1ZM1,307.13H0v-1H1Zm240-1.46h-1v-1h1ZM1,304.13H0v-1H1Zm240-1.46h-1v-1h1ZM1,301.12H0v-1H1Zm240-1.46h-1v-1h1ZM1,298.12H0v-1H1Zm240-1.46h-1v-1h1ZM1,295.11H0v-1H1Zm240-1.45h-1v-1h1ZM1,292.11H0v-1H1Zm240-1.46h-1v-1h1ZM1,289.11H0v-1H1Zm240-1.46h-1v-1h1ZM1,286.1H0v-1H1Zm240-1.46h-1v-1h1ZM1,283.1H0v-1H1Zm240-1.46h-1v-1h1ZM1,280.1H0v-1H1Zm240-1.46h-1v-1h1ZM1,277.09H0v-1H1Zm240-1.46h-1v-1h1ZM1,274.09H0v-1H1Zm240-1.46h-1v-1h1ZM1,271.08H0v-1H1Zm240-1.45h-1v-1h1ZM1,268.08H0v-1H1Zm240-1.46h-1v-1h1ZM1,265.08H0v-1H1Zm240-1.46h-1v-1h1ZM1,262.07H0v-1H1Zm240-1.45h-1v-1h1ZM1,259.07H0v-1H1Zm240-1.46h-1v-1h1ZM1,256.07H0v-1H1Zm240-1.46h-1v-1h1ZM1,253.06H0v-1H1Zm240-1.46h-1v-1h1ZM1,250.06H0v-1H1Zm240-1.46h-1v-1h1ZM1,247.05H0v-1H1Zm240-1.45h-1v-1h1ZM1,244.05H0v-1H1Zm240-1.46h-1v-1h1ZM1,241.05H0v-1H1Zm240-1.46h-1v-1h1ZM1,238H0v-1H1Zm240-1.46h-1v-1h1ZM1,235H0v-1H1Zm240-1.46h-1v-1h1ZM1,232H0v-1H1Zm240-1.46h-1v-1h1ZM1,229H0v-1H1Zm240-1.46h-1v-1h1ZM1,226H0v-1H1Zm240-1.46h-1v-1h1ZM1,223H0v-1H1Zm240-1.45h-1v-1h1ZM1,220H0v-1H1Zm240-1.46h-1v-1h1ZM1,217H0v-1H1Zm240-1.46h-1v-1h1ZM1,214H0v-1H1Zm240-1.45h-1v-1h1ZM1,211H0v-1H1Zm240-1.46h-1v-1h1ZM1,208H0v-1H1Zm240-1.46h-1v-1h1ZM1,205H0v-1H1Zm240-1.46h-1v-1h1ZM1,202H0v-1H1Zm240-1.46h-1v-1h1ZM1,199H0v-1H1Zm240-1.45h-1v-1h1ZM1,196H0v-1H1Zm240-1.46h-1v-1h1ZM1,193H0v-1H1Zm240-1.46h-1v-1h1ZM1,190H0v-1H1Zm240-1.46h-1v-1h1ZM1,187H0v-1H1Zm240-1.46h-1v-1h1ZM1,184H0v-1H1Zm240-1.46h-1v-1h1ZM1,181H0v-1H1Zm240-1.46h-1v-1h1ZM1,178H0v-1H1Zm240-1.46h-1v-1h1ZM1,175H0v-1H1Zm240-1.45h-1v-1h1ZM1,172H0v-1H1Zm240-1.46h-1v-1h1ZM1,169H0v-1H1Zm240-1.46h-1v-1h1ZM1,166H0v-1H1Zm240-1.45h-1v-1h1ZM1,163H0v-1H1Zm240-1.46h-1v-1h1ZM1,160H0v-1H1Zm240-1.46h-1v-1h1ZM1,156.94H0v-1H1Zm240-1.46h-1v-1h1ZM1,153.94H0v-1H1Zm240-1.46h-1v-1h1ZM1,150.93H0v-1H1Zm240-1.45h-1v-1h1ZM1,147.93H0v-1H1Zm240-1.46h-1v-1h1ZM1,144.93H0v-1H1Zm240-1.46h-1v-1h1ZM1,141.92H0v-1H1Zm240-1.46h-1v-1h1ZM1,138.92H0v-1H1Zm240-1.46h-1v-1h1ZM1,135.92H0v-1H1Zm240-1.46h-1v-1h1ZM1,132.91H0v-1H1Zm240-1.46h-1v-1h1ZM1,129.91H0v-1H1Zm240-1.46h-1v-1h1ZM1,126.9H0v-1H1Zm240-1.45h-1v-1h1ZM1,123.9H0v-1H1Zm240-1.46h-1v-1h1ZM1,120.9H0v-1H1Zm240-1.46h-1v-1h1ZM1,117.89H0v-1H1Zm240-1.46h-1v-1h1ZM1,114.89H0v-1H1Zm240-1.46h-1v-1h1ZM1,111.89H0v-1H1Zm240-1.46h-1v-1h1ZM1,108.88H0v-1H1Zm240-1.46h-1v-1h1ZM1,105.88H0v-1H1Zm240-1.46h-1v-1h1ZM1,102.87H0v-1H1Zm240-1.45h-1v-1h1ZM1,99.87H0v-1H1Zm240-1.46h-1v-1h1ZM1,96.87H0v-1H1Zm240-1.46h-1v-1h1ZM1,93.86H0v-1H1ZM241,92.4h-1v-1h1ZM1,90.86H0v-1H1ZM241,89.4h-1v-1h1ZM1,87.86H0v-1H1ZM241,86.4h-1v-1h1ZM1,84.85H0v-1H1Zm240-1.46h-1v-1h1ZM1,81.85H0v-1H1Zm240-1.46h-1v-1h1ZM1,78.84H0v-1H1Zm240-1.45h-1v-1h1ZM1,75.84H0v-1H1Zm240-1.46h-1v-1h1ZM1,72.84H0v-1H1Zm240-1.46h-1v-1h1ZM0,69.83v0a5.44,5.44,0,0,1,.1-1.06l1,.2A4.91,4.91,0,0,0,1,69.8Zm239.82-1.29a5.09,5.09,0,0,0-.34-.84l.88-.46a6,6,0,0,1,.42,1Zm-238-1.25L1,66.72a6.24,6.24,0,0,1,.7-.84l.7.71A5.45,5.45,0,0,0,1.78,67.29Zm236.56-1a4.26,4.26,0,0,0-.75-.5l.47-.88a5,5,0,0,1,.91.61ZM3.86,65.62l-.37-.93a4.84,4.84,0,0,1,1-.3l.18,1A4.06,4.06,0,0,0,3.86,65.62Zm232-.3-.37,0h-.59v-1h.59l.46,0Zm-3,0h-1v-1h1Zm-3,0h-1v-1h1Zm-3,0h-1v-1h1Zm-3,0h-1v-1h1Zm-3,0h-1v-1h1Zm-3,0h-1v-1h1Zm-3,0h-1v-1h1Zm-3,0h-1v-1h1Zm-3,0h-1v-1h1Zm-3,0h-1v-1h1Zm-3,0h-1v-1h1Zm-3,0h-1v-1h1Zm-3,0h-1v-1h1Zm-3,0h-1v-1h1Zm-3,0h-1v-1h1Zm-3,0h-1v-1h1Zm-3,0h-1v-1h1Zm-3,0h-1v-1h1Zm-3,0h-1v-1h1Zm-3,0h-1v-1h1Zm-3,0h-1v-1h1Zm-3,0h-1v-1h1Zm-3,0h-1v-1h1Zm-3,0h-1v-1h1Zm-3,0h-1v-1h1Zm-3,0h-1v-1h1Zm-3,0h-1v-1h1Zm-3,0h-1v-1h1Zm-3,0h-1v-1h1Zm-3,0h-1v-1h1Zm-3,0h-1v-1h1Zm-3,0h-1v-1h1Zm-3,0h-1v-1h1Zm-3,0h-1v-1h1Zm-3,0h-1v-1h1Zm-3,0h-1v-1h1Zm-3,0h-1v-1h1Zm-3,0h-1v-1h1Zm-3,0h-1v-1h1Zm-3,0h-1v-1h1Zm-3,0h-1v-1h1Zm-3,0h-1v-1h1Zm-3,0h-1v-1h1Zm-3,0h-1v-1h1Zm-3,0h-1v-1h1Zm-3,0h-1v-1h1Zm-3,0h-1v-1h1Zm-3,0h-1v-1h1Zm-3,0h-1v-1h1Zm-3,0h-1v-1h1Zm-3,0h-1v-1h1Zm-3,0h-1v-1h1Zm-3,0h-1v-1h1Zm-3,0h-1v-1h1Zm-3,0h-1v-1h1Zm-3,0h-1v-1h1Zm-3,0h-1v-1h1Zm-3,0h-1v-1h1Zm-3,0h-1v-1h1Zm-3,0h-1v-1h1Zm-3,0h-1v-1h1Zm-3,0h-1v-1h1Zm-3,0h-1v-1h1Zm-3,0h-1v-1h1Zm-3,0h-1v-1h1Zm-3,0h-1v-1h1Zm-3,0h-1v-1h1Zm-3,0h-1v-1h1Zm-3,0h-1v-1h1Zm-3,0h-1v-1h1Zm-3,0h-1v-1h1Zm-3,0h-1v-1h1Zm-3,0h-1v-1h1Zm-3,0h-1v-1h1Zm-3,0h-1v-1h1Zm-3,0h-1v-1h1Z"/><circle class="cls-4" cx="25.86" cy="369.64" r="1.67"/><circle class="cls-5" cx="20.52" cy="369.65" r="1.67"/><circle class="cls-6" cx="15.18" cy="369.65" r="1.67"/><path class="cls-7" d="M16.39,376.35l-1,1a.44.44,0,0,1-.62,0h0l-7.09-7.07a.87.87,0,0,1,0-1.23h0l.95-1h0l7.71,7.69a.43.43,0,0,1,0,.61Z"/><path class="cls-8" d="M15.29,362l1,1a.43.43,0,0,1,0,.61l-7.57,7.6h0l-1-1a.87.87,0,0,1,0-1.22h0l7-7A.43.43,0,0,1,15.29,362Z"/><path class="cls-7" d="M32.24,368l1,1a.86.86,0,0,1,0,1.22h0l-7.1,7.08a.43.43,0,0,1-.61,0h0l-1-1a.43.43,0,0,1,0-.61h0L32.24,368Z"/><path class="cls-8" d="M33.2,370.21l-1,1h0l-7.58-7.6a.43.43,0,0,1,0-.61h0l1-1a.44.44,0,0,1,.61,0h0l7,7a.86.86,0,0,1,0,1.22h0Z"/><rect class="cls-1" x="10" y="139.3" width="220" height="65"/><rect class="cls-9" x="10" y="139.3" width="220" height="65"/><path class="cls-10" d="M167,17.85a8.16,8.16,0,0,0-7-7.91A10.26,10.26,0,0,0,149.59,0a10.52,10.52,0,0,0-9.94,7,9.67,9.67,0,0,0-8.4,9.45A10,10,0,0,0,141.34,26H159A8.25,8.25,0,0,0,167,17.85Z"/><path class="cls-11" d="M133.47,91.54l14.91-14.91a1.05,1.05,0,0,1,1.51,0l0,0,14.91,14.91a1.07,1.07,0,0,1,0,1.51l0,0L149.89,108a1.08,1.08,0,0,1-1.49,0L133.47,93.07a1.06,1.06,0,0,1,0-1.51Z"/><path class="cls-12" d="M153.05,83.42l-3.76-3.75a.21.21,0,0,0-.29,0l-3.77,3.75a.18.18,0,0,0,0,.24.22.22,0,0,0,.2.08h2.2a.19.19,0,0,1,.2.19v3.56a.19.19,0,0,0,.19.19h2.35a.19.19,0,0,0,.19-.19V83.93a.19.19,0,0,1,.2-.19h2.2a.19.19,0,0,0,.22-.13.16.16,0,0,0-.08-.19Z"/><path class="cls-12" d="M140.26,88.06l-3.74,3.78a.2.2,0,0,0,0,.27l3.74,3.75a.19.19,0,0,0,.27,0,.18.18,0,0,0,.06-.15V93.53a.2.2,0,0,1,.2-.2h3.55a.17.17,0,0,0,.18-.17V90.79a.18.18,0,0,0-.06-.24l-.06,0h-3.56a.18.18,0,0,1-.19-.16V88.2a.21.21,0,0,0-.13-.27A.2.2,0,0,0,140.26,88.06Z"/><path class="cls-12" d="M158.17,95.86,162,92.09a.2.2,0,0,0,0-.27l-3.79-3.76a.19.19,0,0,0-.27,0,.22.22,0,0,0-.05.12v2.22a.18.18,0,0,1-.17.18H154.1a.18.18,0,0,0-.18.17h0v2.37a.19.19,0,0,0,.16.19h3.58a.19.19,0,0,1,.19.2h0v2.2a.19.19,0,0,0,.22.17A.18.18,0,0,0,158.17,95.86Z"/><path class="cls-1" d="M154.1,92.3a5,5,0,1,0-6.29,4.75v1.69a3.05,3.05,0,1,0,2.79,0V97A4.92,4.92,0,0,0,154.1,92.3Z"/><circle id="e99c3387-15c3-4f28-bd4b-cb209b430e06" class="cls-13" cx="149.16" cy="92.29" r="2.88"/><rect class="cls-14" x="132.5" y="147.3" width="32.47" height="21.65" rx="1.08"/><polygon class="cls-7" points="154.15 154.97 154.15 161.27 148.74 164.44 148.74 158.13 154.15 154.97"/><polygon class="cls-15" points="154.15 154.97 148.74 158.15 143.32 154.97 148.74 151.81 154.15 154.97"/><polygon class="cls-16" points="148.74 158.15 148.74 164.44 143.32 161.27 143.32 154.97 148.74 158.15"/><polygon class="cls-15" points="143.32 161.27 148.74 158.13 148.74 164.44 143.32 161.27"/><polygon class="cls-16" points="154.15 161.27 148.74 158.13 148.74 164.44 154.15 161.27"/><path class="cls-17" d="M155.25,175.5c-3.21-.51-3.34-2.81-3.34-6.55h-6.37c0,3.74-.11,6-3.32,6.55a1.8,1.8,0,0,0-1.6,1.8h16.23A1.79,1.79,0,0,0,155.25,175.5Z"/><rect class="cls-18" x="80" y="147.3" width="32.47" height="21.65" rx="1.08"/><polygon class="cls-7" points="101.65 154.97 101.65 161.27 96.24 164.44 96.24 158.13 101.65 154.97"/><polygon class="cls-15" points="101.65 154.97 96.24 158.15 90.82 154.97 96.24 151.81 101.65 154.97"/><polygon class="cls-16" points="96.24 158.15 96.24 164.44 90.82 161.27 90.82 154.97 96.24 158.15"/><polygon class="cls-15" points="90.82 161.27 96.24 158.13 96.24 164.44 90.82 161.27"/><polygon class="cls-16" points="101.65 161.27 96.24 158.13 96.24 164.44 101.65 161.27"/><path class="cls-19" d="M102.75,175.5c-3.21-.51-3.34-2.81-3.34-6.55H93c0,3.74-.11,6-3.32,6.55a1.8,1.8,0,0,0-1.6,1.8h16.23A1.79,1.79,0,0,0,102.75,175.5Z"/><rect class="cls-20" x="185" y="147.3" width="32.47" height="21.65" rx="1.08"/><polygon class="cls-7" points="206.65 154.97 206.65 161.27 201.24 164.44 201.24 158.13 206.65 154.97"/><polygon class="cls-15" points="206.65 154.97 201.24 158.15 195.82 154.97 201.24 151.81 206.65 154.97"/><polygon class="cls-16" points="201.24 158.15 201.24 164.44 195.82 161.27 195.82 154.97 201.24 158.15"/><polygon class="cls-15" points="195.82 161.27 201.24 158.13 201.24 164.44 195.82 161.27"/><polygon class="cls-16" points="206.65 161.27 201.24 158.13 201.24 164.44 206.65 161.27"/><path class="cls-21" d="M207.75,175.5c-3.21-.51-3.34-2.81-3.34-6.55H198c0,3.74-.11,6-3.32,6.55a1.8,1.8,0,0,0-1.6,1.8h16.23A1.79,1.79,0,0,0,207.75,175.5Z"/><line class="cls-22" x1="149.14" y1="29.3" x2="149.14" y2="41.8"/><line class="cls-22" x1="149.14" y1="59.3" x2="149.14" y2="73.3"/><path class="cls-23" d="M133.47,243.86l14.91-14.92a1.07,1.07,0,0,1,1.51,0l0,0,14.91,14.92a1.06,1.06,0,0,1,0,1.5l0,0-14.93,14.94a1.08,1.08,0,0,1-1.49,0l-14.93-14.94a1.05,1.05,0,0,1,0-1.5h0Z"/><path class="cls-12" d="M153.05,235.73,149.29,232a.23.23,0,0,0-.29,0l-3.77,3.75a.18.18,0,0,0,.15.32h2.2a.2.2,0,0,1,.2.2v3.55a.19.19,0,0,0,.19.2h2.35a.19.19,0,0,0,.19-.2v-3.55a.2.2,0,0,1,.2-.2h2.2a.18.18,0,0,0,.22-.13.17.17,0,0,0-.08-.19Z"/><path class="cls-12" d="M140.26,240.37l-3.74,3.79a.19.19,0,0,0,0,.26l3.74,3.76a.19.19,0,0,0,.27,0,.17.17,0,0,0,.06-.15v-2.18a.2.2,0,0,1,.2-.2h3.55a.18.18,0,0,0,.18-.18h0v-2.35a.17.17,0,0,0-.06-.24s0,0-.06,0h-3.56a.18.18,0,0,1-.19-.16v-2.17a.2.2,0,0,0-.13-.26.2.2,0,0,0-.26.12Z"/><path class="cls-12" d="M158.17,248.18l3.79-3.77a.2.2,0,0,0,0-.27l-3.79-3.77a.18.18,0,0,0-.27,0,.16.16,0,0,0-.05.11v2.23a.18.18,0,0,1-.17.17H154.1a.18.18,0,0,0-.18.18h0v2.37a.19.19,0,0,0,.16.19h3.58a.19.19,0,0,1,.19.2h0v2.2a.2.2,0,0,0,.22.17l.1,0Z"/><path class="cls-1" d="M154.1,244.62a5,5,0,1,0-6.29,4.75v1.68a3,3,0,1,0,2.79,0v-1.77A4.92,4.92,0,0,0,154.1,244.62Z"/><circle id="e99c3387-15c3-4f28-bd4b-cb209b430e06-2" class="cls-13" cx="149.16" cy="244.6" r="2.88"/><line class="cls-22" x1="149.14" y1="197.12" x2="149.14" y2="226.44"/><line class="cls-22" x1="149.14" y1="132.69" x2="149.14" y2="144.8"/><line class="cls-22" x1="149.14" y1="112.99" x2="149.14" y2="121.66"/><path class="cls-22" d="M100.91,128.09l-2.45,1a4.62,4.62,0,0,0-2.44,4V144.8"/><line class="cls-22" x1="143.96" y1="110.3" x2="115.93" y2="121.88"/><path class="cls-22" d="M144,228.79l-25.25-10.43-5.55-2.29-9.48-3.92L98.46,210A4.6,4.6,0,0,1,96,206v-8.86"/><path class="cls-22" d="M156,228.79l25.26-10.43,5.54-2.29,9.48-3.92L201.5,210a4.58,4.58,0,0,0,2.44-4v-8.86"/><path class="cls-22" d="M199.05,128.09l2.45,1a4.6,4.6,0,0,1,2.44,4V144.8"/><line class="cls-22" x1="156" y1="110.3" x2="184.03" y2="121.88"/><rect class="cls-1" x="10" y="289.3" width="220" height="65"/><rect class="cls-9" x="10" y="289.3" width="220" height="65"/><rect class="cls-24" x="132.5" y="297.3" width="32.47" height="21.65" rx="1.08"/><polygon class="cls-7" points="154.15 304.97 154.15 311.27 148.74 314.44 148.74 308.13 154.15 304.97"/><polygon class="cls-15" points="154.15 304.97 148.74 308.14 143.32 304.97 148.74 301.81 154.15 304.97"/><polygon class="cls-16" points="148.74 308.14 148.74 314.44 143.32 311.27 143.32 304.97 148.74 308.14"/><polygon class="cls-15" points="143.32 311.27 148.74 308.13 148.74 314.44 143.32 311.27"/><polygon class="cls-16" points="154.15 311.27 148.74 308.13 148.74 314.44 154.15 311.27"/><path class="cls-25" d="M155.25,325.5c-3.21-.51-3.34-2.81-3.34-6.55h-6.37c0,3.74-.11,6-3.32,6.55a1.8,1.8,0,0,0-1.6,1.8h16.23A1.79,1.79,0,0,0,155.25,325.5Z"/><rect class="cls-26" x="80" y="297.3" width="32.47" height="21.65" rx="1.08"/><polygon class="cls-7" points="101.65 304.97 101.65 311.27 96.24 314.44 96.24 308.13 101.65 304.97"/><polygon class="cls-15" points="101.65 304.97 96.24 308.14 90.82 304.97 96.24 301.81 101.65 304.97"/><polygon class="cls-16" points="96.24 308.14 96.24 314.44 90.82 311.27 90.82 304.97 96.24 308.14"/><polygon class="cls-15" points="90.82 311.27 96.24 308.13 96.24 314.44 90.82 311.27"/><polygon class="cls-16" points="101.65 311.27 96.24 308.13 96.24 314.44 101.65 311.27"/><path class="cls-27" d="M102.75,325.5c-3.21-.51-3.34-2.81-3.34-6.55H93c0,3.74-.11,6-3.32,6.55a1.8,1.8,0,0,0-1.6,1.8h16.23A1.79,1.79,0,0,0,102.75,325.5Z"/><rect class="cls-28" x="185" y="297.3" width="32.47" height="21.65" rx="1.08"/><polygon class="cls-7" points="206.65 304.97 206.65 311.27 201.24 314.44 201.24 308.13 206.65 304.97"/><polygon class="cls-15" points="206.65 304.97 201.24 308.14 195.82 304.97 201.24 301.81 206.65 304.97"/><polygon class="cls-16" points="201.24 308.14 201.24 314.44 195.82 311.27 195.82 304.97 201.24 308.14"/><polygon class="cls-15" points="195.82 311.27 201.24 308.13 201.24 314.44 195.82 311.27"/><polygon class="cls-16" points="206.65 311.27 201.24 308.13 201.24 314.44 206.65 311.27"/><path class="cls-29" d="M207.75,325.5c-3.21-.51-3.34-2.81-3.34-6.55H198c0,3.74-.11,6-3.32,6.55a1.8,1.8,0,0,0-1.6,1.8h16.23A1.79,1.79,0,0,0,207.75,325.5Z"/><line class="cls-22" x1="149.14" y1="284.6" x2="149.14" y2="296.71"/><line class="cls-22" x1="149.14" y1="262.1" x2="149.14" y2="272.71"/><path class="cls-22" d="M100.91,280l-2.45,1A4.6,4.6,0,0,0,96,285v11.69"/><line class="cls-22" x1="143.96" y1="262.21" x2="121.18" y2="271.62"/><path class="cls-22" d="M195.32,280l2.44,1a4.59,4.59,0,0,1,2.45,4v11.69"/><line class="cls-22" x1="152.27" y1="262.21" x2="175.04" y2="271.62"/></g><g id="text"><text class="cls-30" transform="translate(7.58 391.14)">V<tspan class="cls-31" x="7.54" y="0">i</tspan><tspan class="cls-32" x="10.34" y="0">r</tspan><tspan class="cls-33" x="14.92" y="0">t</tspan><tspan class="cls-34" x="18.98" y="0">u</tspan><tspan class="cls-35" x="25.69" y="0">a</tspan><tspan class="cls-36" x="31.74" y="0">l </tspan><tspan class="cls-37" x="37.96" y="0">N</tspan><tspan class="cls-38" x="46.9" y="0">e</tspan><tspan class="cls-39" x="53.18" y="0">t</tspan><tspan class="cls-40" x="57.59" y="0">w</tspan><tspan class="cls-41" x="66.15" y="0">o</tspan><tspan class="cls-42" x="73.14" y="0">r</tspan><tspan class="cls-43" x="77.36" y="0">k</tspan></text><text class="cls-44" transform="translate(139.81 340.8)">V<tspan class="cls-43" x="7.41" y="0">M</tspan></text><text class="cls-44" transform="translate(87.14 340.8)">V<tspan class="cls-43" x="7.41" y="0">M</tspan></text><text class="cls-45" transform="translate(98.57 278.14)">4<tspan class="cls-46" x="6.78" y="0">4</tspan><tspan class="cls-36" x="13.02" y="0">3</tspan></text><text class="cls-45" transform="translate(139.52 283.19)">4<tspan class="cls-46" x="6.78" y="0">4</tspan><tspan class="cls-36" x="13.02" y="0">3</tspan></text><text class="cls-45" transform="translate(176.48 278.14)">4<tspan class="cls-46" x="6.78" y="0">4</tspan><tspan class="cls-36" x="13.02" y="0">3</tspan></text><text class="cls-47" transform="translate(142.95 131.32)">8<tspan class="cls-36" x="6.57" y="0">0</tspan></text><text class="cls-47" transform="translate(183.54 131.32)">8<tspan class="cls-36" x="6.57" y="0">0</tspan></text><text class="cls-47" transform="translate(103.25 131.32)">8<tspan class="cls-36" x="6.57" y="0">0</tspan></text><text class="cls-44" transform="translate(192.14 340.8)">V<tspan class="cls-43" x="7.41" y="0">M</tspan></text><text class="cls-44" transform="translate(139.81 190.8)">V<tspan class="cls-43" x="7.41" y="0">M</tspan></text><text class="cls-44" transform="translate(87.14 190.8)">V<tspan class="cls-43" x="7.41" y="0">M</tspan></text><text class="cls-44" transform="translate(192.14 190.8)">V<tspan class="cls-43" x="7.41" y="0">M</tspan></text><text class="cls-48" transform="translate(18.92 318.22)">ビ<tspan class="cls-49" x="8.04" y="0">ジ</tspan><tspan class="cls-50" x="17.43" y="0">ネ</tspan><tspan class="cls-51" x="26.59" y="0">ス</tspan><tspan class="cls-36" x="35.76" y="0">層</tspan><tspan class="cls-52"><tspan x="2.37" y="13.2">サ</tspan><tspan class="cls-53" x="11.83" y="13.2">ブ</tspan><tspan class="cls-54" x="20.45" y="13.2">ネ</tspan><tspan class="cls-55" x="29.55" y="13.2">ッ</tspan><tspan class="cls-36" x="36.61" y="13.2">ト</tspan></tspan></text><text class="cls-56" transform="translate(117.11 54.3)">T<tspan class="cls-57" x="5.84" y="0">C</tspan><tspan class="cls-36" x="12.98" y="0">P </tspan><tspan class="cls-58" x="23.01" y="0">ポ</tspan><tspan class="cls-59" x="32.41" y="0">ー</tspan><tspan class="cls-36" x="39.44" y="0">ト </tspan><tspan class="cls-60" x="51.03" y="0">8</tspan><tspan class="cls-36" x="57.59" y="0">0</tspan></text><text class="cls-61" transform="translate(18.3 167.93)">W<tspan class="cls-36" x="10.87" y="0">eb </tspan><tspan class="cls-62" x="27.52" y="0">層</tspan><tspan class="cls-36" x="39.03" y="0">サ</tspan><tspan class="cls-53"><tspan x="7.71" y="13.2">ブ</tspan><tspan class="cls-63" x="16.33" y="13.2">ネ</tspan><tspan class="cls-64" x="25.43" y="13.2">ッ</tspan><tspan class="cls-36" x="32.49" y="13.2">ト</tspan></tspan></text><text class="cls-65" transform="translate(52.21 241.98)">内<tspan class="cls-66" x="11.47" y="0">部</tspan><tspan class="cls-67" x="23.09" y="0">ロ</tspan><tspan class="cls-59" x="31.57" y="0">ー</tspan><tspan class="cls-43" x="38.6" y="0">ド </tspan><tspan class="cls-68" x="50.37" y="0">バ</tspan><tspan class="cls-69" x="59.8" y="0">ラ</tspan><tspan class="cls-36" x="67.42" y="0">ン</tspan><tspan class="cls-70"><tspan x="59.36" y="13.2">サ</tspan><tspan class="cls-43" x="68.56" y="13.2">ー</tspan></tspan></text><text class="cls-71" transform="translate(45.53 89.62)">パ<tspan class="cls-72" x="9.83" y="0">ブ</tspan><tspan class="cls-73" x="18.49" y="0">リ</tspan><tspan class="cls-74" x="26.31" y="0">ッ</tspan><tspan class="cls-43" x="33.95" y="0">ク </tspan><tspan class="cls-75" x="46.26" y="0">ロ</tspan><tspan class="cls-59" x="54.74" y="0">ー</tspan><tspan class="cls-36" x="61.77" y="0">ド バ</tspan><tspan class="cls-69"><tspan x="49.54" y="13.2">ラ</tspan><tspan class="cls-76" x="57.16" y="13.2">ン</tspan><tspan class="cls-70" x="66.03" y="13.2">サ</tspan><tspan class="cls-43" x="75.24" y="13.2">ー</tspan></tspan></text></g></svg>