<svg xmlns="http://www.w3.org/2000/svg" xmlns:xlink="http://www.w3.org/1999/xlink" viewBox="0 0 668 155"><defs><symbol id="a" viewBox="0 0 49.9 49.9"><path d="M19.5,39.9a12,12,0,0,0,13.7,9.9,11.9,11.9,0,0,0,10-11.9,16.4,16.4,0,0,0-.2-2.2,8.2,8.2,0,0,0,6.9-8.3c0-4.6-3.5-8.4-7.7-8.4H20.3A10.5,10.5,0,0,0,10.1,29.6,10.3,10.3,0,0,0,19.5,39.9Z" fill="#59b4d9"/><path d="M15,22a.9.9,0,0,0-1,1v5a.9.9,0,0,0,1,1H26a.9.9,0,0,0,1-1V23a.9.9,0,0,0-1-1Z" fill="#dd5900"/><path d="M26,28V23H15v5H26m0,2H15a2,2,0,0,1-2-2V23a2,2,0,0,1,2-2H26a2,2,0,0,1,2,2v5A2,2,0,0,1,26,30Z" fill="#a0a1a2"/><path d="M28,22a.9.9,0,0,0-1,1v5a.9.9,0,0,0,1,1H39a.9.9,0,0,0,1-1V23a.9.9,0,0,0-1-1Z" fill="#ba141a"/><path d="M39,28V23H28v5H39m0,2H28a2,2,0,0,1-2-2V23a2,2,0,0,1,2-2H39a2,2,0,0,1,2,2v5A2,2,0,0,1,39,30Z" fill="#a0a1a2"/><path d="M2,22a.9.9,0,0,0-1,1v5a.9.9,0,0,0,1,1H13a.9.9,0,0,0,1-1V23a.9.9,0,0,0-1-1Z" fill="#ba141a"/><path d="M13,28V23H2v5H13m0,2H2a2,2,0,0,1-2-2V23a2,2,0,0,1,2-2H13a2,2,0,0,1,2,2v5A2,2,0,0,1,13,30Z" fill="#a0a1a2"/><path d="M15,15a.9.9,0,0,0-1,1v5a.9.9,0,0,0,1,1H26a.9.9,0,0,0,1-1V16a.9.9,0,0,0-1-1Z" fill="#ba141a"/><path d="M26,21V16H15v5H26m0,2H15a2,2,0,0,1-2-2V16a2,2,0,0,1,2-2H26a2,2,0,0,1,2,2v5A2,2,0,0,1,26,23Z" fill="#a0a1a2"/><path d="M2,8A.9.9,0,0,0,1,9v5a.9.9,0,0,0,1,1H13a.9.9,0,0,0,1-1V9a.9.9,0,0,0-1-1Z" fill="#dd5900"/><path d="M13,14V9H2v5H13m0,2H2a2,2,0,0,1-2-2V9A2,2,0,0,1,2,7H13a2,2,0,0,1,2,2v5A2,2,0,0,1,13,16Z" fill="#a0a1a2"/><path d="M2,15a.9.9,0,0,0-1,1v5a.9.9,0,0,0,1,1H13a.9.9,0,0,0,1-1V16a.9.9,0,0,0-1-1Z" fill="#ba141a"/><path d="M13,21V16H2v5H13m0,2H2a2,2,0,0,1-2-2V16a2,2,0,0,1,2-2H13a2,2,0,0,1,2,2v5A2,2,0,0,1,13,23Z" fill="#a0a1a2"/><path d="M15,1a.9.9,0,0,0-1,1V7a.9.9,0,0,0,1,1H26a.9.9,0,0,0,1-1V2a.9.9,0,0,0-1-1Z" fill="#ba141a"/><path d="M26,7V2H15V7H26m0,2H15a2,2,0,0,1-2-2V2a2,2,0,0,1,2-2H26a2,2,0,0,1,2,2V7A2,2,0,0,1,26,9Z" fill="#a0a1a2"/><path d="M28,8a.9.9,0,0,0-1,1v5a.9.9,0,0,0,1,1H39a.9.9,0,0,0,1-1V9a.9.9,0,0,0-1-1Z" fill="#ba141a"/><path d="M39,14V9H28v5H39m0,2H28a2,2,0,0,1-2-2V9a2,2,0,0,1,2-2H39a2,2,0,0,1,2,2v5A2,2,0,0,1,39,16Z" fill="#a0a1a2"/><path d="M28,15a.9.9,0,0,0-1,1v5a.9.9,0,0,0,1,1H39a.9.9,0,0,0,1-1V16a.9.9,0,0,0-1-1Z" fill="#ba141a"/><path d="M39,21V16H28v5H39m0,2H28a2,2,0,0,1-2-2V16a2,2,0,0,1,2-2H39a2,2,0,0,1,2,2v5A2,2,0,0,1,39,23Z" fill="#a0a1a2"/><path d="M15,8a.9.9,0,0,0-1,1v5a.9.9,0,0,0,1,1H26a.9.9,0,0,0,1-1V9a.9.9,0,0,0-1-1Z" fill="#ba141a"/><path d="M26,14V9H15v5H26m0,2H15a2,2,0,0,1-2-2V9a2,2,0,0,1,2-2H26a2,2,0,0,1,2,2v5A2,2,0,0,1,26,16Z" fill="#a0a1a2"/><path d="M28,1a.9.9,0,0,0-1,1V7a.9.9,0,0,0,1,1H39a.9.9,0,0,0,1-1V2a.9.9,0,0,0-1-1Z" fill="#dd5900"/><path d="M39,7V2H28V7H39m0,2H28a2,2,0,0,1-2-2V2a2,2,0,0,1,2-2H39a2,2,0,0,1,2,2V7A2,2,0,0,1,39,9Z" fill="#a0a1a2"/><path d="M2,1A.9.9,0,0,0,1,2V7A.9.9,0,0,0,2,8H13a.9.9,0,0,0,1-1V2a.9.9,0,0,0-1-1Z" fill="#ba141a"/><path d="M13,7V2H2V7H13m0,2H2A2,2,0,0,1,0,7V2A2,2,0,0,1,2,0H13a2,2,0,0,1,2,2V7A2,2,0,0,1,13,9Z" fill="#a0a1a2"/></symbol></defs><title>OJ104467218</title><rect width="668" height="155" fill="#fff"/><rect x="128" y="15" width="230" height="120" fill="#fff"/><rect x="128" y="15" width="230" height="120" fill="#0072c6" opacity="0.25" style="isolation:isolate"/><rect x="468" y="15" width="200" height="140" fill="#fff"/><rect x="468" y="15" width="200" height="140" fill="#3c3c41" opacity="0.15" style="isolation:isolate"/><rect y="15" width="105" height="120" fill="#fff"/><rect y="15" width="105" height="120" fill="#3c3c41" opacity="0.15" style="isolation:isolate"/><rect x="143" y="65" width="95" height="55" fill="#fff"/><rect x="143" y="65" width="95" height="55" fill="#50e6ff" opacity="0.05" style="isolation:isolate"/><rect x="263" y="65" width="80" height="55" fill="#fff"/><rect x="263" y="65" width="80" height="55" fill="#50e6ff" opacity="0.05" style="isolation:isolate"/><path d="M147.3,7.9a8,8,0,0,1,9.1-6.8,7.8,7.8,0,0,1,6.8,6.6,5.4,5.4,0,0,1,7.7.6h.1a5.3,5.3,0,0,1,1.1,2.1,4.8,4.8,0,0,1,5.8,3.5,4.8,4.8,0,0,1-3.5,5.9H146.2a6.1,6.1,0,0,1,1.1-12.1Z" fill="#fff"/><path d="M147.3,7.9a8,8,0,0,1,9.1-6.8,7.8,7.8,0,0,1,6.8,6.6,5.4,5.4,0,0,1,7.7.6h.1a5.3,5.3,0,0,1,1.1,2.1,4.8,4.8,0,0,1,5.8,3.5,4.8,4.8,0,0,1-3.5,5.9H146.2a6.1,6.1,0,0,1,1.1-12.1Z" fill="#0078d4"/><path d="M147.3,7.9a8,8,0,0,1,9.1-6.8,7.8,7.8,0,0,1,6.8,6.6,5.4,5.4,0,0,1,7.7.6h.1a5.3,5.3,0,0,1,1.1,2.1,4.8,4.8,0,0,1,5.8,3.5,4.8,4.8,0,0,1-3.5,5.9H146.2a6.1,6.1,0,0,1,1.1-12.1Z" fill="none" stroke="#fff" stroke-miterlimit="10"/><path d="M146.4,7.9a8.2,8.2,0,0,0-9.2-6.8,8.3,8.3,0,0,0-6.8,6.6,5.3,5.3,0,0,0-7.7.7h0a5.3,5.3,0,0,0-1.1,2.1,4.8,4.8,0,0,0-5.8,3.5,4.9,4.9,0,0,0,3.5,5.9h28.2a6.1,6.1,0,0,0-1.1-12.1Z" fill="#fff"/><path d="M146.4,7.9a8.2,8.2,0,0,0-9.2-6.8,8.3,8.3,0,0,0-6.8,6.6,5.3,5.3,0,0,0-7.7.7h0a5.3,5.3,0,0,0-1.1,2.1,4.8,4.8,0,0,0-5.8,3.5,4.9,4.9,0,0,0,3.5,5.9h28.2a6.1,6.1,0,0,0-1.1-12.1Z" fill="#0078d4"/><path d="M146.4,7.9a8.2,8.2,0,0,0-9.2-6.8,8.3,8.3,0,0,0-6.8,6.6,5.3,5.3,0,0,0-7.7.7h0a5.3,5.3,0,0,0-1.1,2.1,4.8,4.8,0,0,0-5.8,3.5,4.9,4.9,0,0,0,3.5,5.9h28.2a6.1,6.1,0,0,0-1.1-12.1Z" fill="none" stroke="#fff" stroke-miterlimit="10"/><path d="M138.5,9.7a6.9,6.9,0,0,1,13.6-.2,4.6,4.6,0,0,1,6.6.6h0a4,4,0,0,1,1,1.8,4.1,4.1,0,0,1,5,3,4.2,4.2,0,0,1-3,5H137.5a5.3,5.3,0,0,1-4.1-5.2A5.1,5.1,0,0,1,138.5,9.7Z" fill="#fff"/><path d="M138.5,9.7a6.9,6.9,0,0,1,13.6-.2,4.6,4.6,0,0,1,6.6.6h0a4,4,0,0,1,1,1.8,4.1,4.1,0,0,1,5,3,4.2,4.2,0,0,1-3,5H137.5a5.3,5.3,0,0,1-4.1-5.2A5.1,5.1,0,0,1,138.5,9.7Z" fill="#0078d4"/><path d="M138.5,9.7a6.9,6.9,0,0,1,13.6-.2,4.6,4.6,0,0,1,6.6.6h0a4,4,0,0,1,1,1.8,4.1,4.1,0,0,1,5,3,4.2,4.2,0,0,1-3,5H137.5a5.3,5.3,0,0,1-4.1-5.2A5.1,5.1,0,0,1,138.5,9.7Z" fill="none" stroke="#fff" stroke-miterlimit="10"/><line x1="468" y1="55" x2="363.4" y2="55" fill="none" stroke="#3c3c41" stroke-miterlimit="10"/><polygon points="364.5 51.3 358 55 364.5 58.7 364.5 51.3" fill="#3c3c41"/><line x1="462.6" y1="90.5" x2="358" y2="90.5" fill="none" stroke="#3c3c41" stroke-miterlimit="10"/><polygon points="461.5 86.8 468 90.5 461.5 94.3 461.5 86.8" fill="#3c3c41"/><line x1="137.6" y1="90.5" x2="105.1" y2="90.5" fill="none" stroke="#3c3c41" stroke-miterlimit="10"/><polygon points="136.5 86.8 143 90.5 136.5 94.3 136.5 86.8" fill="#3c3c41"/><line x1="257.6" y1="90.5" x2="238" y2="90.5" fill="none" stroke="#3c3c41" stroke-miterlimit="10"/><polygon points="256.5 86.8 263 90.5 256.5 94.3 256.5 86.8" fill="#3c3c41"/><path d="M21.5,73.9a.6.6,0,0,0,.2.5l.4.5.6.4.5.2a8.6,8.6,0,0,0,.6,2.3l-1.4-.5a6.7,6.7,0,0,1-1.4-.9,5.2,5.2,0,0,1-1-1.1,2.3,2.3,0,0,1-.4-1.4V56.2a3.2,3.2,0,0,1,.3-1.4,4.7,4.7,0,0,1,1-1,3.8,3.8,0,0,1,1.3-.9l1.5-.6,1.5-.4,1.3-.3a26.2,26.2,0,0,1,7.9,0l1.3.3,1.5.4,1.6.6a5.1,5.1,0,0,1,1.3.9,2.8,2.8,0,0,1,.9,1,2.3,2.3,0,0,1,.4,1.4v9.6a7,7,0,0,0-2-.8V59.1a8.8,8.8,0,0,1-2,.9l-2.3.7-2.4.3H28.2l-2.3-.3L23.6,60a7.2,7.2,0,0,1-2-.9Zm8.9-20.7h-2l-2.3.3-2.2.6a7.7,7.7,0,0,0-1.8,1l-.4.5a.8.8,0,0,0,0,1.1l.4.4a7.7,7.7,0,0,0,1.8,1l2.2.6,2.3.3h4l2.3-.3,2.2-.6,1.8-1c.1-.2.3-.3.4-.4a.8.8,0,0,0,0-1.1l-.4-.5-1.8-1-2.2-.6-2.3-.3ZM43,71a4.9,4.9,0,0,1,1.7.6,4.1,4.1,0,0,1,1.3,1,3.8,3.8,0,0,1,.9,1.5,4.7,4.7,0,0,1,.3,1.7,4.1,4.1,0,0,1-.4,1.9,4.4,4.4,0,0,1-1,1.6,5.4,5.4,0,0,1-1.6,1,4.3,4.3,0,0,1-1.9.4H31.4A5.9,5.9,0,0,1,27.2,79a5,5,0,0,1-1.3-1.9,6.1,6.1,0,0,1,0-4.6,5.7,5.7,0,0,1,3.2-3.1,5.9,5.9,0,0,1,2.3-.4l1.4.2a5.3,5.3,0,0,1,2-1.6,6.4,6.4,0,0,1,4.3-.3A5.6,5.6,0,0,1,42,69.4,3.9,3.9,0,0,1,43,71Zm-.7,7.8,1.2-.2.9-.6a3,3,0,0,0,.1-4.2h-.1a1.8,1.8,0,0,0-.9-.6,2.7,2.7,0,0,0-1.2-.3h-1a3.7,3.7,0,0,0-.3-1.5,5.7,5.7,0,0,0-.8-1.3,3.5,3.5,0,0,0-1.3-.8,2.2,2.2,0,0,0-1.6-.3,2.5,2.5,0,0,0-1.2.1,3.3,3.3,0,0,0-1,.6,3.6,3.6,0,0,0-1.5,1.9,3.8,3.8,0,0,0-5,.5,2.7,2.7,0,0,0-.9,1.2,4.2,4.2,0,0,0,0,3.1,4.2,4.2,0,0,0,3.7,2.4Z"/><use width="49.9" height="49.94" transform="matrix(0.64, 0, 0, -0.64, 58.02, 81.94)" xlink:href="#a"/><rect x="625.4" y="24" width="30.5" height="16.45" fill="#fff"/><path d="M657.2,20.3a.6.6,0,0,0-.5-.6H624.8a.6.6,0,0,0-.6.6h0V40.2a.6.6,0,0,0,.6.6h31.9a.6.6,0,0,0,.5-.6Zm-28.5,3.1h-1.6V21.8h1.6Zm3.3,0h-1.6V21.8H632Zm3.3,0h-1.6V21.8h1.6Zm-9.9,1.3H656V39.5H625.4Z"/><path d="M146.3,64.3l-.6-1.4,1.5-.7a3.7,3.7,0,0,1,0-2.1l-1.5-.6.6-1.5,1.5.6a5.4,5.4,0,0,1,1.5-1.5l-.6-1.5,1.4-.6.7,1.5h2.1l.6-1.5,1.5.6-.6,1.5a5.4,5.4,0,0,1,1.5,1.5l1.5-.6.6,1.5-1.5.6a7.4,7.4,0,0,1,0,2.1l1.5.7-.6,1.4-1.5-.6a5.4,5.4,0,0,1-1.5,1.5l.6,1.5-1.5.6-.6-1.5h-2.1l-.7,1.5-1.4-.6.6-1.5a8,8,0,0,1-1.5-1.5Zm6.8-.2,1-.7a2.1,2.1,0,0,0,.6-1,2.7,2.7,0,0,0,.3-1.2,2.4,2.4,0,0,0-.3-1.2,1.7,1.7,0,0,0-.6-1,3,3,0,0,0-1-.7,2.8,2.8,0,0,0-1.3-.3,2.7,2.7,0,0,0-1.2.3,2.3,2.3,0,0,0-1,.7,2.6,2.6,0,0,0-.7,1,2.3,2.3,0,0,0-.2,1.2,2.5,2.5,0,0,0,.2,1.2,3.6,3.6,0,0,0,.7,1l1,.7a2.7,2.7,0,0,0,1.2.3,2.8,2.8,0,0,0,1.3-.3Zm-18.6,4.4-1.7-.7.6-1.4,1.7.7a6.4,6.4,0,0,1,2-2l-.7-1.7,1.4-.6.7,1.7h2.8l.7-1.7,1.5.6-.7,1.7a6.1,6.1,0,0,1,1.9,2l1.7-.7.6,1.4-1.7.7a5,5,0,0,1,0,2.8l1.7.7-.6,1.5-1.7-.7a5.2,5.2,0,0,1-2,1.9l.8,1.7L142,77l-.7-1.7-1.4.2-1.4-.2-.6,1.7-1.5-.6.7-1.7a7.3,7.3,0,0,1-2-1.9l-1.7.7-.6-1.5,1.7-.7a6.1,6.1,0,0,1-.1-1.4A7.1,7.1,0,0,1,134.5,68.5Zm7,5a5,5,0,0,0,1.2-.8,3.8,3.8,0,0,0,.9-1.3,4,4,0,0,0,.3-1.5,4.1,4.1,0,0,0-.3-1.6,5.3,5.3,0,0,0-2.1-2.1,4.1,4.1,0,0,0-1.6-.3,4,4,0,0,0-1.5.3,3.8,3.8,0,0,0-1.3.9,5,5,0,0,0-.8,1.2,3.2,3.2,0,0,0,0,3.1,5.7,5.7,0,0,0,.8,1.3,5.7,5.7,0,0,0,1.3.8,4,4,0,0,0,1.5.3,3,3,0,0,0,1.6-.2Z" fill="#0078d7"/><path d="M273,55H262V77h11Z" fill="#50e6ff"/><path d="M262,60.8h-5.2V71.2H262Z" fill="#0078d4"/><path d="M267.2,60.8H262V71.2h5.2Z" fill="#0078d4"/><path d="M255.6,72.4H251V77h4.6Z" fill="#0078d4"/><path d="M504.3,144.9a.6.6,0,0,1-.6-.6h0c0-.2,0-.4.2-.5l.4-.2.5.2a.8.8,0,0,1,.2.5.7.7,0,0,1-.7.6Z" fill="#1e1e1e"/><path d="M510.2,144.9a.6.6,0,0,1-.5-.2l-.2-.4a.8.8,0,0,1,.2-.5c.3-.2.7-.3.9,0h.1a.6.6,0,0,1,0,.9A.6.6,0,0,1,510.2,144.9Z" fill="#1e1e1e"/><path d="M516.1,144.9c-.2,0-.4,0-.5-.2l-.2-.4a.8.8,0,0,1,.2-.5l.5-.2a.8.8,0,0,1,.7.7.5.5,0,0,1-.3.4C516.4,144.9,516.3,144.9,516.1,144.9Z" fill="#1e1e1e"/><path d="M19.2,31.2l1.1.4a2.8,2.8,0,0,0-.4,1.5,1.1,1.1,0,0,0,.5.9l1.7.2h3.3v1.3H22.1c-2.3,0-3.4-.8-3.4-2.3A3.7,3.7,0,0,1,19.2,31.2Zm5.5-4.4v.5l-1.2.7-1.7,1.3-.8-.8L23,27.2l-1.6.2H19.3V26.2h4.9a3.3,3.3,0,0,0-.5-1.2l.8-.3a10.8,10.8,0,0,1,.8,1.9Zm.6-2.1.8-.2a15.4,15.4,0,0,1,.8,1.9l-.8.3C25.8,26,25.6,25.3,25.3,24.7Z"/><path d="M29.3,29.6H27.7v-1h0a.1.1,0,0,1,.1-.1h2.3V27l-1.5.3h-.2a.1.1,0,0,1-.1-.1c-.1,0-.1-.1-.1-.2l-.4-.7a18.2,18.2,0,0,0,3.7-.9l.6-.3a2.7,2.7,0,0,1,.8.7.3.3,0,0,1,.1.2c0,.1,0,.2-.2.2h-.5l-1.1.4v1.8H33a.1.1,0,0,1,.1.1c.1,0,.1,0,.1.1v.8c0,.1-.1.1-.1.2H31.5a7.3,7.3,0,0,0,1.8,2.2,2.2,2.2,0,0,0-.5.8c-.1.1-.1.2-.2.2l-.2-.2a9.4,9.4,0,0,1-1.2-1.8v5.1H30.1a.1.1,0,0,1-.1-.1v-.8c.1-1.4.1-2.8.1-4.1a11.9,11.9,0,0,1-1.8,3h-.2c-.1,0-.1,0-.2-.2a1.9,1.9,0,0,0-.5-.9,8.8,8.8,0,0,0,2.4-3.4ZM33.8,26H35c.2,0,.2.1.2.2v6.6H33.9V27.8C33.9,27.1,33.8,26.5,33.8,26Zm1,8.5h1.8c.1-.1.1-.2.1-.4V26.9a8.1,8.1,0,0,0-.1-1.7h1.5a.3.3,0,0,1-.1.2,8.9,8.9,0,0,0-.1,1.3v7.5a5.6,5.6,0,0,1-.1.7.8.8,0,0,1-.4.4c-.1.2-.4.2-.7.3H35.3a1,1,0,0,1-.1-.3A3,3,0,0,0,34.8,34.5Z"/><path d="M46.9,34.6h1.2c.2,0,.3-.1.3-.4v-2H45.6v3.2H44.3V32.3H41.6a8,8,0,0,1-1,3.3q-.1.3-.3.3l-.2-.2a1.8,1.8,0,0,0-.9-.6,6,6,0,0,0,1-2.3,13.9,13.9,0,0,0,.3-3.2v-4h9.3v9a1.2,1.2,0,0,1-.4,1c-.2.2-.7.3-1.6.3h-.3c0-.1-.1-.2-.1-.3A3,3,0,0,0,46.9,34.6Zm-5.2-3.4h2.7V29.5H41.7Zm0-2.9h2.7V26.7H41.7Zm6.7-1.6H45.6v1.6h2.8Zm-2.8,4.5h2.8V29.5H45.6Z"/><path d="M56.3,27.2a17.5,17.5,0,0,1-1.1,6.1,4.8,4.8,0,0,1-.9,1.3,1.9,1.9,0,0,1-1,.3,1.9,1.9,0,0,1-1.6-1,5.4,5.4,0,0,1-.5-2.4,5.6,5.6,0,0,1,1.4-3.9,3.1,3.1,0,0,1,1.5-1,5.3,5.3,0,0,1,1.8-.4c2.7,0,4.1,1.6,4.1,4.8s-1.3,4-4,4.5l-.6-1A3.9,3.9,0,0,0,58,33.1a3.9,3.9,0,0,0,.6-2.3,4.3,4.3,0,0,0-.7-2.8A2.3,2.3,0,0,0,56.3,27.2Zm-1.2.1a2.7,2.7,0,0,0-1.8,1.2,4.5,4.5,0,0,0-.9,3,3.7,3.7,0,0,0,.3,1.7c.2.3.3.4.6.4s.3,0,.4-.2a.9.9,0,0,0,.4-.6,25.6,25.6,0,0,0,.7-2.7A14.1,14.1,0,0,0,55.1,27.3Z"/><path d="M64.7,29.7H61.1V28.6h8v1.1h-3a14.7,14.7,0,0,1-.2,2.5,3.1,3.1,0,0,1-.6,1.3,2.5,2.5,0,0,1-1.1,1.2,3.8,3.8,0,0,1-1.5.9l-.9-.9a4.4,4.4,0,0,0,2.4-1.9,2.8,2.8,0,0,0,.4-1.2A9.8,9.8,0,0,0,64.7,29.7ZM61.8,26H67v1.1H61.8Zm5.3-.9.8-.2a19.5,19.5,0,0,1,.9,2l-.8.3A22,22,0,0,0,67.1,25.1Zm1.4-.3.8-.3.9,2-.8.3A12.9,12.9,0,0,0,68.5,24.8Z"/><path d="M70.5,29.8h6.8v1.3H70.5Z"/><path d="M83.3,31.6a14,14,0,0,0-2.2-1.4l.7-1L84,30.5a10.7,10.7,0,0,0,.9-3H81.8A11.2,11.2,0,0,1,79.3,31l-1-.7A8.4,8.4,0,0,0,80.1,28a9.4,9.4,0,0,0,1-2.8l1.4.4-.3.8H86l.4.4a13.9,13.9,0,0,1-2.3,6A9.9,9.9,0,0,1,80,35.6l-.8-1A7.5,7.5,0,0,0,83.3,31.6Z"/><path d="M185.5,35h-2.1l-.6-1.9h-3l-.6,1.9h-2l3-8.4h2.3Zm-3.1-3.3-.9-2.9a6.4,6.4,0,0,1-.2-.7h0a1.9,1.9,0,0,1-.2.7l-.9,2.9Z"/><path d="M191.4,35H186v-.8l3.1-3.9h-2.8V29h5.1v.9l-2.8,3.7h2.8Z"/><path d="M198.2,35h-1.8v-.9h0a2.2,2.2,0,0,1-1.9,1c-1.4,0-2.1-.8-2.1-2.5V29h1.9v3.4c0,.9.3,1.3,1,1.3a1.1,1.1,0,0,0,.8-.3,1.7,1.7,0,0,0,.3-1V29h1.8Z"/><path d="M203.7,30.6h-.8a1,1,0,0,0-.9.4,2.1,2.1,0,0,0-.4,1.2V35h-1.8V29h1.8v1.1h.1a1.6,1.6,0,0,1,1.6-1.2h.4Z"/><path d="M210.1,32.5h-4c.1.9.6,1.3,1.7,1.3a3.1,3.1,0,0,0,1.7-.4v1.3a4.1,4.1,0,0,1-2.1.4,2.8,2.8,0,0,1-2.3-.8,3.1,3.1,0,0,1-.8-2.2,3.2,3.2,0,0,1,.9-2.4,2.7,2.7,0,0,1,2.1-.9,2.5,2.5,0,0,1,2,.8,2.9,2.9,0,0,1,.8,2.1Zm-1.8-1.1c0-.9-.3-1.3-1-1.3a1.1,1.1,0,0,0-.8.3,3,3,0,0,0-.4,1Z"/><path d="M220.7,34.7a5.5,5.5,0,0,1-2.4.4,3.7,3.7,0,0,1-3-1.1,4,4,0,0,1-1.1-3,4.5,4.5,0,0,1,1.2-3.3,4.2,4.2,0,0,1,3.3-1.3,5.6,5.6,0,0,1,2,.3v1.9a3.1,3.1,0,0,0-1.9-.6,2.6,2.6,0,0,0-1.9.8,2.7,2.7,0,0,0-.7,2,2.7,2.7,0,0,0,.7,2,2.1,2.1,0,0,0,1.8.7,4.6,4.6,0,0,0,2-.5Z"/><path d="M224.8,35.1a2.8,2.8,0,0,1-2.3-.8,3,3,0,0,1-.9-2.3,2.9,2.9,0,0,1,.9-2.3,3.7,3.7,0,0,1,4.8,0,3.1,3.1,0,0,1,.8,2.2,3.6,3.6,0,0,1-.8,2.4A3.3,3.3,0,0,1,224.8,35.1Zm.1-4.9a1.1,1.1,0,0,0-1,.5,1.7,1.7,0,0,0-.4,1.3c0,1.1.5,1.7,1.4,1.7s1.3-.6,1.3-1.8S225.8,30.2,224.9,30.2Z"/><path d="M235.3,34.3a3.3,3.3,0,0,1-1,2.6,3.9,3.9,0,0,1-2.8.9,4.7,4.7,0,0,1-1.9-.3V35.9a3.2,3.2,0,0,0,1.8.6,2.1,2.1,0,0,0,1.5-.5,2.2,2.2,0,0,0,.5-1.4v-.5h0a2.1,2.1,0,0,1-1.9,1,1.9,1.9,0,0,1-1.8-.8,2.8,2.8,0,0,1-.7-2.1,3.7,3.7,0,0,1,.8-2.5,2.3,2.3,0,0,1,1.9-.9,1.9,1.9,0,0,1,1.7.9h0V29h1.9Zm-1.9-2.2v-.5a1.7,1.7,0,0,0-.3-1,1.3,1.3,0,0,0-.9-.4,1.4,1.4,0,0,0-1,.5,2.9,2.9,0,0,0-.3,1.4,2.1,2.1,0,0,0,.3,1.2,1.3,1.3,0,0,0,1,.4,1.2,1.2,0,0,0,.9-.4A2.1,2.1,0,0,0,233.4,32.1Z"/><path d="M242.6,35h-1.8V31.6c0-.9-.4-1.4-1-1.4a1.2,1.2,0,0,0-.8.4,1.7,1.7,0,0,0-.3,1V35h-1.9V29h1.9v.9h0a2.1,2.1,0,0,1,1.9-1.1c1.4,0,2,.8,2,2.5Z"/><path d="M245,28a1,1,0,0,1-1-1,.7.7,0,0,1,.3-.6.9.9,0,0,1,.7-.3,1.1,1.1,0,0,1,.8.3.7.7,0,0,1,.3.6.8.8,0,0,1-.3.7A1.1,1.1,0,0,1,245,28Zm.9,7h-1.8V29h1.8Z"/><path d="M251.1,34.9a2.4,2.4,0,0,1-1.3.2c-1.3,0-1.9-.6-1.9-2V30.3h-1V29h1V27.7l1.8-.6V29h1.4v1.3h-1.4v2.5c0,.6.3.9.8.9h.6Z"/><path d="M253.1,28a.9.9,0,0,1-.7-.3.8.8,0,0,1-.4-.7.6.6,0,0,1,.4-.6.9.9,0,0,1,.7-.3,1.1,1.1,0,0,1,.8.3.7.7,0,0,1,.3.6.8.8,0,0,1-.3.7A1.1,1.1,0,0,1,253.1,28Zm.9,7h-1.8V29H254Z"/><path d="M261.4,29l-2.3,6H257l-2.1-6h2l1,3.7a5.2,5.2,0,0,1,.2,1.1h0a6.1,6.1,0,0,1,.3-1.1l1-3.7Z"/><path d="M267.4,32.5h-3.9c0,.9.6,1.3,1.6,1.3a3.4,3.4,0,0,0,1.8-.4v1.3a4.8,4.8,0,0,1-2.2.4,3,3,0,0,1-2.3-.8,3.1,3.1,0,0,1-.8-2.2,3.2,3.2,0,0,1,.9-2.4,3,3,0,0,1,4.2-.1,2.8,2.8,0,0,1,.7,2.1Zm-1.7-1.1c0-.9-.4-1.3-1.1-1.3a.9.9,0,0,0-.7.3,1.3,1.3,0,0,0-.4,1Z"/><path d="M271.6,34.7V32.8a3,3,0,0,0,1.1.6,3.1,3.1,0,0,0,1.3.3h.6l.4-.2.3-.3a.4.4,0,0,0,.1-.3c0-.2-.1-.3-.1-.4l-.4-.4-.6-.3-.7-.3a3.6,3.6,0,0,1-1.5-1,2.5,2.5,0,0,1-.5-1.5,2,2,0,0,1,.3-1.1,1.8,1.8,0,0,1,.7-.8l1-.4,1.3-.2h1.2l.9.2v1.8l-.4-.3H276l-.5-.2H274l-.3.3c-.1.1-.1.2-.1.4a.4.4,0,0,0,.1.3l.3.4.5.3a1.1,1.1,0,0,1,.7.3l.9.4.7.5a2.5,2.5,0,0,1,.4.7,2.9,2.9,0,0,1,.2.9,2.1,2.1,0,0,1-.3,1.2,1.8,1.8,0,0,1-.7.8l-1.1.4h-2.6A3.5,3.5,0,0,1,271.6,34.7Z"/><path d="M284,32.5h-3.9c.1.9.6,1.3,1.6,1.3a3.4,3.4,0,0,0,1.8-.4v1.3a4.8,4.8,0,0,1-2.2.4,2.6,2.6,0,0,1-2.2-.8,2.8,2.8,0,0,1-.9-2.2,3.2,3.2,0,0,1,.9-2.4,2.9,2.9,0,0,1,2.2-.9,2.6,2.6,0,0,1,2.7,2.9Zm-1.7-1.1c0-.9-.4-1.3-1-1.3a1.1,1.1,0,0,0-.8.3,1.8,1.8,0,0,0-.4,1Z"/><path d="M290.2,35h-1.8v-.9h0a1.9,1.9,0,0,1-1.8,1,1.7,1.7,0,0,1-1.9-1.8c0-1.1.7-1.8,2.1-2l1.7-.2c0-.7-.4-1-1.1-1a4.2,4.2,0,0,0-2.1.6V29.3l1.1-.3,1.2-.2a2.3,2.3,0,0,1,2.6,2.6Zm-1.7-2.5v-.4l-1.1.2c-.6.1-.9.3-.9.8s0,.4.2.5.3.2.6.2a1.1,1.1,0,0,0,.8-.3A1.8,1.8,0,0,0,288.5,32.5Z"/><path d="M295.6,30.6h-.8a1,1,0,0,0-.9.4,2.1,2.1,0,0,0-.4,1.2V35h-1.8V29h1.8v1.1h.1a1.6,1.6,0,0,1,1.6-1.2h.4Z"/><path d="M301.1,34.8a4.2,4.2,0,0,1-1.8.3,3.1,3.1,0,0,1-2.3-.8,3.3,3.3,0,0,1-.8-2.2,3.2,3.2,0,0,1,.9-2.4,3.3,3.3,0,0,1,2.5-.9,2.8,2.8,0,0,1,1.5.3v1.6a1.9,1.9,0,0,0-2.6,0,2.3,2.3,0,0,0,0,2.6,1.7,1.7,0,0,0,1.3.4,2.2,2.2,0,0,0,1.3-.4Z"/><path d="M308.2,35h-1.8V31.6c0-.9-.4-1.4-1-1.4a1.2,1.2,0,0,0-.8.4,1.7,1.7,0,0,0-.3,1V35h-1.9V26.1h1.9v3.8h0a2.3,2.3,0,0,1,1.9-1.1c1.3,0,2,.8,2,2.5Z"/><path d="M156.3,75.8a23.6,23.6,0,0,1-3.1,2l-.7-1.1a16.7,16.7,0,0,0,3.8-2.5,12.3,12.3,0,0,0,2.5-2.7l1.2.7a13.9,13.9,0,0,1-2.3,2.5v7.1h-1.4Z"/><path d="M161.6,72.5a22,22,0,0,1,3,1.9l-.9,1.2a13.7,13.7,0,0,0-2.9-2Zm5.8.5,1.3.7a10.4,10.4,0,0,1-2.3,5.3,9.1,9.1,0,0,1-4.9,2.8l-.6-1.2a7.7,7.7,0,0,0,4.9-3A10,10,0,0,0,167.4,73Z"/><path d="M173.4,75.9h-3.7V74.8h8v1.1h-3a13.8,13.8,0,0,1-.2,2.5,5,5,0,0,1-.5,1.3,6.9,6.9,0,0,1-1.1,1.3l-1.6.9-.9-1a4.4,4.4,0,0,0,2.4-1.9,2.8,2.8,0,0,0,.4-1.2C173.3,77.4,173.3,76.8,173.4,75.9Zm-3-3.7h5.2v1.1h-5.2Zm5.3-.9.8-.2a19.5,19.5,0,0,1,.9,2l-.9.3A10.2,10.2,0,0,0,175.7,71.3Zm1.4-.3.8-.3a11.9,11.9,0,0,1,.8,2l-.8.3A7.6,7.6,0,0,0,177.1,71Z"/><path d="M179.1,74.6l1.1-.3a15.1,15.1,0,0,1,1,2.8l-1.2.4A11,11,0,0,0,179.1,74.6Zm1.3,6.5a5.9,5.9,0,0,0,3.2-2.5,9.8,9.8,0,0,0,1.1-4.5l1.3.2a18.6,18.6,0,0,1-.5,3,8.4,8.4,0,0,1-.8,1.9,5,5,0,0,1-1.5,1.7,7.5,7.5,0,0,1-2,1.1Zm1-7,1.1-.3a12.5,12.5,0,0,1,.8,2.7l-1.1.4A12,12,0,0,0,181.4,74.1Z"/><path d="M190.4,73.9a13.6,13.6,0,0,1-2.3,3.4l-1.1-.8a9.3,9.3,0,0,0,2.8-5l1.4.2a4.5,4.5,0,0,0-.3,1.1h3.6l.4.4a13.2,13.2,0,0,1-2.5,6.1,9.7,9.7,0,0,1-3.9,2.7l-.7-1a8.4,8.4,0,0,0,3.9-2.9,10,10,0,0,0,1.7-4.2Z"/><path d="M201.4,77a27.7,27.7,0,0,1,2.7,4l-1.2.8a31.3,31.3,0,0,0-2.2-3.6,14,14,0,0,1-4.3,3.6l-.8-1.1a9.4,9.4,0,0,0,3.9-3.2,9.5,9.5,0,0,0,1.7-4h-4.8V72.4h6.2l.3.4A20.5,20.5,0,0,1,201.4,77Z"/><path d="M204.2,76a14.4,14.4,0,0,0,2.5-4,5.1,5.1,0,0,1,.2-.9l1.1.4h.2a.4.4,0,0,1-.1.3c-.1,0-.2.2-.3.5l-.7,1.6v8.1c0,.1,0,.1-.1.1h-1.2V76l-.9,1.1h-.2c-.1,0-.1,0-.1-.2A2.3,2.3,0,0,0,204.2,76Zm3.3-.2a10.4,10.4,0,0,0,1.4-1.9l.8-1.8c.1-.4.1-.7.2-1l1.1.3c.2,0,.3.1.3.2s-.1.1-.1.2l-.4.6-.3.9h4.7v.9h-3.5v1.5h2.8a.1.1,0,0,1,.1.1h.1v.9h-3v1.5h2.8l.2.2v.9h-3v2.5c0,.1,0,.1-.1.1h-1.2V74.4h-.5a9.3,9.3,0,0,1-1.4,2.2l-.2.2-.3-.2A2.2,2.2,0,0,0,207.5,75.8Z"/><path d="M225.8,79.2l.7.4.2.2c.1,0,.1.1.1.2v.2c-.2,1.3-.7,1.9-1.4,1.9s-1.5-.6-2.2-1.9A12.4,12.4,0,0,1,221,82h-.3l-.2-.2-.6-.7a11.3,11.3,0,0,0,2.8-2.2,15.1,15.1,0,0,1-.9-4.7h-3.7v1.6h2.7a.2.2,0,0,1,.2.2,3.2,3.2,0,0,1-.1.8v.5a5.6,5.6,0,0,1-.3,2.3,1.3,1.3,0,0,1-1.4,1h-.8c-.1,0-.1-.1-.1-.3l-.3-.9h1a.5.5,0,0,0,.6-.4c0-.3.1-1,.1-2h-1.6q-.2,1.2-.3,2.1a8.2,8.2,0,0,1-.9,2.9c-.1.1-.1.2-.2.2s-.1-.1-.2-.2l-.8-.7a4.8,4.8,0,0,0,.9-2.7,11.9,11.9,0,0,0,.2-2.9V73.3h0a.1.1,0,0,1,.1-.1h4.8v-.3a8.1,8.1,0,0,0-.1-1.7h1.3c.2,0,.2,0,.2.1v.3c-.1.1-.1.4-.1.8v.7h3.4c.1,0,.1,0,.1.1h0v.9H223a27.5,27.5,0,0,0,.5,3.4,6.4,6.4,0,0,0,.8-1.4l.3-1.1,1.1.4.2.2c0,.1-.1.2-.2.3l-.3.6a9.5,9.5,0,0,1-1.4,2.4,6.2,6.2,0,0,0,.8,1.2l.5.4c.2,0,.3-.2.4-.4S225.8,79.7,225.8,79.2Zm-1.1-7.9a4.7,4.7,0,0,1,1,1h.1v.2l-.6.4h-.3a4.4,4.4,0,0,0-.9-1.1.1.1,0,0,1-.1-.1h.1l.5-.4h.3Z"/><path d="M175.7,44.2a33.4,33.4,0,0,1-3.4,2.3l-.5-.7a19,19,0,0,0,3.7-2.6,14.2,14.2,0,0,0,2.7-2.8l.8.5a19.5,19.5,0,0,1-2.4,2.6v7.2h-.9Z"/><path d="M180.4,41.6a18.3,18.3,0,0,1,2.9,1.8l-.6.8a22.6,22.6,0,0,0-2.8-1.9Zm6.1.6.9.4a8.9,8.9,0,0,1-7,7.8l-.5-.8C183.7,48.7,185.9,46.2,186.5,42.2Z"/><path d="M192.2,44.5h-3.7v-.7h7.7v.7h-3c0,1-.1,1.8-.1,2.3l-.3,1.1a5.7,5.7,0,0,1-2.9,2.8l-.6-.7a4.2,4.2,0,0,0,2.6-2.4A10,10,0,0,0,192.2,44.5Zm-2.9-3.4h5.1v.8h-5.1Zm5.2-.9.6-.2a12.9,12.9,0,0,1,.9,2l-.6.3A22,22,0,0,0,194.5,40.2Zm1.4-.4.6-.2a13.8,13.8,0,0,1,.8,2l-.6.2C196.4,41,196.1,40.4,195.9,39.8Z"/><path d="M197.7,43.6l.7-.3a10.9,10.9,0,0,1,1,2.6l-.8.3A13.4,13.4,0,0,0,197.7,43.6Zm1.3,6.6a6.6,6.6,0,0,0,3.2-2.7,9.7,9.7,0,0,0,1.1-4.4l.9.2A13.4,13.4,0,0,1,203,48a5.7,5.7,0,0,1-1.5,1.6,7.6,7.6,0,0,1-2,1.2Zm.9-7.1.8-.3a25.6,25.6,0,0,1,.9,2.6l-.8.3A8.8,8.8,0,0,0,199.9,43.1Z"/><path d="M208.3,42.5A10.7,10.7,0,0,1,206,46l-.7-.5a10.5,10.5,0,0,0,2.6-5h1l-.3,1.1h4.1a12.1,12.1,0,0,1-2.3,6.4,8.3,8.3,0,0,1-3.8,2.6l-.5-.6a8.4,8.4,0,0,0,3.9-2.9,10.8,10.8,0,0,0,1.7-4.7Z"/><path d="M218.5,46.7a10.6,10.6,0,0,1-4.3,3.8l-.5-.7a9.3,9.3,0,0,0,3.9-3.4,12.1,12.1,0,0,0,1.8-4.3h-5.1v-.8h6.3a17.7,17.7,0,0,1-1.6,4.6,27.1,27.1,0,0,1,2.8,4.1l-.9.5A19.9,19.9,0,0,0,218.5,46.7Z"/><path d="M225.1,42.5v-2h.8v1.9h2.2V43l-2.2.2v2.4a6.8,6.8,0,0,1,2.3-.5,2.7,2.7,0,0,1,2.2,1,3.1,3.1,0,0,1,.4,1.7,2.1,2.1,0,0,1-1.1,2.2,4.7,4.7,0,0,1-2.3.4v-.8a4.4,4.4,0,0,0,1.9-.3,2,2,0,0,0,.6-1.6,1.5,1.5,0,0,0-.5-1.3,1.3,1.3,0,0,0-1.1-.5,6.7,6.7,0,0,0-2.4.4v3.2c0,.4-.1.7-.3.8s-.3.2-.6.2a2.3,2.3,0,0,1-1.1-.3,2.2,2.2,0,0,1-1.1-1.7c0-1,.7-1.9,2.3-2.7V43.3H223v-.8Zm0,4.2a3.1,3.1,0,0,0-1.2.9,1.3,1.3,0,0,0-.3.8.9.9,0,0,0,.3.7.9.9,0,0,0,.6.4h.3c.2,0,.3-.2.3-.4Zm3.3-4.8.5-.7a14.6,14.6,0,0,1,2.5,1.9l-.6.7A8.8,8.8,0,0,0,228.4,41.9Z"/><path d="M236.4,43.8a32.8,32.8,0,0,0,.2,3.4,8.3,8.3,0,0,1,3.4,2.1l-.6.7a6.4,6.4,0,0,0-2.7-1.9v.6a1.5,1.5,0,0,1-.7,1.4,2.5,2.5,0,0,1-1.5.5c-1.5,0-2.3-.6-2.3-1.8a1.5,1.5,0,0,1,.9-1.4,2.3,2.3,0,0,1,1.4-.4h1.3c-.2-1.9-.3-4.1-.4-6.6h.9v2.6l3.2-.3v.8Zm-.6,4.1h-1.2l-1.2.2a.9.9,0,0,0-.4.8c0,.7.4,1,1.3,1s1.5-.4,1.5-1.2Z"/><path d="M241.1,42.6v-.8a22.7,22.7,0,0,0,3.4-.4l.3.8a5.2,5.2,0,0,0-2.1,2.3,7.3,7.3,0,0,0-.7,3,2.4,2.4,0,0,0,.6,1.8,1.7,1.7,0,0,0,1.4.6,2.6,2.6,0,0,0,2.4-1.4,6.6,6.6,0,0,0,.6-3.1,12.4,12.4,0,0,0-.6-3.7l.8-.3a19.7,19.7,0,0,0,2.5,4.4l-.7.6a11,11,0,0,1-1.5-2.8l-.2-.5h0v.6a10.4,10.4,0,0,1,.3,2.1c0,3.3-1.2,4.9-3.6,4.9s-2.9-1.1-2.9-3.3a6.8,6.8,0,0,1,2.3-5.1Zm6.3-2.4.6-.2a10,10,0,0,1,.9,2l-.6.3A10.9,10.9,0,0,0,247.4,40.2Zm1.3-.4.6-.2a7.5,7.5,0,0,1,.9,2l-.6.2A19.5,19.5,0,0,0,248.7,39.8Z"/><path d="M253.8,42.5a12.3,12.3,0,0,1-2.2,3.5l-.7-.5a11.4,11.4,0,0,0,2.6-5h.9a6.1,6.1,0,0,1-.3,1.1h4.2a14.1,14.1,0,0,1-2.3,6.4,8.9,8.9,0,0,1-3.8,2.6l-.6-.6a8.4,8.4,0,0,0,3.9-2.9,10.8,10.8,0,0,0,1.7-4.7Z"/><path d="M262.7,42.5h-2.8v-.8h6.7v.8h-2.9v6.7h3.5V50h-7.8v-.8h3.3Z"/><path d="M269.4,40.9v5.9h-.9V40.9Zm-.3,9a5.3,5.3,0,0,0,3-1.5,5.6,5.6,0,0,0,.8-3.2V40.8h.9v4.5a5.4,5.4,0,0,1-1.2,3.9,5.6,5.6,0,0,1-3.1,1.5Z"/><path d="M282.7,42.5h-2.9v-.8h6.7v.8h-2.8v6.7h3.4V50h-7.7v-.8h3.3Z"/><path d="M288.9,41.6a17,17,0,0,1,2.8,1.8l-.6.8a15.7,15.7,0,0,0-2.7-1.9Zm6.1.6.9.4a10.5,10.5,0,0,1-2.2,5,9.5,9.5,0,0,1-4.9,2.8l-.4-.8C292.2,48.7,294.4,46.2,295,42.2Z"/><path d="M297,44.4l.4-.8,2.9,1.3-.5.8A14.9,14.9,0,0,0,297,44.4Zm7.4-1.8.9.5c-.3.9-.6,1.8-1,2.7a10.4,10.4,0,0,1-1.3,1.9,8.7,8.7,0,0,1-4.8,2.6l-.5-.8a7.6,7.6,0,0,0,4.6-2.4A9.4,9.4,0,0,0,304.4,42.6Zm-6.3-.8.4-.7a12.4,12.4,0,0,1,2.8,1.3l-.5.8A11,11,0,0,0,298.1,41.8Zm4.8-1.6.6-.3a22,22,0,0,1,.9,2.1l-.7.3A10.2,10.2,0,0,0,302.9,40.2Zm1.4-.4.6-.2a12.9,12.9,0,0,1,.9,2l-.7.2A9.3,9.3,0,0,0,304.3,39.8Z"/><path d="M307.2,41.6a17,17,0,0,1,2.8,1.8l-.6.8a13.5,13.5,0,0,0-2.8-1.9Zm6.1.6.9.4a9.7,9.7,0,0,1-2.3,5,8.8,8.8,0,0,1-4.8,2.8l-.4-.8C310.5,48.7,312.7,46.2,313.3,42.2Z"/><path d="M400.8,27.3h-1.5c-.1,0-.1-.1-.1-.2v-.8c0-.1,0-.1.1-.1h3.5a3.6,3.6,0,0,0,.4-.9h1.2c.2.1.2.1.2.2v.2c-.1,0-.2.2-.4.4H410c.1,0,.1,0,.1.1v.8c0,.1,0,.2-.1.2h-2.6a7.1,7.1,0,0,1-1,1.4,13.1,13.1,0,0,1,2.9,1.1h.1l-.6.7h-.3a15.1,15.1,0,0,0-3-1.3,11.1,11.1,0,0,1-5.1,1.4h-.5c0-.1,0-.1-.1-.3a2.5,2.5,0,0,0-.4-.7,10.3,10.3,0,0,0,4.5-.8l-1.5-.3-.2.2h-.3l-.9-.2h0l.3-.3.4-.6.3-.4Zm.2-5.9h-1.7v-.8H410v.8h0a.1.1,0,0,1-.1.1h-3.4v.9H409v2.7h0c0,.1,0,.1-.1.1h-8.5c-.1,0-.1,0-.1-.1h0V22.4h2.5v-.9Zm.5,2.9h1.3V23.2h-1.3Zm4.5,3h-2.5l-.5.6,2.1.4Zm-2.1-5h1.4v-.9h-1.4Zm1.4,2V23.2h-1.4v1.1Zm2.5,0V23.2h-1.3v1.1Z"/><path d="M412.7,23.2h-1.5c-.1,0-.1,0-.1-.1H411v-.9h4.7v-.8c0-.6-.1-1.1-.1-1.4h1.3c.1,0,.2,0,.2.1a.4.4,0,0,1-.1.3v1.7h4.6v.9h-.1c0,.1,0,.1-.1.1h-4.3a6.2,6.2,0,0,0,1,2.2,15.9,15.9,0,0,0,1.3-1.3,2.1,2.1,0,0,0,.4-.6l.9.7.2.2a.2.2,0,0,1-.2.2l-.6.5a8.7,8.7,0,0,1-1.4,1.2,8.7,8.7,0,0,0,3.2,2.4l-.7.9-.2.3-.3-.2a8.8,8.8,0,0,1-3.8-4.7c.1,2.4.1,3.8.1,4.4a1.3,1.3,0,0,1-.5,1.1c-.2.2-.8.2-1.6.3h-.4a.4.4,0,0,1-.1-.3,1.9,1.9,0,0,0-.5-.9h1c.3,0,.6,0,.6-.1s.2-.1.2-.3V23.2Zm2.3,2.9a2.9,2.9,0,0,0,.2.9v.3q0,.1-.3.3l-2.6,1.7-.4.2c0,.1-.1.1-.2.1a.1.1,0,0,1-.1-.1l-.6-1.1,1-.4A11.7,11.7,0,0,0,415,26.1Zm-2.1-2.4a7,7,0,0,1,1.6,1.4h.1c0,.1,0,.1-.1.2l-.6.6c-.1.1-.1.2-.2.2h-.1a8.1,8.1,0,0,0-1.6-1.6h0l.6-.6h.3ZM419,20a6.8,6.8,0,0,1,1.3,1.2h.1c0,.1-.1.1-.1.2l-.6.5h-.2a.1.1,0,0,0-.1-.1,5.1,5.1,0,0,0-1.3-1.2h0a.1.1,0,0,1,.1-.1l.5-.5a.1.1,0,0,0,.1-.1Z"/><path d="M401.2,97.7v1.4a21.2,21.2,0,0,1-.2,3.8,13.1,13.1,0,0,1-.9,2.8l-.2.2c-.1,0-.2,0-.3-.2a1.6,1.6,0,0,0-.8-.6,7.9,7.9,0,0,0,1-2.7,27.4,27.4,0,0,0,.2-3.5V96.7a.1.1,0,0,1,.1-.1h4.2v-.5c0-.4-.1-.8-.1-1h1.5v.2a.7.7,0,0,0-.1.5v.6h4.4v.9c0,.1-.1.1-.2.1h-8.4Zm1.2,3.2.7.2h.2a11,11,0,0,1-.9,3.3.1.1,0,0,1-.1.1h-.2l-.8-.3c-.1-.1-.1-.1-.1-.2h0a10.7,10.7,0,0,0,.9-3h.3Zm4.8,2.3.9.3h.2a.1.1,0,0,1,.1.1v.2a5,5,0,0,1-.3,1.2,1.3,1.3,0,0,1-.4.6,3.6,3.6,0,0,1-1.8.3,3.4,3.4,0,0,1-1.7-.3c-.2-.1-.2-.3-.3-.4s-.1-.4-.1-.7v-4.3h1.4a.4.4,0,0,1-.1.3v3.8c0,.1.1.1.1.2h.8l.9-.2a.8.8,0,0,0,.2-.5A3.1,3.1,0,0,0,407.2,103.2Zm-2.5-5.3a13,13,0,0,1,2.3,1.5h.1v.2l-.5.6h-.3a11.2,11.2,0,0,0-2.2-1.6h0l.5-.6h.2Zm2.9,3.2h.1l.7-.4h.3a12.6,12.6,0,0,1,1.3,3.1h.1c0,.1-.1.1-.2.2l-.8.3H409c-.1,0-.1,0-.1-.1A10.2,10.2,0,0,0,407.6,101.1Z"/><path d="M410.8,101a10.9,10.9,0,0,0,4.8-2.4,1.5,1.5,0,0,0,.4-.6l.7.2a.1.1,0,0,0-.1-.1l-.6-.5.3-.3h-1.6a3.7,3.7,0,0,1,.5,1.1h-.1l-.8.2h-.2a.3.3,0,0,0-.1-.2,5.8,5.8,0,0,0-.5-1.4H413a5.2,5.2,0,0,1-1,1.1l-.2.2-.3-.2-.6-.5a6.5,6.5,0,0,0,1.6-2.1l.3-.7,1.1.2.2.2v.2c-.1,0-.1.1-.2.2l-.2.4h2.7v.8h0a4.6,4.6,0,0,0,.9-1.5,1.4,1.4,0,0,0,.2-.6l1.1.2h.2v.2c-.1,0-.1.2-.2.4v.2h3.5c.1,0,.1,0,.1.1v.8h-2.2a3.7,3.7,0,0,1,.5,1.1h-.1l-.8.2H419a5.8,5.8,0,0,0-.5-1.4h-.7l-.7.8c0,.1-.1.1-.1.2h.1c.2,0,.3.1.3.2h-.2a10.1,10.1,0,0,0,5.1,2.3,2.2,2.2,0,0,0-.5.8q-.2.3-.3.3h-.3l-2.5-1v.6h-4.4v-.7a14.5,14.5,0,0,1-2.6,1.1h-.2q-.2,0-.3-.3A2,2,0,0,0,410.8,101Zm3.2,5.1h-1.2v-3.8h7.2c.1,0,.1.1.1.2v3.4h-1.3v-.3h-4.8v.5Zm.1-2.8v1.3h4.8v-1.3Zm1.6-2.6h2.5a14,14,0,0,1-1.8-1.3,14,14,0,0,1-1.8,1.3Z"/><path d="M532.9,31.4l1.1.3a3.1,3.1,0,0,0-.4,1.5,1.1,1.1,0,0,0,.5.9,4.2,4.2,0,0,0,1.7.2h3.3v1.3h-3.3c-2.3,0-3.5-.8-3.5-2.3A3.5,3.5,0,0,1,532.9,31.4Zm5.5-4.4.2.5-1.3.6-1.7,1.3-.8-.8,2-1.2H533V26.4h5a6.7,6.7,0,0,0-.6-1.2l.8-.3.9,1.9Zm.6-2,.8-.3.9,1.9-.9.3A6.8,6.8,0,0,0,539,25Z"/><path d="M543,29.7h-1.6v-.9h2.4V27.2l-1.4.3H542v-.2a1.6,1.6,0,0,0-.4-.7,19.3,19.3,0,0,0,3.8-.9l.6-.3a2.7,2.7,0,0,1,.8.7v.2c0,.1,0,.2-.2.2h-.5l-1.1.4v1.7h2v.9h-1.7a7.3,7.3,0,0,0,1.8,2.2,2.2,2.2,0,0,0-.5.8c-.1.2-.1.2-.2.2h-.2a14.5,14.5,0,0,1-1.2-1.9V36c0,.1,0,.1-.1.1h-1.1c-.1,0-.1,0-.1-.1v-.7c0-1.5.1-2.8.1-4.2a10.4,10.4,0,0,1-1.8,3l-.3.2a.3.3,0,0,1-.1-.2,4.6,4.6,0,0,0-.5-1,10.5,10.5,0,0,0,2.4-3.4Zm4.6-3.5h1.3c.1,0,.1.1.1.2v.2a3.5,3.5,0,0,0-.1,1.3v4.9h-1.2V28A9.7,9.7,0,0,0,547.6,26.2Zm1,8.5H550c.2,0,.4,0,.4-.1s.1-.2.1-.3V27.1a8.1,8.1,0,0,0-.1-1.7h1.3c.2,0,.2,0,.2.1v.2c-.1.1-.1.5-.1,1.3v7.4c0,.3,0,.6-.1.7l-.3.4a.9.9,0,0,1-.7.3h-1.6a.4.4,0,0,1-.1-.3A1.9,1.9,0,0,0,548.6,34.7Z"/><path d="M560.8,34.8H562a.4.4,0,0,0,.4-.4v-2h-2.9v3.2h-1.3V32.4h-2.7a8,8,0,0,1-1.1,3.3l-.2.3-.3-.2a1.6,1.6,0,0,0-.8-.6,5.4,5.4,0,0,0,1-2.3,24.5,24.5,0,0,0,.2-3.2V25.8h9.3v8.9a1.1,1.1,0,0,1-.4,1c-.2.2-.7.3-1.6.3h-.3c0-.1-.1-.2-.1-.3A1.9,1.9,0,0,0,560.8,34.8Zm-5.2-3.5h2.6V29.6h-2.6v1.7Zm0-2.8h2.6V26.9h-2.6Zm6.8-1.6h-2.9v1.6h2.9Zm-2.9,4.4h2.9V29.6h-2.9Z"/><path d="M570.3,27.4a15.6,15.6,0,0,1-1.2,6.1,1.9,1.9,0,0,1-.9,1.2,1.7,1.7,0,0,1-2.5-.7,4.3,4.3,0,0,1-.5-2.4,5.2,5.2,0,0,1,1.3-3.8,3.9,3.9,0,0,1,1.6-1,3.3,3.3,0,0,1,1.7-.4c2.8,0,4.2,1.6,4.2,4.7s-1.3,4-4,4.6l-.6-1.1a3.9,3.9,0,0,0,2.6-1.4,3.6,3.6,0,0,0,.6-2.2,4.3,4.3,0,0,0-.7-2.8A1.9,1.9,0,0,0,570.3,27.4Zm-1.2.1a2.9,2.9,0,0,0-1.9,1.1,5,5,0,0,0-.9,3.1,3.4,3.4,0,0,0,.4,1.6.5.5,0,0,0,.5.4h.5l.3-.7a13.1,13.1,0,0,0,.7-2.7A25.1,25.1,0,0,0,569.1,27.5Z"/><path d="M574.7,26.3h8l.3.3a6.6,6.6,0,0,1-.8,2.6,5.2,5.2,0,0,1-1.4,1.6l-1.1-.8a3.5,3.5,0,0,0,1.3-1.4,2.8,2.8,0,0,0,.4-1.2h-6.7Zm.2,8.5a3.9,3.9,0,0,0,2.3-1.7,5.4,5.4,0,0,0,.6-2.7v-2h1.4v1.8a5.8,5.8,0,0,1-1,3.7,5.5,5.5,0,0,1-2.3,1.9Z"/><path d="M590.2,26.5a.9.9,0,0,1-.1-.5,1.3,1.3,0,0,1,.4-1,1.7,1.7,0,0,1,1-.3,1.3,1.3,0,0,1,1,.4,1.8,1.8,0,0,1,.4.9,1.6,1.6,0,0,1-1.4,1.4h-.4a9.9,9.9,0,0,1-1.7,5.7,9.2,9.2,0,0,1-4.1,2.7l-.7-1.1a7.2,7.2,0,0,0,3.9-2.7,8.5,8.5,0,0,0,1.2-4.4h-5.6V26.5Zm1.3-1.3a.6.6,0,0,0-.6.3c-.2.1-.2.3-.2.5a.8.8,0,0,0,.2.6l.6.2.6-.2a1.4,1.4,0,0,0,.2-.6.9.9,0,0,0-.3-.6Z"/><path d="M595.5,26v5.9h-1.4V26Zm-.7,8.7A8.1,8.1,0,0,0,597,34a3.7,3.7,0,0,0,1.2-1.3,7.5,7.5,0,0,0,.4-2.4V25.9h1.3v4.6a5.2,5.2,0,0,1-1.2,3.8,6.3,6.3,0,0,1-3.3,1.5Z"/><path d="M368,46.4h-.8a7.4,7.4,0,0,1-1.8-5.1,7.8,7.8,0,0,1,1.8-5.2h.8a7.9,7.9,0,0,0-1.7,5.2A7.5,7.5,0,0,0,368,46.4Z"/><path d="M375.1,44.5H374l-1.3-2.3-.4-.6c-.1-.1-.2-.3-.4-.4l-.3-.2h-1.3v3.6h-.9V36.1h3.3l.8.5a1.8,1.8,0,0,1,.5.7,1.3,1.3,0,0,1,.2.9,2.8,2.8,0,0,1-.1.9l-.4.6a1.2,1.2,0,0,1-.5.5l-.8.3h0l.4.3.3.2c.1.1.1.3.2.4l.3.5ZM370.3,37v3.1h1.3l.6-.2a.9.9,0,0,0,.6-.3l.3-.5a1.5,1.5,0,0,0,.1-.7,1.2,1.2,0,0,0-.4-1,1.6,1.6,0,0,0-1.2-.4Z"/><path d="M380.7,44.5h-4.3V36.1h4.2V37h-3.2v2.8h2.9v.9h-2.9v2.9h3.3Z"/><path d="M382.1,44.2V43l.4.3.6.3h1.1c.6,0,1.1-.1,1.3-.4a1.1,1.1,0,0,0,.5-.9.8.8,0,0,0-.2-.6l-.4-.5a1.5,1.5,0,0,0-.6-.4l-.7-.4-.8-.4-.6-.5a1.8,1.8,0,0,1-.5-.7,1.9,1.9,0,0,1-.1-.8,3,3,0,0,1,.2-1,2.3,2.3,0,0,1,.7-.7,1.9,1.9,0,0,1,.9-.4h1a3.4,3.4,0,0,1,1.7.3v1.1a2.7,2.7,0,0,0-1.8-.5h-.6l-.6.2-.4.4a1.8,1.8,0,0,0,0,1.2l.3.4.6.4.7.4.8.5a2.6,2.6,0,0,1,1.2,1.2,1.9,1.9,0,0,1,.2.8,2,2,0,0,1-.3,1.1,1.9,1.9,0,0,1-.6.7l-.9.4h-2.7Z"/><path d="M393.5,37h-2.3v7.5h-.9V37h-2.4v-.9h5.6Z"/><path d="M401.5,36.4V34.9h.8v1.5l2.8-.2v.7l-2.8.2v1.8l2.6-.3v.8l-2.6.2v1.2a3.4,3.4,0,0,0,.1,1.1,6.9,6.9,0,0,1,3,2l-.5.7a10.3,10.3,0,0,0-2.5-1.9h0c0,1.5-.7,2.2-2.1,2.2a2.3,2.3,0,0,1-1.6-.5c-.4-.2-.5-.6-.5-1.2a1.4,1.4,0,0,1,.6-1.2,2.5,2.5,0,0,1,1.5-.5h1.2V39.6a15,15,0,0,1-3,0v-.7h3a2.2,2.2,0,0,1-.1-.9v-.8h-3.1v-.7A16,16,0,0,0,401.5,36.4Zm.1,6.1h-1.1q-1.5,0-1.5.9c0,.6.5.9,1.4.9s1.2-.5,1.2-1.6Z"/><path d="M408.7,37.6h-1.9v-.8h2c.1-.9.2-1.6.2-2.2h.9a16.2,16.2,0,0,1-.3,2l2.6-.2v.8l-2.7.2a43.3,43.3,0,0,1-1.8,7.3l-.8-.3A34.4,34.4,0,0,0,408.7,37.6Zm1.4,4.6h.7V43c0,.4.1.8.4.9a3.1,3.1,0,0,0,1.3.2h1.8v.8h-1.7a4,4,0,0,1-2-.4,1.6,1.6,0,0,1-.6-1.4C410,42.8,410.1,42.5,410.1,42.2Zm.6-2.5v-.8a21.1,21.1,0,0,1,3.5-.2v.8A17.8,17.8,0,0,0,410.7,39.7Z"/><path d="M417.4,35.2a33.3,33.3,0,0,0-.7,5.9,28.7,28.7,0,0,0,.3,3.8h-.8c-.2-1.8-.3-3-.3-3.8s.1-1.9.2-3.2.3-1.9.5-2.8Zm4.7,2.8c0,1.6,0,2.9.1,4.1a5.5,5.5,0,0,1,2,1.5l-.5.7-1.5-1.4a2.1,2.1,0,0,1-.6,1.6,2.6,2.6,0,0,1-1.4.4c-1.3,0-2-.6-2-1.6a1.4,1.4,0,0,1,.6-1.2,2,2,0,0,1,1.3-.4h1.3c-.1-1-.1-2.3-.1-3.7h-3.2v-.8a17.1,17.1,0,0,0,3.2,0V35.1h.8v2.2l1.8-.2v.8Zm-.7,4.7a3.1,3.1,0,0,0-1.3-.3l-.8.2a.9.9,0,0,0-.3.7q0,.9,1.2.9a1.1,1.1,0,0,0,.9-.5,1.2,1.2,0,0,0,.3-.9Z"/><path d="M429.5,44.7l-.5-.2a1.3,1.3,0,0,1,0-1l.5-.2a.5.5,0,0,1,.4.2.7.7,0,0,1,0,1A.5.5,0,0,1,429.5,44.7Z"/><path d="M438.6,44.5h-1.2l-4.2-6.7-.2-.5h0v7.2h-.9V36.1h1.2l4,6.6.4.6h0a4.5,4.5,0,0,1-.1-1.3V36.1h1Z"/><path d="M445.1,44.5h-4.3V36.1h4.1V37h-3.2v2.8h3v.9h-3v2.9h3.4Z"/><path d="M451.7,37h-2.3v7.5h-1V37h-2.3v-.9h5.6Z"/><path d="M453.5,46.4h-.9a7.6,7.6,0,0,0,1.8-5.1,8,8,0,0,0-1.8-5.2h.9a8.3,8.3,0,0,1,1.7,5.2A7.8,7.8,0,0,1,453.5,46.4Z"/><path d="M11.4,102.1h-.9A7.6,7.6,0,0,1,8.7,97a7.8,7.8,0,0,1,1.8-5.2h.9A8.1,8.1,0,0,0,9.5,97,7.8,7.8,0,0,0,11.4,102.1Z"/><path d="M14.4,92.6a12.3,12.3,0,0,1-2.2,3.5l-.7-.6a9.6,9.6,0,0,0,2.6-5l.9.2a6.1,6.1,0,0,1-.3,1.1h4.2a13.2,13.2,0,0,1-2.3,6.3,10,10,0,0,1-3.8,2.7l-.5-.7a7.9,7.9,0,0,0,3.8-2.8,11.3,11.3,0,0,0,1.7-4.7Z"/><path d="M20.1,93.7h6.8a7.9,7.9,0,0,1-1.7,5.1,7.2,7.2,0,0,1-3.7,1.9l-.4-.7a7,7,0,0,0,3.6-2,6.4,6.4,0,0,0,1.2-3.5H20.1Zm.7-2.6h5.5v.8H20.8Z"/><path d="M32.3,92.2h3.1c0,2.8-.5,4.8-1.4,6.1a6.7,6.7,0,0,1-3.6,2.5l-.5-.7a7.3,7.3,0,0,0,3.5-2.4,10,10,0,0,0,1-4.7H29.2v3h-.9V92.2h3V90.4h1Z"/><path d="M38.3,95v5.7h-.9V90.6h.9v3.5A18.2,18.2,0,0,1,42.9,96l-.5.9A12,12,0,0,0,38.3,95Zm2.3-4.6.7-.3a13.5,13.5,0,0,1,.8,2.1l-.6.2A12.9,12.9,0,0,0,40.6,90.4ZM42,90l.6-.3a19.5,19.5,0,0,1,.9,2l-.7.3A7.6,7.6,0,0,0,42,90Z"/><path d="M53.8,99.7c0,.4-.1.7-.3.8s-.7.2-1.6.2h-.2a.3.3,0,0,0-.1-.2,1.4,1.4,0,0,0-.2-.6h1.5c.1-.1.1-.2.1-.4V93.2H49.4a7.2,7.2,0,0,0,1.4,2.6,8.3,8.3,0,0,0,2,1.6l-.4.4V98h-.2a7.9,7.9,0,0,1-1.9-1.7,10.3,10.3,0,0,1-1.1-2.1,1.4,1.4,0,0,1-.2.7,4.8,4.8,0,0,1-1,1.7,6.1,6.1,0,0,1-1.7,1.4h-.3l-.4-.4A7.4,7.4,0,0,0,47.4,96l.9-1.4.3-1.4H45.3v7.5h-.8V92.6h4.1V91.4a4.1,4.1,0,0,0-.1-1.2h.8c.1,0,.2,0,.2.1v1.1c0,.4-.1.7-.1,1h4.4v7.1Z"/><path d="M58.9,92.1V90.6h.8v1.5l2.9-.2v.7l-2.8.2v1.8l2.8-.3v.8l-2.8.2a6.8,6.8,0,0,0,.1,1.2v1.1a7.6,7.6,0,0,1,3.2,2l-.6.7a7.5,7.5,0,0,0-2.6-1.9h0a1.9,1.9,0,0,1-2.1,2.1,2.5,2.5,0,0,1-1.7-.4,1.4,1.4,0,0,1-.6-1.2,1.9,1.9,0,0,1,.7-1.3,3.8,3.8,0,0,1,1.6-.4h1.3a12.2,12.2,0,0,1-.1-2.1H55.9v-.7H59c0-.2-.1-.5-.1-.9v-.8H55.7v-.7A17,17,0,0,0,58.9,92.1Zm.2,6.1L57.9,98c-1.1,0-1.6.4-1.6,1s.5.9,1.4.9,1.4-.5,1.4-1.6Z"/><path d="M66.2,93.3H64.1v-.8h2.2a19.1,19.1,0,0,0,.2-2h.9a16.2,16.2,0,0,1-.3,2l2.7-.2v.8l-2.8.2a43.4,43.4,0,0,1-1.9,7.3l-.8-.3A43.4,43.4,0,0,0,66.2,93.3Zm1.4,4.6h.8a1.3,1.3,0,0,0-.1.6,1.3,1.3,0,0,0,.4,1h3.2v.9H70.2a3.7,3.7,0,0,1-2.1-.4c-.4-.2-.5-.7-.5-1.3Zm.6-2.5v-.8a23.6,23.6,0,0,1,3.7-.2v.8A20,20,0,0,0,68.2,95.4Z"/><path d="M75,90.9a35.8,35.8,0,0,0-.8,5.9,26.2,26.2,0,0,0,.3,3.7h-.8c-.2-1.8-.3-3-.3-3.8a22.3,22.3,0,0,1,.3-3.2,19.3,19.3,0,0,1,.4-2.7Zm4.8,2.8c0,1.6.1,2.9.1,4A6.5,6.5,0,0,1,82,99.3l-.5.7a9.4,9.4,0,0,0-1.6-1.4,1.8,1.8,0,0,1-.6,1.5,2,2,0,0,1-1.4.5c-1.4,0-2.1-.6-2.1-1.7a1.3,1.3,0,0,1,.7-1.1,1.8,1.8,0,0,1,1.3-.4h1.3c-.1-1-.1-2.3-.1-3.7H75.7V93H79V90.8h.8V93l1.9-.2v.8Zm-.7,4.7a3.1,3.1,0,0,0-1.3-.3l-.9.2a.9.9,0,0,0-.3.6c0,.6.4.9,1.3.9a1,1,0,0,0,.9-.4,1.4,1.4,0,0,0,.3-.9Z"/><path d="M82.8,91.5h6.6c0,2.8-.5,5-1.5,6.4a8.7,8.7,0,0,1-4,2.8l-.6-.7a7.2,7.2,0,0,0,4-2.8,9.6,9.6,0,0,0,1.1-4.9H82.8Z"/><path d="M90.7,92.9H97c-.2.9-.4,1.7-.6,2.3a6.5,6.5,0,0,1-1,1.5l-.7-.5a4.2,4.2,0,0,0,1.2-2.6H90.7Zm.8,7.8-.6-.7a3.3,3.3,0,0,0,1.8-1.7,4.9,4.9,0,0,0,.4-2.4V94.6H94v1.3a5.3,5.3,0,0,1-.7,3.1A5,5,0,0,1,91.5,100.7Z"/><path d="M13.4,108.7A33.4,33.4,0,0,1,10,111l-.5-.7a25.5,25.5,0,0,0,3.8-2.6,16.9,16.9,0,0,0,2.6-2.8l.8.5a14.2,14.2,0,0,1-2.4,2.5v7.2h-.9Z"/><path d="M18,105.7h7.8a8,8,0,0,1-.8,2.6,4.9,4.9,0,0,1-1.4,1.8l-.7-.5a6.1,6.1,0,0,0,1.2-1.6,4.7,4.7,0,0,0,.6-1.5H18Zm.3,8.6a4.6,4.6,0,0,0,2.2-1.8,6.6,6.6,0,0,0,.6-3.1v-1.9H22v1.9a6.9,6.9,0,0,1-.9,3.8,5.8,5.8,0,0,1-2.2,1.8Z"/><path d="M31.1,106.6h3c0,2.8-.4,4.8-1.3,6.1a6.7,6.7,0,0,1-3.6,2.5l-.5-.7a6.5,6.5,0,0,0,3.4-2.4,8.8,8.8,0,0,0,1.1-4.7H28v3h-.9v-3.8h3v-1.8h1Z"/><path d="M38.7,109.3H35.5v-.8h3.7v-1.7h.9v1.7H42v.8H40.2l.2,5.7h-.9v-5.5l-.3,1a12,12,0,0,1-3.4,3.7l-.6-.7A10.6,10.6,0,0,0,38.7,109.3Z"/><path d="M43.1,109.7h6.5v.9H43.1Z"/><path d="M52.7,105.5c0,2.2-.1,3.9-.1,4.9a8.8,8.8,0,0,1-.4,2,5.6,5.6,0,0,1-1.7,2.6l-.7-.6a4.4,4.4,0,0,0,1.6-2.3,7.7,7.7,0,0,0,.3-2.5c0-.9.1-2.3.1-4.1Zm2.5,8.1a9.1,9.1,0,0,0,3.2-4.1l.6.8a10.7,10.7,0,0,1-4.2,4.7l-.5-.3v-9.3h.9Z"/><path d="M64.8,106.8a18.7,18.7,0,0,1-1.3,6.3,1.8,1.8,0,0,1-1.6,1.2,1.5,1.5,0,0,1-1.4-.9A4.8,4.8,0,0,1,60,111a7.8,7.8,0,0,1,.4-2.2,3.6,3.6,0,0,1,2.4-2.4,3.3,3.3,0,0,1,1.7-.4,3.6,3.6,0,0,1,3,1.3,5.4,5.4,0,0,1,.8,3.3,4.1,4.1,0,0,1-3.7,4.4l-.4-.7a3.6,3.6,0,0,0,3.3-3.9,4.2,4.2,0,0,0-.9-2.9A2.4,2.4,0,0,0,64.8,106.8Zm-.9.1a1.8,1.8,0,0,0-1.1.3l-1,.8a4.8,4.8,0,0,0-.9,3.1,4.8,4.8,0,0,0,.3,1.8c.2.3.4.5.7.5l.5-.2.4-.7A19.1,19.1,0,0,0,63.9,106.9Z"/><path d="M74,104.9v.2a5.5,5.5,0,0,0-.1.9v2.9h-.8v-.8l-2.7.6h-.7v-.2c-.1-.2-.1-.4-.2-.6h.8l2.9-.5v-.9H69.8V106h3.3v-1.2h.7C73.9,104.8,74,104.8,74,104.9Zm4.1,9.4a1,1,0,0,1-.3.8,3.2,3.2,0,0,1-1.5.2h-.2a.3.3,0,0,1-.1-.2.8.8,0,0,0-.2-.5h1.5c.1-.1.1-.2.1-.4v-.9H72.2v2.1c0,.1,0,.1-.1.1h-.5c-.1,0-.1,0-.1-.1v-5.6c0-.1,0-.1.1-.1H78c.1,0,.1,0,.1.1v4.6Zm-.7-3.2v-.9H72.2v.9Zm0,1.5v-.9H72.2v.9Zm2.6-5.1a1.7,1.7,0,0,1-.6,1.2,4.2,4.2,0,0,1-1.9.2H75.8a.8.8,0,0,1-.5-.7v-3.4h.9c0,.1,0,.1-.1.3v1.4l2.2-.8.6-.4.5.5h-.1l-.5.2-2.7.9v1h1.4a4,4,0,0,0,1.5-.2.5.5,0,0,0,.2-.4,1.5,1.5,0,0,0,.1-.7l.5.2.2.2Z"/><path d="M84.5,107.7v.2c-.1,0-.1.1-.2.3l-.8,1.1v6.1h-.7v-5.3a6.3,6.3,0,0,1-1.1,1.2.1.1,0,0,0-.1.1l-.2-.2-.3-.4a8.7,8.7,0,0,0,2.5-3c.2-.2.2-.4.3-.5l.6.3A.1.1,0,0,1,84.5,107.7Zm0-2.5h-.2q0,.2-.3.3a8.8,8.8,0,0,1-2.1,2.2h-.2c-.1,0-.1-.1-.2-.2l-.3-.3a9.6,9.6,0,0,0,2.3-2.2c.1-.2.2-.3.2-.5l.7.3C84.4,105.1,84.5,105.1,84.5,105.2Zm7.7,9.4-.3.5-.2.2h-.1a12.3,12.3,0,0,1-3.6-1.4,8.6,8.6,0,0,1-3.5,1.5h-.2l-.2-.2-.2-.4a8.5,8.5,0,0,0,3.6-1.3,8.6,8.6,0,0,1-1.3-1.4,10.9,10.9,0,0,1-1.7,1.3h-.4l-.3-.4a6.3,6.3,0,0,0,2.6-2.2l.3-.7H84.5s-.1,0-.1-.2a3.5,3.5,0,0,1-.1-.6h2l.7-.7-2.1-1.8h0l.3-.3h.1l.7.5,1.1-1.7c.2-.2.2-.4.3-.6l.6.3.2.2H88l-.3.4a14.7,14.7,0,0,1-1.3,1.7l1,.9a15.6,15.6,0,0,0,1.6-2c.2-.2.3-.3.3-.5l.6.3a.2.2,0,0,1,.2.2h-.2l-.4.5a27.3,27.3,0,0,1-2.3,2.5l3.1-.3-.7-.8h.5a12.4,12.4,0,0,1,1.8,2.2h-.1l-.3.2h-.2l-.6-.9-4,.4h.6l.2.2h-.1q-.2,0-.3.3a.3.3,0,0,0-.1.2h2.8l.3.2c.1.1.2.2.2.3v.2q-.2,0-.3.3a10,10,0,0,1-1.3,1.5A12.6,12.6,0,0,0,92.2,114.6Zm-2.9-3.1H86.6A5,5,0,0,0,88,113,4.7,4.7,0,0,0,89.3,111.5Z"/><path d="M93.3,116.5h-.8a7.8,7.8,0,0,0,1.8-5.1,8,8,0,0,0-1.8-5.2h.8a7.4,7.4,0,0,1,1.9,5.2A7.2,7.2,0,0,1,93.3,116.5Z"/><path d="M152.2,97.4h-.9a7.6,7.6,0,0,1-1.8-5.1,7.8,7.8,0,0,1,1.8-5.2h.9a8.3,8.3,0,0,0,0,10.3Z"/><path d="M152.7,95.2V94l.5.3.6.2.6.2h.6a2.2,2.2,0,0,0,1.3-.4,1.1,1.1,0,0,0,.5-1,.8.8,0,0,0-.2-.5,1,1,0,0,0-.4-.5l-.6-.4-.8-.4-.8-.5a1.8,1.8,0,0,1-.7-.5c-.2-.1-.3-.4-.4-.6a1.9,1.9,0,0,1-.2-.8,1.7,1.7,0,0,1,.3-1c.1-.3.4-.5.6-.7l1-.4h1a4.4,4.4,0,0,1,1.9.3v1.1a3.2,3.2,0,0,0-2-.6h-.6l-.6.2-.4.4a1.8,1.8,0,0,0,0,1.2l.3.4.6.4.8.4.8.4.7.6.5.6a2.9,2.9,0,0,1,.2.9,3,3,0,0,1-.2,1,2.3,2.3,0,0,1-.7.7l-.9.4h-2.8Z"/><path d="M161.8,95.4c-.2.2-.5.2-.9.2a1.5,1.5,0,0,1-1.6-1.7V90.3h-1v-.8h1V88l1-.3v1.8h1.5v.8h-1.5v3.4a2,2,0,0,0,.2.9l.7.2.6-.2Z"/><path d="M167.5,95.5h-1v-.9h0a1.9,1.9,0,0,1-1.8,1,2,2,0,0,1-1.4-.4,1.7,1.7,0,0,1-.5-1.3c0-1.1.6-1.8,1.9-2l1.8-.2q0-1.5-1.2-1.5a3.1,3.1,0,0,0-2,.7v-1a3.6,3.6,0,0,1,2.1-.5c1.4,0,2.1.7,2.1,2.2Zm-1-3-1.4.2a1.3,1.3,0,0,0-1,.3.9.9,0,0,0-.4.8.7.7,0,0,0,.4.7,1,1,0,0,0,.8.3,1.3,1.3,0,0,0,1.2-.5,1.6,1.6,0,0,0,.4-1.2Z"/><path d="M174.2,95.5h-.9V92.1c0-1.3-.5-1.9-1.4-1.9a1.3,1.3,0,0,0-1.2.5,2.2,2.2,0,0,0-.5,1.4v3.4h-1v-6h1v1h0a2.1,2.1,0,0,1,2-1.1,1.8,1.8,0,0,1,1.5.6,3,3,0,0,1,.5,1.8Z"/><path d="M181.2,95.5h-1v-1h0a2.5,2.5,0,0,1-2.1,1.1,2.2,2.2,0,0,1-1.8-.8,2.9,2.9,0,0,1-.7-2.2,3.2,3.2,0,0,1,.8-2.3,2.4,2.4,0,0,1,2-.9,2,2,0,0,1,1.8.9h0V86.6h1Zm-1-2.7v-.9a1.7,1.7,0,0,0-.5-1.2,1.3,1.3,0,0,0-1.2-.5,1.7,1.7,0,0,0-1.4.6,3,3,0,0,0-.5,1.8,2.5,2.5,0,0,0,.5,1.6,1.5,1.5,0,0,0,1.3.6,1.6,1.6,0,0,0,1.3-.6A2,2,0,0,0,180.2,92.8Z"/><path d="M187.3,95.5h-1v-.9h0a1.9,1.9,0,0,1-1.8,1,2,2,0,0,1-1.4-.4,1.7,1.7,0,0,1-.5-1.3c0-1.1.6-1.8,1.9-2l1.8-.2q0-1.5-1.2-1.5a3.1,3.1,0,0,0-2,.7v-1a3.6,3.6,0,0,1,2.1-.5c1.4,0,2.1.7,2.1,2.2Zm-1-3-1.4.2a1.3,1.3,0,0,0-1,.3.9.9,0,0,0-.4.8.7.7,0,0,0,.4.7,1,1,0,0,0,.8.3,1.3,1.3,0,0,0,1.2-.5,1.6,1.6,0,0,0,.4-1.2Z"/><path d="M192.2,90.5c-.2-.2-.4-.2-.8-.2a1.2,1.2,0,0,0-1,.6,2.2,2.2,0,0,0-.4,1.5v3.1h-1v-6h1v1.2h0a3.6,3.6,0,0,1,.7-1,1.2,1.2,0,0,1,.9-.3h.6Z"/><path d="M198.4,95.5h-1v-1h0a2.5,2.5,0,0,1-2.1,1.1,2.2,2.2,0,0,1-1.8-.8,2.9,2.9,0,0,1-.7-2.2,3.2,3.2,0,0,1,.8-2.3,2.4,2.4,0,0,1,2-.9,2,2,0,0,1,1.8.9h0V86.6h1Zm-1-2.7v-.9a1.7,1.7,0,0,0-.5-1.2,1.3,1.3,0,0,0-1.2-.5,1.7,1.7,0,0,0-1.4.6,3,3,0,0,0-.5,1.8,2.5,2.5,0,0,0,.5,1.6,1.5,1.5,0,0,0,1.3.6,1.6,1.6,0,0,0,1.3-.6A2,2,0,0,0,197.4,92.8Z"/><path d="M207,87.4V85.8h.8v1.6l2.9-.2v.7l-2.9.2v1.8l2.7-.3v.8l-2.7.2v1.2c0,.4.1.8.1,1a9.9,9.9,0,0,1,3.2,2.1l-.6.7a8.6,8.6,0,0,0-2.6-1.9h0a1.9,1.9,0,0,1-2.1,2.1,3,3,0,0,1-1.8-.4,1.7,1.7,0,0,1-.5-1.2,1.5,1.5,0,0,1,.7-1.3,2.5,2.5,0,0,1,1.6-.4h1.2a17.9,17.9,0,0,0-.1-2.1h-3.1v-.7H207V88.2h-3.3v-.7Zm.1,6.1-1.2-.2c-1,0-1.5.3-1.5,1s.5.9,1.4.9,1.3-.5,1.3-1.6Z"/><path d="M214.2,88.6h-2v-.7h2.2c.1-.8.1-1.5.2-2.1h.9l-.3,2,2.6-.2v.8l-2.8.2a55.7,55.7,0,0,1-1.9,7.3l-.9-.3A35.1,35.1,0,0,0,214.2,88.6Zm1.5,4.6h.7v.6a1.1,1.1,0,0,0,.4,1H220v.9h-1.8a3.5,3.5,0,0,1-2.1-.4,1.4,1.4,0,0,1-.6-1.3A2.8,2.8,0,0,1,215.7,93.2Zm.6-2.6v-.8H220v.7Z"/><path d="M223,86.2a33.3,33.3,0,0,0-.7,5.9,26.2,26.2,0,0,0,.3,3.7h-.9c-.1-1.8-.2-3.1-.2-3.8s.1-1.9.2-3.2a23.3,23.3,0,0,1,.5-2.8Zm4.9,2.8c0,1.6,0,2.9.1,4a6.5,6.5,0,0,1,2.1,1.6l-.6.7a4.8,4.8,0,0,0-1.5-1.4,1.8,1.8,0,0,1-.6,1.5,2.2,2.2,0,0,1-1.4.5c-1.4,0-2.1-.6-2.1-1.7a1.4,1.4,0,0,1,.6-1.1,2.1,2.1,0,0,1,1.4-.4h1.3c-.1-1.1-.1-2.3-.1-3.8h-3.3v-.8H227V86.1h.9v2.2l1.9-.2v.8Zm-.7,4.6-1.4-.2-.8.2a.9.9,0,0,0-.3.6c0,.6.4.9,1.3.9a1,1,0,0,0,.9-.4,1.6,1.6,0,0,0,.3-.9Z"/><path d="M163.7,109.9h-1.1l-.8-2.4h-3.6l-.8,2.4h-1.1l3.2-8.4h1Zm-2.3-3.2-1.3-3.6a3.5,3.5,0,0,1-.1-.6h0a4.2,4.2,0,0,1-.2.6l-1.3,3.6Z"/><path d="M165.9,109.9h-1v-8.4h1Z"/><path d="M173,100.8a27.2,27.2,0,0,0-.7,5.6,20.9,20.9,0,0,0,.3,3.8h-.9a23.8,23.8,0,0,1-.3-3.9,39.3,39.3,0,0,1,.7-5.7Zm1,6h.8a4.1,4.1,0,0,0-.1,1.1c0,.4.1.7.4.8a2.1,2.1,0,0,0,1.3.3l2.4-.2v.9h-2.3a4.8,4.8,0,0,1-2.1-.4,2,2,0,0,1-.5-1.4A5.7,5.7,0,0,1,174,106.8Zm.3-4V102h4.4v.8h-4.4Z"/><path d="M184.3,103.6c0,1.2.1,2.4.2,3.4a8,8,0,0,1,3.4,2l-.6.7a7.5,7.5,0,0,0-2.7-1.9v.6a1.7,1.7,0,0,1-.7,1.5,3.3,3.3,0,0,1-1.5.4c-1.5,0-2.2-.6-2.2-1.7a1.9,1.9,0,0,1,.8-1.5,3.3,3.3,0,0,1,1.5-.3h1.2a61.8,61.8,0,0,1-.3-6.5h.8a17,17,0,0,0,.1,2.5l3.1-.2v.8Zm-.6,4h-1.1a1.9,1.9,0,0,0-1.2.3c-.3.2-.5.4-.5.7s.5,1,1.4,1,1.5-.4,1.5-1.2A5.6,5.6,0,0,1,183.7,107.6Z"/><path d="M189.4,100.9h4.9l.5.6c-1.5,1.6-2.8,2.8-3.7,3.6l-.5.4h0l.6-.5a4.1,4.1,0,0,1,1.7-.4,3.6,3.6,0,0,1,2.4.8,3.1,3.1,0,0,1,.6,1.9,2.8,2.8,0,0,1-1.1,2.5,4.1,4.1,0,0,1-2.7.7c-1.6,0-2.4-.5-2.4-1.6a1.4,1.4,0,0,1,.5-1.1,2,2,0,0,1,1.3-.4,2,2,0,0,1,1.5.6,5.2,5.2,0,0,1,.7,1.5,1.8,1.8,0,0,0,1-.9,2.2,2.2,0,0,0,.4-1.3,1.9,1.9,0,0,0-.8-1.6,2.3,2.3,0,0,0-1.4-.4,3.9,3.9,0,0,0-2.9,1.1,5.2,5.2,0,0,0-1,1.1l-.7-.6,5.2-5.4-4.1.2Zm3.4,8.8a3.3,3.3,0,0,0-.5-1.2,1.1,1.1,0,0,0-.9-.4l-.6.2a.9.9,0,0,0-.3.6.8.8,0,0,0,.4.7l1.1.2Z"/><path d="M200.6,103.8h-2.1c-.1.5-.2,1.1-.3,1.9h2.3v.2c-.1.1-.1.3-.1.7a9.5,9.5,0,0,1-.6,3.5,1.1,1.1,0,0,1-1.1.6h-.9v-.2c-.1-.2-.1-.4-.2-.5h1a.6.6,0,0,0,.6-.3,9.7,9.7,0,0,0,.5-3.3h-1.7v.5c0,.1,0,.1-.1.1h-.3l-.3-.2h0c.2-.9.4-1.7.5-2.5v-.8h2.1v-1.9h-2.5v-.5c0-.1,0-.1.1-.1h3a.1.1,0,0,1,.1.1v3.1Zm7.3,6.3h0c0,.1,0,.1-.1.1l-.3.2h-.2l-.6-1-4.9.8-.5.2h-.2a.1.1,0,0,1-.1-.1c-.1-.3-.1-.5-.2-.8h1.3l1.8-.2v-1.9h-2.5v-2.9h2.5v-1.3h-2.7c0-.3-.1-.6-.1-.8h1a16.2,16.2,0,0,0,1-1.8,5.1,5.1,0,0,0,.2-.9l.7.2v.2a.3.3,0,0,1-.1.2c-.1,0-.1.1-.2.3a14.7,14.7,0,0,1-.9,1.7l3.3-.2a9.3,9.3,0,0,0-1-1h.6a13,13,0,0,1,1.9,2.2h-.1l-.3.2h-.2l-.5-.8-2.1.2v1.4h2.6v2.9h-2.6v1.8l1.9-.3-.5-.7h-.1c0-.1.1-.1.2-.1l.2-.2h.2A9.5,9.5,0,0,1,207.9,110.1Zm-4-3.3V105h-1.8v1.8Zm2.6,0V105h-2v1.8Z"/><path d="M212.8,100.5c0,.1-.1.1-.1.2s-.2.2-.3.4l-.9,1.8v7.7c0,.1,0,.1-.1.1h-.5c-.1,0-.1,0-.1-.1v-6.7a14.6,14.6,0,0,1-1.6,1.9h-.3l-.3-.5a13.1,13.1,0,0,0,3.1-4.4,3.1,3.1,0,0,0,.2-.8l.7.3Zm6.5,7.7a8.6,8.6,0,0,1-.3,1.3,1,1,0,0,1-.4.5,3.3,3.3,0,0,1-2,.4h-2a1.3,1.3,0,0,1-.7-1.3v-7.4a5.3,5.3,0,0,0-.1-1.4h.8c.1,0,.2,0,.2.1V105a12.3,12.3,0,0,0,2.8-2.3l.5-.6.6.5c.1,0,.1.1.1.2h-.2l-.6.5a17.7,17.7,0,0,1-3.2,2.4v2.9a1.5,1.5,0,0,0,.1.7l.3.2h1.5a2.8,2.8,0,0,0,1.5-.3,2.9,2.9,0,0,0,.4-1.8l.6.3.2.2Z"/><path d="M220.5,111.8h-.8a8.3,8.3,0,0,0,0-10.3h.8a7.8,7.8,0,0,1,1.8,5.2A7.6,7.6,0,0,1,220.5,111.8Z"/><path d="M282.3,74.2l-3.4,2.3-.5-.7a24.5,24.5,0,0,0,3.7-2.6,17.5,17.5,0,0,0,2.7-2.8l.8.5a18.8,18.8,0,0,1-2.4,2.5v7.2h-.9Z"/><path d="M287,71.5l2.8,1.8-.6.8a15.8,15.8,0,0,0-2.7-1.8Zm6.1.6.9.5a10.1,10.1,0,0,1-2.3,5,8.7,8.7,0,0,1-4.8,2.7l-.4-.8C290.3,78.6,292.5,76.1,293.1,72.1Z"/><path d="M298.8,74.5h-3.7v-.8h7.6v.8h-3c0,1-.1,1.7-.1,2.2l-.3,1.1a5.3,5.3,0,0,1-2.9,2.8l-.6-.7a4.2,4.2,0,0,0,2.6-2.4A12.5,12.5,0,0,0,298.8,74.5Zm-3-3.4h5.1v.8h-5.1Zm5.2-.9.6-.2a12.9,12.9,0,0,1,.9,2l-.6.3A22,22,0,0,0,301,70.2Zm1.4-.4.5-.2a7.5,7.5,0,0,1,.9,2l-.6.2Z"/><path d="M304.2,73.6l.7-.3a9.4,9.4,0,0,1,1,2.6l-.8.3A11.4,11.4,0,0,0,304.2,73.6Zm1.3,6.5a6.1,6.1,0,0,0,3.2-2.7,9.5,9.5,0,0,0,1-4.4l.9.2a9.8,9.8,0,0,1-1.2,4.7,5.8,5.8,0,0,1-1.4,1.7,7.5,7.5,0,0,1-2,1.1Zm.9-7,.8-.3a23,23,0,0,1,.9,2.5l-.8.4A11.1,11.1,0,0,0,306.4,73.1Z"/><path d="M314.7,72.5a11.7,11.7,0,0,1-2.2,3.4l-.7-.5a10.4,10.4,0,0,0,2.6-5l.9.2a6.1,6.1,0,0,1-.3,1.1h4.1a12.3,12.3,0,0,1-2.2,6.3,10,10,0,0,1-3.8,2.7l-.6-.7a8.9,8.9,0,0,0,3.9-2.8,11.8,11.8,0,0,0,1.7-4.7Z"/><path d="M324.9,76.7a11.1,11.1,0,0,1-4.3,3.7l-.5-.6a10,10,0,0,0,3.9-3.4,13,13,0,0,0,1.8-4.3h-5.1v-.8h6.2a15.5,15.5,0,0,1-1.5,4.6,36,36,0,0,1,2.8,4l-.9.5A29.2,29.2,0,0,0,324.9,76.7Z"/><path d="M277,86.9v-2h.8v1.9l2.3-.2v.8l-2.3.2v2.3a7,7,0,0,1,2.3-.4,2.4,2.4,0,0,1,2.2,1,2.8,2.8,0,0,1,.5,1.6,2.3,2.3,0,0,1-1.1,2.2,5.2,5.2,0,0,1-2.4.4V94a4.1,4.1,0,0,0,1.9-.4,1.9,1.9,0,0,0,.7-1.6,1.8,1.8,0,0,0-.6-1.3,1.4,1.4,0,0,0-1.1-.5,6.9,6.9,0,0,0-2.4.5v3.1c0,.4,0,.7-.2.8a.8.8,0,0,1-.7.3,1.6,1.6,0,0,1-1-.4,1.9,1.9,0,0,1-1.1-1.7c0-1,.7-1.9,2.2-2.6V87.6h-2.1v-.8Zm0,4.2-1.1.8a1.6,1.6,0,0,0-.3.9,1.4,1.4,0,0,0,.2.6l.6.4h.4c.1,0,.2-.1.2-.4Zm3.4-4.9.5-.6a12.6,12.6,0,0,1,2.4,1.9l-.6.7A10.7,10.7,0,0,0,280.4,86.2Z"/><path d="M288.3,88.1a34.9,34.9,0,0,0,.2,3.5,8.7,8.7,0,0,1,3.4,2l-.6.7a7.5,7.5,0,0,0-2.7-1.9V93a2,2,0,0,1-.7,1.5,3.3,3.3,0,0,1-1.5.4c-1.5,0-2.3-.6-2.3-1.7a1.8,1.8,0,0,1,.9-1.5,3.2,3.2,0,0,1,1.4-.3h1.3c-.2-1.9-.3-4.1-.4-6.5h.9v2.5l3.2-.2V88Zm-.6,4.1h-1.1a2.3,2.3,0,0,0-1.3.3,1,1,0,0,0-.4.7c0,.7.5,1,1.4,1s1.4-.4,1.4-1.2Z"/><path d="M293,86.9v-.8a16.2,16.2,0,0,0,3.5-.3l.3.7a6.6,6.6,0,0,0-2.1,2.3,6,6,0,0,0-.7,3,2.4,2.4,0,0,0,.6,1.8,1.7,1.7,0,0,0,1.4.6,2.4,2.4,0,0,0,2.3-1.4,6.1,6.1,0,0,0,.6-3,11.5,11.5,0,0,0-.6-3.7l.9-.3a15.7,15.7,0,0,0,2.4,4.3l-.7.6a17.6,17.6,0,0,1-1.4-2.7l-.2-.6h-.1V88a11.5,11.5,0,0,1,.4,2.2q0,4.8-3.6,4.8c-2,0-3-1.1-3-3.2a7.3,7.3,0,0,1,2.3-5.2Zm6.2-2.3.7-.3a13.5,13.5,0,0,1,.8,2.1l-.6.2A12.9,12.9,0,0,0,299.2,84.6Zm1.4-.4.6-.2a6.8,6.8,0,0,1,.8,1.9l-.6.3A13.8,13.8,0,0,0,300.6,84.2Z"/><path d="M303.8,85.5l5.1-.3.3.6a34.2,34.2,0,0,1-4.3,3.6l-.6.4h0l.7-.2,5-.9v.8l-1.9.5a5,5,0,0,0-1.6,1.1,1.9,1.9,0,0,0-.6,1.3,1.3,1.3,0,0,0,1,1.4,5.5,5.5,0,0,0,2.4.4V95a6.2,6.2,0,0,1-3.2-.6,2,2,0,0,1-1-1.9,2.3,2.3,0,0,1,.7-1.7,6.4,6.4,0,0,1,1.6-1.1h0l-.7.2-3.9,1-.2-.8,1.2-.8a23.7,23.7,0,0,0,3.9-3.3l-4,.3Z"/><path d="M316.1,86.6a19.1,19.1,0,0,1-1.2,6.4,1.9,1.9,0,0,1-1.7,1.2,1.5,1.5,0,0,1-1.3-.9,5.1,5.1,0,0,1-.5-2.4,5.4,5.4,0,0,1,.4-2.2,3.8,3.8,0,0,1,.9-1.5,5.6,5.6,0,0,1,1.5-1,4.7,4.7,0,0,1,1.7-.3,3.6,3.6,0,0,1,3,1.3,5.2,5.2,0,0,1,.8,3.3,4.8,4.8,0,0,1-.9,2.9,5.1,5.1,0,0,1-2.8,1.5l-.5-.7a3.6,3.6,0,0,0,3.3-4,3.9,3.9,0,0,0-.9-2.8A2.5,2.5,0,0,0,316.1,86.6Zm-.9.1-1.1.4a3.2,3.2,0,0,0-.9.8,4.9,4.9,0,0,0-.6,4.9c.2.3.4.5.6.5a1.1,1.1,0,0,0,.6-.2l.4-.7A16.7,16.7,0,0,0,315.2,86.7Z"/><path d="M324.4,85v.2c-.1,0-.2.2-.3.4a10.8,10.8,0,0,1-.8,1.9v7.7h-.7V88.7a5.8,5.8,0,0,1-1.1,1.5h-.2a1,1,0,0,0-.4-.5,11,11,0,0,0,2.5-4.3,1.9,1.9,0,0,0,.2-.8l.7.3Zm7.4,7.8c-.1.9-.3,1.5-.6,1.7s-1.5.5-3,.5a5.9,5.9,0,0,1-2.2-.2c-.6-.1-.8-.5-.8-1.1v-4l-.9.3h-.4v-.6h.3l1.1-.3V87.4c0-.6-.1-1-.1-1.3h.8a.1.1,0,0,1,.1.1v2.6l1.6-.5V86.4a6.7,6.7,0,0,0-.1-1.6h.9v.2a8.4,8.4,0,0,0-.1,1.2V88l1.2-.3,1.2-.5h.3c.1,0,.1,0,.1.1v.9q-.2,2.1-.3,3c-.1.4-.2.7-.4.8l-.6.2h-.8c-.1,0-.1-.1-.1-.2s-.1-.3-.1-.5h.9c.1,0,.2,0,.3-.2s.1-.2.2-.5.1-1.6.2-2.7l-2.1.7v4h-.8V88.9l-1.6.6v3.9c0,.5.2.7.5.8h1.9a5.6,5.6,0,0,0,2.3-.3c.3-.2.5-.8.5-1.7l.5.3c.2,0,.2.1.2.2Z"/><path d="M285.9,101a18.8,18.8,0,0,1-1.3,6.4,1.8,1.8,0,0,1-1.6,1.2,1.5,1.5,0,0,1-1.4-.9,5.2,5.2,0,0,1-.4-2.4,7.8,7.8,0,0,1,.3-2.2l.9-1.5a5.6,5.6,0,0,1,1.5-1,5.1,5.1,0,0,1,1.7-.3,3.6,3.6,0,0,1,3,1.3,5.2,5.2,0,0,1,.9,3.3,4.8,4.8,0,0,1-1,2.9,4.8,4.8,0,0,1-2.8,1.5l-.4-.7a3.6,3.6,0,0,0,3.3-4,3.9,3.9,0,0,0-.9-2.8A3,3,0,0,0,285.9,101Zm-.9.1-1.1.4a3.2,3.2,0,0,0-.9.8,4.3,4.3,0,0,0-1,3.1,4.8,4.8,0,0,0,.3,1.8c.2.3.4.5.7.5l.5-.2a4.3,4.3,0,0,0,.4-.7A16.4,16.4,0,0,0,285,101.1Z"/><path d="M294.3,104.8l-.3.4c0,.1,0,.2-.1.2a.1.1,0,0,0-.1-.1c-.3-.7-.6-1.4-.9-2.3,0,1.5.1,3.1.1,4.8v1.4a2,2,0,0,0,.1.5h-.8v-1.1c.1-1.9.1-3.8.1-5.5a13.1,13.1,0,0,1-1.4,3.8h-.2l-.3-.5a14.2,14.2,0,0,0,1.7-4.2h-1.3a.1.1,0,0,1-.1-.1v-.5h1.5v-1.1a4.5,4.5,0,0,0-.1-1.4h1c0,.1-.1.2-.1.3s-.1.4-.1,1v1.1h1.2v.5H293A9,9,0,0,0,294.3,104.8Zm7.2,2.6h-1.1v1.1a1.3,1.3,0,0,1-.2.8c-.2.2-.6.2-1.4.2h-.2v-.2a.8.8,0,0,0-.2-.4h1.4v-1.4h-4.4v2.1c0,.1,0,.1-.1.1h-.5a.1.1,0,0,1-.1-.1v-2.1h-1v-.3h1v-2.7h2.5v-.9h-3c-.1,0-.1,0-.1-.1V103h2V102h-1.4v-.3H296v-.8h-1.6c-.1,0-.1,0-.1-.1v-.4a.1.1,0,0,1,.1-.1H296a3.5,3.5,0,0,0-.1-1.2h.8v.2c-.1.1-.1.4-.1.9h1.8c0-.6-.1-1-.1-1.2h.8v.2c-.1.1-.1.4-.1.9h2.1a.1.1,0,0,1,.1.1v.4c0,.1,0,.1-.1.1H299v.8h1.8v.3H299v.9h2.4v.3c0,.1,0,.1-.1.1h-3.5v.9h2.6V107h1.1Zm-4.4-1.8v-.8h-1.8v.8Zm0,1.4v-.9h-1.8v.9Zm1.3-5.5v-.8h-1.8v.8Zm0,1.4V102h-1.8v.9Zm1.3,2.7v-.8h-1.9v.8Zm0,1.4v-.9h-1.9v.9Z"/><path d="M313.6,108.5a.8.8,0,0,0-.2.5.4.4,0,0,1-.1.3h-.2l-4.3.2a8.5,8.5,0,0,1-2.9-.4,2.5,2.5,0,0,1-1.1-1.2l-1.3,1.2-.3.2a.1.1,0,0,1-.1.1h-.2l-.3-.6.7-.5a5.2,5.2,0,0,0,1.1-1v-2.9h-1.8v-.5c0-.1,0-.1.1-.1H305c.1,0,.1,0,.1.1v3.6a2.2,2.2,0,0,0,1,1.1,7.3,7.3,0,0,0,2.5.3A41.8,41.8,0,0,0,313.6,108.5Zm-8.5-7.4H305l-.3.2h-.3a7,7,0,0,0-1.3-1.7h.1l.3-.2h.2Zm8,2.5h-7.4v-.5h3.4v-1.7h-1.9a3.6,3.6,0,0,1-.7,1l-.2.2h-.1l-.5-.3a4.6,4.6,0,0,0,1.3-2c.2-.2.2-.5.3-.7l.6.2h.2c0,.1-.1.1-.1.2s-.2.2-.3.4-.1.3-.2.4h1.6v-.5c0-.5-.1-.9-.1-1.2h.7c.1,0,.2,0,.2.1v1.5h2.6v.5a.1.1,0,0,1-.1.1h-2.5V103h3.3Zm-1,4a.1.1,0,0,1-.1.1h-5.1a.1.1,0,0,1-.1-.1v-2.9a.1.1,0,0,1,.1-.1H312a.1.1,0,0,1,.1.1v2.9Zm-.7-.6v-1.7h-3.9V107Z"/><path d="M317.7,99.4h-.1a.8.8,0,0,0-.2.5l-.9,1.9v7.8h-.7v-6.6a7.6,7.6,0,0,1-1.1,1.4v0l-.3-.4a15.6,15.6,0,0,0,2.5-4.3,2.5,2.5,0,0,0,.1-.8l.8.2C317.6,99.3,317.7,99.3,317.7,99.4Zm7.7,7.5-.4.4a.3.3,0,0,1-.1.2l-.2-.2a20.2,20.2,0,0,1-2.1-2.2,12.6,12.6,0,0,1-1.3-2.3v4h1.9c.1,0,.1,0,.1.1v.5h-2v2.1c0,.1,0,.1-.1.1h-.6a.1.1,0,0,1-.1-.1v-.3a10.9,10.9,0,0,1,.1-1.8h-2v-.5a.1.1,0,0,1,.1-.1h1.9v-4a12.6,12.6,0,0,1-1.4,2.6,10.7,10.7,0,0,1-1.8,1.9h-.4l-.3-.4a10.4,10.4,0,0,0,2.1-2.1,9.5,9.5,0,0,0,1.4-2.4h-2.8a.1.1,0,0,1-.1-.1v-.5h3.3v-1.2c0-.7-.1-1.2-.1-1.5h.8a.1.1,0,0,1,.1.1v2.5h3.7v.5c0,.1,0,.1-.1.1h-3.4a12.1,12.1,0,0,0,1.7,2.5A13.7,13.7,0,0,0,325.4,106.9Z"/><path d="M368,121.4h-.8a7.4,7.4,0,0,1-1.8-5.1,7.8,7.8,0,0,1,1.8-5.2h.8a7.9,7.9,0,0,0-1.7,5.2A7.5,7.5,0,0,0,368,121.4Z"/><path d="M375.1,119.5H374l-1.3-2.3-.4-.6c-.1-.1-.2-.3-.4-.4l-.3-.2h-1.3v3.6h-.9v-8.4h3.3l.8.5a1.8,1.8,0,0,1,.5.7,1.3,1.3,0,0,1,.2.9,2.8,2.8,0,0,1-.1.9l-.4.6a1.2,1.2,0,0,1-.5.5l-.8.3h0l.4.3.3.2c.1.1.1.3.2.4l.3.5Zm-4.8-7.5v3.1h1.3l.6-.2a.9.9,0,0,0,.6-.3l.3-.5a1.5,1.5,0,0,0,.1-.7,1.2,1.2,0,0,0-.4-1,1.6,1.6,0,0,0-1.2-.4Z"/><path d="M380.7,119.5h-4.3v-8.4h4.2v.9h-3.2v2.8h2.9v.9h-2.9v2.9h3.3Z"/><path d="M382.1,119.2V118l.4.3.6.3h1.1c.6,0,1.1-.1,1.3-.4a1.1,1.1,0,0,0,.5-.9.8.8,0,0,0-.2-.6l-.4-.5a1.5,1.5,0,0,0-.6-.4l-.7-.4-.8-.4-.6-.5a1.8,1.8,0,0,1-.5-.7,1.9,1.9,0,0,1-.1-.8,3,3,0,0,1,.2-1,2.3,2.3,0,0,1,.7-.7,1.9,1.9,0,0,1,.9-.4h1a3.4,3.4,0,0,1,1.7.3v1.1a2.7,2.7,0,0,0-1.8-.5h-.6l-.6.2-.4.4a1.9,1.9,0,0,0,0,1.2l.3.4.6.4.7.4.8.5a2.6,2.6,0,0,1,1.2,1.2,1.9,1.9,0,0,1,.2.8,2,2,0,0,1-.3,1.1,1.9,1.9,0,0,1-.6.7l-.9.4h-2.7Z"/><path d="M393.5,112h-2.3v7.5h-.9V112h-2.4v-.9h5.6Z"/><path d="M401.5,111.4v-1.5h.8v1.5l2.8-.2v.7l-2.8.2v1.8l2.6-.3v.8l-2.6.2v1.2a3.4,3.4,0,0,0,.1,1.1,6.9,6.9,0,0,1,3,2l-.5.7a10.3,10.3,0,0,0-2.5-1.9h0c0,1.5-.7,2.2-2.1,2.2a2.3,2.3,0,0,1-1.6-.5c-.4-.2-.5-.6-.5-1.2a1.4,1.4,0,0,1,.6-1.2,2.5,2.5,0,0,1,1.5-.5h1.2v-2.1a15,15,0,0,1-3,0v-.7h3a2.2,2.2,0,0,1-.1-.9v-.8h-3.1v-.7Zm.1,6.1h-1.1q-1.5,0-1.5.9c0,.6.5.9,1.4.9s1.2-.5,1.2-1.6Z"/><path d="M408.7,112.6h-1.9v-.8h2c.1-.9.2-1.6.2-2.2h.9a16.2,16.2,0,0,1-.3,2l2.6-.2v.8l-2.7.2a43.3,43.3,0,0,1-1.8,7.3l-.8-.3A34.4,34.4,0,0,0,408.7,112.6Zm1.4,4.6h.7v.7c0,.4.1.8.4.9a3.1,3.1,0,0,0,1.3.2h1.8v.8h-1.7a4,4,0,0,1-2-.4,1.6,1.6,0,0,1-.6-1.4C410,117.8,410.1,117.5,410.1,117.2Zm.6-2.5v-.8a21.1,21.1,0,0,1,3.5-.2v.8A17.8,17.8,0,0,0,410.7,114.7Z"/><path d="M417.4,110.2a33.3,33.3,0,0,0-.7,5.9,28.7,28.7,0,0,0,.3,3.8h-.8c-.2-1.8-.3-3-.3-3.8s.1-1.9.2-3.2.3-1.9.5-2.8Zm4.7,2.8c0,1.6,0,2.9.1,4.1a5.5,5.5,0,0,1,2,1.5l-.5.7-1.5-1.4a2.1,2.1,0,0,1-.6,1.6,2.6,2.6,0,0,1-1.4.4c-1.3,0-2-.6-2-1.6a1.4,1.4,0,0,1,.6-1.2,2,2,0,0,1,1.3-.4h1.3c-.1-1-.1-2.3-.1-3.7h-3.2v-.8a17.1,17.1,0,0,0,3.2,0v-2.2h.8v2.2l1.8-.2v.8Zm-.7,4.7a3.1,3.1,0,0,0-1.3-.3l-.8.2a.9.9,0,0,0-.3.7q0,.9,1.2.9a1.1,1.1,0,0,0,.9-.5,1.2,1.2,0,0,0,.3-.9Z"/><path d="M429.5,119.7l-.5-.2a1.3,1.3,0,0,1,0-1l.5-.2a.5.5,0,0,1,.4.2.7.7,0,0,1,0,1A.5.5,0,0,1,429.5,119.7Z"/><path d="M438.6,119.5h-1.2l-4.2-6.7-.2-.5h0v7.2h-.9v-8.4h1.2l4,6.6.4.6h0a4.5,4.5,0,0,1-.1-1.3v-5.9h1Z"/><path d="M445.1,119.5h-4.3v-8.4h4.1v.9h-3.2v2.8h3v.9h-3v2.9h3.4Z"/><path d="M451.7,112h-2.3v7.5h-1V112h-2.3v-.9h5.6Z"/><path d="M453.5,121.4h-.9a7.6,7.6,0,0,0,1.8-5.1,8,8,0,0,0-1.8-5.2h.9a8.3,8.3,0,0,1,1.7,5.2A7.8,7.8,0,0,1,453.5,121.4Z"/><path d="M483.4,59.3h-.9V52.1l-.3.2-.5.3-.5.3-.6.2v-1l.6-.3.7-.3.6-.4a1,1,0,0,0,.5-.4h.4Z"/><path d="M486.5,59.5a.5.5,0,0,1-.4-.2.7.7,0,0,1,0-1,.5.5,0,0,1,.4-.2l.5.2a1.3,1.3,0,0,1,0,1Z"/><path d="M497.9,58.4h2.3v.8h-8.3v-.8H497l.5-6.8h-4.7v-.8h5.7Z"/><path d="M500.5,54.4h6.3v.9h-6.3Z"/><path d="M510.3,52.2h2.9V50h.8v2.2h1.9V53H514v.9a6.5,6.5,0,0,1-1.2,4.3,6.5,6.5,0,0,1-3.1,1.7l-.5-.7a4.9,4.9,0,0,0,3.1-1.7,5.8,5.8,0,0,0,.9-3.5V53h-2.9v3.1h-.9V53h-1.8v-.8h1.8V49.8h.9Zm3.8-3h.6a7.3,7.3,0,0,1,.7,2.1l-.6.2A9.5,9.5,0,0,0,514.1,49.2Zm1.3-.3h.6a8,8,0,0,1,.6,2l-.6.2Q515.7,49.8,515.4,48.9Z"/><path d="M516.8,54.4h6.3v.9h-6.3Z"/><path d="M532.9,59.3l-.4.4c-.1.2-.1.2-.2.2h-.1a10.1,10.1,0,0,1-3-3.2,13.5,13.5,0,0,1-1.3-3.7,9.6,9.6,0,0,1-4.4,6.9h-.2l-.2-.2-.4-.4a7.8,7.8,0,0,0,3.6-3.6,12.1,12.1,0,0,0,1.2-4.8h-2.7a.1.1,0,0,1-.1-.1v-.6h3.5c0,.5.1,1,.1,1.5A10,10,0,0,0,532.9,59.3Z"/><path d="M543.5,52.2v1a31.2,31.2,0,0,1-.4,5.2,1.7,1.7,0,0,1-.6,1.2l-.9.2H540a.3.3,0,0,0-.1-.2,1.4,1.4,0,0,0-.2-.6l1.8.2.6-.2.3-.7a39.5,39.5,0,0,0,.3-5.4h-3.4a12.2,12.2,0,0,1-.6,3.1,6.1,6.1,0,0,1-1.5,2.4,8,8,0,0,1-2,1.5h-.4a1.2,1.2,0,0,0-.5-.5,6.1,6.1,0,0,0,3.7-3.7,9.8,9.8,0,0,0,.6-2.8h-3.7v-.6a.1.1,0,0,1,.1-.1h3.6V50.7a6.1,6.1,0,0,0-.1-1.4h.9a.1.1,0,0,1,.1.1.4.4,0,0,1-.1.3v2.3h4C543.5,52,543.5,52.1,543.5,52.2Z"/><path d="M550.1,55.6V58h-.8V55.9l-.5.3q-1.5.9-1.5,1.8a.8.8,0,0,0,.5.8l1.7.2h2.9v.8h-2.8a4.9,4.9,0,0,1-2.5-.5,1.6,1.6,0,0,1-.5-1.3,2.5,2.5,0,0,1,1.5-2.2l1.2-.7c0-.7-.3-1.1-.7-1.1s-1.6.7-2.7,2l-.6-.5a14.1,14.1,0,0,0,2.4-3.6h-2.1v-.7H548a7.5,7.5,0,0,0,.5-1.6h.9a12.1,12.1,0,0,1-.5,1.4l3.1-.2v.8l-3.4.2-1,1.7-.3.3h0a2.2,2.2,0,0,1,1.4-.6,1.3,1.3,0,0,1,.9.4,1.6,1.6,0,0,1,.5,1l2.3-1,.3.8Z"/><path d="M557.7,49.6c0,.1-.1.1-.1.2s-.1.6-.1,1.3v9h-.8V56.7l-2.3,1.1c-.2.1-.4.1-.4.2h-.3a6.4,6.4,0,0,1-.2-.7l.9-.2V50.9h.9a.3.3,0,0,0-.1.2c0,.2-.1.6-.1,1.3v4.2a6.2,6.2,0,0,0,1.6-.7V49.5h.9Zm6.6,9.8-.3.4-.2.2h-.1a9.9,9.9,0,0,1-2.5-2.5,11.6,11.6,0,0,1-2.8,2.6.1.1,0,0,1-.1.1l-.2-.2-.3-.4a9.7,9.7,0,0,0,3-2.7,13.7,13.7,0,0,1-1.8-5.7h-1v-.5a.1.1,0,0,1,.1-.1h4.5c.2,0,.4,0,.4-.1h.2l.3.3.2.2a.3.3,0,0,1-.1.2c-.1.1-.1.3-.2.8a12.5,12.5,0,0,1-1.8,4.9A13.4,13.4,0,0,0,564.3,59.4Zm-1.5-8.3h-3.1a12.3,12.3,0,0,0,1.5,5A13.4,13.4,0,0,0,562.8,51.1Z"/><path d="M575.1,55.6c0,.1,0,.1-.1.1h-7.8c-.1,0-.1,0-.1-.1V51.8l-1,1.1h-.2a.3.3,0,0,1-.1-.2l-.4-.3a7.8,7.8,0,0,0,2.3-2.5l.3-.7.7.2h.1c0,.1-.1.1-.2.2l-.3.4c-.1.3-.3.4-.3.5h2.5l.5-.7a6.4,6.4,0,0,1,.2-.7l.6.2c.1.1.1.1.1.2h-.1l-.2.3a1.6,1.6,0,0,1-.3.6H575v.4h-3.9v.9h3.4v.5h-3.4v.9h3.4v.4a.1.1,0,0,1-.1.1h-3.3v.9H575c.1,0,.1,0,.1.1Zm.8,3.6-.3.5a.2.2,0,0,1-.2.2h-.1a9.5,9.5,0,0,1-4.3-2.4v2a2.8,2.8,0,0,1,.1.6.1.1,0,0,1-.1.1h-.6a.1.1,0,0,1-.1-.1v-.4a15.5,15.5,0,0,0,.1-2.2,9.4,9.4,0,0,1-4.2,2.3H566l-.2-.2c0-.2-.1-.3-.2-.5a10.2,10.2,0,0,0,4.2-1.9h-3.9v-.5h4.5c0-.4-.1-.7-.1-.9h.7a.1.1,0,0,1,.1.1v.2c-.1,0-.1.2-.1.5h4.7v.5h-4.1a8.2,8.2,0,0,0,2,1.2A7.8,7.8,0,0,0,575.9,59.2Zm-5.4-7v-.9h-2.8v.9Zm0,1.4v-.9h-2.8v.9Zm0,1.5v-.9h-2.8v.9Z"/><path d="M577.6,49.9h.9c-.1,4.1-.2,6.6-.2,7.4a1.8,1.8,0,0,0,.4,1.4,2.1,2.1,0,0,0,1.3.3,2.4,2.4,0,0,0,2-.8,5.5,5.5,0,0,0,1-2.3l.8.4c-.6,2.4-1.8,3.5-3.8,3.5a2.7,2.7,0,0,1-2-.6,3,3,0,0,1-.5-1.8V54.1C577.6,52.1,577.6,50.6,577.6,49.9Z"/><path d="M588.3,51.3a10.4,10.4,0,0,1-.1-1.6h.9v1.5l2.7-.2v.7l-2.7.3v1.7l2.7-.2v.7l-2.7.2a8.5,8.5,0,0,0,.1,1.3v1a7.9,7.9,0,0,1,3.1,2l-.6.8a7.6,7.6,0,0,0-2.5-2v.2a1.8,1.8,0,0,1-2,2.1,2.6,2.6,0,0,1-1.7-.5,1.4,1.4,0,0,1-.5-1.2,1.3,1.3,0,0,1,.7-1.2,2.5,2.5,0,0,1,1.5-.5h1.2c0-.5-.1-1.2-.1-2.1a15,15,0,0,1-3,0v-.7h3V52h-3.2v-.8Zm.1,6h-1.1q-1.5,0-1.5.9c0,.6.4.9,1.3.9s1.3-.5,1.3-1.6Z"/><path d="M598.7,52a11.3,11.3,0,0,0,0,2.6,8.8,8.8,0,0,1,.2,1.6,3,3,0,0,1-1.1,2.6,4.9,4.9,0,0,1-2.7,1.1l-.4-.7a4.9,4.9,0,0,0,2.8-1.2,2.3,2.3,0,0,0,.6-1.6c-.2.5-.7.7-1.5.7a1.5,1.5,0,0,1-1.2-.5,1.6,1.6,0,0,1-.6-1.3,1.6,1.6,0,0,1,.7-1.5,1.9,1.9,0,0,1,1.3-.5,1.2,1.2,0,0,1,1.1.4V52.1a37,37,0,0,0-4.5.2v-.8l4.5-.2V49.7h.8v1.6h2.7v.8Zm-2,2a.9.9,0,0,0-.8.4,1.2,1.2,0,0,0-.3.9,1.2,1.2,0,0,0,1.1,1.1,1.3,1.3,0,0,0,.9-.4c.2-.2.2-.4.2-.8S597.5,54,596.7,54Z"/><path d="M483.7,73.7c0-.3-.1-.5-.1-.7a1,1,0,0,0-.4-.5l-.4-.3h-1.2l-.5.2-.4.3-.5.4v-1l.9-.6,1.2-.2.9.2.7.4a1.8,1.8,0,0,1,.5.7,3,3,0,0,1,.2,1,2.8,2.8,0,0,1-.1.9l-.3.7-.6.7-.8.7-.9.7a1.7,1.7,0,0,0-.6.6c-.2.2-.3.3-.3.5a1.3,1.3,0,0,0-.1.6h4v.9h-5v-.4c0-.4.1-.7.1-1l.4-.8.7-.7,1-.9.8-.6a2.1,2.1,0,0,0,.4-.6c.2-.2.2-.4.3-.6S483.7,73.9,483.7,73.7Z"/><path d="M487,80l-.5-.2a.7.7,0,0,1-.1-.5.6.6,0,0,1,.1-.4.6.6,0,0,1,.5-.2c.2,0,.3,0,.4.2a.4.4,0,0,1,.2.4c0,.2,0,.4-.2.5Z"/><path d="M502.7,76.9h-2.9a5.7,5.7,0,0,1-1.2,1.8l3.1,1.3h0l-.3.3a.3.3,0,0,0-.1.2h-.1a14.4,14.4,0,0,0-3.1-1.5,9.7,9.7,0,0,1-4.8,1.5h-.2v-.2l-.3-.4a9.1,9.1,0,0,0,4.6-1.2l-2-.5-.3.4h-.7c0-.1,0-.1.1-.2l.5-.7a3.5,3.5,0,0,0,.6-.9h-3.1v-.5a.1.1,0,0,1,.1-.1h3.4l.2-.3a6.3,6.3,0,0,0,.4-.9l.7.2c.1,0,.1,0,.1.1h-.1l-.4.6v.2h5.9c.1,0,.1,0,.1.1Zm-.2-5.9H499v1.2h2.5v2.6h-7.9V72.3H496V71.1h-3.4v-.5h9.9ZM496,74.4V72.8h-1.7v1.6Zm3.1,2.5h-2.8l-.7,1,2.3.6A6.7,6.7,0,0,0,499.1,76.9Zm-.7-4.6V71.1h-1.8v1.2Zm0,2.1V72.8h-1.8v1.6Zm2.4,0V72.8H499v1.6Z"/><path d="M513.7,79.1a1,1,0,0,0-.4.5H513a9.2,9.2,0,0,1-4.2-5.6c.1,3.1.1,4.9.1,5.5s-.1.8-.4.9-.7.2-1.4.2h-.2v-.2a.9.9,0,0,0-.3-.6H508a.8.8,0,0,0,.2-.5V73h-4.6v-.5a.1.1,0,0,1,.1-.1h4.5v-.9c0-.7-.1-1.2-.1-1.4h.9a.4.4,0,0,1-.1.3v1.9h4.5a.1.1,0,0,1,.1.1v.5H509a10.9,10.9,0,0,0,1.1,2.7,7.5,7.5,0,0,0,1.5-1.6l.3-.5.6.4c.1,0,.1.1.1.2h-.1l-.6.5-1.4,1.5A9.7,9.7,0,0,0,513.7,79.1Zm-6.2-2.2h.1a.2.2,0,0,1-.2.2,17.8,17.8,0,0,1-2.7,1.7l-.4.3h-.2a2.5,2.5,0,0,1-.4-.7l.9-.3a22.9,22.9,0,0,0,2.9-1.8Zm-.8-1.6h0l-.3.3h-.2a7.9,7.9,0,0,0-1.4-1.7.1.1,0,0,1-.1-.1h.2l.2-.2h.2A10.7,10.7,0,0,1,506.7,75.3Zm5.5-3.9h0v.2l-.2.2h-.2a8.7,8.7,0,0,0-1.4-1.2h0v-.2l.3-.2h.2A5.3,5.3,0,0,1,512.2,71.4Z"/><path d="M519.6,76.1v2.4h-.8v-2l-.5.3c-1,.6-1.5,1.1-1.5,1.7a.8.8,0,0,0,.5.8,3.7,3.7,0,0,0,1.7.2h2.8v.8h-2.8a5.1,5.1,0,0,1-2.5-.4c-.4-.3-.5-.7-.5-1.4a2.7,2.7,0,0,1,1.5-2.2l1.2-.7c0-.7-.3-1.1-.7-1.1s-1.6.7-2.7,2.1l-.6-.6a14.1,14.1,0,0,0,2.4-3.6h-2.1v-.7h2.4a7.5,7.5,0,0,0,.5-1.6l.9.2-.5,1.4,3.1-.2v.7l-3.4.2a9.5,9.5,0,0,1-1,1.7l-.3.3h0a2.2,2.2,0,0,1,1.4-.6,1.2,1.2,0,0,1,.9.3,1.9,1.9,0,0,1,.5,1.1l2.3-1.1.3.8Z"/><path d="M527.2,70.2v.2c-.1,0-.1.2-.2.4l-.8,1.8v8c0,.1,0,.1-.1.1h-.5c-.1,0-.1,0-.1-.1V73.8a7.6,7.6,0,0,1-1.3,1.7h-.2l-.3-.5a12.8,12.8,0,0,0,2.6-4.4c.1-.2.1-.5.2-.8l.7.3A.1.1,0,0,1,527.2,70.2Zm6.8,2.5h-3.6v1.8h2.9c.1,0,.1,0,.1.1v.5h-3v1.9h3v.5h-3v2.9c0,.1,0,.1-.1.1h-.5c-.1,0-.1,0-.1-.1V72.8h-1a10,10,0,0,1-1.4,2.3H527l-.3-.4a11,11,0,0,0,1.4-2.1,9.7,9.7,0,0,0,.8-1.9,2.5,2.5,0,0,0,.1-.8l.7.2h.2c0,.1,0,.2-.1.2a.6.6,0,0,0-.2.5c-.2.3-.3.8-.5,1.2H534Z"/><path d="M545.2,78.6c-.1,1.3-.5,1.9-1.1,1.9s-1.5-.8-2.2-2.3a7.5,7.5,0,0,1-2.5,2.2h-.1l-.2-.2-.4-.3a8.6,8.6,0,0,0,2.9-2.5,19.2,19.2,0,0,1-1-4.8h-4v1.9h2.8c.1,0,.1,0,.1.1V76a8.4,8.4,0,0,1-.2,1.9,1,1,0,0,1-1.1,1h-.8c-.1,0-.1,0-.1-.1s-.1-.1-.1-.2-.1-.4-.2-.5h1.5c.1-.1.1-.3.2-.5a20.9,20.9,0,0,0,.2-2.3h-2.2a13.8,13.8,0,0,1-.2,2.2,9.7,9.7,0,0,1-.9,3c-.1.1-.1.2-.2.2a.3.3,0,0,0-.1-.2l-.4-.3a7.6,7.6,0,0,0,1-3,21.8,21.8,0,0,0,.1-2.7V72.1h4.7v-.6c0-.7-.1-1.2-.1-1.5h.9v.2c-.1.1-.1.4-.1.8V72h3.6v.5a.1.1,0,0,1-.1.1h-3.5a16.6,16.6,0,0,0,.8,4.1L543,75a6.1,6.1,0,0,0,.3-1.1l.6.3h.2c0,.1-.1.2-.2.3a3.2,3.2,0,0,0-.2.6c-.4.8-.8,1.6-1.3,2.4a11.4,11.4,0,0,0,.9,1.6,1.5,1.5,0,0,0,.8.5c.3,0,.5-.6.5-1.8l.4.3c.2.1.2.2.2.3ZM544,71.2h.1v.2l-.2.2h-.3a5,5,0,0,0-1-1.1h-.1v-.2h.4A3.8,3.8,0,0,1,544,71.2Z"/><path d="M547.1,70.4h.8c-.1,4.1-.2,6.6-.2,7.4a1.8,1.8,0,0,0,.4,1.4,2,2,0,0,0,1.3.4,2.5,2.5,0,0,0,2-.9,5,5,0,0,0,1-2.2l.8.4c-.5,2.3-1.8,3.5-3.8,3.5a2.3,2.3,0,0,1-2-.7,2.6,2.6,0,0,1-.5-1.8c0-.4,0-1.5.1-3.2S547,71.2,547.1,70.4Z"/><path d="M560.7,71.1v.8a3.6,3.6,0,0,0-1.9.5,4.6,4.6,0,0,0-1.7,1.7,3.9,3.9,0,0,0-.7,2.3,2.8,2.8,0,0,0,1.1,2.2,4.8,4.8,0,0,0,2.4.8l-.2.9a4.6,4.6,0,0,1-3-1.2,3.5,3.5,0,0,1-1.1-2.6,4.8,4.8,0,0,1,2.5-4.3l.6-.3h-.6l-4.6.4v-.7Z"/><path d="M572.3,79.5a.8.8,0,0,0-.2.5c0,.2,0,.2-.1.3h-4.3a9,9,0,0,1-2.8-.3,3.2,3.2,0,0,1-1.1-1.2L562.6,80l-.3.3a.1.1,0,0,1-.1.1H562l-.3-.6.7-.5a5.2,5.2,0,0,0,1.1-1V75.3h-1.8v-.6h2.5v3.6a1.8,1.8,0,0,0,1,1.2,6,6,0,0,0,2.3.3ZM564.1,72h0c0,.1,0,.1-.1.2l-.3.2h-.2a8.4,8.4,0,0,0-1.3-1.7h.1l.3-.2h.2C563.2,70.9,563.7,71.4,564.1,72Zm7.9,6.2c-.2.2-.3.3-.3.5l-.2.2a.1.1,0,0,1-.1-.1,5.9,5.9,0,0,1-3.2-3,4,4,0,0,1-1,1.8,7.4,7.4,0,0,1-1.6,1.2h-.2l-.2-.2c0-.2-.1-.3-.3-.4a6.3,6.3,0,0,0,2-1.3,3.8,3.8,0,0,0,.8-1.7h-2.6a.1.1,0,0,1-.1-.1v-.5h2.8a6.6,6.6,0,0,0,.1-1.5v-.3h-2.6v-.5c0-.1,0-.1.1-.1h3.3l.9-1.7c0-.2.1-.4.1-.6l.7.2c.1.1.2.1.2.2l-.2.2-.2.3a10,10,0,0,1-.8,1.4h2a.1.1,0,0,1,.1.1v.5h-2.9c-.1.7-.1,1.3-.2,1.8h3.4v.5h-3.2A5.5,5.5,0,0,0,572,78.2Zm-4.5-6.6h-.6a6.4,6.4,0,0,0-.8-1.4h.1l.3-.2h.2A4.7,4.7,0,0,1,567.5,71.6Z"/><path d="M576.3,70.2v.2l-.2.4a17.1,17.1,0,0,1-.7,1.8v8a.1.1,0,0,1-.1.1h-.6a.1.1,0,0,1-.1-.1V73.9l-1.1,1.6h-.2l-.3-.5a11.7,11.7,0,0,0,2.2-4.3,2.9,2.9,0,0,0,.2-.9l.7.3C576.3,70.1,576.3,70.1,576.3,70.2Zm7.4,2.6c0,.1,0,.1-.1.1h-7.3c-.1,0-.1,0-.1-.1v-.5h7.5Zm-1.1,7.8h-.7v-.5h-4.1v.5a.1.1,0,0,1-.1.1h-.6a.1.1,0,0,1-.1-.1V77.2h5.5a.1.1,0,0,1,.1.1v3.4Zm-.2-6.2h-5.1V74h5.1Zm0,1.7a.1.1,0,0,1-.1.1h-4.9a.1.1,0,0,1-.1-.1v-.5h5.1Zm.1-4.9h-5.2v-.5c0-.1,0-.1.1-.1h5c.1,0,.1,0,.1.1Zm-.6,8.2V77.8h-4.1v1.6Z"/><path d="M585.6,70.4h.8c-.1,4.1-.2,6.6-.2,7.4a2.3,2.3,0,0,0,.4,1.4,2,2,0,0,0,1.3.4,2.5,2.5,0,0,0,2-.9,4.1,4.1,0,0,0,1-2.2l.8.4c-.5,2.3-1.8,3.5-3.8,3.5a2.3,2.3,0,0,1-2-.7,2.6,2.6,0,0,1-.5-1.8c0-.4,0-1.5.1-3.2S585.5,71.2,585.6,70.4Z"/><path d="M596.2,71.8V70.2h.8v1.6l2.8-.3v.8l-2.8.2v1.7l2.7-.2v.7l-2.7.2c0,.2.1.6.1,1.3v1a9.8,9.8,0,0,1,3.1,2l-.6.8a7.2,7.2,0,0,0-2.5-1.9h0c0,1.4-.6,2.1-2,2.1a2.7,2.7,0,0,1-1.7-.4,1.7,1.7,0,0,1-.5-1.3,1.5,1.5,0,0,1,.7-1.2,2.4,2.4,0,0,1,1.5-.4h1.2a17.9,17.9,0,0,0-.1-2.1h-3v-.8h3V72.5H593v-.7Zm.1,6h-1.1q-1.5,0-1.5.9c0,.7.4,1,1.3,1s1.3-.6,1.3-1.6Z"/><path d="M606.6,72.6v2.6a3.9,3.9,0,0,1,.2,1.5,3.1,3.1,0,0,1-1,2.6,5.6,5.6,0,0,1-2.7,1.1l-.5-.7a4.9,4.9,0,0,0,2.8-1.2,2.6,2.6,0,0,0,.7-1.6,1.6,1.6,0,0,1-1.5.8,2.1,2.1,0,0,1-1.3-.5,2.2,2.2,0,0,1,.1-2.9,2,2,0,0,1,1.3-.4,1.6,1.6,0,0,1,1.1.3V72.6l-4.5.2V72h4.5V70.2h.8v1.6h2.8v.8Zm-1.9,1.9a1.5,1.5,0,0,0-.9.4,1.2,1.2,0,0,0-.3.9,1.2,1.2,0,0,0,1.1,1.1,1,1,0,0,0,.9-.4.9.9,0,0,0,.3-.7C605.8,74.9,605.4,74.5,604.7,74.5Z"/><path d="M484.7,97.8a4.3,4.3,0,0,1-.2,1.1,4.2,4.2,0,0,1-.6.8l-.9.5h-1.2a3.4,3.4,0,0,1-1.8-.4v-1a3.3,3.3,0,0,0,1.9.6h.7l.6-.3.4-.5a1.5,1.5,0,0,0,.1-.7c0-1.1-.7-1.6-2.2-1.6h-.7v-.9h.7c1.3,0,1.9-.5,1.9-1.5a1.3,1.3,0,0,0-1.5-1.5,2.7,2.7,0,0,0-1.6.6v-.9a3.6,3.6,0,0,1,1.9-.5l.9.2.7.4.4.6a2.4,2.4,0,0,1,.2.8,2,2,0,0,1-1.6,2.2h0l.7.2a1.5,1.5,0,0,1,.6.4,2.1,2.1,0,0,1,.4.6A2.4,2.4,0,0,1,484.7,97.8Z"/><path d="M486.9,100.3a.6.6,0,0,1-.5-.2c-.1-.1-.1-.2-.1-.4a.7.7,0,0,1,.1-.5l.5-.2a.5.5,0,0,1,.4.2c.2.1.2.3.2.5s0,.3-.2.4S487.1,100.3,486.9,100.3Z"/><path d="M502.3,92.4h-8.2v1.6a33.2,33.2,0,0,1-.2,3.5,9.6,9.6,0,0,1-1,3,.3.3,0,0,1-.1.2h-.1l-.5-.4a6.7,6.7,0,0,0,1-3,24.5,24.5,0,0,0,.2-3.2V91.9c0-.1,0-.1.1-.1h3.9v-.7a2.8,2.8,0,0,0-.1-1h.9a.3.3,0,0,1-.1.2v1.3h4.1c.1,0,.1,0,.1.1Zm-6.4,3.8a11.5,11.5,0,0,1-1,3.3h-.2l-.3-.2h-.1a9.6,9.6,0,0,0,1-3h.5c.1,0,.1,0,.1.1Zm4.9,2.6a2.9,2.9,0,0,1-.2,1.2,1,1,0,0,1-.4.5,2.4,2.4,0,0,1-1.5.3c-.9,0-1.4-.1-1.6-.3s-.3-.5-.3-1V96.8a7.1,7.1,0,0,0-.1-1.6h.7c.2,0,.2.1.2.1a.4.4,0,0,1-.1.3V100h1.1c.5,0,.9,0,1.1-.2s.2-.3.3-.6.1-.6.1-1l.5.2c.1,0,.1.1.1.2Zm-1.2-4.1h0l-.2.4h-.2a11.8,11.8,0,0,0-2.2-1.7h0l.3-.3c0-.1,0-.1.1-.1h0A12.5,12.5,0,0,1,499.6,94.7Zm2.9,4.2h-.1l-.3.2h-.3a11.5,11.5,0,0,0-1.1-3.1h.1l.3-.2h.2A16.6,16.6,0,0,1,502.5,98.9Z"/><path d="M514.3,96.2a.7.7,0,0,0-.4.5h-.3a9.5,9.5,0,0,1-2.9-1.3,6,6,0,0,1-1.9-1.5,13.4,13.4,0,0,1-4.6,2.9H504c-.1,0-.1,0-.2-.2l-.3-.4a11.8,11.8,0,0,0,4.7-2.6c.1-.2.3-.4.3-.6l.7.2h.2v.2h-.1a7.9,7.9,0,0,0,2.3,1.6A13.3,13.3,0,0,0,514.3,96.2ZM508.7,92h-1.8a7.5,7.5,0,0,1,.6,1.3h-.6a.1.1,0,0,1-.1-.1,11.6,11.6,0,0,0-.6-1.5h-.8l-1.1,1.3H504l-.3-.3a6,6,0,0,0,1.6-2.4.8.8,0,0,0,.2-.5h.7v.2h-.1c0,.1-.1.1-.2.3v.3a.3.3,0,0,0-.1.2h2.9Zm3.4,8.9h-.7v-.5h-5.1v.5h-.7V97.5h6.5v3.4Zm-.7-1.1V98.1h-5.1v1.7Zm-.4-3.4h-4.3v-.5a.1.1,0,0,1,.1-.1h4.1a.1.1,0,0,1,.1.1Zm2.9-4.4h-2.5a3.1,3.1,0,0,1,.6,1.3h-.1l-.3.2h-.2a5.2,5.2,0,0,0-.7-1.5h-.9a2.7,2.7,0,0,1-.7.8v.2l-.2-.2-.4-.2a4.7,4.7,0,0,0,1.2-1.9,1.3,1.3,0,0,0,.1-.6l.7.2h.1v.2l-.2.3a.5.5,0,0,1-.2.4h3.9Z"/><path d="M520.3,96.4v2.4h-.8v-2l-.5.3q-1.5.9-1.5,1.8a.7.7,0,0,0,.5.8l1.7.2,2.8-.2v.8h-2.8a4.9,4.9,0,0,1-2.5-.4,1.6,1.6,0,0,1-.6-1.4c0-.8.6-1.5,1.6-2.2l1.2-.6c0-.8-.3-1.2-.8-1.2s-1.5.7-2.6,2.1l-.6-.6a15.6,15.6,0,0,0,2.4-3.5h-2.1V92h2.4a6,6,0,0,0,.5-1.6l.8.2a6.3,6.3,0,0,1-.4,1.4l3-.2v.7l-3.4.2a9.5,9.5,0,0,1-1,1.7l-.3.4h0a2.2,2.2,0,0,1,1.4-.6,1,1,0,0,1,.9.4,1.6,1.6,0,0,1,.5,1l2.3-1.1.3.9Z"/><path d="M534.8,99.7a1.1,1.1,0,0,0-.2.6v.2h-2.6a6.1,6.1,0,0,1-4.2-1.4l-.7-.9a10.4,10.4,0,0,1-2.2,2.5h-.4l-.3-.4a9.5,9.5,0,0,0,2.5-2.8,10.7,10.7,0,0,1-.9-3,17.4,17.4,0,0,1-1,1.9h-.3l-.3-.4a10.2,10.2,0,0,0,1.9-5,2.5,2.5,0,0,0,.1-.8h0l.7.2h.1v.2c-.1.1-.1.2-.2.5l-.3,1.2h1.4c.2,0,.3,0,.3-.1h.2c.1,0,.2,0,.3.2l.2.3h0c-.1.1-.1.3-.2.5a12.8,12.8,0,0,1-1.2,4.3,1.6,1.6,0,0,0,.6.8,4.5,4.5,0,0,0,1.9,1.1,6.9,6.9,0,0,0,2.2.3ZM528,93h-1.7l-.2.6A11.8,11.8,0,0,0,527,97,14.6,14.6,0,0,0,528,93Zm6.6,3.3c0,.7-.1,1.2-.1,1.4l-.3.5-.8.2h-.9q-.3-.1-.3-.9V91.7h-1.6a37.3,37.3,0,0,1-.2,4.2,5.3,5.3,0,0,1-1.2,2.5h-.3a.5.5,0,0,0-.4-.3,5.7,5.7,0,0,0,1.2-2.6,16.4,16.4,0,0,0,.3-3.7v-.7h3v6.2a1,1,0,0,0,.1.4h.4a.6.6,0,0,0,.5-.2,5.6,5.6,0,0,0,.2-1.9l.5.3c.1,0,.1.1.1.2Z"/><path d="M539.5,97c-.1.1-.1.2-.1.4h0a.4.4,0,0,1-.1.3L536.7,99l-.4.2H536a1.4,1.4,0,0,1-.2-.7l1-.3.5-.2V95H536v-.5h1.3V91.8h-1.4v-.5c0-.1,0-.1.1-.1h3.4a.1.1,0,0,1,.1.1v.5H538v2.6h1.3v.5H538v2.7Zm6.8,3.3a.1.1,0,0,1-.1.1h-7.5c-.1,0-.1,0-.1-.1v-.5h3.7V98.2h-2.4c-.1,0-.1,0-.1-.1v-.5h2.5V96.1h-2.4a.1.1,0,0,1-.1-.1V91h5.8v5.1H543v1.4h2.6v.5H543v1.5h3.3Zm-4-7.1V91.6h-1.8v1.6Zm0,2.3V93.8h-1.8v1.7Zm2.6-2.3V91.6H543v1.6Zm0,2.3V93.8H543v1.7Z"/><path d="M547.9,90.7h.9c-.1,4.1-.2,6.6-.2,7.5s.1,1.1.4,1.3.7.4,1.3.4a2.8,2.8,0,0,0,2-.8,5.5,5.5,0,0,0,1-2.3l.8.4c-.5,2.3-1.8,3.5-3.8,3.5a2.7,2.7,0,0,1-2-.6,3.1,3.1,0,0,1-.5-1.9c0-.4,0-1.5.1-3.2Z"/><path d="M558.6,92.1a10.4,10.4,0,0,1-.1-1.6h.9v1.6l2.7-.2v.7l-2.7.2v1.7l2.7-.2v.8l-2.7.2a6.8,6.8,0,0,0,.1,1.2v1a9.5,9.5,0,0,1,3.1,2.1l-.6.7a7.2,7.2,0,0,0-2.5-1.9h0a1.8,1.8,0,0,1-2,2.1,2.7,2.7,0,0,1-1.7-.4,1.7,1.7,0,0,1-.5-1.2,1.5,1.5,0,0,1,.7-1.3,2.4,2.4,0,0,1,1.5-.4h1.2a17.9,17.9,0,0,0-.1-2.1h-3v-.7h3V92.8a17.1,17.1,0,0,1-3.2,0v-.7Zm.1,6.1-1.1-.2c-1,0-1.5.3-1.5,1s.4.9,1.3.9,1.3-.5,1.3-1.6Z"/><path d="M569,92.9v2.6a7.7,7.7,0,0,1,.2,1.5,3.3,3.3,0,0,1-1,2.7,8.8,8.8,0,0,1-2.7,1.1l-.5-.8a5.6,5.6,0,0,0,2.8-1.1,2.5,2.5,0,0,0,.6-1.7,1.4,1.4,0,0,1-1.4.8,1.9,1.9,0,0,1-1.3-.5,1.7,1.7,0,0,1-.6-1.4,2.1,2.1,0,0,1,.7-1.5,1.8,1.8,0,0,1,1.3-.4,1.6,1.6,0,0,1,1.1.3V92.9l-4.5.2v-.7l4.5-.2V90.6h.8v1.6h2.8v.7Zm-2,2a1.1,1.1,0,0,0-.8.3,1.2,1.2,0,0,0-.3.9,1,1,0,0,0,.4.9l.7.2a1.2,1.2,0,0,0,.9-.3,1.1,1.1,0,0,0,.2-.8C568.1,95.3,567.8,94.9,567,94.9Z"/><path d="M507.3,112.5h0a.1.1,0,0,1-.1.1h-.5l-.2-.7h-1.1v5h-.7v-4.9h-1.9a5.6,5.6,0,0,1-.1-.7h.9l.8-1.2a15.4,15.4,0,0,0-1.7-1.9h.1l.2-.2c0-.1,0-.1.1-.1h0c.1,0,.1.1.3.3s.1.1.2.2.5-1,.8-1.4a3.4,3.4,0,0,1,.3-.8l.6.3h.1c0,.1,0,.1-.1.2l-.2.2a14.2,14.2,0,0,1-1.1,1.8l.8.9.9-1.5.3-.8.6.3c.1,0,.1.1.1.2a.1.1,0,0,1-.1.1l-.4.5a32.3,32.3,0,0,1-1.9,3h1.9l-.4-.9h0a.1.1,0,0,1,.1-.1l.3-.2h.2A11.9,11.9,0,0,1,507.3,112.5Zm-3.1.9v.2a1,1,0,0,0-.1.4,14.2,14.2,0,0,1-.5,2.2v.2h-.2l-.4-.2a7.9,7.9,0,0,0,.6-2.2v-.6h.8Zm2.9,2h-.4a.1.1,0,0,0-.1.1.1.1,0,0,1-.1-.1,10.3,10.3,0,0,0-.5-2.2h.4a.1.1,0,0,1,.1-.1h0A7.9,7.9,0,0,1,507.1,115.4Zm6-6.5h-2.8v1.8h2.2c.1,0,.1,0,.1.1v.5h-5.2v-.5a.1.1,0,0,1,.1-.1h2.1V109H507v-.5h2.6v-.5a5.3,5.3,0,0,0-.1-1.4h.9v.2a2.8,2.8,0,0,0-.1,1.1v.5H513a.1.1,0,0,1,.1.1Zm-.7,8.2a.1.1,0,0,1-.1.1h-.6v-.7h-3.3v.7a.1.1,0,0,1-.1.1h-.5c-.1,0-.1,0-.1-.1v-4.2c0-.1,0-.1.1-.1h4.5c.1,0,.1,0,.1.1v4.2Zm-.7-1.3v-2.4h-3.3v2.4Z"/><path d="M524.6,116c-.1.2-.3.3-.3.5l-.2.2h-.2a11.7,11.7,0,0,1-2.5-1.3,7.7,7.7,0,0,1-1.8-1.8v3.6h-.7v-3.6a7.6,7.6,0,0,1-2,2,10.3,10.3,0,0,1-2.1,1.1h-.2a.3.3,0,0,1-.1-.2l-.4-.4a9.6,9.6,0,0,0,4.3-2.9h-4a.1.1,0,0,1-.1-.1v-.6h4.6v-1.1h-3.1v-4.4h7.1v4.4h-3.3v1.1h4.8v.6a.1.1,0,0,1-.1.1H520A9.9,9.9,0,0,0,524.6,116Zm-5.7-7v-1.3h-2.4V109Zm0,2v-1.4h-2.4V111Zm3.3-2v-1.3h-2.6V109Zm0,2v-1.4h-2.6V111Z"/><path d="M527.2,109.6v-2.8h.9v2.6l4.4-1.1.5.7a14.8,14.8,0,0,1-2.4,4.5l-.8-.5a8.8,8.8,0,0,0,2.1-3.7l-3.8.9v4.4a1.1,1.1,0,0,0,.4,1l1.4.2,2.7-.2v.9h-2.9a3.6,3.6,0,0,1-2.1-.5,2.7,2.7,0,0,1-.4-1.5v-4.2l-1.9.5-.3-.8Z"/><path d="M534.4,109.9l.7-.4a19.7,19.7,0,0,1,1,2.7l-.8.3A11.4,11.4,0,0,0,534.4,109.9Zm1.3,6.5a6.2,6.2,0,0,0,3.1-2.6,12,12,0,0,0,1-4.5l.8.2a11.2,11.2,0,0,1-1.1,4.7,7.9,7.9,0,0,1-1.4,1.7,8.6,8.6,0,0,1-1.9,1.1Zm.9-7,.7-.4a13.4,13.4,0,0,1,.8,2.6l-.7.4A11.5,11.5,0,0,0,536.6,109.4Z"/><path d="M543.7,111.2v5.7h-.9V106.8h.9v3.5a16.6,16.6,0,0,1,4.4,1.9l-.5.9A11.8,11.8,0,0,0,543.7,111.2Z"/><path d="M513,129.3h-4.8v1.9h-.8v-1.9h-4.6v-.5c0-.1,0-.1.1-.1h4.5v-1.1h-3.2v-4.2h7.3v4.2h-3.4v1.1h4.7c.1,0,.1,0,.1.1Zm-7.5-7h-.1l-.4.2h-.1a.1.1,0,0,1-.1-.1,8,8,0,0,0-.9-1.4h.5a.1.1,0,0,1,.1-.1.1.1,0,0,0,.1.1A8,8,0,0,1,505.5,122.3Zm2,2.8v-1.3H505v1.3Zm0,1.9v-1.4H505V127Zm.9-4.8h-.7a4.6,4.6,0,0,0-.7-1.6h0c0-.1.1-.1.2-.1l.3-.2h.1a.1.1,0,0,1,.1.1A10.1,10.1,0,0,1,508.4,122.2Zm2.5,2.9v-1.3h-2.7v1.3Zm0,1.9v-1.4h-2.7V127Zm1.1-5.9c0,.1-.1.1-.2.2s-.1.2-.2.3a4.1,4.1,0,0,1-.7,1.1c-.1.1-.1.2-.2.2h-.6a5.7,5.7,0,0,0,.8-1.3l.3-.7.7.3Z"/><path d="M523.8,126.2h-9.9v-.6h9.9Z"/><path d="M529.8,122.7a20.6,20.6,0,0,1-1.2,6.3c-.4.9-.9,1.3-1.6,1.3a1.5,1.5,0,0,1-1.3-.9,5.5,5.5,0,0,1-.4-2.4,7.8,7.8,0,0,1,.3-2.2,5.4,5.4,0,0,1,.9-1.5,3.6,3.6,0,0,1,1.4-1,4.5,4.5,0,0,1,1.6-.3,3.3,3.3,0,0,1,3,1.3,5.6,5.6,0,0,1,.8,3.2,4.4,4.4,0,0,1-1,3,5.1,5.1,0,0,1-2.7,1.5l-.4-.7c2.2-.4,3.2-1.8,3.2-4a4.4,4.4,0,0,0-.8-2.8A2.5,2.5,0,0,0,529.8,122.7Zm-.8.1a2.1,2.1,0,0,0-1.1.4,2.2,2.2,0,0,0-.9.8,4.5,4.5,0,0,0-.9,3,5,5,0,0,0,.3,1.9c.2.3.4.5.6.5l.5-.2a1.6,1.6,0,0,0,.4-.7A19.1,19.1,0,0,0,529,122.8Z"/><path d="M536.4,125.3v5.8h-.9V121h.9v3.5a13.9,13.9,0,0,1,4.4,1.9l-.5.8A17.7,17.7,0,0,0,536.4,125.3Zm2.2-4.6.6-.2.9,2-.7.3A7.1,7.1,0,0,0,538.6,120.7Zm1.3-.4.6-.2a7.6,7.6,0,0,1,.8,2l-.6.2A7.6,7.6,0,0,0,539.9,120.3Z"/><path d="M545.8,127l-3.5.5v-.8l3.5-.5-.4-2.2-2.9.4v-.8l2.9-.3-.4-2.2.9-.2.4,2.2,2.9-.4v.8l-2.9.4.3,2.2,3.1-.5v.8l-3,.5.7,4-.9.2Z"/><path d="M554.9,129.7h1.7v.8H550v-.8h4l.4-5.3h-3.5v-.8h4.5Z"/><path d="M561.5,126.4a30.7,30.7,0,0,0-2.6-2.5l.6-.5a26.1,26.1,0,0,1,2.4,2.2,14.5,14.5,0,0,0,1.2-4.2l.9.2a17.8,17.8,0,0,1-1.4,4.6,24.7,24.7,0,0,1,2.1,2.7l-.7.7a14.4,14.4,0,0,0-1.8-2.5,11.5,11.5,0,0,1-3.9,4l-.6-.6A10,10,0,0,0,561.5,126.4Z"/><path d="M566.3,122a15.8,15.8,0,0,1,2.7,1.8l-.5.8a24.3,24.3,0,0,0-2.7-1.9Zm5.8.6.9.4a9.2,9.2,0,0,1-2.1,5,9.4,9.4,0,0,1-4.6,2.8l-.4-.8C569.5,129.1,571.6,126.6,572.1,122.6Z"/><path d="M576,125.3v5.8h-.9V121h.9v3.5a13.9,13.9,0,0,1,4.4,1.9l-.4.8A21.4,21.4,0,0,0,576,125.3Z"/></svg>