<?xml version="1.0" encoding="utf-8"?>
<!-- Generator: Adobe Illustrator 23.0.1, SVG Export Plug-In . SVG Version: 6.00 Build 0)  -->
<svg version="1.1" xmlns="http://www.w3.org/2000/svg" xmlns:xlink="http://www.w3.org/1999/xlink" x="0px" y="0px"
	 viewBox="0 0 474.7 206.7" style="enable-background:new 0 0 474.7 206.7;" xml:space="preserve">
<style type="text/css">
	.st0{fill:#505050;}
	.st1{fill:#FFFFFF;}
	.st2{display:none;}
	.st3{display:inline;}
	.st4{fill:#EBEBEB;}
	.st5{fill:#0072C6;}
	.st6{fill:#D2D2D2;}
	.st7{fill:none;stroke:#000000;stroke-miterlimit:10;}
	.st8{fill:#EBEBEB;stroke:#000000;stroke-width:0.75;stroke-miterlimit:10;}
	.st9{fill:#80BCEB;}
	.st10{fill:#414042;}
	.st11{fill:#AAD2F2;}
	.st12{fill:#054B16;}
	.st13{fill:#FFFFFF;fill-opacity:0.15;}
	.st14{fill:#1E1E1E;}
	.st15{fill:none;}
	.st16{stroke:#000000;stroke-width:5.000000e-02;stroke-miterlimit:10;}
	.st17{fill:#1E1E1E;stroke:#1E1E1E;stroke-width:6.000000e-02;stroke-miterlimit:10;}
	.st18{fill:#FFFFFF;stroke:#FFFFFF;stroke-width:5.000000e-02;stroke-miterlimit:10;}
	.st19{fill:#0072C6;stroke:#0072C6;stroke-width:5.000000e-02;stroke-miterlimit:10;}
</style>
<symbol  id="New_Symbol_41" viewBox="-10 -10 20 20">
	<circle class="st0" cx="0" cy="0" r="10"/>
	<path class="st1" d="M1.2-4.2v8.6h-1.4v-6.9C-0.4-2.3-0.7-2.1-1-2c-0.3,0.1-0.7,0.2-1,0.3v-1.2l0.6-0.2l0.6-0.3l0.6-0.3
		C0.1-3.9,0.4-4,0.6-4.2H1.2z"/>
</symbol>
<symbol  id="New_Symbol_42" viewBox="-10 -10 20 20">
	<circle class="st0" cx="0" cy="0" r="10"/>
	<path class="st1" d="M2.5,4.4h-5.3V3.8c0-0.3,0-0.5,0.1-0.8c0.1-0.2,0.2-0.4,0.3-0.7c0.1-0.2,0.3-0.4,0.4-0.6
		c0.2-0.2,0.4-0.4,0.5-0.5l0.6-0.5c0.2-0.1,0.4-0.3,0.6-0.5S0.1,0,0.3-0.2c0.1-0.1,0.3-0.3,0.4-0.4C0.8-0.8,0.9-1,0.9-1.1
		C1-1.3,1-1.5,1-1.7c0-0.2,0-0.4-0.1-0.6C0.8-2.4,0.7-2.6,0.6-2.7C0.5-2.8,0.3-2.9,0.2-2.9C0-3-0.2-3-0.4-3c-0.4,0-0.7,0.1-1.1,0.2
		c-0.4,0.2-0.7,0.4-1,0.7v-1.3c0.2-0.1,0.3-0.2,0.5-0.3c0.2-0.1,0.4-0.2,0.6-0.2C-1.2-4-1-4-0.8-4.1c0.2,0,0.4,0,0.7,0
		c0.3,0,0.7,0,1,0.1c0.3,0.1,0.6,0.2,0.8,0.4C1.9-3.3,2.1-3,2.2-2.8c0.1,0.3,0.2,0.7,0.2,1c0,0.3,0,0.6-0.1,0.9
		C2.2-0.6,2-0.3,1.9-0.1C1.7,0.2,1.5,0.4,1.3,0.6C1.1,0.8,0.9,1,0.6,1.2l-0.7,0.5c-0.2,0.2-0.4,0.4-0.6,0.5C-0.8,2.4-1,2.6-1.1,2.8
		c-0.1,0.1-0.2,0.3-0.2,0.5l0,0h3.8V4.4z"/>
</symbol>
<symbol  id="New_Symbol_43" viewBox="-10 -10 20 20">
	<circle class="st0" cx="0" cy="0" r="10"/>
	<path class="st1" d="M-2.6,4.1V2.8c0.5,0.4,1.2,0.7,1.8,0.6c0.5,0,0.9-0.1,1.3-0.4c0.3-0.2,0.5-0.6,0.5-1c0-0.9-0.7-1.4-2.2-1.4
		h-0.7v-1.1h0.6c1.3,0,1.9-0.4,1.9-1.4S0.3-3-0.7-3c-0.6,0-1.1,0.2-1.6,0.6v-1.2C-1.7-4-1-4.1-0.3-4.1c0.6,0,1.3,0.2,1.8,0.6
		c0.4,0.3,0.7,0.9,0.7,1.4c0.1,1-0.7,1.9-1.7,2.1l0,0c0.5,0,1,0.3,1.4,0.6C2.3,1,2.5,1.5,2.5,2.1c0,0.7-0.3,1.4-0.9,1.8
		C1,4.4,0.2,4.6-0.6,4.6C-1.3,4.6-2,4.5-2.6,4.1z"/>
</symbol>
<symbol  id="New_Symbol_44" viewBox="-10 -10 20 20">
	<circle class="st0" cx="0" cy="0" r="10"/>
	<path class="st1" d="M2-4v5.4h1.3v1.1H2v1.9H0.6V2.6h-3.8V1.4c0.3-0.4,0.7-0.8,1-1.3c0.4-0.4,0.7-0.9,1-1.4s0.6-0.9,0.9-1.4
		S0.4-3.5,0.6-4L2-4z M0.7,1.4v-3.5c-0.4,0.7-0.8,1.4-1.3,2C-1,0.5-1.4,1-1.8,1.4L0.7,1.4z"/>
</symbol>
<symbol  id="New_Symbol_45" viewBox="-10 -10 20 20">
	<circle class="st0" cx="0" cy="0" r="10"/>
	<path class="st1" d="M-2.4,4.2V2.9c0.5,0.3,1.1,0.5,1.7,0.6c0.5,0,1-0.1,1.4-0.4C1,2.8,1.2,2.3,1.1,1.9C1.2,1.5,1,1,0.6,0.8
		c-0.5-0.3-1-0.4-1.5-0.4c-0.2,0-0.7,0-1.4,0.1L-2-4h4.1v1.2h-3L-1-0.7c0.3,0,0.5,0,0.7,0C0.5-0.8,1.2-0.5,1.8,0
		c0.5,0.5,0.7,1.2,0.7,1.9c0,0.8-0.3,1.5-0.8,2C1,4.4,0.2,4.6-0.6,4.6C-1.2,4.6-1.9,4.5-2.4,4.2z"/>
</symbol>
<symbol  id="New_Symbol_46" viewBox="-10 -10 20 20">
	<circle class="st0" cx="0" cy="0" r="10"/>
	<path class="st1" d="M2.9,1.7c0,0.4-0.1,0.8-0.2,1.1C2.6,3.2,2.4,3.5,2.1,3.8C1.9,4,1.6,4.2,1.2,4.4C0.9,4.5,0.5,4.6,0.1,4.6
		c-0.4,0-0.8-0.1-1.2-0.2c-0.4-0.2-0.7-0.4-0.9-0.7c-0.3-0.4-0.4-0.8-0.6-1.2c-0.1-0.5-0.2-1.1-0.2-1.7c0-0.7,0-1.4,0.2-2.1
		c0.2-0.5,0.4-1.1,0.8-1.5C-1.4-3.3-1-3.6-0.6-3.8C-0.1-4,0.4-4.1,0.9-4.1c0.3,0,0.6,0,0.9,0.1C1.9-4,2.1-4,2.3-3.9v1.2
		C2.1-2.8,1.9-2.8,1.7-2.9C1.4-3,1.2-3,0.9-3C0.6-3,0.3-2.9,0-2.8c-0.3,0.1-0.5,0.3-0.7,0.6c-0.2,0.3-0.4,0.6-0.5,1
		C-1.3-0.8-1.4-0.4-1.4,0l0,0c0.2-0.3,0.4-0.5,0.7-0.6c0.4-0.2,0.7-0.2,1.1-0.2c0.3,0,0.7,0.1,1,0.2C1.8-0.6,2-0.4,2.3-0.2
		c0.2,0.2,0.4,0.5,0.5,0.8C2.9,1,2.9,1.4,2.9,1.7z M1.5,1.8c0-0.2,0-0.4-0.1-0.7C1.4,1,1.3,0.8,1.2,0.7C1,0.5,0.9,0.4,0.7,0.3
		C0.5,0.2,0.3,0.2,0.1,0.2c-0.2,0-0.4,0-0.6,0.1C-0.7,0.4-0.8,0.5-1,0.7C-1.1,0.8-1.2,1-1.2,1.1c-0.1,0.2-0.1,0.4-0.1,0.5
		c0,0.2,0,0.4,0.1,0.6c0,0.2,0.1,0.4,0.3,0.6C-0.9,3-0.7,3.2-0.5,3.3c0.2,0.1,0.4,0.2,0.6,0.2c0.2,0,0.4,0,0.6-0.1
		C0.9,3.3,1,3.1,1.2,3c0.1-0.2,0.2-0.3,0.3-0.5C1.5,2.3,1.5,2.1,1.5,1.8z"/>
</symbol>
<g id="src" class="st2">
	<g id="Shapes" class="st3">
		<rect class="st1" width="474.7" height="206.7"/>
		<rect y="10.4" class="st4" width="105" height="155"/>
		<rect x="369.7" y="10.4" class="st5" width="105" height="115"/>
		<rect x="369.7" y="130.4" class="st6" width="105" height="70"/>
		<g>
			<line class="st7" x1="105" y1="15.4" x2="364.2" y2="15.4"/>
			<polygon points="363.1,19.1 369.5,15.4 363.1,11.7 			"/>
		</g>
		<g>
			<line class="st7" x1="110.4" y1="45.3" x2="369.5" y2="45.3"/>
			<polygon points="111.5,49 105,45.3 111.5,41.5 			"/>
		</g>
		<g>
			<line class="st7" x1="105" y1="74.9" x2="364.2" y2="74.9"/>
			<polygon points="363.1,78.7 369.5,74.9 363.1,71.2 			"/>
		</g>
		<g>
			<line class="st7" x1="110.4" y1="105.2" x2="369.5" y2="105.2"/>
			<polygon points="111.5,108.9 105,105.2 111.5,101.4 			"/>
		</g>
		<g>
			<line class="st7" x1="105" y1="154.5" x2="364.2" y2="154.5"/>
			<polygon points="363.1,158.2 369.5,154.5 363.1,150.7 			"/>
		</g>
		<g>
			<path class="st7" d="M369.5,195.4l-308.4-0.8c-5.5,0-10-4.5-10-10v-13.9"/>
			<polygon points="54.8,171.9 51.1,165.4 47.4,171.9 			"/>
		</g>
		<polygon class="st8" points="192.6,25.8 185,31.3 187.9,40.1 197.2,40.1 200.1,31.3 		"/>
		<polygon class="st8" points="192.6,86 185,91.4 187.9,100.2 197.2,100.2 200.1,91.4 		"/>
		
			<use xlink:href="#New_Symbol_46"  width="20" height="20" x="-10" y="-10" transform="matrix(1 0 0 1 168.91 195.41)" style="overflow:visible;"/>
		<g>
			<g>
				<path class="st9" d="M87.9,44.9v50.3h-70V44.9c0-2.4,1.9-4.4,4.4-4.4c0,0,0,0,0,0h61.3C85.9,40.6,87.9,42.5,87.9,44.9z"/>
				<circle cx="24.4" cy="46" r="2.2"/>
				<circle class="st10" cx="31" cy="46" r="2.2"/>
				<circle class="st10" cx="37.5" cy="46" r="2.2"/>
				<path class="st11" d="M87.9,44.9v42.7l-4.4-4.4l-2.2-27.3L55,54.8L40.8,40.6h42.7C85.9,40.6,87.9,42.5,87.9,44.9z"/>
				<rect x="21.1" y="50.4" class="st12" width="63.4" height="41.6"/>
				<path class="st1" d="M69.1,57.7H26.4v-2.1h42.7V57.7z"/>
				<polygon class="st13" points="84.6,50.4 84.6,84.3 50.7,50.4 				"/>
				<path class="st1" d="M78,58.5l-0.6-1.4c0-0.1-0.1-0.2-0.1-0.3c0-0.1,0-0.2,0-0.2l0,0c0,0.1,0,0.1,0,0.2c0,0.1,0,0.2-0.1,0.3
					l-0.6,1.3h-1.9l1.5-2.5l-1.4-2.5h1.8l0.5,1.3c0,0.2,0.1,0.3,0.1,0.5l0,0c0-0.2,0.1-0.3,0.1-0.5l0.6-1.3h1.7L78.3,56l1.5,2.5
					L78,58.5z"/>
			</g>
			<g>
				<path class="st1" d="M49.2,76.1c0.1,2.1-0.5,4.1-1.8,5.7c-1.2,1.4-3,2.1-4.8,2c-0.8,0-1.6-0.1-2.3-0.3v-3.2
					c0.6,0.4,1.4,0.6,2.1,0.6c2.3,0,3.4-1.8,3.4-5.3V62.8h3.4L49.2,76.1z"/>
				<path class="st1" d="M52.3,82.6v-3.5c0.3,0.3,0.7,0.6,1.1,0.8c0.4,0.2,0.9,0.4,1.4,0.6c0.5,0.2,1,0.3,1.5,0.4
					c0.4,0.1,0.9,0.1,1.3,0.1c1.1,0.1,2.2-0.2,3.2-0.7c0.7-0.5,1.1-1.3,1.1-2.1c0-0.4-0.1-0.9-0.3-1.3c-0.3-0.4-0.6-0.7-1-1
					c-0.5-0.3-1-0.6-1.5-0.9c-0.6-0.3-1.2-0.6-1.8-0.9s-1.3-0.8-2-1.1c-0.6-0.4-1.1-0.8-1.6-1.3c-0.4-0.5-0.8-1-1-1.6
					c-0.3-0.6-0.4-1.3-0.4-2c0-0.9,0.2-1.8,0.7-2.5c0.4-0.7,1-1.3,1.7-1.8c0.8-0.5,1.6-0.8,2.4-1c0.9-0.2,1.8-0.3,2.8-0.3
					c1.6-0.1,3.2,0.2,4.7,0.7v3.4c-1.3-0.9-2.9-1.3-4.5-1.3c-0.5,0-1,0.1-1.5,0.2c-0.5,0.1-0.9,0.2-1.4,0.5c-0.4,0.2-0.7,0.5-1,0.8
					c-0.2,0.3-0.4,0.7-0.4,1.2c0,0.4,0.1,0.8,0.3,1.2c0.2,0.4,0.5,0.7,0.8,0.9c0.4,0.3,0.9,0.6,1.3,0.8c0.5,0.3,1.2,0.6,1.8,0.9
					s1.4,0.8,2,1.2c0.6,0.4,1.2,0.9,1.7,1.4c0.5,0.5,0.9,1,1.2,1.7c0.3,0.7,0.4,1.4,0.4,2.1c0.1,1.8-0.8,3.5-2.3,4.4
					c-0.8,0.5-1.6,0.8-2.5,1c-1,0.2-2,0.3-3,0.3c-0.3,0-0.8,0-1.3-0.1s-1-0.1-1.5-0.2s-1-0.2-1.5-0.4C53,83,52.6,82.8,52.3,82.6z"/>
			</g>
		</g>
	</g>
	<g id="Text" class="st3">
		<g>
			<path class="st14" d="M28.3,111.7c0.1,0.9-0.2,1.8-0.8,2.6c-0.6,0.6-1.4,1-2.3,0.9c-0.4,0-0.9-0.1-1.3-0.2v-1.8
				c0.3,0.2,0.7,0.4,1.1,0.4c0.9,0,1.3-0.6,1.3-1.9v-5h1.9L28.3,111.7z"/>
			<path class="st14" d="M34.9,115.1h-1.8v-0.9l0,0c-0.4,0.6-1,1-1.8,1c-0.5,0-1-0.2-1.4-0.5c-0.3-0.4-0.5-0.8-0.5-1.3
				c0-1.2,0.7-1.8,2.1-2l1.6-0.2c0-0.7-0.4-1-1.1-1c-0.7,0-1.4,0.2-2,0.6v-1.4c0.3-0.2,0.7-0.3,1.1-0.3c0.4-0.1,0.8-0.2,1.2-0.2
				c1.2-0.2,2.4,0.7,2.6,1.9c0,0.2,0,0.4,0,0.6L34.9,115.1z M33.1,112.6v-0.4l-1.1,0.1c-0.6,0.1-0.9,0.4-0.9,0.8
				c0,0.2,0.1,0.4,0.2,0.5c0.2,0.1,0.4,0.2,0.6,0.2c0.3,0,0.6-0.1,0.8-0.4C33,113.3,33.1,112.9,33.1,112.6z"/>
			<path class="st14" d="M41.9,109.1l-2.2,6h-2.1l-2.1-6h2l1,3.7c0.1,0.3,0.2,0.7,0.2,1.1l0,0c0-0.3,0.1-0.7,0.2-1l1.2-3.8H41.9z"/>
			<path class="st14" d="M47.6,115.1h-1.8v-0.9l0,0c-0.4,0.6-1.1,1-1.8,1c-0.5,0-1-0.2-1.4-0.5c-0.3-0.4-0.5-0.8-0.5-1.3
				c0-1.2,0.7-1.8,2.1-2l1.6-0.2c0-0.7-0.4-1-1.1-1c-0.7,0-1.4,0.2-2,0.6v-1.4c0.3-0.2,0.7-0.3,1.1-0.3c0.4-0.1,0.7-0.1,1.1-0.2
				c1.2-0.2,2.4,0.7,2.6,1.9c0,0.2,0,0.4,0,0.6L47.6,115.1z M45.9,112.6v-0.4l-1.1,0.1c-0.6,0.1-0.9,0.3-0.9,0.8
				c0,0.2,0.1,0.4,0.2,0.5c0.2,0.1,0.4,0.2,0.6,0.2c0.3,0,0.6-0.1,0.8-0.4C45.8,113.3,45.9,112.9,45.9,112.6z"/>
			<path class="st14" d="M48.9,114.7v-1.9c0.3,0.3,0.7,0.5,1.1,0.7c0.4,0.1,0.8,0.2,1.2,0.2c0.2,0,0.4,0,0.6-0.1
				c0.2,0,0.3-0.1,0.4-0.2c0.1-0.1,0.2-0.2,0.3-0.3c0.1-0.1,0.1-0.2,0.1-0.3c0-0.2-0.1-0.3-0.2-0.4c-0.1-0.1-0.2-0.3-0.4-0.4
				c-0.2-0.1-0.4-0.2-0.6-0.3c-0.2-0.1-0.5-0.2-0.7-0.3c-0.6-0.2-1.1-0.6-1.5-1c-0.3-0.4-0.5-0.9-0.5-1.4c0-0.4,0.1-0.8,0.3-1.1
				c0.2-0.3,0.4-0.6,0.7-0.8c0.3-0.2,0.7-0.4,1.1-0.4c0.4-0.1,0.8-0.1,1.3-0.1c0.4,0,0.8,0,1.2,0.1c0.3,0,0.6,0.1,0.9,0.2v1.8
				c-0.1-0.1-0.3-0.2-0.5-0.3c-0.2-0.1-0.3-0.1-0.5-0.2c-0.2,0-0.4-0.1-0.5-0.1h-0.5c-0.2,0-0.4,0-0.6,0.1c-0.2,0-0.3,0.1-0.4,0.2
				c-0.1,0.1-0.2,0.2-0.3,0.3c-0.1,0.1-0.1,0.2-0.1,0.3c0,0.1,0,0.3,0.1,0.4c0.1,0.1,0.2,0.2,0.3,0.3c0.2,0.1,0.3,0.2,0.5,0.3
				l0.7,0.3c0.3,0.1,0.6,0.3,0.9,0.4c0.3,0.1,0.5,0.3,0.7,0.5c0.2,0.2,0.3,0.4,0.4,0.7c0.1,0.3,0.2,0.6,0.2,0.9
				c0,0.4-0.1,0.8-0.3,1.2c-0.2,0.3-0.4,0.6-0.7,0.8c-0.3,0.2-0.7,0.4-1.1,0.4c-0.4,0.1-0.9,0.1-1.3,0.1c-0.4,0-0.9,0-1.3-0.1
				C49.6,115,49.2,114.9,48.9,114.7z"/>
			<path class="st14" d="M60.4,114.8c-0.6,0.3-1.2,0.4-1.8,0.4c-0.8,0-1.6-0.3-2.2-0.8c-0.6-0.6-0.9-1.4-0.9-2.2
				c0-0.9,0.3-1.8,0.9-2.4c0.7-0.6,1.5-0.9,2.5-0.9c0.5,0,1.1,0.1,1.5,0.3v1.6c-0.4-0.3-0.8-0.4-1.3-0.4c-0.5,0-0.9,0.1-1.3,0.5
				c-0.3,0.3-0.5,0.8-0.5,1.3c0,0.5,0.1,0.9,0.5,1.3c0.3,0.3,0.8,0.5,1.2,0.4c0.5,0,1-0.2,1.3-0.4L60.4,114.8z"/>
			<path class="st14" d="M65.6,110.7c-0.2-0.1-0.5-0.2-0.8-0.2c-0.4,0-0.7,0.1-0.9,0.4c-0.2,0.4-0.4,0.8-0.3,1.2v2.9h-1.9v-6h1.9
				v1.1l0,0c0.2-0.7,0.9-1.2,1.6-1.2c0.2,0,0.3,0,0.5,0.1V110.7z"/>
			<path class="st14" d="M67.4,108.1c-0.3,0-0.6-0.1-0.8-0.3c-0.2-0.2-0.3-0.4-0.3-0.7c0-0.3,0.1-0.5,0.3-0.7
				c0.2-0.2,0.5-0.3,0.8-0.3c0.3,0,0.6,0.1,0.8,0.3c0.2,0.2,0.3,0.4,0.3,0.7c0,0.3-0.1,0.5-0.3,0.7C67.9,108,67.7,108.1,67.4,108.1z
				 M68.3,115.1h-1.9v-6h1.9V115.1z"/>
			<path class="st14" d="M71.7,114.3L71.7,114.3v3.5h-1.9V109h1.8v0.9l0,0c0.7-1.1,2.2-1.4,3.3-0.6c0.2,0.1,0.3,0.2,0.5,0.4
				c0.5,0.6,0.7,1.4,0.6,2.2c0,0.9-0.2,1.7-0.7,2.4c-0.5,0.6-1.2,0.9-2,0.9C72.7,115.2,72.1,114.9,71.7,114.3z M71.7,111.9v0.5
				c0,0.4,0.1,0.7,0.3,1c0.2,0.3,0.5,0.4,0.9,0.4c0.4,0,0.8-0.2,1-0.5c0.3-0.4,0.4-0.9,0.3-1.4c0-1.1-0.4-1.6-1.2-1.6
				c-0.4,0-0.7,0.2-0.9,0.4C71.8,111.1,71.7,111.5,71.7,111.9L71.7,111.9z"/>
			<path class="st14" d="M80.9,115c-0.4,0.2-0.8,0.2-1.2,0.2c-1.3,0-2-0.7-2-2v-2.7h-1v-1.4h1v-1.3l1.8-0.5v1.8h1.3v1.4h-1.3v2.4
				c0,0.6,0.3,0.9,0.7,0.9c0.2,0,0.4-0.1,0.6-0.2L80.9,115z"/>
			<path class="st14" d="M42.1,129.1v-1.9c0.3,0.3,0.7,0.5,1.1,0.7c0.4,0.1,0.8,0.2,1.2,0.2c0.2,0,0.4,0,0.6-0.1
				c0.2,0,0.3-0.1,0.5-0.2c0.1-0.1,0.2-0.2,0.3-0.3c0.1-0.1,0.1-0.2,0.1-0.3c0-0.2,0-0.3-0.1-0.4c-0.1-0.1-0.2-0.3-0.4-0.4
				c-0.2-0.1-0.4-0.2-0.6-0.3c-0.2-0.1-0.5-0.2-0.7-0.3c-0.6-0.2-1.1-0.6-1.5-1c-0.3-0.4-0.5-0.9-0.5-1.4c0-0.4,0.1-0.8,0.3-1.1
				c0.2-0.3,0.4-0.6,0.7-0.8c0.3-0.2,0.6-0.4,1-0.4c0.4-0.1,0.8-0.1,1.3-0.1c0.4,0,0.8,0,1.2,0.1c0.3,0,0.6,0.1,0.9,0.2v1.8
				c-0.1-0.1-0.3-0.2-0.5-0.3c-0.2-0.1-0.3-0.1-0.5-0.2c-0.2,0-0.3-0.1-0.5-0.1h-0.5c-0.2,0-0.4,0-0.6,0.1c-0.2,0-0.3,0.1-0.5,0.2
				c-0.1,0.1-0.2,0.2-0.3,0.3c-0.1,0.1-0.1,0.2-0.1,0.3c0,0.1,0,0.3,0.1,0.4c0.1,0.1,0.2,0.2,0.3,0.3c0.2,0.1,0.3,0.2,0.5,0.3
				c0.2,0.1,0.4,0.2,0.7,0.3c0.3,0.1,0.6,0.3,0.9,0.4c0.3,0.1,0.5,0.3,0.7,0.5c0.2,0.2,0.3,0.4,0.4,0.7c0.1,0.3,0.2,0.6,0.2,0.9
				c0,0.4-0.1,0.8-0.3,1.2c-0.2,0.3-0.4,0.6-0.7,0.8c-0.3,0.2-0.7,0.4-1.1,0.4c-0.4,0.1-0.8,0.1-1.3,0.1c-0.4,0-0.9,0-1.3-0.1
				C42.8,129.4,42.4,129.3,42.1,129.1z"/>
			<path class="st14" d="M51.1,126.6v2.9h-1.9V121h3c2.1,0,3.2,0.9,3.2,2.7c0,0.8-0.3,1.5-0.9,2c-0.7,0.6-1.6,0.8-2.4,0.8
				L51.1,126.6z M51.1,122.5v2.6h0.8c1,0,1.5-0.4,1.5-1.3s-0.5-1.3-1.5-1.3H51.1z"/>
			<path class="st14" d="M63.4,129.4h-2.1l-0.6-1.9h-3l-0.6,1.9h-2l3.1-8.4h2.3L63.4,129.4z M60.3,126.1l-0.9-2.8
				c-0.1-0.2-0.1-0.5-0.1-0.8l0,0c0,0.2-0.1,0.5-0.2,0.7l-0.9,2.8H60.3z"/>
		</g>
		<g>
			<path class="st14" d="M185.1,10.1V8.9c0.1,0.1,0.3,0.2,0.5,0.3c0.4,0.2,0.8,0.3,1.2,0.4c0.2,0,0.4,0.1,0.6,0.1
				c0.5,0,0.9-0.1,1.4-0.3c0.3-0.2,0.5-0.6,0.4-1c0-0.2,0-0.4-0.1-0.6c-0.1-0.2-0.2-0.3-0.4-0.5c-0.2-0.2-0.4-0.3-0.6-0.4l-0.8-0.4
				c-0.3-0.2-0.6-0.3-0.8-0.4c-0.2-0.1-0.5-0.3-0.7-0.5c-0.2-0.2-0.3-0.4-0.4-0.6c-0.1-0.3-0.2-0.5-0.2-0.8c0-0.4,0.1-0.7,0.3-1
				c0.2-0.3,0.4-0.5,0.7-0.7c0.3-0.2,0.6-0.3,0.9-0.4c1-0.2,2-0.2,2.9,0.2v1.1c-0.6-0.4-1.2-0.5-1.9-0.5c-0.2,0-0.4,0-0.6,0.1
				c-0.2,0-0.4,0.1-0.6,0.2c-0.2,0.1-0.3,0.2-0.4,0.4c-0.1,0.2-0.2,0.4-0.2,0.6c0,0.2,0,0.4,0.1,0.6c0.1,0.2,0.2,0.3,0.4,0.4
				c0.2,0.1,0.4,0.3,0.6,0.4c0.2,0.1,0.5,0.3,0.8,0.4s0.6,0.3,0.9,0.5c0.3,0.1,0.5,0.3,0.7,0.5c0.2,0.2,0.4,0.4,0.5,0.7
				c0.1,0.3,0.2,0.5,0.2,0.8c0,0.4-0.1,0.7-0.2,1.1c-0.2,0.3-0.4,0.5-0.7,0.7c-0.3,0.2-0.6,0.3-1,0.4c-0.4,0.1-0.8,0.1-1.1,0.1h-0.5
				c-0.2,0-0.4-0.1-0.6-0.1c-0.2,0-0.4-0.1-0.6-0.1C185.3,10.2,185.2,10.2,185.1,10.1z"/>
			<path class="st14" d="M192,2.9c-0.2,0-0.3-0.1-0.4-0.2c-0.1-0.1-0.2-0.3-0.2-0.5c0-0.2,0.1-0.3,0.2-0.4c0.1-0.1,0.3-0.2,0.4-0.2
				c0.2,0,0.3,0.1,0.4,0.2c0.1,0.1,0.2,0.3,0.2,0.4c0,0.2-0.1,0.3-0.2,0.4C192.3,2.8,192.2,2.9,192,2.9z M192.5,10.4h-1v-6h1V10.4z"
				/>
			<path class="st14" d="M199.5,9.9c0,2.2-1.1,3.3-3.2,3.3c-0.7,0-1.4-0.1-2-0.4v-1c0.6,0.3,1.2,0.5,1.9,0.6c1.5,0,2.2-0.8,2.2-2.4
				V9.4l0,0c-0.7,1.1-2.2,1.5-3.3,0.8c-0.2-0.1-0.4-0.3-0.5-0.4c-0.5-0.6-0.7-1.4-0.6-2.2c0-0.9,0.2-1.7,0.7-2.4
				c0.5-0.6,1.2-0.9,2-0.9c0.7,0,1.4,0.4,1.8,1l0,0V4.4h1L199.5,9.9z M198.5,7.7V6.8c0-0.5-0.2-0.9-0.5-1.2
				c-0.3-0.3-0.8-0.5-1.2-0.5c-0.5,0-1.1,0.2-1.4,0.6c-0.3,0.5-0.5,1.2-0.4,1.8c0,0.6,0.1,1.1,0.5,1.6c0.3,0.4,0.8,0.6,1.3,0.6
				c0.5,0,0.9-0.2,1.2-0.6C198.4,8.8,198.6,8.2,198.5,7.7L198.5,7.7z"/>
			<path class="st14" d="M206.3,10.4h-1V7c0-1.3-0.5-1.9-1.4-1.9c-0.5,0-0.9,0.2-1.2,0.5c-0.3,0.4-0.5,0.9-0.4,1.4v3.4h-1v-6h1v1
				l0,0c0.4-0.7,1.2-1.2,2-1.1c0.6,0,1.1,0.2,1.5,0.6c0.4,0.5,0.6,1.2,0.5,1.8L206.3,10.4z"/>
			<path class="st14" d="M211.9,2.9c-0.2,0-0.3-0.1-0.4-0.2c-0.1-0.1-0.2-0.3-0.2-0.5c0-0.2,0.1-0.3,0.2-0.4
				c0.1-0.1,0.3-0.2,0.4-0.2c0.2,0,0.3,0.1,0.4,0.2c0.1,0.1,0.2,0.3,0.2,0.4c0,0.2-0.1,0.3-0.2,0.4C212.2,2.8,212.1,2.9,211.9,2.9z
				 M212.4,10.4h-1v-6h1V10.4z"/>
			<path class="st14" d="M219.2,10.4h-1V7c0-1.3-0.5-1.9-1.4-1.9c-0.5,0-0.9,0.2-1.2,0.5c-0.3,0.4-0.5,0.9-0.4,1.4v3.4h-1v-6h1v1
				l0,0c0.4-0.7,1.2-1.2,2-1.1c0.6,0,1.1,0.2,1.5,0.6c0.4,0.5,0.6,1.2,0.5,1.8L219.2,10.4z"/>
		</g>
		<g>
			<path class="st14" d="M207.1,38.2h-1v-8.4h1V38.2z"/>
			<path class="st14" d="M209.2,38.2v-8.4h2.3c3,0,4.4,1.4,4.4,4.1c0.1,1.2-0.4,2.3-1.2,3.2c-0.9,0.8-2.1,1.2-3.3,1.2L209.2,38.2z
				 M210.2,30.6v6.6h1.3c0.9,0.1,1.9-0.3,2.6-0.9c0.6-0.7,1-1.6,0.9-2.5c0-2.1-1.1-3.2-3.4-3.2L210.2,30.6z"/>
			<path class="st14" d="M225.8,30.6h-2.4v7.5h-1v-7.5H220v-0.9h5.8L225.8,30.6z"/>
			<path class="st14" d="M228.7,38.3c-0.8,0-1.6-0.3-2.1-0.8c-0.5-0.6-0.8-1.4-0.8-2.2c-0.1-0.9,0.2-1.7,0.8-2.4
				c0.6-0.6,1.4-0.9,2.2-0.8c0.8,0,1.6,0.3,2.1,0.8c0.5,0.6,0.8,1.5,0.8,2.3c0,0.8-0.2,1.7-0.8,2.3C230.3,38,229.5,38.3,228.7,38.3z
				 M228.8,32.8c-0.6,0-1.1,0.2-1.5,0.6c-0.4,0.5-0.6,1.1-0.5,1.7c0,0.6,0.2,1.2,0.5,1.7c0.4,0.4,0.9,0.6,1.5,0.6
				c0.5,0,1.1-0.2,1.4-0.6c0.4-0.5,0.5-1.1,0.5-1.7c0-0.6-0.1-1.2-0.5-1.7C229.8,33,229.3,32.8,228.8,32.8z"/>
			<path class="st14" d="M238.1,38.2h-1.4l-2.6-2.9l0,0v2.9h-1v-8.9h1v5.6l0,0l2.5-2.7h1.3l-2.8,2.9L238.1,38.2z"/>
			<path class="st14" d="M243.6,35.4h-4.2c0,0.6,0.2,1.1,0.5,1.5c0.4,0.4,0.9,0.6,1.4,0.5c0.7,0,1.3-0.2,1.9-0.7v0.9
				c-0.6,0.4-1.3,0.6-2.1,0.6c-0.8,0-1.5-0.3-2-0.8c-0.5-0.7-0.8-1.5-0.7-2.3c0-0.8,0.2-1.6,0.8-2.3c0.5-0.6,1.2-0.9,2-0.9
				c0.7,0,1.4,0.2,1.8,0.8c0.5,0.6,0.7,1.4,0.6,2.1L243.6,35.4z M242.6,34.6c0-0.5-0.1-0.9-0.4-1.3c-0.3-0.3-0.7-0.5-1.1-0.5
				c-0.4,0-0.9,0.2-1.1,0.5c-0.3,0.3-0.5,0.8-0.6,1.3H242.6z"/>
			<path class="st14" d="M250.1,38.2h-1v-3.4c0-1.3-0.5-1.9-1.4-1.9c-0.5,0-0.9,0.2-1.2,0.5c-0.3,0.4-0.5,0.9-0.5,1.4v3.4h-1v-6h1v1
				l0,0c0.4-0.7,1.2-1.2,2-1.1c0.6,0,1.1,0.2,1.5,0.6c0.4,0.5,0.6,1.2,0.5,1.8L250.1,38.2z"/>
		</g>
		<g>
			<path class="st1" d="M405.2,56.7h-1.9v-5c0-0.5,0-1.1,0.1-1.8h0c-0.1,0.4-0.2,0.8-0.3,1.1l-2,5.7h-1.5l-2-5.7
				c-0.1-0.4-0.2-0.8-0.3-1.2l0,0c0,0.8,0.1,1.6,0.1,2.2v4.7h-1.7v-8.4h2.8l1.7,5c0.1,0.4,0.2,0.8,0.3,1.2l0,0
				c0.1-0.4,0.2-0.8,0.3-1.2l1.7-5h2.7L405.2,56.7z"/>
			<path class="st1" d="M407.8,49.7c-0.3,0-0.6-0.1-0.8-0.3c-0.2-0.2-0.3-0.4-0.3-0.7c0-0.3,0.1-0.5,0.3-0.7
				c0.2-0.2,0.5-0.3,0.8-0.3c0.3,0,0.6,0.1,0.8,0.3c0.2,0.2,0.3,0.4,0.3,0.7c0,0.3-0.1,0.5-0.3,0.7
				C408.3,49.7,408.1,49.8,407.8,49.7z M408.7,56.7h-1.9v-6h1.9V56.7z"/>
			<path class="st1" d="M414.8,56.5c-0.6,0.3-1.2,0.4-1.8,0.4c-0.8,0-1.6-0.3-2.2-0.8c-0.6-0.6-0.9-1.4-0.9-2.2
				c0-0.9,0.3-1.8,0.9-2.4c0.7-0.6,1.5-0.9,2.5-0.9c0.5,0,1.1,0.1,1.5,0.3v1.6c-0.4-0.3-0.8-0.4-1.3-0.4c-0.5,0-0.9,0.1-1.3,0.5
				c-0.3,0.3-0.5,0.8-0.5,1.3c0,0.5,0.1,0.9,0.4,1.3c0.3,0.3,0.8,0.5,1.2,0.5c0.5,0,1-0.2,1.4-0.4V56.5z"/>
			<path class="st1" d="M420,52.4c-0.2-0.1-0.5-0.2-0.8-0.2c-0.4,0-0.7,0.1-0.9,0.4c-0.2,0.4-0.4,0.8-0.3,1.2v2.9h-1.9v-6h1.9v1.1
				l0,0c0.2-0.7,0.8-1.2,1.6-1.2c0.2,0,0.3,0,0.5,0.1L420,52.4z"/>
			<path class="st1" d="M423.8,56.8c-0.9,0.1-1.7-0.3-2.4-0.8c-1.2-1.3-1.2-3.3,0-4.6c0.7-0.6,1.5-0.9,2.4-0.8
				c0.9,0,1.7,0.3,2.3,0.8c0.6,0.6,0.9,1.4,0.9,2.2c0.1,0.9-0.2,1.7-0.8,2.4C425.5,56.6,424.7,56.9,423.8,56.8z M423.8,52
				c-0.4,0-0.8,0.2-1,0.5c-0.3,0.4-0.4,0.8-0.4,1.3c0,1.2,0.5,1.7,1.4,1.7s1.3-0.6,1.3-1.8S424.8,52,423.8,52L423.8,52z"/>
			<path class="st1" d="M427.9,56.5V55c0.3,0.2,0.6,0.3,0.9,0.4c0.3,0.1,0.6,0.1,0.9,0.1c0.3,0,0.5,0,0.8-0.1
				c0.2-0.1,0.3-0.2,0.3-0.4c0-0.1,0-0.2-0.1-0.3c-0.1-0.1-0.2-0.2-0.3-0.2c-0.1-0.1-0.3-0.1-0.5-0.2c-0.2,0-0.3-0.1-0.5-0.2
				c-0.2-0.1-0.4-0.2-0.6-0.3c-0.2-0.1-0.3-0.2-0.5-0.4c-0.1-0.1-0.2-0.3-0.3-0.5c-0.1-0.2-0.1-0.4-0.1-0.6c0-0.3,0.1-0.6,0.2-0.9
				c0.1-0.2,0.3-0.5,0.6-0.6c0.3-0.2,0.5-0.3,0.8-0.3c0.3-0.1,0.7-0.1,1-0.1c0.3,0,0.5,0,0.8,0.1c0.3,0,0.5,0.1,0.8,0.2v1.4
				c-0.2-0.1-0.5-0.2-0.8-0.3c-0.3-0.1-0.5-0.1-0.8-0.1c-0.1,0-0.2,0-0.4,0c-0.1,0-0.2,0.1-0.3,0.1c-0.1,0-0.1,0.1-0.2,0.2
				c0,0.1-0.1,0.1-0.1,0.2c0,0.1,0,0.2,0.1,0.3c0.1,0.1,0.2,0.2,0.3,0.2c0.1,0.1,0.2,0.1,0.4,0.2l0.4,0.1c0.2,0.1,0.5,0.2,0.7,0.3
				c0.2,0.1,0.4,0.2,0.5,0.4c0.1,0.1,0.3,0.3,0.3,0.5c0.3,0.8,0,1.7-0.7,2.2c-0.3,0.2-0.6,0.3-0.9,0.3c-0.3,0.1-0.7,0.1-1,0.1
				C429.2,56.8,428.6,56.7,427.9,56.5z"/>
			<path class="st1" d="M436.5,56.8c-0.9,0.1-1.7-0.3-2.4-0.8c-1.2-1.3-1.2-3.3,0-4.6c0.7-0.6,1.5-0.9,2.4-0.8
				c0.9-0.1,1.7,0.3,2.3,0.8c0.6,0.6,0.9,1.4,0.9,2.2c0,0.9-0.3,1.7-0.9,2.4C438.2,56.6,437.4,56.9,436.5,56.8z M436.5,52
				c-0.4,0-0.8,0.2-1,0.5c-0.3,0.4-0.4,0.8-0.4,1.3c0,1.2,0.5,1.7,1.4,1.7s1.3-0.6,1.3-1.8S437.5,52,436.5,52L436.5,52z"/>
			<path class="st1" d="M444.9,49.2c-0.2-0.1-0.4-0.1-0.7-0.1c-0.6,0-0.9,0.3-0.9,1v0.6h1.4v1.4h-1.4v4.6h-1.9V52h-1v-1.4h1v-0.8
				c0-0.6,0.2-1.2,0.7-1.7c0.5-0.4,1.1-0.7,1.8-0.6c0.3,0,0.6,0,0.9,0.1V49.2z"/>
			<path class="st1" d="M449.4,56.6c-0.4,0.2-0.8,0.2-1.2,0.2c-1.3,0-2-0.7-2-2V52h-1v-1.4h1v-1.3l1.8-0.5v1.8h1.4V52h-1.4v2.4
				c0,0.6,0.3,0.9,0.8,0.9c0.2,0,0.4-0.1,0.6-0.2V56.6z"/>
			<path class="st1" d="M401.8,64.1c-0.3,0-0.6-0.1-0.8-0.3c-0.2-0.2-0.3-0.4-0.3-0.7c0-0.3,0.1-0.5,0.3-0.7
				c0.2-0.2,0.5-0.3,0.8-0.3c0.3,0,0.6,0.1,0.8,0.3c0.2,0.2,0.3,0.4,0.3,0.7c0,0.3-0.1,0.5-0.3,0.7
				C402.4,64.1,402.1,64.2,401.8,64.1z M402.7,71.1h-1.9v-6h1.9V71.1z"/>
			<path class="st1" d="M410.2,71.1h-1.9v-0.8l0,0c-0.4,0.6-1.1,1-1.9,1c-0.7,0-1.4-0.3-1.8-0.8c-0.5-0.6-0.7-1.4-0.7-2.2
				c0-0.9,0.2-1.7,0.8-2.4c0.5-0.6,1.2-0.9,2-0.9c0.7-0.1,1.3,0.3,1.6,0.8l0,0v-3.6h1.9L410.2,71.1z M408.4,68.2v-0.4
				c0-0.4-0.1-0.7-0.3-1c-0.4-0.5-1.2-0.5-1.7-0.1c-0.1,0.1-0.1,0.1-0.2,0.2c-0.2,0.4-0.4,0.9-0.3,1.3c0,0.4,0.1,0.9,0.3,1.2
				c0.2,0.3,0.6,0.4,0.9,0.4c0.4,0,0.7-0.2,0.9-0.4C408.2,69,408.4,68.6,408.4,68.2L408.4,68.2z"/>
			<path class="st1" d="M417.1,68.6h-3.9c0.1,0.9,0.6,1.3,1.6,1.3c0.6,0,1.2-0.1,1.7-0.5v1.3c-0.7,0.3-1.4,0.5-2.2,0.4
				c-1.5,0.2-2.9-1-3.1-2.5c0-0.2,0-0.4,0-0.6c0-0.9,0.3-1.7,0.9-2.4c0.6-0.6,1.3-0.9,2.1-0.9c0.7,0,1.5,0.2,2,0.8
				c0.5,0.6,0.8,1.3,0.7,2.1L417.1,68.6z M415.4,67.5c0-0.9-0.3-1.3-1-1.3c-0.3,0-0.6,0.1-0.8,0.4c-0.2,0.3-0.4,0.6-0.4,0.9H415.4z"
				/>
			<path class="st1" d="M424.1,71.1h-1.9v-3.3c0-0.9-0.3-1.4-1-1.4c-0.3,0-0.6,0.1-0.8,0.4c-0.2,0.3-0.3,0.6-0.3,0.9v3.4h-1.8v-6
				h1.9v1l0,0c0.4-0.7,1.1-1.1,1.9-1.1c1.3,0,2,0.8,2,2.5L424.1,71.1z"/>
			<path class="st1" d="M429.1,71c-0.4,0.2-0.8,0.2-1.2,0.2c-1.3,0-2-0.7-2-2v-2.8h-1v-1.4h1v-1.3l1.8-0.5v1.8h1.4v1.4h-1.4v2.4
				c0,0.6,0.3,0.9,0.8,0.9c0.2,0,0.4-0.1,0.6-0.2V71z"/>
			<path class="st1" d="M431.2,64.1c-0.3,0-0.6-0.1-0.8-0.3c-0.2-0.2-0.3-0.4-0.3-0.7c0-0.3,0.1-0.5,0.3-0.7c0.5-0.3,1.1-0.3,1.5,0
				c0.2,0.2,0.3,0.4,0.3,0.7c0,0.3-0.1,0.5-0.3,0.7C431.7,64.1,431.5,64.2,431.2,64.1z M432.1,71.1h-1.9v-6h1.9V71.1z"/>
			<path class="st1" d="M437.2,71c-0.4,0.2-0.8,0.2-1.2,0.2c-1.3,0-2-0.7-2-2v-2.8h-1v-1.4h1v-1.3l1.8-0.5v1.8h1.4v1.4h-1.4v2.4
				c0,0.6,0.3,0.9,0.8,0.9c0.2,0,0.4-0.1,0.6-0.2V71z"/>
			<path class="st1" d="M444.2,65.1l-2.4,6.5c-0.6,1.6-1.5,2.3-2.6,2.3c-0.4,0-0.8,0-1.1-0.2v-1.5c0.2,0.1,0.5,0.2,0.8,0.2
				c0.4,0,0.9-0.3,1-0.7l0.3-0.7l-2.4-6h2l1.1,3.7c0.1,0.3,0.1,0.5,0.2,0.8l0,0c0-0.3,0.1-0.5,0.2-0.8l1.1-3.7L444.2,65.1z"/>
			<path class="st1" d="M399.9,84.8L399.9,84.8v3.5H398v-8.8h1.9v0.9l0,0c0.7-1.1,2.2-1.4,3.3-0.7c0.2,0.1,0.3,0.2,0.5,0.4
				c0.5,0.6,0.7,1.4,0.6,2.2c0,0.9-0.2,1.7-0.7,2.4c-0.5,0.6-1.2,0.9-2,0.9C400.8,85.6,400.2,85.3,399.9,84.8z M399.8,82.3v0.5
				c0,0.4,0.1,0.7,0.3,1c0.2,0.3,0.5,0.4,0.9,0.4c0.4,0,0.8-0.2,1-0.5c0.3-0.4,0.4-0.9,0.4-1.4c0-1-0.4-1.6-1.2-1.6
				c-0.4,0-0.7,0.1-0.9,0.4C400,81.5,399.8,81.9,399.8,82.3z"/>
			<path class="st1" d="M407.4,85.5h-1.9v-8.9h1.9V85.5z"/>
			<path class="st1" d="M413.9,85.5h-1.8v-0.9l0,0c-0.4,0.6-1,1-1.8,1c-0.5,0-1-0.2-1.4-0.5c-0.3-0.4-0.5-0.8-0.5-1.3
				c0-1.2,0.7-1.8,2.1-2l1.6-0.2c0-0.7-0.4-1-1.1-1c-0.7,0-1.4,0.2-2,0.6v-1.4c0.3-0.2,0.7-0.3,1.1-0.4c0.4-0.1,0.8-0.1,1.2-0.2
				c1.2-0.2,2.4,0.7,2.6,1.9c0,0.2,0,0.4,0,0.6L413.9,85.5z M412.2,83v-0.4l-1.1,0.1c-0.6,0.1-0.9,0.3-0.9,0.8
				c0,0.2,0.1,0.4,0.2,0.5c0.2,0.1,0.4,0.2,0.6,0.2c0.3,0,0.6-0.1,0.9-0.4C412.1,83.7,412.2,83.4,412.2,83z"/>
			<path class="st1" d="M418.9,85.4c-0.4,0.2-0.8,0.2-1.2,0.2c-1.3,0-2-0.7-2-2v-2.8h-1v-1.4h1v-1.3l1.9-0.5v1.8h1.3v1.4h-1.3v2.4
				c0,0.6,0.2,0.9,0.7,0.9c0.2,0,0.4-0.1,0.6-0.2L418.9,85.4z"/>
			<path class="st1" d="M424,78c-0.2-0.1-0.4-0.1-0.7-0.1c-0.6,0-0.9,0.3-0.9,1v0.6h1.4v1.4h-1.4v4.6h-1.9v-4.7h-1v-1.4h1v-0.8
				c0-0.6,0.2-1.2,0.7-1.7c0.5-0.4,1.2-0.7,1.8-0.6c0.3,0,0.6,0,0.9,0.1V78z"/>
			<path class="st1" d="M427.6,85.6c-0.9,0-1.7-0.3-2.4-0.8c-1.2-1.3-1.2-3.3,0-4.6c0.7-0.6,1.5-0.9,2.4-0.8
				c0.9-0.1,1.7,0.3,2.3,0.8c0.6,0.6,0.9,1.4,0.9,2.2c0,0.9-0.3,1.7-0.9,2.4C429.3,85.4,428.5,85.7,427.6,85.6z M427.7,80.8
				c-0.4,0-0.8,0.2-1,0.4c-0.3,0.4-0.4,0.8-0.4,1.3c0,1.2,0.5,1.7,1.4,1.7s1.3-0.6,1.3-1.8S428.6,80.8,427.7,80.8L427.7,80.8z"/>
			<path class="st1" d="M436,81.2c-0.2-0.1-0.5-0.2-0.8-0.2c-0.4,0-0.7,0.1-0.9,0.4c-0.2,0.4-0.4,0.8-0.3,1.2v2.9h-1.9v-6h1.9v1.1
				l0,0c0.2-0.7,0.8-1.2,1.6-1.2c0.2,0,0.3,0,0.5,0.1L436,81.2z"/>
			<path class="st1" d="M446.4,85.5h-1.9v-3.4c0-0.9-0.3-1.3-1-1.3c-0.3,0-0.6,0.1-0.7,0.4c-0.2,0.3-0.3,0.6-0.3,1v3.4h-1.8V82
				c0-0.8-0.3-1.3-0.9-1.3c-0.3,0-0.6,0.1-0.8,0.4c-0.2,0.3-0.3,0.6-0.3,1v3.3h-1.9v-6h1.9v0.9l0,0c0.2-0.3,0.5-0.6,0.8-0.8
				c0.3-0.2,0.7-0.3,1.1-0.3c0.8,0,1.5,0.4,1.7,1.1c0.4-0.7,1.2-1.1,2-1.1c1.3,0,2,0.8,2,2.4L446.4,85.5z"/>
		</g>
		<g>
			<path class="st5" d="M405.2,161.6h-1.9v-5c0-0.5,0-1.1,0.1-1.8h0c-0.1,0.4-0.2,0.7-0.3,1.1l-2,5.7h-1.5l-2-5.6
				c-0.1-0.2-0.1-0.6-0.3-1.2l0,0c0,0.8,0.1,1.6,0.1,2.2v4.6h-1.7v-8.4h2.8l1.7,5c0.1,0.4,0.2,0.8,0.3,1.2l0,0
				c0.1-0.4,0.2-0.8,0.3-1.2l1.7-5h2.7L405.2,161.6z"/>
			<path class="st5" d="M407.8,154.6c-0.3,0-0.6-0.1-0.8-0.3c-0.2-0.2-0.3-0.4-0.3-0.7c0-0.3,0.1-0.5,0.3-0.7
				c0.2-0.2,0.5-0.3,0.8-0.3c0.3,0,0.6,0.1,0.8,0.3c0.2,0.2,0.3,0.4,0.3,0.7c0,0.3-0.1,0.5-0.3,0.7
				C408.3,154.6,408.1,154.7,407.8,154.6z M408.7,161.6h-1.9v-6h1.9V161.6z"/>
			<path class="st5" d="M414.8,161.4c-0.6,0.3-1.2,0.4-1.8,0.4c-0.8,0-1.6-0.3-2.2-0.8c-0.6-0.6-0.9-1.4-0.9-2.2
				c0-0.9,0.3-1.8,0.9-2.4c0.7-0.6,1.5-0.9,2.5-0.9c0.5,0,1.1,0.1,1.5,0.3v1.6c-0.4-0.3-0.8-0.4-1.3-0.4c-0.5,0-0.9,0.1-1.3,0.5
				c-0.3,0.3-0.5,0.8-0.5,1.3c0,0.5,0.1,0.9,0.5,1.3c0.3,0.3,0.8,0.5,1.2,0.4c0.5,0,1-0.2,1.4-0.4L414.8,161.4z"/>
			<path class="st5" d="M420,157.3c-0.2-0.1-0.5-0.2-0.8-0.2c-0.4,0-0.7,0.2-0.9,0.4c-0.2,0.4-0.4,0.8-0.3,1.2v2.9h-1.9v-6h1.9v1.1
				l0,0c0.2-0.7,0.8-1.2,1.6-1.2c0.2,0,0.3,0,0.5,0.1L420,157.3z"/>
			<path class="st5" d="M423.8,161.8c-0.9,0-1.7-0.3-2.4-0.8c-1.2-1.3-1.2-3.3,0-4.6c0.7-0.6,1.5-0.9,2.4-0.8c0.9,0,1.7,0.3,2.3,0.8
				c0.6,0.6,0.9,1.4,0.9,2.2c0,0.9-0.3,1.7-0.9,2.4C425.5,161.5,424.7,161.8,423.8,161.8z M423.8,156.9c-0.4,0-0.8,0.2-1,0.4
				c-0.3,0.4-0.4,0.8-0.4,1.3c0,1.1,0.5,1.7,1.4,1.7s1.3-0.6,1.3-1.8S424.8,156.9,423.8,156.9L423.8,156.9z"/>
			<path class="st5" d="M427.9,161.4v-1.5c0.3,0.2,0.6,0.3,0.9,0.4c0.3,0.1,0.6,0.1,0.9,0.1c0.3,0,0.5,0,0.8-0.1
				c0.2-0.1,0.3-0.2,0.3-0.4c0-0.1,0-0.2-0.1-0.3c-0.1-0.1-0.2-0.2-0.3-0.2c-0.1-0.1-0.3-0.1-0.5-0.2l-0.5-0.2
				c-0.2-0.1-0.4-0.2-0.6-0.3c-0.2-0.1-0.3-0.2-0.5-0.4c-0.1-0.1-0.2-0.3-0.3-0.5c-0.1-0.2-0.1-0.4-0.1-0.6c0-0.3,0.1-0.6,0.2-0.9
				c0.1-0.2,0.3-0.4,0.6-0.6c0.3-0.2,0.5-0.3,0.8-0.3c0.3-0.1,0.7-0.1,1-0.1c0.3,0,0.5,0,0.8,0.1c0.3,0,0.5,0.1,0.8,0.2v1.4
				c-0.2-0.1-0.5-0.2-0.8-0.3c-0.3-0.1-0.5-0.1-0.8-0.1c-0.1,0-0.2,0-0.4,0c-0.1,0-0.2,0-0.3,0.1c-0.1,0-0.1,0.1-0.2,0.2
				c0,0.1-0.1,0.1-0.1,0.2c0,0.1,0,0.2,0.1,0.3c0.1,0.1,0.2,0.2,0.3,0.2c0.1,0.1,0.2,0.1,0.4,0.1l0.4,0.1c0.2,0.1,0.5,0.2,0.7,0.3
				c0.2,0.1,0.4,0.2,0.5,0.4c0.1,0.1,0.3,0.3,0.3,0.5c0.1,0.2,0.1,0.4,0.1,0.7c0,0.3-0.1,0.6-0.2,0.9c-0.2,0.3-0.4,0.5-0.6,0.6
				c-0.3,0.2-0.6,0.3-0.9,0.4c-0.3,0.1-0.7,0.1-1,0.1C429.2,161.7,428.5,161.6,427.9,161.4z"/>
			<path class="st5" d="M436.5,161.8c-0.9,0-1.7-0.3-2.4-0.8c-1.2-1.3-1.2-3.3,0-4.6c0.7-0.6,1.5-0.9,2.4-0.8
				c0.9-0.1,1.7,0.3,2.3,0.8c0.6,0.6,0.9,1.4,0.9,2.2c0,0.9-0.3,1.7-0.9,2.4C438.2,161.5,437.4,161.8,436.5,161.8z M436.5,156.9
				c-0.4,0-0.8,0.2-1,0.4c-0.3,0.4-0.4,0.8-0.4,1.3c0,1.1,0.5,1.7,1.4,1.7s1.3-0.6,1.3-1.8S437.5,156.9,436.5,156.9L436.5,156.9z"/>
			<path class="st5" d="M444.9,154.1c-0.2-0.1-0.4-0.1-0.7-0.1c-0.6,0-0.9,0.3-0.9,1v0.6h1.4v1.4h-1.4v4.6h-1.9V157h-1v-1.4h1v-0.7
				c0-0.6,0.2-1.2,0.7-1.6c0.5-0.4,1.1-0.7,1.8-0.6c0.3,0,0.6,0,0.9,0.1V154.1z"/>
			<path class="st5" d="M449.4,161.5c-0.4,0.2-0.8,0.2-1.2,0.2c-1.3,0-2-0.7-2-2V157h-1v-1.4h1v-1.3l1.8-0.5v1.8h1.4v1.4h-1.4v2.4
				c0,0.6,0.3,0.9,0.8,0.9c0.2,0,0.4-0.1,0.6-0.2V161.5z"/>
			<path class="st5" d="M401.5,175.4c-0.9,0.5-2,0.7-3.1,0.7c-1.2,0.1-2.3-0.3-3.2-1.1c-0.8-0.8-1.2-1.9-1.2-3.1
				c0-1.2,0.4-2.4,1.3-3.2c0.9-0.9,2.1-1.3,3.4-1.3c0.8,0,1.6,0.1,2.4,0.4v1.8c-0.7-0.4-1.6-0.6-2.4-0.6c-0.7,0-1.4,0.3-1.9,0.8
				c-0.5,0.5-0.8,1.3-0.7,2c0,0.7,0.2,1.4,0.7,2c0.5,0.5,1.1,0.7,1.8,0.7c0.4,0,0.7,0,1.1-0.2v-1.6h-1.7v-1.5h3.6V175.4z"/>
			<path class="st5" d="M406.9,171.7c-0.2-0.1-0.5-0.2-0.8-0.2c-0.4,0-0.7,0.1-1,0.4c-0.2,0.4-0.4,0.8-0.3,1.2v2.9H403v-6h1.9v1.1
				l0,0c0.2-0.7,0.8-1.2,1.6-1.2c0.2,0,0.3,0,0.5,0.1L406.9,171.7z"/>
			<path class="st5" d="M412.7,176h-1.8v-0.9l0,0c-0.4,0.6-1,1-1.8,1c-0.5,0-1-0.2-1.4-0.5c-0.3-0.4-0.5-0.8-0.5-1.3
				c0-1.2,0.7-1.8,2.1-2l1.6-0.2c0-0.7-0.4-1-1.1-1c-0.7,0-1.4,0.2-2,0.6v-1.4c0.3-0.2,0.7-0.3,1.1-0.4c0.4-0.1,0.8-0.1,1.2-0.1
				c1.2-0.2,2.4,0.7,2.6,1.9c0,0.2,0,0.4,0,0.6L412.7,176z M410.9,173.6v-0.4l-1.1,0.1c-0.6,0.1-0.9,0.4-0.9,0.8
				c0,0.2,0.1,0.4,0.2,0.5c0.2,0.1,0.4,0.2,0.6,0.2c0.3,0,0.6-0.1,0.9-0.4C410.8,174.2,410.9,173.9,410.9,173.6L410.9,173.6z"/>
			<path class="st5" d="M416,175.3L416,175.3v3.5h-1.9V170h1.9v0.9l0,0c0.7-1.1,2.2-1.4,3.3-0.6c0.2,0.1,0.3,0.2,0.5,0.4
				c0.5,0.6,0.7,1.4,0.6,2.2c0,0.9-0.2,1.7-0.7,2.4c-0.5,0.6-1.2,0.9-2,0.9C417,176.2,416.4,175.8,416,175.3z M415.9,172.8v0.5
				c0,0.4,0.1,0.7,0.3,1c0.2,0.3,0.5,0.4,0.9,0.4c0.4,0,0.8-0.2,1-0.5c0.3-0.4,0.4-0.9,0.3-1.4c0-1.1-0.4-1.6-1.2-1.6
				c-0.4,0-0.7,0.2-0.9,0.4C416.1,172,416,172.4,415.9,172.8L415.9,172.8z"/>
			<path class="st5" d="M427.4,176h-1.9v-3.4c0-0.9-0.3-1.3-1-1.3c-0.3,0-0.6,0.1-0.8,0.4c-0.2,0.3-0.3,0.6-0.3,0.9v3.4h-1.8v-8.9
				h1.9v3.8l0,0c0.4-0.6,1.1-1,1.9-1c1.3,0,2,0.8,2,2.5L427.4,176z"/>
			<path class="st5" d="M439.7,176h-2.1l-0.6-1.9h-3l-0.6,1.9h-2l3.1-8.4h2.2L439.7,176z M436.6,172.7l-0.9-2.8
				c-0.1-0.2-0.1-0.5-0.1-0.8h0c0,0.2-0.1,0.5-0.1,0.7l-0.9,2.9H436.6z"/>
			<path class="st5" d="M442.5,173.1v2.9h-1.9v-8.4h3c2.1,0,3.2,0.9,3.2,2.7c0,0.8-0.3,1.5-0.9,2.1c-0.7,0.5-1.6,0.8-2.4,0.8H442.5z
				 M442.5,169.1v2.6h0.7c1,0,1.5-0.4,1.5-1.3s-0.5-1.3-1.5-1.3L442.5,169.1z"/>
			<path class="st5" d="M449.8,176h-1.9v-8.4h1.9V176z"/>
		</g>
		
			<use xlink:href="#New_Symbol_41"  width="20" height="20" x="-10" y="-10" transform="matrix(1 0 0 1 168.91 15.41)" style="overflow:visible;"/>
		
			<use xlink:href="#New_Symbol_42"  width="20" height="20" x="-10" y="-10" transform="matrix(1 0 0 1 168.91 45.29)" style="overflow:visible;"/>
		<g>
			<path class="st14" d="M192,69.3h-1.1L190,67h-3.6l-0.8,2.4h-1.1l3.2-8.4h1L192,69.3z M189.7,66.1l-1.3-3.6
				c-0.1-0.2-0.1-0.4-0.1-0.6l0,0c0,0.2-0.1,0.4-0.1,0.6l-1.3,3.6H189.7z"/>
			<path class="st14" d="M197.1,69c-0.5,0.3-1.1,0.4-1.6,0.4c-0.8,0-1.5-0.3-2.1-0.8c-0.5-0.6-0.8-1.4-0.8-2.2
				c0-0.9,0.3-1.7,0.9-2.4c0.6-0.6,1.4-0.9,2.3-0.9c0.5,0,1,0.1,1.4,0.3v1c-0.4-0.3-0.9-0.5-1.4-0.5c-0.6,0-1.1,0.2-1.5,0.7
				c-0.4,0.5-0.6,1.1-0.6,1.7c0,0.6,0.2,1.2,0.6,1.7c0.4,0.4,0.9,0.6,1.5,0.6c0.5,0,1.1-0.2,1.5-0.5L197.1,69z"/>
			<path class="st14" d="M203.5,72.1h-1v-3.8l0,0c-0.4,0.8-1.2,1.2-2.1,1.2c-0.7,0-1.4-0.3-1.8-0.8c-0.5-0.6-0.7-1.4-0.7-2.2
				c0-0.9,0.2-1.7,0.8-2.4c0.5-0.6,1.2-0.9,2-0.9c0.7,0,1.4,0.3,1.8,1l0,0v-0.8h1L203.5,72.1z M202.5,66.6v-0.9
				c0-0.5-0.2-0.9-0.5-1.3c-0.3-0.3-0.8-0.5-1.2-0.5c-0.5,0-1,0.2-1.4,0.6c-0.4,0.5-0.5,1.2-0.5,1.8c0,0.6,0.1,1.2,0.5,1.6
				c0.3,0.4,0.8,0.6,1.3,0.6c0.5,0,1-0.2,1.3-0.6C202.4,67.7,202.6,67.2,202.5,66.6L202.5,66.6z"/>
			<path class="st14" d="M210.2,69.3h-1v-0.9l0,0c-0.4,0.7-1.1,1.1-1.9,1.1c-1.4,0-2.1-0.8-2.1-2.6v-3.6h1v3.4
				c0,1.3,0.5,1.9,1.4,1.9c0.4,0,0.9-0.2,1.2-0.5c0.3-0.4,0.5-0.9,0.4-1.4v-3.5h1L210.2,69.3z"/>
			<path class="st14" d="M212.6,61.8c-0.3,0-0.6-0.3-0.6-0.6c0-0.2,0.1-0.3,0.2-0.5c0.1-0.1,0.3-0.2,0.4-0.2c0.2,0,0.3,0.1,0.4,0.2
				c0.1,0.1,0.2,0.3,0.2,0.5c0,0.2-0.1,0.3-0.2,0.4C212.9,61.7,212.7,61.8,212.6,61.8z M213,69.3h-1v-6h1V69.3z"/>
			<path class="st14" d="M218,64.3c-0.2-0.1-0.5-0.2-0.7-0.2c-0.4,0-0.8,0.2-1,0.6c-0.3,0.5-0.5,1-0.4,1.6v3.1h-1v-6h1v1.2l0,0
				c0.1-0.4,0.3-0.7,0.6-1c0.3-0.2,0.6-0.4,1-0.4c0.2,0,0.4,0,0.6,0.1L218,64.3z"/>
			<path class="st14" d="M223.9,66.6h-4.2c0,0.6,0.2,1.1,0.5,1.5c0.4,0.4,0.9,0.6,1.4,0.6c0.7,0,1.3-0.2,1.9-0.7v0.9
				c-0.6,0.4-1.3,0.6-2.1,0.6c-0.8,0-1.5-0.3-2-0.8c-0.5-0.7-0.8-1.5-0.7-2.3c0-0.8,0.2-1.6,0.8-2.3c0.5-0.6,1.2-0.9,2-0.9
				c0.7,0,1.4,0.2,1.8,0.8c0.5,0.6,0.7,1.4,0.6,2.1L223.9,66.6z M222.9,65.7c0-0.5-0.1-0.9-0.4-1.3c-0.3-0.3-0.7-0.5-1.1-0.5
				c-0.4,0-0.9,0.2-1.2,0.5c-0.3,0.3-0.5,0.8-0.6,1.3L222.9,65.7z"/>
			<path class="st14" d="M231.4,69.3c-0.3,0.1-0.6,0.2-0.9,0.2c-1,0-1.6-0.6-1.6-1.8v-3.6h-1v-0.8h1v-1.5l1-0.3v1.8h1.5v0.8h-1.5
				v3.4c0,0.3,0,0.6,0.2,0.9c0.2,0.2,0.4,0.3,0.7,0.3c0.2,0,0.4-0.1,0.6-0.2L231.4,69.3z"/>
			<path class="st14" d="M235,69.5c-0.8,0-1.6-0.3-2.1-0.8c-0.5-0.6-0.8-1.4-0.8-2.2c-0.1-0.9,0.2-1.7,0.8-2.4
				c0.6-0.6,1.4-0.9,2.2-0.8c0.8,0,1.6,0.3,2.1,0.8c0.5,0.6,0.8,1.5,0.8,2.3c0,0.8-0.2,1.7-0.8,2.3C236.6,69.2,235.8,69.5,235,69.5z
				 M235.1,64c-0.6,0-1.1,0.2-1.5,0.6c-0.4,0.5-0.6,1.1-0.5,1.7c0,0.6,0.2,1.2,0.5,1.7c0.4,0.4,0.9,0.6,1.5,0.6
				c0.5,0,1.1-0.2,1.4-0.6c0.4-0.5,0.5-1.1,0.5-1.7c0-0.6-0.1-1.2-0.5-1.7C236.2,64.2,235.6,64,235.1,64z"/>
			<path class="st14" d="M244.5,69.3h-1.4l-2.6-2.9l0,0v2.9h-1v-8.9h1v5.6l0,0l2.5-2.7h1.3l-2.8,2.9L244.5,69.3z"/>
			<path class="st14" d="M250,66.6h-4.2c0,0.6,0.2,1.1,0.5,1.5c0.4,0.4,0.9,0.6,1.4,0.6c0.7,0,1.3-0.2,1.9-0.7v0.9
				c-0.6,0.4-1.3,0.6-2.1,0.6c-0.8,0-1.5-0.3-2-0.8c-0.5-0.7-0.8-1.5-0.7-2.3c0-0.8,0.2-1.6,0.8-2.3c0.5-0.6,1.2-0.9,2-0.9
				c0.7,0,1.4,0.2,1.8,0.8c0.5,0.6,0.7,1.4,0.6,2.1L250,66.6z M249,65.7c0-0.5-0.1-0.9-0.4-1.3c-0.3-0.3-0.7-0.5-1.1-0.5
				c-0.4,0-0.9,0.2-1.2,0.5c-0.3,0.3-0.5,0.8-0.6,1.3L249,65.7z"/>
			<path class="st14" d="M256.4,69.3h-1v-3.4c0-1.3-0.5-1.9-1.4-1.9c-0.5,0-0.9,0.2-1.2,0.5c-0.3,0.4-0.5,0.9-0.5,1.4v3.4h-1v-6h1v1
				l0,0c0.4-0.7,1.2-1.2,2-1.1c0.6,0,1.1,0.2,1.5,0.6c0.4,0.5,0.6,1.2,0.5,1.8L256.4,69.3z"/>
		</g>
		<g>
			<path class="st14" d="M212.6,98.2h-1.1l-0.9-2.4h-3.6l-0.8,2.4h-1.1l3.2-8.4h1L212.6,98.2z M210.3,95l-1.3-3.6
				c-0.1-0.2-0.1-0.4-0.1-0.6l0,0c0,0.2-0.1,0.4-0.1,0.6l-1.4,3.6H210.3z"/>
			<path class="st14" d="M217.7,97.9c-0.5,0.3-1.1,0.4-1.6,0.4c-0.8,0-1.5-0.3-2.1-0.8c-0.5-0.6-0.8-1.4-0.8-2.2
				c0-0.9,0.3-1.7,0.8-2.3c0.6-0.6,1.4-0.9,2.3-0.9c0.5,0,1,0.1,1.4,0.3v1c-0.4-0.3-0.9-0.5-1.4-0.5c-0.6,0-1.1,0.2-1.5,0.7
				c-0.4,0.5-0.6,1.1-0.6,1.7c0,0.6,0.2,1.2,0.6,1.7c0.4,0.4,0.9,0.6,1.5,0.6c0.5,0,1.1-0.2,1.5-0.5L217.7,97.9z"/>
			<path class="st14" d="M223.1,97.9c-0.5,0.3-1.1,0.4-1.6,0.4c-0.8,0-1.5-0.3-2.1-0.8c-0.5-0.6-0.8-1.4-0.8-2.2
				c0-0.9,0.3-1.7,0.9-2.4c0.6-0.6,1.4-0.9,2.3-0.9c0.5,0,1,0.1,1.4,0.3v1c-0.4-0.3-0.9-0.5-1.4-0.5c-0.6,0-1.1,0.2-1.5,0.7
				c-0.4,0.5-0.6,1.1-0.6,1.7c0,0.6,0.2,1.2,0.6,1.7c0.4,0.4,0.9,0.6,1.5,0.6c0.5,0,1.1-0.2,1.5-0.5L223.1,97.9z"/>
			<path class="st14" d="M229.2,95.4H225c0,0.6,0.2,1.1,0.5,1.5c0.4,0.4,0.9,0.6,1.4,0.6c0.7,0,1.3-0.2,1.9-0.7v0.9
				c-0.6,0.4-1.3,0.6-2.1,0.6c-0.8,0-1.5-0.3-2-0.8c-1-1.4-0.9-3.2,0.1-4.5c0.5-0.6,1.2-0.9,2-0.9c0.7,0,1.4,0.2,1.8,0.8
				c0.5,0.6,0.7,1.4,0.6,2.1L229.2,95.4z M228.2,94.6c0-0.5-0.1-0.9-0.4-1.3c-0.3-0.3-0.7-0.5-1.1-0.5c-0.4,0-0.9,0.2-1.1,0.5
				c-0.3,0.3-0.5,0.8-0.6,1.3H228.2z"/>
			<path class="st14" d="M230.3,98v-1c0.5,0.4,1.1,0.6,1.7,0.6c0.8,0,1.3-0.3,1.3-0.8c0-0.1,0-0.3-0.1-0.4c-0.1-0.1-0.2-0.2-0.3-0.3
				c-0.1-0.1-0.3-0.2-0.4-0.2l-0.5-0.2c-0.3-0.1-0.5-0.2-0.7-0.3c-0.2-0.1-0.4-0.2-0.5-0.4c-0.1-0.1-0.2-0.3-0.3-0.5
				c-0.1-0.2-0.1-0.4-0.1-0.6c0-0.3,0.1-0.5,0.2-0.8c0.1-0.2,0.3-0.4,0.5-0.5c0.2-0.2,0.5-0.3,0.7-0.3c0.3-0.1,0.6-0.1,0.9-0.1
				c0.5,0,1,0.1,1.4,0.3v1c-0.5-0.3-1-0.4-1.5-0.4c-0.2,0-0.3,0-0.5,0.1c-0.1,0-0.3,0.1-0.4,0.2c-0.1,0.1-0.2,0.2-0.2,0.3
				c-0.1,0.1-0.1,0.2-0.1,0.3c0,0.1,0,0.3,0.1,0.4c0.1,0.1,0.1,0.2,0.3,0.3c0.1,0.1,0.3,0.2,0.4,0.2l0.5,0.2
				c0.2,0.1,0.5,0.2,0.7,0.3c0.2,0.1,0.4,0.2,0.5,0.4c0.1,0.1,0.3,0.3,0.4,0.5c0.1,0.2,0.1,0.4,0.1,0.6c0,0.3-0.1,0.5-0.2,0.8
				c-0.1,0.2-0.3,0.4-0.5,0.5c-0.2,0.1-0.5,0.3-0.8,0.3c-0.3,0.1-0.6,0.1-0.9,0.1C231.4,98.4,230.8,98.3,230.3,98z"/>
			<path class="st14" d="M235.4,98v-1c0.5,0.4,1.1,0.6,1.7,0.6c0.8,0,1.3-0.3,1.3-0.8c0-0.1,0-0.3-0.1-0.4c-0.1-0.1-0.2-0.2-0.3-0.3
				c-0.1-0.1-0.3-0.2-0.4-0.2l-0.5-0.2c-0.3-0.1-0.5-0.2-0.7-0.3c-0.2-0.1-0.4-0.2-0.5-0.4c-0.1-0.1-0.2-0.3-0.3-0.5
				c-0.1-0.2-0.1-0.4-0.1-0.6c0-0.3,0.1-0.5,0.2-0.8c0.1-0.2,0.3-0.4,0.5-0.5c0.2-0.2,0.5-0.3,0.7-0.3c0.3-0.1,0.6-0.1,0.9-0.1
				c0.5,0,1,0.1,1.4,0.3v1c-0.5-0.3-1-0.4-1.5-0.4c-0.2,0-0.3,0-0.5,0.1c-0.1,0-0.3,0.1-0.4,0.2c-0.1,0.1-0.2,0.2-0.2,0.3
				c-0.1,0.1-0.1,0.2-0.1,0.3c0,0.1,0,0.3,0.1,0.4c0.1,0.1,0.1,0.2,0.3,0.3c0.1,0.1,0.3,0.2,0.4,0.2l0.5,0.2
				c0.2,0.1,0.5,0.2,0.7,0.3c0.2,0.1,0.4,0.2,0.5,0.4c0.3,0.3,0.5,0.7,0.5,1.1c0,0.3-0.1,0.5-0.2,0.8c-0.1,0.2-0.3,0.4-0.5,0.5
				c-0.2,0.1-0.5,0.3-0.8,0.3c-0.3,0.1-0.6,0.1-0.9,0.1C236.4,98.4,235.9,98.3,235.4,98z"/>
			<path class="st14" d="M246.9,98.2c-0.3,0.1-0.6,0.2-0.9,0.2c-1.1,0-1.6-0.6-1.6-1.8V93h-1v-0.8h1v-1.4l1-0.3v1.8h1.5V93h-1.5v3.4
				c0,0.3,0,0.6,0.2,0.9c0.2,0.2,0.4,0.3,0.7,0.3c0.2,0,0.4-0.1,0.6-0.2L246.9,98.2z"/>
			<path class="st14" d="M250.6,98.3c-0.8,0-1.6-0.3-2.1-0.8c-0.5-0.6-0.8-1.4-0.8-2.2c-0.1-0.9,0.2-1.7,0.8-2.4
				c0.6-0.6,1.4-0.9,2.2-0.8c0.8,0,1.5,0.3,2.1,0.8c0.5,0.6,0.8,1.5,0.8,2.3c0,0.8-0.2,1.7-0.8,2.3
				C252.2,98.1,251.4,98.4,250.6,98.3z M250.7,92.9c-0.6,0-1.1,0.2-1.5,0.6c-0.4,0.5-0.6,1.1-0.5,1.7c0,0.6,0.2,1.2,0.6,1.7
				c0.4,0.4,0.9,0.6,1.5,0.6c0.5,0,1.1-0.2,1.4-0.6c0.4-0.5,0.5-1.1,0.5-1.7c0-0.6-0.1-1.2-0.5-1.7
				C251.7,93.1,251.2,92.8,250.7,92.9z"/>
			<path class="st14" d="M260,98.2h-1.3l-2.7-2.9l0,0v2.9h-1v-8.9h1V95l0,0l2.5-2.8h1.3l-2.8,2.8L260,98.2z"/>
			<path class="st14" d="M265.5,95.4h-4.2c0,0.6,0.2,1.1,0.5,1.5c0.4,0.4,0.9,0.6,1.4,0.6c0.7,0,1.3-0.2,1.9-0.7v0.9
				c-0.6,0.4-1.4,0.6-2.1,0.6c-0.8,0-1.5-0.3-2-0.8c-1-1.4-1-3.2,0.1-4.6c0.5-0.6,1.2-0.9,2-0.9c0.7,0,1.4,0.2,1.8,0.8
				c0.5,0.6,0.7,1.4,0.6,2.1L265.5,95.4z M264.5,94.6c0-0.5-0.1-0.9-0.4-1.3c-0.3-0.3-0.7-0.5-1.1-0.5c-0.4,0-0.9,0.2-1.2,0.5
				c-0.3,0.4-0.5,0.8-0.6,1.3H264.5z"/>
			<path class="st14" d="M272,98.2h-1v-3.4c0-1.3-0.5-1.9-1.4-1.9c-0.5,0-0.9,0.2-1.2,0.5c-0.3,0.4-0.5,0.9-0.5,1.4v3.4h-1v-6h1v1
				l0,0c0.4-0.7,1.2-1.2,2-1.1c0.6,0,1.1,0.2,1.5,0.6c0.4,0.5,0.6,1.2,0.5,1.8L272,98.2z"/>
		</g>
		<g>
			<polygon class="st8" points="192.6,133.8 185,139.2 187.9,148 197.2,148 200.1,139.2 			"/>
			<g>
				<g>
					<path class="st14" d="M213,147.2h-1.1l-0.9-2.4h-3.6l-0.8,2.4h-1.1l3.2-8.4h1L213,147.2z M210.7,144l-1.3-3.6
						c-0.1-0.2-0.1-0.4-0.1-0.6l0,0c0,0.2-0.1,0.4-0.1,0.6l-1.4,3.6L210.7,144z"/>
					<path class="st14" d="M218,147c-0.5,0.3-1.1,0.4-1.6,0.4c-0.8,0-1.5-0.3-2.1-0.8c-0.5-0.6-0.8-1.4-0.8-2.2
						c0-0.9,0.3-1.7,0.9-2.4c0.6-0.6,1.4-0.9,2.3-0.9c0.5,0,1,0.1,1.4,0.3v1c-0.4-0.3-0.9-0.5-1.4-0.5c-0.6,0-1.1,0.2-1.5,0.7
						c-0.4,0.5-0.6,1.1-0.6,1.7c0,0.6,0.2,1.2,0.6,1.7c0.4,0.4,0.9,0.6,1.5,0.6c0.5,0,1.1-0.2,1.5-0.6V147z"/>
					<path class="st14" d="M223.4,147c-0.5,0.3-1.1,0.4-1.6,0.4c-0.8,0-1.5-0.3-2.1-0.8c-0.5-0.6-0.8-1.4-0.8-2.2
						c0-0.9,0.3-1.7,0.9-2.4c0.6-0.6,1.4-0.9,2.3-0.9c0.5,0,1,0.1,1.4,0.3v1c-0.4-0.3-0.9-0.5-1.4-0.5c-0.6,0-1.1,0.2-1.5,0.7
						c-0.4,0.5-0.6,1.1-0.6,1.7c0,0.6,0.2,1.2,0.6,1.7c0.4,0.4,0.9,0.6,1.5,0.6c0.5,0,1.1-0.2,1.5-0.5L223.4,147z"/>
					<path class="st14" d="M229.6,144.5h-4.2c0,0.6,0.2,1.1,0.5,1.6c0.4,0.4,0.9,0.6,1.4,0.5c0.7,0,1.3-0.2,1.9-0.7v0.9
						c-0.6,0.4-1.4,0.6-2.1,0.6c-0.8,0-1.5-0.3-2-0.8c-0.5-0.7-0.8-1.5-0.7-2.3c0-0.8,0.2-1.6,0.8-2.3c0.5-0.6,1.2-0.9,2-0.9
						c0.7,0,1.4,0.2,1.8,0.8c0.5,0.6,0.7,1.4,0.6,2.1L229.6,144.5z M228.6,143.7c0-0.5-0.1-0.9-0.4-1.3c-0.3-0.3-0.7-0.5-1.1-0.5
						c-0.4,0-0.8,0.2-1.1,0.5c-0.3,0.4-0.5,0.8-0.6,1.3L228.6,143.7z"/>
					<path class="st14" d="M230.6,147v-1c0.5,0.4,1.1,0.6,1.7,0.6c0.8,0,1.3-0.3,1.3-0.8c0-0.1,0-0.3-0.1-0.4
						c-0.1-0.1-0.2-0.2-0.3-0.3c-0.1-0.1-0.3-0.2-0.4-0.2l-0.5-0.2c-0.2-0.1-0.5-0.2-0.7-0.3c-0.2-0.1-0.4-0.2-0.5-0.4
						c-0.1-0.1-0.2-0.3-0.3-0.5c-0.1-0.2-0.1-0.4-0.1-0.6c0-0.3,0.1-0.5,0.2-0.7c0.1-0.2,0.3-0.4,0.5-0.6c0.2-0.1,0.5-0.3,0.7-0.3
						c0.3-0.1,0.6-0.1,0.9-0.1c0.5,0,1,0.1,1.4,0.3v1c-0.5-0.3-1-0.4-1.5-0.4c-0.2,0-0.3,0-0.5,0.1c-0.1,0-0.3,0.1-0.4,0.2
						c-0.1,0.1-0.2,0.2-0.2,0.3c-0.1,0.1-0.1,0.2-0.1,0.3c0,0.1,0,0.3,0.1,0.4c0.1,0.1,0.1,0.2,0.3,0.3c0.1,0.1,0.3,0.2,0.4,0.2
						l0.5,0.2c0.2,0.1,0.5,0.2,0.7,0.3c0.2,0.1,0.4,0.2,0.5,0.4c0.1,0.1,0.3,0.3,0.3,0.5c0.1,0.2,0.1,0.4,0.1,0.6
						c0,0.3-0.1,0.5-0.2,0.8c-0.1,0.2-0.3,0.4-0.5,0.5c-0.2,0.2-0.5,0.3-0.8,0.3c-0.3,0.1-0.6,0.1-0.9,0.1
						C231.7,147.4,231.1,147.3,230.6,147z"/>
					<path class="st14" d="M235.7,147v-1c0.5,0.4,1.1,0.6,1.7,0.6c0.9,0,1.3-0.3,1.3-0.8c0-0.1,0-0.3-0.1-0.4
						c-0.1-0.1-0.2-0.2-0.3-0.3c-0.1-0.1-0.3-0.2-0.4-0.2l-0.5-0.2c-0.2-0.1-0.5-0.2-0.7-0.3c-0.2-0.1-0.4-0.2-0.5-0.4
						c-0.1-0.1-0.2-0.3-0.3-0.5c-0.1-0.2-0.1-0.4-0.1-0.6c0-0.3,0.1-0.5,0.2-0.7c0.1-0.2,0.3-0.4,0.5-0.6c0.2-0.1,0.5-0.3,0.7-0.3
						c0.7-0.2,1.5-0.1,2.3,0.2v1c-0.5-0.3-1-0.4-1.5-0.4c-0.2,0-0.3,0-0.5,0.1c-0.1,0-0.3,0.1-0.4,0.2c-0.1,0.1-0.2,0.2-0.2,0.3
						c-0.1,0.1-0.1,0.2-0.1,0.3c0,0.1,0,0.3,0.1,0.4c0.1,0.1,0.1,0.2,0.2,0.3c0.1,0.1,0.3,0.2,0.4,0.2l0.5,0.2
						c0.2,0.1,0.5,0.2,0.7,0.3c0.2,0.1,0.4,0.2,0.5,0.4c0.1,0.1,0.3,0.3,0.3,0.5c0.1,0.2,0.1,0.4,0.1,0.6c0,0.3-0.1,0.5-0.2,0.8
						c-0.1,0.2-0.3,0.4-0.5,0.5c-0.2,0.2-0.5,0.3-0.8,0.3c-0.3,0.1-0.6,0.1-0.9,0.1C236.8,147.4,236.2,147.3,235.7,147z"/>
					<path class="st14" d="M247.3,147.2c-0.3,0.1-0.6,0.2-0.9,0.2c-1.1,0-1.6-0.6-1.6-1.8V142h-1v-0.8h1v-1.5l1-0.3v1.8h1.5v0.8
						h-1.5v3.4c0,0.3,0,0.6,0.2,0.9c0.2,0.2,0.4,0.3,0.7,0.3c0.2,0,0.4-0.1,0.6-0.2L247.3,147.2z"/>
					<path class="st14" d="M250.9,147.4c-0.8,0-1.6-0.3-2.1-0.8c-0.5-0.6-0.8-1.4-0.8-2.2c0-0.9,0.2-1.7,0.8-2.4
						c0.6-0.6,1.4-0.9,2.2-0.9c0.8,0,1.5,0.3,2.1,0.8c0.5,0.6,0.8,1.5,0.8,2.3c0,0.8-0.3,1.7-0.8,2.3
						C252.5,147.1,251.7,147.4,250.9,147.4z M251,141.9c-0.6,0-1.1,0.2-1.5,0.6c-0.4,0.5-0.6,1.1-0.5,1.7c0,0.6,0.2,1.2,0.6,1.7
						c0.4,0.4,0.9,0.6,1.5,0.6c0.5,0,1.1-0.2,1.4-0.6c0.7-1.1,0.7-2.4,0-3.4C252.1,142.1,251.5,141.9,251,141.9z"/>
					<path class="st14" d="M260.4,147.2H259l-2.6-2.9l0,0v2.9h-1v-8.9h1v5.7l0,0l2.5-2.8h1.3l-2.8,2.9L260.4,147.2z"/>
					<path class="st14" d="M265.9,144.5h-4.2c0,0.6,0.2,1.1,0.5,1.6c0.4,0.4,0.9,0.6,1.4,0.5c0.7,0,1.3-0.2,1.9-0.7v0.9
						c-0.6,0.4-1.4,0.6-2.1,0.6c-0.8,0-1.5-0.3-2-0.8c-0.5-0.6-0.8-1.5-0.7-2.3c0-0.8,0.3-1.6,0.8-2.3c0.5-0.6,1.2-0.9,2-0.9
						c0.7,0,1.4,0.2,1.8,0.8c0.5,0.6,0.7,1.4,0.6,2.1L265.9,144.5z M264.9,143.7c0-0.5-0.1-0.9-0.4-1.3c-0.3-0.3-0.7-0.5-1.1-0.5
						c-0.4,0-0.9,0.2-1.1,0.5c-0.3,0.3-0.5,0.8-0.6,1.3L264.9,143.7z"/>
					<path class="st14" d="M272.3,147.2h-1v-3.4c0-1.3-0.5-1.9-1.4-1.9c-0.5,0-0.9,0.2-1.2,0.5c-0.3,0.4-0.5,0.9-0.5,1.4v3.4h-1v-6
						h1v1l0,0c0.4-0.7,1.2-1.2,2-1.1c0.6,0,1.1,0.2,1.5,0.6c0.4,0.5,0.6,1.2,0.5,1.8L272.3,147.2z"/>
				</g>
				<g>
					<path class="st14" d="M212.8,133h-1v-3.8h-4.4v3.8h-1v-8.4h1v3.7h4.4v-3.7h1V133z"/>
					<path class="st14" d="M219.8,125.5h-2.4v7.5h-1v-7.5H214v-0.9h5.8L219.8,125.5z"/>
					<path class="st14" d="M226.4,125.5H224v7.5h-1v-7.5h-2.4v-0.9h5.8V125.5z"/>
					<path class="st14" d="M228.6,129.8v3.2h-1v-8.4h2.3c0.8-0.1,1.5,0.2,2.1,0.7c0.5,0.5,0.8,1.2,0.7,1.8c0,0.8-0.3,1.5-0.8,2
						c-0.6,0.5-1.4,0.8-2.2,0.8L228.6,129.8z M228.6,125.5v3.5h1c0.6,0,1.1-0.1,1.6-0.5c0.4-0.3,0.6-0.8,0.5-1.3
						c0-1.1-0.7-1.7-2-1.7L228.6,125.5z"/>
					<path class="st14" d="M243.9,132.4c-0.9,0.5-1.8,0.7-2.8,0.7c-1.1,0-2.1-0.4-2.9-1.2c-0.8-0.8-1.2-1.9-1.1-3.1
						c0-1.2,0.4-2.3,1.2-3.2c0.8-0.8,2-1.3,3.1-1.3c0.8,0,1.6,0.1,2.3,0.4v1.1c-0.7-0.4-1.6-0.7-2.4-0.7c-0.9,0-1.7,0.3-2.3,1
						c-1.2,1.5-1.2,3.5-0.1,5c0.6,0.6,1.4,1,2.3,0.9c0.6,0,1.2-0.1,1.7-0.4v-2.4h-1.8v-0.9h2.8L243.9,132.4z"/>
					<path class="st14" d="M250.2,133h-4.4v-8.4h4.3v0.9h-3.3v2.8h3v0.9h-3v2.9h3.5V133z"/>
					<path class="st14" d="M256.9,125.5h-2.4v7.5h-1v-7.5h-2.4v-0.9h5.8L256.9,125.5z"/>
					<path class="st14" d="M267.3,129.9h-2.4v2.4h-0.8v-2.4h-2.4v-0.8h2.4v-2.4h0.8v2.4h2.4V129.9z"/>
				</g>
			</g>
		</g>
		
			<use xlink:href="#New_Symbol_45"  width="20" height="20" x="-10" y="-10" transform="matrix(1 0 0 1 168.91 155.21)" style="overflow:visible;"/>
		
			<use xlink:href="#New_Symbol_44"  width="20" height="20" x="-10" y="-10" transform="matrix(1 0 0 1 168.91 105.67)" style="overflow:visible;"/>
		
			<use xlink:href="#New_Symbol_43"  width="20" height="20" x="-10" y="-10" transform="matrix(1 0 0 1 168.91 74.93)" style="overflow:visible;"/>
		<g>
			<path class="st14" d="M191.8,190.2h-1v-3.8h-4.4v3.8h-1v-8.4h1v3.7h4.4v-3.7h1V190.2z"/>
			<path class="st14" d="M198.8,182.7h-2.4v7.5h-1v-7.5H193v-0.9h5.8L198.8,182.7z"/>
			<path class="st14" d="M205.4,182.7H203v7.5h-1v-7.5h-2.4v-0.9h5.8L205.4,182.7z"/>
			<path class="st14" d="M207.6,187v3.2h-1v-8.4h2.4c0.8-0.1,1.5,0.2,2.1,0.7c0.5,0.5,0.8,1.2,0.7,1.9c0,0.8-0.3,1.5-0.8,2
				c-0.6,0.5-1.4,0.8-2.2,0.8L207.6,187z M207.6,182.7v3.4h1c0.6,0,1.1-0.1,1.6-0.5c0.4-0.3,0.6-0.8,0.5-1.3c0-1.1-0.7-1.7-2-1.7
				H207.6z"/>
			<path class="st14" d="M219.6,185.2c-0.2-0.1-0.5-0.2-0.7-0.2c-0.4,0-0.8,0.2-1,0.6c-0.3,0.5-0.4,1-0.4,1.6v3.1h-1v-6h1v1.2l0,0
				c0.1-0.4,0.3-0.7,0.6-1c0.3-0.2,0.6-0.4,0.9-0.4c0.2,0,0.4,0,0.6,0.1L219.6,185.2z"/>
			<path class="st14" d="M225.5,187.4h-4.2c0,0.6,0.2,1.1,0.5,1.5c0.4,0.4,0.9,0.6,1.4,0.6c0.7,0,1.3-0.2,1.9-0.7v0.9
				c-0.6,0.4-1.3,0.6-2.1,0.6c-0.8,0-1.5-0.3-2-0.8c-0.5-0.6-0.8-1.5-0.7-2.3c0-0.8,0.3-1.6,0.8-2.3c0.5-0.6,1.2-0.9,2-0.9
				c0.7,0,1.4,0.2,1.8,0.8c0.5,0.6,0.7,1.4,0.6,2.1L225.5,187.4z M224.5,186.6c0-0.5-0.1-0.9-0.4-1.3c-0.3-0.3-0.7-0.5-1.1-0.5
				c-0.4,0-0.9,0.2-1.1,0.5c-0.3,0.3-0.5,0.8-0.6,1.3L224.5,186.6z"/>
			<path class="st14" d="M226.6,190v-1c0.5,0.4,1.1,0.6,1.7,0.6c0.8,0,1.3-0.3,1.3-0.8c0-0.1,0-0.3-0.1-0.4
				c-0.1-0.1-0.2-0.2-0.3-0.3c-0.1-0.1-0.3-0.2-0.4-0.2l-0.5-0.2l-0.7-0.3c-0.2-0.1-0.4-0.2-0.5-0.4c-0.1-0.1-0.2-0.3-0.3-0.5
				c-0.1-0.2-0.1-0.4-0.1-0.6c0-0.3,0.1-0.5,0.2-0.8c0.1-0.2,0.3-0.4,0.5-0.5c0.2-0.2,0.5-0.3,0.7-0.3c0.3-0.1,0.6-0.1,0.9-0.1
				c0.5,0,1,0.1,1.4,0.3v1c-0.5-0.3-1-0.4-1.5-0.4c-0.2,0-0.3,0-0.5,0.1c-0.1,0-0.3,0.1-0.4,0.2c-0.1,0.1-0.2,0.2-0.2,0.3
				c-0.1,0.1-0.1,0.2-0.1,0.3c0,0.1,0,0.3,0.1,0.4c0.1,0.1,0.1,0.2,0.3,0.3c0.1,0.1,0.3,0.2,0.4,0.2l0.5,0.2
				c0.2,0.1,0.5,0.2,0.7,0.3c0.2,0.1,0.4,0.2,0.5,0.4c0.3,0.3,0.5,0.7,0.5,1.1c0,0.3-0.1,0.5-0.2,0.8c-0.1,0.2-0.3,0.4-0.5,0.6
				c-0.2,0.1-0.5,0.3-0.8,0.3c-0.3,0.1-0.6,0.1-0.9,0.1C227.6,190.4,227.1,190.3,226.6,190z"/>
			<path class="st14" d="M232.9,189.3L232.9,189.3v3.7h-1v-8.8h1v1l0,0c0.4-0.8,1.2-1.2,2.1-1.2c0.7,0,1.4,0.3,1.8,0.8
				c0.5,0.6,0.7,1.4,0.6,2.2c0,0.9-0.2,1.7-0.7,2.4c-0.5,0.6-1.2,0.9-2,0.9C234,190.4,233.3,190,232.9,189.3z M232.9,186.9v0.8
				c0,0.5,0.2,0.9,0.5,1.3c0.3,0.3,0.8,0.5,1.2,0.5c0.5,0,1.1-0.2,1.4-0.7c0.4-0.5,0.5-1.2,0.5-1.9c0-0.6-0.1-1.1-0.5-1.6
				c-0.3-0.4-0.8-0.6-1.3-0.6c-0.5,0-1,0.2-1.4,0.6C233.1,185.9,232.9,186.4,232.9,186.9L232.9,186.9z"/>
			<path class="st14" d="M241.5,190.4c-0.8,0-1.6-0.3-2.1-0.8c-0.5-0.6-0.8-1.4-0.8-2.2c-0.1-0.9,0.2-1.7,0.8-2.4
				c0.6-0.6,1.4-0.9,2.2-0.9c0.8,0,1.5,0.3,2.1,0.8c0.5,0.6,0.8,1.5,0.8,2.3c0,0.8-0.2,1.7-0.8,2.3
				C243.1,190.1,242.3,190.4,241.5,190.4z M241.6,184.9c-0.6,0-1.1,0.2-1.5,0.6c-0.4,0.5-0.6,1.1-0.5,1.7c0,0.6,0.2,1.2,0.5,1.7
				c0.4,0.4,0.9,0.6,1.5,0.6c0.5,0,1.1-0.2,1.4-0.6c0.4-0.5,0.5-1.1,0.5-1.7c0-0.6-0.1-1.2-0.5-1.7
				C242.7,185.1,242.1,184.8,241.6,184.9L241.6,184.9z"/>
			<path class="st14" d="M251,190.2h-1v-3.4c0-1.3-0.5-1.9-1.4-1.9c-0.5,0-0.9,0.2-1.2,0.6c-0.3,0.4-0.5,0.9-0.5,1.4v3.4h-1v-6h1v1
				l0,0c0.4-0.7,1.2-1.2,2-1.1c0.6,0,1.1,0.2,1.5,0.6c0.4,0.5,0.6,1.2,0.5,1.8L251,190.2z"/>
			<path class="st14" d="M252.4,190v-1c0.5,0.4,1.1,0.6,1.7,0.6c0.8,0,1.3-0.3,1.3-0.8c0-0.1,0-0.3-0.1-0.4
				c-0.1-0.1-0.2-0.2-0.3-0.3c-0.1-0.1-0.3-0.2-0.4-0.2l-0.5-0.2l-0.7-0.3c-0.2-0.1-0.4-0.2-0.5-0.4c-0.1-0.1-0.2-0.3-0.3-0.5
				c-0.1-0.2-0.1-0.4-0.1-0.6c0-0.3,0.1-0.5,0.2-0.8c0.1-0.2,0.3-0.4,0.5-0.5c0.2-0.2,0.5-0.3,0.7-0.3c0.3-0.1,0.6-0.1,0.9-0.1
				c0.5,0,1,0.1,1.4,0.3v1c-0.5-0.3-1-0.4-1.5-0.4c-0.2,0-0.3,0-0.5,0.1c-0.1,0-0.3,0.1-0.4,0.2c-0.1,0.1-0.2,0.2-0.2,0.3
				c-0.1,0.1-0.1,0.2-0.1,0.3c0,0.1,0,0.3,0.1,0.4c0.1,0.1,0.1,0.2,0.3,0.3c0.1,0.1,0.3,0.2,0.4,0.2l0.5,0.2
				c0.2,0.1,0.5,0.2,0.7,0.3c0.2,0.1,0.4,0.2,0.5,0.4c0.1,0.1,0.3,0.3,0.3,0.5c0.1,0.2,0.1,0.4,0.1,0.6c0,0.3-0.1,0.5-0.2,0.8
				c-0.1,0.2-0.3,0.4-0.5,0.6c-0.2,0.1-0.5,0.3-0.8,0.3c-0.3,0.1-0.6,0.1-0.9,0.1C253.4,190.4,252.9,190.3,252.4,190z"/>
			<path class="st14" d="M262.6,187.4h-4.2c0,0.6,0.2,1.1,0.5,1.5c0.4,0.4,0.9,0.6,1.4,0.6c0.7,0,1.3-0.2,1.9-0.7v0.9
				c-0.6,0.4-1.3,0.6-2.1,0.6c-0.8,0-1.5-0.3-2-0.8c-1-1.4-1-3.2,0.1-4.6c0.5-0.6,1.2-0.9,2-0.9c0.7,0,1.4,0.2,1.8,0.8
				c0.5,0.6,0.7,1.4,0.6,2.1L262.6,187.4z M261.6,186.6c0-0.5-0.1-0.9-0.4-1.3c-0.3-0.3-0.7-0.5-1.1-0.5c-0.4,0-0.9,0.2-1.2,0.5
				c-0.3,0.4-0.5,0.8-0.6,1.3L261.6,186.6z"/>
		</g>
	</g>
</g>
<g id="bg">
	<g id="Shapes_1_">
		<rect class="st1" width="474.7" height="206.7"/>
		<rect y="10.4" class="st4" width="105" height="155"/>
		<rect x="369.7" y="10.4" class="st5" width="105" height="115"/>
		<rect x="369.7" y="130.4" class="st6" width="105" height="70"/>
		<g>
			<line class="st7" x1="105" y1="15.4" x2="364.2" y2="15.4"/>
			<polygon points="363.1,19.1 369.5,15.4 363.1,11.7 			"/>
		</g>
		<g>
			<line class="st7" x1="110.4" y1="45.3" x2="369.5" y2="45.3"/>
			<polygon points="111.5,49 105,45.3 111.5,41.5 			"/>
		</g>
		<g>
			<line class="st7" x1="105" y1="74.9" x2="364.2" y2="74.9"/>
			<polygon points="363.1,78.7 369.5,74.9 363.1,71.2 			"/>
		</g>
		<g>
			<line class="st7" x1="110.4" y1="105.2" x2="369.5" y2="105.2"/>
			<polygon points="111.5,108.9 105,105.2 111.5,101.4 			"/>
		</g>
		<g>
			<line class="st7" x1="105" y1="154.5" x2="364.2" y2="154.5"/>
			<polygon points="363.1,158.2 369.5,154.5 363.1,150.7 			"/>
		</g>
		<g>
			<path class="st7" d="M369.5,195.4l-308.4-0.8c-5.5,0-10-4.5-10-10v-13.9"/>
			<polygon points="54.8,171.9 51.1,165.4 47.4,171.9 			"/>
		</g>
		<polygon class="st8" points="192.6,25.8 185,31.3 187.9,40.1 197.2,40.1 200.1,31.3 		"/>
		<polygon class="st8" points="192.6,86 185,91.4 187.9,100.2 197.2,100.2 200.1,91.4 		"/>
		
			<use xlink:href="#New_Symbol_46"  width="20" height="20" x="-10" y="-10" transform="matrix(1 0 0 1 168.91 195.41)" style="overflow:visible;"/>
		<g>
			<g>
				<path class="st9" d="M87.9,44.9v50.3h-70V44.9c0-2.4,1.9-4.4,4.4-4.4c0,0,0,0,0,0h61.3C85.9,40.6,87.9,42.5,87.9,44.9z"/>
				<circle cx="24.4" cy="46" r="2.2"/>
				<circle class="st10" cx="31" cy="46" r="2.2"/>
				<circle class="st10" cx="37.5" cy="46" r="2.2"/>
				<path class="st11" d="M87.9,44.9v42.7l-4.4-4.4l-2.2-27.3L55,54.8L40.8,40.6h42.7C85.9,40.6,87.9,42.5,87.9,44.9z"/>
				<rect x="21.1" y="50.4" class="st12" width="63.4" height="41.6"/>
				<path class="st1" d="M69.1,57.7H26.4v-2.1h42.7V57.7z"/>
				<polygon class="st13" points="84.6,50.4 84.6,84.3 50.7,50.4 				"/>
				<path class="st1" d="M78,58.5l-0.6-1.4c0-0.1-0.1-0.2-0.1-0.3c0-0.1,0-0.2,0-0.2l0,0c0,0.1,0,0.1,0,0.2c0,0.1,0,0.2-0.1,0.3
					l-0.6,1.3h-1.9l1.5-2.5l-1.4-2.5h1.8l0.5,1.3c0,0.2,0.1,0.3,0.1,0.5l0,0c0-0.2,0.1-0.3,0.1-0.5l0.6-1.3h1.7L78.3,56l1.5,2.5
					L78,58.5z"/>
			</g>
			<g>
				<path class="st1" d="M49.2,76.1c0.1,2.1-0.5,4.1-1.8,5.7c-1.2,1.4-3,2.1-4.8,2c-0.8,0-1.6-0.1-2.3-0.3v-3.2
					c0.6,0.4,1.4,0.6,2.1,0.6c2.3,0,3.4-1.8,3.4-5.3V62.8h3.4L49.2,76.1z"/>
				<path class="st1" d="M52.3,82.6v-3.5c0.3,0.3,0.7,0.6,1.1,0.8c0.4,0.2,0.9,0.4,1.4,0.6c0.5,0.2,1,0.3,1.5,0.4
					c0.4,0.1,0.9,0.1,1.3,0.1c1.1,0.1,2.2-0.2,3.2-0.7c0.7-0.5,1.1-1.3,1.1-2.1c0-0.4-0.1-0.9-0.3-1.3c-0.3-0.4-0.6-0.7-1-1
					c-0.5-0.3-1-0.6-1.5-0.9c-0.6-0.3-1.2-0.6-1.8-0.9s-1.3-0.8-2-1.1c-0.6-0.4-1.1-0.8-1.6-1.3c-0.4-0.5-0.8-1-1-1.6
					c-0.3-0.6-0.4-1.3-0.4-2c0-0.9,0.2-1.8,0.7-2.5c0.4-0.7,1-1.3,1.7-1.8c0.8-0.5,1.6-0.8,2.4-1c0.9-0.2,1.8-0.3,2.8-0.3
					c1.6-0.1,3.2,0.2,4.7,0.7v3.4c-1.3-0.9-2.9-1.3-4.5-1.3c-0.5,0-1,0.1-1.5,0.2c-0.5,0.1-0.9,0.2-1.4,0.5c-0.4,0.2-0.7,0.5-1,0.8
					c-0.2,0.3-0.4,0.7-0.4,1.2c0,0.4,0.1,0.8,0.3,1.2c0.2,0.4,0.5,0.7,0.8,0.9c0.4,0.3,0.9,0.6,1.3,0.8c0.5,0.3,1.2,0.6,1.8,0.9
					s1.4,0.8,2,1.2c0.6,0.4,1.2,0.9,1.7,1.4c0.5,0.5,0.9,1,1.2,1.7c0.3,0.7,0.4,1.4,0.4,2.1c0.1,1.8-0.8,3.5-2.3,4.4
					c-0.8,0.5-1.6,0.8-2.5,1c-1,0.2-2,0.3-3,0.3c-0.3,0-0.8,0-1.3-0.1s-1-0.1-1.5-0.2s-1-0.2-1.5-0.4C53,83,52.6,82.8,52.3,82.6z"/>
			</g>
		</g>
	</g>
	<g id="Text_1_">
		
			<use xlink:href="#New_Symbol_41"  width="20" height="20" x="-10" y="-10" transform="matrix(1 0 0 1 168.91 15.41)" style="overflow:visible;"/>
		
			<use xlink:href="#New_Symbol_42"  width="20" height="20" x="-10" y="-10" transform="matrix(1 0 0 1 168.91 45.29)" style="overflow:visible;"/>
		
			<use xlink:href="#New_Symbol_45"  width="20" height="20" x="-10" y="-10" transform="matrix(1 0 0 1 168.91 155.21)" style="overflow:visible;"/>
		
			<use xlink:href="#New_Symbol_44"  width="20" height="20" x="-10" y="-10" transform="matrix(1 0 0 1 168.91 105.67)" style="overflow:visible;"/>
		
			<use xlink:href="#New_Symbol_43"  width="20" height="20" x="-10" y="-10" transform="matrix(1 0 0 1 168.91 74.93)" style="overflow:visible;"/>
	</g>
	<polygon class="st8" points="192.6,133.8 185,139.2 187.9,148 197.2,148 200.1,139.2 	"/>
</g>
<g id="txt">
	<g>
		<rect x="20.1" y="105.8" class="st15" width="64.5" height="30.5"/>
		<path class="st16" d="M28.8,111.7c0,1-0.2,1.8-0.7,2.3s-1.1,0.8-2,0.8c-0.4,0-0.7,0-0.9-0.1v-1.3c0.2,0.2,0.5,0.2,0.9,0.2
			c0.9,0,1.4-0.7,1.4-2.2v-5.2h1.4V111.7z"/>
		<path class="st16" d="M35.3,114.7H34v-0.9h0c-0.4,0.7-1,1.1-1.8,1.1c-0.6,0-1.1-0.2-1.4-0.5s-0.5-0.7-0.5-1.3c0-1.1,0.7-1.8,2-2
			l1.8-0.3c0-0.9-0.4-1.3-1.2-1.3c-0.7,0-1.4,0.2-1.9,0.7v-1.2c0.6-0.4,1.4-0.6,2.2-0.6c1.5,0,2.3,0.7,2.3,2.2V114.7z M34,111.7
			l-1.3,0.2c-0.4,0.1-0.7,0.1-0.9,0.3s-0.3,0.4-0.3,0.7c0,0.3,0.1,0.5,0.3,0.6s0.4,0.2,0.7,0.2c0.4,0,0.8-0.1,1-0.4s0.4-0.7,0.4-1.1
			V111.7z"/>
		<path class="st16" d="M42.1,108.7l-2.3,6h-1.5l-2.2-6h1.5l1.3,4.2c0.1,0.3,0.2,0.6,0.2,0.8h0c0-0.3,0.1-0.6,0.2-0.8l1.4-4.2H42.1z
			"/>
		<path class="st16" d="M47.6,114.7h-1.3v-0.9h0c-0.4,0.7-1,1.1-1.8,1.1c-0.6,0-1.1-0.2-1.4-0.5s-0.5-0.7-0.5-1.3c0-1.1,0.7-1.8,2-2
			l1.8-0.3c0-0.9-0.4-1.3-1.2-1.3c-0.7,0-1.4,0.2-1.9,0.7v-1.2c0.6-0.4,1.4-0.6,2.2-0.6c1.5,0,2.3,0.7,2.3,2.2V114.7z M46.3,111.7
			l-1.3,0.2c-0.4,0.1-0.7,0.1-0.9,0.3s-0.3,0.4-0.3,0.7c0,0.3,0.1,0.5,0.3,0.6s0.4,0.2,0.7,0.2c0.4,0,0.8-0.1,1-0.4s0.4-0.7,0.4-1.1
			V111.7z"/>
		<path class="st16" d="M49,114.3v-1.4c0.1,0.1,0.3,0.2,0.5,0.3s0.4,0.2,0.6,0.2s0.4,0.1,0.6,0.1s0.4,0.1,0.6,0.1
			c0.6,0,1-0.1,1.3-0.3s0.4-0.5,0.4-0.8c0-0.2,0-0.4-0.1-0.5s-0.2-0.3-0.4-0.4s-0.4-0.2-0.6-0.3s-0.5-0.2-0.7-0.3
			c-0.3-0.2-0.6-0.3-0.8-0.5s-0.5-0.3-0.6-0.5s-0.3-0.4-0.4-0.6s-0.2-0.5-0.2-0.8c0-0.4,0.1-0.7,0.3-1s0.4-0.5,0.7-0.7
			s0.6-0.3,1-0.4s0.8-0.1,1.1-0.1c0.9,0,1.5,0.1,1.9,0.3v1.4c-0.5-0.3-1.1-0.5-1.8-0.5c-0.2,0-0.4,0-0.6,0.1s-0.4,0.1-0.6,0.2
			s-0.3,0.2-0.4,0.3s-0.2,0.3-0.2,0.5c0,0.2,0,0.3,0.1,0.5s0.2,0.3,0.3,0.4s0.3,0.2,0.6,0.3s0.5,0.2,0.8,0.3
			c0.3,0.2,0.6,0.3,0.8,0.5s0.5,0.4,0.7,0.6s0.4,0.4,0.5,0.7s0.2,0.5,0.2,0.8c0,0.4-0.1,0.8-0.3,1.1s-0.4,0.5-0.7,0.7
			s-0.6,0.3-1,0.4s-0.8,0.1-1.2,0.1c-0.1,0-0.3,0-0.5,0s-0.4-0.1-0.6-0.1s-0.4-0.1-0.6-0.1S49.2,114.4,49,114.3z"/>
		<path class="st16" d="M60.1,114.4c-0.5,0.3-1,0.4-1.7,0.4c-0.9,0-1.6-0.3-2.2-0.8s-0.8-1.3-0.8-2.2c0-1,0.3-1.8,0.9-2.4
			s1.4-0.9,2.4-0.9c0.5,0,1,0.1,1.4,0.3v1.3c-0.4-0.3-0.9-0.5-1.3-0.5c-0.6,0-1,0.2-1.4,0.6s-0.6,0.9-0.6,1.5c0,0.6,0.2,1.1,0.5,1.5
			s0.8,0.5,1.4,0.5c0.5,0,0.9-0.2,1.4-0.5V114.4z"/>
		<path class="st16" d="M64.9,110c-0.2-0.1-0.4-0.2-0.7-0.2c-0.4,0-0.7,0.2-1,0.5s-0.4,0.9-0.4,1.5v2.9h-1.4v-6h1.4v1.2h0
			c0.1-0.4,0.3-0.8,0.6-1s0.6-0.4,0.9-0.4c0.2,0,0.4,0,0.6,0.1V110z"/>
		<path class="st16" d="M66.6,107.4c-0.2,0-0.4-0.1-0.6-0.2s-0.2-0.3-0.2-0.6s0.1-0.4,0.2-0.6s0.3-0.2,0.6-0.2
			c0.2,0,0.4,0.1,0.6,0.2s0.2,0.3,0.2,0.6c0,0.2-0.1,0.4-0.2,0.5S66.8,107.4,66.6,107.4z M67.3,114.7h-1.4v-6h1.4V114.7z"/>
		<path class="st16" d="M70.4,113.8L70.4,113.8l0,3.6H69v-8.8h1.4v1.1h0c0.5-0.8,1.1-1.2,2-1.2c0.8,0,1.4,0.3,1.8,0.8
			s0.6,1.3,0.6,2.2c0,1-0.2,1.8-0.7,2.4s-1.1,0.9-2,0.9C71.4,114.8,70.8,114.5,70.4,113.8z M70.4,111.4v0.7c0,0.4,0.1,0.8,0.4,1.1
			s0.6,0.5,1.1,0.5c0.5,0,0.9-0.2,1.2-0.6s0.4-0.9,0.4-1.6c0-0.6-0.1-1.1-0.4-1.4s-0.6-0.5-1.1-0.5c-0.5,0-0.9,0.2-1.2,0.5
			S70.4,110.9,70.4,111.4z"/>
		<path class="st16" d="M79.4,114.6c-0.3,0.1-0.6,0.2-1,0.2c-1.2,0-1.7-0.6-1.7-1.7v-3.4h-1v-1.1h1v-1.4l1.4-0.4v1.8h1.4v1.1H78v3
			c0,0.4,0.1,0.6,0.2,0.8s0.3,0.2,0.6,0.2c0.2,0,0.4-0.1,0.6-0.2V114.6z"/>
		<path class="st16" d="M42.2,128.7v-1.4c0.1,0.1,0.3,0.2,0.5,0.3s0.4,0.2,0.6,0.2s0.4,0.1,0.6,0.1s0.4,0.1,0.6,0.1
			c0.6,0,1-0.1,1.3-0.3s0.4-0.5,0.4-0.8c0-0.2,0-0.4-0.1-0.5s-0.2-0.3-0.4-0.4s-0.4-0.2-0.6-0.3s-0.5-0.2-0.7-0.3
			c-0.3-0.2-0.6-0.3-0.8-0.5s-0.5-0.3-0.6-0.5s-0.3-0.4-0.4-0.6s-0.2-0.5-0.2-0.8c0-0.4,0.1-0.7,0.3-1s0.4-0.5,0.7-0.7
			s0.6-0.3,1-0.4s0.8-0.1,1.1-0.1c0.9,0,1.5,0.1,1.9,0.3v1.4c-0.5-0.3-1.1-0.5-1.8-0.5c-0.2,0-0.4,0-0.6,0.1s-0.4,0.1-0.6,0.2
			s-0.3,0.2-0.4,0.3s-0.2,0.3-0.2,0.5c0,0.2,0,0.3,0.1,0.5s0.2,0.3,0.3,0.4s0.3,0.2,0.6,0.3s0.5,0.2,0.8,0.3
			c0.3,0.2,0.6,0.3,0.8,0.5s0.5,0.4,0.7,0.6s0.4,0.4,0.5,0.7s0.2,0.5,0.2,0.8c0,0.4-0.1,0.8-0.3,1.1s-0.4,0.5-0.7,0.7
			s-0.6,0.3-1,0.4s-0.8,0.1-1.2,0.1c-0.1,0-0.3,0-0.5,0s-0.4-0.1-0.6-0.1s-0.4-0.1-0.6-0.1S42.3,128.8,42.2,128.7z"/>
		<path class="st16" d="M50.5,126v3h-1.4v-8.4h2.5c1,0,1.7,0.2,2.2,0.7s0.8,1.1,0.8,1.9s-0.3,1.5-0.8,2s-1.3,0.8-2.3,0.8H50.5z
			 M50.5,121.8v3.1h0.9c0.6,0,1.1-0.1,1.4-0.4s0.5-0.7,0.5-1.2c0-1-0.6-1.5-1.7-1.5H50.5z"/>
		<path class="st16" d="M63.1,129.1h-1.5l-0.8-2.1h-3.3l-0.7,2.1h-1.5l3.1-8.4h1.6L63.1,129.1z M60.4,125.8l-1.2-3.4
			c0-0.1-0.1-0.3-0.1-0.5h0c0,0.2-0.1,0.4-0.1,0.5l-1.2,3.4H60.4z"/>
	</g>
	<g>
		<g>
			<path class="st17" d="M212.9,133h-1v-3.8h-4.3v3.8h-1v-8.4h1v3.7h4.3v-3.7h1V133z"/>
			<path class="st17" d="M220,125.5h-2.4v7.5h-1v-7.5h-2.4v-0.9h5.8V125.5z"/>
			<path class="st17" d="M226.3,125.5h-2.4v7.5h-1v-7.5h-2.4v-0.9h5.8V125.5z"/>
			<path class="st17" d="M228.5,129.9v3.2h-1v-8.4h2.3c0.9,0,1.6,0.2,2.1,0.7s0.7,1.1,0.7,1.9s-0.3,1.4-0.8,2s-1.3,0.8-2.2,0.8
				H228.5z M228.5,125.5v3.4h1c0.7,0,1.2-0.2,1.6-0.5s0.5-0.7,0.5-1.3c0-1.1-0.7-1.7-2-1.7H228.5z"/>
			<path class="st17" d="M243.6,132.5c-0.8,0.5-1.8,0.7-2.8,0.7c-1.2,0-2.2-0.4-2.9-1.2s-1.1-1.8-1.1-3.1c0-1.3,0.4-2.4,1.2-3.2
				s1.9-1.3,3.1-1.3c0.9,0,1.7,0.1,2.3,0.4v1.1c-0.7-0.4-1.5-0.6-2.4-0.6c-0.9,0-1.7,0.3-2.3,1s-0.9,1.5-0.9,2.5
				c0,1.1,0.3,1.9,0.8,2.5s1.3,0.9,2.3,0.9c0.7,0,1.2-0.1,1.7-0.4v-2.4h-1.8v-0.9h2.8V132.5z"/>
			<path class="st17" d="M250,133h-4.5v-8.4h4.3v0.9h-3.3v2.8h3v0.9h-3v2.9h3.5V133z"/>
			<path class="st17" d="M256.5,125.5h-2.4v7.5h-1v-7.5h-2.4v-0.9h5.8V125.5z"/>
			<path class="st17" d="M266.7,129.9h-2.4v2.4h-0.8v-2.4h-2.4v-0.8h2.4v-2.4h0.8v2.4h2.4V129.9z"/>
			<path class="st17" d="M272,124.1h7.8c-0.1,1.1-0.4,2-0.7,2.7c-0.3,0.7-0.8,1.3-1.4,1.8L277,128c0.5-0.4,0.9-0.9,1.3-1.5
				c0.3-0.5,0.5-1,0.5-1.6H272V124.1z M272.4,132.8c1-0.5,1.8-1.1,2.2-1.8c0.4-0.8,0.7-1.8,0.7-3.2v-1.9h0.9v1.9
				c0,1.6-0.3,2.9-1,3.8c-0.5,0.7-1.2,1.3-2.2,1.8L272.4,132.8z"/>
			<path class="st17" d="M284.1,125.4c-0.6,1.3-1.3,2.5-2.2,3.5l-0.7-0.5c1.3-1.4,2.1-3,2.6-5l0.9,0.1c-0.1,0.3-0.2,0.7-0.3,1.1h4.2
				c-0.4,2.8-1.1,4.9-2.3,6.3c-0.9,1.1-2.2,2-3.8,2.7l-0.5-0.6c1.7-0.7,3-1.6,3.8-2.8c0.8-1.2,1.4-2.7,1.7-4.7H284.1z"/>
			<path class="st17" d="M292.3,126.2v-2.8h0.9v2.6l4.6-1l0.5,0.6c-0.6,1.8-1.5,3.3-2.5,4.5l-0.8-0.5c1.1-1.3,1.8-2.5,2.2-3.7
				l-4,0.9v4.3c0,0.5,0.1,0.9,0.4,1c0.2,0.1,0.7,0.2,1.5,0.2c0.9,0,1.8,0,2.8-0.1v0.9c-0.9,0.1-1.8,0.1-3,0.1
				c-1.1,0-1.8-0.2-2.2-0.5c-0.3-0.3-0.4-0.8-0.4-1.5v-4.1l-2,0.5l-0.2-0.8L292.3,126.2z"/>
			<path class="st17" d="M304.4,129.6c-1,1.6-2.5,2.9-4.3,3.8l-0.5-0.7c1.7-0.9,3-2,3.9-3.4c0.8-1.2,1.4-2.6,1.8-4.3h-5v-0.8h6.2
				c-0.4,1.8-0.9,3.3-1.6,4.6c1.1,1.3,2,2.6,2.8,4l-0.9,0.6C306.1,132.1,305.3,130.8,304.4,129.6z"/>
			<path class="st17" d="M208.6,142v5.7h-0.9v-10.1h0.9v3.5c1.9,0.5,3.4,1.2,4.6,1.9l-0.5,0.9C211.6,143.2,210.3,142.5,208.6,142z"
				/>
			<path class="st17" d="M214.3,142.3h6.5v0.9h-6.5V142.3z"/>
			<path class="st17" d="M225,139.6c-0.6,1.3-1.3,2.5-2.2,3.5l-0.7-0.5c1.3-1.4,2.1-3,2.6-5l0.9,0.1c-0.1,0.3-0.2,0.7-0.3,1.1h4.2
				c-0.4,2.8-1.1,4.9-2.3,6.3c-0.9,1.1-2.2,2-3.8,2.7l-0.5-0.6c1.7-0.7,3-1.6,3.8-2.8c0.8-1.2,1.4-2.7,1.7-4.7H225z"/>
			<path class="st17" d="M231.7,138.7c1.1,0.6,2.1,1.2,2.8,1.8l-0.6,0.8c-0.7-0.6-1.6-1.2-2.8-1.9L231.7,138.7z M237.7,139.3
				l0.9,0.4c-0.4,2.1-1.1,3.7-2.2,5c-1.2,1.3-2.8,2.2-4.8,2.8l-0.4-0.8C234.9,145.7,237.1,143.3,237.7,139.3z"/>
		</g>
	</g>
	<g>
		<rect x="383.7" y="55.3" class="st15" width="76.5" height="25"/>
		<path class="st18" d="M398.1,64.2h-1.4v-5.4c0-0.4,0-1,0.1-1.6h0c-0.1,0.4-0.2,0.6-0.2,0.8l-2.5,6.3h-1l-2.5-6.2
			c-0.1-0.2-0.1-0.5-0.2-0.8h0c0,0.3,0,0.9,0,1.6v5.4h-1.3v-8.4h2l2.2,5.6c0.2,0.4,0.3,0.8,0.3,1h0c0.1-0.4,0.3-0.8,0.4-1l2.3-5.6
			h1.9V64.2z"/>
		<path class="st18" d="M400.7,57c-0.2,0-0.4-0.1-0.6-0.2s-0.2-0.3-0.2-0.6s0.1-0.4,0.2-0.6s0.3-0.2,0.6-0.2c0.2,0,0.4,0.1,0.6,0.2
			s0.2,0.3,0.2,0.6c0,0.2-0.1,0.4-0.2,0.5S401,57,400.7,57z M401.4,64.2H400v-6h1.4V64.2z"/>
		<path class="st18" d="M407.5,63.9c-0.5,0.3-1,0.4-1.7,0.4c-0.9,0-1.6-0.3-2.2-0.8s-0.8-1.3-0.8-2.2c0-1,0.3-1.8,0.9-2.4
			s1.4-0.9,2.4-0.9c0.5,0,1,0.1,1.4,0.3v1.3c-0.4-0.3-0.9-0.5-1.3-0.5c-0.6,0-1,0.2-1.4,0.6s-0.6,0.9-0.6,1.5c0,0.6,0.2,1.1,0.5,1.5
			s0.8,0.5,1.4,0.5c0.5,0,0.9-0.2,1.4-0.5V63.9z"/>
		<path class="st18" d="M412.3,59.5c-0.2-0.1-0.4-0.2-0.7-0.2c-0.4,0-0.7,0.2-1,0.5s-0.4,0.9-0.4,1.5v2.9h-1.4v-6h1.4v1.2h0
			c0.1-0.4,0.3-0.8,0.6-1s0.6-0.4,0.9-0.4c0.2,0,0.4,0,0.6,0.1V59.5z"/>
		<path class="st18" d="M415.9,64.4c-0.9,0-1.7-0.3-2.2-0.8s-0.8-1.3-0.8-2.2c0-1,0.3-1.8,0.9-2.4s1.4-0.8,2.3-0.8
			c0.9,0,1.7,0.3,2.2,0.8s0.8,1.3,0.8,2.3c0,1-0.3,1.7-0.8,2.3S416.9,64.4,415.9,64.4z M416,59.2c-0.5,0-1,0.2-1.3,0.6
			s-0.5,0.9-0.5,1.5c0,0.6,0.2,1.1,0.5,1.5s0.7,0.5,1.3,0.5c0.5,0,0.9-0.2,1.2-0.5s0.4-0.9,0.4-1.5c0-0.7-0.1-1.2-0.4-1.5
			S416.5,59.2,416,59.2z"/>
		<path class="st18" d="M420.1,64v-1.3c0.5,0.4,1.1,0.6,1.7,0.6c0.8,0,1.2-0.2,1.2-0.7c0-0.1,0-0.3-0.1-0.3s-0.2-0.2-0.3-0.3
			s-0.3-0.1-0.4-0.2s-0.3-0.1-0.5-0.2c-0.2-0.1-0.5-0.2-0.7-0.3s-0.4-0.2-0.5-0.4s-0.2-0.3-0.3-0.5s-0.1-0.4-0.1-0.6
			c0-0.3,0.1-0.5,0.2-0.8s0.3-0.4,0.6-0.6s0.5-0.3,0.8-0.3s0.6-0.1,0.9-0.1c0.6,0,1.1,0.1,1.5,0.3v1.2c-0.4-0.3-0.9-0.4-1.5-0.4
			c-0.2,0-0.3,0-0.5,0.1s-0.3,0.1-0.4,0.1s-0.2,0.1-0.2,0.2s-0.1,0.2-0.1,0.3c0,0.1,0,0.2,0.1,0.3s0.1,0.2,0.2,0.2s0.2,0.1,0.4,0.2
			s0.3,0.1,0.5,0.2c0.3,0.1,0.5,0.2,0.7,0.3s0.4,0.2,0.5,0.4s0.3,0.3,0.3,0.5s0.1,0.4,0.1,0.6c0,0.3-0.1,0.6-0.2,0.8
			s-0.3,0.4-0.6,0.6s-0.5,0.3-0.8,0.3s-0.6,0.1-1,0.1C421.1,64.4,420.5,64.2,420.1,64z"/>
		<path class="st18" d="M428.3,64.4c-0.9,0-1.7-0.3-2.2-0.8s-0.8-1.3-0.8-2.2c0-1,0.3-1.8,0.9-2.4s1.4-0.8,2.3-0.8
			c0.9,0,1.7,0.3,2.2,0.8s0.8,1.3,0.8,2.3c0,1-0.3,1.7-0.8,2.3S429.2,64.4,428.3,64.4z M428.3,59.2c-0.5,0-1,0.2-1.3,0.6
			s-0.5,0.9-0.5,1.5c0,0.6,0.2,1.1,0.5,1.5s0.7,0.5,1.3,0.5c0.5,0,0.9-0.2,1.2-0.5s0.4-0.9,0.4-1.5c0-0.7-0.1-1.2-0.4-1.5
			S428.9,59.2,428.3,59.2z"/>
		<path class="st18" d="M436.2,56.4c-0.2-0.1-0.4-0.2-0.6-0.2c-0.7,0-1,0.4-1,1.1v0.8h1.4v1.1h-1.4v4.9h-1.4v-4.9h-1v-1.1h1v-1
			c0-0.6,0.2-1.1,0.6-1.5s0.9-0.5,1.6-0.5c0.3,0,0.6,0,0.8,0.1V56.4z"/>
		<path class="st18" d="M440.1,64.1c-0.3,0.1-0.6,0.2-1,0.2c-1.2,0-1.7-0.6-1.7-1.7v-3.4h-1v-1.1h1v-1.4l1.4-0.4v1.8h1.4v1.1h-1.4v3
			c0,0.4,0.1,0.6,0.2,0.8s0.3,0.2,0.6,0.2c0.2,0,0.4-0.1,0.6-0.2V64.1z"/>
		<path class="st18" d="M446.1,64.2h-1.4v-8.4h1.4V64.2z"/>
		<path class="st18" d="M448.2,64.2v-8.4h2.4c3.1,0,4.6,1.4,4.6,4.1c0,1.3-0.4,2.3-1.3,3.1s-2,1.2-3.5,1.2H448.2z M449.6,57v6h1.1
			c1,0,1.7-0.3,2.3-0.8s0.8-1.3,0.8-2.3c0-2-1-2.9-3.1-2.9H449.6z"/>
		<path class="st18" d="M394.1,69.9c0-0.1-0.1-0.3-0.1-0.4c0-0.4,0.2-0.7,0.5-1c0.3-0.2,0.6-0.4,0.9-0.4c0.4,0,0.7,0.2,1,0.5
			c0.2,0.3,0.4,0.6,0.4,0.9c0,0.4-0.2,0.7-0.5,1c-0.3,0.2-0.6,0.4-0.9,0.4c-0.1,0-0.2,0-0.3,0c-0.1,2.5-0.7,4.5-1.7,5.8
			c-0.9,1.1-2.2,2-4,2.7l-0.7-1.1c1.8-0.6,3.1-1.5,3.9-2.7c0.7-1.1,1.1-2.6,1.2-4.5h-5.5v-1.1H394.1z M395.4,68.6
			c-0.2,0-0.4,0.1-0.6,0.3c-0.1,0.1-0.2,0.3-0.2,0.5c0,0.2,0.1,0.4,0.3,0.6c0.1,0.1,0.3,0.2,0.5,0.2c0.2,0,0.4-0.1,0.6-0.3
			c0.1-0.1,0.2-0.3,0.2-0.5c0-0.2-0.1-0.4-0.3-0.6C395.7,68.7,395.6,68.6,395.4,68.6z"/>
		<path class="st18" d="M397.5,72h7.1c-0.1,2.4-0.7,4.2-1.7,5.3c-0.8,0.9-2.1,1.5-3.8,2l-0.6-1c1.7-0.4,2.9-1.1,3.6-2
			c0.7-0.8,1-1.8,1.1-3.2h-5.7V72z M398.2,69.5h5.7v1.1h-5.7V69.5z"/>
		<path class="st18" d="M406,72l1.1-0.4c0.4,0.8,0.7,1.7,1,2.8l-1.1,0.4C406.7,73.7,406.3,72.8,406,72z M407.3,78.4
			c1.5-0.6,2.6-1.4,3.2-2.5c0.6-1,0.9-2.5,1-4.5l1.3,0.3c-0.1,1.2-0.3,2.2-0.5,2.9c-0.2,0.7-0.5,1.4-0.8,1.9
			c-0.4,0.7-0.9,1.3-1.5,1.7c-0.5,0.4-1.2,0.7-2,1.1L407.3,78.4z M408.3,71.5l1.1-0.3c0.3,0.7,0.6,1.6,0.8,2.7l-1.1,0.4
			C408.9,73.1,408.6,72.2,408.3,71.5z"/>
		<path class="st18" d="M417,72.5c1.7,0.5,3.2,1.1,4.6,1.9l-0.7,1.3c-1.1-0.8-2.4-1.4-3.9-1.8v5.3h-1.3V69h1.3V72.5z"/>
		<path class="st18" d="M422.9,69.8h6.9c0,1.9-0.2,3.5-0.6,4.7c-0.4,1.2-1,2.2-1.9,2.9c-0.8,0.7-1.9,1.3-3.3,1.8l-0.7-1.1
			c1.8-0.6,3.1-1.5,3.9-2.7c0.7-1.1,1.1-2.6,1.2-4.5h-5.5V69.8z"/>
		<path class="st18" d="M435.4,74.2l-0.5,0.9c-0.7,1.2-1.7,2.3-3.1,3.3l-0.8-1c0.8-0.5,1.5-1.1,2.2-1.9c0.6-0.7,1-1.4,1.4-2.1h-3.2
			v-1.1h3.7l-0.1-1.6h1.2l0.1,1.6h1.8v1.1h-1.8l0.2,5.6h-1.2l-0.1-3.8L435.4,74.2z"/>
		<path class="st18" d="M439.6,73.4h6.8v1.3h-6.8V73.4z"/>
		<path class="st18" d="M453.9,76.8c-0.4-1-0.9-2-1.4-3l1.1-0.4c0.9,1.5,1.7,3.2,2.4,5.2l-1.3,0.6c-0.1-0.5-0.3-0.9-0.4-1.3
			c-1.7,0.3-4,0.6-6.6,0.9l-0.3-1.3c0.4,0,0.7-0.1,0.8-0.1c0.9-2.5,1.7-5.2,2.4-8.2l1.3,0.4c-0.7,2.5-1.5,5.1-2.4,7.7
			C451.1,77.1,452.6,77,453.9,76.8z"/>
	</g>
	<g>
		<rect x="389.6" y="152.4" class="st15" width="64.5" height="30.5"/>
		<path class="st19" d="M405.8,161.2h-1.4v-5.4c0-0.4,0-1,0.1-1.6h0c-0.1,0.4-0.2,0.6-0.2,0.8l-2.5,6.3h-1l-2.5-6.2
			c-0.1-0.2-0.1-0.5-0.2-0.8h0c0,0.3,0,0.9,0,1.6v5.4h-1.3v-8.4h2l2.2,5.6c0.2,0.4,0.3,0.8,0.3,1h0c0.1-0.4,0.3-0.8,0.4-1l2.3-5.6
			h1.9V161.2z"/>
		<path class="st19" d="M408.4,154c-0.2,0-0.4-0.1-0.6-0.2s-0.2-0.3-0.2-0.6s0.1-0.4,0.2-0.6s0.3-0.2,0.6-0.2c0.2,0,0.4,0.1,0.6,0.2
			s0.2,0.3,0.2,0.6c0,0.2-0.1,0.4-0.2,0.5S408.6,154,408.4,154z M409,161.2h-1.4v-6h1.4V161.2z"/>
		<path class="st19" d="M415.1,161c-0.5,0.3-1,0.4-1.7,0.4c-0.9,0-1.6-0.3-2.2-0.8s-0.8-1.3-0.8-2.2c0-1,0.3-1.8,0.9-2.4
			s1.4-0.9,2.4-0.9c0.5,0,1,0.1,1.4,0.3v1.3c-0.4-0.3-0.9-0.5-1.3-0.5c-0.6,0-1,0.2-1.4,0.6s-0.6,0.9-0.6,1.5c0,0.6,0.2,1.1,0.5,1.5
			s0.8,0.5,1.4,0.5c0.5,0,0.9-0.2,1.4-0.5V161z"/>
		<path class="st19" d="M419.9,156.5c-0.2-0.1-0.4-0.2-0.7-0.2c-0.4,0-0.7,0.2-1,0.5s-0.4,0.9-0.4,1.5v2.9h-1.4v-6h1.4v1.2h0
			c0.1-0.4,0.3-0.8,0.6-1s0.6-0.4,0.9-0.4c0.2,0,0.4,0,0.6,0.1V156.5z"/>
		<path class="st19" d="M423.6,161.4c-0.9,0-1.7-0.3-2.2-0.8s-0.8-1.3-0.8-2.2c0-1,0.3-1.8,0.9-2.4s1.4-0.8,2.3-0.8
			c0.9,0,1.7,0.3,2.2,0.8s0.8,1.3,0.8,2.3c0,1-0.3,1.7-0.8,2.3S424.5,161.4,423.6,161.4z M423.6,156.2c-0.5,0-1,0.2-1.3,0.6
			s-0.5,0.9-0.5,1.5c0,0.6,0.2,1.1,0.5,1.5s0.7,0.5,1.3,0.5c0.5,0,0.9-0.2,1.2-0.5s0.4-0.9,0.4-1.5c0-0.7-0.1-1.2-0.4-1.5
			S424.2,156.2,423.6,156.2z"/>
		<path class="st19" d="M427.7,161v-1.3c0.5,0.4,1.1,0.6,1.7,0.6c0.8,0,1.2-0.2,1.2-0.7c0-0.1,0-0.3-0.1-0.3s-0.2-0.2-0.3-0.3
			s-0.3-0.1-0.4-0.2s-0.3-0.1-0.5-0.2c-0.2-0.1-0.5-0.2-0.7-0.3s-0.4-0.2-0.5-0.4s-0.2-0.3-0.3-0.5s-0.1-0.4-0.1-0.6
			c0-0.3,0.1-0.5,0.2-0.8s0.3-0.4,0.6-0.6s0.5-0.3,0.8-0.3s0.6-0.1,0.9-0.1c0.6,0,1.1,0.1,1.5,0.3v1.2c-0.4-0.3-0.9-0.4-1.5-0.4
			c-0.2,0-0.3,0-0.5,0.1s-0.3,0.1-0.4,0.1s-0.2,0.1-0.2,0.2s-0.1,0.2-0.1,0.3c0,0.1,0,0.2,0.1,0.3s0.1,0.2,0.2,0.2s0.2,0.1,0.4,0.2
			s0.3,0.1,0.5,0.2c0.3,0.1,0.5,0.2,0.7,0.3s0.4,0.2,0.5,0.4s0.3,0.3,0.3,0.5s0.1,0.4,0.1,0.6c0,0.3-0.1,0.6-0.2,0.8
			s-0.3,0.4-0.6,0.6s-0.5,0.3-0.8,0.3s-0.6,0.1-1,0.1C428.7,161.4,428.2,161.3,427.7,161z"/>
		<path class="st19" d="M435.9,161.4c-0.9,0-1.7-0.3-2.2-0.8s-0.8-1.3-0.8-2.2c0-1,0.3-1.8,0.9-2.4s1.4-0.8,2.3-0.8
			c0.9,0,1.7,0.3,2.2,0.8s0.8,1.3,0.8,2.3c0,1-0.3,1.7-0.8,2.3S436.8,161.4,435.9,161.4z M436,156.2c-0.5,0-1,0.2-1.3,0.6
			s-0.5,0.9-0.5,1.5c0,0.6,0.2,1.1,0.5,1.5s0.7,0.5,1.3,0.5c0.5,0,0.9-0.2,1.2-0.5s0.4-0.9,0.4-1.5c0-0.7-0.1-1.2-0.4-1.5
			S436.5,156.2,436,156.2z"/>
		<path class="st19" d="M443.8,153.5c-0.2-0.1-0.4-0.2-0.6-0.2c-0.7,0-1,0.4-1,1.1v0.8h1.4v1.1h-1.4v4.9h-1.4v-4.9h-1v-1.1h1v-1
			c0-0.6,0.2-1.1,0.6-1.5s0.9-0.5,1.6-0.5c0.3,0,0.6,0,0.8,0.1V153.5z"/>
		<path class="st19" d="M447.7,161.2c-0.3,0.1-0.6,0.2-1,0.2c-1.2,0-1.7-0.6-1.7-1.7v-3.4h-1v-1.1h1v-1.4l1.4-0.4v1.8h1.4v1.1h-1.4
			v3c0,0.4,0.1,0.6,0.2,0.8s0.3,0.2,0.6,0.2c0.2,0,0.4-0.1,0.6-0.2V161.2z"/>
		<path class="st19" d="M401.9,175.1c-0.9,0.5-1.8,0.7-2.9,0.7c-1.2,0-2.2-0.4-3-1.2s-1.2-1.8-1.2-3.1c0-1.3,0.4-2.4,1.3-3.2
			s1.9-1.3,3.2-1.3c0.9,0,1.7,0.1,2.4,0.4v1.4c-0.6-0.4-1.4-0.6-2.3-0.6c-0.9,0-1.6,0.3-2.2,0.9s-0.9,1.4-0.9,2.3
			c0,1,0.2,1.7,0.7,2.3s1.2,0.8,2,0.8c0.6,0,1.1-0.1,1.5-0.3v-2h-1.8v-1.2h3.2V175.1z"/>
		<path class="st19" d="M407,170.9c-0.2-0.1-0.4-0.2-0.7-0.2c-0.4,0-0.7,0.2-1,0.5s-0.4,0.9-0.4,1.5v2.9h-1.4v-6h1.4v1.2h0
			c0.1-0.4,0.3-0.8,0.6-1s0.6-0.4,0.9-0.4c0.2,0,0.4,0,0.6,0.1V170.9z"/>
		<path class="st19" d="M412.6,175.6h-1.3v-0.9h0c-0.4,0.7-1,1.1-1.8,1.1c-0.6,0-1.1-0.2-1.4-0.5s-0.5-0.7-0.5-1.3
			c0-1.1,0.7-1.8,2-2l1.8-0.3c0-0.9-0.4-1.3-1.2-1.3c-0.7,0-1.4,0.2-1.9,0.7v-1.2c0.6-0.4,1.4-0.6,2.2-0.6c1.5,0,2.3,0.7,2.3,2.2
			V175.6z M411.2,172.7l-1.3,0.2c-0.4,0.1-0.7,0.1-0.9,0.3s-0.3,0.4-0.3,0.7c0,0.3,0.1,0.5,0.3,0.6s0.4,0.2,0.7,0.2
			c0.4,0,0.8-0.1,1-0.4s0.4-0.7,0.4-1.1V172.7z"/>
		<path class="st19" d="M415.6,174.7L415.6,174.7l0,3.6h-1.4v-8.8h1.4v1.1h0c0.5-0.8,1.1-1.2,2-1.2c0.8,0,1.4,0.3,1.8,0.8
			s0.6,1.3,0.6,2.2c0,1-0.2,1.8-0.7,2.4s-1.1,0.9-2,0.9C416.6,175.8,416,175.4,415.6,174.7z M415.6,172.4v0.7c0,0.4,0.1,0.8,0.4,1.1
			s0.6,0.5,1.1,0.5c0.5,0,0.9-0.2,1.2-0.6s0.4-0.9,0.4-1.6c0-0.6-0.1-1.1-0.4-1.4s-0.6-0.5-1.1-0.5c-0.5,0-0.9,0.2-1.2,0.5
			S415.6,171.9,415.6,172.4z"/>
		<path class="st19" d="M426.8,175.6h-1.4v-3.3c0-1.2-0.4-1.8-1.2-1.8c-0.4,0-0.7,0.2-1,0.5s-0.4,0.8-0.4,1.3v3.2h-1.4v-8.9h1.4v3.9
			h0c0.5-0.8,1.1-1.1,1.9-1.1c1.3,0,2,0.8,2,2.4V175.6z"/>
		<path class="st19" d="M438.8,175.6h-1.5l-0.8-2.1h-3.3l-0.7,2.1h-1.5l3.1-8.4h1.6L438.8,175.6z M436.1,172.4L435,169
			c0-0.1-0.1-0.3-0.1-0.5h0c0,0.2-0.1,0.4-0.1,0.5l-1.2,3.4H436.1z"/>
		<path class="st19" d="M441.3,172.6v3h-1.4v-8.4h2.5c1,0,1.7,0.2,2.2,0.7s0.8,1.1,0.8,1.9s-0.3,1.5-0.8,2s-1.3,0.8-2.3,0.8H441.3z
			 M441.3,168.4v3.1h0.9c0.6,0,1.1-0.1,1.4-0.4s0.5-0.7,0.5-1.2c0-1-0.6-1.5-1.7-1.5H441.3z"/>
		<path class="st19" d="M448.4,175.6H447v-8.4h1.4V175.6z"/>
	</g>
	<g>
		<path class="st17" d="M191.7,3.2h1.9v0.8h-1.9v0.9c0,2-0.4,3.4-1.3,4.3c-0.7,0.7-1.8,1.3-3.3,1.7l-0.5-0.7
			c1.5-0.3,2.6-0.9,3.2-1.7c0.6-0.8,0.9-2,0.9-3.5v-1h-3v3.2h-0.9V4.1H185V3.2h1.8V0.9h0.9v2.4h3V0.8h0.9V3.2z"/>
		<path class="st17" d="M198.6,4.5c-0.9,0.7-2.1,1.5-3.4,2.3l-0.5-0.7c1.3-0.7,2.6-1.6,3.7-2.6c1.1-0.9,1.9-1.8,2.7-2.8l0.8,0.5
			c-0.7,0.9-1.5,1.8-2.4,2.6v7.1h-0.9V4.5z"/>
		<path class="st17" d="M203.9,1.9c1.1,0.6,2.1,1.2,2.8,1.8l-0.6,0.8c-0.7-0.6-1.6-1.2-2.8-1.9L203.9,1.9z M210,2.5l0.9,0.4
			c-0.4,2.1-1.1,3.7-2.2,5c-1.2,1.3-2.8,2.2-4.8,2.8l-0.4-0.8C207.2,8.9,209.4,6.4,210,2.5z"/>
		<path class="st17" d="M215.9,4.5c-0.9,0.7-2.1,1.5-3.4,2.3L212,6.1c1.3-0.7,2.6-1.6,3.7-2.6c1.1-0.9,1.9-1.8,2.7-2.8l0.8,0.5
			c-0.7,0.9-1.5,1.8-2.4,2.6v7.1h-0.9V4.5z"/>
		<path class="st17" d="M221.2,1.9c1.1,0.6,2.1,1.2,2.8,1.8l-0.6,0.8c-0.7-0.6-1.6-1.2-2.8-1.9L221.2,1.9z M227.3,2.5l0.9,0.4
			c-0.4,2.1-1.1,3.7-2.2,5c-1.2,1.3-2.8,2.2-4.8,2.8l-0.4-0.8C224.5,8.9,226.7,6.4,227.3,2.5z"/>
	</g>
	<g>
		<path class="st17" d="M207,38.1h-1v-8.4h1V38.1z"/>
		<path class="st17" d="M209.2,38.1v-8.4h2.3c3,0,4.4,1.4,4.4,4.1c0,1.3-0.4,2.3-1.2,3.1s-1.9,1.2-3.3,1.2H209.2z M210.2,30.6v6.6
			h1.3c1.1,0,2-0.3,2.6-0.9s0.9-1.4,0.9-2.5c0-2.2-1.1-3.2-3.4-3.2H210.2z"/>
		<path class="st17" d="M222.9,32.9v5.7H222V28.6h0.9V32c1.9,0.5,3.4,1.2,4.6,1.9l-0.5,0.9C225.9,34.1,224.6,33.4,222.9,32.9z"/>
		<path class="st17" d="M228.7,33.2h6.5v0.9h-6.5V33.2z"/>
		<path class="st17" d="M239.4,30.6c-0.6,1.3-1.3,2.5-2.2,3.5l-0.7-0.5c1.3-1.4,2.1-3,2.6-5l0.9,0.1c-0.1,0.3-0.2,0.7-0.3,1.1h4.2
			c-0.4,2.8-1.1,4.9-2.3,6.3c-0.9,1.1-2.2,2-3.8,2.7l-0.5-0.6c1.7-0.7,3-1.6,3.8-2.8c0.8-1.2,1.4-2.7,1.7-4.7H239.4z"/>
		<path class="st17" d="M246.2,29.6c1.1,0.6,2.1,1.2,2.8,1.8l-0.6,0.8c-0.7-0.6-1.6-1.2-2.8-1.9L246.2,29.6z M252.2,30.2l0.9,0.4
			c-0.4,2.1-1.1,3.7-2.2,5c-1.2,1.3-2.8,2.2-4.8,2.8l-0.4-0.8C249.4,36.6,251.6,34.2,252.2,30.2z"/>
	</g>
	<g>
		<path class="st17" d="M187.5,64.1v5.7h-0.9V59.7h0.9v3.5c1.9,0.5,3.4,1.2,4.6,1.9l-0.5,0.9C190.5,65.2,189.2,64.6,187.5,64.1z"/>
		<path class="st17" d="M193.2,64.4h6.5v0.9h-6.5V64.4z"/>
		<path class="st17" d="M203.8,61.7c-0.6,1.3-1.3,2.5-2.2,3.5l-0.7-0.5c1.3-1.4,2.1-3,2.6-5l0.9,0.1c-0.1,0.3-0.2,0.7-0.3,1.1h4.2
			c-0.4,2.8-1.1,4.9-2.3,6.3c-0.9,1.1-2.2,2-3.8,2.7l-0.5-0.6c1.7-0.7,3-1.6,3.8-2.8c0.8-1.2,1.4-2.7,1.7-4.7H203.8z"/>
		<path class="st17" d="M210.5,60.8c1.1,0.6,2.1,1.2,2.8,1.8l-0.6,0.8c-0.7-0.6-1.6-1.2-2.8-1.9L210.5,60.8z M216.5,61.4l0.9,0.4
			c-0.4,2.1-1.1,3.7-2.2,5c-1.2,1.3-2.8,2.2-4.8,2.8l-0.4-0.8C213.8,67.8,215.9,65.4,216.5,61.4z"/>
		<path class="st17" d="M223.5,61.5c-0.2,2.7-0.6,4.8-1.3,6.3c-0.4,0.8-0.9,1.3-1.6,1.3c-0.6,0-1.1-0.3-1.4-0.9
			c-0.3-0.6-0.5-1.4-0.5-2.4c0-0.8,0.1-1.6,0.4-2.2c0.2-0.6,0.5-1.1,0.9-1.5c0.4-0.4,0.9-0.7,1.5-1c0.5-0.2,1.1-0.3,1.7-0.3
			c1.4,0,2.4,0.4,3,1.3c0.6,0.8,0.8,1.8,0.8,3.3c0,1.2-0.3,2.1-1,2.9c-0.6,0.8-1.6,1.3-2.8,1.5l-0.4-0.7c2.2-0.4,3.3-1.7,3.3-3.9
			c0-1.3-0.3-2.2-0.9-2.8C224.8,61.7,224.2,61.5,223.5,61.5z M222.6,61.6c-0.4,0-0.8,0.2-1.1,0.3c-0.3,0.2-0.6,0.4-0.9,0.8
			c-0.7,0.8-1,1.8-1,3.1c0,0.8,0.1,1.4,0.4,1.8c0.2,0.4,0.4,0.5,0.6,0.5c0.2,0,0.4-0.1,0.5-0.2c0.1-0.1,0.3-0.3,0.4-0.7
			C222.1,65.8,222.4,63.9,222.6,61.6z"/>
		<path class="st17" d="M234.1,60.6C234.1,60.6,234,60.6,234.1,60.6c-0.1,0.1-0.1,0.1-0.2,0.1c-0.3,0-0.5,0-0.8,0v8.1l0,1.3
			c0,0.1,0,0.1-0.1,0.1h-0.6c-0.1,0-0.1,0-0.1-0.1l0-1.3v-1.2c-1,0.4-2.1,0.7-3.2,1c-0.3,0.1-0.4,0.1-0.5,0.2c0,0-0.1,0.1-0.2,0.1
			c0,0-0.1,0-0.1-0.1c-0.1-0.2-0.1-0.5-0.2-0.7c0.3,0,0.7-0.1,1-0.2l0.2,0v-7.1c-0.3,0-0.5,0-0.7,0c-0.1,0-0.2,0-0.2,0
			c-0.1,0-0.1,0-0.1-0.1v-0.5c0-0.1,0-0.1,0.1-0.1l1.5,0h2.4l1.5,0c0.1,0,0.1,0,0.1,0.1V60.6z M232.3,62.4v-1.8h-2.2v1.8H232.3z
			 M232.3,64.8V63h-2.2v1.8H232.3z M232.3,66.9v-1.5h-2.2v2.2C231,67.3,231.7,67.1,232.3,66.9z M239.4,69.3
			c-0.2,0.1-0.3,0.3-0.4,0.4c-0.1,0.1-0.1,0.1-0.1,0.1c0,0-0.1,0-0.2-0.1c-0.9-0.7-1.6-1.5-2.2-2.3c-0.7,0.9-1.5,1.6-2.6,2.4
			c-0.1,0.1-0.2,0.1-0.2,0.1s-0.1-0.1-0.2-0.2c-0.1-0.1-0.2-0.3-0.3-0.4c1.2-0.7,2.1-1.5,2.8-2.6c-0.8-1.4-1.4-3-1.6-4.9
			c-0.2,0-0.4,0-0.6,0c-0.1,0-0.2,0-0.2,0c-0.1,0-0.1,0-0.1-0.1v-0.5c0-0.1,0-0.1,0.1-0.1l1.4,0h2.8c0.1,0,0.2,0,0.3,0
			c0,0,0.1,0,0.1,0c0.1,0,0.2,0.1,0.4,0.3c0.1,0.1,0.2,0.3,0.2,0.3c0,0,0,0.1-0.1,0.2c-0.1,0.1-0.1,0.2-0.1,0.5
			c-0.3,1.7-0.9,3.2-1.7,4.5C237.5,67.8,238.4,68.6,239.4,69.3z M237.9,61.9h-2.7c0.2,1.7,0.7,3.2,1.3,4.3
			C237.2,65,237.7,63.6,237.9,61.9z"/>
		<path class="st17" d="M243.4,62.5c0,0.1,0,0.1-0.1,0.1c-0.1,0.1-0.2,0.2-0.3,0.4c-0.1,0.3-0.3,0.6-0.6,0.9v4.6l0,1.6
			c0,0.1,0,0.1-0.1,0.1h-0.6c-0.1,0-0.1,0-0.1-0.1l0-1.6v-2.2c0-0.1,0-0.6,0-1.5c-0.4,0.4-0.7,0.8-1.1,1.1c-0.1,0.1-0.1,0.1-0.2,0.1
			c0,0-0.1,0-0.1-0.1c-0.1-0.2-0.2-0.3-0.3-0.4c1-0.9,1.8-1.8,2.4-3c0.1-0.2,0.2-0.4,0.2-0.6c0.2,0.1,0.4,0.2,0.6,0.3
			C243.3,62.4,243.4,62.4,243.4,62.5z M243.3,60c0,0,0,0.1-0.1,0.1c-0.1,0.1-0.2,0.2-0.3,0.3c-0.6,0.8-1.3,1.6-2.1,2.2
			c-0.1,0.1-0.2,0.1-0.2,0.1c0,0-0.1-0.1-0.2-0.2c-0.1-0.1-0.2-0.3-0.3-0.4c0.9-0.5,1.6-1.3,2.2-2.2c0.1-0.2,0.2-0.4,0.3-0.6
			c0.2,0.1,0.4,0.2,0.6,0.3C243.2,59.9,243.3,59.9,243.3,60z M250.7,66.7C250.7,66.7,250.7,66.8,250.7,66.7l-1.7,0.1v0.8l0,1.5
			c0,0.4-0.1,0.6-0.3,0.8c-0.2,0.1-0.7,0.2-1.5,0.2c-0.1,0-0.2,0-0.2,0c0,0,0-0.1-0.1-0.2c-0.1-0.2-0.2-0.4-0.2-0.5
			c0.4,0,0.8,0.1,1.1,0.1c0.1,0,0.1,0,0.2,0c0.3,0,0.4-0.2,0.4-0.4v-2.1h-3.4l-1.7,0c-0.1,0-0.1,0-0.1-0.1v-0.5c0-0.1,0-0.1,0.1-0.1
			l1.7,0h3.4v-1h-3.3l-1.7,0c-0.1,0-0.1,0-0.1-0.1v-0.5c0-0.1,0-0.1,0.1-0.1l1.7,0h3.9l1.7,0c0.1,0,0.1,0,0.1,0.1V65
			c0,0.1,0,0.1-0.1,0.1l-1.6,0v1l1.6,0c0.1,0,0.1,0,0.1,0.1V66.7z M249.6,63.6C249.6,63.6,249.5,63.7,249.6,63.6l-1.5,0.1H246
			l-1.4,0c-0.1,0-0.1,0-0.1-0.1l0-1.1v-1.4l0-1.1c0-0.1,0-0.1,0.1-0.1l1.4,0h2.1l1.4,0c0.1,0,0.1,0,0.1,0.1l0,1.1v1.4L249.6,63.6z
			 M246.3,68.5C246.4,68.5,246.4,68.6,246.3,68.5c0,0.1,0,0.1-0.1,0.2l-0.3,0.2c-0.1,0.1-0.1,0.1-0.1,0.1s0,0-0.1-0.1
			c-0.3-0.5-0.7-0.9-1.2-1.3c0,0,0-0.1,0-0.1c0,0,0-0.1,0.1-0.1l0.3-0.2c0,0,0.1,0,0.1,0s0,0,0.1,0C245.6,67.6,246,68.1,246.3,68.5z
			 M248.9,61.5v-1h-3.7v1H248.9z M248.9,63v-1h-3.7v1H248.9z"/>
	</g>
	<g>
		<path class="st17" d="M205.8,89.3h7.8c-0.1,1.1-0.4,2-0.7,2.7c-0.3,0.7-0.8,1.3-1.4,1.8l-0.7-0.6c0.5-0.4,0.9-0.9,1.3-1.5
			c0.3-0.5,0.5-1,0.5-1.6h-6.7V89.3z M206.1,97.9c1-0.5,1.8-1.1,2.2-1.8c0.4-0.8,0.7-1.8,0.7-3.2v-1.9h0.9V93c0,1.6-0.3,2.9-1,3.8
			c-0.5,0.7-1.2,1.3-2.2,1.8L206.1,97.9z"/>
		<path class="st17" d="M217.8,90.6c-0.6,1.3-1.3,2.5-2.2,3.5l-0.7-0.5c1.3-1.4,2.1-3,2.6-5l0.9,0.1c-0.1,0.3-0.2,0.7-0.3,1.1h4.2
			c-0.4,2.8-1.1,4.9-2.3,6.3c-0.9,1.1-2.2,2-3.8,2.7l-0.5-0.6c1.7-0.7,3-1.6,3.8-2.8c0.8-1.2,1.4-2.7,1.7-4.7H217.8z"/>
		<path class="st17" d="M226,91.4v-2.8h0.9v2.6l4.6-1l0.5,0.6c-0.6,1.8-1.5,3.3-2.5,4.5l-0.8-0.5c1.1-1.3,1.8-2.5,2.2-3.7l-4,0.9
			v4.3c0,0.5,0.1,0.9,0.4,1c0.2,0.1,0.7,0.2,1.5,0.2c0.9,0,1.8,0,2.8-0.1v0.9c-0.9,0.1-1.8,0.1-3,0.1c-1.1,0-1.8-0.2-2.2-0.5
			c-0.3-0.3-0.4-0.8-0.4-1.5v-4.1l-2,0.5l-0.2-0.8L226,91.4z"/>
		<path class="st17" d="M238.1,94.8c-1,1.6-2.5,2.9-4.3,3.8l-0.5-0.7c1.7-0.9,3-2,3.9-3.4c0.8-1.2,1.4-2.6,1.8-4.3h-5v-0.8h6.2
			c-0.4,1.8-0.9,3.3-1.6,4.6c1.1,1.3,2,2.6,2.8,4l-0.9,0.6C239.9,97.3,239.1,96,238.1,94.8z"/>
		<path class="st17" d="M248.1,93v5.7h-0.9V88.6h0.9v3.5c1.9,0.5,3.4,1.2,4.6,1.9l-0.5,0.9C251.2,94.1,249.8,93.5,248.1,93z"/>
		<path class="st17" d="M253.9,93.3h6.5v0.9h-6.5V93.3z"/>
		<path class="st17" d="M264.5,90.6c-0.6,1.3-1.3,2.5-2.2,3.5l-0.7-0.5c1.3-1.4,2.1-3,2.6-5l0.9,0.1c-0.1,0.3-0.2,0.7-0.3,1.1h4.2
			c-0.4,2.8-1.1,4.9-2.3,6.3c-0.9,1.1-2.2,2-3.8,2.7l-0.5-0.6c1.7-0.7,3-1.6,3.8-2.8c0.8-1.2,1.4-2.7,1.7-4.7H264.5z"/>
		<path class="st17" d="M271.2,89.7c1.1,0.6,2.1,1.2,2.8,1.8l-0.6,0.8c-0.7-0.6-1.6-1.2-2.8-1.9L271.2,89.7z M277.3,90.3l0.9,0.4
			c-0.4,2.1-1.1,3.7-2.2,5c-1.2,1.3-2.8,2.2-4.8,2.8l-0.4-0.8C274.5,96.7,276.7,94.2,277.3,90.3z"/>
	</g>
	<g>
		<path class="st17" d="M191.8,190.2h-1v-3.8h-4.3v3.8h-1v-8.4h1v3.7h4.3v-3.7h1V190.2z"/>
		<path class="st17" d="M199,182.7h-2.4v7.5h-1v-7.5h-2.4v-0.9h5.8V182.7z"/>
		<path class="st17" d="M205.2,182.7h-2.4v7.5h-1v-7.5h-2.4v-0.9h5.8V182.7z"/>
		<path class="st17" d="M207.5,187v3.2h-1v-8.4h2.3c0.9,0,1.6,0.2,2.1,0.7s0.7,1.1,0.7,1.9s-0.3,1.4-0.8,2s-1.3,0.8-2.2,0.8H207.5z
			 M207.5,182.7v3.4h1c0.7,0,1.2-0.2,1.6-0.5s0.5-0.7,0.5-1.3c0-1.1-0.7-1.7-2-1.7H207.5z"/>
		<path class="st17" d="M226.4,182.4C226.4,182.5,226.4,182.5,226.4,182.4l-1.8,0.1h-6.8v1.6c0,1.3-0.1,2.5-0.2,3.4
			c-0.2,1.1-0.5,2.2-1,3.1c0,0.1-0.1,0.1-0.1,0.1c0,0-0.1,0-0.2-0.1c-0.1-0.1-0.3-0.3-0.5-0.4c0.5-0.8,0.9-1.8,1-3
			c0.1-0.8,0.2-1.8,0.2-3.3l0-2.1c0-0.1,0-0.1,0.1-0.1l1.7,0h2.4v-0.8c0-0.4,0-0.7-0.1-1c0.3,0,0.6,0,0.8,0.1c0.1,0,0.1,0,0.1,0.1
			c0,0,0,0.1-0.1,0.2c0,0.1-0.1,0.3-0.1,0.6v0.8h2.6l1.7,0c0.1,0,0.1,0,0.1,0.1V182.4z M219.7,186.2c-0.2,1.2-0.6,2.3-1.1,3.2
			c0,0,0,0.1-0.1,0.1c0,0-0.1,0-0.1-0.1l-0.4-0.2c-0.1,0-0.1-0.1-0.1-0.1c0,0,0,0,0-0.1c0.5-0.9,0.8-1.9,1-3c0-0.1,0-0.1,0.1-0.1
			c0,0,0.1,0,0.1,0l0.3,0.1C219.7,186.1,219.7,186.1,219.7,186.2C219.7,186.2,219.7,186.2,219.7,186.2z M224.8,188.8
			c0,0.6-0.1,1-0.2,1.2c-0.1,0.2-0.2,0.3-0.4,0.5c-0.3,0.2-0.8,0.3-1.6,0.3c-0.9,0-1.4-0.1-1.7-0.3c-0.2-0.2-0.3-0.5-0.3-1v-2.7
			c0-0.7,0-1.2-0.1-1.5c0.3,0,0.6,0,0.8,0.1c0.1,0,0.2,0.1,0.2,0.1c0,0,0,0.1-0.1,0.2c0,0.1-0.1,0.5-0.1,1.1v2.3c0,0.4,0,0.6,0,0.6
			c0,0.1,0.1,0.2,0.2,0.3c0.1,0.1,0.5,0.2,1.1,0.2c0.6,0,1-0.1,1.2-0.2c0.1-0.1,0.2-0.3,0.3-0.6c0-0.2,0.1-0.6,0.1-1.1
			c0.1,0.1,0.3,0.2,0.5,0.2c0.1,0,0.2,0.1,0.2,0.2C224.8,188.7,224.8,188.7,224.8,188.8z M223.6,184.6
			C223.6,184.7,223.6,184.7,223.6,184.6c0.1,0.1,0,0.1,0,0.2l-0.3,0.3c-0.1,0.1-0.1,0.1-0.1,0.1c0,0,0,0-0.1,0
			c-0.7-0.6-1.4-1.2-2.3-1.6c0,0,0,0,0,0c0,0,0-0.1,0.1-0.1l0.2-0.3c0.1-0.1,0.1-0.1,0.1-0.1c0,0,0,0,0.1,0
			C222.1,183.6,222.9,184.1,223.6,184.6z M226.6,188.9C226.6,188.9,226.6,188.9,226.6,188.9c0,0.1,0,0.1-0.2,0.2l-0.3,0.2
			c-0.1,0-0.1,0.1-0.2,0.1c0,0,0,0-0.1-0.1c-0.3-1.1-0.7-2.2-1.2-3.1c0,0,0,0,0-0.1c0,0,0-0.1,0.1-0.1l0.3-0.1
			c0.1,0,0.1-0.1,0.1-0.1s0,0,0.1,0.1C225.8,186.8,226.3,187.8,226.6,188.9z"/>
		<path class="st17" d="M238.9,186.2c-0.1,0.1-0.3,0.3-0.4,0.5c-0.1,0.1-0.1,0.2-0.2,0.2c0,0-0.1,0-0.2,0c-1.1-0.3-2.1-0.7-3-1.3
			c-0.8-0.5-1.5-1-2-1.5c-1.2,1.2-2.8,2.2-4.8,2.9c-0.1,0-0.2,0.1-0.2,0.1c0,0-0.1-0.1-0.2-0.2c-0.1-0.2-0.2-0.3-0.3-0.4
			c2.1-0.6,3.7-1.5,4.8-2.6c0.2-0.2,0.3-0.4,0.4-0.5c0.3,0,0.5,0.1,0.7,0.2c0.1,0,0.2,0.1,0.2,0.1c0,0.1,0,0.1-0.1,0.1l-0.1,0
			c0.6,0.6,1.4,1.2,2.4,1.6C236.9,185.6,237.9,185.9,238.9,186.2z M233.1,182c0,0.1,0,0.1-0.1,0.1l-1.2,0h-0.5
			c0.3,0.5,0.5,0.9,0.7,1.4c0,0,0,0,0,0c0,0,0,0.1-0.1,0.1l-0.4,0.1c-0.1,0-0.1,0-0.1,0c0,0-0.1,0-0.1-0.1c-0.2-0.6-0.4-1.1-0.7-1.6
			h-0.8c-0.3,0.5-0.7,0.9-1.1,1.3c-0.1,0.1-0.2,0.1-0.2,0.1c0,0-0.1,0-0.2-0.1c-0.1-0.1-0.2-0.2-0.4-0.3c0.7-0.6,1.3-1.4,1.8-2.4
			c0.1-0.2,0.1-0.3,0.2-0.6c0.3,0.1,0.5,0.1,0.7,0.2c0.1,0,0.1,0.1,0.1,0.1c0,0,0,0.1-0.1,0.2c0,0-0.1,0.1-0.2,0.3
			c0,0-0.1,0.1-0.2,0.3c-0.1,0.1-0.1,0.2-0.1,0.2h1.7l1.2,0c0.1,0,0.1,0,0.1,0.1V182z M236.7,190.8
			C236.7,190.9,236.7,190.9,236.7,190.8l-0.7,0.1c-0.1,0-0.1,0-0.1-0.1v-0.4h-5.3v0.5c0,0.1,0,0.1-0.1,0.1H230c-0.1,0-0.1,0-0.1-0.1
			l0-1.7v-0.7l0-1c0-0.1,0-0.1,0.1-0.1l1.6,0h3.3l1.6,0c0.1,0,0.1,0,0.1,0.1l0,0.9v0.8L236.7,190.8z M236,189.8v-1.7h-5.3v1.7H236z
			 M235.5,186.4C235.5,186.5,235.5,186.5,235.5,186.4l-1.4,0.1h-1.6l-1.3,0c-0.1,0-0.1,0-0.1-0.1v-0.5c0-0.1,0-0.1,0.1-0.1l1.3,0
			h1.6l1.3,0c0.1,0,0.1,0,0.1,0.1V186.4z M238.5,182c0,0.1,0,0.1-0.1,0.1l-1.5,0h-1c0.2,0.4,0.4,0.9,0.6,1.3c0,0,0,0,0,0
			c0,0,0,0.1-0.1,0.1l-0.4,0.1c-0.1,0-0.1,0-0.1,0c0,0-0.1,0-0.1-0.1c-0.2-0.6-0.4-1.1-0.7-1.6h-1c-0.2,0.3-0.4,0.6-0.6,0.9
			c-0.1,0.1-0.1,0.1-0.2,0.1c0,0-0.1,0-0.2-0.1c-0.1-0.1-0.2-0.2-0.4-0.2c0.5-0.5,0.9-1.2,1.2-1.9c0.1-0.2,0.1-0.4,0.1-0.5
			c0.3,0.1,0.5,0.1,0.7,0.2c0.1,0,0.1,0.1,0.1,0.1c0,0.1,0,0.1-0.1,0.2c0,0-0.1,0.1-0.2,0.3c-0.1,0.2-0.1,0.3-0.2,0.4h2.4l1.5,0
			c0.1,0,0.1,0,0.1,0.1V182z"/>
	</g>
</g>
</svg>
