<?xml version="1.0" encoding="utf-8"?>
<!-- Generator: Adobe Illustrator 23.0.1, SVG Export Plug-In . SVG Version: 6.00 Build 0)  -->
<svg version="1.1" xmlns="http://www.w3.org/2000/svg" xmlns:xlink="http://www.w3.org/1999/xlink" x="0px" y="0px"
	 viewBox="0 0 253.9 263.9" style="enable-background:new 0 0 253.9 263.9;" xml:space="preserve">
<style type="text/css">
	.st0{fill:#FFFFFF;}
	.st1{fill:#0072C6;}
	.st2{clip-path:url(#SVGID_2_);}
	.st3{clip-path:url(#SVGID_4_);}
	.st4{fill:#E5E5E5;}
	.st5{clip-path:url(#SVGID_6_);fill:#3C3C41;}
	.st6{fill:#EBEBEB;}
	.st7{fill:#3C3C41;}
	.st8{fill:#75757A;}
	.st9{opacity:0.2;fill:#FFFFFF;enable-background:new    ;}
	.st10{fill:none;stroke:#000000;stroke-miterlimit:10;}
	.st11{fill:#EBEBEB;stroke:#000000;stroke-width:0.75;stroke-miterlimit:10;}
	.st12{display:none;}
	.st13{display:inline;}
	.st14{clip-path:url(#SVGID_8_);}
	.st15{clip-path:url(#SVGID_10_);}
	.st16{clip-path:url(#SVGID_12_);fill:#3C3C41;}
	.st17{fill:none;}
	.st18{fill:#1E1E1E;}
	.st19{fill:#1E1E1E;stroke:#1E1E1E;stroke-width:6.000000e-02;stroke-miterlimit:10;}
	.st20{fill:#FFFFFF;stroke:#FFFFFF;stroke-width:5.000000e-02;stroke-miterlimit:10;}
</style>
<g id="bg">
	<g id="Shapes_1_">
		<g id="Wrench_tool_x28_s_x29__1_">
		</g>
		<g id="user2_9_">
		</g>
		<g id="user2_8_">
		</g>
		<g id="user2_7_">
		</g>
		<g id="user2_6_">
		</g>
		<g id="user2_5_">
		</g>
		<g id="Internet_2_1_">
		</g>
		<g id="Enterprise_1_">
		</g>
		<g id="Tunnel__x28_stackable_x29__1_">
		</g>
		<g id="New_Symbol_1_">
		</g>
		<g id="New_Symbol_1_1_">
		</g>
		<g id="Files_1_">
		</g>
		<g id="BlobBlock_1_">
		</g>
		<g id="E_x5F_Enterprise_1_">
		</g>
		<g id="E_x5F_AD_FS_1_">
		</g>
		<g id="C_x5F_Azure_Active_Directory_1_">
		</g>
		<g>
			<g>
				<g id="paths_1_">
					<g id="Access_control_1_">
					</g>
					<g id="Azure_active_directory_1_">
					</g>
					<g id="API_Management_1_">
					</g>
					<g id="Azure_automation_1_">
					</g>
					<g id="Azure_SQL_database_1_">
					</g>
					<g id="Azure_subscription_1_">
					</g>
					<g id="Backup_service_1_">
					</g>
					<g id="Bitbucket_code_source_1_">
					</g>
					<g id="Azure_cache_1_">
					</g>
					<g id="Content_delivery_network__x28_CDN_x29__1_">
					</g>
					<g id="Cloud_service_1_">
					</g>
					<g id="CodePlex_1_">
					</g>
					<g id="Dropbox_code_source_1_">
					</g>
					<g id="Express_route_1_">
					</g>
					<g id="Git_repository_1_">
					</g>
					<g id="GitHub_code_1_">
					</g>
					<g id="HD_Insight_1_">
					</g>
					<g id="Health_monitoring_1_">
					</g>
					<g id="Healthy_1_">
					</g>
					<g id="BizTalk_hybrid_connection_1_">
					</g>
					<g id="Hybrid_connection_manager_for_BizTalk_hybrid_connection_1_">
					</g>
					<g id="Hyper-V_recovery_manager_1_">
					</g>
					<g id="Machine_learning_1_">
					</g>
					<g id="Media_services_1_">
					</g>
					<g id="Microsoft_account_1_">
					</g>
					<g id="Mobile_services_1_">
					</g>
					<g id="Multi-factor_authentication_1_">
					</g>
					<g id="MySQL_database_1_">
					</g>
					<g id="Notification_hub_1_">
					</g>
					<g id="Notification_topic_1_">
					</g>
					<g id="Cloud_Office_365_1_">
					</g>
					<g id="Office_365_1_">
					</g>
					<g id="OS_image_1_">
					</g>
					<g id="Remote_app_1_">
					</g>
					<g id="Task_scheduler_1_">
					</g>
					<g id="Azure_SDK_1_">
					</g>
					<g id="Service_bus_1_">
					</g>
					<g id="Service_bus_queue_1_">
					</g>
					<g id="Service_bus_relay_1_">
					</g>
					<g id="Service_bus_topic_1_">
					</g>
					<g id="Service_endpoint_1_">
					</g>
					<g id="Custom_create_1_">
					</g>
					<g id="SQL_data_sync_1_">
					</g>
					<g id="SQL_reporting_1_">
					</g>
					<g id="Startup_task_1_">
					</g>
					<g id="Windows_Azure_storage_1_">
					</g>
					<g id="Storage_blob_1_">
					</g>
					<g id="Storage_table_1_">
					</g>
					<g id="Storage_queue_1_">
					</g>
					<g id="StorSimple_1_">
					</g>
					<g id="Traffic_manager_1_">
					</g>
					<g id="VHD_1_">
					</g>
					<g id="VHD_data_disk_1_">
					</g>
					<g id="Virtual_machine_1_">
					</g>
					<g id="Team_foundation_1_">
					</g>
					<g id="Azure_web_site_1_">
						<g>
							<title>Sheet.40</title>
							<title>Sheet.41</title>
							<g id="group42-80_1_" transform="translate(6.08175,-5.25525)">
								<title>Sheet.42</title>
								<g id="group43-81_1_" transform="translate(0.41925,-0.2115)">
									<title>Sheet.43</title>
									<title>Sheet.44</title>
									<title>Sheet.45</title>
									<title>Sheet.46</title>
									<title>Sheet.47</title>
									<title>Sheet.48</title>
									<title>Sheet.49</title>
									<title>Sheet.50</title>
									<title>Sheet.51</title>
									<title>Sheet.52</title>
								</g>
								<title>Sheet.53</title>
								<title>Sheet.54</title>
								<title>Sheet.55</title>
							</g>
						</g>
					</g>
				</g>
			</g>
		</g>
		<rect x="8.8" class="st0" width="245" height="263.9"/>
		<rect x="79.1" class="st1" width="104.7" height="90"/>
		<g>
			<path d="M62.3,100.3h-0.5V83.2c0-0.9,0.7-1.6,1.6-1.6h9.7v0.5h-9.7c-0.6,0-1.1,0.5-1.1,1.1l0,0L62.3,100.3L62.3,100.3z"/>
			<path d="M90.3,100.3h-0.5V83.2c0-0.6-0.5-1.1-1.1-1.1H73.1v-0.5h15.6c0.9,0,1.6,0.7,1.6,1.6L90.3,100.3z"/>
			<polygon points="72.2,98.8 64,98.8 64,83.7 71.4,83.7 71.4,84.3 64.5,84.3 64.5,98.2 72.2,98.2 			"/>
			<polygon points="88,98.8 82.8,98.8 82.8,98.2 87.5,98.2 87.5,84.3 80.8,84.3 80.8,83.7 88,83.7 			"/>
			<path d="M94.4,103.2h-8v-0.5h8c0.6,0,1.1-0.5,1.1-1.1v-0.9h-9.1v-0.5H96v1.4C96,102.4,95.3,103.2,94.4,103.2z"/>
			<path d="M72,103.2H57.6c-0.9,0-1.6-0.7-1.6-1.6v-1.4h16.2v0.5H56.5v0.9c0,0.6,0.5,1.1,1.1,1.1H72L72,103.2z"/>
			<rect x="81.1" y="83.7" width="5.5" height="0.5"/>
			<rect x="65.3" y="83.7" width="15.5" height="0.5"/>
			<path d="M79.6,102.6H79v-5.1c0-0.8-0.7-1.5-1.5-1.5S76,96.7,76,97.5l0,0v5.1h-0.5v-5.1c0-1.1,0.9-2,2-2c1.1,0,2,0.9,2,2V102.6z"
				/>
			<path d="M83.1,102.6h-0.5v-3.7c0-0.8-0.7-1.5-1.5-1.5s-1.5,0.7-1.5,1.5l0,0v3.7H79v-3.7c0-1.1,0.9-2,2-2c1.1,0,2,0.9,2,2V102.6z"
				/>
			<path d="M86.6,112.8h-0.5v-12.5c0-0.8-0.7-1.5-1.5-1.5s-1.5,0.7-1.5,1.5l0,0v2.2h-0.5v-2.2c0-1.1,0.9-2,2-2s2,0.9,2,2V112.8z"/>
			<path d="M86.6,114.3l-14.5,0l-0.2-0.1l0,0l-6.4-6.4c-1-1-1-2.7,0-3.8c1-1,2.7-1,3.8,0l2.8,2.7V91c0-1.1,0.9-2,2-2
				c1.1,0,2,0.9,2,2v9.7h-0.5V91c0-0.8-0.7-1.5-1.5-1.5s-1.5,0.7-1.5,1.5l0,0v16.9l-3.7-3.5c-0.8-0.9-2.1-0.9-3-0.1s-0.9,2.1-0.1,3
				c0,0,0.1,0.1,0.1,0.1l6.4,6.4l0.1,0h13.8v-7.1h0.5L86.6,114.3z"/>
		</g>
		<g>
			<g>
				<g>
					<g>
						<defs>
							<rect id="SVGID_1_" x="62" y="176.5" width="54" height="54"/>
						</defs>
						<clipPath id="SVGID_2_">
							<use xlink:href="#SVGID_1_"  style="overflow:visible;"/>
						</clipPath>
						<g class="st2">
							<path class="st0" d="M111.9,182.4H66.1c-1.8,0-3.3,1.4-3.3,3.2v28.2c0,1.8,1.5,3.2,3.3,3.2h45.8c1.8,0,3.2-1.4,3.3-3.2v-28.2
								C115.1,183.9,113.7,182.4,111.9,182.4z"/>
						</g>
					</g>
					<g>
						<defs>
							<rect id="SVGID_3_" x="62" y="176.5" width="54" height="54"/>
						</defs>
						<clipPath id="SVGID_4_">
							<use xlink:href="#SVGID_3_"  style="overflow:visible;"/>
						</clipPath>
						<g class="st3">
							<path class="st4" d="M115.2,185.4v8.9H62.8v-8.9c0-1.6,1.3-2.9,2.9-2.9h46.5C113.9,182.5,115.2,183.8,115.2,185.4z"/>
						</g>
					</g>
					<g>
						<defs>
							<rect id="SVGID_5_" x="62" y="176.5" width="54" height="54"/>
						</defs>
						<clipPath id="SVGID_6_">
							<use xlink:href="#SVGID_5_"  style="overflow:visible;"/>
						</clipPath>
						<path class="st5" d="M111.9,181.6L111.9,181.6H66.1c0,0,0,0,0,0c-2.2,0-4.1,1.8-4.1,4.1v28.2c0,2.2,1.9,4.1,4.1,4.1
							c0,0,0,0,0,0h22l-0.3,5.1H78l-2.5,1.7h27l-2.5-1.7h-9.8l-0.3-5.1h22h0c2.2,0,4.1-1.8,4.1-4.1v-28.2
							C116,183.4,114.1,181.6,111.9,181.6z M114.3,213.8c0,1.3-1.1,2.4-2.4,2.4c0,0,0,0,0,0H66.1h0c-1.3,0-2.4-1.1-2.4-2.4v-28.1
							c0-1.3,1.1-2.4,2.4-2.4h0h45.8c0,0,0,0,0,0c1.3,0,2.4,1.1,2.4,2.4L114.3,213.8L114.3,213.8z"/>
					</g>
				</g>
			</g>
		</g>
		<g>
			<ellipse class="st6" cx="62.2" cy="217.9" rx="18.5" ry="18.5"/>
			<path class="st7" d="M62.2,237.3c-10.8,0-19.5-8.7-19.5-19.5s8.8-19.5,19.5-19.5s19.5,8.7,19.5,19.5S72.9,237.3,62.2,237.3z
				 M62.2,200.4c-9.6,0-17.5,7.8-17.5,17.5s7.8,17.5,17.5,17.5s17.5-7.8,17.5-17.5C79.7,208.2,71.8,200.4,62.2,200.4z"/>
		</g>
		<g>
			<path class="st8" d="M67.2,208.9c0,2.8-2.2,5-5,5s-5-2.2-5-5c0.1-2.8,2.3-5,5-5C65,203.9,67.2,206.1,67.2,208.9"/>
			<polygon class="st8" points="65.8,215.7 62.2,220.9 58.5,215.7 53.2,215.7 53.2,228.4 71.2,228.4 71.2,215.7 			"/>
			<path class="st9" d="M57.2,208.9c0,2.7,2.2,5,4.9,5l1.3-9.9c-0.4-0.2-0.8-0.2-1.2-0.2C59.4,203.9,57.2,206.1,57.2,208.9"/>
			<polygon class="st9" points="58.5,215.7 53.2,215.7 53.2,228.4 60.3,228.4 61.4,219.7 			"/>
		</g>
		<g>
			<g>
				<line class="st10" x1="76" y1="181.5" x2="76" y2="119.9"/>
				<g>
					<polygon points="79.7,121 76,114.5 72.3,121 					"/>
				</g>
			</g>
		</g>
		<g>
			<g>
				<line class="st10" x1="108.3" y1="176.2" x2="108.3" y2="90"/>
				<g>
					<polygon points="112.1,175.1 108.3,181.5 104.6,175.1 					"/>
				</g>
			</g>
		</g>
		<g>
			<rect x="193.5" y="190.4" class="st0" width="58" height="31.3"/>
			<g>
				<path class="st1" d="M253.9,183.3c0-0.6-0.5-1.1-1.1-1.1h-60.6c-0.6,0-1.1,0.5-1.1,1.1v37.9c0,0.6,0.5,1.1,1.1,1.1h60.6
					c0.6,0,1.1-0.5,1.1-1.1V183.3z M199.8,189.3h-3.1v-3.1h3.1V189.3z M206,189.3h-3.1v-3.1h3.1V189.3z M212.3,189.3h-3.1v-3.1h3.1
					V189.3z M193.5,191.6h58v28.2h-58L193.5,191.6L193.5,191.6z"/>
			</g>
		</g>
		<path d="M198.5,208.7c-2.9-3.9-7.5-5.9-11.9-5.9c-3.2,0-6.4,1-9.1,3.1c-6.6,5.1-7.9,14.4-2.8,21c2.9,3.9,7.4,5.9,11.9,5.9
			c3.2,0,6.4-1,9.1-3.1C202.3,224.7,203.6,215.3,198.5,208.7z M199.2,221.2c-0.5-0.4-1.3-1-2.3-1.8c0.3-0.9,0.3-1.9-0.3-2.7
			c-0.9-1.1-2.4-1.4-3.7-0.6c-1.3-1.2-2.8-2.5-4.3-4.1c4.5-2.5,7.9-2.2,8.2-2.2c0.1,0.1,0.1,0.1,0.1,0.2
			C199.5,213.3,200.2,217.5,199.2,221.2z M191,224.8c-0.1-0.4-0.2-0.7-0.5-1c-0.8-1.1-2.3-1.3-3.4-0.6c-1.1-0.6-2.3-1.4-3.5-2.3
			c-0.1-0.1-0.2-0.2-0.3-0.3c0.5-1.3,0.3-2.7-0.6-3.9c0,0-0.1-0.1-0.1-0.1c0.3-0.3,0.5-0.6,0.8-0.8c1.2-1.1,2.3-2.1,3.4-2.8l0,0
			c0,0,0,0,0,0c0,0,0,0-0.1,0c1.6,1.5,3.4,2.9,5,4.2c-0.4,0.9-0.4,2,0.2,2.9c1,1.3,2.7,1.4,4,0.6c0.1-0.1,0.1-0.1,0.2-0.2
			c1.2,0.8,2.1,1.5,2.6,1.8c-0.4,1-0.9,2-1.5,2.9C196.5,225.4,194.2,225.7,191,224.8z M195,207.9c-2-0.3-5.2-0.2-8.7,1.6
			c-1.2-1.3-2.4-2.6-3.7-4.1c1.3-0.4,2.6-0.6,4-0.6C189.6,204.8,192.6,205.9,195,207.9z M178.6,207.5c0.7-0.5,1.4-1,2.2-1.4
			c0.9,1.5,2.2,3,3.5,4.4c-1.2,0.8-2.4,1.8-3.6,3.1c-0.4,0.5-0.8,0.9-1.2,1.4c-0.6,0-1.3,0.1-1.9,0.5c-1.3-2.4-1.5-4.5-1.4-5.8
			C177,209,177.7,208.2,178.6,207.5z M174.8,212.3c0,1.4,0.2,3.1,1.3,4.9c-0.7,1.3-0.6,3,0.4,4.3l0,0c-0.3,1.3-0.5,2.6-0.6,3.7
			C173.1,221.3,172.9,216.4,174.8,212.3z M194.5,228.2c-2.4,1.8-5.2,2.7-7.9,2.7c-3,0-6-1-8.4-3.1c0-1.3,0.1-3,0.7-4.9
			c1,0.2,2,0,2.9-0.6c0.1,0.1,0.2,0.2,0.3,0.3c1.3,1,2.5,1.8,3.7,2.4c-0.1,0.7,0.1,1.4,0.5,1.9c0.9,1.1,2.6,1.4,3.7,0.5
			c0.3-0.2,0.5-0.4,0.6-0.7c2,0.4,3.7,0.5,5,0.5C195.3,227.6,194.9,227.9,194.5,228.2z"/>
		<g>
			<g>
				<line class="st10" x1="116" y1="191.5" x2="185.6" y2="191.5"/>
				<g>
					<polygon points="184.5,195.3 191,191.5 184.5,187.8 					"/>
				</g>
			</g>
		</g>
		<polygon class="st11" points="108.1,146.3 99.5,152.5 102.8,162.5 113.4,162.5 116.6,152.5 		"/>
		<polygon class="st11" points="141.2,181.6 132.6,187.9 135.9,197.9 146.4,197.9 149.7,187.9 		"/>
	</g>
</g>
<g id="src" class="st12">
	<g id="Shapes" class="st13">
		<g id="Wrench_tool_x28_s_x29_">
		</g>
		<g id="user2">
		</g>
		<g id="user2_1_">
		</g>
		<g id="user2_4_">
		</g>
		<g id="user2_3_">
		</g>
		<g id="user2_2_">
		</g>
		<g id="Internet_2">
		</g>
		<g id="Enterprise">
		</g>
		<g id="Tunnel__x28_stackable_x29_">
		</g>
		<g id="New_Symbol">
		</g>
		<g id="New_Symbol_1">
		</g>
		<g id="Files">
		</g>
		<g id="BlobBlock">
		</g>
		<g id="E_x5F_Enterprise">
		</g>
		<g id="E_x5F_AD_FS">
		</g>
		<g id="C_x5F_Azure_Active_Directory">
		</g>
		<g>
			<g>
				<g id="paths_89_">
					<g id="Access_control_146_">
					</g>
					<g id="Azure_active_directory_144_">
					</g>
					<g id="API_Management_142_">
					</g>
					<g id="Azure_automation_140_">
					</g>
					<g id="Azure_SQL_database_138_">
					</g>
					<g id="Azure_subscription_135_">
					</g>
					<g id="Backup_service_131_">
					</g>
					<g id="Bitbucket_code_source_128_">
					</g>
					<g id="Azure_cache_129_">
					</g>
					<g id="Content_delivery_network__x28_CDN_x29__125_">
					</g>
					<g id="Cloud_service_126_">
					</g>
					<g id="CodePlex_123_">
					</g>
					<g id="Dropbox_code_source_120_">
					</g>
					<g id="Express_route_121_">
					</g>
					<g id="Git_repository_117_">
					</g>
					<g id="GitHub_code_115_">
					</g>
					<g id="HD_Insight_112_">
					</g>
					<g id="Health_monitoring_108_">
					</g>
					<g id="Healthy_108_">
					</g>
					<g id="BizTalk_hybrid_connection_108_">
					</g>
					<g id="Hybrid_connection_manager_for_BizTalk_hybrid_connection_106_">
					</g>
					<g id="Hyper-V_recovery_manager_103_">
					</g>
					<g id="Machine_learning_103_">
					</g>
					<g id="Media_services_104_">
					</g>
					<g id="Microsoft_account_100_">
					</g>
					<g id="Mobile_services_97_">
					</g>
					<g id="Multi-factor_authentication_96_">
					</g>
					<g id="MySQL_database_93_">
					</g>
					<g id="Notification_hub_90_">
					</g>
					<g id="Notification_topic_86_">
					</g>
					<g id="Cloud_Office_365_87_">
					</g>
					<g id="Office_365_84_">
					</g>
					<g id="OS_image_81_">
					</g>
					<g id="Remote_app_77_">
					</g>
					<g id="Task_scheduler_75_">
					</g>
					<g id="Azure_SDK_73_">
					</g>
					<g id="Service_bus_70_">
					</g>
					<g id="Service_bus_queue_70_">
					</g>
					<g id="Service_bus_relay_70_">
					</g>
					<g id="Service_bus_topic_70_">
					</g>
					<g id="Service_endpoint_71_">
					</g>
					<g id="Custom_create_67_">
					</g>
					<g id="SQL_data_sync_68_">
					</g>
					<g id="SQL_reporting_61_">
					</g>
					<g id="Startup_task_61_">
					</g>
					<g id="Windows_Azure_storage_62_">
					</g>
					<g id="Storage_blob_59_">
					</g>
					<g id="Storage_table_55_">
					</g>
					<g id="Storage_queue_52_">
					</g>
					<g id="StorSimple_46_">
					</g>
					<g id="Traffic_manager_43_">
					</g>
					<g id="VHD_37_">
					</g>
					<g id="VHD_data_disk_35_">
					</g>
					<g id="Virtual_machine_32_">
					</g>
					<g id="Team_foundation_26_">
					</g>
					<g id="Azure_web_site_21_">
						<g>
							<title>Sheet.40</title>
							<title>Sheet.41</title>
							<g id="group42-80_6_" transform="translate(6.08175,-5.25525)">
								<title>Sheet.42</title>
								<g id="group43-81_6_" transform="translate(0.41925,-0.2115)">
									<title>Sheet.43</title>
									<title>Sheet.44</title>
									<title>Sheet.45</title>
									<title>Sheet.46</title>
									<title>Sheet.47</title>
									<title>Sheet.48</title>
									<title>Sheet.49</title>
									<title>Sheet.50</title>
									<title>Sheet.51</title>
									<title>Sheet.52</title>
								</g>
								<title>Sheet.53</title>
								<title>Sheet.54</title>
								<title>Sheet.55</title>
							</g>
						</g>
					</g>
				</g>
			</g>
		</g>
		<rect x="8.8" class="st0" width="245" height="263.9"/>
		<rect x="79.1" class="st1" width="104.7" height="90"/>
		<g>
			<path d="M62.3,100.3h-0.5V83.2c0-0.9,0.7-1.6,1.6-1.6h9.7v0.5h-9.7c-0.6,0-1.1,0.5-1.1,1.1l0,0L62.3,100.3L62.3,100.3z"/>
			<path d="M90.3,100.3h-0.5V83.2c0-0.6-0.5-1.1-1.1-1.1H73.1v-0.5h15.6c0.9,0,1.6,0.7,1.6,1.6L90.3,100.3z"/>
			<polygon points="72.2,98.8 64,98.8 64,83.7 71.4,83.7 71.4,84.3 64.5,84.3 64.5,98.2 72.2,98.2 			"/>
			<polygon points="88,98.8 82.8,98.8 82.8,98.2 87.5,98.2 87.5,84.3 80.8,84.3 80.8,83.7 88,83.7 			"/>
			<path d="M94.4,103.2h-8v-0.5h8c0.6,0,1.1-0.5,1.1-1.1v-0.9h-9.1v-0.5H96v1.4C96,102.4,95.3,103.2,94.4,103.2z"/>
			<path d="M72,103.2H57.6c-0.9,0-1.6-0.7-1.6-1.6v-1.4h16.2v0.5H56.5v0.9c0,0.6,0.5,1.1,1.1,1.1H72L72,103.2z"/>
			<rect x="81.1" y="83.7" width="5.5" height="0.5"/>
			<rect x="65.3" y="83.7" width="15.5" height="0.5"/>
			<path d="M79.6,102.6H79v-5.1c0-0.8-0.7-1.5-1.5-1.5S76,96.7,76,97.5l0,0v5.1h-0.5v-5.1c0-1.1,0.9-2,2-2c1.1,0,2,0.9,2,2V102.6z"
				/>
			<path d="M83.1,102.6h-0.5v-3.7c0-0.8-0.7-1.5-1.5-1.5s-1.5,0.7-1.5,1.5l0,0v3.7H79v-3.7c0-1.1,0.9-2,2-2c1.1,0,2,0.9,2,2V102.6z"
				/>
			<path d="M86.6,112.8h-0.5v-12.5c0-0.8-0.7-1.5-1.5-1.5s-1.5,0.7-1.5,1.5l0,0v2.2h-0.5v-2.2c0-1.1,0.9-2,2-2s2,0.9,2,2V112.8z"/>
			<path d="M86.6,114.3l-14.5,0l-0.2-0.1l0,0l-6.4-6.4c-1-1-1-2.7,0-3.8c1-1,2.7-1,3.8,0l2.8,2.7V91c0-1.1,0.9-2,2-2
				c1.1,0,2,0.9,2,2v9.7h-0.5V91c0-0.8-0.7-1.5-1.5-1.5s-1.5,0.7-1.5,1.5l0,0v16.9l-3.7-3.5c-0.8-0.9-2.1-0.9-3-0.1s-0.9,2.1-0.1,3
				c0,0,0.1,0.1,0.1,0.1l6.4,6.4l0.1,0h13.8v-7.1h0.5L86.6,114.3z"/>
		</g>
		<g>
			<g>
				<g>
					<g>
						<defs>
							<rect id="SVGID_7_" x="62" y="176.5" width="54" height="54"/>
						</defs>
						<clipPath id="SVGID_8_">
							<use xlink:href="#SVGID_7_"  style="overflow:visible;"/>
						</clipPath>
						<g class="st14">
							<path class="st0" d="M111.9,182.4H66.1c-1.8,0-3.3,1.4-3.3,3.2v28.2c0,1.8,1.5,3.2,3.3,3.2h45.8c1.8,0,3.2-1.4,3.3-3.2v-28.2
								C115.1,183.9,113.7,182.4,111.9,182.4z"/>
						</g>
					</g>
					<g>
						<defs>
							<rect id="SVGID_9_" x="62" y="176.5" width="54" height="54"/>
						</defs>
						<clipPath id="SVGID_10_">
							<use xlink:href="#SVGID_9_"  style="overflow:visible;"/>
						</clipPath>
						<g class="st15">
							<path class="st4" d="M115.2,185.4v8.9H62.8v-8.9c0-1.6,1.3-2.9,2.9-2.9h46.5C113.9,182.5,115.2,183.8,115.2,185.4z"/>
						</g>
					</g>
					<g>
						<defs>
							<rect id="SVGID_11_" x="62" y="176.5" width="54" height="54"/>
						</defs>
						<clipPath id="SVGID_12_">
							<use xlink:href="#SVGID_11_"  style="overflow:visible;"/>
						</clipPath>
						<path class="st16" d="M111.9,181.6L111.9,181.6H66.1c0,0,0,0,0,0c-2.2,0-4.1,1.8-4.1,4.1v28.2c0,2.2,1.9,4.1,4.1,4.1
							c0,0,0,0,0,0h22l-0.3,5.1H78l-2.5,1.7h27l-2.5-1.7h-9.8l-0.3-5.1h22h0c2.2,0,4.1-1.8,4.1-4.1v-28.2
							C116,183.4,114.1,181.6,111.9,181.6z M114.3,213.8c0,1.3-1.1,2.4-2.4,2.4c0,0,0,0,0,0H66.1h0c-1.3,0-2.4-1.1-2.4-2.4v-28.1
							c0-1.3,1.1-2.4,2.4-2.4h0h45.8c0,0,0,0,0,0c1.3,0,2.4,1.1,2.4,2.4L114.3,213.8L114.3,213.8z"/>
					</g>
				</g>
			</g>
		</g>
		<g>
			<ellipse class="st6" cx="62.2" cy="217.9" rx="18.5" ry="18.5"/>
			<path class="st7" d="M62.2,237.3c-10.8,0-19.5-8.7-19.5-19.5s8.8-19.5,19.5-19.5s19.5,8.7,19.5,19.5S72.9,237.3,62.2,237.3z
				 M62.2,200.4c-9.6,0-17.5,7.8-17.5,17.5s7.8,17.5,17.5,17.5s17.5-7.8,17.5-17.5C79.7,208.2,71.8,200.4,62.2,200.4z"/>
		</g>
		<g>
			<path class="st8" d="M67.2,208.9c0,2.8-2.2,5-5,5s-5-2.2-5-5c0.1-2.8,2.3-5,5-5C65,203.9,67.2,206.1,67.2,208.9"/>
			<polygon class="st8" points="65.8,215.7 62.2,220.9 58.5,215.7 53.2,215.7 53.2,228.4 71.2,228.4 71.2,215.7 			"/>
			<path class="st9" d="M57.2,208.9c0,2.7,2.2,5,4.9,5l1.3-9.9c-0.4-0.2-0.8-0.2-1.2-0.2C59.4,203.9,57.2,206.1,57.2,208.9"/>
			<polygon class="st9" points="58.5,215.7 53.2,215.7 53.2,228.4 60.3,228.4 61.4,219.7 			"/>
		</g>
		<g>
			<g>
				<line class="st10" x1="76" y1="181.5" x2="76" y2="119.9"/>
				<g>
					<polygon points="79.7,121 76,114.5 72.3,121 					"/>
				</g>
			</g>
		</g>
		<g>
			<g>
				<line class="st10" x1="108.3" y1="176.2" x2="108.3" y2="90"/>
				<g>
					<polygon points="112.1,175.1 108.3,181.5 104.6,175.1 					"/>
				</g>
			</g>
		</g>
		<g>
			<rect x="193.5" y="190.4" class="st0" width="58" height="31.3"/>
			<g>
				<path class="st1" d="M253.9,183.3c0-0.6-0.5-1.1-1.1-1.1h-60.6c-0.6,0-1.1,0.5-1.1,1.1v37.9c0,0.6,0.5,1.1,1.1,1.1h60.6
					c0.6,0,1.1-0.5,1.1-1.1V183.3z M199.8,189.3h-3.1v-3.1h3.1V189.3z M206,189.3h-3.1v-3.1h3.1V189.3z M212.3,189.3h-3.1v-3.1h3.1
					V189.3z M193.5,191.6h58v28.2h-58L193.5,191.6L193.5,191.6z"/>
			</g>
		</g>
		<path d="M198.5,208.7c-2.9-3.9-7.5-5.9-11.9-5.9c-3.2,0-6.4,1-9.1,3.1c-6.6,5.1-7.9,14.4-2.8,21c2.9,3.9,7.4,5.9,11.9,5.9
			c3.2,0,6.4-1,9.1-3.1C202.3,224.7,203.6,215.3,198.5,208.7z M199.2,221.2c-0.5-0.4-1.3-1-2.3-1.8c0.3-0.9,0.3-1.9-0.3-2.7
			c-0.9-1.1-2.4-1.4-3.7-0.6c-1.3-1.2-2.8-2.5-4.3-4.1c4.5-2.5,7.9-2.2,8.2-2.2c0.1,0.1,0.1,0.1,0.1,0.2
			C199.5,213.3,200.2,217.5,199.2,221.2z M191,224.8c-0.1-0.4-0.2-0.7-0.5-1c-0.8-1.1-2.3-1.3-3.4-0.6c-1.1-0.6-2.3-1.4-3.5-2.3
			c-0.1-0.1-0.2-0.2-0.3-0.3c0.5-1.3,0.3-2.7-0.6-3.9c0,0-0.1-0.1-0.1-0.1c0.3-0.3,0.5-0.6,0.8-0.8c1.2-1.1,2.3-2.1,3.4-2.8l0,0
			c0,0,0,0,0,0c0,0,0,0-0.1,0c1.6,1.5,3.4,2.9,5,4.2c-0.4,0.9-0.4,2,0.2,2.9c1,1.3,2.7,1.4,4,0.6c0.1-0.1,0.1-0.1,0.2-0.2
			c1.2,0.8,2.1,1.5,2.6,1.8c-0.4,1-0.9,2-1.5,2.9C196.5,225.4,194.2,225.7,191,224.8z M195,207.9c-2-0.3-5.2-0.2-8.7,1.6
			c-1.2-1.3-2.4-2.6-3.7-4.1c1.3-0.4,2.6-0.6,4-0.6C189.6,204.8,192.6,205.9,195,207.9z M178.6,207.5c0.7-0.5,1.4-1,2.2-1.4
			c0.9,1.5,2.2,3,3.5,4.4c-1.2,0.8-2.4,1.8-3.6,3.1c-0.4,0.5-0.8,0.9-1.2,1.4c-0.6,0-1.3,0.1-1.9,0.5c-1.3-2.4-1.5-4.5-1.4-5.8
			C177,209,177.7,208.2,178.6,207.5z M174.8,212.3c0,1.4,0.2,3.1,1.3,4.9c-0.7,1.3-0.6,3,0.4,4.3l0,0c-0.3,1.3-0.5,2.6-0.6,3.7
			C173.1,221.3,172.9,216.4,174.8,212.3z M194.5,228.2c-2.4,1.8-5.2,2.7-7.9,2.7c-3,0-6-1-8.4-3.1c0-1.3,0.1-3,0.7-4.9
			c1,0.2,2,0,2.9-0.6c0.1,0.1,0.2,0.2,0.3,0.3c1.3,1,2.5,1.8,3.7,2.4c-0.1,0.7,0.1,1.4,0.5,1.9c0.9,1.1,2.6,1.4,3.7,0.5
			c0.3-0.2,0.5-0.4,0.6-0.7c2,0.4,3.7,0.5,5,0.5C195.3,227.6,194.9,227.9,194.5,228.2z"/>
		<g>
			<g>
				<line class="st10" x1="116" y1="191.5" x2="185.6" y2="191.5"/>
				<g>
					<polygon points="184.5,195.3 191,191.5 184.5,187.8 					"/>
				</g>
			</g>
		</g>
		<polygon class="st11" points="108.1,146.3 99.5,152.5 102.8,162.5 113.4,162.5 116.6,152.5 		"/>
		<polygon class="st11" points="141.2,181.6 132.6,187.9 135.9,197.9 146.4,197.9 149.7,187.9 		"/>
	</g>
	<g id="Text" class="st13">
		<g id="Windows_Server_New">
		</g>
		<g>
			<rect x="92" y="24.4" class="st17" width="78.5" height="45.6"/>
			<path class="st0" d="M114.2,33.3h-1.9v-5c0-0.5,0-1.1,0.1-1.8h-0.1c-0.1,0.5-0.2,0.9-0.3,1.1l-2,5.7h-1.6l-2-5.6
				c-0.1-0.1-0.1-0.5-0.3-1.2h-0.1c0.1,0.8,0.1,1.5,0.1,2.2v4.7h-1.7v-8.4h2.8l1.7,5c0.1,0.4,0.2,0.8,0.3,1.2h0
				c0.1-0.5,0.2-0.9,0.3-1.2l1.7-5h2.7L114.2,33.3L114.2,33.3z"/>
			<path class="st0" d="M116.8,26.3c-0.3,0-0.6-0.1-0.8-0.3s-0.3-0.4-0.3-0.7c0-0.3,0.1-0.5,0.3-0.7s0.5-0.3,0.8-0.3
				c0.3,0,0.6,0.1,0.8,0.3s0.3,0.4,0.3,0.7s-0.1,0.5-0.3,0.7S117.2,26.3,116.8,26.3z M117.8,33.3h-1.8v-6h1.8V33.3z"/>
			<path class="st0" d="M123.8,33.1c-0.4,0.2-1,0.4-1.8,0.4c-0.9,0-1.7-0.3-2.2-0.8s-0.9-1.3-0.9-2.2c0-1,0.3-1.8,0.9-2.4
				s1.4-0.9,2.4-0.9c0.7,0,1.2,0.1,1.5,0.3V29c-0.4-0.3-0.8-0.4-1.3-0.4c-0.5,0-0.9,0.2-1.3,0.5s-0.5,0.7-0.5,1.3
				c0,0.5,0.2,1,0.4,1.3s0.7,0.5,1.2,0.5c0.5,0,0.9-0.1,1.3-0.4C123.8,31.6,123.8,33.1,123.8,33.1z"/>
			<path class="st0" d="M129.1,28.9c-0.2-0.1-0.5-0.2-0.8-0.2c-0.4,0-0.7,0.1-0.9,0.4s-0.3,0.7-0.3,1.2v2.9h-1.8v-6h1.8v1.1h0
				c0.3-0.8,0.8-1.2,1.6-1.2c0.2,0,0.4,0,0.5,0.1V28.9z"/>
			<path class="st0" d="M132.9,33.4c-1,0-1.8-0.3-2.4-0.8s-0.9-1.3-0.9-2.3c0-1,0.3-1.8,0.9-2.3s1.4-0.8,2.4-0.8
				c1,0,1.8,0.3,2.3,0.8s0.9,1.3,0.9,2.2c0,1-0.3,1.8-0.9,2.4S133.9,33.4,132.9,33.4z M132.9,28.5c-0.4,0-0.8,0.1-1,0.5
				s-0.4,0.7-0.4,1.3c0,1.1,0.5,1.7,1.4,1.7c0.9,0,1.3-0.6,1.3-1.8C134.3,29.1,133.8,28.5,132.9,28.5z"/>
			<path class="st0" d="M137,33.1v-1.5c0.3,0.2,0.6,0.3,0.9,0.4s0.6,0.1,0.9,0.1c0.3,0,0.6,0,0.8-0.1s0.3-0.2,0.3-0.4
				c0-0.1,0-0.2-0.1-0.3s-0.2-0.1-0.3-0.2s-0.3-0.1-0.4-0.2s-0.3-0.1-0.5-0.2c-0.2-0.1-0.4-0.2-0.6-0.3s-0.3-0.2-0.5-0.4
				s-0.2-0.3-0.3-0.5S137,29.3,137,29c0-0.3,0.1-0.6,0.2-0.9s0.3-0.4,0.6-0.6s0.5-0.3,0.8-0.3s0.6-0.1,1-0.1c0.3,0,0.5,0,0.8,0.1
				s0.5,0.1,0.8,0.2v1.4c-0.2-0.1-0.5-0.2-0.8-0.3s-0.5-0.1-0.8-0.1c-0.1,0-0.2,0-0.3,0s-0.2,0-0.3,0.1s-0.1,0.1-0.2,0.2
				s-0.1,0.1-0.1,0.2c0,0.1,0,0.2,0.1,0.3s0.2,0.1,0.3,0.2s0.2,0.1,0.4,0.1s0.3,0.1,0.4,0.1c0.3,0.1,0.5,0.2,0.7,0.3
				s0.4,0.2,0.5,0.4s0.3,0.3,0.3,0.5s0.1,0.4,0.1,0.7c0,0.4-0.1,0.7-0.2,0.9s-0.4,0.5-0.6,0.6s-0.6,0.3-0.9,0.3s-0.7,0.1-1,0.1
				C138.2,33.4,137.6,33.3,137,33.1z"/>
			<path class="st0" d="M145.6,33.4c-1,0-1.8-0.3-2.4-0.8s-0.9-1.3-0.9-2.3c0-1,0.3-1.8,0.9-2.3s1.4-0.8,2.4-0.8
				c1,0,1.8,0.3,2.3,0.8s0.9,1.3,0.9,2.2c0,1-0.3,1.8-0.9,2.4S146.6,33.4,145.6,33.4z M145.6,28.5c-0.4,0-0.8,0.1-1,0.5
				s-0.4,0.7-0.4,1.3c0,1.1,0.5,1.7,1.4,1.7c0.9,0,1.3-0.6,1.3-1.8C146.9,29.1,146.5,28.5,145.6,28.5z"/>
			<path class="st0" d="M153.9,25.8c-0.2-0.1-0.5-0.1-0.7-0.1c-0.6,0-0.9,0.3-0.9,1v0.6h1.4v1.4h-1.4v4.6h-1.9v-4.6h-1v-1.4h1v-0.7
				c0-0.7,0.2-1.2,0.7-1.6s1.1-0.6,1.8-0.6c0.4,0,0.7,0,0.9,0.1V25.8z"/>
			<path class="st0" d="M158.5,33.2c-0.3,0.1-0.7,0.2-1.2,0.2c-1.3,0-2-0.7-2-2v-2.8h-1v-1.4h1V26l1.9-0.5v1.8h1.4v1.4h-1.4v2.4
				c0,0.6,0.3,0.9,0.7,0.9c0.2,0,0.4-0.1,0.6-0.2L158.5,33.2L158.5,33.2z"/>
			<path class="st0" d="M110.9,40.7c-0.3,0-0.6-0.1-0.8-0.3s-0.3-0.4-0.3-0.7c0-0.3,0.1-0.5,0.3-0.7s0.5-0.3,0.8-0.3
				c0.3,0,0.6,0.1,0.8,0.3s0.3,0.4,0.3,0.7s-0.1,0.5-0.3,0.7S111.2,40.7,110.9,40.7z M111.8,47.7H110v-6h1.8V47.7z"/>
			<path class="st0" d="M119.2,47.7h-1.8v-0.8h0c-0.4,0.7-1,1-1.9,1c-0.8,0-1.3-0.3-1.8-0.8s-0.7-1.3-0.7-2.2c0-1,0.3-1.8,0.8-2.4
				s1.2-0.9,2-0.9c0.8,0,1.3,0.3,1.6,0.8h0v-3.6h1.8V47.7z M117.4,44.8v-0.5c0-0.4-0.1-0.7-0.3-1s-0.5-0.4-0.9-0.4
				c-0.4,0-0.7,0.2-1,0.5s-0.3,0.8-0.3,1.3c0,0.5,0.1,0.9,0.3,1.2s0.5,0.4,0.9,0.4c0.4,0,0.7-0.2,0.9-0.5S117.4,45.3,117.4,44.8z"/>
			<path class="st0" d="M126.2,45.2h-3.9c0.1,0.9,0.6,1.3,1.7,1.3c0.7,0,1.2-0.2,1.7-0.5v1.3c-0.6,0.3-1.3,0.5-2.2,0.5
				c-1,0-1.7-0.3-2.3-0.8s-0.8-1.3-0.8-2.3c0-1,0.3-1.8,0.9-2.4s1.3-0.9,2.1-0.9c0.9,0,1.6,0.3,2,0.8s0.7,1.2,0.7,2.1L126.2,45.2
				L126.2,45.2z M124.5,44.1c0-0.9-0.3-1.3-1-1.3c-0.3,0-0.6,0.1-0.8,0.4s-0.3,0.5-0.4,0.9L124.5,44.1z"/>
			<path class="st0" d="M133.1,47.7h-1.9v-3.3c0-0.9-0.3-1.4-1-1.4c-0.3,0-0.6,0.1-0.8,0.4s-0.3,0.6-0.3,0.9v3.4h-1.8v-6h1.8v1h0
				c0.4-0.7,1.1-1.1,1.9-1.1c1.3,0,2,0.8,2,2.5L133.1,47.7L133.1,47.7z"/>
			<path class="st0" d="M138.2,47.6c-0.3,0.1-0.7,0.2-1.2,0.2c-1.3,0-2-0.7-2-2V43h-1v-1.4h1v-1.3l1.9-0.5v1.8h1.4V43h-1.4v2.4
				c0,0.6,0.3,0.9,0.7,0.9c0.2,0,0.4-0.1,0.6-0.2L138.2,47.6L138.2,47.6z"/>
			<path class="st0" d="M140.2,40.7c-0.3,0-0.6-0.1-0.8-0.3s-0.3-0.4-0.3-0.7c0-0.3,0.1-0.5,0.3-0.7s0.5-0.3,0.8-0.3
				c0.3,0,0.6,0.1,0.8,0.3s0.3,0.4,0.3,0.7s-0.1,0.5-0.3,0.7S140.5,40.7,140.2,40.7z M141.1,47.7h-1.9v-6h1.9V47.7z"/>
			<path class="st0" d="M146.2,47.6c-0.3,0.1-0.7,0.2-1.2,0.2c-1.3,0-2-0.7-2-2V43h-1v-1.4h1v-1.3l1.9-0.5v1.8h1.4V43h-1.4v2.4
				c0,0.6,0.3,0.9,0.7,0.9c0.2,0,0.4-0.1,0.6-0.2L146.2,47.6L146.2,47.6z"/>
			<path class="st0" d="M153.3,41.7l-2.4,6.5c-0.6,1.6-1.5,2.3-2.6,2.3c-0.4,0-0.8,0-1.1-0.2v-1.5c0.3,0.1,0.5,0.2,0.8,0.2
				c0.5,0,0.8-0.2,1-0.7l0.3-0.7l-2.4-6h2.1l1.1,3.7c0.1,0.2,0.1,0.5,0.2,0.8h0c0-0.2,0.1-0.5,0.2-0.8l1.1-3.7L153.3,41.7
				L153.3,41.7z"/>
			<path class="st0" d="M108.9,61.4L108.9,61.4l0,3.5h-1.8v-8.8h1.8V57h0c0.5-0.7,1.1-1,1.9-1c0.8,0,1.4,0.3,1.8,0.8
				s0.6,1.3,0.6,2.2c0,1-0.3,1.8-0.7,2.4s-1.2,0.9-2,0.9C109.9,62.2,109.3,61.9,108.9,61.4z M108.9,58.9v0.5c0,0.4,0.1,0.8,0.3,1
				s0.5,0.4,0.9,0.4c0.4,0,0.8-0.2,1-0.5s0.3-0.8,0.3-1.4c0-1-0.4-1.6-1.2-1.6c-0.4,0-0.7,0.1-0.9,0.4S108.9,58.4,108.9,58.9z"/>
			<path class="st0" d="M116.4,62.1h-1.8v-8.9h1.8V62.1z"/>
			<path class="st0" d="M123,62.1h-1.8v-0.9h0c-0.4,0.7-1,1-1.8,1c-0.6,0-1-0.2-1.4-0.5s-0.5-0.8-0.5-1.3c0-1.2,0.7-1.8,2.1-2
				l1.6-0.2c0-0.7-0.4-1-1.1-1s-1.4,0.2-2,0.6v-1.4c0.3-0.1,0.6-0.3,1.1-0.3s0.8-0.2,1.2-0.2c1.7,0,2.6,0.8,2.6,2.6L123,62.1
				L123,62.1z M121.3,59.6v-0.4l-1.1,0.1c-0.6,0.1-0.9,0.3-0.9,0.8c0,0.2,0.1,0.4,0.2,0.5s0.3,0.2,0.6,0.2c0.3,0,0.6-0.1,0.8-0.4
				S121.3,60,121.3,59.6z"/>
			<path class="st0" d="M128,62c-0.3,0.1-0.7,0.2-1.2,0.2c-1.3,0-2-0.7-2-2v-2.8h-1v-1.4h1v-1.3l1.8-0.5v1.8h1.3v1.4h-1.3v2.4
				c0,0.6,0.3,0.9,0.7,0.9c0.2,0,0.4-0.1,0.6-0.2L128,62L128,62z"/>
			<path class="st0" d="M133.1,54.6c-0.2-0.1-0.5-0.1-0.7-0.1c-0.6,0-0.9,0.3-0.9,1v0.6h1.4v1.4h-1.4v4.6h-1.9v-4.6h-1v-1.4h1v-0.7
				c0-0.7,0.2-1.2,0.7-1.7s1.1-0.6,1.8-0.6c0.4,0,0.7,0,0.9,0.1V54.6z"/>
			<path class="st0" d="M136.7,62.2c-1,0-1.8-0.3-2.4-0.8s-0.9-1.3-0.9-2.3c0-1,0.3-1.8,0.9-2.3s1.4-0.8,2.4-0.8
				c1,0,1.8,0.3,2.3,0.8s0.9,1.3,0.9,2.2c0,1-0.3,1.8-0.9,2.4S137.7,62.2,136.7,62.2z M136.7,57.3c-0.4,0-0.8,0.2-1,0.5
				s-0.4,0.7-0.4,1.3c0,1.2,0.5,1.7,1.4,1.7c0.9,0,1.3-0.6,1.3-1.8C138.1,57.9,137.6,57.3,136.7,57.3z"/>
			<path class="st0" d="M145.1,57.7c-0.2-0.1-0.5-0.2-0.8-0.2c-0.4,0-0.7,0.2-0.9,0.4s-0.3,0.7-0.3,1.2v2.9h-1.9v-6h1.9v1.1h0
				c0.3-0.8,0.8-1.2,1.6-1.2c0.2,0,0.4,0,0.5,0.1L145.1,57.7L145.1,57.7z"/>
			<path class="st0" d="M155.4,62.1h-1.9v-3.4c0-0.9-0.3-1.3-1-1.3c-0.3,0-0.6,0.1-0.7,0.4s-0.3,0.6-0.3,1v3.4h-1.9v-3.5
				c0-0.8-0.3-1.3-0.9-1.3c-0.3,0-0.6,0.1-0.8,0.4s-0.3,0.6-0.3,1v3.3h-1.9v-6h1.9V57h0c0.2-0.3,0.5-0.6,0.8-0.8s0.7-0.3,1.1-0.3
				c0.9,0,1.4,0.4,1.7,1.1c0.5-0.8,1.1-1.1,2-1.1c1.3,0,2,0.8,2,2.4L155.4,62.1L155.4,62.1z"/>
		</g>
		<g>
			<rect y="81.5" class="st17" width="50" height="27.9"/>
			<path class="st18" d="M13.4,90.1v-1.2c0.1,0.1,0.3,0.2,0.5,0.3s0.4,0.2,0.6,0.2s0.4,0.1,0.6,0.2s0.4,0.1,0.6,0.1
				c0.6,0,1.1-0.1,1.4-0.3s0.5-0.6,0.5-1c0-0.2,0-0.4-0.1-0.6s-0.2-0.3-0.4-0.5s-0.4-0.3-0.6-0.4c-0.2-0.1-0.5-0.3-0.8-0.4
				c-0.3-0.2-0.6-0.3-0.8-0.4s-0.5-0.3-0.7-0.5s-0.3-0.4-0.4-0.6s-0.2-0.5-0.2-0.8c0-0.4,0.1-0.7,0.3-1s0.4-0.5,0.7-0.7
				s0.6-0.3,0.9-0.4s0.7-0.1,1.1-0.1c0.8,0,1.4,0.1,1.8,0.3v1.1c-0.5-0.3-1.1-0.5-1.9-0.5c-0.2,0-0.4,0-0.6,0.1S15.2,83,15,83.1
				s-0.3,0.2-0.4,0.4s-0.2,0.4-0.2,0.6c0,0.2,0,0.4,0.1,0.6s0.2,0.3,0.4,0.4s0.4,0.3,0.6,0.4s0.5,0.3,0.8,0.4
				c0.3,0.2,0.6,0.3,0.9,0.5s0.5,0.3,0.7,0.5s0.4,0.4,0.5,0.7s0.2,0.5,0.2,0.8c0,0.4-0.1,0.8-0.2,1.1s-0.4,0.5-0.7,0.7
				s-0.6,0.3-1,0.4s-0.7,0.1-1.1,0.1c-0.1,0-0.3,0-0.5,0s-0.4-0.1-0.6-0.1s-0.4-0.1-0.6-0.2S13.5,90.2,13.4,90.1z"/>
			<path class="st18" d="M20.3,82.9c-0.2,0-0.3-0.1-0.4-0.2s-0.2-0.3-0.2-0.4s0.1-0.3,0.2-0.4s0.3-0.2,0.4-0.2
				c0.2,0,0.3,0.1,0.5,0.2s0.2,0.3,0.2,0.4c0,0.2-0.1,0.3-0.2,0.4S20.5,82.9,20.3,82.9z M20.8,90.4h-1v-6h1V90.4z"/>
			<path class="st18" d="M27.8,89.9c0,2.2-1,3.3-3.2,3.3c-0.7,0-1.4-0.1-2-0.4v-1c0.7,0.4,1.3,0.6,1.9,0.6c1.5,0,2.2-0.8,2.2-2.4
				v-0.7h0c-0.5,0.8-1.1,1.2-2.1,1.2c-0.8,0-1.4-0.3-1.8-0.8s-0.7-1.3-0.7-2.2c0-1,0.3-1.8,0.7-2.4s1.2-0.9,2-0.9
				c0.8,0,1.4,0.3,1.8,1h0v-0.8h1V89.9z M26.8,87.7v-0.9c0-0.5-0.2-0.9-0.5-1.2s-0.7-0.5-1.2-0.5c-0.6,0-1.1,0.2-1.4,0.7
				s-0.5,1-0.5,1.8c0,0.7,0.2,1.2,0.5,1.6s0.8,0.6,1.3,0.6c0.5,0,1-0.2,1.3-0.6S26.8,88.3,26.8,87.7z"/>
			<path class="st18" d="M34.6,90.4h-1V87c0-1.3-0.5-1.9-1.4-1.9c-0.5,0-0.9,0.2-1.2,0.5s-0.5,0.8-0.5,1.4v3.4h-1v-6h1v1h0
				c0.5-0.8,1.1-1.1,2-1.1c0.7,0,1.2,0.2,1.5,0.6s0.5,1,0.5,1.8L34.6,90.4L34.6,90.4z"/>
			<path class="st18" d="M39.4,87.5h-3.2v-0.8h3.2V87.5z"/>
			<path class="st18" d="M42.2,90.4h-1V82h1V90.4z"/>
			<path class="st18" d="M49.2,90.4h-1V87c0-1.3-0.5-1.9-1.4-1.9c-0.5,0-0.9,0.2-1.2,0.5s-0.5,0.8-0.5,1.4v3.4h-1v-6h1v1h0
				c0.5-0.8,1.1-1.1,2-1.1c0.7,0,1.2,0.2,1.5,0.6s0.5,1,0.5,1.8L49.2,90.4L49.2,90.4z"/>
			<path class="st18" d="M26.2,101.7v3.2h-1v-8.4h2.3c0.9,0,1.6,0.2,2.1,0.7s0.7,1.1,0.7,1.8s-0.3,1.4-0.8,2s-1.3,0.8-2.2,0.8
				L26.2,101.7L26.2,101.7z M26.2,97.3v3.4h1c0.7,0,1.2-0.2,1.6-0.5s0.5-0.8,0.5-1.3c0-1.1-0.7-1.7-2-1.7
				C27.4,97.3,26.2,97.3,26.2,97.3z"/>
			<path class="st18" d="M35.9,104.8h-1v-0.9h0c-0.4,0.7-1,1.1-1.8,1.1c-0.6,0-1.1-0.2-1.4-0.5s-0.5-0.7-0.5-1.3c0-1.1,0.7-1.8,2-2
				l1.8-0.3c0-1-0.4-1.5-1.2-1.5c-0.7,0-1.4,0.3-2,0.7v-1c0.6-0.4,1.3-0.6,2-0.6c1.4,0,2.1,0.8,2.1,2.2V104.8z M34.9,101.8l-1.5,0.2
				c-0.5,0.1-0.8,0.2-1,0.3s-0.3,0.4-0.3,0.8c0,0.3,0.1,0.5,0.3,0.7s0.5,0.3,0.8,0.3c0.5,0,0.9-0.2,1.2-0.5s0.5-0.8,0.5-1.3
				L34.9,101.8L34.9,101.8z"/>
			<path class="st18" d="M42.8,104.3c0,2.2-1,3.3-3.2,3.3c-0.7,0-1.4-0.1-2-0.4v-1c0.7,0.4,1.3,0.6,1.9,0.6c1.5,0,2.2-0.8,2.2-2.4
				v-0.7h0c-0.5,0.8-1.1,1.2-2.1,1.2c-0.8,0-1.3-0.3-1.8-0.8s-0.7-1.3-0.7-2.2c0-1,0.3-1.8,0.7-2.4s1.2-0.9,2-0.9
				c0.8,0,1.4,0.3,1.8,1h0v-0.8h1L42.8,104.3z M41.8,102.1v-0.9c0-0.5-0.2-0.9-0.5-1.2s-0.7-0.5-1.2-0.5c-0.6,0-1.1,0.2-1.4,0.7
				s-0.5,1-0.5,1.8c0,0.7,0.2,1.2,0.5,1.6s0.8,0.6,1.3,0.6c0.5,0,1-0.2,1.3-0.6S41.8,102.7,41.8,102.1z"/>
			<path class="st18" d="M49.5,102.1h-4.2c0,0.7,0.2,1.2,0.5,1.6s0.8,0.5,1.4,0.5c0.7,0,1.3-0.2,1.9-0.7v0.9
				c-0.5,0.4-1.2,0.6-2.1,0.6c-0.8,0-1.5-0.3-2-0.8s-0.7-1.3-0.7-2.3c0-0.9,0.3-1.7,0.8-2.3s1.2-0.9,2-0.9s1.4,0.3,1.8,0.8
				s0.6,1.2,0.6,2.1L49.5,102.1L49.5,102.1z M48.5,101.3c0-0.6-0.1-1-0.4-1.3s-0.6-0.5-1.1-0.5c-0.5,0-0.8,0.2-1.2,0.5
				s-0.5,0.8-0.6,1.3L48.5,101.3L48.5,101.3z"/>
		</g>
		<g>
			<path class="st18" d="M80.6,241.1c0,2.4-1.1,3.5-3.2,3.5c-2,0-3.1-1.1-3.1-3.4v-5.1h1v5.1c0,1.7,0.7,2.6,2.2,2.6
				c1.4,0,2.1-0.8,2.1-2.5v-5.2h1L80.6,241.1L80.6,241.1z"/>
			<path class="st18" d="M82.1,244.3v-1c0.5,0.4,1.1,0.6,1.7,0.6c0.8,0,1.3-0.3,1.3-0.8c0-0.2,0-0.3-0.1-0.4s-0.2-0.2-0.3-0.3
				s-0.3-0.2-0.4-0.2s-0.3-0.1-0.5-0.2c-0.3-0.1-0.5-0.2-0.7-0.3s-0.4-0.2-0.5-0.4s-0.2-0.3-0.3-0.5s-0.1-0.4-0.1-0.6
				c0-0.3,0.1-0.5,0.2-0.8s0.3-0.4,0.5-0.5s0.5-0.3,0.7-0.3s0.6-0.1,0.8-0.1c0.5,0,1,0.1,1.4,0.3v1c-0.4-0.3-0.9-0.4-1.5-0.4
				c-0.2,0-0.3,0-0.5,0.1s-0.3,0.1-0.4,0.2s-0.2,0.2-0.2,0.3s-0.1,0.2-0.1,0.3c0,0.2,0,0.3,0.1,0.4s0.1,0.2,0.3,0.3s0.2,0.2,0.4,0.2
				s0.3,0.1,0.5,0.2c0.3,0.1,0.5,0.2,0.7,0.3s0.4,0.2,0.5,0.4s0.3,0.3,0.3,0.5s0.1,0.4,0.1,0.6c0,0.3-0.1,0.6-0.2,0.8
				s-0.3,0.4-0.5,0.5s-0.5,0.3-0.8,0.3s-0.6,0.1-0.9,0.1C83.1,244.7,82.5,244.6,82.1,244.3z"/>
			<path class="st18" d="M92.3,241.8h-4.2c0,0.7,0.2,1.2,0.5,1.6s0.8,0.5,1.4,0.5c0.7,0,1.3-0.2,1.9-0.7v0.9
				c-0.5,0.4-1.2,0.6-2.1,0.6c-0.8,0-1.5-0.3-2-0.8s-0.7-1.3-0.7-2.3c0-0.9,0.3-1.7,0.8-2.3s1.2-0.9,2-0.9s1.4,0.3,1.8,0.8
				s0.6,1.2,0.6,2.1L92.3,241.8L92.3,241.8z M91.3,241c0-0.6-0.1-1-0.4-1.3s-0.6-0.5-1.1-0.5c-0.4,0-0.8,0.2-1.2,0.5
				s-0.5,0.8-0.6,1.3L91.3,241L91.3,241z"/>
			<path class="st18" d="M96.9,239.5c-0.2-0.1-0.4-0.2-0.7-0.2c-0.4,0-0.8,0.2-1,0.6s-0.4,0.9-0.4,1.6v3.1h-1v-6h1v1.2h0
				c0.1-0.4,0.3-0.8,0.6-1s0.6-0.4,0.9-0.4c0.3,0,0.4,0,0.6,0.1L96.9,239.5L96.9,239.5z"/>
			<path class="st18" d="M98.8,236.1v2.6H98v-2.6H98.8z"/>
			<path class="st18" d="M100.2,244.3v-1c0.5,0.4,1.1,0.6,1.7,0.6c0.8,0,1.3-0.3,1.3-0.8c0-0.2,0-0.3-0.1-0.4s-0.2-0.2-0.3-0.3
				s-0.3-0.2-0.4-0.2s-0.3-0.1-0.5-0.2c-0.3-0.1-0.5-0.2-0.7-0.3s-0.4-0.2-0.5-0.4s-0.2-0.3-0.3-0.5s-0.1-0.4-0.1-0.6
				c0-0.3,0.1-0.5,0.2-0.8s0.3-0.4,0.5-0.5s0.5-0.3,0.7-0.3s0.6-0.1,0.8-0.1c0.5,0,1,0.1,1.4,0.3v1c-0.4-0.3-0.9-0.4-1.5-0.4
				c-0.2,0-0.3,0-0.5,0.1s-0.3,0.1-0.4,0.2s-0.2,0.2-0.2,0.3s-0.1,0.2-0.1,0.3c0,0.2,0,0.3,0.1,0.4s0.1,0.2,0.3,0.3s0.2,0.2,0.4,0.2
				s0.3,0.1,0.5,0.2c0.3,0.1,0.5,0.2,0.7,0.3s0.4,0.2,0.5,0.4s0.3,0.3,0.3,0.5s0.1,0.4,0.1,0.6c0,0.3-0.1,0.6-0.2,0.8
				s-0.3,0.4-0.5,0.5s-0.5,0.3-0.8,0.3s-0.6,0.1-0.9,0.1C101.1,244.7,100.6,244.6,100.2,244.3z"/>
			<path class="st18" d="M69,258.9v-8.4h2.4c0.7,0,1.3,0.2,1.7,0.5s0.6,0.8,0.6,1.4c0,0.5-0.1,0.9-0.4,1.2s-0.6,0.6-1.1,0.8v0
				c0.6,0.1,1,0.3,1.4,0.6s0.5,0.8,0.5,1.4c0,0.7-0.3,1.3-0.8,1.8s-1.2,0.7-1.9,0.7L69,258.9L69,258.9z M70,251.4v2.7h1
				c0.5,0,1-0.1,1.3-0.4s0.5-0.6,0.5-1.1c0-0.8-0.5-1.2-1.6-1.2H70z M70,255v3h1.3c0.6,0,1-0.1,1.3-0.4s0.5-0.6,0.5-1.1
				c0-1-0.7-1.5-2-1.5L70,255L70,255z"/>
			<path class="st18" d="M78.9,253.9c-0.2-0.1-0.4-0.2-0.7-0.2c-0.4,0-0.8,0.2-1,0.6s-0.4,0.9-0.4,1.6v3.1h-1v-6h1v1.2h0
				c0.1-0.4,0.3-0.8,0.6-1s0.6-0.4,0.9-0.4c0.3,0,0.4,0,0.6,0.1L78.9,253.9L78.9,253.9z"/>
			<path class="st18" d="M82.4,259.1c-0.9,0-1.6-0.3-2.1-0.8s-0.8-1.3-0.8-2.2c0-1,0.3-1.8,0.8-2.4s1.3-0.9,2.2-0.9
				c0.9,0,1.6,0.3,2.1,0.8s0.8,1.3,0.8,2.3c0,1-0.3,1.7-0.8,2.3S83.3,259.1,82.4,259.1z M82.5,253.6c-0.6,0-1.1,0.2-1.5,0.6
				s-0.5,1-0.5,1.7c0,0.7,0.2,1.3,0.5,1.7s0.8,0.6,1.5,0.6c0.6,0,1.1-0.2,1.4-0.6s0.5-1,0.5-1.7s-0.2-1.3-0.5-1.7
				S83.1,253.6,82.5,253.6z"/>
			<path class="st18" d="M94.4,252.9l-1.8,6h-1l-1.2-4.3c-0.1-0.2-0.1-0.4-0.1-0.6h0c0,0.1-0.1,0.3-0.1,0.5l-1.3,4.3h-1l-1.8-6h1
				l1.2,4.5c0,0.1,0.1,0.3,0.1,0.5h0.1c0-0.2,0.1-0.4,0.1-0.5l1.4-4.5h0.9l1.2,4.5c0,0.1,0.1,0.3,0.1,0.5h0.1c0-0.1,0-0.3,0.1-0.5
				l1.2-4.5L94.4,252.9L94.4,252.9z"/>
			<path class="st18" d="M95.2,258.7v-1c0.5,0.4,1.1,0.6,1.7,0.6c0.8,0,1.3-0.3,1.3-0.8c0-0.2,0-0.3-0.1-0.4s-0.2-0.2-0.3-0.3
				s-0.3-0.2-0.4-0.2s-0.3-0.1-0.5-0.2c-0.3-0.1-0.5-0.2-0.7-0.3c-0.2-0.1-0.4-0.2-0.5-0.4s-0.2-0.3-0.3-0.5s-0.1-0.4-0.1-0.6
				c0-0.3,0.1-0.5,0.2-0.8s0.3-0.4,0.5-0.5s0.5-0.3,0.7-0.3s0.6-0.1,0.8-0.1c0.5,0,1,0.1,1.4,0.3v1c-0.4-0.3-0.9-0.4-1.5-0.4
				c-0.2,0-0.3,0-0.5,0.1s-0.3,0.1-0.4,0.2s-0.2,0.2-0.2,0.3s-0.1,0.2-0.1,0.3c0,0.2,0,0.3,0.1,0.4s0.1,0.2,0.3,0.3s0.2,0.2,0.4,0.2
				s0.3,0.1,0.5,0.2c0.3,0.1,0.5,0.2,0.7,0.3s0.4,0.2,0.5,0.4s0.3,0.3,0.3,0.5s0.1,0.4,0.1,0.6c0,0.3-0.1,0.5-0.2,0.8
				s-0.3,0.4-0.5,0.5s-0.5,0.3-0.8,0.3s-0.6,0.1-0.9,0.1C96.2,259.1,95.6,259,95.2,258.7z"/>
			<path class="st18" d="M105.4,256.2h-4.2c0,0.7,0.2,1.2,0.5,1.5s0.8,0.5,1.4,0.5c0.7,0,1.3-0.2,1.9-0.7v0.9
				c-0.5,0.4-1.2,0.6-2.1,0.6c-0.8,0-1.5-0.3-2-0.8s-0.7-1.3-0.7-2.3c0-0.9,0.3-1.7,0.8-2.3s1.2-0.9,2-0.9s1.4,0.3,1.8,0.8
				s0.6,1.2,0.6,2.1L105.4,256.2L105.4,256.2z M104.4,255.4c0-0.6-0.1-1-0.4-1.3s-0.6-0.5-1.1-0.5c-0.4,0-0.8,0.2-1.2,0.5
				s-0.5,0.8-0.6,1.3L104.4,255.4L104.4,255.4z"/>
			<path class="st18" d="M110,253.9c-0.2-0.1-0.4-0.2-0.7-0.2c-0.4,0-0.8,0.2-1,0.6s-0.4,0.9-0.4,1.6v3.1h-1v-6h1v1.2h0
				c0.1-0.4,0.3-0.8,0.6-1s0.6-0.4,0.9-0.4c0.3,0,0.4,0,0.6,0.1L110,253.9L110,253.9z"/>
		</g>
		<g>
			<path class="st18" d="M221.2,236.1l-2.4,8.4h-1.1l-1.7-6.1c-0.1-0.3-0.1-0.6-0.1-0.9h0c0,0.3-0.1,0.6-0.1,0.8l-1.7,6.1h-1.1
				l-2.5-8.4h1.1l1.8,6.4c0.1,0.3,0.1,0.6,0.1,0.8h0c0-0.2,0.1-0.5,0.2-0.8l1.9-6.4h0.9l1.8,6.5c0.1,0.2,0.1,0.5,0.1,0.8h0
				c0-0.2,0.1-0.5,0.2-0.8l1.7-6.5L221.2,236.1L221.2,236.1z"/>
			<path class="st18" d="M226.8,241.8h-4.2c0,0.7,0.2,1.2,0.5,1.6s0.8,0.5,1.4,0.5c0.7,0,1.3-0.2,1.9-0.7v0.9
				c-0.5,0.4-1.2,0.6-2.1,0.6c-0.9,0-1.5-0.3-2-0.8s-0.7-1.3-0.7-2.3c0-0.9,0.3-1.7,0.8-2.3s1.2-0.9,2-0.9s1.4,0.3,1.8,0.8
				s0.6,1.2,0.6,2.1L226.8,241.8L226.8,241.8z M225.8,241c0-0.6-0.1-1-0.4-1.3s-0.6-0.5-1.1-0.5c-0.4,0-0.8,0.2-1.1,0.5
				s-0.5,0.8-0.6,1.3L225.8,241L225.8,241z"/>
			<path class="st18" d="M229.3,243.7L229.3,243.7l0,0.9h-1v-8.9h1v3.9h0c0.5-0.8,1.2-1.2,2.1-1.2c0.8,0,1.4,0.3,1.8,0.8
				s0.6,1.3,0.6,2.2c0,1-0.2,1.8-0.7,2.4s-1.2,0.9-2,0.9C230.3,244.7,229.7,244.3,229.3,243.7z M229.2,241.3v0.8
				c0,0.5,0.2,0.9,0.5,1.3s0.7,0.5,1.2,0.5c0.6,0,1-0.2,1.4-0.7s0.5-1.1,0.5-1.9c0-0.7-0.1-1.2-0.5-1.6s-0.7-0.6-1.3-0.6
				c-0.6,0-1,0.2-1.4,0.6S229.2,240.7,229.2,241.3z"/>
			<path class="st18" d="M200.1,258.9H199l-0.9-2.4h-3.6l-0.8,2.4h-1.1l3.2-8.4h1L200.1,258.9z M197.8,255.7l-1.3-3.6
				c0-0.1-0.1-0.3-0.1-0.6h0c0,0.2-0.1,0.4-0.1,0.6l-1.3,3.6H197.8z"/>
			<path class="st18" d="M202.2,258.1L202.2,258.1l0,3.6h-1v-8.8h1v1.1h0c0.5-0.8,1.2-1.2,2.1-1.2c0.8,0,1.4,0.3,1.8,0.8
				s0.6,1.3,0.6,2.2c0,1-0.2,1.8-0.7,2.4s-1.2,0.9-2,0.9C203.2,259.1,202.6,258.7,202.2,258.1z M202.2,255.6v0.8
				c0,0.5,0.2,0.9,0.5,1.3s0.7,0.5,1.2,0.5c0.6,0,1-0.2,1.4-0.7s0.5-1.1,0.5-1.9c0-0.7-0.1-1.2-0.5-1.6s-0.7-0.6-1.3-0.6
				c-0.6,0-1,0.2-1.4,0.6S202.2,255.1,202.2,255.6z"/>
			<path class="st18" d="M209.2,258.1L209.2,258.1l0,3.6h-1v-8.8h1v1.1h0c0.5-0.8,1.2-1.2,2.1-1.2c0.8,0,1.4,0.3,1.8,0.8
				s0.6,1.3,0.6,2.2c0,1-0.2,1.8-0.7,2.4s-1.2,0.9-2,0.9C210.2,259.1,209.6,258.7,209.2,258.1z M209.2,255.6v0.8
				c0,0.5,0.2,0.9,0.5,1.3s0.7,0.5,1.2,0.5c0.6,0,1-0.2,1.4-0.7s0.5-1.1,0.5-1.9c0-0.7-0.1-1.2-0.5-1.6s-0.7-0.6-1.3-0.6
				c-0.6,0-1,0.2-1.4,0.6S209.2,255.1,209.2,255.6z"/>
			<path class="st18" d="M216.2,258.9h-1v-8.9h1V258.9z"/>
			<path class="st18" d="M218.5,251.4c-0.2,0-0.3-0.1-0.4-0.2s-0.2-0.3-0.2-0.4s0.1-0.3,0.2-0.4s0.3-0.2,0.4-0.2
				c0.2,0,0.3,0.1,0.4,0.2s0.2,0.3,0.2,0.4c0,0.2-0.1,0.3-0.2,0.4S218.7,251.4,218.5,251.4z M219,258.9h-1v-6h1V258.9z"/>
			<path class="st18" d="M224.9,258.7c-0.5,0.3-1,0.4-1.6,0.4c-0.9,0-1.6-0.3-2.1-0.8s-0.8-1.3-0.8-2.2c0-1,0.3-1.8,0.9-2.4
				s1.3-0.9,2.3-0.9c0.5,0,1,0.1,1.4,0.3v1c-0.4-0.3-0.9-0.5-1.4-0.5c-0.6,0-1.1,0.2-1.5,0.7s-0.6,1-0.6,1.7c0,0.7,0.2,1.3,0.6,1.7
				s0.9,0.6,1.5,0.6c0.5,0,1-0.2,1.5-0.5L224.9,258.7L224.9,258.7z"/>
			<path class="st18" d="M230.7,258.9h-1V258h0c-0.4,0.7-1,1.1-1.9,1.1c-0.6,0-1.1-0.2-1.4-0.5s-0.5-0.7-0.5-1.3c0-1.1,0.7-1.8,2-2
				l1.8-0.3c0-1-0.4-1.5-1.2-1.5c-0.7,0-1.4,0.3-2,0.7v-1c0.6-0.4,1.3-0.6,2-0.6c1.4,0,2.1,0.8,2.1,2.2L230.7,258.9L230.7,258.9z
				 M229.7,255.9l-1.4,0.2c-0.4,0.1-0.8,0.2-1,0.3s-0.3,0.4-0.3,0.8c0,0.3,0.1,0.5,0.3,0.7s0.5,0.3,0.8,0.3c0.5,0,0.9-0.2,1.2-0.5
				s0.5-0.8,0.5-1.3L229.7,255.9L229.7,255.9z"/>
			<path class="st18" d="M235.2,258.9c-0.2,0.1-0.5,0.2-0.9,0.2c-1.1,0-1.6-0.6-1.6-1.8v-3.6h-1v-0.8h1v-1.5l1-0.3v1.8h1.5v0.8h-1.5
				v3.4c0,0.4,0.1,0.7,0.2,0.9s0.4,0.3,0.7,0.3c0.2,0,0.4-0.1,0.6-0.2L235.2,258.9L235.2,258.9z"/>
			<path class="st18" d="M236.9,251.4c-0.2,0-0.3-0.1-0.4-0.2s-0.2-0.3-0.2-0.4s0.1-0.3,0.2-0.4s0.3-0.2,0.4-0.2
				c0.2,0,0.3,0.1,0.4,0.2s0.2,0.3,0.2,0.4c0,0.2-0.1,0.3-0.2,0.4S237.1,251.4,236.9,251.4z M237.4,258.9h-1v-6h1V258.9z"/>
			<path class="st18" d="M241.7,259.1c-0.9,0-1.6-0.3-2.1-0.8s-0.8-1.3-0.8-2.2c0-1,0.3-1.8,0.8-2.4s1.3-0.9,2.2-0.9
				c0.9,0,1.6,0.3,2.1,0.8s0.8,1.3,0.8,2.3c0,1-0.3,1.7-0.8,2.3S242.6,259.1,241.7,259.1z M241.8,253.6c-0.6,0-1.1,0.2-1.5,0.6
				s-0.5,1-0.5,1.7c0,0.7,0.2,1.3,0.5,1.7s0.9,0.6,1.5,0.6c0.6,0,1.1-0.2,1.4-0.6s0.5-1,0.5-1.7s-0.2-1.3-0.5-1.7
				S242.4,253.6,241.8,253.6z"/>
			<path class="st18" d="M251.2,258.9h-1v-3.4c0-1.3-0.5-1.9-1.4-1.9c-0.5,0-0.9,0.2-1.2,0.5s-0.5,0.8-0.5,1.4v3.4h-1v-6h1v1h0
				c0.4-0.8,1.1-1.1,2-1.1c0.7,0,1.2,0.2,1.5,0.6s0.5,1,0.5,1.8L251.2,258.9L251.2,258.9z"/>
		</g>
	</g>
</g>
<g id="txt">
	<g>
		<g>
			<path class="st19" d="M23.4,82.9h1.9v0.8h-1.9v0.9c0,2-0.4,3.4-1.3,4.3c-0.7,0.7-1.8,1.3-3.3,1.7l-0.5-0.7
				c1.5-0.3,2.6-0.9,3.2-1.7c0.6-0.8,0.9-2,0.9-3.5v-1h-3v3.2h-0.9v-3.2h-1.8v-0.8h1.8v-2.4h0.9v2.4h3v-2.4h0.9V82.9z"/>
			<path class="st19" d="M29.3,84.2c-0.9,0.7-2.1,1.5-3.4,2.3l-0.5-0.7c1.3-0.7,2.6-1.6,3.7-2.6c1.1-0.9,1.9-1.8,2.7-2.8l0.8,0.5
				c-0.7,0.9-1.5,1.8-2.4,2.6v7.1h-0.9V84.2z"/>
			<path class="st19" d="M32.5,81.5c1.1,0.6,2.1,1.2,2.8,1.8l-0.6,0.8c-0.7-0.6-1.6-1.2-2.8-1.9L32.5,81.5z M38.6,82.1l0.9,0.4
				c-0.4,2.1-1.1,3.7-2.2,5c-1.2,1.3-2.8,2.2-4.8,2.8L32,89.5C35.8,88.5,38,86.1,38.6,82.1z"/>
			<path class="st19" d="M43,84.2c-0.9,0.7-2.1,1.5-3.4,2.3l-0.5-0.7c1.3-0.7,2.6-1.6,3.7-2.6c1.1-0.9,1.9-1.8,2.7-2.8l0.8,0.5
				c-0.7,0.9-1.5,1.8-2.4,2.6v7.1H43V84.2z"/>
			<path class="st19" d="M46.3,81.5c1.1,0.6,2.1,1.2,2.8,1.8l-0.6,0.8c-0.7-0.6-1.6-1.2-2.8-1.9L46.3,81.5z M52.3,82.1l0.9,0.4
				c-0.4,2.1-1.1,3.7-2.2,5c-1.2,1.3-2.8,2.2-4.8,2.8l-0.4-0.8C49.6,88.5,51.7,86.1,52.3,82.1z"/>
			<path class="st19" d="M28.6,101.9c1-1.9,1.9-3.6,2.5-5.1c0.2-0.4,0.4-0.6,0.8-0.6c0.3,0,0.6,0.2,0.8,0.5c0.6,0.8,1.4,2,2.4,3.6
				c1,1.5,1.8,2.6,2.3,3.3l-0.8,0.6c-1.1-1.6-2.6-3.8-4.4-6.8c-0.1-0.1-0.1-0.1-0.2-0.1c-0.1,0-0.2,0.1-0.2,0.2
				c-0.7,1.5-1.5,3.1-2.4,4.9L28.6,101.9z M35.9,95c0.4,0,0.7,0.1,1,0.4c0.2,0.3,0.3,0.6,0.3,0.9c0,0.4-0.1,0.7-0.4,1
				c-0.3,0.2-0.6,0.3-0.9,0.3c-0.4,0-0.7-0.1-1-0.4c-0.2-0.3-0.3-0.6-0.3-0.9c0-0.4,0.1-0.7,0.4-1C35.2,95.2,35.5,95,35.9,95z
				 M35.9,95.6c-0.3,0-0.5,0.1-0.6,0.3C35.1,96,35,96.2,35,96.4c0,0.3,0.1,0.5,0.3,0.6c0.2,0.1,0.3,0.2,0.6,0.2
				c0.3,0,0.5-0.1,0.6-0.3c0.1-0.2,0.2-0.3,0.2-0.6c0-0.3-0.1-0.5-0.3-0.6C36.3,95.6,36.1,95.6,35.9,95.6z"/>
			<path class="st19" d="M37.8,99.6h6.5v0.9h-6.5V99.6z"/>
			<path class="st19" d="M45,98.8l0.4-0.7c1.4,0.6,2.4,1,2.8,1.2l-0.4,0.8C47.1,99.7,46.2,99.2,45,98.8z M52.3,97l0.8,0.5
				c-0.2,0.9-0.6,1.8-1,2.7c-0.4,0.8-0.8,1.4-1.3,1.9c-1.2,1.3-2.8,2.1-4.8,2.6l-0.5-0.8c1.9-0.3,3.4-1.1,4.6-2.4
				C51.2,100.5,51.9,99,52.3,97z M46,96.2l0.4-0.7c1.2,0.5,2.1,0.9,2.7,1.3l-0.5,0.8C48.1,97.2,47.2,96.7,46,96.2z M50.8,94.6
				l0.6-0.2c0.3,0.5,0.6,1.2,0.9,2l-0.6,0.3C51.4,95.9,51.1,95.3,50.8,94.6z M52.2,94.3l0.6-0.2c0.3,0.5,0.6,1.2,0.9,2L53,96.3
				C52.8,95.5,52.5,94.8,52.2,94.3z"/>
		</g>
	</g>
	<g>
		<g>
			<path class="st19" d="M79.6,244.9h2.3v0.8h-8.6v-0.8h5.3l0.5-6.8h-4.9v-0.8h5.9L79.6,244.9z"/>
			<path class="st19" d="M82.6,240.9h6.5v0.9h-6.5V240.9z"/>
			<path class="st19" d="M92.7,238.7h3v-2.2h0.9v2.2h1.9v0.8h-1.9v0.8c0,2-0.4,3.4-1.3,4.3c-0.7,0.7-1.8,1.3-3.3,1.7l-0.5-0.7
				c1.5-0.3,2.6-0.9,3.2-1.7c0.6-0.8,0.9-2,0.9-3.5v-1h-3v3.1h-0.9v-3.1H90v-0.8h1.8v-2.4h0.9V238.7z M96.7,235.7l0.6-0.2
				c0.2,0.5,0.5,1.2,0.7,2.1l-0.7,0.2C97.2,237,97,236.3,96.7,235.7z M98,235.4l0.6-0.2c0.3,0.5,0.5,1.2,0.7,2l-0.6,0.2
				C98.5,236.7,98.3,236,98,235.4z"/>
			<path class="st19" d="M99.7,240.9h6.5v0.9h-6.5V240.9z"/>
			<path class="st19" d="M111.9,238c-0.2,2.7-0.6,4.8-1.3,6.3c-0.4,0.8-0.9,1.3-1.6,1.3c-0.6,0-1.1-0.3-1.4-0.9
				c-0.3-0.6-0.5-1.4-0.5-2.4c0-0.8,0.1-1.6,0.4-2.2c0.2-0.6,0.5-1.1,0.9-1.5c0.4-0.4,0.9-0.7,1.5-1c0.5-0.2,1.1-0.3,1.7-0.3
				c1.4,0,2.4,0.4,3,1.3c0.6,0.8,0.8,1.8,0.8,3.3c0,1.2-0.3,2.1-1,2.9c-0.6,0.8-1.6,1.3-2.8,1.5l-0.4-0.7c2.2-0.4,3.3-1.7,3.3-3.9
				c0-1.3-0.3-2.2-0.9-2.8C113.2,238.2,112.6,238,111.9,238z M111,238c-0.4,0-0.8,0.2-1.1,0.3c-0.3,0.2-0.6,0.4-0.9,0.8
				c-0.7,0.8-1,1.8-1,3.1c0,0.8,0.1,1.4,0.4,1.8c0.2,0.4,0.4,0.5,0.6,0.5c0.2,0,0.4-0.1,0.5-0.2c0.1-0.1,0.3-0.3,0.4-0.7
				C110.5,242.3,110.8,240.4,111,238z"/>
			<path class="st19" d="M122.3,237.2c-0.2-0.6-0.4-1-0.6-1.4l0.6-0.2c0.2,0.4,0.5,1.1,0.9,2l-0.4,0.2l0.2,0.4
				c-0.1,2.5-0.7,4.4-1.7,5.7c-0.8,1.1-2.1,1.9-3.9,2.5l-0.5-0.7c1.8-0.6,3.1-1.6,3.9-2.7s1.2-2.8,1.2-4.8h-5.6v-0.8H122.3z
				 M123,235.5l0.6-0.2c0.3,0.5,0.6,1.2,0.9,2l-0.6,0.3C123.6,236.7,123.3,236,123,235.5z"/>
			<path class="st19" d="M82.8,253.8h6.8c-0.1,2.3-0.6,4-1.7,5.1c-0.8,0.9-2,1.5-3.7,1.9l-0.4-0.7c1.6-0.4,2.9-1.1,3.6-2.1
				c0.7-0.9,1.1-2.1,1.2-3.5h-5.8V253.8z M83.5,251.2h5.4v0.8h-5.4V251.2z"/>
			<path class="st19" d="M94.1,252.3h3.1c0,2.8-0.4,4.8-1.3,6.1c-0.7,1-1.9,1.9-3.6,2.4l-0.5-0.7c1.6-0.5,2.8-1.3,3.5-2.4
				c0.7-1.1,1-2.6,1-4.7H91v3h-0.9v-3.8h3.1v-1.8h0.9V252.3z"/>
			<path class="st19" d="M101,253.2h3V251h0.9v2.2h1.9v0.8h-1.9v0.8c0,2-0.4,3.4-1.3,4.3c-0.7,0.7-1.8,1.3-3.3,1.7l-0.5-0.7
				c1.5-0.3,2.6-0.9,3.2-1.7c0.6-0.8,0.9-2,0.9-3.5v-1h-3v3.1h-0.9V254h-1.8v-0.8h1.8v-2.4h0.9V253.2z M105.1,250.2l0.6-0.2
				c0.2,0.5,0.5,1.2,0.7,2.1l-0.7,0.2C105.5,251.5,105.3,250.8,105.1,250.2z M106.4,249.9l0.6-0.2c0.3,0.5,0.5,1.2,0.7,2L107,252
				C106.8,251.2,106.6,250.5,106.4,249.9z"/>
			<path class="st19" d="M108.1,255.4h6.5v0.9h-6.5V255.4z"/>
		</g>
	</g>
	<g>
		<g>
			<path class="st19" d="M206.7,237l-2.4,8.4h-1.2l-1.7-6.1c-0.1-0.3-0.1-0.5-0.1-0.9h0c0,0.3-0.1,0.6-0.2,0.8l-1.7,6.2h-1.1
				l-2.5-8.4h1.1l1.8,6.4c0.1,0.3,0.1,0.6,0.1,0.8h0c0-0.2,0.1-0.5,0.2-0.8l1.9-6.4h0.9l1.8,6.5c0.1,0.2,0.1,0.5,0.1,0.8h0
				c0-0.2,0.1-0.5,0.2-0.8l1.7-6.5H206.7z"/>
			<path class="st19" d="M212.3,242.7H208c0,0.7,0.2,1.2,0.5,1.5s0.8,0.5,1.4,0.5c0.7,0,1.3-0.2,1.9-0.7v0.9
				c-0.5,0.4-1.2,0.6-2.1,0.6c-0.8,0-1.5-0.3-2-0.8s-0.7-1.3-0.7-2.3c0-0.9,0.3-1.7,0.8-2.3s1.2-0.9,2-0.9s1.4,0.3,1.8,0.8
				s0.6,1.2,0.6,2.1V242.7z M211.3,241.8c0-0.6-0.1-1-0.4-1.3s-0.6-0.5-1.1-0.5c-0.5,0-0.8,0.2-1.2,0.5s-0.5,0.7-0.6,1.3H211.3z"/>
			<path class="st19" d="M214.7,244.5L214.7,244.5l0,0.9h-1v-8.9h1v3.9h0c0.5-0.8,1.2-1.2,2.1-1.2c0.8,0,1.4,0.3,1.8,0.8
				s0.7,1.3,0.7,2.2c0,1-0.2,1.8-0.7,2.4s-1.2,0.9-2,0.9C215.7,245.6,215.1,245.2,214.7,244.5z M214.7,242.1v0.8
				c0,0.5,0.2,0.9,0.5,1.3s0.7,0.5,1.2,0.5c0.6,0,1-0.2,1.4-0.7s0.5-1.1,0.5-1.9c0-0.7-0.2-1.2-0.5-1.6s-0.7-0.6-1.3-0.6
				c-0.6,0-1,0.2-1.3,0.6S214.7,241.5,214.7,242.1z"/>
			<path class="st19" d="M223.2,236.5h7.8c-0.1,1.1-0.4,2-0.7,2.7c-0.3,0.7-0.8,1.3-1.4,1.8l-0.7-0.6c0.5-0.4,0.9-0.9,1.3-1.5
				c0.3-0.5,0.5-1,0.5-1.6h-6.7V236.5z M223.6,245.1c1-0.5,1.8-1.1,2.2-1.8c0.4-0.8,0.7-1.8,0.7-3.2v-1.9h0.9v1.9
				c0,1.6-0.3,2.9-1,3.8c-0.5,0.7-1.2,1.3-2.2,1.8L223.6,245.1z"/>
			<path class="st19" d="M238.3,237.5c-0.1,2.2-0.5,3.9-1.2,5.1c-0.8,1.5-2.3,2.6-4.4,3.3l-0.5-0.7c1.8-0.6,3.1-1.6,3.9-2.8
				c0.8-1.2,1.2-2.8,1.2-4.9h-5.6v-0.8h5.7c-0.1-0.1-0.1-0.3-0.1-0.5c0-0.4,0.1-0.7,0.4-1c0.3-0.2,0.6-0.3,0.9-0.3
				c0.4,0,0.7,0.1,1,0.4c0.2,0.3,0.3,0.6,0.3,0.9c0,0.4-0.1,0.7-0.4,1c-0.3,0.2-0.6,0.3-0.9,0.3
				C238.5,237.6,238.4,237.5,238.3,237.5z M238.7,235.4c-0.3,0-0.5,0.1-0.6,0.3c-0.1,0.2-0.2,0.3-0.2,0.6c0,0.3,0.1,0.5,0.3,0.6
				c0.2,0.1,0.3,0.2,0.6,0.2c0.3,0,0.5-0.1,0.6-0.3c0.1-0.2,0.2-0.3,0.2-0.6c0-0.3-0.1-0.5-0.3-0.6
				C239.1,235.5,238.9,235.4,238.7,235.4z"/>
			<path class="st19" d="M241.7,236.2v5.9h-0.9v-5.9H241.7z M241.4,245.2c1.4-0.3,2.4-0.8,3-1.6c0.5-0.7,0.8-1.7,0.8-3.1v-4.4h0.9
				v4.5c0,1.7-0.4,3-1.2,3.8c-0.6,0.7-1.7,1.2-3.1,1.5L241.4,245.2z"/>
			<path class="st19" d="M205.9,252.2h5.6v0.8h-2.3c0,2.4-0.3,4.2-1,5.3c-0.5,0.9-1.4,1.6-2.7,2.2l-0.7-0.6c0.9-0.4,1.5-0.8,2-1.3
				c0.5-0.5,0.8-1.2,1-2.1c0.2-0.8,0.3-2,0.3-3.5h-2.6c-0.4,1.1-0.9,2.1-1.6,3l-0.8-0.4c1-1.3,1.7-3,2-5.3l0.9,0.1
				C206.2,251,206.1,251.6,205.9,252.2z"/>
			<path class="st19" d="M212,255h6.5v0.9H212V255z"/>
			<path class="st19" d="M219.2,254.1l0.4-0.7c1.4,0.6,2.4,1,2.8,1.2l-0.4,0.8C221.3,255,220.4,254.6,219.2,254.1z M226.5,252.4
				l0.8,0.5c-0.2,0.9-0.6,1.8-1,2.7c-0.4,0.8-0.8,1.4-1.3,1.9c-1.2,1.3-2.8,2.1-4.8,2.6l-0.5-0.8c1.9-0.3,3.4-1.1,4.6-2.4
				C225.4,255.8,226.1,254.3,226.5,252.4z M220.3,251.6l0.4-0.7c1.2,0.5,2.1,0.9,2.7,1.3L223,253C222.3,252.5,221.4,252,220.3,251.6
				z"/>
			<path class="st19" d="M231.6,255.9v-2.3h-4.1v-0.8h5v7.4h-5.1v-0.8h4.2v-2.7h-4v-0.8H231.6z"/>
			<path class="st19" d="M232.8,251.4c1.1,0.6,2.1,1.2,2.8,1.8l-0.6,0.8c-0.7-0.6-1.6-1.2-2.8-1.9L232.8,251.4z M238.8,252l0.9,0.4
				c-0.4,2.1-1.1,3.7-2.2,5c-1.2,1.3-2.8,2.2-4.8,2.8l-0.4-0.8C236.1,258.4,238.2,255.9,238.8,252z"/>
		</g>
	</g>
	<g>
		<rect x="85.5" y="23.9" class="st17" width="90.8" height="60.7"/>
		<path class="st20" d="M107.1,32.8h-1.4v-5.4c0-0.4,0-1,0.1-1.6h0c-0.1,0.4-0.2,0.6-0.2,0.8l-2.5,6.3h-1l-2.5-6.2
			c-0.1-0.2-0.1-0.5-0.2-0.8h0c0,0.3,0,0.9,0,1.6v5.4h-1.3v-8.4h2l2.2,5.6c0.2,0.4,0.3,0.8,0.3,1h0c0.1-0.4,0.3-0.8,0.4-1l2.3-5.6
			h1.9V32.8z"/>
		<path class="st20" d="M109.7,25.5c-0.2,0-0.4-0.1-0.6-0.2s-0.2-0.3-0.2-0.6s0.1-0.4,0.2-0.6s0.3-0.2,0.6-0.2
			c0.2,0,0.4,0.1,0.6,0.2s0.2,0.3,0.2,0.6c0,0.2-0.1,0.4-0.2,0.5S109.9,25.5,109.7,25.5z M110.4,32.8H109v-6h1.4V32.8z"/>
		<path class="st20" d="M116.4,32.5c-0.5,0.3-1,0.4-1.7,0.4c-0.9,0-1.6-0.3-2.2-0.8s-0.8-1.3-0.8-2.2c0-1,0.3-1.8,0.9-2.4
			s1.4-0.9,2.4-0.9c0.5,0,1,0.1,1.4,0.3v1.3c-0.4-0.3-0.9-0.5-1.3-0.5c-0.6,0-1,0.2-1.4,0.6s-0.6,0.9-0.6,1.5c0,0.6,0.2,1.1,0.5,1.5
			s0.8,0.5,1.4,0.5c0.5,0,0.9-0.2,1.4-0.5V32.5z"/>
		<path class="st20" d="M121.3,28.1c-0.2-0.1-0.4-0.2-0.7-0.2c-0.4,0-0.7,0.2-1,0.5s-0.4,0.9-0.4,1.5v2.9h-1.4v-6h1.4V28h0
			c0.1-0.4,0.3-0.8,0.6-1s0.6-0.4,0.9-0.4c0.2,0,0.4,0,0.6,0.1V28.1z"/>
		<path class="st20" d="M124.9,32.9c-0.9,0-1.7-0.3-2.2-0.8s-0.8-1.3-0.8-2.2c0-1,0.3-1.8,0.9-2.4s1.4-0.8,2.3-0.8
			c0.9,0,1.7,0.3,2.2,0.8c0.5,0.6,0.8,1.3,0.8,2.3c0,1-0.3,1.7-0.8,2.3C126.6,32.6,125.9,32.9,124.9,32.9z M125,27.7
			c-0.5,0-1,0.2-1.3,0.6s-0.5,0.9-0.5,1.5c0,0.6,0.2,1.1,0.5,1.5s0.7,0.5,1.3,0.5c0.5,0,0.9-0.2,1.2-0.5s0.4-0.9,0.4-1.5
			c0-0.7-0.1-1.2-0.4-1.5S125.5,27.7,125,27.7z"/>
		<path class="st20" d="M129,32.6v-1.3c0.5,0.4,1.1,0.6,1.7,0.6c0.8,0,1.2-0.2,1.2-0.7c0-0.1,0-0.3-0.1-0.3s-0.2-0.2-0.3-0.3
			s-0.3-0.1-0.4-0.2s-0.3-0.1-0.5-0.2c-0.2-0.1-0.5-0.2-0.7-0.3s-0.4-0.2-0.5-0.4s-0.2-0.3-0.3-0.5s-0.1-0.4-0.1-0.6
			c0-0.3,0.1-0.5,0.2-0.8s0.3-0.4,0.6-0.6s0.5-0.3,0.8-0.3s0.6-0.1,0.9-0.1c0.6,0,1.1,0.1,1.5,0.3v1.2c-0.4-0.3-0.9-0.4-1.5-0.4
			c-0.2,0-0.3,0-0.5,0.1s-0.3,0.1-0.4,0.1s-0.2,0.1-0.2,0.2s-0.1,0.2-0.1,0.3c0,0.1,0,0.2,0.1,0.3s0.1,0.2,0.2,0.2s0.2,0.1,0.4,0.2
			s0.3,0.1,0.5,0.2c0.3,0.1,0.5,0.2,0.7,0.3s0.4,0.2,0.5,0.4s0.3,0.3,0.3,0.5s0.1,0.4,0.1,0.6c0,0.3-0.1,0.6-0.2,0.8
			s-0.3,0.4-0.6,0.6s-0.5,0.3-0.8,0.3s-0.6,0.1-1,0.1C130.1,32.9,129.5,32.8,129,32.6z"/>
		<path class="st20" d="M137.2,32.9c-0.9,0-1.7-0.3-2.2-0.8s-0.8-1.3-0.8-2.2c0-1,0.3-1.8,0.9-2.4s1.4-0.8,2.3-0.8
			c0.9,0,1.7,0.3,2.2,0.8s0.8,1.3,0.8,2.3c0,1-0.3,1.7-0.8,2.3S138.2,32.9,137.2,32.9z M137.3,27.7c-0.5,0-1,0.2-1.3,0.6
			s-0.5,0.9-0.5,1.5c0,0.6,0.2,1.1,0.5,1.5s0.7,0.5,1.3,0.5c0.5,0,0.9-0.2,1.2-0.5s0.4-0.9,0.4-1.5c0-0.7-0.1-1.2-0.4-1.5
			S137.8,27.7,137.3,27.7z"/>
		<path class="st20" d="M145.1,25c-0.2-0.1-0.4-0.2-0.6-0.2c-0.7,0-1,0.4-1,1.1v0.8h1.4v1.1h-1.4v4.9h-1.4v-4.9h-1v-1.1h1v-1
			c0-0.6,0.2-1.1,0.6-1.5s0.9-0.5,1.6-0.5c0.3,0,0.6,0,0.8,0.1V25z"/>
		<path class="st20" d="M149,32.7c-0.3,0.1-0.6,0.2-1,0.2c-1.2,0-1.7-0.6-1.7-1.7v-3.4h-1v-1.1h1v-1.4l1.4-0.4v1.8h1.4v1.1h-1.4v3
			c0,0.4,0.1,0.6,0.2,0.8s0.3,0.2,0.6,0.2c0.2,0,0.4-0.1,0.6-0.2V32.7z"/>
		<path class="st20" d="M155.1,32.8h-1.4v-8.4h1.4V32.8z"/>
		<path class="st20" d="M157.2,32.8v-8.4h2.4c3.1,0,4.6,1.4,4.6,4.1c0,1.3-0.4,2.3-1.3,3.1s-2,1.2-3.5,1.2H157.2z M158.6,25.6v6h1.1
			c1,0,1.7-0.3,2.3-0.8s0.8-1.3,0.8-2.3c0-2-1-2.9-3.1-2.9H158.6z"/>
		<path class="st20" d="M109.3,38.6c0-0.1-0.1-0.3-0.1-0.4c0-0.4,0.2-0.7,0.5-1c0.3-0.2,0.6-0.4,0.9-0.4c0.4,0,0.7,0.2,1,0.5
			c0.2,0.3,0.4,0.6,0.4,0.9c0,0.4-0.2,0.7-0.5,1c-0.3,0.2-0.6,0.4-0.9,0.4c-0.1,0-0.2,0-0.3,0c-0.1,2.5-0.7,4.5-1.7,5.8
			c-0.9,1.1-2.2,2-4,2.7l-0.7-1.1c1.8-0.6,3.1-1.5,3.9-2.7c0.7-1.1,1.1-2.6,1.2-4.5h-5.5v-1.1H109.3z M110.6,37.3
			c-0.2,0-0.4,0.1-0.6,0.3c-0.1,0.1-0.2,0.3-0.2,0.5c0,0.2,0.1,0.4,0.3,0.6c0.1,0.1,0.3,0.2,0.5,0.2c0.2,0,0.4-0.1,0.6-0.3
			c0.1-0.1,0.2-0.3,0.2-0.5c0-0.2-0.1-0.4-0.3-0.6C110.9,37.4,110.8,37.3,110.6,37.3z"/>
		<path class="st20" d="M112,40.7h7.1c-0.1,2.4-0.7,4.2-1.7,5.3c-0.8,0.9-2.1,1.5-3.8,2l-0.6-1c1.7-0.4,2.9-1.1,3.6-2
			c0.7-0.8,1-1.8,1.1-3.2H112V40.7z M112.7,38.2h5.7v1.1h-5.7V38.2z"/>
		<path class="st20" d="M118.4,40.7l1.1-0.4c0.4,0.8,0.7,1.7,1,2.8l-1.1,0.4C119.1,42.4,118.7,41.5,118.4,40.7z M119.7,47
			c1.5-0.6,2.6-1.4,3.2-2.5c0.6-1,0.9-2.5,1-4.5l1.3,0.3c-0.1,1.2-0.3,2.2-0.5,2.9c-0.2,0.7-0.5,1.4-0.8,1.9
			c-0.4,0.7-0.9,1.3-1.5,1.7c-0.5,0.4-1.2,0.7-2,1.1L119.7,47z M120.7,40.2l1.1-0.3c0.3,0.7,0.6,1.6,0.8,2.7l-1.1,0.4
			C121.3,41.8,121,40.9,120.7,40.2z"/>
		<path class="st20" d="M126.7,41.2c1.7,0.5,3.2,1.1,4.6,1.9l-0.7,1.3c-1.1-0.8-2.4-1.4-3.9-1.8v5.3h-1.3V37.7h1.3V41.2z"/>
		<path class="st20" d="M130.1,38.4h6.9c0,1.9-0.2,3.5-0.6,4.7c-0.4,1.2-1,2.2-1.9,2.9c-0.8,0.7-1.9,1.3-3.3,1.8l-0.7-1.1
			c1.8-0.6,3.1-1.5,3.9-2.7c0.7-1.1,1.1-2.6,1.2-4.5h-5.5V38.4z"/>
		<path class="st20" d="M140.9,42.9l-0.5,0.9c-0.7,1.2-1.7,2.3-3.1,3.3l-0.8-1c0.8-0.5,1.5-1.1,2.2-1.9c0.6-0.7,1-1.4,1.4-2.1H137
			v-1.1h3.7l-0.1-1.6h1.2l0.1,1.6h1.8v1.1H142l0.2,5.6H141l-0.1-3.8L140.9,42.9z"/>
		<path class="st20" d="M143.2,42h6.8v1.3h-6.8V42z"/>
		<path class="st20" d="M156.6,45.5c-0.4-1-0.9-2-1.4-3l1.1-0.4c0.9,1.5,1.7,3.2,2.4,5.2l-1.3,0.6c-0.1-0.5-0.3-0.9-0.4-1.3
			c-1.7,0.3-4,0.6-6.6,0.9l-0.3-1.3c0.4,0,0.7-0.1,0.8-0.1c0.9-2.5,1.7-5.2,2.4-8.2l1.3,0.4c-0.7,2.5-1.5,5.1-2.4,7.7
			C153.9,45.8,155.3,45.7,156.6,45.5z"/>
	</g>
</g>
</svg>
