<svg xmlns="http://www.w3.org/2000/svg" xmlns:xlink="http://www.w3.org/1999/xlink" viewBox="0 0 433 302.1"><defs><style>.cls-1{fill:#505050;}.cls-16,.cls-2,.cls-7{fill:#fff;}.cls-3{fill:#ebebeb;}.cls-4{fill:#0072c6;}.cls-5{fill:#3c3c41;}.cls-6{fill:#75757a;}.cls-7{opacity:0.2;}.cls-7,.cls-8{isolation:isolate;}.cls-8,.cls-9{fill:#50e6ff;}.cls-8{opacity:0.65;}.cls-9{stroke:#0072c6;stroke-width:0.75px;}.cls-11,.cls-14,.cls-16,.cls-9{stroke-miterlimit:10;}.cls-10,.cls-11,.cls-13{fill:none;}.cls-10,.cls-11{stroke:#000;}.cls-12,.cls-14{fill:#001f50;}.cls-14{stroke:#001f50;}.cls-14,.cls-16{stroke-width:0.05px;}.cls-15{fill:#1e1e1e;}.cls-16{stroke:#fff;}</style><symbol id="New_Symbol_42" data-name="New Symbol 42" viewBox="0 0 21 20"><circle class="cls-1" cx="10.5" cy="10" r="10"/><path class="cls-2" d="M13,14.4H7.7v-.7a2.2,2.2,0,0,1,.1-.8,4.88,4.88,0,0,1,.3-.7c.1-.2.3-.2.5-.4l.5-.5a3.17,3.17,0,0,1,.6-.5,2.65,2.65,0,0,0,.6-.5,1.21,1.21,0,0,0,.5-.5c.1-.2.3-.3.4-.5s.2-.3.3-.5,0-.3,0-.5a1.27,1.27,0,0,0-.1-.6,1,1,0,0,0-.3-.4c-.2-.2-.2-.2-.4-.2s-.4-.1-.6-.1a3.55,3.55,0,0,0-1,.2,3,3,0,0,0-1,.7V6.6c.2-.1.3-.2.5-.3a1.69,1.69,0,0,1,.5-.2,2.07,2.07,0,0,0,.6-.2,1.48,1.48,0,0,1,.7-.1,3,3,0,0,1,1,.2,2,2,0,0,1,.8.4,1.79,1.79,0,0,1,.5.7,3,3,0,0,1,.2,1,2.77,2.77,0,0,1-.1.9,3.55,3.55,0,0,1-.4.9,1.72,1.72,0,0,1-.6.6c-.3.2-.4.5-.7.7a4.23,4.23,0,0,1-.7.5,3.17,3.17,0,0,0-.6.5c-.2.2-.3.4-.4.5a.76.76,0,0,0-.2.5H13v1.2Z"/></symbol><symbol id="New_Symbol_41" data-name="New Symbol 41" viewBox="0 0 21 20"><circle class="cls-1" cx="10.5" cy="10" r="10"/><path class="cls-2" d="M11.7,5.8v8.6H10.3V7.5a5.58,5.58,0,0,1-.8.5,2.93,2.93,0,0,1-1,.3V7.1a1.45,1.45,0,0,0,.7-.2l.6-.3c.2-.1.5-.2.7-.3a2.65,2.65,0,0,0,.6-.5Z"/></symbol><symbol id="New_Symbol_43" data-name="New Symbol 43" viewBox="0 0 21 20"><circle class="cls-1" cx="10.5" cy="10" r="10"/><path class="cls-2" d="M7.9,14.1V12.8a3.08,3.08,0,0,0,1.9.6,1.7,1.7,0,0,0,1.3-.4,1.39,1.39,0,0,0,.5-1c0-1-.7-1.4-2.2-1.4H8.8V9.5h.6c1.3,0,1.9-.4,1.9-1.4,0-.7-.5-1.1-1.5-1.1a2.45,2.45,0,0,0-1.6.6V6.4a4.23,4.23,0,0,1,2-.5,2.61,2.61,0,0,1,1.8.6A1.8,1.8,0,0,1,12.7,8,2,2,0,0,1,11,10h0a2.59,2.59,0,0,1,1.4.6A2.25,2.25,0,0,1,13,12a2,2,0,0,1-.9,1.8,3.9,3.9,0,0,1-2.2.8A3.68,3.68,0,0,1,7.9,14.1Z"/></symbol><symbol id="New_Symbol_45" data-name="New Symbol 45" viewBox="0 0 21 20"><circle class="cls-1" cx="10.5" cy="10" r="10"/><path class="cls-2" d="M8.1,14.2V12.9a2.72,2.72,0,0,0,1.7.6,2.89,2.89,0,0,0,1.4-.4,1.25,1.25,0,0,0,.5-1.2,1.15,1.15,0,0,0-.6-1.1,3.31,3.31,0,0,0-1.5-.4,9.51,9.51,0,0,0-1.4.1L8.5,6h4.1V7.2h-3L9.5,9.3h.7a2.82,2.82,0,0,1,2.1.7,2.27,2.27,0,0,1,.7,1.8,2.79,2.79,0,0,1-.8,2,3.2,3.2,0,0,1-2.3.8A3,3,0,0,1,8.1,14.2Z"/></symbol><symbol id="New_Symbol_44" data-name="New Symbol 44" viewBox="0 0 21 20"><circle class="cls-1" cx="10.5" cy="10" r="10"/><path class="cls-2" d="M12.5,6v5.4h1.3v1.1H12.5v1.8H11.1V12.5H7.3V11.4c.3-.4.7-.8,1.1-1.3a12.13,12.13,0,0,0,1-1.4c.3-.5.6-.9.9-1.4A9.13,9.13,0,0,0,11.1,6Zm-1.4,5.5V8a17.37,17.37,0,0,1-1.3,2,8.54,8.54,0,0,1-1.1,1.4l2.4.1Z"/></symbol></defs><title>OJ104327284</title><g id="bg"><g id="bg-2" data-name="bg"><g id="Shapes"><rect class="cls-2" width="433" height="299.7"/><rect class="cls-3" x="149.4" y="41" width="220.7" height="17.5"/><rect class="cls-2" x="251.9" y="37.5" width="46.3" height="24.9"/><path class="cls-4" d="M300,31.8a.79.79,0,0,0-.8-.8H250.9a.79.79,0,0,0-.8.8V62a.79.79,0,0,0,.8.8h48.3a.79.79,0,0,0,.8-.8Zm-43.1,4.8h-2.5V34.1h2.5Zm5,0h-2.5V34.1h2.5Zm5,0h-2.5V34.1h2.5Zm-15,1.8h46.3V60.9H251.9V38.4Z"/><circle class="cls-3" cx="239" cy="46.9" r="18.5"/><path class="cls-5" d="M239,66.3a19.5,19.5,0,1,1,19.5-19.5A19.46,19.46,0,0,1,239,66.3Zm0-36.9a17.5,17.5,0,1,0,17.5,17.5A17.52,17.52,0,0,0,239,29.4Z"/><path class="cls-6" d="M244,38a5,5,0,0,1-10,0,5.08,5.08,0,0,1,5-5,5,5,0,0,1,5,5"/><polygon class="cls-6" points="242.6 44.8 238.9 49.9 235.3 44.8 230 44.8 230 57.4 248 57.4 248 44.8 242.6 44.8"/><path class="cls-7" d="M234,38a5,5,0,0,0,4.9,5l1.3-9.9a2.54,2.54,0,0,0-1.2-.2,5,5,0,0,0-5,5.1"/><polygon class="cls-7" points="235.3 44.8 230 44.8 230 57.4 237 57.4 238.1 48.7 235.3 44.8"/><rect class="cls-2" y="217.8" width="96" height="55"/><rect class="cls-8" y="217.8" width="96" height="55"/><rect class="cls-2" x="210.3" y="217.8" width="95" height="55"/><rect class="cls-8" x="210.3" y="217.8" width="95" height="55"/><rect class="cls-5" x="221" y="227.8" width="75" height="35"/><circle class="cls-9" cx="273.5" cy="197.4" r="4.6"/><line class="cls-10" x1="273.5" y1="202.3" x2="273.5" y2="217.8"/><path class="cls-11" d="M165.3,64.2v87.6a7.8,7.8,0,0,0,4.7,6.8l89.7,34.3"/><polygon points="161.5 65.3 165.3 58.8 169 65.3 161.5 65.3"/><polygon points="257.2 196 264.6 194.8 259.9 189 257.2 196"/><path class="cls-11" d="M351.4,58.8v93a9,9,0,0,1-4.5,7.3l-62,31.3"/><polygon points="284.3 186.5 280.2 192.8 287.6 193.2 284.3 186.5"/><path class="cls-11" d="M220.9,64.2l.1,86.1a11.12,11.12,0,0,0,4,8l39.1,29.2"/><polygon points="217.2 65.3 220.9 58.8 224.7 65.3 217.2 65.3"/><polygon points="261 189.8 268.4 190.6 265.4 183.8 261 189.8"/><line class="cls-11" x1="273.5" y1="68.7" x2="273.5" y2="184.3"/><polygon points="269.8 69.8 273.5 63.3 277.2 69.8 269.8 69.8"/><polygon points="269.8 183.2 273.5 189.7 277.2 183.2 269.8 183.2"/><use width="21" height="20" transform="translate(210.5 91.23)" xlink:href="#New_Symbol_42"/><use width="21" height="20" transform="translate(154.78 91.23)" xlink:href="#New_Symbol_41"/><use width="21" height="20" transform="translate(263 91.23)" xlink:href="#New_Symbol_43"/><use width="21" height="20" transform="translate(340.94 91.23)" xlink:href="#New_Symbol_45"/><rect class="cls-2" x="217.7" y="117.6" width="6.8" height="15.7"/><polygon class="cls-9" points="319.4 163.8 310.8 170 314.1 180 324.7 180 328 170 319.4 163.8"/><path class="cls-11" d="M221,231.7H77.5c-7.2,0-13,4.1-13,9.1s5.8,9.1,13,9.1H215.7"/><polygon points="214.5 253.7 221 250 214.5 246.2 214.5 253.7"/><rect class="cls-2" x="29.5" y="233" width="37" height="19.9"/><path class="cls-12" d="M68,228.4a.68.68,0,0,0-.7-.7H28.7a.68.68,0,0,0-.7.7v24.2a.68.68,0,0,0,.7.7H67.4a.68.68,0,0,0,.7-.7V228.4Zm-34.5,3.9h-2v-2h2Zm4,0h-2v-2h2Zm4,0h-2v-2h2Zm-12,1.5h37v18h-37Z"/><use width="21" height="20" transform="translate(142.76 224.95)" xlink:href="#New_Symbol_44"/></g></g><rect class="cls-13" x="73.6" y="88.6" width="80.4" height="43.5"/><rect class="cls-13" x="231.1" y="0.9" width="80.4" height="43.5"/><rect class="cls-13" x="115.8" y="258.6" width="75" height="43.5"/><rect class="cls-13" x="221" y="233.1" width="75" height="43.5"/></g><g id="txt"><path d="M5.62,207.19H1.94v-.78H9.55v.78h-3a18.19,18.19,0,0,1-.12,2.2,4.31,4.31,0,0,1-.28,1.15,5.34,5.34,0,0,1-2.87,2.75l-.6-.67a4.42,4.42,0,0,0,2.61-2.42A10,10,0,0,0,5.62,207.19Zm-3-3.4H8.87v.79H2.64Z"/><path d="M15.48,205.81h3.05v.81H15.48a9.62,9.62,0,0,1-.71,4.13,5.86,5.86,0,0,1-2.87,2.54l-.63-.63a5.23,5.23,0,0,0,2.65-2.32,5.27,5.27,0,0,0,.5-1.68,15,15,0,0,0,.14-2H10.8v-.81h3.76v-2.6h.92Z"/><path d="M20.07,204.24A20.63,20.63,0,0,1,22.88,206l-.59.79A18,18,0,0,0,19.53,205Zm6,.59.91.44a9.73,9.73,0,0,1-2.24,5A9.6,9.6,0,0,1,20,213l-.41-.82Q25.22,210.81,26.11,204.83Z"/><path d="M29.88,207.56v5.7H29V203.19h.93v3.48a18.92,18.92,0,0,1,4.57,1.91l-.46.87A14.83,14.83,0,0,0,29.88,207.56Z"/><path d="M46,212.78H44.88L44,210.42H40.43l-.84,2.36H38.5l3.22-8.4h1Zm-2.3-3.24L42.35,206a5.45,5.45,0,0,1-.13-.56h0a2.67,2.67,0,0,1-.14.56l-1.3,3.58Z"/><path d="M214.54,207.19h-3.68v-.78h7.61v.78h-3a18.19,18.19,0,0,1-.12,2.2,4.31,4.31,0,0,1-.28,1.15,5.34,5.34,0,0,1-2.87,2.75l-.6-.67a4.42,4.42,0,0,0,2.61-2.42A10,10,0,0,0,214.54,207.19Zm-3-3.4h6.23v.79h-6.23Z"/><path d="M224.4,205.81h3v.81h-3a9.62,9.62,0,0,1-.71,4.13,5.86,5.86,0,0,1-2.87,2.54l-.63-.63a4.77,4.77,0,0,0,3.15-4,16.83,16.83,0,0,0,.14-2h-3.76v-.81h3.76v-2.6h.92Z"/><path d="M229,204.24A20.63,20.63,0,0,1,231.8,206l-.59.79a18,18,0,0,0-2.76-1.86Zm6,.59.91.44a9.73,9.73,0,0,1-2.24,5,9.6,9.6,0,0,1-4.78,2.77l-.41-.82Q234.14,210.81,235,204.83Z"/><path d="M238.8,207.56v5.7h-.93V203.19h.93v3.48a18.92,18.92,0,0,1,4.57,1.91l-.46.87A14.83,14.83,0,0,0,238.8,207.56Z"/><path d="M248.39,212.78v-8.4h2.39a2.59,2.59,0,0,1,1.73.53,1.75,1.75,0,0,1,.64,1.39,2,2,0,0,1-.39,1.24,2.09,2.09,0,0,1-1.07.75v0a2.11,2.11,0,0,1,1.36.65,2,2,0,0,1,.51,1.41,2.2,2.2,0,0,1-.77,1.74,2.87,2.87,0,0,1-1.95.67Zm1-7.51V208h1a1.91,1.91,0,0,0,1.27-.39,1.36,1.36,0,0,0,.47-1.1c0-.81-.54-1.22-1.62-1.22Zm0,3.6v3h1.34a2,2,0,0,0,1.34-.41,1.4,1.4,0,0,0,.48-1.13c0-1-.67-1.48-2-1.48Z"/><path d="M290.27,203.1a.18.18,0,0,1-.09.15.48.48,0,0,0-.18.3,10.56,10.56,0,0,1-2.73,5.21.58.58,0,0,1-.17.11s-.08,0-.16-.14a1.21,1.21,0,0,0-.4-.35,9.3,9.3,0,0,0,2.85-5.07h-1.2l-1.05,0c-.06,0-.1,0-.1-.09v-.48c0-.08,0-.12.1-.12l1.05,0h1.18a.51.51,0,0,0,.22,0,.33.33,0,0,1,.14,0c.07,0,.17.07.31.2S290.27,203.05,290.27,203.1Zm5.33-2.64c0,.08-.05.12-.15.15a2,2,0,0,0-.47.3,17.59,17.59,0,0,1-2.49,1.61v1h.22l1.11,0c.06,0,.09,0,.09.1V204a.08.08,0,0,1-.09.09l-1.11,0h-.22v1.08h.36l1.23,0a.08.08,0,0,1,.09.09v.42a.08.08,0,0,1-.09.09l-1.23,0h-.36v1.13h.79l1.49,0c.06,0,.1,0,.1.09v.44c0,.06,0,.09-.1.09l-1.49,0h-.79l0,1.3a1,1,0,0,1-.26.76,2.21,2.21,0,0,1-1.33.26h-.37a.48.48,0,0,1-.22,0,1.4,1.4,0,0,1-.08-.22,1.67,1.67,0,0,0-.25-.52,8.56,8.56,0,0,0,1.24.07.69.69,0,0,0,.44-.1.41.41,0,0,0,.12-.34V207.4H291l-1.49,0c-.08,0-.11,0-.11-.09v-.44c0-.06,0-.09.11-.09l1.49,0h.79v-1.13h-.39l-1.24,0a.08.08,0,0,1-.09-.09v-.42a.08.08,0,0,1,.09-.09l1.24,0h.39v-1.08h-.27l-1.1,0a.08.08,0,0,1-.09-.09v-.43c0-.07,0-.1.09-.1l1.1,0h.27v-.27a8.27,8.27,0,0,0-.08-1.37l.53.11a15.36,15.36,0,0,0,2.13-1.44h-4.08l-1.65,0c-.06,0-.09,0-.09-.1v-.51a.08.08,0,0,1,.09-.09l1.65,0h4.22a.66.66,0,0,0,.34-.05l.13,0c.07,0,.18.08.33.25S295.6,200.37,295.6,200.46Zm2.16,7.86a1.84,1.84,0,0,0-.44.39c-.07.1-.13.15-.16.15s-.1-.05-.18-.15a9.82,9.82,0,0,1-1.91-2.82,13.56,13.56,0,0,1-1-3.34.11.11,0,0,1,0-.05s.06-.07.17-.1l.31-.08.09,0s0,0,0,.08a17.48,17.48,0,0,0,.42,1.85,14.83,14.83,0,0,0,1.38-1.5,2.56,2.56,0,0,0,.35-.58,5.26,5.26,0,0,1,.55.42.3.3,0,0,1,.11.18c0,.05,0,.1-.13.15a1.88,1.88,0,0,0-.5.44,18.51,18.51,0,0,1-1.53,1.56A8.68,8.68,0,0,0,297.76,208.32Z"/><path d="M302.64,202a.08.08,0,0,1-.09.09l-1.25,0h-1.4l-1.24,0a.08.08,0,0,1-.09-.09v-.51c0-.07,0-.1.09-.1l1.24,0h1.4l1.25,0c.06,0,.09,0,.09.1Zm-.36-1.64a.09.09,0,0,1-.1.1l-1,0h-.93l-1,0c-.06,0-.09,0-.09-.1v-.48c0-.07,0-.1.09-.1l1,0h.93l1,0c.07,0,.1,0,.1.1Zm0,9.3c0,.06,0,.09-.1.09h-.48c-.07,0-.1,0-.1-.09v-.39h-1.78v.63c0,.06,0,.09-.1.09h-.48c-.07,0-.11,0-.11-.09l0-1.75v-.72l0-1.07c0-.05,0-.08.11-.08l1,0h.89l1,0c.07,0,.1,0,.1.08l0,.86v.74Zm-.15-6.07a.08.08,0,0,1-.09.09l-1,0h-.75l-1,0a.08.08,0,0,1-.09-.09v-.47a.08.08,0,0,1,.09-.09l1,0H301l1,0a.08.08,0,0,1,.09.09Zm0,1.61a.08.08,0,0,1-.09.09l-1,0h-.75l-1,0a.08.08,0,0,1-.09-.09v-.47c0-.07,0-.1.09-.1l1,0H301l1,0c.06,0,.09,0,.09.1Zm-.53,3.49v-1.8h-1.78v1.8Zm7.24-8.79c0,.1,0,.35-.05.77a13.45,13.45,0,0,1-.37,3.29,1,1,0,0,1-1.08.67c-.31,0-.58,0-.8,0s-.16,0-.18-.06a.52.52,0,0,1-.05-.21,1.58,1.58,0,0,0-.17-.49,5.57,5.57,0,0,0,1,.11.58.58,0,0,0,.59-.32,10.87,10.87,0,0,0,.32-3.19h-2.11a7,7,0,0,1-.36,1.77q.65.31,1.11.57s.05,0,.05.05a.4.4,0,0,1-.06.13l-.15.33q-.06.12-.12.12l-.07,0-1-.57a5,5,0,0,1-2.19,2.2.49.49,0,0,1-.19.07c-.05,0-.1,0-.16-.16a1.09,1.09,0,0,0-.37-.34,4.41,4.41,0,0,0,2.31-2.06,14.26,14.26,0,0,0-1.41-.56s-.05,0-.05,0a.31.31,0,0,1,0-.12l.14-.31c0-.06.07-.09.1-.09a.1.1,0,0,1,.07,0c.55.18,1,.36,1.35.51a5.49,5.49,0,0,0,.28-1.49h-.51l-1.51,0c-.07,0-.1,0-.1-.1v-.48c0-.06,0-.09.1-.09l1.51,0h2.42l1.54,0C308.76,199.78,308.8,199.81,308.8,199.88Zm-5,6.69a7.86,7.86,0,0,1-.68,2.26s0,.06-.07.06l-.13,0-.29-.15c-.09,0-.14-.09-.14-.12a.39.39,0,0,1,0-.06,6,6,0,0,0,.65-2.12c0-.06,0-.09.07-.09l.12,0,.32.1c.09,0,.13.05.13.09Zm4,1.73a3.6,3.6,0,0,1-.19.88.88.88,0,0,1-.4.41,2.55,2.55,0,0,1-1.23.21,3,3,0,0,1-1.11-.14.75.75,0,0,1-.43-.79v-2.09a6.37,6.37,0,0,0-.05-.92,5.13,5.13,0,0,1,.67.07c.1,0,.15.06.15.1l-.05.14a1.71,1.71,0,0,0-.06.56v1.86a.86.86,0,0,0,.05.34.39.39,0,0,0,.18.14,2.32,2.32,0,0,0,.68.07,1.74,1.74,0,0,0,.83-.12c.21-.15.31-.57.33-1.27a1.26,1.26,0,0,0,.44.24c.13,0,.2.12.2.2A.54.54,0,0,1,307.81,208.3Zm-.89-2.46s.06,0,.06.07,0,.08-.1.14l-.23.23c-.08.08-.12.11-.14.11s0,0-.07,0a6.12,6.12,0,0,0-1.45-1.26s-.05,0-.05-.05,0,0,.09-.12l.23-.21c.05-.06.09-.08.11-.08l.08,0A9.45,9.45,0,0,1,306.92,205.84Zm2.49,2.38a.15.15,0,0,1,0,.06s-.05.06-.14.11l-.29.15-.14.06s-.05,0-.06-.07a7.48,7.48,0,0,0-1.08-2.05l0,0s.05-.06.15-.1l.26-.12a.26.26,0,0,1,.13-.05s0,0,.08.06A9.17,9.17,0,0,1,309.41,208.22Z"/><path d="M313.87,201.5H311v-.8h6.66v.8H314.8v6.72h3.47V209h-7.74v-.81h3.34Z"/><path d="M320,200.62a20.8,20.8,0,0,1,2.82,1.78l-.6.8a17.09,17.09,0,0,0-2.76-1.87Zm6.05.59.9.44a9.8,9.8,0,0,1-2.23,5,9.56,9.56,0,0,1-4.79,2.77l-.41-.82Q325.18,207.19,326.08,201.21Z"/><path d="M329.84,203.94v5.7h-.92V199.57h.92v3.48a18.92,18.92,0,0,1,4.57,1.91l-.46.87A15,15,0,0,0,329.84,203.94Zm2.33-4.62.61-.24a15.54,15.54,0,0,1,.89,2l-.65.26A13,13,0,0,0,332.17,199.32Zm1.36-.41.61-.21a10.3,10.3,0,0,1,.85,2l-.63.26A11.1,11.1,0,0,0,333.53,198.91Z"/><path d="M337.94,204.05a14.74,14.74,0,0,1-1.74,4.69l-.8-.44a12.28,12.28,0,0,0,1.67-4.52Zm2.37-2.41h3.8v.79h-3.8v7.22h-.92v-7.22h-3.75v-.79h3.75v-2.08h.92Zm1.36,2.49.84-.31a21.06,21.06,0,0,0,1.71,4.39l-.88.47A33.43,33.43,0,0,1,341.67,204.13Zm1.71-5.5a1.3,1.3,0,0,1,1,.43,1.34,1.34,0,0,1-1,2.25,1.28,1.28,0,0,1-1-.44,1.3,1.3,0,0,1-.34-.9,1.33,1.33,0,0,1,1.34-1.34Zm0,.51a.8.8,0,0,0-.62.27.85.85,0,0,0,.06,1.18.79.79,0,0,0,.56.21.78.78,0,0,0,.61-.27.82.82,0,0,0,.22-.56.8.8,0,0,0-.27-.62A.81.81,0,0,0,343.38,199.14Z"/><path d="M348.65,203.27a28.92,28.92,0,0,1-3.37,2.25l-.49-.69a22.26,22.26,0,0,0,3.75-2.58,16.82,16.82,0,0,0,2.65-2.8l.79.49a19.27,19.27,0,0,1-2.4,2.56v7.14h-.93Z"/><path d="M353.41,200.62a21.28,21.28,0,0,1,2.81,1.78l-.59.8a18,18,0,0,0-2.76-1.87Zm6,.59.9.44a9.72,9.72,0,0,1-2.23,5,9.52,9.52,0,0,1-4.79,2.77l-.41-.82Q358.56,207.19,359.45,201.21Z"/><path d="M363.22,203.94v5.7h-.93V199.57h.93v3.48a19.09,19.09,0,0,1,4.57,1.91l-.46.87A15.12,15.12,0,0,0,363.22,203.94Z"/><path d="M290.27,100a.18.18,0,0,1-.09.15.48.48,0,0,0-.18.3,10.56,10.56,0,0,1-2.73,5.21.58.58,0,0,1-.17.11s-.08,0-.16-.14a1.21,1.21,0,0,0-.4-.35,9.3,9.3,0,0,0,2.85-5.07h-1.2l-1.05,0c-.06,0-.1,0-.1-.09V99.7c0-.08,0-.12.1-.12l1.05,0h1.18a.51.51,0,0,0,.22,0,.33.33,0,0,1,.14,0c.07,0,.17.07.31.2S290.27,100,290.27,100Zm5.33-2.64c0,.08-.05.12-.15.15a2,2,0,0,0-.47.3,17.59,17.59,0,0,1-2.49,1.61v1h.22l1.11,0c.06,0,.09,0,.09.1v.43a.08.08,0,0,1-.09.09l-1.11,0h-.22v1.08h.36l1.23,0a.08.08,0,0,1,.09.09v.42a.08.08,0,0,1-.09.09l-1.23,0h-.36v1.13h.79l1.49,0c.06,0,.1,0,.1.09v.44c0,.06,0,.09-.1.09l-1.49,0h-.79l0,1.3a1,1,0,0,1-.26.76,2.21,2.21,0,0,1-1.33.26h-.37a.48.48,0,0,1-.22,0,1.4,1.4,0,0,1-.08-.22,1.67,1.67,0,0,0-.25-.52,8.56,8.56,0,0,0,1.24.07.69.69,0,0,0,.44-.1.41.41,0,0,0,.12-.34v-1.17H291l-1.49,0c-.08,0-.11,0-.11-.09v-.44c0-.06,0-.09.11-.09l1.49,0h.79v-1.13h-.39l-1.24,0a.08.08,0,0,1-.09-.09v-.42a.08.08,0,0,1,.09-.09l1.24,0h.39V101h-.27l-1.1,0a.08.08,0,0,1-.09-.09v-.43c0-.07,0-.1.09-.1l1.1,0h.27v-.27a8.27,8.27,0,0,0-.08-1.37l.53.11a15.36,15.36,0,0,0,2.13-1.44h-4.08l-1.65,0c-.06,0-.09,0-.09-.1v-.51a.08.08,0,0,1,.09-.09l1.65,0h4.22a.66.66,0,0,0,.34,0l.13,0c.07,0,.18.08.33.25S295.6,97.31,295.6,97.4Zm2.16,7.86a1.84,1.84,0,0,0-.44.39c-.07.1-.13.15-.16.15s-.1,0-.18-.15a9.82,9.82,0,0,1-1.91-2.82,13.56,13.56,0,0,1-1-3.34.11.11,0,0,1,0,0s.06-.07.17-.1l.31-.08.09,0s0,0,0,.07a17.16,17.16,0,0,0,.42,1.86,14.83,14.83,0,0,0,1.38-1.5,2.56,2.56,0,0,0,.35-.58,5.26,5.26,0,0,1,.55.42.3.3,0,0,1,.11.18s0,.1-.13.15a1.88,1.88,0,0,0-.5.44,18.51,18.51,0,0,1-1.53,1.56A8.68,8.68,0,0,0,297.76,105.26Z"/><path d="M302.64,98.92a.08.08,0,0,1-.09.09l-1.25,0h-1.4l-1.24,0a.08.08,0,0,1-.09-.09v-.51c0-.07,0-.1.09-.1l1.24,0h1.4l1.25,0c.06,0,.09,0,.09.1Zm-.36-1.64a.09.09,0,0,1-.1.1l-1,0h-.93l-1,0c-.06,0-.09,0-.09-.1V96.8c0-.07,0-.1.09-.1l1,0h.93l1,0c.07,0,.1,0,.1.1Zm0,9.3c0,.06,0,.09-.1.09h-.48c-.07,0-.1,0-.1-.09v-.39h-1.78v.62a.09.09,0,0,1-.1.1h-.48c-.07,0-.11,0-.11-.1l0-1.74v-.72l0-1.07s0-.08.11-.08l1,0h.89l1,0c.07,0,.1,0,.1.08l0,.86v.74Zm-.15-6.07a.08.08,0,0,1-.09.09l-1,0h-.75l-1,0a.08.08,0,0,1-.09-.09V100a.08.08,0,0,1,.09-.09l1,0H301l1,0a.08.08,0,0,1,.09.09Zm0,1.61a.08.08,0,0,1-.09.09l-1,0h-.75l-1,0a.08.08,0,0,1-.09-.09v-.47c0-.07,0-.1.09-.1l1,0H301l1,0c.06,0,.09,0,.09.1Zm-.53,3.49v-1.8h-1.78v1.8Zm7.24-8.79c0,.1,0,.35-.05.77a13.45,13.45,0,0,1-.37,3.29,1,1,0,0,1-1.08.67c-.31,0-.58,0-.8,0s-.16,0-.18-.06a.52.52,0,0,1-.05-.21,1.58,1.58,0,0,0-.17-.49,5.57,5.57,0,0,0,1,.11.58.58,0,0,0,.59-.32,10.87,10.87,0,0,0,.32-3.19h-2.11a7,7,0,0,1-.36,1.77q.65.32,1.11.57s.05,0,.05,0a.4.4,0,0,1-.06.13l-.15.33q-.06.12-.12.12l-.07,0-1-.57a5,5,0,0,1-2.19,2.2.49.49,0,0,1-.19.07c-.05,0-.1-.05-.16-.16a1.09,1.09,0,0,0-.37-.34,4.41,4.41,0,0,0,2.31-2.06,14.26,14.26,0,0,0-1.41-.56s-.05,0-.05,0a.31.31,0,0,1,0-.12l.14-.31c0-.06.07-.09.1-.09a.1.1,0,0,1,.07,0c.55.18,1,.36,1.35.51a5.49,5.49,0,0,0,.28-1.49h-.51l-1.51,0c-.07,0-.1,0-.1-.1v-.48c0-.06,0-.09.1-.09l1.51,0h2.42l1.54,0C308.76,96.72,308.8,96.75,308.8,96.82Zm-5,6.69a7.86,7.86,0,0,1-.68,2.26s0,.06-.07.06l-.13,0-.29-.15c-.09,0-.14-.09-.14-.12l0-.06a6,6,0,0,0,.65-2.12c0-.06,0-.09.07-.09l.12,0,.32.1c.09,0,.13.05.13.09Zm4,1.73a3.6,3.6,0,0,1-.19.88.88.88,0,0,1-.4.41,2.55,2.55,0,0,1-1.23.21,3,3,0,0,1-1.11-.14.75.75,0,0,1-.43-.79v-2.09a6.37,6.37,0,0,0-.05-.92,5.13,5.13,0,0,1,.67.07c.1,0,.15.06.15.1a1.34,1.34,0,0,1-.05.14,1.71,1.71,0,0,0-.06.56v1.86a.86.86,0,0,0,.05.34.39.39,0,0,0,.18.14,2.32,2.32,0,0,0,.68.07,1.74,1.74,0,0,0,.83-.12c.21-.15.31-.57.33-1.27a1.26,1.26,0,0,0,.44.24c.13,0,.2.12.2.2A.54.54,0,0,1,307.81,105.24Zm-.89-2.46s.06,0,.06.07,0,.08-.1.14l-.23.23c-.08.08-.12.11-.14.11s0,0-.07,0A6.12,6.12,0,0,0,305,102s-.05,0-.05,0,0,0,.09-.12l.23-.21c.05-.06.09-.09.11-.09l.08,0A9.45,9.45,0,0,1,306.92,102.78Zm2.49,2.38a.15.15,0,0,1,0,.06s-.05.06-.14.11l-.29.15-.14.06s-.05,0-.06-.07a7.48,7.48,0,0,0-1.08-2s0,0,0,0,.05-.06.15-.1l.26-.12a.26.26,0,0,1,.13,0s0,0,.08.06A9.17,9.17,0,0,1,309.41,105.16Z"/><path d="M367.52,101v5.71h-.92V96.64h.92v3.48a18.94,18.94,0,0,1,4.57,1.9l-.46.87A15.14,15.14,0,0,0,367.52,101Z"/><path d="M373.25,101.3h6.53v.89h-6.53Z"/><path d="M383.88,98.63a11.35,11.35,0,0,1-2.21,3.45l-.69-.53a10.41,10.41,0,0,0,2.59-5l.95.15c-.08.31-.2.68-.35,1.12h4.16a12.71,12.71,0,0,1-2.29,6.31,9,9,0,0,1-3.79,2.66l-.53-.65a8.26,8.26,0,0,0,3.85-2.84,10.88,10.88,0,0,0,1.69-4.68Z"/><path d="M390.27,97.68a20.77,20.77,0,0,1,2.82,1.79l-.6.79a17.09,17.09,0,0,0-2.76-1.87Zm6.05.6.9.43a9.88,9.88,0,0,1-2.23,5,9.55,9.55,0,0,1-4.79,2.76l-.41-.81Q395.42,104.24,396.32,98.28Z"/><path d="M403.22,102.47v2.37h-.8v-2q-.29.14-.57.3c-1,.58-1.54,1.16-1.54,1.74a.79.79,0,0,0,.54.81,5.58,5.58,0,0,0,1.78.2c.84,0,1.82,0,2.93-.15l0,.82c-1.46.07-2.42.11-2.9.11a5.06,5.06,0,0,1-2.54-.44,1.53,1.53,0,0,1-.61-1.37,2.63,2.63,0,0,1,1.62-2.19c.4-.23.82-.45,1.24-.66,0-.75-.29-1.12-.77-1.12-.68,0-1.6.67-2.77,2l-.62-.55a13.93,13.93,0,0,0,2.48-3.54q-1.1,0-2.19,0v-.73h2.53a13.18,13.18,0,0,0,.54-1.61l.86.16a12,12,0,0,1-.5,1.41c1.12,0,2.19-.1,3.2-.2l0,.73c-1.31.1-2.5.17-3.55.2a12.55,12.55,0,0,1-1,1.71l-.31.31,0,0a2.12,2.12,0,0,1,1.43-.61,1.29,1.29,0,0,1,.95.36,1.71,1.71,0,0,1,.46,1c.62-.28,1.43-.64,2.43-1.06l.34.82C404.67,101.88,403.75,102.23,403.22,102.47Z"/><path d="M418.19,105.84a1.31,1.31,0,0,0-.23.55c0,.13,0,.2-.07.22a.46.46,0,0,1-.2,0q-2.34.15-4.26.15a7.52,7.52,0,0,1-3-.4,2.3,2.3,0,0,1-1.11-1.18,11.82,11.82,0,0,1-1.3,1.17,1.11,1.11,0,0,0-.25.26c-.05.07-.1.1-.14.1a.18.18,0,0,1-.15-.09,5.82,5.82,0,0,1-.34-.65,5.23,5.23,0,0,0,.73-.44,7.91,7.91,0,0,0,1.11-1v-3h-.89l-.83,0c-.07,0-.1,0-.1-.11V101c0-.07,0-.1.1-.1l.83,0h.65l.87,0c.06,0,.09,0,.09.1l0,1.13v2.46a2,2,0,0,0,1,1.17,6.47,6.47,0,0,0,2.4.31C414.77,106.1,416.45,106,418.19,105.84Zm-8.35-7.29a.27.27,0,0,1,0,.08s0,.07-.1.12l-.29.23a.36.36,0,0,1-.15.08s-.05,0-.08-.06a12.94,12.94,0,0,0-1.51-1.8.18.18,0,0,1-.05-.07s0-.07.11-.12l.28-.21a.41.41,0,0,1,.12-.07s0,0,.08,0A13.33,13.33,0,0,1,409.84,98.55Zm8.16,6a1.39,1.39,0,0,0-.31.49c-.06.13-.11.2-.15.2l-.17-.06a10.9,10.9,0,0,1-2.65-1.67,8.88,8.88,0,0,1-2.47,1.69l-.16.06s-.1,0-.19-.16a1.33,1.33,0,0,0-.38-.37,8.29,8.29,0,0,0,2.72-1.72,7.11,7.11,0,0,1-1.61-2.92h-.51c0,.76-.08,1.4-.15,1.91a6.66,6.66,0,0,1-1.1,3c-.06.1-.1.15-.13.15s-.08-.05-.15-.14a2.29,2.29,0,0,0-.43-.32,6.12,6.12,0,0,0,1.15-2.94,23.89,23.89,0,0,0,.14-3l0-1.66a.09.09,0,0,1,.1-.1l1.61,0H416l1.59,0c.06,0,.09,0,.09.1v.52a.08.08,0,0,1-.09.09l-1.59,0h-3.89V99.5h3.95a.7.7,0,0,0,.24,0l.13,0c.08,0,.19.08.35.24s.2.25.2.31,0,.09-.09.14a1.24,1.24,0,0,0-.24.41,9.48,9.48,0,0,1-1.47,2.5A9.2,9.2,0,0,0,418,104.59Zm-1.94-4.46h-2.8a6.49,6.49,0,0,0,1.45,2.42A8.55,8.55,0,0,0,416.06,100.13Z"/><path d="M424.24,98.94c0,.87,0,1.74,0,2.6a4.73,4.73,0,0,1,.26,1.53,3.16,3.16,0,0,1-1.12,2.63,6.74,6.74,0,0,1-2.8,1.09l-.51-.72a5.46,5.46,0,0,0,2.93-1.19,2.35,2.35,0,0,0,.69-1.61,1.59,1.59,0,0,1-1.55.76,1.92,1.92,0,0,1-1.31-.49,2,2,0,0,1,.1-2.88,2.14,2.14,0,0,1,1.34-.42,1.71,1.71,0,0,1,1.16.33c0-.75,0-1.28,0-1.61-1.28,0-2.84.09-4.66.21V98.4c1.48-.06,3-.11,4.66-.14V96.63h.86c0,.36,0,.89,0,1.59l2.88,0V99C426.16,99,425.2,98.94,424.24,98.94Zm-2,2a1.11,1.11,0,0,0-.84.34,1.22,1.22,0,0,0-.33.9,1,1,0,0,0,.38.86,1.07,1.07,0,0,0,.72.25,1.23,1.23,0,0,0,.95-.35,1.13,1.13,0,0,0,.27-.79C423.38,101.31,423,100.91,422.23,100.91Z"/><path d="M213.43,121.79a.08.08,0,0,1-.09.09l-1.25,0h-1.4l-1.25,0c-.05,0-.08,0-.08-.09v-.51c0-.07,0-.1.08-.1l1.25,0h1.4l1.25,0c.06,0,.09,0,.09.1Zm-.36-1.64a.09.09,0,0,1-.1.1l-1,0H211l-1.05,0a.09.09,0,0,1-.1-.1v-.48a.09.09,0,0,1,.1-.1l1.05,0h.93l1,0c.07,0,.1,0,.1.1Zm0,9.3a.08.08,0,0,1-.09.09h-.49a.08.08,0,0,1-.09-.09v-.39h-1.79v.63a.08.08,0,0,1-.09.09H210c-.07,0-.11,0-.11-.09l0-1.75v-.72l0-1.07c0-.05,0-.08.1-.08l1,0h.88l1,0c.06,0,.09,0,.09.08l0,.86v.74Zm-.14-6.07c0,.06,0,.09-.1.09l-1,0h-.75l-1,0c-.06,0-.1,0-.1-.09v-.47c0-.06,0-.09.1-.09l1,0h.75l1,0c.07,0,.1,0,.1.09Zm0,1.61c0,.06,0,.09-.1.09l-1,0h-.75l-1,0c-.06,0-.1,0-.1-.09v-.47a.09.09,0,0,1,.1-.1l1,0h.75l1,0c.07,0,.1,0,.1.1Zm-.53,3.49v-1.8h-1.79v1.8Zm7.24-8.79c0,.1,0,.35-.05.77a13.45,13.45,0,0,1-.37,3.29,1,1,0,0,1-1.08.67q-.47,0-.81,0c-.09,0-.15,0-.17-.06a.52.52,0,0,1-.05-.21,1.58,1.58,0,0,0-.17-.49,5.57,5.57,0,0,0,1,.11.58.58,0,0,0,.59-.32,11.24,11.24,0,0,0,.32-3.19h-2.11a7,7,0,0,1-.36,1.77q.64.31,1.11.57s.05,0,.05.05a.4.4,0,0,1-.06.13l-.15.33c-.05.08-.08.12-.12.12l-.08,0c-.26-.16-.6-.35-1-.57a5,5,0,0,1-2.19,2.2.49.49,0,0,1-.19.07s-.1,0-.17-.16a1,1,0,0,0-.36-.34,4.41,4.41,0,0,0,2.31-2.06,14.26,14.26,0,0,0-1.41-.56s-.06,0-.06-.05a.42.42,0,0,1,.05-.12l.14-.31c0-.06.07-.09.1-.09a.11.11,0,0,1,.07,0c.54.18,1,.36,1.35.51a5.51,5.51,0,0,0,.27-1.49h-.5l-1.51,0c-.07,0-.1,0-.1-.1v-.48c0-.06,0-.09.1-.09l1.51,0h2.42l1.54,0C219.55,119.59,219.59,119.62,219.59,119.69Zm-5,6.69a7.86,7.86,0,0,1-.68,2.26.1.1,0,0,1-.07.06l-.13,0-.29-.15c-.09,0-.14-.09-.14-.12a.1.1,0,0,1,0-.06,6.21,6.21,0,0,0,.65-2.12c0-.06,0-.09.07-.09l.12,0,.32.1c.09,0,.13,0,.13.09Zm4,1.73a3.1,3.1,0,0,1-.2.88.82.82,0,0,1-.39.41,2.55,2.55,0,0,1-1.23.21,3,3,0,0,1-1.11-.14c-.29-.11-.43-.37-.43-.79v-2.09a8.22,8.22,0,0,0-.05-.92,5.13,5.13,0,0,1,.67.07c.1,0,.15.06.15.1l0,.14a1.71,1.71,0,0,0-.06.56v1.86a.86.86,0,0,0,0,.34.39.39,0,0,0,.18.14,2.24,2.24,0,0,0,.67.07,1.76,1.76,0,0,0,.84-.12c.2-.15.31-.57.32-1.27a1.4,1.4,0,0,0,.45.24c.13,0,.2.12.2.2A.54.54,0,0,1,218.6,128.11Zm-.89-2.46s0,0,0,.07a.26.26,0,0,1-.09.14l-.23.23c-.08.08-.12.11-.14.11a.09.09,0,0,1-.07,0,6.12,6.12,0,0,0-1.45-1.26s-.05,0-.05-.05,0,0,.09-.12l.23-.21c0-.06.09-.08.11-.08l.08,0A9.45,9.45,0,0,1,217.71,125.65ZM220.2,128s0,0,0,.06-.05.06-.14.11l-.29.15-.15.06s0,0,0-.07a7.48,7.48,0,0,0-1.08-2s0,0,0,0,.05-.06.15-.1l.26-.12a.26.26,0,0,1,.13,0s0,0,.07.06A9.16,9.16,0,0,1,220.2,128Z"/><path d="M225.31,121.83c0,.07,0,.11-.09.11l-1.26,0h-1.54l-1.26,0c-.06,0-.09,0-.09-.11v-.49c0-.07,0-.1.09-.1l1.26,0H224l1.26,0c.06,0,.09,0,.09.1Zm-.42,7.71c0,.06,0,.09-.1.09h-.5a.08.08,0,0,1-.09-.09v-.4h-1.91v.61c0,.07,0,.1-.09.1h-.49c-.07,0-.1,0-.1-.1l0-1.76v-.74l0-1a.08.08,0,0,1,.09-.09l1.06,0h1l1.07,0c.07,0,.1,0,.1.09l0,.86v.78Zm.06-9.36c0,.06,0,.09-.1.09l-1.06,0h-1l-1.05,0c-.07,0-.1,0-.1-.09v-.49c0-.06,0-.09.1-.09l1.05,0h1l1.06,0c.06,0,.1,0,.1.09Zm-.17,3.28c0,.06,0,.1-.12.1l-1,0h-.87l-1,0c-.06,0-.09,0-.09-.1V123a.08.08,0,0,1,.09-.09l1,0h.87l1,0q.12,0,.12.09Zm0,1.6c0,.06,0,.1-.12.1l-1,0h-.87l-1,0c-.06,0-.09,0-.09-.1v-.47c0-.07,0-.1.09-.1l1,0h.87l1,0c.08,0,.12,0,.12.1Zm-.58,3.49v-1.82h-1.91v1.82Zm7.56.63a.08.08,0,0,1-.09.09l-1.63,0H227l-1.61,0c-.07,0-.1,0-.1-.09v-.53c0-.06,0-.09.1-.09l.86,0v-4a11.59,11.59,0,0,0-.08-1.64,6.3,6.3,0,0,1,.78.08c.09,0,.14,0,.14.09a1,1,0,0,1-.07.23,6.42,6.42,0,0,0-.06,1.24v4h1.44v-8.07h-1.09l-1.53,0c-.06,0-.09,0-.09-.1v-.52a.08.08,0,0,1,.09-.09l1.53,0h2.59l1.55,0c.07,0,.1,0,.1.09v.52c0,.07,0,.1-.1.1l-1.55,0h-.77v3.37h1.22l.91,0c.07,0,.1,0,.1.09v.53c0,.06,0,.09-.1.09l-.91,0h-1.22v4H230l1.63,0a.08.08,0,0,1,.09.09Z"/><path class="cls-14" d="M15.55,258.85h7.81a8.35,8.35,0,0,1-.74,2.66,5.93,5.93,0,0,1-1.44,1.81l-.71-.59a5.21,5.21,0,0,0,1.26-1.51,4,4,0,0,0,.51-1.56H15.55Zm.35,8.67a4.7,4.7,0,0,0,2.16-1.81,6.37,6.37,0,0,0,.66-3.17v-1.9h.92v1.92a6.66,6.66,0,0,1-1,3.85,6,6,0,0,1-2.2,1.79Z"/><path class="cls-14" d="M31.18,259.86A11.38,11.38,0,0,1,30,264.94a7.65,7.65,0,0,1-4.38,3.35l-.5-.73a7.27,7.27,0,0,0,3.9-2.78,9,9,0,0,0,1.17-4.92h-5.6v-.8h5.75a1.16,1.16,0,0,1-.08-.47,1.33,1.33,0,0,1,1.34-1.34,1.24,1.24,0,0,1,1,.44,1.29,1.29,0,0,1,.35.9,1.35,1.35,0,0,1-1.34,1.35A1.16,1.16,0,0,1,31.18,259.86Zm.42-2.1A.8.8,0,0,0,31,258a.85.85,0,0,0,.06,1.18.79.79,0,0,0,.56.21.8.8,0,0,0,.82-.83.8.8,0,0,0-.27-.62A.77.77,0,0,0,31.6,257.76Z"/><path class="cls-14" d="M35.23,258.55v5.89h-.92v-5.89Zm-.34,9a4.81,4.81,0,0,0,3-1.55,5.28,5.28,0,0,0,.77-3.14v-4.38h.92V263a5.36,5.36,0,0,1-1.16,3.82,5.77,5.77,0,0,1-3.07,1.47Z"/><path class="cls-14" d="M43.66,260.05h5.63v.81H47a11.31,11.31,0,0,1-1,5.25,5.5,5.5,0,0,1-2.68,2.19l-.66-.59a6,6,0,0,0,2-1.28,4.51,4.51,0,0,0,1.05-2.07,16.11,16.11,0,0,0,.34-3.5h-2.6a9.51,9.51,0,0,1-1.56,3l-.76-.42a10.44,10.44,0,0,0,2-5.3l.9.11Q43.87,259.2,43.66,260.05Z"/><path class="cls-14" d="M49.6,262.86h6.52v.89H49.6Z"/><path class="cls-14" d="M57.1,262l.41-.72a27.74,27.74,0,0,1,2.82,1.22l-.45.81A17.2,17.2,0,0,0,57.1,262Zm7.36-1.78.83.47a12.28,12.28,0,0,1-1,2.7,8.19,8.19,0,0,1-1.26,1.92,8.68,8.68,0,0,1-4.76,2.57l-.5-.76a7.72,7.72,0,0,0,4.56-2.4A9.84,9.84,0,0,0,64.46,260.23Zm-6.29-.79.45-.71A17.85,17.85,0,0,1,61.36,260l-.48.79A15.55,15.55,0,0,0,58.17,259.44Z"/><path class="cls-14" d="M70.88,263.74v-2.29H66.74v-.78h5V268h-5.1v-.77h4.2v-2.74h-4v-.77Z"/><path class="cls-14" d="M73.8,259.24A19.84,19.84,0,0,1,76.62,261l-.6.79A17.09,17.09,0,0,0,73.26,260Zm6,.6.9.43a9.72,9.72,0,0,1-2.23,5A9.52,9.52,0,0,1,73.73,268l-.41-.81Q79,265.8,79.85,259.84Z"/><path class="cls-15" d="M111.82,258.55h7.81a8.49,8.49,0,0,1-.73,2.65,5.88,5.88,0,0,1-1.45,1.81l-.71-.58a5.25,5.25,0,0,0,1.27-1.51,4.33,4.33,0,0,0,.51-1.56h-6.7Zm.36,8.67a4.72,4.72,0,0,0,2.15-1.81,6.37,6.37,0,0,0,.66-3.17v-1.9h.92v1.92a6.68,6.68,0,0,1-1,3.85,6,6,0,0,1-2.19,1.79Z"/><path class="cls-15" d="M127.45,259.56a11.56,11.56,0,0,1-1.17,5.08,7.65,7.65,0,0,1-4.39,3.34l-.5-.72a7.32,7.32,0,0,0,3.9-2.78,9,9,0,0,0,1.17-4.92h-5.6v-.81h5.75a1.26,1.26,0,0,1-.08-.46,1.28,1.28,0,0,1,.44-1,1.35,1.35,0,1,1,.9,2.34A1.16,1.16,0,0,1,127.45,259.56Zm.42-2.1a.8.8,0,0,0-.62.27.83.83,0,0,0,.62,1.39.8.8,0,0,0,.62-.27.83.83,0,0,0,.21-.56.8.8,0,0,0-.27-.62A.81.81,0,0,0,127.87,257.46Z"/><path class="cls-15" d="M131.51,258.25v5.88h-.93v-5.88Zm-.34,9a4.86,4.86,0,0,0,3-1.55,5.28,5.28,0,0,0,.77-3.14v-4.38h.93v4.5a5.42,5.42,0,0,1-1.16,3.82A5.84,5.84,0,0,1,131.6,268Z"/><path class="cls-15" d="M139.93,259.75h5.63v.8h-2.33a11.31,11.31,0,0,1-1,5.25,5.44,5.44,0,0,1-2.67,2.2l-.67-.59a6.33,6.33,0,0,0,2-1.28,4.61,4.61,0,0,0,1-2.07,16.92,16.92,0,0,0,.33-3.51h-2.6a9.48,9.48,0,0,1-1.55,3l-.77-.41a10.35,10.35,0,0,0,2-5.3l.9.11A15.92,15.92,0,0,1,139.93,259.75Z"/><path class="cls-15" d="M145.87,262.56h6.53v.89h-6.53Z"/><path class="cls-15" d="M153.37,261.71l.41-.72a25.77,25.77,0,0,1,2.82,1.22l-.45.8A17.29,17.29,0,0,0,153.37,261.71Zm7.36-1.78.84.47a12.5,12.5,0,0,1-1,2.7,8.19,8.19,0,0,1-1.26,1.92,8.61,8.61,0,0,1-4.76,2.56l-.49-.75a7.74,7.74,0,0,0,4.55-2.4A9.74,9.74,0,0,0,160.73,259.93Zm-6.28-.79.44-.71a17.4,17.4,0,0,1,2.74,1.31l-.48.79A15,15,0,0,0,154.45,259.14Z"/><path class="cls-15" d="M167.15,263.44v-2.29H163v-.78h5v7.35H163V267h4.2V264.2h-4v-.76Z"/><path class="cls-15" d="M170.08,258.94a21.28,21.28,0,0,1,2.81,1.78l-.59.79a18,18,0,0,0-2.76-1.86Zm6,.59.9.44a9.64,9.64,0,0,1-2.23,5,9.53,9.53,0,0,1-4.78,2.77l-.41-.82Q175.23,265.51,176.12,259.53Z"/><path class="cls-15" d="M181.3,261a35.93,35.93,0,0,1-2.27,6.72l-.79-.31a32.14,32.14,0,0,0,2.2-6.35c-.49,0-1.22.1-2.21.19l0-.75,1.3-.09,1.13-.07c.15-.68.3-1.47.45-2.39l.85.12q-.25,1.37-.45,2.22c.45,0,.85-.05,1.22-.05a1.25,1.25,0,0,1,1.1.49,3.16,3.16,0,0,1,.34,1.7,16.82,16.82,0,0,1-.37,4.26,1.52,1.52,0,0,1-.55.86,1.55,1.55,0,0,1-.92.24,8.35,8.35,0,0,1-1.22-.09l-.14-.84A5.51,5.51,0,0,0,182,267a1.27,1.27,0,0,0,.64-.12.79.79,0,0,0,.29-.42,14.24,14.24,0,0,0,.38-3.91,2.91,2.91,0,0,0-.19-1.32.6.6,0,0,0-.58-.28C182.16,261,181.75,261,181.3,261Zm3.06-1.57.77-.34a16.47,16.47,0,0,1,1.81,4.31l-.85.35A14.57,14.57,0,0,0,184.36,259.43Z"/><path class="cls-15" d="M189.41,260c-.19,1.86-.3,3.08-.35,3.65l-.12.65.27-.44a4.24,4.24,0,0,1,1.45-1.09,3.68,3.68,0,0,1,1.52-.33,2.86,2.86,0,0,1,2.06.7,2.27,2.27,0,0,1,.68,1.73,2.7,2.7,0,0,1-.42,1.57,2.86,2.86,0,0,1-1,.88,5.78,5.78,0,0,1-1.79.52,16,16,0,0,1-2,.2l-.28-.81a8.12,8.12,0,0,0,3.49-.6,2.18,2.18,0,0,0,.9-.76,2.12,2.12,0,0,0,.25-1.09,1.51,1.51,0,0,0-.53-1.21,1.8,1.8,0,0,0-1.24-.41,3.35,3.35,0,0,0-2.53,1.2,3.46,3.46,0,0,0-.66,1l-.89-.16q.09-1.72.42-5.37Zm.25-1.48.35-.68a18.75,18.75,0,0,1,3.73,1.08l-.43.74A17.74,17.74,0,0,0,189.66,258.49Z"/><path class="cls-15" d="M120.14,273.71h1.93v.81h-1.93v.9a6.27,6.27,0,0,1-1.26,4.33,6.36,6.36,0,0,1-3.27,1.66l-.48-.69a5.33,5.33,0,0,0,3.22-1.68,5.82,5.82,0,0,0,.89-3.51v-1h-3v3.18h-.9v-3.18h-1.84v-.81h1.84v-2.37h.9v2.37h3v-2.39h.9Z"/><path class="cls-15" d="M122.68,276h6.53v.89h-6.53Z"/><path class="cls-15" d="M131.8,276.64v2.57c0,.57.18.89.52,1a9.92,9.92,0,0,0,1.75.12c.81,0,1.69,0,2.66-.14v.9c-1.06,0-2,.08-2.89.08a9.43,9.43,0,0,1-2.09-.17c-.57-.12-.86-.61-.86-1.46v-7.8h.91v4.12a14,14,0,0,0,3.89-2.55l.61.73A16.51,16.51,0,0,1,131.8,276.64Zm3.26-5.62.6-.24a15.26,15.26,0,0,1,.9,2l-.66.26A12.21,12.21,0,0,0,135.06,271Zm1.35-.4.6-.22a10.07,10.07,0,0,1,.85,2l-.63.25A11,11,0,0,0,136.41,270.62Z"/><path class="cls-15" d="M143.19,277.45a10.89,10.89,0,0,1-4.29,3.79l-.52-.69a10.54,10.54,0,0,0,3.91-3.37,11.9,11.9,0,0,0,1.76-4.33h-5v-.8h6.23a16.17,16.17,0,0,1-1.59,4.59,27.3,27.3,0,0,1,2.8,4l-.89.57A21.28,21.28,0,0,0,143.19,277.45Z"/><path class="cls-15" d="M157.59,273a11.29,11.29,0,0,1-1.17,5.08,7.59,7.59,0,0,1-4.38,3.34l-.5-.72a7.32,7.32,0,0,0,3.9-2.78,9.09,9.09,0,0,0,1.17-4.92H151v-.8h5.75a1.16,1.16,0,0,1-.09-.47,1.31,1.31,0,0,1,.44-1,1.33,1.33,0,0,1,.91-.35,1.29,1.29,0,0,1,1,.44,1.36,1.36,0,0,1-.09,1.91,1.31,1.31,0,0,1-.9.34A1.25,1.25,0,0,1,157.59,273Zm.43-2.1a.83.83,0,0,0-.63.27.85.85,0,0,0-.2.56.81.81,0,0,0,.27.62.79.79,0,0,0,.56.21.81.81,0,0,0,.62-.27.85.85,0,0,0,.2-.56.8.8,0,0,0-.27-.62A.79.79,0,0,0,158,270.86Z"/><path class="cls-15" d="M161.65,271.65v5.88h-.92v-5.88Zm-.34,9a4.81,4.81,0,0,0,3-1.55,5.28,5.28,0,0,0,.77-3.14v-4.38H166v4.5a5.42,5.42,0,0,1-1.16,3.82,5.77,5.77,0,0,1-3.07,1.47Z"/><path class="cls-15" d="M168.27,272.34a20.8,20.8,0,0,1,2.82,1.78l-.6.8a16.46,16.46,0,0,0-2.76-1.87Zm6,.59.91.44a9.73,9.73,0,0,1-2.24,5,9.53,9.53,0,0,1-4.78,2.77l-.41-.82Q173.42,278.91,174.31,272.93Z"/><path class="cls-15" d="M176.32,275.11l.41-.72a25.77,25.77,0,0,1,2.82,1.22l-.45.81A16,16,0,0,0,176.32,275.11Zm7.37-1.78.83.47a12.31,12.31,0,0,1-1,2.7,8.19,8.19,0,0,1-1.26,1.92,8.65,8.65,0,0,1-4.76,2.57l-.49-.76a7.75,7.75,0,0,0,4.56-2.4A9.94,9.94,0,0,0,183.69,273.33Zm-6.29-.79.44-.71a17.4,17.4,0,0,1,2.74,1.31l-.48.79A15,15,0,0,0,177.4,272.54Z"/><path class="cls-15" d="M184.46,280.65a12.37,12.37,0,0,0,1.67-3.82,28.13,28.13,0,0,0,.74-4.71l1,.09a28.26,28.26,0,0,1-1,5.44,12.49,12.49,0,0,1-1.59,3.45Zm5.12-8.46.91-.08a22.32,22.32,0,0,0,2.5,8.48l-.89.51A25.19,25.19,0,0,1,189.58,272.19Zm2.69-1.53a1.34,1.34,0,1,1-1,2.24,1.3,1.3,0,0,1-.34-.9,1.33,1.33,0,0,1,1.34-1.34Zm0,.51a.8.8,0,0,0-.62.27.81.81,0,0,0-.21.56.8.8,0,0,0,.27.62.81.81,0,0,0,.56.21.8.8,0,0,0,.62-.27.81.81,0,0,0,.21-.56.8.8,0,0,0-.27-.62A.81.81,0,0,0,192.27,271.17Z"/><path class="cls-15" d="M126.55,285.14c0,2.28,0,3.92-.12,4.93a9.42,9.42,0,0,1-.34,2,5.68,5.68,0,0,1-1.75,2.59l-.7-.55a4.48,4.48,0,0,0,1.64-2.38,12.16,12.16,0,0,0,.29-2.47c0-.89.06-2.26.06-4.13Zm2.55,8.14a9,9,0,0,0,3.12-4.12l.61.8a10.93,10.93,0,0,1-4.13,4.71l-.51-.27v-9.34h.91Z"/><path class="cls-15" d="M138.76,290.52v2.38H138v-2l-.57.31c-1,.58-1.54,1.16-1.54,1.74a.79.79,0,0,0,.54.81,5.54,5.54,0,0,0,1.78.2c.84,0,1.82-.05,2.93-.15l0,.81c-1.46.08-2.42.11-2.9.11a5.09,5.09,0,0,1-2.54-.43,1.55,1.55,0,0,1-.61-1.38,2.63,2.63,0,0,1,1.62-2.18c.4-.23.82-.45,1.24-.66,0-.75-.3-1.13-.78-1.13-.67,0-1.59.68-2.76,2l-.62-.55a14,14,0,0,0,2.48-3.55h-2.2v-.73c.85,0,1.69,0,2.54,0a11.54,11.54,0,0,0,.53-1.6l.87.15a12,12,0,0,1-.5,1.42c1.12,0,2.19-.11,3.2-.21l0,.73c-1.32.11-2.5.18-3.55.21a13.09,13.09,0,0,1-1,1.7l-.31.31,0,0a2.12,2.12,0,0,1,1.43-.61,1.29,1.29,0,0,1,.95.36,1.67,1.67,0,0,1,.45,1.05c.63-.29,1.44-.64,2.44-1.06l.34.82C140.21,289.93,139.29,290.29,138.76,290.52Z"/><path class="cls-15" d="M146.44,284.67a.22.22,0,0,1-.1.15,1,1,0,0,0-.24.46c-.28.68-.55,1.27-.82,1.79v6.07l0,1.87c0,.06,0,.1-.09.1h-.59c-.06,0-.09,0-.09-.1l0-1.87V290c0-.38,0-1,0-1.78a11.55,11.55,0,0,1-1.33,1.7c-.07.07-.12.1-.14.1s-.08,0-.11-.11a1.65,1.65,0,0,0-.33-.48,11.61,11.61,0,0,0,2.71-4.38,3,3,0,0,0,.18-.8,5.89,5.89,0,0,1,.73.25C146.39,284.57,146.44,284.62,146.44,284.67Zm7,2.48c0,.07,0,.1-.09.1l-1.53,0h-2.1V289h3.05c.06,0,.09,0,.09.08v.51c0,.06,0,.1-.09.1l-1.18,0h-1.87v1.82h1.87l1.22,0a.08.08,0,0,1,.09.09v.51a.08.08,0,0,1-.09.09l-1.22,0h-1.87v1l0,1.88c0,.05,0,.08-.1.08h-.58c-.06,0-.09,0-.09-.08l0-1.88v-5.95h-1a13.06,13.06,0,0,1-1.49,2.3c-.07.09-.13.14-.16.14s-.07-.05-.13-.14a1.19,1.19,0,0,0-.36-.35,12.43,12.43,0,0,0,1.47-2.17,10.6,10.6,0,0,0,.81-1.84,4,4,0,0,0,.16-.84,4.34,4.34,0,0,1,.73.22c.11,0,.16.08.16.12a.24.24,0,0,1-.1.19,1.1,1.1,0,0,0-.25.49c-.12.33-.29.75-.52,1.23h3.48l1.53,0a.08.08,0,0,1,.09.09Z"/><path class="cls-15" d="M164.94,293c-.13,1.25-.52,1.87-1.16,1.87s-1.53-.76-2.28-2.26a9.75,9.75,0,0,1-2.58,2.22.59.59,0,0,1-.17.07c-.05,0-.12-.06-.21-.17a1.29,1.29,0,0,0-.36-.31,9.23,9.23,0,0,0,3-2.55,15.43,15.43,0,0,1-1-4.81H156v2h1.84l1,0a.1.1,0,0,1,.11.11l-.08,1.25a12,12,0,0,1-.2,1.94,1.14,1.14,0,0,1-1.21,1,5.35,5.35,0,0,1-.76,0q-.15,0-.18-.06l-.06-.22a1.65,1.65,0,0,0-.19-.51,7.76,7.76,0,0,0,1.1.11.66.66,0,0,0,.42-.12A1,1,0,0,0,158,292a15.09,15.09,0,0,0,.18-2.31H156a16.39,16.39,0,0,1-.17,2.25,8.19,8.19,0,0,1-1,3c-.07.11-.11.16-.14.16s-.08,0-.15-.13a2.08,2.08,0,0,0-.43-.34,6.76,6.76,0,0,0,1-2.93,22.13,22.13,0,0,0,.16-2.79l0-2.38a.1.1,0,0,1,.11-.11l1.68,0h3.11l0-.57a14.67,14.67,0,0,0-.09-1.47c.26,0,.52,0,.79.07.11,0,.16.06.16.12a.41.41,0,0,1-.05.19,2.72,2.72,0,0,0-.07.8v.86h2l1.67,0c.07,0,.1,0,.1.1V287c0,.07,0,.1-.1.1l-1.67,0h-2a15,15,0,0,0,.77,4.13,12,12,0,0,0,.94-1.76,4.64,4.64,0,0,0,.32-1.08,3,3,0,0,1,.67.24c.1.05.15.11.15.16s-.05.11-.15.23-.12.23-.28.57A13.72,13.72,0,0,1,162,292a5.63,5.63,0,0,0,1,1.6,1.22,1.22,0,0,0,.77.48q.51,0,.57-1.71a2.53,2.53,0,0,0,.42.31c.15.08.22.16.22.24S164.94,293,164.94,293Zm-1.23-7.43s0,.05,0,.07,0,.07-.09.12l-.25.21a.26.26,0,0,1-.14.09.12.12,0,0,1-.09-.06,4.67,4.67,0,0,0-1.11-1s-.06-.06-.06-.08,0-.07.08-.11l.24-.19.12-.06.08,0A5.35,5.35,0,0,1,163.71,285.59Z"/><path class="cls-15" d="M171.44,287c0,.86,0,1.73,0,2.6a4.46,4.46,0,0,1,.26,1.52,3.14,3.14,0,0,1-1.12,2.63,6.55,6.55,0,0,1-2.8,1.09l-.51-.72a5.43,5.43,0,0,0,2.93-1.18,2.37,2.37,0,0,0,.69-1.61,1.6,1.6,0,0,1-1.55.75,1.87,1.87,0,0,1-1.31-.49,2,2,0,0,1,.1-2.88,2.14,2.14,0,0,1,1.34-.42,1.69,1.69,0,0,1,1.17.34c0-.75,0-1.29,0-1.61-1.28,0-2.83.09-4.65.2l0-.76c1.48-.06,3-.11,4.66-.15v-1.63h.86c0,.36,0,.89,0,1.6l2.88,0V287Zm-2,2a1.17,1.17,0,0,0-.85.34,1.25,1.25,0,0,0-.33.9,1,1,0,0,0,.38.86,1.08,1.08,0,0,0,.73.25,1.19,1.19,0,0,0,.94-.35,1.09,1.09,0,0,0,.27-.78C170.58,289.37,170.2,289,169.44,289Z"/><path class="cls-15" d="M176.07,285.31c1.06,0,2.68-.06,4.88-.17l.5.63c-1.56,1.58-2.79,2.77-3.71,3.56l-.53.47,0,0,.62-.42a4,4,0,0,1,1.69-.46,3,3,0,0,1,2.32.86,2.63,2.63,0,0,1,.69,1.89,2.84,2.84,0,0,1-1.09,2.44,4.62,4.62,0,0,1-2.76.73c-1.57,0-2.35-.53-2.35-1.6a1.39,1.39,0,0,1,.5-1.12,1.85,1.85,0,0,1,1.23-.39,2,2,0,0,1,1.52.65,2.93,2.93,0,0,1,.67,1.44,2.25,2.25,0,0,0,1.08-.84,2.48,2.48,0,0,0,.31-1.32,1.91,1.91,0,0,0-.74-1.6,2.25,2.25,0,0,0-1.43-.46,4.18,4.18,0,0,0-2.9,1.17,11.08,11.08,0,0,0-1,1l-.71-.57,5.26-5.38c-1.15.09-2.51.15-4.09.19Zm3.38,8.79a2.64,2.64,0,0,0-.53-1.23,1.09,1.09,0,0,0-.85-.4.93.93,0,0,0-.69.26.68.68,0,0,0-.23.53.75.75,0,0,0,.39.71,2.51,2.51,0,0,0,1.12.19A5.56,5.56,0,0,0,179.45,294.1Z"/><path class="cls-15" d="M221,13.19h-3.68v-.78h7.61v.78h-3a21.15,21.15,0,0,1-.11,2.2,4.7,4.7,0,0,1-.29,1.15,5.36,5.36,0,0,1-2.87,2.76l-.6-.68a4.42,4.42,0,0,0,2.61-2.42A9.68,9.68,0,0,0,221,13.19Zm-3-3.4h6.23v.79H218Z"/><path class="cls-15" d="M230.86,11.81h3v.81h-3a9.94,9.94,0,0,1-.71,4.13,6,6,0,0,1-2.87,2.55l-.64-.64a5.18,5.18,0,0,0,2.65-2.32,5.27,5.27,0,0,0,.5-1.68,15,15,0,0,0,.14-2h-3.76v-.81h3.76V9.21h.93Z"/><path class="cls-15" d="M235.44,10.24A20.8,20.8,0,0,1,238.26,12l-.6.8A17.09,17.09,0,0,0,234.9,11Zm6.05.59.9.44a9.8,9.8,0,0,1-2.23,5A9.56,9.56,0,0,1,235.37,19l-.41-.82Q240.59,16.81,241.49,10.83Z"/><path class="cls-15" d="M245.25,13.56v5.7h-.93V9.19h.93v3.48a18.92,18.92,0,0,1,4.57,1.91l-.46.87A15,15,0,0,0,245.25,13.56Z"/><path class="cls-15" d="M254.84,18.78v-8.4h2.39a2.63,2.63,0,0,1,1.73.53,1.72,1.72,0,0,1,.64,1.39,2,2,0,0,1-.39,1.24,2.07,2.07,0,0,1-1.06.75v0a2.13,2.13,0,0,1,1.36.64,2,2,0,0,1,.51,1.41,2.18,2.18,0,0,1-.78,1.74,2.84,2.84,0,0,1-1.95.67Zm1-7.51V14h1a1.94,1.94,0,0,0,1.28-.39,1.37,1.37,0,0,0,.46-1.1c0-.81-.54-1.22-1.61-1.22Zm0,3.6v3h1.33a2,2,0,0,0,1.35-.41,1.4,1.4,0,0,0,.47-1.13c0-1-.67-1.48-2-1.48Z"/><path class="cls-15" d="M269.39,10.93a19,19,0,0,1-1.27,6.32,1.81,1.81,0,0,1-1.62,1.27,1.51,1.51,0,0,1-1.38-.91,5.07,5.07,0,0,1-.46-2.39,6.37,6.37,0,0,1,.39-2.25,4.3,4.3,0,0,1,.9-1.47,3.86,3.86,0,0,1,1.47-1,4.64,4.64,0,0,1,1.68-.32,3.54,3.54,0,0,1,3,1.29,5.44,5.44,0,0,1,.83,3.26,4.36,4.36,0,0,1-1,2.91,4.77,4.77,0,0,1-2.81,1.53l-.42-.72a3.64,3.64,0,0,0,3.29-4,4,4,0,0,0-.88-2.83A2.46,2.46,0,0,0,269.39,10.93Zm-.9.1a2.68,2.68,0,0,0-1.11.34,4,4,0,0,0-.91.8,4.53,4.53,0,0,0-1,3.07,4,4,0,0,0,.35,1.82c.19.36.4.53.64.53a.7.7,0,0,0,.54-.22,2.41,2.41,0,0,0,.38-.65A17.09,17.09,0,0,0,268.49,11Z"/><path class="cls-15" d="M279.94,17.84h2.34v.81h-8.59v-.81H279l.54-6.81h-4.89v-.8h5.91Z"/><path class="cls-15" d="M282.43,13.86H289v.89h-6.53Z"/><path class="cls-15" d="M292.3,11.67h3V9.46h.91v2.21h1.92v.8h-1.92v.85A6.27,6.27,0,0,1,295,17.65a6.36,6.36,0,0,1-3.27,1.66l-.49-.69a5.33,5.33,0,0,0,3.22-1.68,5.71,5.71,0,0,0,.89-3.51v-1h-3V15.6h-.9V12.47h-1.83v-.8h1.83V9.24h.9Zm4-3,.62-.19a15,15,0,0,1,.73,2.1l-.66.2A13.4,13.4,0,0,0,296.33,8.71Zm1.3-.29.61-.17a8.6,8.6,0,0,1,.7,2l-.64.21A11.33,11.33,0,0,0,297.63,8.42Z"/><path class="cls-15" d="M298.85,13.86h6.53v.89h-6.53Z"/><path class="cls-15" d="M87,88.55h7.81a8.22,8.22,0,0,1-.73,2.65A5.89,5.89,0,0,1,92.67,93l-.7-.59a5.21,5.21,0,0,0,1.26-1.51,4,4,0,0,0,.51-1.56H87Zm.36,8.67a4.75,4.75,0,0,0,2.16-1.81,6.49,6.49,0,0,0,.65-3.17v-1.9h.92v1.92a6.68,6.68,0,0,1-1,3.85A5.87,5.87,0,0,1,88,97.9Z"/><path class="cls-15" d="M102.71,89.56a11.39,11.39,0,0,1-1.17,5.08A7.65,7.65,0,0,1,97.15,98l-.5-.72a7.32,7.32,0,0,0,3.9-2.78,9,9,0,0,0,1.17-4.92h-5.6v-.8h5.75a1.36,1.36,0,0,1-.08-.47,1.34,1.34,0,1,1,2.68,0,1.28,1.28,0,0,1-.44,1,1.3,1.3,0,0,1-.9.34A1.16,1.16,0,0,1,102.71,89.56Zm.42-2.1a.8.8,0,0,0-.62.27.83.83,0,0,0,.62,1.39.8.8,0,0,0,.62-.27.81.81,0,0,0,.21-.56.82.82,0,0,0-.83-.83Z"/><path class="cls-15" d="M106.8,88.25v5.88h-.92V88.25Zm-.34,9a4.81,4.81,0,0,0,3-1.55,5.28,5.28,0,0,0,.77-3.14V88.18h.92v4.5A5.36,5.36,0,0,1,110,96.5,5.77,5.77,0,0,1,106.9,98Z"/><path class="cls-15" d="M115.26,89.75h5.63v.8h-2.33a11.06,11.06,0,0,1-1,5.25,5.39,5.39,0,0,1-2.67,2.2l-.66-.59a6.22,6.22,0,0,0,2-1.28,4.51,4.51,0,0,0,1-2.07,15.64,15.64,0,0,0,.33-3.51h-2.59a9.3,9.3,0,0,1-1.56,3l-.77-.41a10.26,10.26,0,0,0,2-5.3l.91.11C115.53,88.58,115.41,89.18,115.26,89.75Z"/><path class="cls-15" d="M121.24,92.56h6.53v.89h-6.53Z"/><path class="cls-15" d="M128.77,91.71l.41-.72A25.77,25.77,0,0,1,132,92.21l-.44.81A16.17,16.17,0,0,0,128.77,91.71Zm7.37-1.78.83.47a12.28,12.28,0,0,1-1,2.7A8.19,8.19,0,0,1,134.73,95,8.68,8.68,0,0,1,130,97.59l-.49-.76a7.75,7.75,0,0,0,4.56-2.4A9.94,9.94,0,0,0,136.14,89.93Zm-6.29-.79.45-.71A17.66,17.66,0,0,1,133,89.74l-.48.79A15,15,0,0,0,129.85,89.14Z"/><path class="cls-15" d="M142.59,93.44V91.15h-4.14v-.78h5v7.35h-5.1V97h4.2V94.2h-4v-.76Z"/><path class="cls-15" d="M145.55,88.94a20.8,20.8,0,0,1,2.82,1.78l-.6.8A16.46,16.46,0,0,0,145,89.65Zm6,.59.9.44a9.72,9.72,0,0,1-2.23,5,9.52,9.52,0,0,1-4.79,2.77l-.41-.82Q150.71,95.51,151.6,89.53Z"/><path class="cls-15" d="M91.69,103a19,19,0,0,1-1.27,6.32,1.81,1.81,0,0,1-1.62,1.27,1.51,1.51,0,0,1-1.38-.91,5.07,5.07,0,0,1-.46-2.39,6.37,6.37,0,0,1,.39-2.25,4.44,4.44,0,0,1,.89-1.47,4,4,0,0,1,1.48-1,4.6,4.6,0,0,1,1.68-.32,3.54,3.54,0,0,1,3,1.29,5.47,5.47,0,0,1,.83,3.26,4.32,4.32,0,0,1-1,2.91,4.74,4.74,0,0,1-2.8,1.53l-.42-.72a3.64,3.64,0,0,0,3.29-4,4,4,0,0,0-.89-2.83A2.42,2.42,0,0,0,91.69,103Zm-.9.1a2.63,2.63,0,0,0-1.11.34,4,4,0,0,0-.91.8,4.53,4.53,0,0,0-1,3.07,3.85,3.85,0,0,0,.35,1.82c.19.36.4.53.64.53a.7.7,0,0,0,.54-.22,2.41,2.41,0,0,0,.38-.65A17.09,17.09,0,0,0,90.79,103.13Z"/><path class="cls-15" d="M107.21,107.87c0,.07,0,.1-.1.1l-1.54,0h-1.33a6,6,0,0,1-1.24,1.79c.81.28,1.86.71,3.14,1.29a.07.07,0,0,1,.06.06.28.28,0,0,1-.06.13l-.24.33c-.08.11-.13.16-.15.16l-.06,0a21.7,21.7,0,0,0-3.25-1.47,9.77,9.77,0,0,1-5,1.51h-.1a.21.21,0,0,1-.15,0,.76.76,0,0,1-.09-.17,1.3,1.3,0,0,0-.29-.41A10.41,10.41,0,0,0,101.6,110c-.75-.2-1.45-.37-2.11-.49l-.27.33a.25.25,0,0,1-.17.08l-.1,0-.41-.09a.09.09,0,0,1-.08-.09s0-.07.12-.15.35-.42.55-.67.41-.55.66-.91h-1.6l-1.55,0c-.06,0-.09,0-.09-.1v-.49c0-.07,0-.1.09-.1l1.55,0h2l.15-.27a4.12,4.12,0,0,0,.44-1,3.79,3.79,0,0,1,.72.19c.08,0,.13.08.13.13s0,.1-.12.16a1.73,1.73,0,0,0-.4.52l-.14.23h4.59l1.54,0c.07,0,.1,0,.1.1Zm-.16-5.81c0,.06,0,.1-.09.1l-1.59,0h-2v1.18h.81l1.72,0c.07,0,.1,0,.1.09l0,.88v.83l0,.87c0,.06,0,.09-.1.09l-1.72,0H99.56l-1.73,0a.08.08,0,0,1-.09-.09l0-.87v-.83l0-.88a.08.08,0,0,1,.09-.09l1.73,0h.66v-1.18H98.43l-1.59,0a.09.09,0,0,1-.1-.1v-.51c0-.06,0-.09.1-.09l1.59,0h6.94l1.59,0a.08.08,0,0,1,.09.09Zm-6.83,3.41v-1.6H98.46v1.6Zm3.21,2.47h-2.86c-.28.44-.5.77-.67,1,.86.17,1.64.36,2.33.56A5.07,5.07,0,0,0,103.43,107.94Zm-.73-4.63v-1.18h-1.8v1.18Zm0,2.16v-1.6h-1.8v1.6Zm2.59,0v-1.6h-1.91v1.6Z"/><path class="cls-15" d="M118.43,110.11a1.68,1.68,0,0,0-.42.47c-.07.1-.13.15-.16.15a.61.61,0,0,1-.17-.08,9.69,9.69,0,0,1-4.3-5.59c.05,3,.08,4.87.08,5.49a.93.93,0,0,1-.42.9,3.72,3.72,0,0,1-1.46.2c-.11,0-.18,0-.21,0a.67.67,0,0,1-.07-.2,1.67,1.67,0,0,0-.28-.55c.38,0,.67,0,.87,0a1.18,1.18,0,0,0,.66-.12.55.55,0,0,0,.15-.45V104h-3l-1.59,0A.08.08,0,0,1,108,104v-.53c0-.07,0-.1.09-.1l1.59,0h3v-.92a7.36,7.36,0,0,0-.09-1.43,6.12,6.12,0,0,1,.81.07c.09,0,.13,0,.13.09a.65.65,0,0,1-.06.25,5,5,0,0,0,0,1v.93h3.08l1.59,0c.07,0,.1,0,.1.1V104c0,.06,0,.09-.1.09l-1.59,0h-3a11.31,11.31,0,0,0,1.2,2.71,10.62,10.62,0,0,0,1.55-1.6,1.73,1.73,0,0,0,.32-.55,2.8,2.8,0,0,1,.61.44.24.24,0,0,1,.1.17s0,.09-.14.15a2.2,2.2,0,0,0-.55.49,14.21,14.21,0,0,1-1.53,1.45A9.63,9.63,0,0,0,118.43,110.11Zm-6.38-2.23a1.05,1.05,0,0,1,0,.18s-.06.12-.17.21a25.92,25.92,0,0,1-2.76,1.69,1.84,1.84,0,0,0-.42.26c-.07.07-.12.1-.16.1s-.09,0-.14-.12c-.13-.23-.24-.45-.33-.65a6.82,6.82,0,0,0,.88-.36,22.76,22.76,0,0,0,3-1.8A2.49,2.49,0,0,0,112.05,107.88Zm-.84-1.53s0,.05,0,.07a.2.2,0,0,1-.07.11l-.32.3c-.08.07-.12.11-.14.11s0,0-.06,0a6.61,6.61,0,0,0-1.46-1.65s0,0,0-.07,0-.06.11-.12l.26-.25c.06,0,.09-.07.12-.07l.06,0A7,7,0,0,1,111.21,106.35Zm5.69-3.94a.09.09,0,0,1,0,.06s0,.08-.11.14l-.23.21a.35.35,0,0,1-.17.1s0,0-.07,0a5.89,5.89,0,0,0-1.41-1.2s-.06-.06-.06-.08,0-.06.09-.12l.25-.21s.08-.06.1-.06l.08,0A7.59,7.59,0,0,1,116.9,102.41Z"/><path class="cls-15" d="M121.34,105.66v5.7h-.92V101.29h.92v3.48a18.92,18.92,0,0,1,4.57,1.91l-.45.87A15.06,15.06,0,0,0,121.34,105.66Z"/><path class="cls-15" d="M127.11,106h6.52v.89h-6.52Z"/><path class="cls-15" d="M137.77,103.29a11.29,11.29,0,0,1-2.21,3.45l-.69-.53a10.45,10.45,0,0,0,2.59-5l.95.14c-.08.31-.19.69-.34,1.13h4.16a12.82,12.82,0,0,1-2.29,6.3,8.93,8.93,0,0,1-3.79,2.66l-.53-.64a8.3,8.3,0,0,0,3.84-2.84,10.75,10.75,0,0,0,1.69-4.68Z"/><path class="cls-15" d="M144.2,102.34a20.8,20.8,0,0,1,2.82,1.78l-.6.8a17.09,17.09,0,0,0-2.76-1.87Zm6.05.6.9.43a9.8,9.8,0,0,1-2.23,5,9.56,9.56,0,0,1-4.79,2.77l-.41-.82Q149.35,108.91,150.25,102.94Z"/><path class="cls-16" d="M238.42,234.81h1.92v.81h-1.92v.9a6.27,6.27,0,0,1-1.26,4.33,6.36,6.36,0,0,1-3.27,1.66l-.49-.69a5.33,5.33,0,0,0,3.22-1.68,5.75,5.75,0,0,0,.89-3.51v-1h-3v3.18h-.9v-3.18h-1.83v-.81h1.83v-2.37h.9v2.37h3v-2.39h.91Z"/><path class="cls-16" d="M241,237.06h6.53V238H241Z"/><path class="cls-16" d="M250.08,237.74v2.57c0,.57.17.89.51.95a10,10,0,0,0,1.75.12c.81,0,1.7,0,2.66-.14v.9c-1.06.05-2,.08-2.88.08a9.47,9.47,0,0,1-2.1-.17c-.57-.13-.86-.61-.86-1.47v-7.79h.92v4.12a13.88,13.88,0,0,0,3.88-2.55l.62.73A16.51,16.51,0,0,1,250.08,237.74Zm3.25-5.62.61-.24a17.07,17.07,0,0,1,.89,2l-.65.26A13,13,0,0,0,253.33,232.12Zm1.35-.4.6-.22a10.07,10.07,0,0,1,.85,2l-.62.25A11.73,11.73,0,0,0,254.68,231.72Z"/><path class="cls-16" d="M261.46,238.55a10.93,10.93,0,0,1-4.28,3.79l-.53-.69a10.66,10.66,0,0,0,3.92-3.37,12.26,12.26,0,0,0,1.76-4.33h-5v-.8h6.22a16.17,16.17,0,0,1-1.58,4.59,27.22,27.22,0,0,1,2.79,4l-.88.57A21.35,21.35,0,0,0,261.46,238.55Z"/><path class="cls-16" d="M275.87,234.06a11.56,11.56,0,0,1-1.17,5.08,7.65,7.65,0,0,1-4.39,3.34l-.5-.72a7.32,7.32,0,0,0,3.9-2.78,9,9,0,0,0,1.17-4.92h-5.6v-.81H275a1.08,1.08,0,0,1-.08-.46,1.28,1.28,0,0,1,.44-1,1.35,1.35,0,0,1,1.9.09,1.34,1.34,0,0,1-1,2.25A1.16,1.16,0,0,1,275.87,234.06Zm.42-2.1a.8.8,0,0,0-.62.27.85.85,0,0,0,.06,1.18.85.85,0,0,0,1.18-.06.83.83,0,0,0,.21-.56.8.8,0,0,0-.27-.62A.81.81,0,0,0,276.29,232Z"/><path class="cls-16" d="M279.92,232.75v5.88H279v-5.88Zm-.34,9a4.86,4.86,0,0,0,3-1.55,5.28,5.28,0,0,0,.77-3.14v-4.38h.92v4.5a5.37,5.37,0,0,1-1.16,3.82,5.77,5.77,0,0,1-3.07,1.47Z"/><path class="cls-16" d="M241.51,246.84a20.8,20.8,0,0,1,2.82,1.78l-.6.8a16.46,16.46,0,0,0-2.76-1.87Zm6,.59.91.44a9.73,9.73,0,0,1-2.24,5,9.53,9.53,0,0,1-4.78,2.77l-.41-.82Q246.66,253.41,247.55,247.43Z"/><path class="cls-16" d="M249.56,249.61l.41-.72a25.77,25.77,0,0,1,2.82,1.22l-.45.81A16,16,0,0,0,249.56,249.61Zm7.37-1.78.83.47a11.82,11.82,0,0,1-1,2.7,8.19,8.19,0,0,1-1.26,1.92,8.65,8.65,0,0,1-4.76,2.57l-.49-.76a7.75,7.75,0,0,0,4.56-2.4A9.94,9.94,0,0,0,256.93,247.83Zm-6.29-.79.44-.71a17.4,17.4,0,0,1,2.74,1.31l-.48.79A15,15,0,0,0,250.64,247Z"/><path class="cls-16" d="M257.7,255.15a12.37,12.37,0,0,0,1.67-3.82,28.13,28.13,0,0,0,.74-4.71l1,.09a28.26,28.26,0,0,1-1,5.44,12.49,12.49,0,0,1-1.59,3.45Zm5.12-8.46.91-.08a22.32,22.32,0,0,0,2.5,8.48l-.89.51A25.19,25.19,0,0,1,262.82,246.69Zm2.69-1.53a1.34,1.34,0,1,1-1,2.24,1.3,1.3,0,0,1-.34-.9,1.28,1.28,0,0,1,.44-1A1.3,1.3,0,0,1,265.51,245.16Zm0,.51a.8.8,0,0,0-.62.27.81.81,0,0,0-.21.56.8.8,0,0,0,.27.62.81.81,0,0,0,.56.21.8.8,0,0,0,.62-.27.81.81,0,0,0,.21-.56.82.82,0,0,0-.83-.83Z"/><path class="cls-16" d="M270.26,246.25q0,3.41-.12,4.92a8.83,8.83,0,0,1-.34,2,5.6,5.6,0,0,1-1.75,2.59l-.7-.55a4.48,4.48,0,0,0,1.64-2.38,11.32,11.32,0,0,0,.3-2.47c0-.89,0-2.26,0-4.12Zm2.55,8.13a9,9,0,0,0,3.12-4.12l.62.8a11.06,11.06,0,0,1-4.13,4.71l-.52-.27v-9.34h.91Z"/></g></svg>