<?xml version="1.0" encoding="utf-8"?>
<!-- Generator: Adobe Illustrator 23.0.1, SVG Export Plug-In . SVG Version: 6.00 Build 0)  -->
<svg version="1.1" xmlns="http://www.w3.org/2000/svg" xmlns:xlink="http://www.w3.org/1999/xlink" x="0px" y="0px"
	 viewBox="0 0 475.7 151.4" style="enable-background:new 0 0 475.7 151.4;" xml:space="preserve">
<style type="text/css">
	.st0{fill:#505050;}
	.st1{fill:#FFFFFF;}
	.st2{display:none;}
	.st3{display:inline;}
	.st4{fill:#EBEBEB;}
	.st5{fill:#0072C6;}
	.st6{fill:#D2D2D2;}
	.st7{fill:#1A1A1F;}
	.st8{fill:#009EE1;}
	.st9{fill:#0078DB;}
	.st10{fill:none;stroke:#000000;stroke-miterlimit:10;}
	.st11{fill:#EBEBEB;stroke:#000000;stroke-width:0.75;stroke-miterlimit:10;}
	.st12{fill:#1E1E1E;}
	.st13{fill:none;}
	.st14{stroke:#000000;stroke-width:5.000000e-02;stroke-miterlimit:10;}
	.st15{fill:#1E1E1E;stroke:#1E1E1E;stroke-width:6.000000e-02;stroke-miterlimit:10;}
	.st16{fill:#FFFFFF;stroke:#FFFFFF;stroke-width:5.000000e-02;stroke-miterlimit:10;}
	.st17{fill:#0072C6;stroke:#0072C6;stroke-width:5.000000e-02;stroke-miterlimit:10;}
</style>
<symbol  id="New_Symbol_41" viewBox="-10 -10 20 20">
	<circle class="st0" cx="0" cy="0" r="10"/>
	<path class="st1" d="M1.2-4.2v8.6h-1.4v-6.9C-0.4-2.3-0.7-2.1-1-2c-0.3,0.1-0.7,0.2-1,0.3v-1.2l0.6-0.2l0.6-0.3l0.6-0.3
		C0.1-3.9,0.4-4,0.6-4.2H1.2z"/>
</symbol>
<symbol  id="New_Symbol_42" viewBox="-10 -10 20 20">
	<circle class="st0" cx="0" cy="0" r="10"/>
	<path class="st1" d="M2.5,4.4h-5.3V3.8c0-0.3,0-0.5,0.1-0.8c0.1-0.2,0.2-0.4,0.3-0.7c0.1-0.2,0.3-0.4,0.4-0.6
		c0.2-0.2,0.4-0.4,0.5-0.5l0.6-0.5c0.2-0.1,0.4-0.3,0.6-0.5S0.1,0,0.3-0.2c0.1-0.1,0.3-0.3,0.4-0.4C0.8-0.8,0.9-1,0.9-1.1
		C1-1.3,1-1.5,1-1.7c0-0.2,0-0.4-0.1-0.6C0.8-2.4,0.7-2.6,0.6-2.7C0.5-2.8,0.3-2.9,0.2-2.9C0-3-0.2-3-0.4-3c-0.4,0-0.7,0.1-1.1,0.2
		c-0.4,0.2-0.7,0.4-1,0.7v-1.3c0.2-0.1,0.3-0.2,0.5-0.3c0.2-0.1,0.4-0.2,0.6-0.2C-1.2-4-1-4-0.8-4.1c0.2,0,0.4,0,0.7,0
		c0.3,0,0.7,0,1,0.1c0.3,0.1,0.6,0.2,0.8,0.4C1.9-3.3,2.1-3,2.2-2.8c0.1,0.3,0.2,0.7,0.2,1c0,0.3,0,0.6-0.1,0.9
		C2.2-0.6,2-0.3,1.9-0.1C1.7,0.2,1.5,0.4,1.3,0.6C1.1,0.8,0.9,1,0.6,1.2l-0.7,0.5c-0.2,0.2-0.4,0.4-0.6,0.5C-0.8,2.4-1,2.6-1.1,2.8
		c-0.1,0.1-0.2,0.3-0.2,0.5l0,0h3.8V4.4z"/>
</symbol>
<symbol  id="New_Symbol_43" viewBox="-10 -10 20 20">
	<circle class="st0" cx="0" cy="0" r="10"/>
	<path class="st1" d="M-2.6,4.1V2.8c0.5,0.4,1.2,0.7,1.8,0.6c0.5,0,0.9-0.1,1.3-0.4c0.3-0.2,0.5-0.6,0.5-1c0-0.9-0.7-1.4-2.2-1.4
		h-0.7v-1.1h0.6c1.3,0,1.9-0.4,1.9-1.4S0.3-3-0.7-3c-0.6,0-1.1,0.2-1.6,0.6v-1.2C-1.7-4-1-4.1-0.3-4.1c0.6,0,1.3,0.2,1.8,0.6
		c0.4,0.3,0.7,0.9,0.7,1.4c0.1,1-0.7,1.9-1.7,2.1l0,0c0.5,0,1,0.3,1.4,0.6C2.3,1,2.5,1.5,2.5,2.1c0,0.7-0.3,1.4-0.9,1.8
		C1,4.4,0.2,4.6-0.6,4.6C-1.3,4.6-2,4.5-2.6,4.1z"/>
</symbol>
<symbol  id="New_Symbol_44" viewBox="-10 -10 20 20">
	<circle class="st0" cx="0" cy="0" r="10"/>
	<path class="st1" d="M2-4v5.4h1.3v1.1H2v1.9H0.6V2.6h-3.8V1.4c0.3-0.4,0.7-0.8,1-1.3c0.4-0.4,0.7-0.9,1-1.4s0.6-0.9,0.9-1.4
		S0.4-3.5,0.6-4L2-4z M0.7,1.4v-3.5c-0.4,0.7-0.8,1.4-1.3,2C-1,0.5-1.4,1-1.8,1.4L0.7,1.4z"/>
</symbol>
<g id="src" class="st2">
	<g id="Shapes" class="st3">
		<rect class="st1" width="475.7" height="151.4"/>
		<rect y="0.7" class="st4" width="105" height="150"/>
		<rect x="371" y="0.7" class="st5" width="104.7" height="90"/>
		<rect x="371" y="95.7" class="st6" width="104.7" height="55"/>
		<g>
			<g>
				<path class="st7" d="M18.5,29.2c0-0.8,0.7-1.5,1.5-1.5c0,0,0,0,0,0H83c0.8,0,1.5,0.7,1.5,1.5v37.2c0,0.8-0.7,1.5-1.5,1.5H20.1
					c-0.8,0-1.5-0.7-1.5-1.5L18.5,29.2z M15.1,27.4v40.7c0,1.8,1.5,3.3,3.3,3.3c0,0,0,0,0,0h66.3c1.8,0,3.3-1.4,3.3-3.3c0,0,0,0,0,0
					V27.4c0-1.8-1.5-3.3-3.3-3.3c0,0,0,0,0,0H18.4C16.5,24.1,15.1,25.6,15.1,27.4C15.1,27.4,15.1,27.4,15.1,27.4z"/>
				<path class="st7" d="M12.4,74.9h78.3c0.5,0,0.9,0.4,0.9,0.9c0,0,0,0,0,0v2.6c0,0.5-0.4,0.9-0.9,0.9c0,0,0,0,0,0H12.4
					c-0.5,0-0.9-0.4-0.9-0.9c0,0,0,0,0,0v-2.6C11.5,75.3,11.9,74.9,12.4,74.9C12.4,74.9,12.4,74.9,12.4,74.9z"/>
				<path class="st1" d="M42.6,76.4h17.8c0.1,0,0.3,0.1,0.3,0.3v0.7c0,0.1-0.1,0.3-0.3,0.3H42.6c-0.1,0-0.3-0.1-0.3-0.3v-0.7
					C42.3,76.6,42.5,76.4,42.6,76.4z"/>
			</g>
			<g>
				<path class="st8" d="M58.4,51.5l0.7-1.6l-0.2-0.2l-1.5-1.3v-1.3l1.7-1.5l-0.7-1.7h-0.3l-2,0.1l-0.9-0.9l0.1-2.3l-1.6-0.7
					l-0.2,0.2l-1.3,1.5h-1.3l-1.5-1.7l-1.7,0.7v0.3l0.1,2l-1,0.9l-2.3-0.1L44,45.5l0.2,0.2l1.5,1.3v1.3L44,49.9l0.7,1.7h0.3l2-0.1
					l0.9,1l-0.1,2.3l1.6,0.7l0.2-0.2l1.3-1.5h1.3l1.5,1.7l1.7-0.7v-0.3l-0.1-2l1-0.9L58.4,51.5z M50.1,51.1
					c-1.9-0.8-2.7-2.9-1.9-4.8s2.9-2.7,4.8-1.9c1.9,0.8,2.7,2.9,1.9,4.8l0,0C54.1,51,52,51.9,50.1,51.1L50.1,51.1"/>
				<path class="st8" d="M51.5,65c-9.6,0-17.3-7.8-17.3-17.3s7.8-17.3,17.3-17.3s17.3,7.8,17.3,17.3c0,0,0,0,0,0
					C68.8,57.3,61.1,65,51.5,65z M51.5,34.5c-7.3,0-13.1,5.9-13.1,13.1c0,7.3,5.9,13.1,13.1,13.1c7.2,0,13.1-5.9,13.1-13.1
					C64.7,40.5,58.8,34.6,51.5,34.5C51.5,34.6,51.5,34.6,51.5,34.5L51.5,34.5z"/>
				<path class="st8" d="M51.5,65c-9.6,0-17.3-7.8-17.3-17.3s7.8-17.3,17.3-17.3s17.3,7.8,17.3,17.3c0,0,0,0,0,0
					C68.8,57.3,61.1,65,51.5,65z M51.5,34.5c-7.3,0-13.1,5.9-13.1,13.1c0,7.3,5.9,13.1,13.1,13.1c7.2,0,13.1-5.9,13.1-13.1
					C64.7,40.5,58.8,34.6,51.5,34.5C51.5,34.6,51.5,34.6,51.5,34.5L51.5,34.5z"/>
				<path class="st8" d="M51.5,65c-9.6,0-17.3-7.8-17.3-17.3s7.8-17.3,17.3-17.3s17.3,7.8,17.3,17.3c0,0,0,0,0,0
					C68.8,57.3,61.1,65,51.5,65z M51.5,34.5c-7.3,0-13.1,5.9-13.1,13.1c0,7.3,5.9,13.1,13.1,13.1c7.2,0,13.1-5.9,13.1-13.1
					C64.7,40.5,58.8,34.6,51.5,34.5C51.5,34.6,51.5,34.6,51.5,34.5L51.5,34.5z"/>
				<path class="st9" d="M51.5,65.9c-10,0-18.1-8.1-18.1-18.2s8.1-18.1,18.2-18.1c10,0,18.1,8.1,18.1,18.1
					C69.7,57.8,61.5,65.9,51.5,65.9z M51.5,30.3c-9.6,0-17.4,7.8-17.4,17.5s7.8,17.4,17.5,17.4c9.6,0,17.4-7.8,17.4-17.5
					C69,38.1,61.2,30.3,51.5,30.3C51.5,30.3,51.5,30.3,51.5,30.3z"/>
				<path class="st9" d="M51.5,65.9c-10,0-18.1-8.1-18.1-18.2s8.1-18.1,18.2-18.1c10,0,18.1,8.1,18.1,18.1
					C69.7,57.8,61.5,65.9,51.5,65.9z M51.5,30.3c-9.6,0-17.4,7.8-17.4,17.5s7.8,17.4,17.5,17.4c9.6,0,17.4-7.8,17.4-17.5
					C69,38.1,61.2,30.3,51.5,30.3C51.5,30.3,51.5,30.3,51.5,30.3z"/>
				<path class="st9" d="M51.5,66.2C41.3,66.2,33,58,33,47.7c0-10.2,8.3-18.5,18.5-18.5S70,37.5,70,47.7c0,0,0,0,0,0
					C70,57.9,61.7,66.2,51.5,66.2z M51.5,30.6c-9.4,0-17.1,7.7-17.1,17.1s7.7,17.1,17.1,17.1s17.1-7.7,17.1-17.1S61,30.6,51.5,30.6
					L51.5,30.6z"/>
			</g>
		</g>
		<g>
			<line class="st10" x1="104.9" y1="14.6" x2="365.5" y2="14.6"/>
			<polygon points="364.4,18.3 370.9,14.6 364.4,10.8 			"/>
		</g>
		<g>
			<line class="st10" x1="110.3" y1="44.5" x2="370.9" y2="44.5"/>
			<polygon points="111.4,48.2 104.9,44.5 111.4,40.7 			"/>
		</g>
		<g>
			<line class="st10" x1="104.9" y1="103.9" x2="365.5" y2="103.9"/>
			<polygon points="364.4,107.6 370.9,103.9 364.4,100.1 			"/>
		</g>
		<g>
			<line class="st10" x1="110.3" y1="140" x2="370.9" y2="140"/>
			<polygon points="111.4,143.8 105,140 111.4,136.3 			"/>
		</g>
		
			<use xlink:href="#New_Symbol_44"  width="20" height="20" x="-10" y="-10" transform="matrix(1 0 0 1 164.14 139.57)" style="overflow:visible;"/>
		
			<use xlink:href="#New_Symbol_43"  width="20" height="20" x="-10" y="-10" transform="matrix(1 0 0 1 164.14 103.88)" style="overflow:visible;"/>
		
			<use xlink:href="#New_Symbol_42"  width="20" height="20" x="-10" y="-10" transform="matrix(1 0 0 1 164.14 44.45)" style="overflow:visible;"/>
		
			<use xlink:href="#New_Symbol_41"  width="20" height="20" x="-10" y="-10" transform="matrix(1 0 0 1 164.14 14.57)" style="overflow:visible;"/>
		<polygon class="st11" points="187.1,26.6 179.5,32 182.4,40.8 191.8,40.8 194.6,32 		"/>
	</g>
	<g id="Text" class="st3">
		<g>
			<path class="st12" d="M186.7,9.6h-1.1l-0.9-2.4h-3.6l-0.8,2.4h-1.1l3.2-8.4h1L186.7,9.6z M184.4,6.3l-1.3-3.6
				c-0.1-0.2-0.1-0.4-0.1-0.6l0,0c0,0.2-0.1,0.4-0.1,0.6l-1.3,3.6H184.4z"/>
			<path class="st12" d="M191.8,9.3c-0.5,0.3-1.1,0.4-1.6,0.4c-0.8,0-1.5-0.3-2.1-0.8c-0.5-0.6-0.8-1.4-0.8-2.2
				c0-0.9,0.3-1.7,0.9-2.4c0.6-0.6,1.4-0.9,2.3-0.9c0.5,0,1,0.1,1.4,0.3v1c-0.4-0.3-0.9-0.5-1.4-0.5c-0.6,0-1.1,0.2-1.5,0.7
				c-0.4,0.5-0.6,1.1-0.6,1.7c0,0.6,0.2,1.2,0.6,1.7c0.4,0.4,0.9,0.6,1.5,0.6c0.5,0,1.1-0.2,1.5-0.5V9.3z"/>
			<path class="st12" d="M198.2,12.3h-1V8.5l0,0c-0.4,0.8-1.2,1.2-2.1,1.2c-0.7,0-1.4-0.3-1.8-0.8c-0.5-0.6-0.7-1.4-0.7-2.2
				c0-0.9,0.2-1.7,0.8-2.4c0.5-0.6,1.2-0.9,2-0.9c0.7,0,1.4,0.3,1.8,1l0,0V3.6h1L198.2,12.3z M197.2,6.9V6c0-0.5-0.2-0.9-0.5-1.2
				c-0.3-0.3-0.8-0.5-1.2-0.5c-0.5,0-1,0.2-1.4,0.6c-0.4,0.5-0.5,1.2-0.5,1.8c0,0.6,0.1,1.2,0.5,1.6c0.3,0.4,0.8,0.6,1.3,0.6
				c0.5,0,1-0.2,1.3-0.6C197.1,7.9,197.3,7.4,197.2,6.9L197.2,6.9z"/>
			<path class="st12" d="M204.9,9.6h-1v-1l0,0c-0.4,0.7-1.1,1.1-1.9,1.1c-1.4,0-2.1-0.9-2.1-2.6V3.6h1V7c0,1.3,0.5,1.9,1.4,1.9
				c0.4,0,0.9-0.2,1.2-0.5C203.9,8,204,7.5,204,7V3.6h1L204.9,9.6z"/>
			<path class="st12" d="M207.3,2c-0.2,0-0.3-0.1-0.4-0.2c-0.1-0.1-0.2-0.3-0.2-0.5c0-0.2,0.1-0.3,0.2-0.4c0.1-0.1,0.3-0.2,0.4-0.2
				c0.2,0,0.3,0.1,0.4,0.2c0.1,0.1,0.2,0.3,0.2,0.4c0,0.2-0.1,0.3-0.2,0.4C207.6,2,207.4,2,207.3,2z M207.7,9.6h-1v-6h1V9.6z"/>
			<path class="st12" d="M212.7,4.5c-0.2-0.1-0.5-0.2-0.7-0.2c-0.4,0-0.8,0.2-1,0.6c-0.3,0.5-0.5,1-0.4,1.6v3.1h-1v-6h1v1.2l0,0
				c0.1-0.4,0.3-0.7,0.6-1c0.3-0.2,0.6-0.4,1-0.4c0.2,0,0.4,0,0.6,0.1L212.7,4.5z"/>
			<path class="st12" d="M218.6,6.8h-4.2c0,0.6,0.2,1.1,0.5,1.5c0.4,0.4,0.9,0.6,1.4,0.5c0.7,0,1.3-0.2,1.9-0.7v0.9
				c-0.6,0.4-1.4,0.6-2.1,0.6c-0.8,0-1.5-0.3-2-0.8c-0.5-0.7-0.8-1.5-0.7-2.3c0-0.8,0.2-1.6,0.8-2.3c0.5-0.6,1.2-0.9,2-0.9
				c0.7,0,1.4,0.2,1.8,0.8c0.5,0.6,0.7,1.4,0.6,2.1L218.6,6.8z M217.6,6c0-0.5-0.1-0.9-0.4-1.3c-0.3-0.3-0.7-0.5-1.1-0.5
				c-0.4,0-0.9,0.2-1.2,0.5c-0.3,0.4-0.5,0.8-0.6,1.3L217.6,6z"/>
			<path class="st12" d="M226.1,9.5c-0.3,0.1-0.6,0.2-0.9,0.2c-1.1,0-1.6-0.6-1.6-1.8V4.4h-1V3.6h1V2.1l1-0.3v1.8h1.5v0.8h-1.5v3.4
				c0,0.3,0,0.6,0.2,0.9c0.2,0.2,0.4,0.3,0.7,0.3c0.2,0,0.4-0.1,0.6-0.2L226.1,9.5z"/>
			<path class="st12" d="M229.7,9.7c-0.8,0-1.6-0.3-2.1-0.8c-0.5-0.6-0.8-1.4-0.8-2.2c-0.1-0.9,0.2-1.7,0.8-2.4
				c0.6-0.6,1.4-0.9,2.2-0.8c0.8,0,1.6,0.3,2.1,0.8c0.5,0.6,0.8,1.5,0.8,2.3c0,0.8-0.3,1.7-0.8,2.3C231.3,9.4,230.6,9.7,229.7,9.7z
				 M229.8,4.2c-0.6,0-1.1,0.2-1.5,0.6c-0.4,0.5-0.6,1.1-0.5,1.7c0,0.6,0.2,1.2,0.5,1.7c0.4,0.4,0.9,0.6,1.5,0.6
				c0.5,0,1.1-0.2,1.4-0.6c0.4-0.5,0.5-1.1,0.5-1.7c0-0.6-0.1-1.2-0.5-1.7C230.9,4.4,230.4,4.2,229.8,4.2L229.8,4.2z"/>
			<path class="st12" d="M239.2,9.6h-1.3l-2.7-2.9l0,0v2.9h-1V0.7h1v5.6l0,0l2.5-2.8h1.3l-2.8,2.9L239.2,9.6z"/>
			<path class="st12" d="M244.7,6.8h-4.2c0,0.6,0.2,1.1,0.5,1.5c0.4,0.4,0.9,0.6,1.4,0.5c0.7,0,1.3-0.2,1.9-0.7v0.9
				c-0.6,0.4-1.4,0.6-2.1,0.6c-0.8,0-1.5-0.3-2-0.8c-0.5-0.7-0.8-1.5-0.7-2.3c0-0.8,0.2-1.6,0.8-2.3c0.5-0.6,1.2-0.9,2-0.9
				c0.7,0,1.4,0.2,1.8,0.8c0.5,0.6,0.7,1.4,0.6,2.1L244.7,6.8z M243.7,6c0-0.5-0.1-0.9-0.4-1.3c-0.3-0.3-0.7-0.5-1.1-0.5
				c-0.4,0-0.9,0.2-1.2,0.5c-0.3,0.4-0.5,0.8-0.6,1.3L243.7,6z"/>
			<path class="st12" d="M251.1,9.6h-1V6.2c0-1.3-0.5-1.9-1.4-1.9c-0.5,0-0.9,0.2-1.2,0.5c-0.3,0.4-0.5,0.9-0.5,1.4v3.4h-1v-6h1v1
				l0,0c0.4-0.7,1.2-1.2,2-1.1c0.6,0,1.1,0.2,1.5,0.6c0.4,0.5,0.6,1.2,0.5,1.8L251.1,9.6z"/>
		</g>
		<g>
			<path class="st12" d="M205.6,38.3h-1.1l-0.9-2.4h-3.6l-0.8,2.4h-1.1l3.2-8.4h1L205.6,38.3z M203.3,35.1l-1.3-3.6
				c-0.1-0.2-0.1-0.4-0.1-0.6l0,0c0,0.2-0.1,0.4-0.1,0.6l-1.3,3.6H203.3z"/>
			<path class="st12" d="M210.7,38c-0.5,0.3-1.1,0.4-1.6,0.4c-0.8,0-1.5-0.3-2.1-0.8c-0.5-0.6-0.8-1.4-0.8-2.2
				c0-0.9,0.3-1.7,0.9-2.4c0.6-0.6,1.4-0.9,2.3-0.9c0.5,0,1,0.1,1.4,0.3v1c-0.4-0.3-0.9-0.5-1.4-0.5c-0.6,0-1.1,0.2-1.5,0.7
				c-0.4,0.5-0.6,1.1-0.6,1.7c0,0.6,0.2,1.2,0.6,1.7c0.4,0.4,0.9,0.6,1.5,0.6c0.5,0,1.1-0.2,1.5-0.5L210.7,38z"/>
			<path class="st12" d="M216.1,38c-0.5,0.3-1.1,0.4-1.6,0.4c-0.8,0-1.5-0.3-2.1-0.8c-0.5-0.6-0.8-1.4-0.8-2.2
				c0-0.9,0.3-1.7,0.8-2.4c0.6-0.6,1.4-0.9,2.3-0.9c0.5,0,1,0.1,1.4,0.3v1c-0.4-0.3-0.9-0.5-1.4-0.5c-0.6,0-1.1,0.2-1.5,0.7
				c-0.4,0.5-0.6,1.1-0.6,1.7c0,0.6,0.2,1.2,0.6,1.7c0.4,0.4,0.9,0.6,1.5,0.6c0.5,0,1.1-0.2,1.5-0.5L216.1,38z"/>
			<path class="st12" d="M222.3,35.5H218c0,0.6,0.2,1.1,0.5,1.5c0.4,0.4,0.9,0.6,1.4,0.5c0.7,0,1.3-0.2,1.9-0.7v0.9
				c-0.6,0.4-1.3,0.6-2.1,0.6c-0.8,0-1.5-0.3-2-0.8c-0.5-0.7-0.8-1.5-0.7-2.3c0-0.8,0.2-1.6,0.8-2.3c0.5-0.6,1.2-0.9,2-0.9
				c0.7,0,1.4,0.2,1.8,0.8c0.5,0.6,0.7,1.4,0.6,2.1L222.3,35.5z M221.3,34.7c0-0.5-0.1-0.9-0.4-1.3c-0.3-0.3-0.7-0.5-1.1-0.5
				c-0.4,0-0.9,0.2-1.2,0.5c-0.3,0.3-0.5,0.8-0.6,1.3H221.3z"/>
			<path class="st12" d="M223.3,38.1v-1c0.5,0.4,1.1,0.6,1.7,0.6c0.9,0,1.3-0.3,1.3-0.8c0-0.1,0-0.3-0.1-0.4
				c-0.1-0.1-0.2-0.2-0.3-0.3c-0.1-0.1-0.3-0.2-0.4-0.2l-0.5-0.2c-0.3-0.1-0.5-0.2-0.7-0.3c-0.2-0.1-0.4-0.2-0.5-0.4
				c-0.1-0.1-0.2-0.3-0.3-0.5c-0.1-0.2-0.1-0.4-0.1-0.6c0-0.3,0.1-0.5,0.2-0.8c0.1-0.2,0.3-0.4,0.5-0.5c0.2-0.2,0.5-0.3,0.7-0.3
				c0.3-0.1,0.6-0.1,0.9-0.1c0.5,0,1,0.1,1.4,0.3v1c-0.5-0.3-1-0.5-1.5-0.5c-0.2,0-0.3,0-0.5,0c-0.1,0-0.3,0.1-0.4,0.2
				c-0.1,0.1-0.2,0.2-0.2,0.3c-0.1,0.1-0.1,0.2-0.1,0.3c0,0.1,0,0.3,0.1,0.4c0.1,0.1,0.1,0.2,0.3,0.3c0.1,0.1,0.3,0.2,0.4,0.2
				l0.5,0.2c0.3,0.1,0.5,0.2,0.7,0.3c0.2,0.1,0.4,0.2,0.5,0.4c0.1,0.1,0.3,0.3,0.3,0.5c0.1,0.2,0.1,0.4,0.1,0.6
				c0,0.3-0.1,0.5-0.2,0.8c-0.1,0.2-0.3,0.4-0.5,0.5c-0.2,0.1-0.5,0.3-0.8,0.3c-0.3,0.1-0.6,0.1-0.9,0.1
				C224.4,38.4,223.8,38.3,223.3,38.1z"/>
			<path class="st12" d="M228.4,38.1v-1c0.5,0.4,1.1,0.6,1.7,0.6c0.8,0,1.3-0.3,1.3-0.8c0-0.1,0-0.3-0.1-0.4
				c-0.1-0.1-0.2-0.2-0.3-0.3c-0.1-0.1-0.3-0.2-0.4-0.2l-0.5-0.2c-0.3-0.1-0.5-0.2-0.7-0.3c-0.2-0.1-0.4-0.2-0.5-0.4
				c-0.1-0.1-0.2-0.3-0.3-0.5c-0.1-0.2-0.1-0.4-0.1-0.6c0-0.3,0.1-0.5,0.2-0.8c0.1-0.2,0.3-0.4,0.5-0.5c0.2-0.2,0.5-0.3,0.7-0.3
				c0.3-0.1,0.6-0.1,0.9-0.1c0.5,0,1,0.1,1.4,0.3v1c-0.5-0.3-1-0.5-1.5-0.5c-0.2,0-0.3,0-0.5,0.1c-0.1,0-0.3,0.1-0.4,0.2
				c-0.1,0.1-0.2,0.2-0.2,0.3c-0.1,0.1-0.1,0.2-0.1,0.3c0,0.1,0,0.3,0.1,0.4c0.1,0.1,0.1,0.2,0.3,0.3c0.1,0.1,0.3,0.2,0.4,0.2
				l0.5,0.2c0.3,0.1,0.5,0.2,0.7,0.3c0.2,0.1,0.4,0.2,0.5,0.4c0.1,0.1,0.3,0.3,0.4,0.5c0.1,0.2,0.1,0.4,0.1,0.6
				c0,0.3-0.1,0.5-0.2,0.8c-0.1,0.2-0.3,0.4-0.5,0.5c-0.2,0.1-0.5,0.3-0.8,0.3c-0.3,0.1-0.6,0.1-0.9,0.1
				C229.5,38.5,228.9,38.3,228.4,38.1z"/>
			<path class="st12" d="M239.9,38.2c-0.3,0.1-0.6,0.2-0.9,0.2c-1.1,0-1.6-0.6-1.6-1.8v-3.6h-1v-0.8h1v-1.5l1-0.3v1.8h1.5v0.8h-1.5
				v3.4c0,0.3,0,0.6,0.2,0.9c0.2,0.2,0.4,0.3,0.7,0.3c0.2,0,0.4-0.1,0.6-0.2L239.9,38.2z"/>
			<path class="st12" d="M243.6,38.4c-0.8,0-1.6-0.3-2.1-0.8c-0.5-0.6-0.8-1.4-0.8-2.2c0-0.9,0.2-1.7,0.8-2.4
				c0.6-0.6,1.4-0.9,2.2-0.8c0.8,0,1.6,0.3,2.1,0.8c0.5,0.6,0.8,1.5,0.8,2.3c0,0.8-0.2,1.7-0.8,2.3
				C245.2,38.2,244.4,38.5,243.6,38.4z M243.7,33c-0.6,0-1.1,0.2-1.5,0.6c-0.4,0.5-0.6,1.1-0.5,1.7c0,0.6,0.2,1.2,0.5,1.7
				c0.4,0.4,0.9,0.6,1.5,0.6c0.5,0,1.1-0.2,1.4-0.6c0.4-0.5,0.5-1.1,0.5-1.7c0-0.6-0.1-1.2-0.5-1.7C244.7,33.2,244.2,33,243.7,33
				L243.7,33z"/>
			<path class="st12" d="M253.1,38.3h-1.4l-2.6-2.9l0,0v2.9h-1v-8.9h1V35l0,0l2.5-2.7h1.3l-2.8,2.9L253.1,38.3z"/>
			<path class="st12" d="M258.6,35.5h-4.2c0,0.6,0.2,1.1,0.5,1.5c0.4,0.4,0.9,0.6,1.4,0.5c0.7,0,1.3-0.2,1.9-0.7v0.9
				c-0.6,0.4-1.3,0.6-2.1,0.6c-0.8,0-1.5-0.3-2-0.8c-0.5-0.7-0.8-1.5-0.7-2.3c0-0.8,0.2-1.6,0.8-2.3c0.5-0.6,1.2-0.9,2-0.9
				c0.7,0,1.4,0.2,1.8,0.8c0.5,0.6,0.7,1.4,0.6,2.1L258.6,35.5z M257.6,34.7c0-0.5-0.1-0.9-0.4-1.3c-0.3-0.3-0.7-0.5-1.1-0.5
				c-0.4,0-0.9,0.2-1.1,0.5c-0.3,0.3-0.5,0.8-0.6,1.3H257.6z"/>
			<path class="st12" d="M265,38.3h-1v-3.4c0-1.3-0.5-1.9-1.4-1.9c-0.5,0-0.9,0.2-1.2,0.5c-0.3,0.4-0.5,0.9-0.5,1.4v3.4h-1v-6h1v1
				l0,0c0.4-0.7,1.2-1.2,2-1.1c0.6,0,1.1,0.2,1.5,0.6c0.4,0.5,0.6,1.2,0.5,1.8L265,38.3z"/>
		</g>
		<g>
			<path class="st12" d="M186.5,134.5h-1v-3.8h-4.4v3.8h-1v-8.4h1v3.7h4.4v-3.7h1V134.5z"/>
			<path class="st12" d="M193.6,127h-2.4v7.5h-1V127h-2.4v-0.9h5.8L193.6,127z"/>
			<path class="st12" d="M200.1,127h-2.4v7.5h-1V127h-2.4v-0.9h5.8L200.1,127z"/>
			<path class="st12" d="M202.3,131.4v3.2h-1v-8.4h2.3c0.8-0.1,1.5,0.2,2.1,0.7c0.5,0.5,0.8,1.2,0.7,1.8c0,0.8-0.3,1.5-0.8,2
				c-0.6,0.5-1.4,0.8-2.2,0.8L202.3,131.4z M202.3,127v3.4h1c0.6,0,1.1-0.1,1.6-0.5c0.4-0.3,0.6-0.8,0.5-1.3c0-1.1-0.7-1.7-2-1.7
				H202.3z"/>
			<path class="st12" d="M214.4,129.5c-0.2-0.1-0.5-0.2-0.7-0.2c-0.4,0-0.8,0.2-1,0.6c-0.3,0.5-0.4,1-0.4,1.6v3.1h-1v-6h1v1.2l0,0
				c0.1-0.4,0.3-0.7,0.6-1c0.3-0.2,0.6-0.3,0.9-0.4c0.2,0,0.4,0,0.6,0.1L214.4,129.5z"/>
			<path class="st12" d="M220.2,131.8H216c0,0.6,0.2,1.1,0.5,1.6c0.4,0.4,0.9,0.6,1.4,0.6c0.7,0,1.3-0.2,1.9-0.7v0.9
				c-0.6,0.4-1.4,0.6-2.1,0.6c-0.8,0-1.5-0.3-2-0.8c-0.5-0.7-0.8-1.5-0.7-2.3c0-0.8,0.3-1.7,0.8-2.3c0.5-0.6,1.2-0.9,2-0.9
				c0.7,0,1.4,0.2,1.8,0.8c0.5,0.6,0.7,1.4,0.6,2.1L220.2,131.8z M219.2,130.9c0-0.5-0.1-0.9-0.4-1.3c-0.3-0.3-0.7-0.5-1.1-0.5
				c-0.4,0-0.9,0.2-1.1,0.5c-0.3,0.4-0.5,0.8-0.6,1.3L219.2,130.9z"/>
			<path class="st12" d="M221.3,134.3v-1c0.5,0.4,1.1,0.6,1.7,0.6c0.8,0,1.3-0.3,1.3-0.9c0-0.1,0-0.3-0.1-0.4
				c-0.1-0.1-0.2-0.2-0.3-0.3c-0.1-0.1-0.3-0.2-0.4-0.2l-0.5-0.2c-0.2-0.1-0.5-0.2-0.7-0.3c-0.2-0.1-0.4-0.2-0.5-0.4
				c-0.1-0.1-0.2-0.3-0.3-0.5c-0.1-0.2-0.1-0.4-0.1-0.6c0-0.3,0.1-0.5,0.2-0.8c0.1-0.2,0.3-0.4,0.5-0.5c0.2-0.2,0.5-0.3,0.7-0.3
				c0.7-0.2,1.5-0.1,2.2,0.2v1c-0.5-0.3-1-0.4-1.5-0.4c-0.2,0-0.3,0-0.5,0.1c-0.1,0-0.3,0.1-0.4,0.2c-0.1,0.1-0.2,0.2-0.2,0.3
				c-0.1,0.1-0.1,0.2-0.1,0.4c0,0.3,0.1,0.5,0.3,0.7c0.1,0.1,0.3,0.2,0.4,0.2l0.5,0.2c0.2,0.1,0.5,0.2,0.7,0.3
				c0.2,0.1,0.4,0.2,0.5,0.4c0.3,0.3,0.5,0.7,0.5,1.1c0,0.3-0.1,0.5-0.2,0.8c-0.1,0.2-0.3,0.4-0.5,0.6c-0.2,0.1-0.5,0.3-0.8,0.3
				c-0.3,0.1-0.6,0.1-0.9,0.1C222.4,134.7,221.8,134.6,221.3,134.3z"/>
			<path class="st12" d="M227.6,133.7L227.6,133.7v3.6h-1v-8.8h1v1.1l0,0c0.4-0.8,1.2-1.2,2.1-1.2c0.7,0,1.4,0.3,1.8,0.8
				c0.5,0.6,0.7,1.4,0.6,2.2c0,0.9-0.2,1.7-0.7,2.4c-0.5,0.6-1.2,0.9-2,0.9C228.7,134.7,228,134.3,227.6,133.7z M227.6,131.2v0.8
				c0,0.5,0.2,0.9,0.5,1.3c0.7,0.7,1.8,0.7,2.4,0c0.1-0.1,0.1-0.1,0.2-0.2c0.4-0.6,0.5-1.2,0.5-1.9c0-0.6-0.1-1.1-0.5-1.6
				c-0.3-0.4-0.8-0.6-1.3-0.6c-0.5,0-1,0.2-1.4,0.6C227.8,130.2,227.6,130.7,227.6,131.2L227.6,131.2z"/>
			<path class="st12" d="M236.2,134.7c-0.8,0-1.6-0.3-2.1-0.8c-0.6-0.6-0.8-1.4-0.8-2.2c0-0.9,0.3-1.7,0.8-2.4
				c0.6-0.6,1.4-0.9,2.2-0.9c0.8,0,1.6,0.3,2.1,0.8c0.5,0.6,0.8,1.5,0.8,2.3c0,0.8-0.2,1.7-0.8,2.3
				C237.8,134.4,237,134.7,236.2,134.7z M236.3,129.2c-0.6,0-1.1,0.2-1.5,0.6c-0.4,0.5-0.6,1.1-0.5,1.7c0,0.6,0.2,1.2,0.5,1.7
				c0.4,0.4,0.9,0.6,1.5,0.6c0.5,0,1.1-0.2,1.4-0.6c0.4-0.5,0.5-1.1,0.5-1.7c0-0.6-0.1-1.2-0.5-1.7
				C237.4,129.4,236.8,129.2,236.3,129.2L236.3,129.2z"/>
			<path class="st12" d="M245.7,134.5h-1v-3.4c0-1.3-0.5-1.9-1.4-1.9c-0.5,0-0.9,0.2-1.2,0.5c-0.3,0.4-0.5,0.9-0.5,1.4v3.4h-1v-6h1
				v1l0,0c0.4-0.7,1.2-1.2,2-1.1c0.6,0,1.1,0.2,1.5,0.6c0.4,0.5,0.6,1.2,0.5,1.8L245.7,134.5z"/>
			<path class="st12" d="M247.1,134.3v-1c0.5,0.4,1.1,0.6,1.7,0.6c0.8,0,1.3-0.3,1.3-0.9c0-0.1,0-0.3-0.1-0.4
				c-0.1-0.1-0.2-0.2-0.3-0.3c-0.1-0.1-0.3-0.2-0.4-0.2l-0.5-0.2c-0.2-0.1-0.5-0.2-0.7-0.3c-0.2-0.1-0.4-0.2-0.5-0.4
				c-0.1-0.1-0.2-0.3-0.3-0.5c-0.1-0.2-0.1-0.4-0.1-0.6c0-0.3,0.1-0.5,0.2-0.8c0.1-0.2,0.3-0.4,0.5-0.5c0.2-0.2,0.5-0.3,0.7-0.3
				c0.3-0.1,0.6-0.1,0.9-0.1c0.5,0,1,0.1,1.4,0.3v1c-0.5-0.3-1-0.4-1.5-0.4c-0.2,0-0.3,0-0.5,0.1c-0.1,0-0.3,0.1-0.4,0.2
				c-0.1,0.1-0.2,0.2-0.2,0.3c-0.1,0.1-0.1,0.2-0.1,0.4c0,0.3,0.1,0.5,0.3,0.7c0.1,0.1,0.3,0.2,0.4,0.2l0.5,0.2
				c0.2,0.1,0.5,0.2,0.7,0.3c0.2,0.1,0.4,0.2,0.5,0.4c0.1,0.1,0.3,0.3,0.3,0.5c0.1,0.2,0.1,0.4,0.1,0.6c0,0.3-0.1,0.5-0.2,0.8
				c-0.1,0.2-0.3,0.4-0.5,0.6c-0.2,0.1-0.5,0.3-0.8,0.3c-0.3,0.1-0.6,0.1-0.9,0.1C248.1,134.7,247.6,134.6,247.1,134.3z"/>
			<path class="st12" d="M257.3,131.8h-4.2c0,0.6,0.2,1.1,0.5,1.6c0.4,0.4,0.9,0.6,1.4,0.6c0.7,0,1.3-0.2,1.9-0.7v0.9
				c-0.6,0.4-1.4,0.6-2.1,0.6c-0.8,0-1.5-0.3-2-0.8c-1-1.4-1-3.2,0.1-4.6c0.5-0.6,1.2-0.9,2-0.9c0.7,0,1.4,0.2,1.8,0.8
				c0.5,0.6,0.7,1.4,0.6,2.1L257.3,131.8z M256.3,130.9c0-0.5-0.1-0.9-0.4-1.3c-0.3-0.3-0.7-0.5-1.1-0.5c-0.4,0-0.9,0.2-1.1,0.5
				c-0.3,0.3-0.5,0.8-0.6,1.3H256.3z"/>
		</g>
		<g>
			<path class="st5" d="M404.9,118.3H403v-5c0-0.5,0-1.1,0.1-1.8l0,0c-0.1,0.4-0.2,0.7-0.3,1.1l-2,5.7h-1.5l-2-5.7
				c0-0.2-0.1-0.5-0.3-1.2h0c0,0.8,0.1,1.6,0.1,2.2v4.7h-1.7v-8.4h2.8l1.7,5c0.1,0.4,0.2,0.8,0.3,1.2l0,0c0.1-0.5,0.2-0.9,0.3-1.2
				l1.7-5h2.7L404.9,118.3z"/>
			<path class="st5" d="M407.5,111.3c-0.3,0-0.6-0.1-0.8-0.3c-0.2-0.2-0.3-0.4-0.3-0.7c0-0.3,0.1-0.5,0.3-0.7
				c0.2-0.2,0.5-0.3,0.8-0.3c0.3,0,0.6,0.1,0.8,0.3c0.2,0.2,0.3,0.4,0.3,0.7c0,0.3-0.1,0.5-0.3,0.7
				C408,111.2,407.8,111.3,407.5,111.3z M408.4,118.3h-1.9v-6h1.9V118.3z"/>
			<path class="st5" d="M414.5,118c-0.6,0.3-1.2,0.4-1.8,0.4c-0.8,0-1.6-0.3-2.2-0.8c-0.6-0.6-0.9-1.4-0.9-2.2
				c0-0.9,0.3-1.8,0.9-2.4c0.7-0.6,1.6-0.9,2.5-0.9c0.5,0,1.1,0.1,1.5,0.3v1.7c-0.4-0.3-0.8-0.4-1.3-0.4c-1,0.1-1.8,0.9-1.7,1.9
				c0,0.4,0.2,0.8,0.4,1.1c0.3,0.3,0.8,0.5,1.2,0.4c0.5,0,1-0.2,1.4-0.4V118z"/>
			<path class="st5" d="M419.7,113.9c-0.2-0.1-0.5-0.2-0.8-0.2c-0.4,0-0.7,0.2-1,0.4c-0.2,0.4-0.4,0.8-0.3,1.2v2.9h-1.9v-6h1.9v1.1
				l0,0c0.2-0.7,0.8-1.2,1.6-1.2c0.2,0,0.3,0,0.5,0.1L419.7,113.9z"/>
			<path class="st5" d="M423.5,118.4c-0.9,0-1.7-0.3-2.4-0.8c-1.2-1.3-1.2-3.3,0-4.6c0.7-0.6,1.5-0.9,2.4-0.8
				c0.9-0.1,1.7,0.3,2.3,0.8c0.6,0.6,0.9,1.4,0.9,2.2c0,0.9-0.3,1.7-0.9,2.4C425.2,118.1,424.4,118.4,423.5,118.4z M423.5,113.5
				c-0.4,0-0.8,0.2-1,0.4c-0.3,0.4-0.4,0.8-0.4,1.3c0,1.2,0.5,1.7,1.4,1.7s1.3-0.6,1.3-1.8S424.4,113.5,423.5,113.5z"/>
			<path class="st5" d="M427.6,118.1v-1.5c0.3,0.2,0.6,0.3,0.9,0.4c0.3,0.1,0.6,0.1,0.9,0.1c0.3,0,0.5,0,0.8-0.1
				c0.2-0.1,0.3-0.2,0.3-0.4c0-0.1,0-0.2-0.1-0.3c-0.1-0.1-0.2-0.1-0.3-0.2l-0.4-0.2l-0.5-0.2c-0.2-0.1-0.4-0.2-0.6-0.3
				c-0.2-0.1-0.3-0.2-0.5-0.4c-0.1-0.1-0.2-0.3-0.3-0.5c-0.1-0.2-0.1-0.4-0.1-0.6c0-0.3,0.1-0.6,0.2-0.9c0.1-0.2,0.3-0.4,0.6-0.6
				c0.3-0.2,0.5-0.3,0.8-0.3c0.3-0.1,0.7-0.1,1-0.1c0.3,0,0.5,0,0.8,0.1c0.3,0,0.5,0.1,0.8,0.2v1.4c-0.2-0.1-0.5-0.2-0.8-0.3
				c-0.3-0.1-0.5-0.1-0.8-0.1c-0.1,0-0.2,0-0.3,0c-0.1,0-0.2,0.1-0.3,0.1c-0.1,0-0.1,0.1-0.2,0.2c0,0.1-0.1,0.1-0.1,0.2
				c0,0.1,0,0.2,0.1,0.3c0.1,0.1,0.2,0.2,0.3,0.2l0.4,0.2l0.4,0.1c0.2,0.1,0.5,0.2,0.7,0.3c0.2,0.1,0.4,0.2,0.5,0.4
				c0.1,0.1,0.3,0.3,0.3,0.5c0.1,0.2,0.1,0.4,0.1,0.7c0,0.3-0.1,0.6-0.2,0.9c-0.1,0.3-0.4,0.5-0.6,0.6c-0.3,0.2-0.6,0.3-0.9,0.3
				c-0.3,0.1-0.7,0.1-1,0.1C428.9,118.4,428.2,118.3,427.6,118.1z"/>
			<path class="st5" d="M436.2,118.4c-0.9,0-1.7-0.3-2.4-0.8c-1.2-1.3-1.2-3.3,0-4.6c0.7-0.6,1.5-0.9,2.4-0.8c0.9,0,1.7,0.3,2.4,0.8
				c0.6,0.6,0.9,1.4,0.9,2.2c0,0.9-0.3,1.7-0.9,2.4C437.9,118.1,437.1,118.4,436.2,118.4z M436.3,113.5c-0.4,0-0.8,0.2-1,0.4
				c-0.3,0.4-0.4,0.8-0.4,1.3c0,1.2,0.5,1.7,1.4,1.7s1.3-0.6,1.3-1.8S437.1,113.5,436.3,113.5z"/>
			<path class="st5" d="M444.5,110.8c-0.2-0.1-0.5-0.1-0.7-0.1c-0.6,0-0.9,0.3-0.9,1v0.6h1.4v1.4H443v4.6h-1.9v-4.6h-1v-1.4h1v-0.8
				c0-0.6,0.2-1.2,0.7-1.7c0.5-0.4,1.2-0.7,1.8-0.6c0.3,0,0.6,0,0.9,0.1L444.5,110.8z"/>
			<path class="st5" d="M449.1,118.2c-0.4,0.2-0.8,0.2-1.2,0.2c-1,0.1-1.9-0.5-2-1.5c0-0.2,0-0.3,0-0.5v-2.8h-1v-1.4h1V111l1.9-0.5
				v1.8h1.3v1.4h-1.3v2.3c0,0.6,0.3,0.9,0.7,0.9c0.2,0,0.4-0.1,0.6-0.2L449.1,118.2z"/>
			<path class="st5" d="M401.2,132.1c-0.9,0.5-2,0.7-3.1,0.7c-1.2,0.1-2.3-0.3-3.2-1.1c-0.8-0.8-1.2-1.9-1.2-3.1
				c0-1.2,0.4-2.4,1.3-3.2c0.9-0.9,2.1-1.3,3.4-1.3c0.8,0,1.6,0.1,2.4,0.4v1.8c-0.7-0.4-1.6-0.6-2.4-0.6c-0.7,0-1.4,0.2-1.9,0.8
				c-0.5,0.5-0.8,1.3-0.8,2c0,0.7,0.2,1.4,0.7,2c0.5,0.5,1.1,0.7,1.8,0.7c0.4,0,0.7-0.1,1.1-0.2v-1.6h-1.7v-1.5h3.6L401.2,132.1z"/>
			<path class="st5" d="M406.6,128.3c-0.2-0.1-0.5-0.2-0.8-0.2c-0.4,0-0.7,0.2-0.9,0.4c-0.2,0.3-0.4,0.8-0.3,1.2v2.9h-1.9v-6h1.9
				v1.1l0,0c0.2-0.7,0.8-1.2,1.6-1.2c0.2,0,0.3,0,0.5,0.1L406.6,128.3z"/>
			<path class="st5" d="M412.4,132.6h-1.8v-0.9l0,0c-0.4,0.6-1.1,1-1.8,1c-0.5,0-1-0.1-1.4-0.5c-0.3-0.3-0.5-0.8-0.5-1.3
				c0-1.2,0.7-1.8,2.1-2l1.6-0.2c0-0.6-0.4-1-1.1-1c-0.7,0-1.4,0.2-2,0.6V127c0.3-0.2,0.7-0.3,1-0.3c0.4-0.1,0.8-0.1,1.2-0.2
				c1.2-0.2,2.4,0.7,2.6,1.9c0,0.2,0,0.4,0,0.6L412.4,132.6z M410.6,130.2v-0.4l-1.1,0.1c-0.6,0.1-0.9,0.3-0.9,0.8
				c0,0.2,0.1,0.4,0.2,0.5c0.2,0.1,0.4,0.2,0.6,0.2c0.3,0,0.6-0.1,0.9-0.4C410.5,130.9,410.6,130.5,410.6,130.2L410.6,130.2z"/>
			<path class="st5" d="M415.7,132L415.7,132v3.5h-1.9v-8.8h1.9v0.9l0,0c0.7-1.1,2.2-1.4,3.3-0.6c0.2,0.1,0.3,0.2,0.5,0.4
				c0.5,0.6,0.7,1.4,0.6,2.2c0,0.9-0.2,1.7-0.7,2.4c-0.5,0.6-1.2,0.9-2,0.9C416.7,132.9,416.1,132.5,415.7,132z M415.7,129.5v0.5
				c0,0.4,0.1,0.7,0.3,1c0.2,0.3,0.5,0.4,0.9,0.4c0.4,0,0.8-0.2,1-0.5c0.3-0.4,0.4-0.9,0.4-1.4c0-1.1-0.4-1.6-1.2-1.6
				c-0.4,0-0.7,0.1-0.9,0.4C415.8,128.7,415.6,129.1,415.7,129.5L415.7,129.5z"/>
			<path class="st5" d="M427,132.6h-1.8v-3.4c0-0.9-0.3-1.3-1-1.3c-0.3,0-0.6,0.1-0.8,0.4c-0.2,0.3-0.3,0.6-0.3,0.9v3.4h-1.9v-8.9
				h1.9v3.8l0,0c0.4-0.6,1.1-1,1.8-1c1.3,0,2,0.8,2,2.5L427,132.6z"/>
			<path class="st5" d="M439.4,132.6h-2.1l-0.6-1.9h-3l-0.6,1.9h-2l3-8.4h2.3L439.4,132.6z M436.3,129.3l-0.9-2.8
				c-0.1-0.2-0.1-0.5-0.1-0.8h0c0,0.3-0.1,0.5-0.1,0.7l-0.9,2.8H436.3z"/>
			<path class="st5" d="M442.2,129.8v2.9h-1.9v-8.4h3c2.1,0,3.2,0.9,3.2,2.7c0,0.8-0.3,1.5-0.9,2c-0.7,0.5-1.6,0.8-2.4,0.8
				L442.2,129.8z M442.2,125.8v2.6h0.8c1,0,1.5-0.4,1.5-1.3s-0.5-1.3-1.5-1.3L442.2,125.8z"/>
			<path class="st5" d="M449.5,132.6h-1.9v-8.4h1.9V132.6z"/>
		</g>
		<g>
			<path class="st12" d="M26.4,99.4c-0.3,0-0.6-0.1-0.8-0.3c-0.2-0.2-0.3-0.4-0.3-0.7c0-0.3,0.1-0.5,0.3-0.7
				c0.2-0.2,0.5-0.3,0.8-0.3c0.3,0,0.6,0.1,0.8,0.3c0.2,0.2,0.3,0.4,0.3,0.7c0,0.3-0.1,0.5-0.3,0.7C27,99.3,26.7,99.4,26.4,99.4z"/>
			<path class="st12" d="M36.6,99.2h-1.9L31.3,94c-0.2-0.3-0.3-0.5-0.4-0.7l0,0c0,0.3,0,0.8,0,1.4v4.6h-1.8v-8.4h2l3.4,5.1
				c0.2,0.2,0.3,0.5,0.4,0.7l0,0c0-0.4,0-0.8,0-1.2v-4.7h1.8L36.6,99.2z"/>
			<path class="st12" d="M43.5,99.2h-5v-8.4h4.8v1.5h-3v1.9h2.8v1.5h-2.8v1.9h3.1L43.5,99.2z"/>
			<path class="st12" d="M50.8,92.4h-2.4v6.9h-1.9v-6.9h-2.4v-1.5h6.7V92.4z"/>
			<path class="st12" d="M61.3,98.9c-0.8,0.3-1.6,0.5-2.4,0.4c-1.1,0.1-2.2-0.4-3-1.1c-0.8-0.8-1.1-1.9-1.1-3c0-1.2,0.4-2.4,1.3-3.3
				c0.9-0.8,2-1.3,3.2-1.3c0.7,0,1.4,0.1,2.1,0.3v1.8c-0.6-0.3-1.3-0.5-1.9-0.5c-0.7,0-1.4,0.2-1.9,0.8c-1,1.2-1,2.8,0,4
				c0.5,0.5,1.2,0.8,1.8,0.7c0.7,0,1.4-0.2,2-0.5L61.3,98.9z"/>
			<path class="st12" d="M65.3,99.4c-0.9,0-1.7-0.3-2.3-0.8c-1.2-1.3-1.2-3.3,0-4.6c0.7-0.6,1.5-0.9,2.4-0.8c0.9,0,1.7,0.3,2.3,0.8
				c0.6,0.6,0.9,1.4,0.8,2.2c0,0.9-0.3,1.7-0.9,2.4C67.1,99.1,66.2,99.4,65.3,99.4z M65.3,94.5c-0.4,0-0.8,0.2-1,0.4
				c-0.3,0.4-0.4,0.8-0.3,1.3c0,1.2,0.5,1.7,1.4,1.7s1.3-0.6,1.3-1.8S66.3,94.5,65.3,94.5L65.3,94.5z"/>
			<path class="st12" d="M73.7,94.9c-0.2-0.1-0.5-0.2-0.8-0.2c-0.4,0-0.7,0.1-0.9,0.4c-0.2,0.4-0.4,0.8-0.3,1.2v2.9h-1.8v-6h1.8v1.1
				l0,0c0.2-0.7,0.8-1.2,1.6-1.2c0.2,0,0.3,0,0.5,0.1L73.7,94.9z"/>
			<path class="st12" d="M80,96.8h-3.9c0.1,0.9,0.6,1.3,1.7,1.3c0.6,0,1.2-0.1,1.7-0.5v1.3c-0.7,0.3-1.4,0.5-2.2,0.4
				c-0.8,0.1-1.7-0.2-2.3-0.8c-0.6-0.6-0.8-1.4-0.8-2.3c0-0.9,0.3-1.7,0.9-2.3c0.6-0.6,1.3-0.9,2.1-0.9c0.7,0,1.5,0.2,2,0.8
				c0.5,0.6,0.7,1.3,0.7,2.1V96.8z M78.3,95.6c0-0.9-0.3-1.3-1-1.3c-0.3,0-0.6,0.1-0.8,0.4c-0.2,0.3-0.4,0.6-0.4,0.9H78.3z"/>
			<path class="st12" d="M16.6,113.6v-8.4h3c3,0,4.5,1.4,4.5,4.1c0.1,1.2-0.4,2.3-1.2,3.1c-0.9,0.8-2.1,1.2-3.3,1.2H16.6z
				 M18.5,106.8v5.3h0.9c0.7,0,1.4-0.2,1.9-0.7c0.5-0.5,0.7-1.3,0.7-2c0-0.7-0.2-1.4-0.7-1.9c-0.5-0.5-1.2-0.7-2-0.7L18.5,106.8z"/>
			<path class="st12" d="M30.7,111.2h-3.9c0.1,0.9,0.6,1.3,1.6,1.3c0.6,0,1.2-0.1,1.7-0.5v1.3c-0.7,0.3-1.4,0.5-2.2,0.4
				c-1.5,0.2-2.9-1-3.1-2.5c0-0.2,0-0.4,0-0.5c0-0.9,0.3-1.7,0.9-2.4c0.6-0.6,1.3-0.9,2.1-0.9c0.7,0,1.5,0.2,2,0.8
				c0.5,0.6,0.8,1.3,0.7,2.1L30.7,111.2z M28.9,110c0-0.9-0.4-1.3-1-1.3c-0.3,0-0.6,0.1-0.8,0.4c-0.2,0.3-0.4,0.6-0.4,0.9H28.9z"/>
			<path class="st12" d="M31.5,113.5V112c0.3,0.2,0.6,0.3,0.9,0.4c0.3,0.1,0.6,0.1,0.8,0.1c0.3,0,0.5,0,0.8-0.1
				c0.2-0.1,0.3-0.2,0.3-0.4c0-0.1,0-0.2-0.1-0.3c-0.1-0.1-0.2-0.2-0.3-0.2c-0.1-0.1-0.3-0.1-0.4-0.2c-0.2,0-0.3-0.1-0.5-0.2
				c-0.2-0.1-0.4-0.2-0.6-0.3c-0.2-0.1-0.3-0.2-0.5-0.4c-0.1-0.1-0.2-0.3-0.3-0.5c-0.1-0.2-0.1-0.4-0.1-0.6c0-0.3,0.1-0.6,0.2-0.9
				c0.1-0.2,0.3-0.5,0.6-0.6c0.3-0.2,0.5-0.3,0.8-0.3c0.3-0.1,0.7-0.1,1-0.1c0.3,0,0.5,0,0.8,0.1c0.3,0,0.5,0.1,0.8,0.2v1.4
				c-0.2-0.1-0.5-0.2-0.8-0.3c-0.3-0.1-0.5-0.1-0.8-0.1c-0.1,0-0.2,0-0.3,0c-0.1,0-0.2,0.1-0.3,0.1c-0.1,0-0.1,0.1-0.2,0.2
				c0,0.1-0.1,0.1-0.1,0.2c0,0.1,0,0.2,0.1,0.3c0.1,0.1,0.2,0.2,0.3,0.2c0.1,0.1,0.2,0.1,0.4,0.2l0.4,0.1c0.2,0.1,0.4,0.2,0.7,0.3
				c0.2,0.1,0.4,0.2,0.5,0.4c0.1,0.1,0.3,0.3,0.3,0.5c0.2,0.5,0.1,1.1-0.1,1.6c-0.2,0.2-0.4,0.5-0.6,0.6c-0.3,0.2-0.6,0.3-0.9,0.3
				c-0.3,0.1-0.7,0.1-1,0.1C32.8,113.8,32.1,113.7,31.5,113.5z"/>
			<path class="st12" d="M43.3,113.6H41l-1.9-3l0,0v3h-1.8v-8.9h1.8v5.7l0,0l1.8-2.8h2.2l-2.1,2.8L43.3,113.6z"/>
			<path class="st12" d="M47.8,113.6c-0.4,0.2-0.8,0.2-1.2,0.2c-1.3,0-2-0.7-2-2V109h-1v-1.4h1v-1.3l1.8-0.5v1.8h1.3v1.4h-1.3v2.4
				c0,0.6,0.3,0.9,0.7,0.9c0.2,0,0.4-0.1,0.6-0.2L47.8,113.6z"/>
			<path class="st12" d="M51.7,113.8c-0.9,0-1.7-0.3-2.4-0.8c-1.2-1.3-1.2-3.3,0-4.6c0.7-0.6,1.5-0.9,2.4-0.8c0.9,0,1.7,0.3,2.3,0.8
				c0.6,0.6,0.9,1.4,0.8,2.2c0,0.9-0.3,1.7-0.9,2.4C53.5,113.5,52.6,113.8,51.7,113.8z M51.7,108.9c-0.4,0-0.8,0.2-1,0.4
				c-0.3,0.4-0.4,0.8-0.4,1.3c0,1.2,0.5,1.7,1.4,1.7s1.3-0.6,1.3-1.8S52.7,108.9,51.7,108.9L51.7,108.9z"/>
			<path class="st12" d="M58.1,112.9L58.1,112.9v3.5h-1.9v-8.8h1.8v0.9l0,0c0.7-1.1,2.2-1.4,3.3-0.7c0.2,0.1,0.3,0.2,0.5,0.4
				c0.5,0.6,0.7,1.4,0.6,2.2c0,0.9-0.2,1.7-0.7,2.4c-0.5,0.6-1.2,0.9-2,0.9C59,113.8,58.4,113.5,58.1,112.9z M58,110.5v0.5
				c0,0.4,0.1,0.7,0.3,1c0.2,0.3,0.5,0.4,0.9,0.4c0.4,0,0.8-0.2,1-0.5c0.3-0.4,0.4-0.9,0.3-1.4c0-1-0.4-1.6-1.2-1.6
				c-0.4,0-0.7,0.1-0.9,0.4C58.1,109.7,58,110.1,58,110.5z"/>
			<path class="st12" d="M74.5,113.6h-2.1l-0.6-1.9h-3l-0.6,1.9h-2l3.1-8.4h2.2L74.5,113.6z M71.4,110.3l-0.9-2.8
				c-0.1-0.2-0.1-0.5-0.1-0.8h-0.1c0,0.2-0.1,0.5-0.2,0.7l-0.9,2.8H71.4z"/>
			<path class="st12" d="M77.3,112.9L77.3,112.9v3.5h-1.9v-8.8h1.8v0.9l0,0c0.7-1.1,2.2-1.4,3.3-0.6c0.2,0.1,0.3,0.2,0.5,0.4
				c0.5,0.6,0.7,1.4,0.6,2.2c0,0.9-0.2,1.7-0.7,2.4c-0.5,0.6-1.2,0.9-2,0.9C78.2,113.8,77.6,113.5,77.3,112.9z M77.3,110.5v0.5
				c0,0.4,0.1,0.7,0.3,1c0.2,0.3,0.5,0.4,0.9,0.4c0.4,0,0.8-0.2,1-0.5c0.3-0.4,0.4-0.9,0.3-1.4c0-1-0.4-1.6-1.2-1.6
				c-0.4,0-0.7,0.1-0.9,0.4C77.4,109.7,77.2,110.1,77.3,110.5L77.3,110.5z"/>
			<path class="st12" d="M84.7,112.9L84.7,112.9v3.5h-1.9v-8.8h1.9v0.9l0,0c0.7-1.1,2.2-1.4,3.3-0.6c0.2,0.1,0.3,0.2,0.5,0.4
				c0.4,0.6,0.7,1.4,0.6,2.2c0,0.9-0.2,1.7-0.7,2.4c-0.5,0.6-1.2,0.9-2,0.9C85.7,113.8,85.1,113.5,84.7,112.9z M84.7,110.5v0.5
				c0,0.4,0.1,0.7,0.3,1c0.2,0.3,0.5,0.4,0.9,0.4c0.4,0,0.8-0.2,1-0.5c0.3-0.4,0.4-0.9,0.3-1.4c0-1-0.4-1.6-1.2-1.6
				c-0.4,0-0.7,0.1-0.9,0.4C84.8,109.7,84.7,110.1,84.7,110.5L84.7,110.5z"/>
			<path class="st12" d="M8.5,130H7c-1.3-1.4-1.9-3.2-1.9-5.1c0-1.9,0.6-3.8,1.9-5.2h1.5c-1.2,1.5-1.8,3.3-1.8,5.2
				C6.7,126.7,7.3,128.5,8.5,130z"/>
			<path class="st12" d="M17,128h-1.9l-3.5-5.3c-0.2-0.2-0.3-0.5-0.4-0.7l0,0c0,0.3,0,0.8,0,1.4v4.6H9.5v-8.4h2l3.3,5.1
				c0.1,0.2,0.3,0.5,0.4,0.7l0,0c0-0.4-0.1-0.8-0.1-1.2v-4.6H17L17,128z"/>
			<path class="st12" d="M21.6,128.2c-0.9,0-1.7-0.3-2.4-0.8c-1.2-1.3-1.2-3.3,0-4.6c0.7-0.6,1.5-0.9,2.4-0.8c0.9,0,1.7,0.3,2.3,0.8
				c0.6,0.6,0.9,1.4,0.9,2.2c0,0.9-0.3,1.7-0.9,2.4C23.3,127.9,22.5,128.2,21.6,128.2z M21.6,123.3c-0.4,0-0.8,0.2-1,0.4
				c-0.3,0.4-0.4,0.8-0.4,1.3c0,1.2,0.5,1.7,1.4,1.7s1.4-0.6,1.4-1.8S22.5,123.3,21.6,123.3L21.6,123.3z"/>
			<path class="st12" d="M31.9,128H30v-3.3c0-0.9-0.3-1.4-1-1.4c-0.3,0-0.6,0.1-0.8,0.4c-0.2,0.3-0.3,0.6-0.3,0.9v3.4h-1.8v-6h1.9v1
				l0,0c0.4-0.7,1.1-1.1,1.9-1.1c1.3,0,2,0.8,2,2.5L31.9,128z"/>
			<path class="st12" d="M36.5,125.5h-3.2v-1.3h3.2V125.5z"/>
			<path class="st12" d="M38.9,121.1c-0.3,0-0.6-0.1-0.8-0.3c-0.2-0.2-0.3-0.4-0.3-0.7c0-0.3,0.1-0.5,0.3-0.7c0.4-0.4,1.1-0.4,1.5,0
				c0.2,0.2,0.3,0.4,0.3,0.7c0,0.3-0.1,0.5-0.3,0.7C39.4,121,39.2,121.1,38.9,121.1z M39.8,128h-1.8v-6h1.8V128z"/>
			<path class="st12" d="M47.1,128h-1.8v-3.3c0-0.9-0.3-1.4-1-1.4c-0.3,0-0.6,0.1-0.8,0.4c-0.2,0.3-0.3,0.6-0.3,0.9v3.4h-1.8v-6h1.8
				v1l0,0c0.4-0.7,1.1-1.1,1.9-1.1c1.3,0,2,0.8,2,2.5L47.1,128z"/>
			<path class="st12" d="M52.1,128c-0.4,0.2-0.8,0.2-1.2,0.2c-1.3,0-2-0.7-2-2v-2.8H48V122h1v-1.3l1.8-0.5v1.8h1.3v1.4h-1.4v2.4
				c0,0.6,0.2,0.9,0.7,0.9c0.2,0,0.4-0.1,0.6-0.2V128z"/>
			<path class="st12" d="M58.6,125.6h-3.9c0.1,0.9,0.6,1.3,1.7,1.3c0.6,0,1.2-0.2,1.7-0.5v1.3c-0.7,0.3-1.4,0.5-2.2,0.4
				c-0.8,0.1-1.7-0.2-2.3-0.8c-0.6-0.6-0.8-1.4-0.8-2.3c0-0.9,0.3-1.7,0.9-2.4c0.6-0.6,1.3-0.9,2.1-0.9c0.7,0,1.5,0.2,2,0.8
				c0.5,0.6,0.8,1.3,0.7,2.1L58.6,125.6z M56.8,124.4c0-0.9-0.3-1.3-1-1.3c-0.3,0-0.6,0.1-0.8,0.4c-0.2,0.3-0.4,0.6-0.4,0.9H56.8z"
				/>
			<path class="st12" d="M63.7,123.7c-0.2-0.1-0.5-0.2-0.8-0.2c-0.4,0-0.7,0.1-0.9,0.4c-0.2,0.4-0.4,0.8-0.3,1.2v2.8h-1.9v-6h1.8
				v1.1l0,0c0.2-0.7,0.8-1.2,1.6-1.2c0.2,0,0.3,0,0.5,0.1L63.7,123.7z"/>
			<path class="st12" d="M69.4,128h-1.8v-0.9l0,0c-0.4,0.6-1.1,1-1.8,1c-0.5,0-1-0.1-1.4-0.5c-0.3-0.4-0.5-0.8-0.5-1.3
				c0-1.2,0.7-1.8,2.1-2l1.6-0.2c0-0.7-0.3-1-1.1-1c-0.7,0-1.4,0.2-2,0.6v-1.4c0.3-0.2,0.7-0.3,1.1-0.4c0.4-0.1,0.8-0.1,1.2-0.2
				c1.2-0.2,2.4,0.7,2.6,1.9c0,0.2,0,0.4,0,0.6L69.4,128z M67.7,125.6v-0.4l-1.1,0.1c-0.6,0.1-0.9,0.3-0.9,0.8
				c0,0.2,0.1,0.4,0.2,0.5c0.2,0.1,0.4,0.2,0.6,0.2c0.3,0,0.6-0.1,0.8-0.4C67.6,126.2,67.7,125.9,67.7,125.6L67.7,125.6z"/>
			<path class="st12" d="M75.4,127.8c-0.6,0.3-1.2,0.4-1.8,0.4c-0.8,0-1.6-0.3-2.2-0.8c-0.6-0.6-0.9-1.4-0.9-2.2
				c0-0.9,0.3-1.8,0.9-2.4c0.7-0.6,1.5-0.9,2.4-0.9c0.5,0,1.1,0.1,1.5,0.3v1.6c-0.4-0.3-0.8-0.4-1.3-0.4c-0.5,0-0.9,0.1-1.3,0.5
				c-0.3,0.3-0.5,0.8-0.5,1.3c0,0.5,0.1,0.9,0.4,1.3c0.3,0.3,0.8,0.5,1.2,0.5c0.5,0,1-0.2,1.3-0.4L75.4,127.8z"/>
			<path class="st12" d="M80.4,128c-0.4,0.2-0.8,0.2-1.2,0.2c-1.3,0-2-0.7-2-2v-2.8h-1V122h1v-1.3l1.8-0.5v1.8h1.3v1.4H79v2.4
				c0,0.6,0.3,0.9,0.7,0.9c0.2,0,0.4-0.1,0.6-0.2L80.4,128z"/>
			<path class="st12" d="M82.4,121.1c-0.3,0-0.6-0.1-0.8-0.3c-0.2-0.2-0.3-0.4-0.3-0.7c0-0.3,0.1-0.5,0.3-0.7c0.4-0.4,1.1-0.4,1.5,0
				c0.2,0.2,0.3,0.4,0.3,0.7c0,0.3-0.1,0.5-0.3,0.7C83,121,82.7,121.1,82.4,121.1z M83.3,128h-1.8v-6h1.8V128z"/>
			<path class="st12" d="M90.6,122l-2.2,6h-2.1l-2.1-6h2l1,3.7c0.1,0.3,0.2,0.7,0.2,1.1l0,0c0-0.3,0.1-0.7,0.2-1l1.1-3.8H90.6z"/>
			<path class="st12" d="M96.6,125.6h-3.9c0.1,0.9,0.6,1.3,1.7,1.3c0.6,0,1.2-0.1,1.7-0.5v1.3c-0.7,0.3-1.4,0.5-2.2,0.4
				c-1.5,0.2-2.9-0.9-3.1-2.5c0-0.2,0-0.4,0-0.6c0-0.9,0.3-1.7,0.9-2.4c0.6-0.6,1.3-0.9,2.1-0.9c0.7,0,1.5,0.2,2,0.8
				c0.5,0.6,0.8,1.3,0.7,2.1L96.6,125.6z M94.9,124.4c0-0.9-0.3-1.3-1-1.3c-0.3,0-0.6,0.1-0.8,0.4c-0.2,0.3-0.4,0.6-0.4,0.9H94.9z"
				/>
			<path class="st12" d="M98.1,130h-1.5c1.2-1.5,1.8-3.3,1.8-5.1c0-1.9-0.6-3.7-1.8-5.2h1.5c1.2,1.4,1.9,3.3,1.9,5.2
				C100.1,126.8,99.4,128.6,98.1,130z"/>
		</g>
		<g>
			<path class="st1" d="M406.2,34h-1.9v-5c0-0.5,0-1.1,0.1-1.8h0c-0.1,0.4-0.2,0.8-0.3,1.1l-2,5.7h-1.5l-2-5.6
				c-0.1-0.2-0.1-0.5-0.3-1.2l0,0c0,0.8,0.1,1.6,0.1,2.2V34h-1.7v-8.4h2.8l1.7,5c0.1,0.4,0.2,0.8,0.3,1.2l0,0
				c0.1-0.4,0.2-0.8,0.3-1.2l1.7-5h2.7L406.2,34z"/>
			<path class="st1" d="M408.8,27.1c-0.3,0-0.6-0.1-0.8-0.3c-0.2-0.2-0.3-0.4-0.3-0.7c0-0.3,0.1-0.5,0.3-0.7
				c0.2-0.2,0.5-0.3,0.8-0.3c0.3,0,0.6,0.1,0.8,0.3c0.2,0.2,0.3,0.4,0.3,0.7c0,0.3-0.1,0.5-0.3,0.7C409.3,27,409.1,27.1,408.8,27.1z
				 M409.7,34.1h-1.9V28h1.9V34.1z"/>
			<path class="st1" d="M415.8,33.8c-0.6,0.3-1.2,0.4-1.8,0.4c-0.8,0-1.6-0.3-2.2-0.8c-0.6-0.6-0.9-1.4-0.9-2.2
				c0-0.9,0.3-1.8,0.9-2.4c0.7-0.6,1.5-0.9,2.5-0.9c0.5,0,1.1,0.1,1.5,0.3v1.6c-0.4-0.3-0.8-0.4-1.3-0.4c-0.5,0-0.9,0.1-1.3,0.5
				c-0.3,0.3-0.5,0.8-0.5,1.3c0,0.5,0.1,0.9,0.5,1.3c0.3,0.3,0.8,0.5,1.2,0.5c0.5,0,1-0.2,1.4-0.4L415.8,33.8z"/>
			<path class="st1" d="M421,29.7c-0.2-0.1-0.5-0.2-0.8-0.2c-0.4,0-0.7,0.2-0.9,0.4c-0.2,0.4-0.4,0.8-0.3,1.2V34h-1.9v-6h1.9v1.1
				l0,0c0.2-0.7,0.8-1.2,1.6-1.2c0.2,0,0.3,0,0.5,0.1V29.7z"/>
			<path class="st1" d="M424.8,34.2c-0.9,0-1.7-0.3-2.4-0.8c-0.6-0.6-0.9-1.4-0.9-2.3c-0.1-0.9,0.3-1.7,0.9-2.3
				c0.7-0.6,1.5-0.9,2.4-0.9c0.9,0,1.7,0.3,2.3,0.9c0.6,0.6,0.9,1.4,0.9,2.2c0,0.9-0.3,1.7-0.9,2.4
				C426.6,33.9,425.7,34.2,424.8,34.2z M424.8,29.3c-0.4,0-0.8,0.2-1,0.5c-0.3,0.4-0.4,0.8-0.4,1.3c0,1.1,0.5,1.7,1.4,1.7
				s1.3-0.6,1.3-1.8S425.8,29.3,424.8,29.3L424.8,29.3z"/>
			<path class="st1" d="M428.9,33.8v-1.5c0.3,0.2,0.6,0.3,0.9,0.4c0.3,0.1,0.6,0.1,0.9,0.1c0.3,0,0.5,0,0.8-0.1
				c0.2-0.1,0.3-0.2,0.3-0.4c0-0.1,0-0.2-0.1-0.3c-0.1-0.1-0.2-0.2-0.3-0.2c-0.1-0.1-0.3-0.1-0.4-0.1l-0.5-0.2
				c-0.2-0.1-0.4-0.2-0.6-0.3c-0.2-0.1-0.3-0.2-0.5-0.4c-0.1-0.1-0.2-0.3-0.3-0.5c-0.1-0.2-0.1-0.4-0.1-0.6c0-0.3,0.1-0.6,0.2-0.9
				c0.2-0.2,0.4-0.4,0.6-0.6c0.3-0.2,0.5-0.3,0.8-0.3c0.6-0.1,1.2-0.1,1.8,0c0.3,0,0.5,0.1,0.8,0.2v1.4c-0.2-0.1-0.5-0.2-0.8-0.3
				c-0.3-0.1-0.5-0.1-0.8-0.1c-0.1,0-0.2,0-0.4,0c-0.1,0-0.2,0-0.3,0.1c-0.1,0-0.1,0.1-0.2,0.2c0,0.1-0.1,0.1-0.1,0.2
				c0,0.1,0,0.2,0.1,0.3c0.1,0.1,0.2,0.2,0.3,0.2c0.1,0.1,0.2,0.1,0.4,0.1l0.4,0.1c0.2,0.1,0.5,0.2,0.7,0.3c0.2,0.1,0.4,0.2,0.5,0.4
				c0.1,0.1,0.3,0.3,0.3,0.5c0.1,0.2,0.1,0.4,0.1,0.7c0,0.3-0.1,0.6-0.2,0.9c-0.2,0.2-0.4,0.5-0.6,0.6c-0.3,0.2-0.6,0.3-0.9,0.3
				c-0.3,0.1-0.7,0.1-1,0.1C430.2,34.2,429.5,34.1,428.9,33.8z"/>
			<path class="st1" d="M437.5,34.2c-0.9,0-1.7-0.3-2.4-0.8c-0.6-0.6-0.9-1.4-0.9-2.3c-0.1-0.9,0.3-1.7,0.9-2.3
				c0.7-0.6,1.5-0.9,2.4-0.9c0.9-0.1,1.7,0.3,2.3,0.9c0.6,0.6,0.9,1.4,0.9,2.2c0,0.9-0.3,1.7-0.9,2.4
				C439.3,33.9,438.4,34.2,437.5,34.2z M437.5,29.3c-0.4,0-0.8,0.2-1,0.5c-0.3,0.4-0.4,0.8-0.4,1.3c0,1.1,0.5,1.7,1.4,1.7
				s1.3-0.6,1.3-1.8S438.5,29.3,437.5,29.3L437.5,29.3z"/>
			<path class="st1" d="M445.9,26.5c-0.2-0.1-0.4-0.1-0.7-0.1c-0.6,0-0.9,0.3-0.9,1V28h1.4v1.4h-1.4V34h-1.8v-4.6h-1V28h1v-0.7
				c0-0.6,0.2-1.2,0.7-1.7c0.5-0.4,1.1-0.7,1.8-0.6c0.3,0,0.6,0,0.9,0.1L445.9,26.5z"/>
			<path class="st1" d="M450.4,33.9c-0.4,0.2-0.8,0.2-1.2,0.2c-1.3,0-2-0.7-2-2v-2.8h-1V28h1v-1.3l1.8-0.5V28h1.4v1.4h-1.4v2.4
				c0,0.6,0.3,0.9,0.8,0.9c0.2,0,0.4-0.1,0.6-0.2V33.9z"/>
			<path class="st1" d="M402.8,41.5c-0.3,0-0.6-0.1-0.8-0.3c-0.2-0.2-0.3-0.4-0.3-0.7c0-0.3,0.1-0.5,0.3-0.7
				c0.2-0.2,0.5-0.3,0.8-0.3c0.3,0,0.6,0.1,0.8,0.3c0.2,0.2,0.3,0.4,0.3,0.7c0,0.3-0.1,0.5-0.3,0.7
				C403.4,41.4,403.1,41.5,402.8,41.5z M403.7,48.4h-1.9v-6h1.9V48.4z"/>
			<path class="st1" d="M411.2,48.4h-1.9v-0.8l0,0c-0.4,0.6-1.1,1-1.9,1c-0.7,0-1.4-0.3-1.8-0.8c-0.5-0.6-0.7-1.4-0.7-2.2
				c0-0.9,0.2-1.7,0.8-2.4c0.5-0.6,1.2-0.9,2-0.9c0.7-0.1,1.3,0.3,1.6,0.8l0,0v-3.6h1.9L411.2,48.4z M409.4,45.5V45
				c0-0.4-0.1-0.7-0.3-1c-0.2-0.3-0.5-0.4-0.9-0.4c-0.4,0-0.8,0.2-1,0.5c-0.2,0.4-0.4,0.9-0.3,1.3c0,0.4,0.1,0.9,0.3,1.2
				c0.4,0.5,1.2,0.6,1.7,0.2c0.1-0.1,0.1-0.1,0.2-0.2C409.2,46.3,409.4,45.9,409.4,45.5L409.4,45.5z"/>
			<path class="st1" d="M418.1,45.9h-3.9c0.1,0.9,0.6,1.3,1.6,1.3c0.6,0,1.2-0.1,1.7-0.5v1.3c-0.7,0.3-1.4,0.5-2.2,0.5
				c-1.5,0.2-2.9-1-3.1-2.5c0-0.2,0-0.4,0-0.6c0-0.9,0.3-1.7,0.9-2.4c0.6-0.6,1.3-0.9,2.1-0.9c0.7,0,1.5,0.2,2,0.8
				c0.5,0.6,0.8,1.3,0.7,2.1L418.1,45.9z M416.4,44.8c0-0.9-0.3-1.3-1-1.3c-0.3,0-0.6,0.1-0.8,0.4c-0.2,0.3-0.4,0.6-0.4,0.9
				L416.4,44.8z"/>
			<path class="st1" d="M425.1,48.4h-1.9v-3.3c0-0.9-0.3-1.4-1-1.4c-0.3,0-0.6,0.1-0.8,0.4c-0.2,0.3-0.3,0.6-0.3,0.9v3.4h-1.8v-6
				h1.9v1l0,0c0.4-0.7,1.1-1.1,1.9-1.1c1.3,0,2,0.8,2,2.5L425.1,48.4z"/>
			<path class="st1" d="M430.1,48.3c-0.4,0.2-0.8,0.2-1.2,0.2c-1.3,0-2-0.7-2-2v-2.8h-1v-1.4h1v-1.3l1.8-0.5v1.8h1.4v1.4h-1.4v2.4
				c0,0.6,0.3,0.9,0.8,0.9c0.2,0,0.4-0.1,0.6-0.2V48.3z"/>
			<path class="st1" d="M432.2,41.5c-0.3,0-0.6-0.1-0.8-0.3c-0.2-0.2-0.3-0.4-0.3-0.7c0-0.3,0.1-0.5,0.3-0.7
				c0.2-0.2,0.5-0.3,0.8-0.3c0.3,0,0.6,0.1,0.8,0.3c0.2,0.2,0.3,0.4,0.3,0.7c0,0.3-0.1,0.5-0.3,0.7
				C432.7,41.4,432.5,41.5,432.2,41.5z M433.1,48.4h-1.9v-6h1.9V48.4z"/>
			<path class="st1" d="M438.2,48.3c-0.4,0.2-0.8,0.2-1.2,0.2c-1.3,0-2-0.7-2-2v-2.8h-1v-1.4h1v-1.3l1.8-0.5v1.8h1.4v1.4h-1.4v2.4
				c0,0.6,0.3,0.9,0.8,0.9c0.2,0,0.4-0.1,0.6-0.2V48.3z"/>
			<path class="st1" d="M445.2,42.4l-2.4,6.5c-0.6,1.6-1.5,2.3-2.6,2.3c-0.4,0-0.8,0-1.1-0.2v-1.5c0.2,0.1,0.5,0.2,0.8,0.2
				c0.4,0,0.9-0.3,1-0.7l0.3-0.7l-2.4-6h2l1.1,3.7c0.1,0.3,0.1,0.5,0.2,0.8l0,0c0-0.3,0.1-0.5,0.2-0.8l1.1-3.7L445.2,42.4z"/>
			<path class="st1" d="M400.9,62.1L400.9,62.1v3.5H399v-8.8h1.9v0.9l0,0c0.7-1.1,2.2-1.4,3.3-0.6c0.2,0.1,0.3,0.2,0.5,0.4
				c0.5,0.6,0.7,1.4,0.6,2.2c0,0.9-0.2,1.7-0.7,2.4c-0.5,0.6-1.2,0.9-2,0.9C401.8,63,401.2,62.6,400.9,62.1z M400.8,59.7v0.5
				c0,0.4,0.1,0.7,0.3,1c0.2,0.3,0.5,0.4,0.9,0.4c0.4,0,0.8-0.2,1-0.5c0.3-0.4,0.4-0.9,0.4-1.4c0-1-0.4-1.6-1.2-1.6
				c-0.4,0-0.7,0.2-0.9,0.4C401,58.8,400.8,59.2,400.8,59.7L400.8,59.7z"/>
			<path class="st1" d="M408.4,62.8h-1.9v-8.9h1.9V62.8z"/>
			<path class="st1" d="M414.9,62.8h-1.8V62l0,0c-0.4,0.6-1,1-1.8,1c-0.5,0-1-0.2-1.4-0.5c-0.3-0.4-0.5-0.8-0.5-1.3
				c0-1.2,0.7-1.8,2.1-2l1.6-0.2c0-0.7-0.4-1-1.1-1c-0.7,0-1.4,0.2-2,0.6v-1.4c0.3-0.2,0.7-0.3,1.1-0.3c0.4-0.1,0.8-0.2,1.2-0.2
				c1.2-0.2,2.4,0.7,2.6,1.9c0,0.2,0,0.4,0,0.6L414.9,62.8z M413.2,60.4V60l-1.1,0.1c-0.6,0.1-0.9,0.4-0.9,0.8
				c0,0.2,0.1,0.4,0.2,0.5c0.2,0.1,0.4,0.2,0.6,0.2c0.3,0,0.6-0.1,0.9-0.4C413.1,61.1,413.2,60.7,413.2,60.4z"/>
			<path class="st1" d="M419.9,62.7c-0.4,0.2-0.8,0.2-1.2,0.2c-1.3,0-2-0.7-2-2v-2.8h-1v-1.4h1v-1.3l1.9-0.5v1.8h1.3v1.4h-1.3v2.4
				c0,0.6,0.2,0.9,0.7,0.9c0.2,0,0.4-0.1,0.6-0.2L419.9,62.7z"/>
			<path class="st1" d="M425,55.3c-0.2-0.1-0.4-0.1-0.7-0.1c-0.6,0-0.9,0.3-0.9,1v0.6h1.4v1.4h-1.4v4.6h-1.9v-4.7h-1v-1.4h1v-0.7
				c0-0.6,0.2-1.2,0.7-1.7c0.5-0.4,1.2-0.7,1.8-0.6c0.3,0,0.6,0,0.9,0.1V55.3z"/>
			<path class="st1" d="M428.6,63c-0.9,0-1.7-0.3-2.4-0.8c-1.2-1.3-1.2-3.3,0-4.6c0.7-0.6,1.5-0.9,2.4-0.8c0.9-0.1,1.7,0.3,2.3,0.8
				c0.6,0.6,0.9,1.4,0.9,2.2c0,0.9-0.3,1.7-0.9,2.4C430.3,62.7,429.5,63,428.6,63z M428.7,58.1c-0.4,0-0.8,0.2-1,0.5
				c-0.3,0.4-0.4,0.8-0.4,1.3c0,1.2,0.5,1.7,1.4,1.7s1.3-0.6,1.3-1.8S429.6,58.1,428.7,58.1L428.7,58.1z"/>
			<path class="st1" d="M437,58.5c-0.2-0.1-0.5-0.2-0.8-0.2c-0.4,0-0.7,0.1-0.9,0.4c-0.2,0.4-0.4,0.8-0.3,1.2v2.9h-1.9v-6h1.9v1.1
				l0,0c0.2-0.7,0.8-1.2,1.6-1.2c0.2,0,0.3,0,0.5,0.1L437,58.5z"/>
			<path class="st1" d="M447.4,62.8h-1.9v-3.4c0-0.9-0.3-1.3-1-1.3c-0.3,0-0.6,0.1-0.7,0.4c-0.2,0.3-0.3,0.6-0.3,1v3.4h-1.8v-3.5
				c0-0.8-0.3-1.3-0.9-1.3c-0.3,0-0.6,0.1-0.8,0.4c-0.2,0.3-0.3,0.6-0.3,1v3.3h-1.9v-6h1.9v0.9l0,0c0.2-0.3,0.5-0.6,0.8-0.8
				c0.3-0.2,0.7-0.3,1.1-0.3c0.8,0,1.5,0.4,1.7,1.1c0.4-0.7,1.2-1.1,2-1.1c1.3,0,2,0.8,2,2.4L447.4,62.8z"/>
		</g>
		<g>
			<polygon class="st11" points="187.1,85.1 179.5,90.6 182.4,99.4 191.8,99.4 194.6,90.6 			"/>
			<g>
				<g>
					<path class="st12" d="M207.5,98.6h-1.1l-0.9-2.4h-3.6l-0.8,2.4H200l3.2-8.4h1L207.5,98.6z M205.2,95.3l-1.3-3.6
						c-0.1-0.2-0.1-0.4-0.1-0.6l0,0c0,0.2-0.1,0.4-0.1,0.6l-1.3,3.6H205.2z"/>
					<path class="st12" d="M212.5,98.3c-0.5,0.3-1.1,0.4-1.6,0.4c-0.8,0-1.5-0.3-2.1-0.8c-0.5-0.6-0.8-1.4-0.8-2.2
						c0-0.9,0.3-1.7,0.9-2.4c0.6-0.6,1.4-0.9,2.3-0.9c0.5,0,1,0.1,1.4,0.3v1c-0.4-0.3-0.9-0.5-1.4-0.5c-0.6,0-1.1,0.2-1.5,0.7
						c-0.4,0.5-0.6,1.1-0.6,1.7c0,0.6,0.2,1.2,0.6,1.7c0.4,0.4,0.9,0.6,1.5,0.6c0.5,0,1.1-0.2,1.5-0.5L212.5,98.3z"/>
					<path class="st12" d="M218,98.3c-0.5,0.3-1.1,0.4-1.6,0.4c-0.8,0-1.5-0.3-2.1-0.8c-0.5-0.6-0.8-1.4-0.8-2.2
						c0-0.9,0.3-1.7,0.9-2.4c0.6-0.6,1.4-0.9,2.3-0.9c0.5,0,1,0.1,1.4,0.3v1c-0.4-0.3-0.9-0.5-1.4-0.5c-0.6,0-1.1,0.2-1.5,0.7
						c-0.4,0.5-0.6,1.1-0.6,1.7c0,0.6,0.1,1.2,0.5,1.6c0.4,0.4,0.9,0.6,1.5,0.6c0.5,0,1.1-0.2,1.5-0.5L218,98.3z"/>
					<path class="st12" d="M224.1,95.8h-4.2c0,0.6,0.2,1.1,0.5,1.5c0.4,0.4,0.9,0.6,1.4,0.6c0.7,0,1.3-0.2,1.9-0.7v0.9
						c-0.6,0.4-1.3,0.6-2.1,0.6c-0.8,0-1.5-0.3-2-0.8c-1-1.4-1-3.2,0.1-4.6c0.5-0.6,1.2-0.9,2-0.9c0.7,0,1.4,0.2,1.8,0.8
						c0.5,0.6,0.7,1.4,0.6,2.1L224.1,95.8z M223.1,95c0-0.5-0.1-0.9-0.4-1.3c-0.3-0.3-0.7-0.5-1.1-0.5c-0.4,0-0.9,0.2-1.2,0.5
						c-0.3,0.3-0.5,0.8-0.6,1.3L223.1,95z"/>
					<path class="st12" d="M225.2,98.4v-1c0.5,0.4,1.1,0.6,1.7,0.6c0.8,0,1.3-0.3,1.3-0.8c0-0.1,0-0.3-0.1-0.4
						c-0.1-0.1-0.2-0.2-0.3-0.3c-0.1-0.1-0.3-0.2-0.4-0.2l-0.5-0.2c-0.3-0.1-0.5-0.2-0.7-0.3c-0.2-0.1-0.4-0.2-0.5-0.4
						c-0.1-0.1-0.2-0.3-0.3-0.5c-0.1-0.2-0.1-0.4-0.1-0.6c0-0.3,0.1-0.5,0.2-0.8c0.1-0.2,0.3-0.4,0.5-0.5c0.2-0.2,0.5-0.3,0.7-0.3
						c0.3-0.1,0.6-0.1,0.9-0.1c0.5,0,1,0.1,1.4,0.3v1c-0.5-0.3-1-0.4-1.5-0.4c-0.2,0-0.3,0-0.5,0.1c-0.1,0-0.3,0.1-0.4,0.2
						c-0.1,0.1-0.2,0.2-0.2,0.3c-0.1,0.1-0.1,0.2-0.1,0.3c0,0.1,0,0.3,0.1,0.4c0.1,0.1,0.1,0.2,0.3,0.3c0.1,0.1,0.3,0.2,0.4,0.2
						l0.5,0.2c0.3,0.1,0.5,0.2,0.7,0.3c0.2,0.1,0.4,0.2,0.5,0.4c0.1,0.1,0.3,0.3,0.4,0.5c0.1,0.2,0.1,0.4,0.1,0.6
						c0,0.3-0.1,0.5-0.2,0.8c-0.1,0.2-0.3,0.4-0.5,0.6c-0.2,0.1-0.5,0.3-0.8,0.3c-0.3,0.1-0.6,0.1-0.9,0.1
						C226.2,98.8,225.7,98.6,225.2,98.4z"/>
					<path class="st12" d="M230.3,98.4v-1c0.5,0.4,1.1,0.6,1.7,0.6c0.8,0,1.3-0.3,1.3-0.8c0-0.1,0-0.3-0.1-0.4
						c-0.1-0.1-0.2-0.2-0.3-0.3c-0.1-0.1-0.3-0.2-0.4-0.2l-0.5-0.2l-0.7-0.3c-0.2-0.1-0.4-0.2-0.5-0.4c-0.1-0.1-0.2-0.3-0.3-0.5
						c-0.1-0.2-0.1-0.4-0.1-0.6c0-0.3,0.1-0.5,0.2-0.8c0.1-0.2,0.3-0.4,0.5-0.5c0.2-0.2,0.5-0.3,0.7-0.3c0.3-0.1,0.6-0.1,0.9-0.1
						c0.5,0,1,0.1,1.4,0.3v1c-0.5-0.3-1-0.4-1.5-0.4c-0.2,0-0.3,0-0.5,0.1c-0.1,0-0.3,0.1-0.4,0.2c-0.1,0.1-0.2,0.2-0.2,0.3
						c-0.1,0.1-0.1,0.2-0.1,0.3c0,0.1,0,0.3,0.1,0.4c0.1,0.1,0.1,0.2,0.3,0.3c0.1,0.1,0.3,0.2,0.4,0.2l0.5,0.2
						c0.3,0.1,0.5,0.2,0.7,0.3c0.2,0.1,0.4,0.2,0.5,0.4c0.1,0.1,0.3,0.3,0.4,0.5c0.1,0.2,0.1,0.4,0.1,0.6c0,0.3-0.1,0.5-0.2,0.8
						c-0.1,0.2-0.3,0.4-0.5,0.6c-0.2,0.1-0.5,0.3-0.8,0.3c-0.3,0.1-0.6,0.1-0.9,0.1C231.3,98.8,230.8,98.6,230.3,98.4z"/>
					<path class="st12" d="M241.8,98.5c-0.3,0.1-0.6,0.2-0.9,0.2c-1.1,0-1.6-0.6-1.6-1.8v-3.5h-1v-0.8h1v-1.5l1-0.3v1.8h1.5v0.8
						h-1.5v3.4c0,0.3,0,0.6,0.2,0.9c0.2,0.2,0.4,0.3,0.7,0.3c0.2,0,0.4-0.1,0.6-0.2L241.8,98.5z"/>
					<path class="st12" d="M245.4,98.7c-0.8,0-1.6-0.3-2.1-0.8c-0.5-0.6-0.8-1.4-0.8-2.2c-0.1-0.9,0.2-1.7,0.8-2.4
						c0.6-0.6,1.4-0.9,2.2-0.8c0.8,0,1.6,0.3,2.1,0.8c0.5,0.6,0.8,1.5,0.8,2.3c0,0.8-0.2,1.7-0.8,2.3
						C247.1,98.4,246.3,98.8,245.4,98.7z M245.5,93.2c-0.6,0-1.1,0.2-1.5,0.6c-0.4,0.5-0.6,1.1-0.5,1.7c0,0.6,0.2,1.2,0.5,1.7
						c0.4,0.4,0.9,0.6,1.5,0.6c0.6,0,1.1-0.2,1.5-0.6c0.4-0.5,0.5-1.1,0.5-1.7c0-0.6-0.1-1.2-0.5-1.7
						C246.6,93.4,246.1,93.2,245.5,93.2z"/>
					<path class="st12" d="M254.9,98.6h-1.3l-2.6-2.9l0,0v2.9h-1v-8.9h1v5.6l0,0l2.5-2.7h1.3l-2.8,2.9L254.9,98.6z"/>
					<path class="st12" d="M260.4,95.8h-4.2c0,0.6,0.2,1.1,0.5,1.5c0.4,0.4,0.9,0.6,1.4,0.6c0.7,0,1.3-0.2,1.9-0.7v0.9
						c-0.6,0.4-1.3,0.6-2.1,0.6c-0.8,0-1.5-0.3-2-0.8c-0.5-0.7-0.8-1.5-0.7-2.3c0-0.8,0.2-1.6,0.8-2.3c0.5-0.6,1.2-0.9,2-0.9
						c0.7,0,1.4,0.2,1.8,0.8c0.5,0.6,0.7,1.4,0.6,2.1L260.4,95.8z M259.4,95c0-0.5-0.1-0.9-0.4-1.3c-0.3-0.3-0.7-0.5-1.1-0.5
						c-0.4,0-0.9,0.2-1.2,0.5c-0.3,0.4-0.5,0.8-0.6,1.3H259.4z"/>
					<path class="st12" d="M266.9,98.6h-1v-3.4c0-1.3-0.5-1.9-1.4-1.9c-0.5,0-0.9,0.2-1.2,0.6c-0.3,0.4-0.5,0.9-0.5,1.4v3.4h-1v-6h1
						v1l0,0c0.4-0.7,1.2-1.2,2-1.1c0.6,0,1.1,0.2,1.5,0.6c0.4,0.5,0.6,1.2,0.5,1.8L266.9,98.6z"/>
				</g>
				<g>
					<path class="st12" d="M207.3,84.4h-1v-3.8H202v3.8h-1V76h1v3.7h4.4V76h1L207.3,84.4z"/>
					<path class="st12" d="M214.3,76.9h-2.4v7.5h-1v-7.5h-2.4V76h5.8V76.9z"/>
					<path class="st12" d="M220.9,76.9h-2.4v7.5h-1v-7.5h-2.4V76h5.8L220.9,76.9z"/>
					<path class="st12" d="M223.1,81.2v3.2h-1V76h2.3c0.7,0,1.5,0.2,2.1,0.7c0.5,0.5,0.8,1.2,0.8,1.9c0,0.8-0.3,1.5-0.8,2
						c-0.6,0.5-1.4,0.8-2.2,0.8L223.1,81.2z M223.1,76.9v3.4h1c0.6,0,1.1-0.1,1.6-0.5c0.4-0.3,0.6-0.8,0.5-1.3c0-1.1-0.6-1.7-2-1.7
						H223.1z"/>
					<path class="st12" d="M238.4,83.8c-0.9,0.5-1.8,0.7-2.8,0.7c-1.1,0-2.1-0.4-2.9-1.2c-0.8-0.8-1.2-1.9-1.1-3.1
						c0-1.2,0.4-2.3,1.2-3.2c0.8-0.8,2-1.3,3.2-1.3c0.8,0,1.6,0.1,2.3,0.4v1.1c-0.7-0.4-1.6-0.7-2.4-0.6c-0.9,0-1.7,0.3-2.3,1
						c-0.6,0.7-0.9,1.6-0.9,2.5c-0.1,0.9,0.2,1.8,0.8,2.5c0.6,0.6,1.4,1,2.3,0.9c0.6,0,1.2-0.1,1.7-0.4v-2.4h-1.9V80h2.8L238.4,83.8
						z"/>
					<path class="st12" d="M244.8,84.4h-4.5V76h4.3v0.9h-3.3v2.8h3v0.9h-3v2.9h3.5V84.4z"/>
					<path class="st12" d="M251.4,76.9H249v7.5h-1v-7.5h-2.4V76h5.8L251.4,76.9z"/>
					<path class="st12" d="M261.8,81.3h-2.4v2.4h-0.8v-2.4h-2.4v-0.8h2.4v-2.4h0.8v2.4h2.4V81.3z"/>
				</g>
			</g>
		</g>
	</g>
</g>
<g id="bg">
	<g id="Shapes_1_">
		<rect class="st1" width="475.7" height="151.4"/>
		<rect y="0.7" class="st4" width="105" height="150"/>
		<rect x="371" y="0.7" class="st5" width="104.7" height="90"/>
		<rect x="371" y="95.7" class="st6" width="104.7" height="55"/>
		<g>
			<g>
				<path class="st7" d="M18.5,29.2c0-0.8,0.7-1.5,1.5-1.5c0,0,0,0,0,0H83c0.8,0,1.5,0.7,1.5,1.5v37.2c0,0.8-0.7,1.5-1.5,1.5H20.1
					c-0.8,0-1.5-0.7-1.5-1.5L18.5,29.2z M15.1,27.4v40.7c0,1.8,1.5,3.3,3.3,3.3c0,0,0,0,0,0h66.3c1.8,0,3.3-1.4,3.3-3.3c0,0,0,0,0,0
					V27.4c0-1.8-1.5-3.3-3.3-3.3c0,0,0,0,0,0H18.4C16.5,24.1,15.1,25.6,15.1,27.4C15.1,27.4,15.1,27.4,15.1,27.4z"/>
				<path class="st7" d="M12.4,74.9h78.3c0.5,0,0.9,0.4,0.9,0.9c0,0,0,0,0,0v2.6c0,0.5-0.4,0.9-0.9,0.9c0,0,0,0,0,0H12.4
					c-0.5,0-0.9-0.4-0.9-0.9c0,0,0,0,0,0v-2.6C11.5,75.3,11.9,74.9,12.4,74.9C12.4,74.9,12.4,74.9,12.4,74.9z"/>
				<path class="st1" d="M42.6,76.4h17.8c0.1,0,0.3,0.1,0.3,0.3v0.7c0,0.1-0.1,0.3-0.3,0.3H42.6c-0.1,0-0.3-0.1-0.3-0.3v-0.7
					C42.3,76.6,42.5,76.4,42.6,76.4z"/>
			</g>
			<g>
				<path class="st8" d="M58.4,51.5l0.7-1.6l-0.2-0.2l-1.5-1.3v-1.3l1.7-1.5l-0.7-1.7h-0.3l-2,0.1l-0.9-0.9l0.1-2.3l-1.6-0.7
					l-0.2,0.2l-1.3,1.5h-1.3l-1.5-1.7l-1.7,0.7v0.3l0.1,2l-1,0.9l-2.3-0.1L44,45.5l0.2,0.2l1.5,1.3v1.3L44,49.9l0.7,1.7h0.3l2-0.1
					l0.9,1l-0.1,2.3l1.6,0.7l0.2-0.2l1.3-1.5h1.3l1.5,1.7l1.7-0.7v-0.3l-0.1-2l1-0.9L58.4,51.5z M50.1,51.1
					c-1.9-0.8-2.7-2.9-1.9-4.8s2.9-2.7,4.8-1.9c1.9,0.8,2.7,2.9,1.9,4.8l0,0C54.1,51,52,51.9,50.1,51.1L50.1,51.1"/>
				<path class="st8" d="M51.5,65c-9.6,0-17.3-7.8-17.3-17.3s7.8-17.3,17.3-17.3s17.3,7.8,17.3,17.3c0,0,0,0,0,0
					C68.8,57.3,61.1,65,51.5,65z M51.5,34.5c-7.3,0-13.1,5.9-13.1,13.1c0,7.3,5.9,13.1,13.1,13.1c7.2,0,13.1-5.9,13.1-13.1
					C64.7,40.5,58.8,34.6,51.5,34.5C51.5,34.6,51.5,34.6,51.5,34.5L51.5,34.5z"/>
				<path class="st8" d="M51.5,65c-9.6,0-17.3-7.8-17.3-17.3s7.8-17.3,17.3-17.3s17.3,7.8,17.3,17.3c0,0,0,0,0,0
					C68.8,57.3,61.1,65,51.5,65z M51.5,34.5c-7.3,0-13.1,5.9-13.1,13.1c0,7.3,5.9,13.1,13.1,13.1c7.2,0,13.1-5.9,13.1-13.1
					C64.7,40.5,58.8,34.6,51.5,34.5C51.5,34.6,51.5,34.6,51.5,34.5L51.5,34.5z"/>
				<path class="st8" d="M51.5,65c-9.6,0-17.3-7.8-17.3-17.3s7.8-17.3,17.3-17.3s17.3,7.8,17.3,17.3c0,0,0,0,0,0
					C68.8,57.3,61.1,65,51.5,65z M51.5,34.5c-7.3,0-13.1,5.9-13.1,13.1c0,7.3,5.9,13.1,13.1,13.1c7.2,0,13.1-5.9,13.1-13.1
					C64.7,40.5,58.8,34.6,51.5,34.5C51.5,34.6,51.5,34.6,51.5,34.5L51.5,34.5z"/>
				<path class="st9" d="M51.5,65.9c-10,0-18.1-8.1-18.1-18.2s8.1-18.1,18.2-18.1c10,0,18.1,8.1,18.1,18.1
					C69.7,57.8,61.5,65.9,51.5,65.9z M51.5,30.3c-9.6,0-17.4,7.8-17.4,17.5s7.8,17.4,17.5,17.4c9.6,0,17.4-7.8,17.4-17.5
					C69,38.1,61.2,30.3,51.5,30.3C51.5,30.3,51.5,30.3,51.5,30.3z"/>
				<path class="st9" d="M51.5,65.9c-10,0-18.1-8.1-18.1-18.2s8.1-18.1,18.2-18.1c10,0,18.1,8.1,18.1,18.1
					C69.7,57.8,61.5,65.9,51.5,65.9z M51.5,30.3c-9.6,0-17.4,7.8-17.4,17.5s7.8,17.4,17.5,17.4c9.6,0,17.4-7.8,17.4-17.5
					C69,38.1,61.2,30.3,51.5,30.3C51.5,30.3,51.5,30.3,51.5,30.3z"/>
				<path class="st9" d="M51.5,66.2C41.3,66.2,33,58,33,47.7c0-10.2,8.3-18.5,18.5-18.5S70,37.5,70,47.7c0,0,0,0,0,0
					C70,57.9,61.7,66.2,51.5,66.2z M51.5,30.6c-9.4,0-17.1,7.7-17.1,17.1s7.7,17.1,17.1,17.1s17.1-7.7,17.1-17.1S61,30.6,51.5,30.6
					L51.5,30.6z"/>
			</g>
		</g>
		<g>
			<line class="st10" x1="104.9" y1="14.6" x2="365.5" y2="14.6"/>
			<polygon points="364.4,18.3 370.9,14.6 364.4,10.8 			"/>
		</g>
		<g>
			<line class="st10" x1="110.3" y1="44.5" x2="370.9" y2="44.5"/>
			<polygon points="111.4,48.2 104.9,44.5 111.4,40.7 			"/>
		</g>
		<g>
			<line class="st10" x1="104.9" y1="103.9" x2="365.5" y2="103.9"/>
			<polygon points="364.4,107.6 370.9,103.9 364.4,100.1 			"/>
		</g>
		<g>
			<line class="st10" x1="110.3" y1="140" x2="370.9" y2="140"/>
			<polygon points="111.4,143.8 105,140 111.4,136.3 			"/>
		</g>
		
			<use xlink:href="#New_Symbol_44"  width="20" height="20" x="-10" y="-10" transform="matrix(1 0 0 1 164.14 139.57)" style="overflow:visible;"/>
		
			<use xlink:href="#New_Symbol_43"  width="20" height="20" x="-10" y="-10" transform="matrix(1 0 0 1 164.14 103.88)" style="overflow:visible;"/>
		
			<use xlink:href="#New_Symbol_42"  width="20" height="20" x="-10" y="-10" transform="matrix(1 0 0 1 164.14 44.45)" style="overflow:visible;"/>
		
			<use xlink:href="#New_Symbol_41"  width="20" height="20" x="-10" y="-10" transform="matrix(1 0 0 1 164.14 14.57)" style="overflow:visible;"/>
		<polygon class="st11" points="187.1,26.6 179.5,32 182.4,40.8 191.8,40.8 194.6,32 		"/>
	</g>
	<g id="Text_1_">
		<g>
			<polygon class="st11" points="187.1,85.1 179.5,90.6 182.4,99.4 191.8,99.4 194.6,90.6 			"/>
		</g>
	</g>
</g>
<g id="txt">
	<g>
		<rect x="11.5" y="90.4" class="st13" width="80" height="53.2"/>
		<path class="st14" d="M17.2,99.4c-0.2,0-0.4-0.1-0.6-0.2s-0.2-0.3-0.2-0.6c0-0.2,0.1-0.4,0.2-0.6s0.4-0.2,0.6-0.2
			c0.2,0,0.4,0.1,0.6,0.2s0.2,0.3,0.2,0.6c0,0.2-0.1,0.4-0.2,0.6S17.5,99.4,17.2,99.4z"/>
		<path class="st14" d="M26.9,99.3h-1.5l-4-6.2c-0.1-0.2-0.2-0.3-0.3-0.5h0c0,0.2,0,0.6,0,1.2v5.5h-1.3v-8.4h1.6l3.9,6
			c0.2,0.3,0.3,0.4,0.3,0.5h0c0-0.2-0.1-0.6-0.1-1.1v-5.4h1.3V99.3z"/>
		<path class="st14" d="M33.6,99.3h-4.7v-8.4h4.5V92h-3.1v2.4h2.9v1.2h-2.9v2.5h3.3V99.3z"/>
		<path class="st14" d="M40.5,92h-2.4v7.2h-1.4V92h-2.4v-1.2h6.2V92z"/>
		<path class="st14" d="M50.9,98.9c-0.6,0.3-1.4,0.5-2.4,0.5c-1.2,0-2.2-0.4-2.9-1.2s-1.1-1.8-1.1-3c0-1.3,0.4-2.4,1.2-3.3
			s1.9-1.2,3.1-1.2c0.8,0,1.5,0.1,2,0.3v1.4c-0.6-0.3-1.2-0.5-1.9-0.5c-0.9,0-1.6,0.3-2.2,0.9S46,94.2,46,95.1
			c0,0.9,0.3,1.7,0.8,2.2s1.2,0.8,2.1,0.8c0.8,0,1.5-0.2,2.1-0.6V98.9z"/>
		<path class="st14" d="M56,99.4c-1.2,0-2.2-0.4-2.9-1.2S52,96.4,52,95.1c0-1.4,0.4-2.4,1.1-3.2s1.8-1.2,3-1.2
			c1.2,0,2.1,0.4,2.9,1.2s1.1,1.8,1.1,3.1c0,1.4-0.4,2.5-1.1,3.3S57.2,99.4,56,99.4z M56,91.9c-0.8,0-1.4,0.3-1.9,0.9
			s-0.7,1.3-0.7,2.3c0,0.9,0.2,1.7,0.7,2.3s1.1,0.9,1.8,0.9c0.8,0,1.4-0.3,1.9-0.8s0.7-1.3,0.7-2.3c0-1-0.2-1.8-0.7-2.3
			S56.8,91.9,56,91.9z"/>
		<path class="st14" d="M68.1,99.3h-1.6L65.1,97c-0.1-0.2-0.2-0.4-0.4-0.5s-0.2-0.3-0.4-0.4s-0.2-0.2-0.4-0.2s-0.3-0.1-0.5-0.1H63
			v3.4h-1.4v-8.4h2.8c0.4,0,0.8,0,1.1,0.1s0.6,0.2,0.9,0.4s0.4,0.4,0.6,0.7s0.2,0.6,0.2,1c0,0.3,0,0.6-0.1,0.8s-0.2,0.5-0.4,0.7
			S66.2,95,66,95.1s-0.5,0.2-0.8,0.3v0c0.2,0.1,0.3,0.2,0.4,0.3s0.2,0.2,0.3,0.3s0.2,0.2,0.3,0.4s0.2,0.3,0.3,0.5L68.1,99.3z M63,92
			v2.7h1.2c0.2,0,0.4,0,0.6-0.1s0.3-0.2,0.5-0.3s0.2-0.3,0.3-0.5s0.1-0.4,0.1-0.6c0-0.4-0.1-0.7-0.4-0.9S64.6,92,64.1,92H63z"/>
		<path class="st14" d="M73.8,99.3h-4.7v-8.4h4.5V92h-3.1v2.4h2.9v1.2h-2.9v2.5h3.3V99.3z"/>
		<path class="st14" d="M81.8,93.9h-3.6v-1.1h8v1.1h-3c0,1.1-0.1,1.9-0.2,2.5c-0.1,0.4-0.3,0.9-0.5,1.3c-0.3,0.5-0.7,0.9-1.1,1.3
			c-0.4,0.3-0.9,0.6-1.5,0.9l-0.9-1c1.2-0.4,2-1.1,2.4-1.9c0.2-0.4,0.3-0.8,0.4-1.2C81.7,95.4,81.8,94.8,81.8,93.9z M78.9,90.2H84
			v1.1h-5.1V90.2z M84.1,89.4l0.8-0.2c0.3,0.5,0.6,1.2,0.9,2L85,91.4C84.8,90.7,84.5,90,84.1,89.4z M85.6,89l0.8-0.2
			c0.3,0.6,0.6,1.2,0.8,1.9L86.4,91C86.1,90.2,85.9,89.6,85.6,89z"/>
		<path class="st14" d="M19.8,109.4c0.9,1.1,1.8,2.4,2.8,3.9l-1.3,0.8c-0.6-1.3-1.4-2.5-2.2-3.6c-1,1.4-2.5,2.6-4.3,3.6l-0.8-1
			c1.6-0.8,2.9-1.8,3.9-3.2c0.8-1.2,1.4-2.5,1.7-3.9h-4.9v-1.1H21l0.3,0.5C21,106.9,20.5,108.2,19.8,109.4z"/>
		<path class="st14" d="M27,106.3c-0.6,1.3-1.4,2.4-2.3,3.4l-1-0.7c1.4-1.4,2.3-3.1,2.8-4.9l1.4,0.2c-0.2,0.5-0.3,0.9-0.4,1h3.7
			l0.3,0.4c-0.4,2.6-1.2,4.6-2.4,6c-0.9,1.1-2.2,2-3.9,2.6l-0.8-1c1.7-0.7,3-1.6,3.9-2.8c0.8-1.1,1.4-2.5,1.7-4.2H27z"/>
		<path class="st14" d="M35.6,107.6c1.7,0.5,3.2,1.1,4.6,1.9l-0.7,1.3c-1.1-0.8-2.4-1.4-3.9-1.8v5.3h-1.3v-10.1h1.3V107.6z"/>
		<path class="st14" d="M41.5,107.1l1.1-0.4c0.4,0.8,0.7,1.7,1,2.8l-1.1,0.4C42.1,108.7,41.8,107.8,41.5,107.1z M42.8,113.4
			c1.5-0.6,2.6-1.4,3.2-2.5c0.6-1,0.9-2.5,1-4.5l1.3,0.3c-0.1,1.2-0.3,2.2-0.5,2.9c-0.2,0.7-0.5,1.4-0.8,1.9
			c-0.4,0.7-0.9,1.3-1.5,1.7c-0.5,0.4-1.2,0.7-2,1.1L42.8,113.4z M43.7,106.6l1.1-0.3c0.3,0.7,0.6,1.6,0.8,2.7l-1.1,0.4
			C44.3,108.1,44.1,107.2,43.7,106.6z"/>
		<path class="st14" d="M55.8,104.9c0-0.1-0.1-0.3-0.1-0.4c0-0.4,0.2-0.7,0.5-1c0.3-0.2,0.6-0.4,0.9-0.4c0.4,0,0.7,0.2,1,0.5
			c0.2,0.3,0.4,0.6,0.4,0.9c0,0.4-0.2,0.7-0.5,1c-0.3,0.2-0.6,0.4-0.9,0.4c-0.1,0-0.2,0-0.3,0c-0.1,2.5-0.7,4.5-1.7,5.8
			c-0.9,1.1-2.2,2-4,2.7l-0.7-1.1c1.8-0.6,3.1-1.5,3.9-2.7c0.7-1.1,1.1-2.6,1.2-4.5h-5.5v-1.1H55.8z M57.1,103.7
			c-0.2,0-0.4,0.1-0.6,0.3c-0.1,0.1-0.2,0.3-0.2,0.5c0,0.2,0.1,0.4,0.3,0.6c0.1,0.1,0.3,0.2,0.5,0.2c0.2,0,0.4-0.1,0.6-0.3
			c0.1-0.1,0.2-0.3,0.2-0.5c0-0.2-0.1-0.4-0.3-0.6C57.5,103.8,57.3,103.7,57.1,103.7z"/>
		<path class="st14" d="M62.6,104.7h7.9l0.3,0.4c-0.1,1-0.4,1.9-0.8,2.5c-0.3,0.6-0.8,1.2-1.4,1.7l-1-0.8c0.5-0.4,0.9-0.8,1.2-1.4
			c0.2-0.4,0.4-0.8,0.4-1.3h-6.7V104.7z M62.9,113.3c1.1-0.4,1.8-1,2.3-1.7c0.4-0.7,0.6-1.6,0.6-2.7v-2h1.4v1.8
			c0,1.6-0.3,2.9-0.9,3.8c-0.5,0.7-1.3,1.3-2.3,1.9L62.9,113.3z"/>
		<path class="st14" d="M78,104.9c0-0.1-0.1-0.3-0.1-0.4c0-0.4,0.2-0.7,0.5-1c0.3-0.2,0.6-0.4,0.9-0.4c0.4,0,0.7,0.2,1,0.5
			c0.2,0.3,0.4,0.6,0.4,0.9c0,0.4-0.2,0.7-0.5,1c-0.3,0.2-0.6,0.4-0.9,0.4c-0.1,0-0.2,0-0.3,0c-0.1,2.5-0.7,4.5-1.7,5.8
			c-0.9,1.1-2.2,2-4,2.7l-0.7-1.1c1.8-0.6,3.1-1.5,3.9-2.7c0.7-1.1,1.1-2.6,1.2-4.5h-5.5v-1.1H78z M79.3,103.7
			c-0.2,0-0.4,0.1-0.6,0.3c-0.1,0.1-0.2,0.3-0.2,0.5c0,0.2,0.1,0.4,0.3,0.6c0.1,0.1,0.3,0.2,0.5,0.2c0.2,0,0.4-0.1,0.6-0.3
			c0.1-0.1,0.2-0.3,0.2-0.5c0-0.2-0.1-0.4-0.3-0.6C79.7,103.8,79.5,103.7,79.3,103.7z"/>
		<path class="st14" d="M83.5,104.4v5.9h-1.3v-5.9H83.5z M82.8,113.2c0.9-0.2,1.7-0.4,2.2-0.7c0.6-0.3,1-0.8,1.2-1.3
			c0.2-0.6,0.4-1.3,0.4-2.3v-4.4h1.3v4.5c0,1.8-0.4,3.1-1.2,3.9c-0.7,0.7-1.7,1.2-3.2,1.5L82.8,113.2z"/>
		<path class="st14" d="M27.4,130h-1.1c-1.2-1.4-1.9-3.1-1.9-5.1c0-2,0.6-3.8,1.9-5.2h1.2c-1.2,1.5-1.8,3.2-1.8,5.2
			C25.6,126.8,26.2,128.5,27.4,130z"/>
		<path class="st14" d="M28.6,128.1c0.8-0.3,1.4-0.6,1.8-1c0.3-0.3,0.6-0.8,0.8-1.4c-0.4,0.1-1.1,0.3-1.9,0.5
			c-0.3,0.1-0.5,0.1-0.5,0.2c-0.1,0.1-0.2,0.1-0.2,0.1c-0.1,0-0.1-0.1-0.2-0.2c-0.1-0.3-0.2-0.7-0.2-1.1c0.4,0,0.8-0.1,1.1-0.1
			c0.8-0.1,1.6-0.3,2.3-0.5c0-0.2,0.1-0.6,0.1-1.1h-1.5l-1.3,0c-0.1,0-0.1,0-0.1,0c0,0,0-0.1,0-0.1v-0.9c0-0.1,0-0.1,0-0.1
			c0,0,0.1,0,0.1,0l1.3,0h1.5v-1.2h-1.7l-1.4,0c-0.1,0-0.1,0-0.1,0c0,0,0-0.1,0-0.1V120c0-0.1,0-0.1,0-0.1s0.1,0,0.1,0l1.4,0h1.7
			c0-0.8-0.1-1.4-0.1-1.8c0.5,0,0.9,0,1.3,0.1c0.1,0,0.2,0.1,0.2,0.2c0,0,0,0.1-0.1,0.3c-0.1,0.2-0.1,0.6-0.1,1.3v2
			c0,0.9,0,1.7-0.1,2.2c0.1,0,0.4-0.1,0.9-0.3c0,0.1-0.1,0.4-0.1,0.7c0,0.2,0,0.3-0.1,0.4c0,0-0.1,0.1-0.3,0.1
			c-0.1,0-0.3,0.1-0.6,0.2l-0.1,0.5c-0.2,0.8-0.6,1.4-1.1,2c-0.4,0.4-0.9,0.8-1.5,1.1c-0.1,0.1-0.2,0.1-0.3,0.1
			c-0.1,0-0.2-0.1-0.3-0.3C29.1,128.5,28.9,128.2,28.6,128.1z M34.1,118.1c0.5,0,0.9,0,1.3,0.1c0.1,0,0.2,0.1,0.2,0.1s0,0.1-0.1,0.2
			c-0.1,0.1-0.1,0.6-0.1,1.3v0.1h1.7l1.4,0c0.1,0,0.1,0,0.1,0s0,0.1,0,0.1v0.9c0,0.1,0,0.1,0,0.1s-0.1,0-0.1,0l-1.4,0h-1.7v1.4h1.5
			l1.3,0c0.1,0,0.1,0,0.1,0c0,0,0,0.1,0,0.1v0.9c0,0.1,0,0.1,0,0.1s-0.1,0-0.1,0l-1.3,0h-1.5v1.6h1.8l1.5,0c0.1,0,0.1,0,0.1,0.1v0.9
			c0,0.1,0,0.1-0.1,0.1l-1.5,0h-1.8v0.4l0,2.1c0,0.1,0,0.1,0,0.1s-0.1,0-0.1,0h-1c-0.1,0-0.1,0-0.1,0s0-0.1,0-0.1l0-2.1v-6.9
			C34.2,119.1,34.2,118.5,34.1,118.1z"/>
		<path class="st14" d="M41.5,122.2c0.6,0.6,1,1.1,1.4,1.5c0.2-0.7,0.4-1.5,0.4-2.5h-1.6l-1.5,0c-0.1,0-0.1,0-0.1,0c0,0,0-0.1,0-0.1
			v-0.9c0-0.1,0-0.1,0-0.1c0,0,0.1,0,0.1,0l1.5,0h0.6v-0.8c0-0.5,0-0.9-0.1-1.2c0.5,0,1,0,1.3,0.1c0.1,0,0.2,0,0.2,0.1
			c0,0,0,0.1-0.1,0.2c0,0.1-0.1,0.3-0.1,0.7v0.8h0.4l1.5,0c0.1,0,0.1,0,0.1,0s0,0.1,0,0.1v0.9c0,0.1,0,0.1,0,0.1c0,0-0.1,0-0.1,0
			c0,0-0.1,0-0.2,0c-0.2,0-0.3,0-0.5,0c-0.1,1.4-0.4,2.6-0.8,3.6c0.5,0.6,1,1.3,1.4,1.9c0,0,0.1,0.1,0.1,0.1c0,0,0,0.1-0.1,0.1
			l-0.7,0.7c-0.1,0.1-0.1,0.1-0.1,0.1c0,0-0.1,0-0.1-0.1c-0.3-0.5-0.6-1.1-1-1.6c-0.5,0.9-1.3,1.8-2.2,2.6c-0.1,0.1-0.2,0.2-0.3,0.2
			c-0.1,0-0.1-0.1-0.2-0.3c-0.2-0.3-0.4-0.5-0.7-0.7c0.6-0.5,1.1-0.9,1.4-1.3c0.4-0.4,0.7-0.9,1-1.6c-0.5-0.6-1.1-1.2-1.8-1.9
			c0,0-0.1-0.1-0.1-0.1c0,0,0-0.1,0.1-0.1l0.6-0.6c0,0,0.1-0.1,0.1-0.1S41.5,122.1,41.5,122.2z M46.5,122.8c0.6,0.7,1,1.4,1.4,2.2
			c0,0,0,0.1,0,0.1c0,0,0,0.1-0.1,0.1l-0.8,0.4c-0.1,0-0.1,0.1-0.1,0.1c0,0-0.1,0-0.1-0.1c-0.4-0.9-0.8-1.6-1.3-2.3
			c0,0-0.1-0.1-0.1-0.1c0,0,0-0.1,0.1-0.1l0.7-0.4c0.1,0,0.1-0.1,0.1-0.1C46.5,122.7,46.5,122.7,46.5,122.8z M46.6,127.7
			c0.3,0,0.7,0,1.1,0c0.1,0,0.2,0,0.3,0c0.2,0,0.3,0,0.4-0.1c0.1-0.1,0.1-0.2,0.1-0.3v-5.5h-1.2l-1.4,0c-0.1,0-0.1,0-0.1,0
			c0,0,0-0.1,0-0.1v-1c0-0.1,0-0.1,0-0.1s0.1,0,0.1,0l1.4,0h1.2v-0.8c0-0.7,0-1.3-0.1-1.7c0.5,0,0.9,0,1.3,0.1
			c0.1,0,0.2,0.1,0.2,0.1c0,0.1,0,0.1-0.1,0.3c-0.1,0.1-0.1,0.5-0.1,1.2v0.9l1.1,0c0.1,0,0.1,0,0.1,0s0,0.1,0,0.1v1
			c0,0.1,0,0.1,0,0.1s-0.1,0-0.1,0c0,0-0.1,0-0.1,0c-0.3,0-0.6,0-1,0v3.3l0,2.4c0,0.3,0,0.6-0.1,0.7c-0.1,0.1-0.1,0.3-0.3,0.4
			c-0.2,0.2-0.9,0.3-1.9,0.3c-0.2,0-0.3,0-0.3-0.1c0,0-0.1-0.1-0.1-0.3C46.9,128.2,46.8,127.9,46.6,127.7z"/>
		<path class="st14" d="M53.5,120.1h1.6l1.3,0c0.1,0,0.1,0,0.1,0c0,0,0,0.1,0,0.1v0.9c0,0.1,0,0.1,0,0.1c0,0-0.1,0-0.1,0l-1.3,0
			h-1.6l-1.3,0c-0.1,0-0.1,0-0.1,0c0,0,0-0.1,0-0.1v-0.9c0-0.1,0-0.1,0.1-0.1L53.5,120.1z M56.2,128.7c0,0.1,0,0.1,0,0.1
			c0,0-0.1,0-0.1,0h-0.9c-0.1,0-0.1,0-0.1,0s0-0.1,0-0.1v-0.3h-1.3v0.6c0,0.1,0,0.1-0.1,0.1h-0.9c-0.1,0-0.1,0-0.1,0c0,0,0,0,0-0.1
			l0-1.8v-0.8l0-1.1c0-0.1,0-0.1,0-0.1c0,0,0.1,0,0.1,0l1.1,0H55l1.1,0c0.1,0,0.1,0,0.1,0s0,0.1,0,0.1l0,0.9v0.9L56.2,128.7z
			 M53.9,118.5H55l1.1,0c0.1,0,0.1,0,0.1,0c0,0,0,0.1,0,0.1v0.8c0,0.1,0,0.1,0,0.1c0,0-0.1,0-0.1,0l-1.1,0h-1.2l-1.1,0
			c-0.1,0-0.1,0-0.1,0c0,0,0-0.1,0-0.1v-0.8c0-0.1,0-0.1,0-0.1s0.1,0,0.1,0L53.9,118.5z M53.9,121.8h1l1,0c0.1,0,0.1,0,0.1,0
			c0,0,0,0.1,0,0.1v0.8c0,0.1,0,0.1,0,0.1c0,0-0.1,0-0.1,0l-1,0h-1l-1,0c-0.1,0-0.1,0-0.1,0s0-0.1,0-0.1v-0.8c0-0.1,0-0.1,0-0.1
			s0.1,0,0.1,0L53.9,121.8z M53.9,123.4h1l1,0c0.1,0,0.1,0,0.1,0c0,0,0,0.1,0,0.1v0.8c0,0.1,0,0.1,0,0.1c0,0-0.1,0-0.1,0l-1,0h-1
			l-1,0c-0.1,0-0.1,0-0.1,0s0-0.1,0-0.1v-0.8c0-0.1,0-0.1,0-0.1s0.1,0,0.1,0L53.9,123.4z M55.1,126h-1.3v1.3h1.3V126z M58.3,122.8
			l-1.6,0c-0.1,0-0.1,0-0.1,0c0,0,0-0.1,0-0.1v-0.9c0-0.1,0-0.1,0.1-0.1l1.6,0h0.8v-1.6c-0.5,0.1-1.1,0.2-1.7,0.3
			c-0.1,0-0.1,0-0.2,0c-0.1,0-0.1,0-0.1-0.1c0,0,0-0.1-0.1-0.2c-0.1-0.3-0.2-0.6-0.4-0.8c1.7-0.1,3.2-0.4,4.5-0.9
			c0.2-0.1,0.4-0.2,0.6-0.3c0.3,0.3,0.5,0.6,0.7,0.9c0.1,0.1,0.1,0.1,0.1,0.2c0,0.1-0.1,0.1-0.2,0.1c-0.1,0-0.3,0-0.5,0.1
			c-0.5,0.2-1,0.3-1.5,0.5v1.9h1l1.6,0c0.1,0,0.1,0,0.1,0.1v0.9c0,0.1,0,0.1,0,0.1c0,0,0,0-0.1,0l-1.6,0h-1v1.6h0.5l1.4,0
			c0.1,0,0.1,0,0.1,0s0,0.1,0,0.1l0,1.2v1.1l0,2c0,0.1,0,0.1-0.1,0.1h-1c-0.1,0-0.1,0-0.1-0.1v-0.4h-2.9v0.5c0,0.1,0,0.1-0.1,0.1h-1
			c-0.1,0-0.1,0-0.1-0.1l0-2.1v-0.9l0-1.4c0-0.1,0-0.1,0-0.1s0.1,0,0.1,0l1.4,0h0.4v-1.6H58.3z M58.3,125.5v1.8h2.9v-1.8H58.3z"/>
		<path class="st14" d="M65.8,128.6l-1.5,0c-0.1,0-0.1,0-0.1,0c0,0,0,0,0-0.1v-0.9c0-0.1,0-0.1,0-0.1c0,0,0,0,0.1,0l1.5,0h3.1v-1.1
			h-1.6l-1.6,0c-0.1,0-0.1,0-0.1,0c0,0,0-0.1,0-0.1v-0.9c0-0.1,0-0.1,0-0.1c0,0,0.1,0,0.1,0l1.6,0h1.6c0-0.3,0-0.6,0-0.8H68
			c-0.1,0-0.1,0-0.1,0c0,0,0-0.1,0-0.1l0-1.3V122h-1.1c-0.1,0.4-0.2,0.8-0.3,1.1c-0.2,0.6-0.6,1.1-1.2,1.6c-0.1,0.1-0.2,0.2-0.3,0.2
			s-0.1-0.1-0.3-0.2c-0.2-0.2-0.5-0.4-0.7-0.6c0.7-0.4,1.1-0.9,1.3-1.4c0.1-0.2,0.1-0.4,0.2-0.7c-0.4,0-0.7,0-1,0l-0.3,0
			c-0.1,0-0.1,0-0.1,0c0,0,0-0.1,0-0.1v-0.8c0-0.1,0-0.1,0-0.1s0.1,0,0.1,0l1.4,0c0-0.3,0-0.6,0-0.8v-0.6c-0.3,0-0.6,0-0.8,0
			c-0.2,0-0.3,0-0.3,0c-0.1,0-0.1,0-0.1,0c0,0,0-0.1,0-0.1v-0.8c0-0.1,0-0.1,0-0.1c0,0,0,0,0.1,0l1.5,0h2.3l1.5,0c0.1,0,0.1,0,0.1,0
			s0,0.1,0,0.1v0.8c0,0.1,0,0.1,0,0.1s-0.1,0-0.1,0c0,0-0.1,0-0.3,0c-0.2,0-0.4,0-0.6,0v1.4l1.1,0c0.1,0,0.1,0,0.1,0
			c0,0,0,0.1,0,0.1v0.8c0,0.1,0,0.1,0,0.1c0,0-0.1,0-0.1,0c0,0-0.1,0-0.1,0c-0.3,0-0.6,0-1,0v0.9c0,0.6,0,1,0,1.1
			c0.3,0,0.6,0,0.9,0.1c0.1,0,0.2,0.1,0.2,0.1c0,0.1,0,0.2-0.1,0.3c0,0.1-0.1,0.4-0.1,0.7h1.8l1.7,0c0.1,0,0.1,0,0.1,0
			c0,0,0,0.1,0,0.1v0.9c0,0.1,0,0.1,0,0.1s0,0-0.1,0l-1.7,0h-1.8v1.1h3.2l1.5,0c0.1,0,0.1,0,0.1,0c0,0,0,0,0,0.1v0.9
			c0,0.1,0,0.1,0,0.1s0,0-0.1,0l-1.5,0H65.8z M66.9,120.9h1v-1.4h-1v0.8C66.9,120.6,66.9,120.8,66.9,120.9z M70.7,118.6
			c0.3,0,0.7,0,1.1,0.1c0.1,0,0.2,0.1,0.2,0.1s0,0.1,0,0.2c0,0.1-0.1,0.4-0.1,0.8v1.5l0,1.1c0,0.1,0,0.1,0,0.1c0,0-0.1,0-0.1,0h-0.9
			c-0.1,0-0.1,0-0.1,0s0-0.1,0-0.1l0-1.1v-1.5C70.8,119.4,70.7,119,70.7,118.6z M71.7,123.3c0.4,0.1,0.7,0.1,1,0.1
			c0.2,0,0.3,0,0.4-0.1c0.1-0.1,0.1-0.2,0.1-0.3v-3.4c0-0.7,0-1.2-0.1-1.5c0.4,0,0.8,0,1.2,0.1c0.1,0,0.2,0.1,0.2,0.1s0,0.2-0.1,0.3
			c-0.1,0.1-0.1,0.5-0.1,1v2.3l0,1.6c0,0.4-0.1,0.6-0.4,0.8c-0.2,0.2-0.8,0.2-1.6,0.2c-0.2,0-0.3,0-0.3-0.1c0,0-0.1-0.1-0.1-0.3
			C71.9,123.9,71.8,123.6,71.7,123.3z"/>
		<path class="st14" d="M76.8,130h-1.1c1.2-1.5,1.8-3.2,1.8-5.1c0-2-0.6-3.7-1.8-5.2h1.2c1.2,1.4,1.9,3.2,1.9,5.2
			C78.6,126.9,78,128.6,76.8,130z"/>
	</g>
	<g>
		<g>
			<path class="st15" d="M207.3,84.8h-1V81H202v3.8h-1v-8.4h1v3.7h4.3v-3.7h1V84.8z"/>
			<path class="st15" d="M214.4,77.3H212v7.5h-1v-7.5h-2.4v-0.9h5.8V77.3z"/>
			<path class="st15" d="M220.6,77.3h-2.4v7.5h-1v-7.5h-2.4v-0.9h5.8V77.3z"/>
			<path class="st15" d="M222.9,81.6v3.2h-1v-8.4h2.3c0.9,0,1.6,0.2,2.1,0.7s0.7,1.1,0.7,1.9s-0.3,1.4-0.8,2s-1.3,0.8-2.2,0.8H222.9
				z M222.9,77.3v3.4h1c0.7,0,1.2-0.2,1.6-0.5s0.5-0.7,0.5-1.3c0-1.1-0.7-1.7-2-1.7H222.9z"/>
			<path class="st15" d="M238,84.2c-0.8,0.5-1.8,0.7-2.8,0.7c-1.2,0-2.2-0.4-2.9-1.2s-1.1-1.8-1.1-3.1c0-1.3,0.4-2.4,1.2-3.2
				s1.9-1.3,3.1-1.3c0.9,0,1.7,0.1,2.3,0.4v1.1c-0.7-0.4-1.5-0.6-2.4-0.6c-0.9,0-1.7,0.3-2.3,1s-0.9,1.5-0.9,2.5
				c0,1.1,0.3,1.9,0.8,2.5s1.3,0.9,2.3,0.9c0.7,0,1.2-0.1,1.7-0.4v-2.4h-1.8v-0.9h2.8V84.2z"/>
			<path class="st15" d="M244.4,84.8h-4.5v-8.4h4.3v0.9h-3.3v2.8h3V81h-3v2.9h3.5V84.8z"/>
			<path class="st15" d="M250.9,77.3h-2.4v7.5h-1v-7.5H245v-0.9h5.8V77.3z"/>
			<path class="st15" d="M261.1,81.7h-2.4v2.4h-0.8v-2.4h-2.4v-0.8h2.4v-2.4h0.8v2.4h2.4V81.7z"/>
			<path class="st15" d="M266.4,75.9h7.8c-0.1,1.1-0.4,2-0.7,2.7c-0.3,0.7-0.8,1.3-1.4,1.8l-0.7-0.6c0.5-0.4,0.9-0.9,1.3-1.5
				c0.3-0.5,0.5-1,0.5-1.6h-6.7V75.9z M266.8,84.6c1-0.5,1.8-1.1,2.2-1.8c0.4-0.8,0.7-1.8,0.7-3.2v-1.9h0.9v1.9c0,1.6-0.3,2.9-1,3.8
				c-0.5,0.7-1.2,1.3-2.2,1.8L266.8,84.6z"/>
			<path class="st15" d="M278.4,77.2c-0.6,1.3-1.3,2.5-2.2,3.5l-0.7-0.5c1.3-1.4,2.1-3,2.6-5l0.9,0.1c-0.1,0.3-0.2,0.7-0.3,1.1h4.2
				c-0.4,2.8-1.1,4.9-2.3,6.3c-0.9,1.1-2.2,2-3.8,2.7l-0.5-0.6c1.7-0.7,3-1.6,3.8-2.8c0.8-1.2,1.4-2.7,1.7-4.7H278.4z"/>
			<path class="st15" d="M286.6,78v-2.8h0.9v2.6l4.6-1l0.5,0.6c-0.6,1.8-1.5,3.3-2.5,4.5l-0.8-0.5c1.1-1.3,1.8-2.5,2.2-3.7l-4,0.9
				V83c0,0.5,0.1,0.9,0.4,1c0.2,0.1,0.7,0.2,1.5,0.2c0.9,0,1.8,0,2.8-0.1v0.9c-0.9,0.1-1.8,0.1-3,0.1c-1.1,0-1.8-0.2-2.2-0.5
				c-0.3-0.3-0.4-0.8-0.4-1.5v-4.1l-2,0.5l-0.2-0.8L286.6,78z"/>
			<path class="st15" d="M298.8,81.4c-1,1.6-2.5,2.9-4.3,3.8l-0.5-0.7c1.7-0.9,3-2,3.9-3.4c0.8-1.2,1.4-2.6,1.8-4.3h-5V76h6.2
				c-0.4,1.8-0.9,3.3-1.6,4.6c1.1,1.3,2,2.6,2.8,4l-0.9,0.6C300.5,83.9,299.7,82.6,298.8,81.4z"/>
			<path class="st15" d="M203,93.8v5.7H202V89.4h0.9v3.5c1.9,0.5,3.4,1.2,4.6,1.9l-0.5,0.9C206,94.9,204.6,94.3,203,93.8z"/>
			<path class="st15" d="M208.7,94.1h6.5V95h-6.5V94.1z"/>
			<path class="st15" d="M219.4,91.4c-0.6,1.3-1.3,2.5-2.2,3.5l-0.7-0.5c1.3-1.4,2.1-3,2.6-5l0.9,0.1c-0.1,0.3-0.2,0.7-0.3,1.1h4.2
				c-0.4,2.8-1.1,4.9-2.3,6.3c-0.9,1.1-2.2,2-3.8,2.7l-0.5-0.6c1.7-0.7,3-1.6,3.8-2.8c0.8-1.2,1.4-2.7,1.7-4.7H219.4z"/>
			<path class="st15" d="M226,90.5c1.1,0.6,2.1,1.2,2.8,1.8l-0.6,0.8c-0.7-0.6-1.6-1.2-2.8-1.9L226,90.5z M232.1,91.1l0.9,0.4
				c-0.4,2.1-1.1,3.7-2.2,5c-1.2,1.3-2.8,2.2-4.8,2.8l-0.4-0.8C229.3,97.5,231.5,95.1,232.1,91.1z"/>
		</g>
	</g>
	<g>
		<rect x="386.3" y="32" class="st13" width="71.7" height="26.3"/>
		<path class="st16" d="M398.3,40.9H397v-5.4c0-0.4,0-1,0.1-1.6h0c-0.1,0.4-0.2,0.6-0.2,0.8l-2.5,6.3h-1l-2.5-6.2
			c-0.1-0.2-0.1-0.5-0.2-0.8h0c0,0.3,0,0.9,0,1.6v5.4h-1.3v-8.4h2l2.2,5.6c0.2,0.4,0.3,0.8,0.3,1h0c0.1-0.4,0.3-0.8,0.4-1l2.3-5.6
			h1.9V40.9z"/>
		<path class="st16" d="M400.9,33.6c-0.2,0-0.4-0.1-0.6-0.2s-0.2-0.3-0.2-0.6s0.1-0.4,0.2-0.6s0.3-0.2,0.6-0.2
			c0.2,0,0.4,0.1,0.6,0.2s0.2,0.3,0.2,0.6c0,0.2-0.1,0.4-0.2,0.5S401.2,33.6,400.9,33.6z M401.6,40.9h-1.4v-6h1.4V40.9z"/>
		<path class="st16" d="M407.7,40.6c-0.5,0.3-1,0.4-1.7,0.4c-0.9,0-1.6-0.3-2.2-0.8S403,38.9,403,38c0-1,0.3-1.8,0.9-2.4
			s1.4-0.9,2.4-0.9c0.5,0,1,0.1,1.4,0.3v1.3c-0.4-0.3-0.9-0.5-1.3-0.5c-0.6,0-1,0.2-1.4,0.6s-0.6,0.9-0.6,1.5c0,0.6,0.2,1.1,0.5,1.5
			s0.8,0.5,1.4,0.5c0.5,0,0.9-0.2,1.4-0.5V40.6z"/>
		<path class="st16" d="M412.5,36.2c-0.2-0.1-0.4-0.2-0.7-0.2c-0.4,0-0.7,0.2-1,0.5s-0.4,0.9-0.4,1.5v2.9H409v-6h1.4v1.2h0
			c0.1-0.4,0.3-0.8,0.6-1s0.6-0.4,0.9-0.4c0.2,0,0.4,0,0.6,0.1V36.2z"/>
		<path class="st16" d="M416.1,41c-0.9,0-1.7-0.3-2.2-0.8s-0.8-1.3-0.8-2.2c0-1,0.3-1.8,0.9-2.4s1.4-0.8,2.3-0.8
			c0.9,0,1.7,0.3,2.2,0.8s0.8,1.3,0.8,2.3c0,1-0.3,1.7-0.8,2.3S417.1,41,416.1,41z M416.2,35.8c-0.5,0-1,0.2-1.3,0.6
			s-0.5,0.9-0.5,1.5c0,0.6,0.2,1.1,0.5,1.5s0.7,0.5,1.3,0.5c0.5,0,0.9-0.2,1.2-0.5s0.4-0.9,0.4-1.5c0-0.7-0.1-1.2-0.4-1.5
			S416.7,35.8,416.2,35.8z"/>
		<path class="st16" d="M420.3,40.7v-1.3c0.5,0.4,1.1,0.6,1.7,0.6c0.8,0,1.2-0.2,1.2-0.7c0-0.1,0-0.3-0.1-0.3s-0.2-0.2-0.3-0.3
			s-0.3-0.1-0.4-0.2s-0.3-0.1-0.5-0.2c-0.2-0.1-0.5-0.2-0.7-0.3s-0.4-0.2-0.5-0.4s-0.2-0.3-0.3-0.5s-0.1-0.4-0.1-0.6
			c0-0.3,0.1-0.5,0.2-0.8s0.3-0.4,0.6-0.6s0.5-0.3,0.8-0.3s0.6-0.1,0.9-0.1c0.6,0,1.1,0.1,1.5,0.3v1.2c-0.4-0.3-0.9-0.4-1.5-0.4
			c-0.2,0-0.3,0-0.5,0.1s-0.3,0.1-0.4,0.1s-0.2,0.1-0.2,0.2s-0.1,0.2-0.1,0.3c0,0.1,0,0.2,0.1,0.3s0.1,0.2,0.2,0.2s0.2,0.1,0.4,0.2
			s0.3,0.1,0.5,0.2c0.3,0.1,0.5,0.2,0.7,0.3s0.4,0.2,0.5,0.4s0.3,0.3,0.3,0.5s0.1,0.4,0.1,0.6c0,0.3-0.1,0.6-0.2,0.8
			s-0.3,0.4-0.6,0.6s-0.5,0.3-0.8,0.3s-0.6,0.1-1,0.1C421.3,41,420.7,40.9,420.3,40.7z"/>
		<path class="st16" d="M428.5,41c-0.9,0-1.7-0.3-2.2-0.8s-0.8-1.3-0.8-2.2c0-1,0.3-1.8,0.9-2.4s1.4-0.8,2.3-0.8
			c0.9,0,1.7,0.3,2.2,0.8s0.8,1.3,0.8,2.3c0,1-0.3,1.7-0.8,2.3S429.4,41,428.5,41z M428.5,35.8c-0.5,0-1,0.2-1.3,0.6
			s-0.5,0.9-0.5,1.5c0,0.6,0.2,1.1,0.5,1.5s0.7,0.5,1.3,0.5c0.5,0,0.9-0.2,1.2-0.5s0.4-0.9,0.4-1.5c0-0.7-0.1-1.2-0.4-1.5
			S429.1,35.8,428.5,35.8z"/>
		<path class="st16" d="M436.4,33.1c-0.2-0.1-0.4-0.2-0.6-0.2c-0.7,0-1,0.4-1,1.1v0.8h1.4V36h-1.4v4.9h-1.4V36h-1v-1.1h1v-1
			c0-0.6,0.2-1.1,0.6-1.5s0.9-0.5,1.6-0.5c0.3,0,0.6,0,0.8,0.1V33.1z"/>
		<path class="st16" d="M440.3,40.8c-0.3,0.1-0.6,0.2-1,0.2c-1.2,0-1.7-0.6-1.7-1.7V36h-1v-1.1h1v-1.4l1.4-0.4v1.8h1.4V36h-1.4v3
			c0,0.4,0.1,0.6,0.2,0.8s0.3,0.2,0.6,0.2c0.2,0,0.4-0.1,0.6-0.2V40.8z"/>
		<path class="st16" d="M446.3,40.9h-1.4v-8.4h1.4V40.9z"/>
		<path class="st16" d="M448.4,40.9v-8.4h2.4c3.1,0,4.6,1.4,4.6,4.1c0,1.3-0.4,2.3-1.3,3.1s-2,1.2-3.5,1.2H448.4z M449.8,33.7v6h1.1
			c1,0,1.7-0.3,2.3-0.8s0.8-1.3,0.8-2.3c0-2-1-2.9-3.1-2.9H449.8z"/>
		<path class="st16" d="M394.3,46.6c0-0.1-0.1-0.3-0.1-0.4c0-0.4,0.2-0.7,0.5-1c0.3-0.2,0.6-0.4,0.9-0.4c0.4,0,0.7,0.2,1,0.5
			c0.2,0.3,0.4,0.6,0.4,0.9c0,0.4-0.2,0.7-0.5,1c-0.3,0.2-0.6,0.4-0.9,0.4c-0.1,0-0.2,0-0.3,0c-0.1,2.5-0.7,4.5-1.7,5.8
			c-0.9,1.1-2.2,2-4,2.7l-0.7-1.1c1.8-0.6,3.1-1.5,3.9-2.7c0.7-1.1,1.1-2.6,1.2-4.5h-5.5v-1.1H394.3z M395.6,45.3
			c-0.2,0-0.4,0.1-0.6,0.3c-0.1,0.1-0.2,0.3-0.2,0.5c0,0.2,0.1,0.4,0.3,0.6c0.1,0.1,0.3,0.2,0.5,0.2c0.2,0,0.4-0.1,0.6-0.3
			c0.1-0.1,0.2-0.3,0.2-0.5c0-0.2-0.1-0.4-0.3-0.6C396,45.4,395.8,45.3,395.6,45.3z"/>
		<path class="st16" d="M397.7,48.7h7.1c-0.1,2.4-0.7,4.2-1.7,5.3c-0.8,0.9-2.1,1.5-3.8,2l-0.6-1c1.7-0.4,2.9-1.1,3.6-2
			c0.7-0.8,1-1.8,1.1-3.2h-5.7V48.7z M398.4,46.2h5.7v1.1h-5.7V46.2z"/>
		<path class="st16" d="M406.2,48.7l1.1-0.4c0.4,0.8,0.7,1.7,1,2.8l-1.1,0.4C406.9,50.4,406.6,49.5,406.2,48.7z M407.5,55.1
			c1.5-0.6,2.6-1.4,3.2-2.5c0.6-1,0.9-2.5,1-4.5l1.3,0.3c-0.1,1.2-0.3,2.2-0.5,2.9c-0.2,0.7-0.5,1.4-0.8,1.9
			c-0.4,0.7-0.9,1.3-1.5,1.7c-0.5,0.4-1.2,0.7-2,1.1L407.5,55.1z M408.5,48.2l1.1-0.3c0.3,0.7,0.6,1.6,0.8,2.7l-1.1,0.4
			C409.1,49.8,408.8,48.9,408.5,48.2z"/>
		<path class="st16" d="M417.2,49.2c1.7,0.5,3.2,1.1,4.6,1.9l-0.7,1.3c-1.1-0.8-2.4-1.4-3.9-1.8v5.3h-1.3V45.7h1.3V49.2z"/>
		<path class="st16" d="M423.1,46.4h6.9c0,1.9-0.2,3.5-0.6,4.7c-0.4,1.2-1,2.2-1.9,2.9c-0.8,0.7-1.9,1.3-3.3,1.8l-0.7-1.1
			c1.8-0.6,3.1-1.5,3.9-2.7c0.7-1.1,1.1-2.6,1.2-4.5h-5.5V46.4z"/>
		<path class="st16" d="M435.6,50.9l-0.5,0.9c-0.7,1.2-1.7,2.3-3.1,3.3l-0.8-1c0.8-0.5,1.5-1.1,2.2-1.9c0.6-0.7,1-1.4,1.4-2.1h-3.2
			v-1.1h3.7l-0.1-1.6h1.2l0.1,1.6h1.8v1.1h-1.8l0.2,5.6h-1.2l-0.1-3.8L435.6,50.9z"/>
		<path class="st16" d="M439.8,50.1h6.8v1.3h-6.8V50.1z"/>
		<path class="st16" d="M454.1,53.5c-0.4-1-0.9-2-1.4-3l1.1-0.4c0.9,1.5,1.7,3.2,2.4,5.2l-1.3,0.6c-0.1-0.5-0.3-0.9-0.4-1.3
			c-1.7,0.3-4,0.6-6.6,0.9l-0.3-1.3c0.4,0,0.7-0.1,0.8-0.1c0.9-2.5,1.7-5.2,2.4-8.2l1.3,0.4c-0.7,2.5-1.5,5.1-2.4,7.7
			C451.3,53.8,452.8,53.7,454.1,53.5z"/>
	</g>
	<g>
		<rect x="389.3" y="109.2" class="st13" width="64.5" height="30.5"/>
		<path class="st17" d="M405.5,118.1h-1.4v-5.4c0-0.4,0-1,0.1-1.6h0c-0.1,0.4-0.2,0.6-0.2,0.8l-2.5,6.3h-1l-2.5-6.2
			c-0.1-0.2-0.1-0.5-0.2-0.8h0c0,0.3,0,0.9,0,1.6v5.4h-1.3v-8.4h2l2.2,5.6c0.2,0.4,0.3,0.8,0.3,1h0c0.1-0.4,0.3-0.8,0.4-1l2.3-5.6
			h1.9V118.1z"/>
		<path class="st17" d="M408.1,110.8c-0.2,0-0.4-0.1-0.6-0.2s-0.2-0.3-0.2-0.6s0.1-0.4,0.2-0.6s0.3-0.2,0.6-0.2
			c0.2,0,0.4,0.1,0.6,0.2s0.2,0.3,0.2,0.6c0,0.2-0.1,0.4-0.2,0.5S408.3,110.8,408.1,110.8z M408.8,118.1h-1.4v-6h1.4V118.1z"/>
		<path class="st17" d="M414.8,117.8c-0.5,0.3-1,0.4-1.7,0.4c-0.9,0-1.6-0.3-2.2-0.8s-0.8-1.3-0.8-2.2c0-1,0.3-1.8,0.9-2.4
			s1.4-0.9,2.4-0.9c0.5,0,1,0.1,1.4,0.3v1.3c-0.4-0.3-0.9-0.5-1.3-0.5c-0.6,0-1,0.2-1.4,0.6s-0.6,0.9-0.6,1.5c0,0.6,0.2,1.1,0.5,1.5
			s0.8,0.5,1.4,0.5c0.5,0,0.9-0.2,1.4-0.5V117.8z"/>
		<path class="st17" d="M419.7,113.4c-0.2-0.1-0.4-0.2-0.7-0.2c-0.4,0-0.7,0.2-1,0.5s-0.4,0.9-0.4,1.5v2.9h-1.4v-6h1.4v1.2h0
			c0.1-0.4,0.3-0.8,0.6-1s0.6-0.4,0.9-0.4c0.2,0,0.4,0,0.6,0.1V113.4z"/>
		<path class="st17" d="M423.3,118.2c-0.9,0-1.7-0.3-2.2-0.8s-0.8-1.3-0.8-2.2c0-1,0.3-1.8,0.9-2.4s1.4-0.8,2.3-0.8
			c0.9,0,1.7,0.3,2.2,0.8s0.8,1.3,0.8,2.3c0,1-0.3,1.7-0.8,2.3S424.2,118.2,423.3,118.2z M423.4,113c-0.5,0-1,0.2-1.3,0.6
			s-0.5,0.9-0.5,1.5c0,0.6,0.2,1.1,0.5,1.5s0.7,0.5,1.3,0.5c0.5,0,0.9-0.2,1.2-0.5s0.4-0.9,0.4-1.5c0-0.7-0.1-1.2-0.4-1.5
			S423.9,113,423.4,113z"/>
		<path class="st17" d="M427.4,117.9v-1.3c0.5,0.4,1.1,0.6,1.7,0.6c0.8,0,1.2-0.2,1.2-0.7c0-0.1,0-0.3-0.1-0.3s-0.2-0.2-0.3-0.3
			s-0.3-0.1-0.4-0.2s-0.3-0.1-0.5-0.2c-0.2-0.1-0.5-0.2-0.7-0.3s-0.4-0.2-0.5-0.4s-0.2-0.3-0.3-0.5s-0.1-0.4-0.1-0.6
			c0-0.3,0.1-0.5,0.2-0.8s0.3-0.4,0.6-0.6s0.5-0.3,0.8-0.3s0.6-0.1,0.9-0.1c0.6,0,1.1,0.1,1.5,0.3v1.2c-0.4-0.3-0.9-0.4-1.5-0.4
			c-0.2,0-0.3,0-0.5,0.1s-0.3,0.1-0.4,0.1s-0.2,0.1-0.2,0.2s-0.1,0.2-0.1,0.3c0,0.1,0,0.2,0.1,0.3s0.1,0.2,0.2,0.2s0.2,0.1,0.4,0.2
			s0.3,0.1,0.5,0.2c0.3,0.1,0.5,0.2,0.7,0.3s0.4,0.2,0.5,0.4s0.3,0.3,0.3,0.5s0.1,0.4,0.1,0.6c0,0.3-0.1,0.6-0.2,0.8
			s-0.3,0.4-0.6,0.6s-0.5,0.3-0.8,0.3s-0.6,0.1-1,0.1C428.5,118.2,427.9,118.1,427.4,117.9z"/>
		<path class="st17" d="M435.6,118.2c-0.9,0-1.7-0.3-2.2-0.8s-0.8-1.3-0.8-2.2c0-1,0.3-1.8,0.9-2.4s1.4-0.8,2.3-0.8
			c0.9,0,1.7,0.3,2.2,0.8s0.8,1.3,0.8,2.3c0,1-0.3,1.7-0.8,2.3S436.6,118.2,435.6,118.2z M435.7,113c-0.5,0-1,0.2-1.3,0.6
			s-0.5,0.9-0.5,1.5c0,0.6,0.2,1.1,0.5,1.5s0.7,0.5,1.3,0.5c0.5,0,0.9-0.2,1.2-0.5s0.4-0.9,0.4-1.5c0-0.7-0.1-1.2-0.4-1.5
			S436.2,113,435.7,113z"/>
		<path class="st17" d="M443.5,110.3c-0.2-0.1-0.4-0.2-0.6-0.2c-0.7,0-1,0.4-1,1.1v0.8h1.4v1.1h-1.4v4.9h-1.4v-4.9h-1v-1.1h1v-1
			c0-0.6,0.2-1.1,0.6-1.5s0.9-0.5,1.6-0.5c0.3,0,0.6,0,0.8,0.1V110.3z"/>
		<path class="st17" d="M447.4,118c-0.3,0.1-0.6,0.2-1,0.2c-1.2,0-1.7-0.6-1.7-1.7v-3.4h-1v-1.1h1v-1.4l1.4-0.4v1.8h1.4v1.1H446v3
			c0,0.4,0.1,0.6,0.2,0.8s0.3,0.2,0.6,0.2c0.2,0,0.4-0.1,0.6-0.2V118z"/>
		<path class="st17" d="M401.6,132c-0.9,0.5-1.8,0.7-2.9,0.7c-1.2,0-2.2-0.4-3-1.2s-1.2-1.8-1.2-3.1c0-1.3,0.4-2.4,1.3-3.2
			s1.9-1.3,3.2-1.3c0.9,0,1.7,0.1,2.4,0.4v1.4c-0.6-0.4-1.4-0.6-2.3-0.6c-0.9,0-1.6,0.3-2.2,0.9s-0.9,1.4-0.9,2.3
			c0,1,0.2,1.7,0.7,2.3s1.2,0.8,2,0.8c0.6,0,1.1-0.1,1.5-0.3v-2h-1.8V128h3.2V132z"/>
		<path class="st17" d="M406.7,127.9c-0.2-0.1-0.4-0.2-0.7-0.2c-0.4,0-0.7,0.2-1,0.5s-0.4,0.9-0.4,1.5v2.9h-1.4v-6h1.4v1.2h0
			c0.1-0.4,0.3-0.8,0.6-1s0.6-0.4,0.9-0.4c0.2,0,0.4,0,0.6,0.1V127.9z"/>
		<path class="st17" d="M412.3,132.6H411v-0.9h0c-0.4,0.7-1,1.1-1.8,1.1c-0.6,0-1.1-0.2-1.4-0.5s-0.5-0.7-0.5-1.3c0-1.1,0.7-1.8,2-2
			l1.8-0.3c0-0.9-0.4-1.3-1.2-1.3c-0.7,0-1.4,0.2-1.9,0.7V127c0.6-0.4,1.4-0.6,2.2-0.6c1.5,0,2.3,0.7,2.3,2.2V132.6z M411,129.6
			l-1.3,0.2c-0.4,0.1-0.7,0.1-0.9,0.3s-0.3,0.4-0.3,0.7c0,0.3,0.1,0.5,0.3,0.6s0.4,0.2,0.7,0.2c0.4,0,0.8-0.1,1-0.4s0.4-0.7,0.4-1.1
			V129.6z"/>
		<path class="st17" d="M415.3,131.7L415.3,131.7l0,3.6H414v-8.8h1.4v1.1h0c0.5-0.8,1.1-1.2,2-1.2c0.8,0,1.4,0.3,1.8,0.8
			s0.6,1.3,0.6,2.2c0,1-0.2,1.8-0.7,2.4s-1.1,0.9-2,0.9C416.4,132.7,415.8,132.3,415.3,131.7z M415.3,129.3v0.7
			c0,0.4,0.1,0.8,0.4,1.1s0.6,0.5,1.1,0.5c0.5,0,0.9-0.2,1.2-0.6s0.4-0.9,0.4-1.6c0-0.6-0.1-1.1-0.4-1.4s-0.6-0.5-1.1-0.5
			c-0.5,0-0.9,0.2-1.2,0.5S415.3,128.8,415.3,129.3z"/>
		<path class="st17" d="M426.5,132.6h-1.4v-3.3c0-1.2-0.4-1.8-1.2-1.8c-0.4,0-0.7,0.2-1,0.5s-0.4,0.8-0.4,1.3v3.2h-1.4v-8.9h1.4v3.9
			h0c0.5-0.8,1.1-1.1,1.9-1.1c1.3,0,2,0.8,2,2.4V132.6z"/>
		<path class="st17" d="M438.5,132.6H437l-0.8-2.1h-3.3l-0.7,2.1h-1.5l3.1-8.4h1.6L438.5,132.6z M435.9,129.3l-1.2-3.4
			c0-0.1-0.1-0.3-0.1-0.5h0c0,0.2-0.1,0.4-0.1,0.5l-1.2,3.4H435.9z"/>
		<path class="st17" d="M441.1,129.5v3h-1.4v-8.4h2.5c1,0,1.7,0.2,2.2,0.7s0.8,1.1,0.8,1.9s-0.3,1.5-0.8,2s-1.3,0.8-2.3,0.8H441.1z
			 M441.1,125.3v3.1h0.9c0.6,0,1.1-0.1,1.4-0.4s0.5-0.7,0.5-1.2c0-1-0.6-1.5-1.7-1.5H441.1z"/>
		<path class="st17" d="M448.1,132.6h-1.4v-8.4h1.4V132.6z"/>
	</g>
	<g>
		<path class="st15" d="M182.3,4.7v5.7h-0.9V0.3h0.9v3.5c1.9,0.5,3.4,1.2,4.6,1.9l-0.5,0.9C185.3,5.8,184,5.2,182.3,4.7z"/>
		<path class="st15" d="M188,5h6.5v0.9H188V5z"/>
		<path class="st15" d="M198.6,2.3c-0.6,1.3-1.3,2.5-2.2,3.5l-0.7-0.5c1.3-1.4,2.1-3,2.6-5l0.9,0.1c-0.1,0.3-0.2,0.7-0.3,1.1h4.2
			c-0.4,2.8-1.1,4.9-2.3,6.3c-0.9,1.1-2.2,2-3.8,2.7l-0.5-0.6c1.7-0.7,3-1.6,3.8-2.8c0.8-1.2,1.4-2.7,1.7-4.7H198.6z"/>
		<path class="st15" d="M205.3,1.4c1.1,0.6,2.1,1.2,2.8,1.8l-0.6,0.8c-0.7-0.6-1.6-1.2-2.8-1.9L205.3,1.4z M211.3,2l0.9,0.4
			c-0.4,2.1-1.1,3.7-2.2,5c-1.2,1.3-2.8,2.2-4.8,2.8l-0.4-0.8C208.6,8.4,210.7,5.9,211.3,2z"/>
		<path class="st15" d="M218.3,2.1c-0.2,2.7-0.6,4.8-1.3,6.3c-0.4,0.8-0.9,1.3-1.6,1.3c-0.6,0-1.1-0.3-1.4-0.9
			c-0.3-0.6-0.5-1.4-0.5-2.4c0-0.8,0.1-1.6,0.4-2.2c0.2-0.6,0.5-1.1,0.9-1.5c0.4-0.4,0.9-0.7,1.5-1c0.5-0.2,1.1-0.3,1.7-0.3
			c1.4,0,2.4,0.4,3,1.3c0.6,0.8,0.8,1.8,0.8,3.3c0,1.2-0.3,2.1-1,2.9c-0.6,0.8-1.6,1.3-2.8,1.5l-0.4-0.7c2.2-0.4,3.3-1.7,3.3-3.9
			c0-1.3-0.3-2.2-0.9-2.8C219.6,2.3,219,2.1,218.3,2.1z M217.4,2.2c-0.4,0-0.8,0.2-1.1,0.3c-0.3,0.2-0.6,0.4-0.9,0.8
			c-0.7,0.8-1,1.8-1,3.1c0,0.8,0.1,1.4,0.4,1.8c0.2,0.4,0.4,0.5,0.6,0.5c0.2,0,0.4-0.1,0.5-0.2c0.1-0.1,0.3-0.3,0.4-0.7
			C216.9,6.4,217.2,4.5,217.4,2.2z"/>
		<path class="st15" d="M228.9,1.1C228.9,1.2,228.8,1.2,228.9,1.1c-0.1,0.1-0.1,0.1-0.2,0.1c-0.3,0-0.5,0-0.8,0v8.1l0,1.3
			c0,0.1,0,0.1-0.1,0.1h-0.6c-0.1,0-0.1,0-0.1-0.1l0-1.3V8.1c-1,0.4-2.1,0.7-3.2,1c-0.3,0.1-0.4,0.1-0.5,0.2c0,0-0.1,0.1-0.2,0.1
			c0,0-0.1,0-0.1-0.1c-0.1-0.2-0.1-0.5-0.2-0.7c0.3,0,0.7-0.1,1-0.2l0.2,0V1.2c-0.3,0-0.5,0-0.7,0c-0.1,0-0.2,0-0.2,0
			c-0.1,0-0.1,0-0.1-0.1V0.7c0-0.1,0-0.1,0.1-0.1l1.5,0h2.4l1.5,0c0.1,0,0.1,0,0.1,0.1V1.1z M227.1,3V1.2h-2.2V3H227.1z M227.1,5.3
			V3.6h-2.2v1.8H227.1z M227.1,7.5V6h-2.2v2.2C225.8,7.9,226.5,7.7,227.1,7.5z M234.2,9.9c-0.2,0.1-0.3,0.3-0.4,0.4
			c-0.1,0.1-0.1,0.1-0.1,0.1c0,0-0.1,0-0.2-0.1c-0.9-0.7-1.6-1.5-2.2-2.3c-0.7,0.9-1.5,1.6-2.6,2.4c-0.1,0.1-0.2,0.1-0.2,0.1
			s-0.1-0.1-0.2-0.2c-0.1-0.1-0.2-0.3-0.3-0.4c1.2-0.7,2.1-1.5,2.8-2.6c-0.8-1.4-1.4-3-1.6-4.9c-0.2,0-0.4,0-0.6,0
			c-0.1,0-0.2,0-0.2,0c-0.1,0-0.1,0-0.1-0.1V1.9c0-0.1,0-0.1,0.1-0.1l1.4,0h2.8c0.1,0,0.2,0,0.3,0c0,0,0.1,0,0.1,0
			c0.1,0,0.2,0.1,0.4,0.3c0.1,0.1,0.2,0.3,0.2,0.3c0,0,0,0.1-0.1,0.2c-0.1,0.1-0.1,0.2-0.1,0.5c-0.3,1.7-0.9,3.2-1.7,4.5
			C232.3,8.4,233.2,9.2,234.2,9.9z M232.7,2.5H230c0.2,1.7,0.7,3.2,1.3,4.3C232,5.6,232.5,4.2,232.7,2.5z"/>
		<path class="st15" d="M238.2,3.1c0,0.1,0,0.1-0.1,0.1c-0.1,0.1-0.2,0.2-0.3,0.4c-0.1,0.3-0.3,0.6-0.6,0.9v4.6l0,1.6
			c0,0.1,0,0.1-0.1,0.1h-0.6c-0.1,0-0.1,0-0.1-0.1l0-1.6V6.9c0-0.1,0-0.6,0-1.5c-0.4,0.4-0.7,0.8-1.1,1.1c-0.1,0.1-0.1,0.1-0.2,0.1
			c0,0-0.1,0-0.1-0.1c-0.1-0.2-0.2-0.3-0.3-0.4c1-0.9,1.8-1.8,2.4-3c0.1-0.2,0.2-0.4,0.2-0.6c0.2,0.1,0.4,0.2,0.6,0.3
			C238.1,2.9,238.2,3,238.2,3.1z M238.1,0.6c0,0,0,0.1-0.1,0.1c-0.1,0.1-0.2,0.2-0.3,0.3c-0.6,0.8-1.3,1.6-2.1,2.2
			c-0.1,0.1-0.2,0.1-0.2,0.1c0,0-0.1-0.1-0.2-0.2c-0.1-0.1-0.2-0.3-0.3-0.4c0.9-0.5,1.6-1.3,2.2-2.2c0.1-0.2,0.2-0.4,0.3-0.6
			c0.2,0.1,0.4,0.2,0.6,0.3C238,0.4,238.1,0.5,238.1,0.6z M245.5,7.3C245.5,7.3,245.5,7.3,245.5,7.3l-1.7,0.1v0.8l0,1.5
			c0,0.4-0.1,0.6-0.3,0.8c-0.2,0.1-0.7,0.2-1.5,0.2c-0.1,0-0.2,0-0.2,0c0,0,0-0.1-0.1-0.2c-0.1-0.2-0.2-0.4-0.2-0.5
			c0.4,0,0.8,0.1,1.1,0.1c0.1,0,0.1,0,0.2,0c0.3,0,0.4-0.2,0.4-0.4V7.3h-3.4l-1.7,0c-0.1,0-0.1,0-0.1-0.1V6.8c0-0.1,0-0.1,0.1-0.1
			l1.7,0h3.4v-1h-3.3l-1.7,0c-0.1,0-0.1,0-0.1-0.1V5.1c0-0.1,0-0.1,0.1-0.1l1.7,0h3.9l1.7,0c0.1,0,0.1,0,0.1,0.1v0.5
			c0,0.1,0,0.1-0.1,0.1l-1.6,0v1l1.6,0c0.1,0,0.1,0,0.1,0.1V7.3z M244.4,4.1C244.4,4.2,244.3,4.2,244.4,4.1l-1.5,0.1h-2.1l-1.4,0
			c-0.1,0-0.1,0-0.1-0.1l0-1.1V1.6l0-1.1c0-0.1,0-0.1,0.1-0.1l1.4,0h2.1l1.4,0c0.1,0,0.1,0,0.1,0.1l0,1.1v1.4L244.4,4.1z M241.1,9.1
			C241.2,9.1,241.2,9.1,241.1,9.1c0,0.1,0,0.1-0.1,0.2l-0.3,0.2c-0.1,0.1-0.1,0.1-0.1,0.1s0,0-0.1-0.1c-0.3-0.5-0.7-0.9-1.2-1.3
			c0,0,0-0.1,0-0.1c0,0,0-0.1,0.1-0.1l0.3-0.2c0,0,0.1,0,0.1,0s0,0,0.1,0C240.4,8.2,240.8,8.6,241.1,9.1z M243.7,2.1v-1h-3.7v1
			H243.7z M243.7,3.6v-1h-3.7v1H243.7z"/>
	</g>
	<g>
		<path class="st15" d="M199.1,29.4h7.8c-0.1,1.1-0.4,2-0.7,2.7c-0.3,0.7-0.8,1.3-1.4,1.8l-0.7-0.6c0.5-0.4,0.9-0.9,1.3-1.5
			c0.3-0.5,0.5-1,0.5-1.6h-6.7V29.4z M199.4,38c1-0.5,1.8-1.1,2.2-1.8c0.4-0.8,0.7-1.8,0.7-3.2v-1.9h0.9v1.9c0,1.6-0.3,2.9-1,3.8
			c-0.5,0.7-1.2,1.3-2.2,1.8L199.4,38z"/>
		<path class="st15" d="M211.1,30.7c-0.6,1.3-1.3,2.5-2.2,3.5l-0.7-0.5c1.3-1.4,2.1-3,2.6-5l0.9,0.1c-0.1,0.3-0.2,0.7-0.3,1.1h4.2
			c-0.4,2.8-1.1,4.9-2.3,6.3c-0.9,1.1-2.2,2-3.8,2.7l-0.5-0.6c1.7-0.7,3-1.6,3.8-2.8c0.8-1.2,1.4-2.7,1.7-4.7H211.1z"/>
		<path class="st15" d="M219.3,31.5v-2.8h0.9v2.6l4.6-1l0.5,0.6c-0.6,1.8-1.5,3.3-2.5,4.5L222,35c1.1-1.3,1.8-2.5,2.2-3.7l-4,0.9
			v4.3c0,0.5,0.1,0.9,0.4,1c0.2,0.1,0.7,0.2,1.5,0.2c0.9,0,1.8,0,2.8-0.1v0.9c-0.9,0.1-1.8,0.1-3,0.1c-1.1,0-1.8-0.2-2.2-0.5
			c-0.3-0.3-0.4-0.8-0.4-1.5v-4.1l-2,0.5L217,32L219.3,31.5z"/>
		<path class="st15" d="M231.4,34.9c-1,1.6-2.5,2.9-4.3,3.8l-0.5-0.7c1.7-0.9,3-2,3.9-3.4c0.8-1.2,1.4-2.6,1.8-4.3h-5v-0.8h6.2
			c-0.4,1.8-0.9,3.3-1.6,4.6c1.1,1.3,2,2.6,2.8,4l-0.9,0.6C233.2,37.4,232.4,36.1,231.4,34.9z"/>
		<path class="st15" d="M241.4,33.1v5.7h-0.9V28.7h0.9v3.5c1.9,0.5,3.4,1.2,4.6,1.9l-0.5,0.9C244.5,34.2,243.1,33.6,241.4,33.1z"/>
		<path class="st15" d="M247.2,33.4h6.5v0.9h-6.5V33.4z"/>
		<path class="st15" d="M257.8,30.7c-0.6,1.3-1.3,2.5-2.2,3.5l-0.7-0.5c1.3-1.4,2.1-3,2.6-5l0.9,0.1c-0.1,0.3-0.2,0.7-0.3,1.1h4.2
			c-0.4,2.8-1.1,4.9-2.3,6.3c-0.9,1.1-2.2,2-3.8,2.7l-0.5-0.6c1.7-0.7,3-1.6,3.8-2.8c0.8-1.2,1.4-2.7,1.7-4.7H257.8z"/>
		<path class="st15" d="M264.5,29.8c1.1,0.6,2.1,1.2,2.8,1.8l-0.6,0.8c-0.7-0.6-1.6-1.2-2.8-1.9L264.5,29.8z M270.6,30.4l0.9,0.4
			c-0.4,2.1-1.1,3.7-2.2,5c-1.2,1.3-2.8,2.2-4.8,2.8l-0.4-0.8C267.8,36.8,270,34.3,270.6,30.4z"/>
	</g>
	<g>
		<path class="st15" d="M186.6,134.7h-1v-3.8h-4.3v3.8h-1v-8.4h1v3.7h4.3v-3.7h1V134.7z"/>
		<path class="st15" d="M193.8,127.2h-2.4v7.5h-1v-7.5h-2.4v-0.9h5.8V127.2z"/>
		<path class="st15" d="M200,127.2h-2.4v7.5h-1v-7.5h-2.4v-0.9h5.8V127.2z"/>
		<path class="st15" d="M202.3,131.5v3.2h-1v-8.4h2.3c0.9,0,1.6,0.2,2.1,0.7s0.7,1.1,0.7,1.9s-0.3,1.4-0.8,2s-1.3,0.8-2.2,0.8H202.3
			z M202.3,127.2v3.4h1c0.7,0,1.2-0.2,1.6-0.5s0.5-0.7,0.5-1.3c0-1.1-0.7-1.7-2-1.7H202.3z"/>
		<path class="st15" d="M221.2,126.9C221.2,127,221.2,127,221.2,126.9l-1.8,0.1h-6.8v1.6c0,1.3-0.1,2.5-0.2,3.4
			c-0.2,1.1-0.5,2.2-1,3.1c0,0.1-0.1,0.1-0.1,0.1c0,0-0.1,0-0.2-0.1c-0.1-0.1-0.3-0.3-0.5-0.4c0.5-0.8,0.9-1.8,1-3
			c0.1-0.8,0.2-1.8,0.2-3.3l0-2.1c0-0.1,0-0.1,0.1-0.1l1.7,0h2.4v-0.8c0-0.4,0-0.7-0.1-1c0.3,0,0.6,0,0.8,0.1c0.1,0,0.1,0,0.1,0.1
			c0,0,0,0.1-0.1,0.2c0,0.1-0.1,0.3-0.1,0.6v0.8h2.6l1.7,0c0.1,0,0.1,0,0.1,0.1V126.9z M214.5,130.7c-0.2,1.2-0.6,2.3-1.1,3.2
			c0,0,0,0.1-0.1,0.1c0,0-0.1,0-0.1-0.1l-0.4-0.2c-0.1,0-0.1-0.1-0.1-0.1c0,0,0,0,0-0.1c0.5-0.9,0.8-1.9,1-3c0-0.1,0-0.1,0.1-0.1
			c0,0,0.1,0,0.1,0l0.3,0.1C214.5,130.6,214.5,130.6,214.5,130.7C214.5,130.7,214.5,130.7,214.5,130.7z M219.6,133.3
			c0,0.6-0.1,1-0.2,1.2c-0.1,0.2-0.2,0.3-0.4,0.5c-0.3,0.2-0.8,0.3-1.6,0.3c-0.9,0-1.4-0.1-1.7-0.3c-0.2-0.2-0.3-0.5-0.3-1v-2.7
			c0-0.7,0-1.2-0.1-1.5c0.3,0,0.6,0,0.8,0.1c0.1,0,0.2,0.1,0.2,0.1c0,0,0,0.1-0.1,0.2c0,0.1-0.1,0.5-0.1,1.1v2.3c0,0.4,0,0.6,0,0.6
			c0,0.1,0.1,0.2,0.2,0.3c0.1,0.1,0.5,0.2,1.1,0.2c0.6,0,1-0.1,1.2-0.2c0.1-0.1,0.2-0.3,0.3-0.6c0-0.2,0.1-0.6,0.1-1.1
			c0.1,0.1,0.3,0.2,0.5,0.2c0.1,0,0.2,0.1,0.2,0.2C219.6,133.2,219.6,133.2,219.6,133.3z M218.4,129.2
			C218.4,129.2,218.4,129.2,218.4,129.2c0.1,0.1,0,0.1,0,0.2l-0.3,0.3c-0.1,0.1-0.1,0.1-0.1,0.1c0,0,0,0-0.1,0
			c-0.7-0.6-1.4-1.2-2.3-1.6c0,0,0,0,0,0c0,0,0-0.1,0.1-0.1l0.2-0.3c0.1-0.1,0.1-0.1,0.1-0.1c0,0,0,0,0.1,0
			C216.9,128.1,217.7,128.6,218.4,129.2z M221.4,133.4C221.4,133.4,221.4,133.5,221.4,133.4c0,0.1,0,0.1-0.2,0.2l-0.3,0.2
			c-0.1,0-0.1,0.1-0.2,0.1c0,0,0,0-0.1-0.1c-0.3-1.1-0.7-2.2-1.2-3.1c0,0,0,0,0-0.1c0,0,0-0.1,0.1-0.1l0.3-0.1
			c0.1,0,0.1-0.1,0.1-0.1s0,0,0.1,0.1C220.6,131.3,221.1,132.3,221.4,133.4z"/>
		<path class="st15" d="M233.7,130.7c-0.1,0.1-0.3,0.3-0.4,0.5c-0.1,0.1-0.1,0.2-0.2,0.2c0,0-0.1,0-0.2,0c-1.1-0.3-2.1-0.7-3-1.3
			c-0.8-0.5-1.5-1-2-1.5c-1.2,1.2-2.8,2.2-4.8,2.9c-0.1,0-0.2,0.1-0.2,0.1c0,0-0.1-0.1-0.2-0.2c-0.1-0.2-0.2-0.3-0.3-0.4
			c2.1-0.6,3.7-1.5,4.8-2.6c0.2-0.2,0.3-0.4,0.4-0.5c0.3,0,0.5,0.1,0.7,0.2c0.1,0,0.2,0.1,0.2,0.1c0,0.1,0,0.1-0.1,0.1l-0.1,0
			c0.6,0.6,1.4,1.2,2.4,1.6C231.7,130.1,232.7,130.5,233.7,130.7z M227.9,126.5c0,0.1,0,0.1-0.1,0.1l-1.2,0H226
			c0.3,0.5,0.5,0.9,0.7,1.4c0,0,0,0,0,0c0,0,0,0.1-0.1,0.1l-0.4,0.1c-0.1,0-0.1,0-0.1,0c0,0-0.1,0-0.1-0.1c-0.2-0.6-0.4-1.1-0.7-1.6
			h-0.8c-0.3,0.5-0.7,0.9-1.1,1.3c-0.1,0.1-0.2,0.1-0.2,0.1c0,0-0.1,0-0.2-0.1c-0.1-0.1-0.2-0.2-0.4-0.3c0.7-0.6,1.3-1.4,1.8-2.4
			c0.1-0.2,0.1-0.3,0.2-0.6c0.3,0.1,0.5,0.1,0.7,0.2c0.1,0,0.1,0.1,0.1,0.1c0,0,0,0.1-0.1,0.2c0,0-0.1,0.1-0.2,0.3
			c0,0-0.1,0.1-0.2,0.3c-0.1,0.1-0.1,0.2-0.1,0.2h1.7l1.2,0c0.1,0,0.1,0,0.1,0.1V126.5z M231.5,135.3
			C231.5,135.4,231.5,135.4,231.5,135.3l-0.7,0.1c-0.1,0-0.1,0-0.1-0.1v-0.4h-5.3v0.5c0,0.1,0,0.1-0.1,0.1h-0.6
			c-0.1,0-0.1,0-0.1-0.1l0-1.7V133l0-1c0-0.1,0-0.1,0.1-0.1l1.6,0h3.3l1.6,0c0.1,0,0.1,0,0.1,0.1l0,0.9v0.8L231.5,135.3z
			 M230.8,134.3v-1.7h-5.3v1.7H230.8z M230.3,130.9C230.3,131,230.3,131,230.3,130.9l-1.4,0.1h-1.6l-1.3,0c-0.1,0-0.1,0-0.1-0.1
			v-0.5c0-0.1,0-0.1,0.1-0.1l1.3,0h1.6l1.3,0c0.1,0,0.1,0,0.1,0.1V130.9z M233.3,126.5c0,0.1,0,0.1-0.1,0.1l-1.5,0h-1
			c0.2,0.4,0.4,0.9,0.6,1.3c0,0,0,0,0,0c0,0,0,0.1-0.1,0.1l-0.4,0.1c-0.1,0-0.1,0-0.1,0c0,0-0.1,0-0.1-0.1c-0.2-0.6-0.4-1.1-0.7-1.6
			h-1c-0.2,0.3-0.4,0.6-0.6,0.9c-0.1,0.1-0.1,0.1-0.2,0.1c0,0-0.1,0-0.2-0.1c-0.1-0.1-0.2-0.2-0.4-0.2c0.5-0.5,0.9-1.2,1.2-1.9
			c0.1-0.2,0.1-0.4,0.1-0.5c0.3,0.1,0.5,0.1,0.7,0.2c0.1,0,0.1,0.1,0.1,0.1c0,0.1,0,0.1-0.1,0.2c0,0-0.1,0.1-0.2,0.3
			c-0.1,0.2-0.1,0.3-0.2,0.4h2.4l1.5,0c0.1,0,0.1,0,0.1,0.1V126.5z"/>
	</g>
</g>
</svg>
